  0
SECTION
  2
HEADER
  9
$ANGBASE
  50
0.0
  9
$ANGDIR
  70
1
  9
$MEASUREMENT
  70
1
  0
ENDSEC
  0
SECTION
  2
TABLES
  0
TABLE
  2
LTYPE
  70
4
  0
LTYPE
  5
40F
  2
CONTINUOUS
  70
0
  3
Solid line
  72
65
  73
0
  40
0.0
  0
LTYPE
  5
410
  2
DASHDOT
 70
0
  3
Dash Dot ____ _ ____ _
 72
65
 73
4
 40
2.0
 49
1.25
 49
-0.25
 49
0.25
 49
-0.25
  0
LTYPE
  5
411
  2
DASHED
 70
0
  3
Dashed __ __ __ __ __
 72
65
 73
2
 40
0.75
 49
0.5
 49
-0.25
  0
LTYPE
  5
43B
  2
DOTTED
 70
0
  3
Dotted .  .  .  .
 72
65
 73
2
 40
0.2
 49
0.0
 49
-0.2
  0
ENDTAB
  0
TABLE
  2
STYLE
  70
4
  0
STYLE
  2
KICAD
  70
0
  40
0
  41
1
  42
1
  50
0
  71
0
  3
isocp.shx
  0
STYLE
  2
KICADB
  70
0
  40
0
  41
1
  42
1
  50
0
  71
0
  3
isocp.shx
  0
STYLE
  2
KICADI
  70
0
  40
0
  41
1
  42
1
  50
15
  71
0
  3
isocp.shx
  0
STYLE
  2
KICADBI
  70
0
  40
0
  41
1
  42
1
  50
15
  71
0
  3
isocp.shx
  0
ENDTAB
  0
TABLE
  2
LAYER
  70
1
  0
LAYER
  2
BLACK
  70
0
  62
7
  6
CONTINUOUS
  0
ENDTAB
  0
ENDSEC
  0
SECTION
  2
ENTITIES
0
LINE
8
BLACK
6
CONTINUOUS
10
131.1909839999999861
20
-118.7150689999999997
11
118.1574999999999989
21
-116.2049999999999983
0
ARC
8
BLACK
10
151.5379439999999818
20
-124.1235080000000011
40
1.5000001269816612
50
79.19999983
51
169.19999983
0
ARC
8
BLACK
10
130.9099109999999939
20
-120.188500999999988
40
1.5000012966504395
50
-10.79995549
51
79.19996947
0
LINE
8
BLACK
6
CONTINUOUS
10
133.5757020000000068
20
-122.2240749999999991
11
148.3100100000000054
21
-125.0347949999999884
0
ARC
8
BLACK
10
148.5910820000000001
20
-123.5613639999999975
40
1.5000001269816612
50
-100.80000017
51
-10.80000017
0
ARC
8
BLACK
10
133.8567740000000015
20
-120.7506439999999941
40
1.5000001269816612
50
-190.80000017
51
-100.80000017
0
LINE
8
BLACK
6
CONTINUOUS
10
160.2047599999999932
20
-124.2508610000000004
11
151.8190160000000049
21
-122.650076999999996
0
LINE
8
BLACK
6
CONTINUOUS
10
179.0949689999999919
20
-128.8183879999999988
11
177.4699229999999943
21
-132.3017380000000003
0
LINE
8
BLACK
6
CONTINUOUS
10
187.9699530000000038
20
-109.7859249999999918
11
189.5949999999999989
21
-106.3025729999999953
0
LINE
8
BLACK
6
CONTINUOUS
10
183.0817469999999787
20
-127.3673199999999923
11
189.4210219999999936
21
-113.7727019999999953
0
ARC
8
BLACK
10
181.7222849999999994
20
-126.7333909999999975
40
1.5000009688280203
50
-114.99991435
51
-25.00005049
0
ARC
8
BLACK
10
189.3294149999999831
20
-110.4198519999999917
40
1.5000005462092338
50
-204.99998125
51
-115.00001587
0
ARC
8
BLACK
10
180.4544309999999996
20
-129.4523159999999962
40
1.5000005462092338
50
64.99996799
51
154.99998413
0
ARC
8
BLACK
10
188.0615579999999909
20
-113.1387759999999929
40
1.5000009688280203
50
-24.99991435
51
64.99994951
0
LINE
8
BLACK
6
CONTINUOUS
10
189.5949999999999989
20
-103.472572999999997
11
189.5949999999999989
21
-106.3025729999999953
0
LINE
8
BLACK
6
CONTINUOUS
10
189.5949999999999989
20
-65.3725730000000027
11
189.5949999999999989
21
-82.472572999999997
0
ARC
8
BLACK
10
191.0949999999999989
20
-103.472572999999997
40
1.5
50
90.00000000
51
180.00000000
0
ARC
8
BLACK
10
191.0949999999999989
20
-100.472572999999997
40
1.5
50
-90.00000000
51
-0.00000000
0
ARC
8
BLACK
10
191.0949999999999989
20
-82.472572999999997
40
1.5
50
-180.00000000
51
-90.00000000
0
ARC
8
BLACK
10
191.0949999999999989
20
-85.472572999999997
40
1.5
50
0.00000000
51
90.00000000
0
LINE
8
BLACK
6
CONTINUOUS
10
192.5949999999999989
20
-100.472572999999997
11
192.5949999999999989
21
-85.472572999999997
0
ARC
8
BLACK
10
191.0949999999999989
20
-44.3725729999999956
40
1.5
50
-180.00000000
51
-90.00000000
0
ARC
8
BLACK
10
191.0949999999999989
20
-47.3725729999999956
40
1.5
50
0.00000000
51
90.00000000
0
ARC
8
BLACK
10
191.0949999999999989
20
-65.3725730000000027
40
1.5
50
90.00000000
51
180.00000000
0
ARC
8
BLACK
10
191.0949999999999989
20
-62.3725729999999956
40
1.5
50
-90.00000000
51
-0.00000000
0
LINE
8
BLACK
6
CONTINUOUS
10
192.5949999999999989
20
-47.3725729999999956
11
192.5949999999999989
21
-62.3725729999999956
0
LINE
8
BLACK
6
CONTINUOUS
10
170.5449999999999875
20
-21.9074999999999989
11
161.9950000000000045
21
-21.9074999999999989
0
ARC
8
BLACK
10
161.9950000000000045
20
-20.4074999999999989
40
1.5
50
-180.00000000
51
-90.00000000
0
ARC
8
BLACK
10
158.9950000000000045
20
-20.4074999999999989
40
1.5
50
0.00000000
51
90.00000000
0
ARC
8
BLACK
10
140.9950000000000045
20
-20.4074999999999989
40
1.5
50
-90.00000000
51
-0.00000000
0
ARC
8
BLACK
10
143.9950000000000045
20
-20.4074999999999989
40
1.5
50
90.00000000
51
180.00000000
0
LINE
8
BLACK
6
CONTINUOUS
10
158.9950000000000045
20
-18.9074999999999989
11
143.9950000000000045
21
-18.9074999999999989
0
LINE
8
BLACK
6
CONTINUOUS
10
85.7950000000000017
20
-104.7749999999999915
11
94.3449999999999989
21
-104.7749999999999915
0
LINE
8
BLACK
6
CONTINUOUS
10
53.2449999999999974
20
-40.125
11
53.2449999999999974
21
-55.125
0
ARC
8
BLACK
10
64.7950000000000017
20
-106.2749999999999915
40
1.5
50
0.00000000
51
90.00000000
0
ARC
8
BLACK
10
67.7950000000000017
20
-106.2749999999999915
40
1.5
50
-180.00000000
51
-90.00000000
0
ARC
8
BLACK
10
85.7950000000000017
20
-106.2749999999999915
40
1.5
50
90.00000000
51
180.00000000
0
ARC
8
BLACK
10
82.7950000000000017
20
-106.2749999999999915
40
1.5
50
-90.00000000
51
-0.00000000
0
LINE
8
BLACK
6
CONTINUOUS
10
67.7950000000000017
20
-107.7749999999999915
11
82.7950000000000017
21
-107.7749999999999915
0
LINE
8
BLACK
6
CONTINUOUS
10
85.7950000000000017
20
-28.5749999999999993
11
94.3449999999999989
21
-28.5749999999999993
0
ARC
8
BLACK
10
85.7950000000000017
20
-27.0749999999999993
40
1.5
50
-180.00000000
51
-90.00000000
0
ARC
8
BLACK
10
82.7950000000000017
20
-27.0749999999999993
40
1.5
50
0.00000000
51
90.00000000
0
ARC
8
BLACK
10
64.7950000000000017
20
-27.0749999999999993
40
1.5
50
-90.00000000
51
-0.00000000
0
ARC
8
BLACK
10
67.7950000000000017
20
-27.0749999999999993
40
1.5
50
90.00000000
51
180.00000000
0
LINE
8
BLACK
6
CONTINUOUS
10
82.7950000000000017
20
-25.5749999999999993
11
67.7950000000000017
21
-25.5749999999999993
0
LINE
8
BLACK
6
CONTINUOUS
10
56.2449999999999974
20
-96.2249999999999943
11
56.2449999999999974
21
-104.7749999999999915
0
LINE
8
BLACK
6
CONTINUOUS
10
56.2449999999999974
20
-58.125
11
56.2449999999999974
21
-75.2249999999999943
0
ARC
8
BLACK
10
54.7449999999999974
20
-75.2249999999999943
40
1.5
50
-90.00000000
51
-0.00000000
0
ARC
8
BLACK
10
54.7449999999999974
20
-78.2249999999999943
40
1.5
50
90.00000000
51
180.00000000
0
ARC
8
BLACK
10
54.7449999999999974
20
-96.2249999999999943
40
1.5
50
0.00000000
51
90.00000000
0
ARC
8
BLACK
10
54.7449999999999974
20
-93.2249999999999943
40
1.5
50
-180.00000000
51
-90.00000000
0
LINE
8
BLACK
6
CONTINUOUS
10
53.2449999999999974
20
-93.2249999999999943
11
53.2449999999999974
21
-78.2249999999999943
0
ARC
8
BLACK
10
54.7449999999999974
20
-58.125
40
1.5
50
0.00000000
51
90.00000000
0
ARC
8
BLACK
10
54.7449999999999974
20
-37.125
40
1.5
50
-90.00000000
51
-0.00000000
0
ARC
8
BLACK
10
54.7449999999999974
20
-55.125
40
1.5
50
-180.00000000
51
-90.00000000
0
ARC
8
BLACK
10
54.7449999999999974
20
-40.125
40
1.5
50
90.00000000
51
180.00000000
0
LINE
8
BLACK
6
CONTINUOUS
10
189.5949999999999989
20
-44.3725729999999956
11
189.5949999999999989
21
-35.8225729999999984
0
LINE
8
BLACK
6
CONTINUOUS
10
177.4699229999999943
20
-132.3017380000000003
11
160.2047599999999932
21
-124.2508610000000004
0
LINE
8
BLACK
6
CONTINUOUS
10
189.5949999999999989
20
-35.8225729999999984
11
170.5449999999999875
21
-35.8225729999999984
0
LINE
8
BLACK
6
CONTINUOUS
10
170.5449999999999875
20
-35.8225729999999984
11
170.5449999999999875
21
-21.9074999999999989
0
LINE
8
BLACK
6
CONTINUOUS
10
56.2449999999999974
20
-28.5749999999999993
11
64.7950000000000017
21
-28.5749999999999993
0
LINE
8
BLACK
6
CONTINUOUS
10
132.4449999999999932
20
-19.0500000000000007
11
132.4449999999999932
21
-21.9074999999999989
0
LINE
8
BLACK
6
CONTINUOUS
10
113.394999999999996
20
-20.9549999999999983
11
113.394999999999996
21
-19.0500000000000007
0
LINE
8
BLACK
6
CONTINUOUS
10
94.3449999999999989
20
-116.2049999999999983
11
118.1574999999999989
21
-116.2049999999999983
0
LINE
8
BLACK
6
CONTINUOUS
10
94.3449999999999989
20
-28.5749999999999993
11
94.3449999999999989
21
-20.9549999999999983
0
LINE
8
BLACK
6
CONTINUOUS
10
94.3449999999999989
20
-104.7749999999999915
11
94.3449999999999989
21
-116.2049999999999983
0
LINE
8
BLACK
6
CONTINUOUS
10
64.7950000000000017
20
-104.7749999999999915
11
56.2449999999999974
21
-104.7749999999999915
0
LINE
8
BLACK
6
CONTINUOUS
10
132.4449999999999932
20
-21.9074999999999989
11
140.9950000000000045
21
-21.9074999999999989
0
LINE
8
BLACK
6
CONTINUOUS
10
56.2449999999999974
20
-37.125
11
56.2449999999999974
21
-28.5749999999999993
0
LINE
8
BLACK
6
CONTINUOUS
10
94.3449999999999989
20
-20.9549999999999983
11
113.394999999999996
21
-20.9549999999999983
0
LINE
8
BLACK
6
CONTINUOUS
10
113.394999999999996
20
-19.0500000000000007
11
132.4449999999999932
21
-19.0500000000000007
  0
ENDSEC
  0
EOF
