  0
SECTION
  2
HEADER
  9
$ACADVER
  1
AC1024
  9
$ACADMAINTVER
 70
6
  9
$DWGCODEPAGE
  3
ANSI_1252
  9
$LASTSAVEDBY
  1
ezdxf
  9
$INSBASE
 10
0.0
 20
0.0
 30
0.0
  9
$EXTMIN
 10
1e+20
 20
1e+20
 30
1e+20
  9
$EXTMAX
 10
-1e+20
 20
-1e+20
 30
-1e+20
  9
$LIMMIN
 10
0.0
 20
0.0
  9
$LIMMAX
 10
420.0
 20
297.0
  9
$ORTHOMODE
 70
0
  9
$REGENMODE
 70
1
  9
$FILLMODE
 70
1
  9
$QTEXTMODE
 70
0
  9
$MIRRTEXT
 70
1
  9
$LTSCALE
 40
1.0
  9
$ATTMODE
 70
1
  9
$TEXTSIZE
 40
2.5
  9
$TRACEWID
 40
1.0
  9
$TEXTSTYLE
  7
Standard
  9
$CLAYER
  8
0
  9
$CELTYPE
  6
ByLayer
  9
$CECOLOR
 62
256
  9
$CELTSCALE
 40
1.0
  9
$DISPSILH
 70
0
  9
$DIMSCALE
 40
1.0
  9
$DIMASZ
 40
2.5
  9
$DIMEXO
 40
0.625
  9
$DIMDLI
 40
3.75
  9
$DIMRND
 40
0.0
  9
$DIMDLE
 40
0.0
  9
$DIMEXE
 40
1.25
  9
$DIMTP
 40
0.0
  9
$DIMTM
 40
0.0
  9
$DIMTXT
 40
2.5
  9
$DIMCEN
 40
2.5
  9
$DIMTSZ
 40
0.0
  9
$DIMTOL
 70
0
  9
$DIMLIM
 70
0
  9
$DIMTIH
 70
0
  9
$DIMTOH
 70
0
  9
$DIMSE1
 70
0
  9
$DIMSE2
 70
0
  9
$DIMTAD
 70
1
  9
$DIMZIN
 70
8
  9
$DIMBLK
  1

  9
$DIMASO
 70
1
  9
$DIMSHO
 70
1
  9
$DIMPOST
  1

  9
$DIMAPOST
  1

  9
$DIMALT
 70
0
  9
$DIMALTD
 70
3
  9
$DIMALTF
 40
0.03937007874
  9
$DIMLFAC
 40
1.0
  9
$DIMTOFL
 70
1
  9
$DIMTVP
 40
0.0
  9
$DIMTIX
 70
0
  9
$DIMSOXD
 70
0
  9
$DIMSAH
 70
0
  9
$DIMBLK1
  1

  9
$DIMBLK2
  1

  9
$DIMSTYLE
  2
ISO-25
  9
$DIMCLRD
 70
0
  9
$DIMCLRE
 70
0
  9
$DIMCLRT
 70
0
  9
$DIMTFAC
 40
1.0
  9
$DIMGAP
 40
0.625
  9
$DIMJUST
 70
0
  9
$DIMSD1
 70
0
  9
$DIMSD2
 70
0
  9
$DIMTOLJ
 70
0
  9
$DIMTZIN
 70
8
  9
$DIMALTZ
 70
0
  9
$DIMALTTZ
 70
0
  9
$DIMUPT
 70
0
  9
$DIMDEC
 70
2
  9
$DIMTDEC
 70
2
  9
$DIMALTU
 70
2
  9
$DIMALTTD
 70
3
  9
$DIMTXSTY
  7
Standard
  9
$DIMAUNIT
 70
0
  9
$DIMADEC
 70
0
  9
$DIMALTRND
 40
0.0
  9
$DIMAZIN
 70
0
  9
$DIMDSEP
 70
44
  9
$DIMATFIT
 70
3
  9
$DIMFRAC
 70
0
  9
$DIMLDRBLK
  1

  9
$DIMLUNIT
 70
2
  9
$DIMLWD
 70
-2
  9
$DIMLWE
 70
-2
  9
$DIMTMOVE
 70
0
  9
$DIMFXL
 40
1.0
  9
$DIMFXLON
 70
0
  9
$DIMJOGANG
 40
0.785398163397
  9
$DIMTFILL
 70
0
  9
$DIMTFILLCLR
 70
0
  9
$DIMARCSYM
 70
0
  9
$DIMLTYPE
  6

  9
$DIMLTEX1
  6

  9
$DIMLTEX2
  6

  9
$DIMTXTDIRECTION
 70
0
  9
$LUNITS
 70
2
  9
$LUPREC
 70
4
  9
$SKETCHINC
 40
1.0
  9
$FILLETRAD
 40
10.0
  9
$AUNITS
 70
0
  9
$AUPREC
 70
2
  9
$MENU
  1
.
  9
$ELEVATION
 40
0.0
  9
$PELEVATION
 40
0.0
  9
$THICKNESS
 40
0.0
  9
$LIMCHECK
 70
0
  9
$CHAMFERA
 40
0.0
  9
$CHAMFERB
 40
0.0
  9
$CHAMFERC
 40
0.0
  9
$CHAMFERD
 40
0.0
  9
$SKPOLY
 70
0
  9
$TDCREATE
 40
2461298.0392824076
  9
$TDUCREATE
 40
2458532.153996898
  9
$TDUPDATE
 40
2461298.0392824076
  9
$TDUUPDATE
 40
2458532.1544311
  9
$TDINDWG
 40
0.0
  9
$TDUSRTIMER
 40
0.0
  9
$USRTIMER
 70
1
  9
$ANGBASE
 50
0.0
  9
$ANGDIR
 70
0
  9
$PDMODE
 70
0
  9
$PDSIZE
 40
0.0
  9
$PLINEWID
 40
0.0
  9
$SPLFRAME
 70
0
  9
$SPLINETYPE
 70
6
  9
$SPLINESEGS
 70
8
  9
$HANDSEED
  5
59
  9
$SURFTAB1
 70
6
  9
$SURFTAB2
 70
6
  9
$SURFTYPE
 70
6
  9
$SURFU
 70
6
  9
$SURFV
 70
6
  9
$UCSBASE
  2

  9
$UCSNAME
  2

  9
$UCSORG
 10
0.0
 20
0.0
 30
0.0
  9
$UCSXDIR
 10
1.0
 20
0.0
 30
0.0
  9
$UCSYDIR
 10
0.0
 20
1.0
 30
0.0
  9
$UCSORTHOREF
  2

  9
$UCSORTHOVIEW
 70
0
  9
$UCSORGTOP
 10
0.0
 20
0.0
 30
0.0
  9
$UCSORGBOTTOM
 10
0.0
 20
0.0
 30
0.0
  9
$UCSORGLEFT
 10
0.0
 20
0.0
 30
0.0
  9
$UCSORGRIGHT
 10
0.0
 20
0.0
 30
0.0
  9
$UCSORGFRONT
 10
0.0
 20
0.0
 30
0.0
  9
$UCSORGBACK
 10
0.0
 20
0.0
 30
0.0
  9
$PUCSBASE
  2

  9
$PUCSNAME
  2

  9
$PUCSORG
 10
0.0
 20
0.0
 30
0.0
  9
$PUCSXDIR
 10
1.0
 20
0.0
 30
0.0
  9
$PUCSYDIR
 10
0.0
 20
1.0
 30
0.0
  9
$PUCSORTHOREF
  2

  9
$PUCSORTHOVIEW
 70
0
  9
$PUCSORGTOP
 10
0.0
 20
0.0
 30
0.0
  9
$PUCSORGBOTTOM
 10
0.0
 20
0.0
 30
0.0
  9
$PUCSORGLEFT
 10
0.0
 20
0.0
 30
0.0
  9
$PUCSORGRIGHT
 10
0.0
 20
0.0
 30
0.0
  9
$PUCSORGFRONT
 10
0.0
 20
0.0
 30
0.0
  9
$PUCSORGBACK
 10
0.0
 20
0.0
 30
0.0
  9
$USERI1
 70
0
  9
$USERI2
 70
0
  9
$USERI3
 70
0
  9
$USERI4
 70
0
  9
$USERI5
 70
0
  9
$USERR1
 40
0.0
  9
$USERR2
 40
0.0
  9
$USERR3
 40
0.0
  9
$USERR4
 40
0.0
  9
$USERR5
 40
0.0
  9
$WORLDVIEW
 70
1
  9
$SHADEDGE
 70
3
  9
$SHADEDIF
 70
70
  9
$TILEMODE
 70
1
  9
$MAXACTVP
 70
64
  9
$PINSBASE
 10
0.0
 20
0.0
 30
0.0
  9
$PLIMCHECK
 70
0
  9
$PEXTMIN
 10
1e+20
 20
1e+20
 30
1e+20
  9
$PEXTMAX
 10
-1e+20
 20
-1e+20
 30
-1e+20
  9
$PLIMMIN
 10
0.0
 20
0.0
  9
$PLIMMAX
 10
420.0
 20
297.0
  9
$UNITMODE
 70
0
  9
$VISRETAIN
 70
1
  9
$PLINEGEN
 70
0
  9
$PSLTSCALE
 70
1
  9
$TREEDEPTH
 70
3020
  9
$CMLSTYLE
  2
Standard
  9
$CMLJUST
 70
0
  9
$CMLSCALE
 40
20.0
  9
$PROXYGRAPHICS
 70
1
  9
$MEASUREMENT
 70
1
  9
$CELWEIGHT
370
-1
  9
$ENDCAPS
280
0
  9
$JOINSTYLE
280
0
  9
$LWDISPLAY
290
0
  9
$INSUNITS
 70
4
  9
$HYPERLINKBASE
  1

  9
$STYLESHEET
  1

  9
$XEDIT
290
1
  9
$CEPSNTYPE
380
0
  9
$PSTYLEMODE
290
1
  9
$FINGERPRINTGUID
  2
{594EE1BD-071C-4B5C-9F2E-A34494ED86CA}
  9
$VERSIONGUID
  2
{BB7E336C-DBE2-4C9F-BBD0-679DF05D41BC}
  9
$EXTNAMES
290
1
  9
$PSVPSCALE
 40
0.0
  9
$OLESTARTUP
290
0
  9
$SORTENTS
280
127
  9
$INDEXCTL
280
0
  9
$HIDETEXT
280
1
  9
$XCLIPFRAME
280
1
  9
$HALOGAP
280
0
  9
$OBSCOLOR
 70
257
  9
$OBSLTYPE
280
0
  9
$INTERSECTIONDISPLAY
280
0
  9
$INTERSECTIONCOLOR
 70
257
  9
$DIMASSOC
280
2
  9
$PROJECTNAME
  1

  9
$CAMERADISPLAY
290
0
  9
$LENSLENGTH
 40
50.0
  9
$CAMERAHEIGHT
 40
0.0
  9
$STEPSPERSEC
 40
24.0
  9
$STEPSIZE
 40
100.0
  9
$3DDWFPREC
 40
2.0
  9
$PSOLWIDTH
 40
0.005
  9
$PSOLHEIGHT
 40
0.08
  9
$LOFTANG1
 40
1.570796326795
  9
$LOFTANG2
 40
1.570796326795
  9
$LOFTMAG1
 40
0.0
  9
$LOFTMAG2
 40
0.0
  9
$LOFTPARAM
 70
7
  9
$LOFTNORMALS
280
1
  9
$LATITUDE
 40
37.795
  9
$LONGITUDE
 40
-122.394
  9
$NORTHDIRECTION
 40
0.0
  9
$TIMEZONE
 70
-8000
  9
$LIGHTGLYPHDISPLAY
280
1
  9
$TILEMODELIGHTSYNCH
280
1
  9
$CMATERIAL
347
20
  9
$SOLIDHIST
280
0
  9
$SHOWHIST
280
1
  9
$DWFFRAME
280
2
  9
$DGNFRAME
280
2
  9
$REALWORLDSCALE
290
1
  9
$INTERFERECOLOR
 62
256
  9
$CSHADOW
280
0
  9
$SHADOWPLANELOCATION
 40
0.0
  0
ENDSEC
  0
SECTION
  2
CLASSES
  0
CLASS
  1
ACDBDICTIONARYWDFLT
  2
AcDbDictionaryWithDefault
  3
ObjectDBX Classes
 90
0
 91
0
280
0
281
0
  0
CLASS
  1
SUN
  2
AcDbSun
  3
SCENEOE
 90
1153
 91
0
280
0
281
0
  0
CLASS
  1
VISUALSTYLE
  2
AcDbVisualStyle
  3
ObjectDBX Classes
 90
4095
 91
0
280
0
281
0
  0
CLASS
  1
MATERIAL
  2
AcDbMaterial
  3
ObjectDBX Classes
 90
1153
 91
0
280
0
281
0
  0
CLASS
  1
SCALE
  2
AcDbScale
  3
ObjectDBX Classes
 90
1153
 91
0
280
0
281
0
  0
CLASS
  1
TABLESTYLE
  2
AcDbTableStyle
  3
ObjectDBX Classes
 90
4095
 91
0
280
0
281
0
  0
CLASS
  1
MLEADERSTYLE
  2
AcDbMLeaderStyle
  3
ACDB_MLEADERSTYLE_CLASS
 90
4095
 91
0
280
0
281
0
  0
CLASS
  1
DICTIONARYVAR
  2
AcDbDictionaryVar
  3
ObjectDBX Classes
 90
0
 91
0
280
0
281
0
  0
CLASS
  1
CELLSTYLEMAP
  2
AcDbCellStyleMap
  3
ObjectDBX Classes
 90
1152
 91
0
280
0
281
0
  0
CLASS
  1
MENTALRAYRENDERSETTINGS
  2
AcDbMentalRayRenderSettings
  3
SCENEOE
 90
1024
 91
0
280
0
281
0
  0
CLASS
  1
ACDBDETAILVIEWSTYLE
  2
AcDbDetailViewStyle
  3
ObjectDBX Classes
 90
1025
 91
0
280
0
281
0
  0
CLASS
  1
ACDBSECTIONVIEWSTYLE
  2
AcDbSectionViewStyle
  3
ObjectDBX Classes
 90
1025
 91
0
280
0
281
0
  0
CLASS
  1
RASTERVARIABLES
  2
AcDbRasterVariables
  3
ISM
 90
0
 91
0
280
0
281
0
  0
CLASS
  1
LAYOUT
  2
AcDbLayout
  3
ObjectDBX Classes
 90
0
 91
0
280
0
281
0
  0
CLASS
  1
ACDBPLACEHOLDER
  2
AcDbPlaceHolder
  3
ObjectDBX Classes
 90
0
 91
0
280
0
281
0
  0
ENDSEC
  0
SECTION
  2
TABLES
  0
TABLE
  2
VPORT
  5
8
330
0
100
AcDbSymbolTable
 70
1
  0
VPORT
  5
23
330
8
100
AcDbSymbolTableRecord
100
AcDbViewportTableRecord
  2
*Active
 70
0
 10
0.0
 20
0.0
 11
1.0
 21
1.0
 12
0.0
 22
0.0
 13
0.0
 23
0.0
 14
0.5
 24
0.5
 15
0.5
 25
0.5
 16
0.0
 26
0.0
 36
1.0
 17
0.0
 27
0.0
 37
0.0
 40
1000.0
 41
1.34
 42
50.0
 43
0.0
 44
0.0
 50
0.0
 51
0.0
 71
0
 72
1000
 73
1
 74
3
 75
0
 76
0
 77
0
 78
0
281
0
 65
0
146
0.0
  0
ENDTAB
  0
TABLE
  2
LTYPE
  5
2
330
0
100
AcDbSymbolTable
 70
3
  0
LTYPE
  5
24
330
2
100
AcDbSymbolTableRecord
100
AcDbLinetypeTableRecord
  2
ByBlock
 70
0
  3

 72
65
 73
0
 40
0.0
  0
LTYPE
  5
25
330
2
100
AcDbSymbolTableRecord
100
AcDbLinetypeTableRecord
  2
ByLayer
 70
0
  3

 72
65
 73
0
 40
0.0
  0
LTYPE
  5
26
330
2
100
AcDbSymbolTableRecord
100
AcDbLinetypeTableRecord
  2
Continuous
 70
0
  3

 72
65
 73
0
 40
0.0
  0
ENDTAB
  0
TABLE
  2
LAYER
  5
1
330
0
100
AcDbSymbolTable
 70
6
  0
LAYER
  5
27
330
1
100
AcDbSymbolTableRecord
100
AcDbLayerTableRecord
  2
0
 70
0
 62
7
  6
Continuous
370
-3
390
13
347
21
  0
LAYER
  5
28
330
1
100
AcDbSymbolTableRecord
100
AcDbLayerTableRecord
  2
Defpoints
 70
0
 62
7
  6
Continuous
290
0
370
-3
390
13
347
21
  0
LAYER
  5
2F
330
1
100
AcDbSymbolTableRecord
100
AcDbLayerTableRecord
  2
PLATE
 70
0
 62
7
  6
Continuous
370
-3
390
13
347
21
  0
LAYER
  5
31
330
1
100
AcDbSymbolTableRecord
100
AcDbLayerTableRecord
  2
PCB_REFERENCE
 70
0
 62
7
  6
Continuous
370
-3
390
13
347
21
  0
LAYER
  5
33
330
1
100
AcDbSymbolTableRecord
100
AcDbLayerTableRecord
  2
GASKET_CONTACT
 70
0
 62
7
  6
Continuous
370
-3
390
13
347
21
  0
LAYER
  5
39
330
1
100
AcDbSymbolTableRecord
100
AcDbLayerTableRecord
  2
SWITCH_CUTOUT
 70
0
 62
7
  6
Continuous
370
-3
390
13
347
21
  0
ENDTAB
  0
TABLE
  2
STYLE
  5
5
330
0
100
AcDbSymbolTable
 70
1
  0
STYLE
  5
29
330
5
100
AcDbSymbolTableRecord
100
AcDbTextStyleTableRecord
  2
Standard
 70
0
 40
0.0
 41
1.0
 50
0.0
 71
0
 42
2.5
  3
txt
  4

  0
ENDTAB
  0
TABLE
  2
VIEW
  5
7
330
0
100
AcDbSymbolTable
 70
0
  0
ENDTAB
  0
TABLE
  2
UCS
  5
6
330
0
100
AcDbSymbolTable
 70
0
  0
ENDTAB
  0
TABLE
  2
APPID
  5
3
330
0
100
AcDbSymbolTable
 70
3
  0
APPID
  5
2A
330
3
100
AcDbSymbolTableRecord
100
AcDbRegAppTableRecord
  2
ACAD
 70
0
  0
APPID
  5
56
330
3
100
AcDbSymbolTableRecord
100
AcDbRegAppTableRecord
  2
HATCHBACKGROUNDCOLOR
 70
0
  0
APPID
  5
57
330
3
100
AcDbSymbolTableRecord
100
AcDbRegAppTableRecord
  2
EZDXF
 70
0
  0
ENDTAB
  0
TABLE
  2
DIMSTYLE
  5
4
330
0
100
AcDbSymbolTable
 70
1
100
AcDbDimStyleTable
  0
DIMSTYLE
105
2B
330
4
100
AcDbSymbolTableRecord
100
AcDbDimStyleTableRecord
  2
Standard
 70
0
 40
1.0
 41
2.5
 42
0.625
 43
3.75
 44
1.25
 45
0.0
 46
0.0
 47
0.0
 48
0.0
 49
2.5
140
2.5
141
2.5
142
0.0
143
0.03937007874
144
1.0
145
0.0
146
1.0
147
0.625
148
0.0
 69
0
 70
0
 71
0
 72
0
 73
0
 74
0
 75
0
 76
0
 77
1
 78
8
 79
3
170
0
171
3
172
1
173
0
174
0
175
0
176
0
177
0
178
0
179
2
271
2
272
2
273
2
274
3
275
0
276
0
277
2
278
44
279
0
280
0
281
0
282
0
283
0
284
8
285
0
286
0
288
0
289
3
290
0
371
-2
372
-2
  0
ENDTAB
  0
TABLE
  2
BLOCK_RECORD
  5
9
330
0
100
AcDbSymbolTable
 70
2
  0
BLOCK_RECORD
  5
17
330
9
100
AcDbSymbolTableRecord
100
AcDbBlockTableRecord
  2
*Model_Space
340
1A
 70
0
280
1
281
0
  0
BLOCK_RECORD
  5
1B
330
9
100
AcDbSymbolTableRecord
100
AcDbBlockTableRecord
  2
*Paper_Space
340
1E
 70
0
280
1
281
0
  0
ENDTAB
  0
ENDSEC
  0
SECTION
  2
BLOCKS
  0
BLOCK
  5
18
330
17
100
AcDbEntity
  8
0
100
AcDbBlockBegin
  2
*Model_Space
 70
0
 10
0.0
 20
0.0
 30
0.0
  3
*Model_Space
  1

  0
ENDBLK
  5
19
330
17
100
AcDbEntity
  8
0
100
AcDbBlockEnd
  0
BLOCK
  5
1C
330
1B
100
AcDbEntity
  8
0
100
AcDbBlockBegin
  2
*Paper_Space
 70
0
 10
0.0
 20
0.0
 30
0.0
  3
*Paper_Space
  1

  0
ENDBLK
  5
1D
330
1B
100
AcDbEntity
  8
0
100
AcDbBlockEnd
  0
ENDSEC
  0
SECTION
  2
ENTITIES
  0
LWPOLYLINE
  5
30
330
17
100
AcDbEntity
  8
PLATE
100
AcDbPolyline
 90
710
 70
1
 10
54.751777785704334
 20
-60.02619447073583
 10
54.75524926643139
 20
-71.199751450281
 10
54.74843490070275
 20
-71.30419506147749
 10
54.72804354800834
 20
-71.40685516198076
 10
54.69442424788097
 20
-71.50597451508092
 10
54.648152463115395
 20
-71.59985649117141
 10
54.59002022955048
 20
-71.68689410902027
 10
54.52102259876273
 20
-71.76559754252685
 10
54.442340605731815
 20
-71.8346196221299
 10
54.35532105302158
 20
-71.89277889435849
 10
54.261453457511
 20
-71.9390798448143
 10
54.162344554279166
 20
-71.9727299384283
 10
54.059690794061844
 20
-71.99315318531248
 10
53.955249305041995
 20
-72.0
 10
50.7710911377083
 20
-72.0
 10
50.65360702283372
 20
-72.00684227721707
 10
50.60178773928129
 20
-72.01366441531994
 10
50.52486702339617
 20
-72.02896489701719
 10
50.47438152870738
 20
-72.04249244454853
 10
50.400115993824926
 20
-72.06770219665114
 10
50.35182810881129
 20
-72.0877036935221
 10
50.28148845882364
 20
-72.12239137018216
 10
50.23622440258547
 20
-72.14852458523589
 10
50.17101416840583
 20
-72.19209667068843
 10
50.129548421494974
 20
-72.22391445736983
 10
50.07058336830976
 20
-72.27562542115238
 10
50.033625421152365
 20
-72.31258336830977
 10
49.98191445736989
 20
-72.37154842149491
 10
49.95009667068843
 20
-72.41301416840584
 10
49.90652458523587
 20
-72.47822440258548
 10
49.88039137018216
 20
-72.52348845882365
 10
49.84570369352215
 20
-72.59382810881122
 10
49.82570219665113
 20
-72.64211599382499
 10
49.800492444548496
 20
-72.71638152870747
 10
49.78696489701721
 20
-72.76686702339607
 10
49.77166441531995
 20
-72.84378773928127
 10
49.76484227721708
 20
-72.89560702283374
 10
49.758
 20
-73.0130911377083
 10
49.758
 20
-86.9869088622917
 10
49.76484227721708
 20
-87.10439297716626
 10
49.77166441531995
 20
-87.15621226071873
 10
49.78696489701721
 20
-87.23313297660393
 10
49.800492444548496
 20
-87.28361847129253
 10
49.82570219665113
 20
-87.35788400617501
 10
49.84570369352215
 20
-87.40617189118878
 10
49.88039137018216
 20
-87.47651154117635
 10
49.90652458523587
 20
-87.52177559741452
 10
49.95009667068843
 20
-87.58698583159416
 10
49.98191445736989
 20
-87.62845157850509
 10
50.033625421152365
 20
-87.68741663169023
 10
50.07058336830976
 20
-87.72437457884762
 10
50.129548421494974
 20
-87.77608554263017
 10
50.17101416840583
 20
-87.80790332931157
 10
50.23622440258547
 20
-87.85147541476411
 10
50.28148845882364
 20
-87.87760862981784
 10
50.35182810881129
 20
-87.9122963064779
 10
50.400115993824926
 20
-87.93229780334886
 10
50.47438152870738
 20
-87.95750755545147
 10
50.52486702339617
 20
-87.97103510298281
 10
50.60178773928129
 20
-87.98633558468006
 10
50.65360702283372
 20
-87.99315772278293
 10
50.7710911377083
 20
-88.0
 10
53.96071739912413
 20
-88.0
 10
54.06511781758637
 20
-88.00684140764604
 10
54.16773262149581
 20
-88.02724861843772
 10
54.2668067365923
 20
-88.06087259725518
 10
54.36064564685448
 20
-88.10713825573399
 10
54.447644376686924
 20
-88.16525428829998
 10
54.52631494165096
 20
-88.23422670627926
 10
54.59531179823493
 20
-88.31287583860252
 10
54.65345485738337
 20
-88.39985650833167
 10
54.69974966817272
 20
-88.49368103991935
 10
54.733404426421714
 20
-88.5927447036961
 10
54.75384351732933
 20
-88.69535316239488
 10
54.760717360513524
 20
-88.79975145028098
 10
54.76298484177277
 20
-96.09802934440326
 10
54.764696219809906
 20
-96.12394773797087
 10
54.77307449693233
 20
-96.14853424671806
 10
68.81560041582115
 20
-129.92115256514148
 10
68.84736311963697
 20
-129.99123960211975
 10
68.888640260574
 20
-130.06750159586701
 10
68.93614105927134
 20
-130.14005010186972
 10
68.95603232610509
 20
-130.16690006253236
 10
69.01159771633745
 20
-130.2334740740415
 10
69.0725281005496
 20
-130.2951757748273
 10
69.11246540139972
 20
-130.33050078366836
 10
69.18114542185342
 20
-130.38344099891737
 10
69.20874701751488
 20
-130.4022754036273
 10
69.28308409582019
 20
-130.44692526800657
 10
69.36088990487777
 20
-130.48521191942723
 10
69.41020865937575
 20
-130.50547283509397
 10
69.4416209909239
 20
-130.51686793537849
 10
69.52471346788072
 20
-130.54167220665005
 10
69.60958695595515
 20
-130.55945148172324
 10
69.69564863544652
 20
-130.57008157688927
 10
69.78229738743882
 20
-130.57348824364024
 10
69.83559451725449
 20
-130.57198484672793
 10
69.92191345250775
 20
-130.56369913512344
 10
70.0072390581326
 20
-130.54823457483428
 10
70.08530822934294
 20
-130.5273226410725
 10
70.12795227313174
 20
-130.51245219307546
 10
70.31900305357223
 20
-130.4334606432812
 10
70.4181162300739
 20
-130.3998875039393
 10
70.5207636536501
 20
-130.3795384529862
 10
70.62518899842418
 20
-130.3727616683255
 10
70.7296055177949
 20
-130.3796731026216
 10
70.83222661616607
 20
-130.40015449931758
 10
70.93129641809263
 20
-130.43385541603737
 10
71.02511981179629
 20
-130.48019922075227
 10
71.112091452998
 20
-130.53839295811466
 10
71.19072323280372
 20
-130.60744091714392
 10
71.25966973966011
 20
-130.68616166811736
 10
71.3177512797193
 20
-130.77320827716034
 10
71.3639740617276
 20
-130.86709135265818
 10
72.58165269676063
 20
-133.81219692603523
 10
72.63286505721953
 20
-133.91815270993422
 10
72.65896908309793
 20
-133.96343360600645
 10
72.70249911556556
 20
-134.02867191948738
 10
72.73429016082852
 20
-134.07015817211715
 10
72.78596309647942
 20
-134.1291565533972
 10
72.82289720752846
 20
-134.16613832129988
 10
72.88182890810725
 20
-134.21788729171797
 10
72.92327413206202
 20
-134.24973180659126
 10
72.98845625983303
 20
-134.2933459269162
 10
73.0337034574208
 20
-134.31950832028164
 10
73.10402072810574
 20
-134.3542413408223
 10
73.15229570723135
 20
-134.37427396687607
 10
73.2265449728333
 20
-134.39953159602135
 10
73.27702173521888
 20
-134.4130916909773
 10
73.35393257021775
 20
-134.42844176368976
 10
73.40574744446434
 20
-134.43529731056378
 10
73.48400388314973
 20
-134.4404771828434
 10
73.53627030239305
 20
-134.44051088132775
 10
73.61453335540143
 20
-134.43543192412372
 10
73.66635702671844
 20
-134.42864319762793
 10
73.74328759151449
 20
-134.4133923133062
 10
73.79378179751954
 20
-134.3998973188229
 10
73.9049662811661
 20
-134.3613312119203
 10
86.81853558619913
 20
-129.02210752265665
 10
86.92449137009768
 20
-128.97089516219793
 10
86.9697722661702
 20
-128.94479113631937
 10
87.03501057965094
 20
-128.90126110385185
 10
87.07649683228084
 20
-128.86947005858877
 10
87.13549521356089
 20
-128.8177971229379
 10
87.17247698146342
 20
-128.78086301188898
 10
87.22422595188151
 20
-128.72193131131024
 10
87.25607046675492
 20
-128.6804860873553
 10
87.29968458707972
 20
-128.61530395958448
 10
87.3258469804453
 20
-128.5700567619964
 10
87.3605800009859
 20
-128.4997394913117
 10
87.38061262703971
 20
-128.451464512186
 10
87.40587025618483
 20
-128.3772152465845
 10
87.41943035114097
 20
-128.3267384841982
 10
87.43478042385333
 20
-128.24982764919983
 10
87.44163597072739
 20
-128.19801277495287
 10
87.44681584300697
 20
-128.119756336268
 10
87.44684954149136
 20
-128.06748991702406
 10
87.4417705842873
 20
-127.98922686401582
 10
87.43498185779158
 20
-127.93740319269911
 10
87.4197309734698
 20
-127.86047262790292
 10
87.4062359789865
 20
-127.80997842189795
 10
87.36766987208395
 20
-127.69879393825147
 10
86.14999123705081
 20
-124.75368836487415
 10
86.1164180977089
 20
-124.65457518837248
 10
86.09606904675579
 20
-124.55192776479628
 10
86.08929226209509
 20
-124.4475024200222
 10
86.09620369639123
 20
-124.34308590065149
 10
86.11668509308718
 20
-124.24046480228031
 10
86.15038600980698
 20
-124.14139500035375
 10
86.19672981452187
 20
-124.0475716066501
 10
86.25492355188427
 20
-123.96059996544838
 10
86.32397151091355
 20
-123.88196818564266
 10
86.402692261887
 20
-123.81302167878627
 10
86.48973887092995
 20
-123.75494013872708
 10
86.58362194642781
 20
-123.70871735671878
 10
86.74724860376931
 20
-123.64106454095295
 10
86.84608918415722
 20
-123.60756430669016
 10
104.29527334196932
 20
-118.93824749197397
 10
104.32872098591936
 20
-118.92808532099697
 10
104.40821210042117
 20
-118.89846300216144
 10
104.45364317179106
 20
-118.87783840257818
 10
104.52826763181997
 20
-118.83749600523146
 10
104.55793451426956
 20
-118.81900571885733
 10
104.6270212004201
 20
-118.76977819754043
 10
104.6915437064634
 20
-118.71470401781717
 10
104.7510087641584
 20
-118.654204216399
 10
104.78342971246286
 20
-118.61628010184327
 10
104.83394606009618
 20
-118.54813013720585
 10
104.8529902554337
 20
-118.51881575117427
 10
104.89472705049876
 20
-118.44496211892776
 10
104.92985308044507
 20
-118.36774501539145
 10
104.94731125535651
 20
-118.32100564780343
 10
104.97140849652526
 20
-118.23966905071227
 10
104.9883087504286
 20
-118.15653842773663
 10
104.99314583772353
 20
-118.12191737646779
 10
104.99967721201745
 20
-118.03733806334617
 10
104.9999889287292
 20
-117.98325897944217
 10
104.99481618018653
 20
-117.90277701510534
 10
104.99050740482086
 20
-117.86808625179135
 10
104.97487632560845
 20
-117.78470766688501
 10
100.96449489279956
 20
-102.88442263683658
 10
100.93965097540658
 20
-102.74159359246346
 10
100.93421680715744
 20
-102.63837174850627
 10
100.93463547233364
 20
-102.55356205962102
 10
100.94188020837122
 20
-102.41242230803806
 10
100.94570404543654
 20
-102.3687009540116
 10
100.96306984728122
 20
-102.22844638330731
 10
100.97951208034785
 20
-102.13239482125242
 10
101.00978595737475
 20
-101.99434987188138
 10
101.04758461697364
 20
-101.85817286571042
 10
101.06083535998032
 20
-101.81633273739347
 10
101.10831960003523
 20
-101.68322314861982
 10
101.14527893573589
 20
-101.59305521027129
 10
101.20488056880693
 20
-101.4649124734019
 10
101.27141981718214
 20
-101.34023110309003
 10
101.29346178133413
 20
-101.30227941875138
 10
101.36878647341788
 20
-101.18270054754323
 10
101.42448984229011
 20
-101.10274190637314
 10
101.4505554807531
 20
-101.06743240312925
 10
101.53852270692315
 20
-100.95682190273669
 10
101.63242340101844
 20
-100.8512019456948
 10
101.73197495444407
 20
-100.75089041152442
 10
101.80375006975868
 20
-100.68497696507374
 10
101.83687775147445
 20
-100.65618920323026
 10
101.94681607099173
 20
-100.5673833386783
 10
102.02537793929875
 20
-100.5097267479919
 10
102.14306455141437
 20
-100.43147857225694
 10
102.20897686651944
 20
-100.39205310145499
 10
102.30276181797961
 20
-100.34582244809206
 10
102.40177517898339
 20
-100.31221821065859
 10
102.50432553980104
 20
-100.29181443828874
 10
102.60866106940372
 20
-100.28495968130706
 10
150.47746098650563
 20
-100.27500364786678
 10
150.54726021896906
 20
-100.27728169349301
 10
150.61678573298286
 20
-100.28336434127178
 10
150.71971827780123
 20
-100.30151406444648
 10
150.80370806328273
 20
-100.3248039184158
 10
150.88534839521893
 20
-100.35532534637322
 10
150.96401794020537
 20
-100.39284606138044
 10
151.02445880244093
 20
-100.42774158939368
 10
151.0962874918867
 20
-100.4771110205776
 10
151.16354001743912
 20
-100.53255287453392
 10
151.2374471254666
 20
-100.60645998256132
 10
151.29288897942305
 20
-100.67371250811371
 10
151.34225841060737
 20
-100.74554119755989
 10
151.3851796871252
 20
-100.82139939016439
 10
151.42132615152377
 20
-100.90070975817785
 10
151.4451960815854
 20
-100.96629193671792
 10
151.4684859355544
 20
-101.05028172219792
 10
151.48663565872903
 20
-101.15321426701357
 10
151.49271830650827
 20
-101.22273978103487
 10
151.4950000000007
 20
-101.29245577973072
 10
151.49538065375137
 20
-103.78371854551037
 10
151.50108370589396
 20
-103.87946250413009
 10
151.51397031247453
 20
-103.96569052476384
 10
151.52529584160445
 20
-104.01677681576054
 10
151.55005805569996
 20
-104.10037208432173
 10
151.58201185654983
 20
-104.18149107583321
 10
151.5967523182785
 20
-104.21310212542444
 10
151.6383535128081
 20
-104.28972246728135
 10
151.66646858418025
 20
-104.33385430952357
 10
151.71832874304494
 20
-104.40393897328954
 10
151.77609984469393
 20
-104.46923702829021
 10
151.83934221532508
 20
-104.52925151595464
 10
151.86606102670913
 20
-104.55167125695291
 10
151.93614569047548
 20
-104.60353141581723
 10
152.01048357538312
 20
-104.64908594402355
 10
152.05689787457516
 20
-104.67324768171832
 10
152.13685243879416
 20
-104.70801266170187
 10
152.21953272170535
 20
-104.73567684414688
 10
152.25322318423883
 20
-104.74470415839106
 10
152.33865851816907
 20
-104.762086329972
 10
152.4252837017541
 20
-104.7719561699661
 10
152.48628145448373
 20
-104.77461934624526
 10
188.58627314887053
 20
-104.775
 10
188.66471629823235
 20
-104.77195616997696
 10
188.75134148183147
 20
-104.762086329983
 10
188.83677681576214
 20
-104.7447041584015
 10
188.9203720843228
 20
-104.71994194430611
 10
188.9531475612074
 20
-104.70801266171134
 10
189.0331021254264
 20
-104.67324768172715
 10
189.10972246728397
 20
-104.63164648719703
 10
189.18242545860528
 20
-104.58352568893292
 10
189.25065778467604
 20
-104.52925151596135
 10
189.31390015530695
 20
-104.46923702829612
 10
189.37167125695544
 20
-104.40393897329484
 10
189.40352568892794
 20
-104.36242545860772
 10
189.45164648719128
 20
-104.28972246728576
 10
189.46908594402618
 20
-104.2595164246194
 10
189.5079881434489
 20
-104.1814910758362
 10
189.53994194429816
 20
-104.10037208432348
 10
189.56470415839266
 20
-104.01677681576221
 10
189.5820863299731
 20
-103.93134148183167
 10
189.5919561699666
 20
-103.84471629824624
 10
189.595
 20
-103.76627314872587
 10
189.59500000000153
 20
-82.79999999999994
 10
189.6018441109025
 20
-82.6955790462239
 10
189.6222593389703
 20
-82.59294476391794
 10
189.65589637399253
 20
-82.49385325410789
 10
189.70217967697403
 20
-82.39999999999996
 10
189.76031732776858
 20
-82.312990856793
 10
189.82931457505234
 20
-82.23431457505075
 10
189.90799085679458
 20
-82.165317327767
 10
189.99500000000157
 20
-82.10717967697244
 10
190.0888532541095
 20
-82.06089637399096
 10
190.18794476391955
 20
-82.02725933896873
 10
190.2905790462255
 20
-82.00684411090094
 10
190.39500000000155
 20
-82.0
 10
193.58190886229167
 20
-82.0
 10
193.69939297716633
 20
-81.99315772278293
 10
193.75121226071875
 20
-81.98633558468005
 10
193.8281329766039
 20
-81.9710351029828
 10
193.8786184712924
 20
-81.95750755545154
 10
193.9528840061752
 20
-81.93229780334882
 10
194.00117189118868
 20
-81.91229630647791
 10
194.07151154117633
 20
-81.87760862981786
 10
194.11677559741457
 20
-81.85147541476408
 10
194.1819858315942
 20
-81.80790332931154
 10
194.223451578505
 20
-81.7760855426302
 10
194.2824166316903
 20
-81.72437457884757
 10
194.31937457884754
 20
-81.68741663169034
 10
194.37108554263023
 20
-81.62845157850498
 10
194.40290332931158
 20
-81.58698583159418
 10
194.44647541476402
 20
-81.52177559741469
 10
194.47260862981796
 20
-81.47651154117615
 10
194.5072963064778
 20
-81.40617189118888
 10
194.5272978033489
 20
-81.35788400617497
 10
194.55250755545157
 20
-81.28361847129234
 10
194.56603510298277
 20
-81.23313297660408
 10
194.5813355846801
 20
-81.15621226071863
 10
194.58815772278294
 20
-81.10439297716643
 10
194.595
 20
-80.9869088622925
 10
194.595
 20
-67.0130911377075
 10
194.58815772278294
 20
-66.89560702283357
 10
194.5813355846801
 20
-66.84378773928137
 10
194.56603510298277
 20
-66.76686702339592
 10
194.55250755545157
 20
-66.71638152870766
 10
194.5272978033489
 20
-66.64211599382503
 10
194.5072963064778
 20
-66.59382810881112
 10
194.47260862981796
 20
-66.52348845882385
 10
194.44647541476402
 20
-66.47822440258531
 10
194.40290332931158
 20
-66.41301416840582
 10
194.37108554263023
 20
-66.37154842149502
 10
194.31937457884754
 20
-66.31258336830966
 10
194.2824166316903
 20
-66.27562542115243
 10
194.223451578505
 20
-66.2239144573698
 10
194.1819858315942
 20
-66.19209667068846
 10
194.11677559741457
 20
-66.14852458523592
 10
194.07151154117633
 20
-66.12239137018214
 10
194.00117189118868
 20
-66.08770369352209
 10
193.9528840061752
 20
-66.06770219665118
 10
193.8786184712924
 20
-66.04249244454846
 10
193.8281329766039
 20
-66.0289648970172
 10
193.75121226071875
 20
-66.01366441531995
 10
193.69939297716633
 20
-66.00684227721707
 10
193.58190886229167
 20
-66.0
 10
190.39500000000285
 20
-66.0
 10
190.2905790462268
 20
-65.99315588909906
 10
190.18794476392083
 20
-65.97274066103125
 10
190.08885325411077
 20
-65.93910362600903
 10
189.99500000000285
 20
-65.89282032302755
 10
189.90799085679586
 20
-65.83468267223297
 10
189.8293145750536
 20
-65.76568542494923
 10
189.76031732776985
 20
-65.68700914320695
 10
189.70217967697528
 20
-65.59999999999997
 10
189.6558963739938
 20
-65.50614674589204
 10
189.6222593389716
 20
-65.40705523608197
 10
189.60184411090378
 20
-65.30442095377599
 10
189.59500000000284
 20
-65.19999999999995
 10
189.59500000000546
 20
-29.58372685126497
 10
189.59195616997604
 20
-29.505283701766036
 10
189.58208632998202
 20
-29.418658518168684
 10
189.56470415840047
 20
-29.333223184238115
 10
189.53994194430487
 20
-29.249627915676992
 10
189.52801266171033
 20
-29.21685243879315
 10
189.49324768172633
 20
-29.13689787457457
 10
189.45164648719611
 20
-29.060277532716757
 10
189.40352568893172
 20
-28.987574541395052
 10
189.34925151596067
 20
-28.919342215324917
 10
189.28923702829553
 20
-28.856099844693986
 10
189.223938973294
 20
-28.798328743045186
 10
189.18242545860696
 20
-28.76647431107271
 10
189.10972246728483
 20
-28.718353512809195
 10
189.03310212542698
 20
-28.67675231828001
 10
188.95314756120763
 20
-28.641987338296687
 10
188.87046727829582
 20
-28.614323155851853
 10
188.7856905247646
 20
-28.59397031247827
 10
188.6994625041242
 20
-28.58108370589778
 10
188.66471629824605
 20
-28.578043830033526
 10
188.5862731487245
 20
-28.575
 10
179.8
 20
-28.575
 10
179.69557904622397
 20
-28.568155889099046
 10
179.59294476391798
 20
-28.547740661031252
 10
179.49385325410793
 20
-28.514103626009028
 10
179.4
 20
-28.46782032302755
 10
179.31299085679302
 20
-28.409682672232986
 10
179.23431457505077
 20
-28.340685424949235
 10
179.165317327767
 20
-28.262009143206974
 10
179.10717967697246
 20
-28.174999999999997
 10
179.06089637399097
 20
-28.08114674589207
 10
179.02725933896875
 20
-27.982055236082015
 10
179.00684411090097
 20
-27.87942095377604
 10
179.0
 20
-27.775
 10
179.0
 20
-24.588091137707494
 10
178.99315772278294
 20
-24.470607022833537
 10
178.9863355846801
 20
-24.41878773928142
 10
178.97103510298282
 20
-24.341867023396134
 10
178.95750755545146
 20
-24.291381528707372
 10
178.93229780334892
 20
-24.217115993825132
 10
178.9122963064778
 20
-24.168828108811105
 10
178.8776086298179
 20
-24.098488458823752
 10
178.85147541476408
 20
-24.053224402585407
 10
178.80790332931156
 20
-23.98801416840579
 10
178.77608554263023
 20
-23.946548421495017
 10
178.72437457884755
 20
-23.887583368309652
 10
178.68741663169033
 20
-23.850625421152458
 10
178.62845157850504
 20
-23.798914457369843
 10
178.58698583159415
 20
-23.767096670688417
 10
178.5217755974145
 20
-23.723524585235847
 10
178.47651154117642
 20
-23.69739137018219
 10
178.40617189118873
 20
-23.66270369352212
 10
178.35788400617508
 20
-23.642702196651143
 10
178.28361847129258
 20
-23.61749244454852
 10
178.2331329766038
 20
-23.603964897017175
 10
178.15621226071872
 20
-23.588664415319933
 10
178.10439297716636
 20
-23.581842277217074
 10
177.98690886229178
 20
-23.575
 10
164.01309113770822
 20
-23.575
 10
163.89560702283364
 20
-23.581842277217074
 10
163.84378773928128
 20
-23.588664415319933
 10
163.7668670233962
 20
-23.603964897017175
 10
163.71638152870742
 20
-23.61749244454852
 10
163.64211599382492
 20
-23.642702196651143
 10
163.59382810881127
 20
-23.66270369352212
 10
163.52348845882358
 20
-23.69739137018219
 10
163.4782244025855
 20
-23.723524585235847
 10
163.41301416840585
 20
-23.767096670688417
 10
163.37154842149496
 20
-23.798914457369843
 10
163.31258336830967
 20
-23.850625421152458
 10
163.27562542115245
 20
-23.887583368309652
 10
163.22391445736977
 20
-23.946548421495017
 10
163.19209667068844
 20
-23.98801416840579
 10
163.14852458523592
 20
-24.053224402585407
 10
163.1223913701821
 20
-24.098488458823752
 10
163.0877036935222
 20
-24.168828108811105
 10
163.06770219665108
 20
-24.217115993825132
 10
163.04249244454854
 20
-24.291381528707372
 10
163.02896489701718
 20
-24.341867023396134
 10
163.0136644153199
 20
-24.41878773928142
 10
163.00684227721706
 20
-24.470607022833537
 10
163.0
 20
-24.588091137707494
 10
163.0
 20
-27.775
 10
162.99315588909903
 20
-27.87942095377604
 10
162.97274066103125
 20
-27.982055236082015
 10
162.93910362600903
 20
-28.08114674589207
 10
162.89282032302754
 20
-28.174999999999997
 10
162.834682672233
 20
-28.262009143206974
 10
162.76568542494923
 20
-28.340685424949235
 10
162.68700914320698
 20
-28.409682672232986
 10
162.6
 20
-28.46782032302755
 10
162.50614674589207
 20
-28.514103626009028
 10
162.40705523608202
 20
-28.547740661031252
 10
162.30442095377603
 20
-28.568155889099046
 10
162.2
 20
-28.575
 10
152.51245577973478
 20
-28.575
 10
152.44273978103112
 20
-28.572718306506815
 10
152.37321426701698
 20
-28.566635658727765
 10
152.28725093727692
 20
-28.55224791035899
 10
152.2028687006668
 20
-28.530422706859547
 10
152.12070975817963
 20
-28.501326151522328
 10
152.02598205979515
 20
-28.457153938618223
 10
151.95088202563474
 20
-28.412919492400164
 10
151.8799230599941
 20
-28.362307966456996
 10
151.82645998256214
 20
-28.3174471254648
 10
151.76429545420666
 20
-28.256354795525628
 10
151.70769203354303
 20
-28.190076940006065
 10
151.6570805075996
 20
-28.119117974365135
 10
151.6128460613818
 20
-28.04401794020527
 10
151.5753253463737
 20
-27.965348395217532
 10
151.54480391841633
 20
-27.883708063282175
 10
151.521514064447
 20
-27.799718277801595
 10
151.503364341272
 20
-27.6967857329847
 10
151.49728169349277
 20
-27.6272602189675
 10
151.49499999999978
 20
-27.55754422026627
 10
151.49499999999992
 20
-21.963726851275634
 10
151.49195616996602
 20
-21.885283701754286
 10
151.48891629410159
 20
-21.85053749587628
 10
151.47602968752076
 20
-21.764309475236587
 10
151.45567684414684
 20
-21.679532721705776
 10
151.42801266170176
 20
-21.596852438794603
 10
151.40798814344657
 20
-21.548508924166786
 10
151.36908594402348
 20
-21.47048357538408
 10
151.3516464871889
 20
-21.440277532718707
 10
151.30352568892536
 20
-21.36757454139736
 10
151.24925151595434
 20
-21.2993422153265
 10
151.1892370282903
 20
-21.236099844696078
 10
151.12393897328954
 20
-21.178328743047285
 10
151.0538543095234
 20
-21.12646858418286
 10
150.97951642461587
 20
-21.08091405597642
 10
150.901491075833
 20
-21.04201185655325
 10
150.8203720843212
 20
-21.010058055703702
 10
150.7704672782943
 20
-20.994323155853067
 10
150.68569052476352
 20
-20.97397031247912
 10
150.59946250412372
 20
-20.96108370589827
 10
150.56471629824554
 20
-20.958043830033848
 10
150.48627313699174
 20
-20.955000000511838
 10
133.46192791904733
 20
-20.955000999007158
 10
133.39431363134005
 20
-20.9528550052626
 10
133.32687305925094
 20
-20.94713399394805
 10
133.22694891456547
 20
-20.930057801304958
 10
133.14530991756712
 20
-20.90813690391209
 10
133.06581602081044
 20
-20.87939369685534
 10
132.98903622182758
 20
-20.84403391685861
 10
132.92989294961842
 20
-20.811124433627473
 10
132.85937025052823
 20
-20.76451970761741
 10
132.78035654934033
 20
-20.7010117075624
 10
132.73137498818835
 20
-20.654302314489293
 10
132.6748185831748
 20
-20.59147855604379
 10
132.62377493829095
 20
-20.52409904958632
 10
132.57860941124545
 20
-20.452646080857598
 10
132.53964528564185
 20
-20.37763109242773
 10
132.50716145699323
 20
-20.29959102291284
 10
132.48139043646287
 20
-20.219084463713333
 10
132.4586673713017
 20
-20.114843062799764
 10
132.45077500468503
 20
-20.05832656105428
 10
132.43775866303824
 20
-19.932485468396774
 10
132.42454693484444
 20
-19.85164086075343
 10
132.4042741248302
 20
-19.769551066350576
 10
132.3771349394704
 20
-19.68946869757155
 10
132.34332363788093
 20
-19.611966974649675
 10
132.3030822374042
 20
-19.537600645853107
 10
132.28525061667335
 20
-19.508855747228296
 10
132.23650121453574
 20
-19.439767275235912
 10
132.2045052768587
 20
-19.400377139608832
 10
132.14687531914603
 20
-19.338502191972154
 10
132.0842214166374
 20
-19.281720067394225
 10
132.0169920386408
 20
-19.23043720568333
 10
131.94566840518166
 20
-19.185020683566123
 10
131.91610983824066
 20
-19.168572978095863
 10
131.83991796338378
 20
-19.13190528963815
 10
131.79280612869906
 20
-19.113042685227114
 10
131.71236165597458
 20
-19.086996419100178
 10
131.63000343644154
 20
-19.067843224942546
 10
131.54632098060432
 20
-19.055720199078202
 10
131.51261548914624
 20
-19.052860873914994
 10
131.4365366148123
 20
-19.049998000992773
 10
114.40372682781366
 20
-19.04999999897633
 10
114.3252837017545
 20
-19.053043830033918
 10
114.23865851816961
 20
-19.06291367002803
 10
114.15322318423942
 20
-19.080295841609036
 10
114.06962791567881
 20
-19.105058055704
 10
113.98850892416704
 20
-19.13701185655359
 10
113.91048357538442
 20
-19.175914055976683
 10
113.836145690477
 20
-19.221468584183068
 10
113.76606102671101
 20
-19.273328743047376
 10
113.70076297171006
 20
-19.331099844696272
 10
113.64074848404563
 20
-19.394342215327097
 10
113.61832874304747
 20
-19.421061026710877
 10
113.56646858418314
 20
-19.491145690476888
 10
113.52091405597675
 20
-19.56548357538429
 10
113.48201185655357
 20
-19.643508924167072
 10
113.46198733829834
 20
-19.69185243879488
 10
113.43297367042732
 20
-19.778812749482178
 10
113.395715502625
 20
-19.87490408232848
 10
113.34641304815173
 20
-19.96540813361391
 10
113.28588455175095
 20
-20.048822859170162
 10
113.21513457038718
 20
-20.12376387232844
 10
113.13533730118644
 20
-20.188987419796124
 10
113.0478170939557
 20
-20.243411023521478
 10
112.95402647170376
 20
-20.28613144596505
 10
112.85552202394449
 20
-20.31643968061843
 10
112.75393857286768
 20
-20.333832718981267
 10
112.65096204112675
 20
-20.33802189870673
 10
112.54830147154105
 20
-20.32893769436599
 10
112.44766066308611
 20
-20.306730871322134
 10
112.35070989391286
 20
-20.271769983563374
 10
112.25905820069295
 20
-20.22463525702247
 10
112.17422667435389
 20
-20.166108959897592
 10
112.09762321539976
 20
-20.09716241979275
 10
112.03051916778878
 20
-20.01893990314705
 10
111.974028219162
 20
-19.93273962449663
 10
111.92908791760419
 20
-19.83999220074773
 10
111.8964441116925
 20
-19.742236908043118
 10
111.87663857207261
 20
-19.641096135273038
 10
111.87
 20
-19.538248458211275
 10
111.87
 20
-17.9205911377083
 10
111.86315772278293
 20
-17.803107022833704
 10
111.85633558468007
 20
-17.7512877392813
 10
111.84103510298279
 20
-17.67436702339599
 10
111.82750755545153
 20
-17.623881528707543
 10
111.80229780334886
 20
-17.54961599382492
 10
111.7822963064779
 20
-17.501328108811286
 10
111.74760862981788
 20
-17.430988458823713
 10
111.7214754147641
 20
-17.385724402585435
 10
111.67790332931159
 20
-17.320514168405854
 10
111.64608554263009
 20
-17.279048421494878
 10
111.59437457884769
 20
-17.220083368309837
 10
111.55741663169019
 20
-17.183125421152333
 10
111.49845157850503
 20
-17.131414457369832
 10
111.45698583159422
 20
-17.099596670688463
 10
111.39177559741458
 20
-17.056024585235914
 10
111.3465115411763
 20
-17.029891370182128
 10
111.27617189118877
 20
-16.995203693522136
 10
111.227884006175
 20
-16.97520219665112
 10
111.15361847129257
 20
-16.94999244454851
 10
111.1031329766039
 20
-16.936464897017192
 10
111.0262122607187
 20
-16.92116441531993
 10
110.97439297716635
 20
-16.914342277217074
 10
110.8569088622918
 20
-16.9075
 10
96.8830911377082
 20
-16.9075
 10
96.76560702283369
 20
-16.91434227721707
 10
96.7137877392813
 20
-16.921164415319932
 10
96.6368670233961
 20
-16.936464897017192
 10
96.58638152870745
 20
-16.949992444548503
 10
96.51211599382498
 20
-16.975202196651132
 10
96.46382810881126
 20
-16.995203693522125
 10
96.39348845882371
 20
-17.029891370182128
 10
96.34822440258543
 20
-17.056024585235914
 10
96.28301416840578
 20
-17.099596670688463
 10
96.24154842149498
 20
-17.131414457369832
 10
96.18258336830978
 20
-17.18312542115236
 10
96.14562542115239
 20
-17.220083368309755
 10
96.09391445736986
 20
-17.279048421494945
 10
96.06209667068842
 20
-17.320514168405857
 10
96.0185245852359
 20
-17.385724402585467
 10
95.99239137018216
 20
-17.430988458823638
 10
95.9577036935221
 20
-17.501328108811286
 10
95.93770219665114
 20
-17.54961599382492
 10
95.91249244454848
 20
-17.623881528707543
 10
95.89896489701722
 20
-17.67436702339599
 10
95.88366441531994
 20
-17.7512877392813
 10
95.87684227721708
 20
-17.803107022833704
 10
95.87
 20
-17.9205911377083
 10
95.87
 20
-21.129132182825494
 10
95.86315588318915
 20
-21.233553181491672
 10
95.8427406375939
 20
-21.336187506376906
 10
95.80910357402819
 20
-21.435279054210405
 10
95.76282023247256
 20
-21.529132339671314
 10
95.70468253441702
 20
-21.616141505637696
 10
95.63568523285309
 20
-21.694817799870826
 10
95.55700889175961
 20
-21.763815048000765
 10
95.4699996863083
 20
-21.821952686962938
 10
95.37614636941352
 20
-21.86823596477694
 10
95.27705479873501
 20
-21.901872961043395
 10
95.1032231842397
 20
-21.93779584161087
 10
95.019627915679
 20
-21.962558055705603
 10
94.93850892416711
 20
-21.994511856555004
 10
94.9068978745763
 20
-22.009252318283245
 10
94.83027753271897
 20
-22.050853512812477
 10
94.78614569047699
 20
-22.078968584184132
 10
94.71606102671103
 20
-22.130828743048237
 10
94.65076297171011
 20
-22.18859984469692
 10
94.62609984469618
 20
-22.213262971710787
 10
94.59074848404566
 20
-22.251842215327596
 10
94.53647431107487
 20
-22.32007454139797
 10
94.4883535128112
 20
-22.39277753271933
 10
94.4467523182819
 20
-22.46939787457632
 10
94.41198733829826
 20
-22.54935243879503
 10
94.38432315585321
 20
-22.63203272170583
 10
94.37529584160882
 20
-22.665723184239983
 10
94.35791367002795
 20
-22.75115851816958
 10
94.34804383003386
 20
-22.837783701754734
 10
94.345
 20
-22.91622685127672
 10
94.345
 20
-24.700044220265198
 10
94.34271830650682
 20
-24.76976021896901
 10
94.33663565872783
 20
-24.839285732982944
 10
94.31848593555289
 20
-24.942218277800837
 10
94.29519608158351
 20
-25.026208063281757
 10
94.27132615152232
 20
-25.091790241820437
 10
94.22715393861849
 20
-25.18651794020419
 10
94.18291949240029
 20
-25.26161797436474
 10
94.1323079664571
 20
-25.332576940005254
 10
94.08744712546505
 20
-25.386040017436915
 10
94.01354001743766
 20
-25.459947125464144
 10
93.9462874918859
 20
-25.515388979419974
 10
93.889117974365
 20
-25.555419492399274
 10
93.81401794020472
 20
-25.59965393861708
 10
93.73534839521743
 20
-25.63717465362471
 10
93.63713129933328
 20
-25.672922706857925
 10
93.55274906272311
 20
-25.694747910357176
 10
93.46678573297751
 20
-25.709135658726456
 10
93.39726021897418
 20
-25.71521830650483
 10
93.32754422026099
 20
-25.717499999998807
 10
76.28628145448327
 20
-25.71788065375488
 10
76.22528370175426
 20
-25.720543830034078
 10
76.13865851816962
 20
-25.730413670028163
 10
76.05322318423956
 20
-25.747795841609115
 10
76.01953272170579
 20
-25.756823155853404
 10
75.9696279156788
 20
-25.77255805570408
 10
75.88850892416713
 20
-25.804511856553603
 10
75.85689787457616
 20
-25.819252318281986
 10
75.78027753271878
 20
-25.860853512811445
 10
75.70757454139726
 20
-25.90897431107514
 10
75.66606102671085
 20
-25.94082874304749
 10
75.60076297171007
 20
-25.99859984469623
 10
75.54074848404568
 20
-26.061842215327
 10
75.48647431107499
 20
-26.13007454139739
 10
75.46646858418303
 20
-26.15864569047697
 10
75.42091405597671
 20
-26.23298357538427
 10
75.39675231828177
 20
-26.279397874576393
 10
75.36198733829842
 20
-26.359352438794595
 10
75.33432315585326
 20
-26.442032721705786
 10
75.32529584160896
 20
-26.47572318423956
 10
75.307913670028
 20
-26.561158518169627
 10
75.30108370589834
 20
-26.6130374958765
 10
75.29804383003392
 20
-26.647783701754324
 10
75.295
 20
-26.726226851276937
 10
75.295
 20
-60.0
 10
54.777964119418534
 20
-60.0
 10
54.75338168561076
 20
-60.00161153743048
  0
LWPOLYLINE
  5
32
330
17
100
AcDbEntity
  8
PCB_REFERENCE
100
AcDbPolyline
 90
388
 70
1
 10
54.74231
 20
-29.5525
 10
54.746115934930444
 20
-29.465344470173385
 10
54.75750341721701
 20
-29.378852292681863
 10
54.776385782961306
 20
-29.29368171217456
 10
54.80261932880686
 20
-29.210480915348917
 10
54.836004405586756
 20
-29.12988309795631
 10
54.87628693774424
 20
-29.052501645895536
 10
54.92316035696279
 20
-28.97892546706832
 10
54.976267935289854
 20
-28.909714509523386
 10
55.0352054999982
 20
-28.84539549999819
 10
55.0995245095234
 20
-28.786457935289846
 10
55.16873546706833
 20
-28.733350356962777
 10
55.24231164589555
 20
-28.68647693774423
 10
55.31969309795632
 20
-28.646194405586744
 10
55.400290915348926
 20
-28.612809328806847
 10
55.48349171217456
 20
-28.58657578296129
 10
55.568662292681864
 20
-28.567693417216994
 10
55.65515447017339
 20
-28.556305934930425
 10
55.74231
 20
-28.55249999999999
 10
74.295
 20
-28.552499999999828
 10
74.3821557631711
 20
-28.548694758811614
 10
74.468648222783
 20
-28.537307865261596
 10
74.55381911774101
 20
-28.518425980649884
 10
74.6370202448745
 20
-28.492192807792765
 10
74.71761839216394
 20
-28.458807997355287
 10
74.79500015787576
 20
-28.418525628386234
 10
74.86857661892883
 20
-28.371652274619482
 10
74.93778781296325
 20
-28.318544671258323
 10
75.00210700000012
 20
-28.259607000000013
 10
75.06104467125844
 20
-28.195287812963162
 10
75.11415227461963
 20
-28.12607661892876
 10
75.16102562838641
 20
-28.05250015787571
 10
75.20130799735549
 20
-27.975118392163914
 10
75.234692807793
 20
-27.894520244874485
 10
75.26092598065014
 20
-27.811319117740993
 10
75.27980786526189
 20
-27.726148222783
 10
75.29119475881193
 20
-27.6396557631711
 10
75.295
 20
-27.5525
 10
75.295
 20
-26.7175
 10
75.29880524118813
 20
-26.630344236828915
 10
75.31019213473823
 20
-26.543851777217032
 10
75.32907401935
 20
-26.45868088225906
 10
75.35530719220718
 20
-26.375479755125593
 10
75.38869200264472
 20
-26.294881607836185
 10
75.4289743716138
 20
-26.217499842124408
 10
75.47584772538059
 20
-26.143923381071374
 10
75.52895532874176
 20
-26.074712187036987
 10
75.58789300000008
 20
-26.010393000000143
 10
75.65221218703694
 20
-25.951455328741837
 10
75.72142338107135
 20
-25.898347725380667
 10
75.79499984212438
 20
-25.8514743716139
 10
75.87238160783616
 20
-25.811192002644823
 10
75.95297975512558
 20
-25.777807192207312
 10
76.03618088225906
 20
-25.751574019350155
 10
76.12135177721703
 20
-25.732692134738386
 10
76.20784423682892
 20
-25.72130524118831
 10
76.295
 20
-25.7175000000001
 10
93.345
 20
-25.717499999998807
 10
93.43215576317104
 20
-25.713694758809748
 10
93.51864822278291
 20
-25.702307865259908
 10
93.60381911774088
 20
-25.683425980648362
 10
93.68702024487436
 20
-25.657192807791404
 10
93.7676183921638
 20
-25.623807997354078
 10
93.84500015787562
 20
-25.583525628385168
 10
93.91857661892868
 20
-25.536652274618543
 10
93.98778781296312
 20
-25.483544671257505
 10
94.052107
 20
-25.424606999999313
 10
94.11104467125836
 20
-25.360287812962564
 10
94.16415227461957
 20
-25.291076618928255
 10
94.21102562838637
 20
-25.217500157875296
 10
94.25130799735545
 20
-25.14011839216358
 10
94.28469280779298
 20
-25.059520244874225
 10
94.31092598065013
 20
-24.9763191177408
 10
94.32980786526188
 20
-24.891148222782878
 10
94.34119475881192
 20
-24.804655763171038
 10
94.345
 20
-24.7175
 10
94.345
 20
-22.9075
 10
94.34880524118809
 20
-22.820344236828976
 10
94.36019213473816
 20
-22.733851777217154
 10
94.37907401934991
 20
-22.648680882259246
 10
94.40530719220709
 20
-22.56547975512584
 10
94.43869200264461
 20
-22.484881607836506
 10
94.47897437161372
 20
-22.407499842124807
 10
94.52584772538052
 20
-22.333923381071866
 10
94.57895532874173
 20
-22.264712187037578
 10
94.63789300000008
 20
-22.200393000000847
 10
94.70221218703696
 20
-22.14145532874267
 10
94.77142338107139
 20
-22.088347725381645
 10
94.84499984212445
 20
-22.04147437161504
 10
94.92238160783626
 20
-22.00119200264614
 10
95.00297975512568
 20
-21.967807192208824
 10
95.08618088225916
 20
-21.941574019351876
 10
95.17135177721711
 20
-21.922692134740338
 10
95.25784423682897
 20
-21.911305241190504
 10
95.345
 20
-21.90750000000132
 10
112.395
 20
-21.907500000000923
 10
112.48215576317115
 20
-21.903694758813565
 10
112.56864822278308
 20
-21.89230786526333
 10
112.6538191177411
 20
-21.873425980651408
 10
112.73702024487459
 20
-21.847192807794098
 10
112.81761839216401
 20
-21.813807997356445
 10
112.8950001578758
 20
-21.773525628387233
 10
112.96857661892885
 20
-21.726652274620335
 10
113.03778781296323
 20
-21.673544671259044
 10
113.10210700000007
 20
-21.61460700000062
 10
113.16104467125838
 20
-21.55028781296367
 10
113.21415227461955
 20
-21.48107661892918
 10
113.2610256283863
 20
-21.407500157876054
 10
113.30130799735538
 20
-21.33011839216419
 10
113.33469280779288
 20
-21.249520244874702
 10
113.36092598065004
 20
-21.166319117741153
 10
113.3798078652618
 20
-21.081148222783106
 10
113.39119475881188
 20
-20.994655763171153
 10
113.395
 20
-20.9075
 10
113.395
 20
-20.05
 10
113.39880524118814
 20
-19.962844236828914
 10
113.41019213473825
 20
-19.87635177721703
 10
113.42907401935004
 20
-19.791180882259063
 10
113.45530719220723
 20
-19.707979755125592
 10
113.48869200264475
 20
-19.62738160783619
 10
113.52897437161386
 20
-19.54999984212441
 10
113.57584772538064
 20
-19.476423381071378
 10
113.62895532874181
 20
-19.407212187036983
 10
113.68789300000013
 20
-19.342893000000135
 10
113.75221218703697
 20
-19.28395532874182
 10
113.82142338107137
 20
-19.23084772538064
 10
113.8949998421244
 20
-19.183974371613857
 10
113.97238160783618
 20
-19.143692002644766
 10
114.05297975512559
 20
-19.110307192207234
 10
114.13618088225905
 20
-19.08407401935005
 10
114.22135177721702
 20
-19.065192134738258
 10
114.30784423682891
 20
-19.05380524118815
 10
114.395
 20
-19.050000000000004
 10
131.445
 20
-19.049998
 10
131.52952876684148
 20
-19.05357699062349
 10
131.61345248331358
 20
-19.064288265577122
 10
131.69617043326826
 20
-19.082055154807406
 10
131.7770905312931
 20
-19.10675048499897
 10
131.8556335607897
 20
-19.13819748986629
 10
131.93123731993802
 20
-19.17617107542608
 10
132.00336064587157
 20
-19.220399431193716
 10
132.0714872882577
 20
-19.27056597577087
 10
132.13512960455733
 20
-19.32631162289818
 10
132.19383205051298
 20
-19.387237351752653
 10
132.24717444088145
 20
-19.452907063092084
 10
132.29477495707053
 20
-19.522850700802426
 10
132.33629288015203
 20
-19.59656761650448
 10
132.37143102968778
 20
-19.673530153136443
 10
132.39993789091267
 20
-19.753187421861465
 10
132.42160941504773
 20
-19.834969245265494
 10
132.4362904798576
 20
-19.918290238620546
 10
132.44500099999783
 20
-20.002508500000104
 10
132.45371269971255
 20
-20.086725644409412
 10
132.46839478044814
 20
-20.170045436539976
 10
132.49006715152495
 20
-20.25182599405407
 10
132.51857468750404
 20
-20.331481952072334
 10
132.55371333853705
 20
-20.408443153069893
 10
132.59523159090426
 20
-20.482158727922023
 10
132.64283226728716
 20
-20.552101038888264
 10
132.69617465388976
 20
-20.617769456312068
 10
132.75487693918313
 20
-20.678693942003296
 10
132.81851894681745
 20
-20.734438413654598
 10
132.8866451431395
 20
-20.78460386621007
 10
132.95876789778944
 20
-20.828831227844137
 10
133.03437097403744
 20
-20.866803930108333
 10
133.11291322387777
 20
-20.898250173849465
 10
133.19383246143153
 20
-20.922944874680322
 10
133.2765494869333
 20
-20.940711274077707
 10
133.3604722324989
 20
-20.951422204575955
 10
133.445
 20
-20.955001
 10
150.495
 20
-20.955
 10
150.5821557631711
 20
-20.95880524118806
 10
150.66864822278302
 20
-20.97019213473809
 10
150.75381911774102
 20
-20.98907401934983
 10
150.83702024487454
 20
-21.015307192206965
 10
150.91761839216397
 20
-21.048692002644465
 10
150.99500015787578
 20
-21.08897437161354
 10
151.06857661892886
 20
-21.135847725380316
 10
151.13778781296327
 20
-21.188955328741496
 10
151.20210700000013
 20
-21.247892999999827
 10
151.26104467125845
 20
-21.312212187036703
 10
151.3141522746196
 20
-21.381423381071126
 10
151.3610256283864
 20
-21.454999842124195
 10
151.40130799735545
 20
-21.53238160783601
 10
151.4346928077929
 20
-21.61297975512546
 10
151.46092598065005
 20
-21.696180882258965
 10
151.47980786526176
 20
-21.781351777216972
 10
151.4911947588118
 20
-21.867844236828887
 10
151.49499999999992
 20
-21.955
 10
151.49499999999978
 20
-27.575
 10
151.49880524118768
 20
-27.662155763171107
 10
151.51019213473782
 20
-27.748648222783007
 10
151.52907401934962
 20
-27.833819117740994
 10
151.55530719220684
 20
-27.917020244874475
 10
151.5886920026444
 20
-27.997618392163893
 10
151.62897437161354
 20
-28.07500015787568
 10
151.67584772538035
 20
-28.148576618928722
 10
151.72895532874153
 20
-28.217787812963117
 10
151.78789299999988
 20
-28.282106999999968
 10
151.85221218703677
 20
-28.34104467125828
 10
151.9214233810712
 20
-28.394152274619458
 10
151.99499984212426
 20
-28.441025628386235
 10
152.07238160783606
 20
-28.48130799735532
 10
152.1529797551255
 20
-28.514692807792837
 10
152.236180882259
 20
-28.540925980650005
 10
152.321351777217
 20
-28.55980786526178
 10
152.4078442368289
 20
-28.57119475881187
 10
152.495
 20
-28.575
 10
188.595
 20
-28.575
 10
188.6821557631716
 20
-28.578805241187652
 10
188.76864822278404
 20
-28.590192134737315
 10
188.85381911774257
 20
-28.609074019348718
 10
188.93702024487666
 20
-28.63530719220557
 10
189.01761839216672
 20
-28.668692002642825
 10
189.09500015787916
 20
-28.708974371611706
 10
189.16857661893286
 20
-28.75584772537834
 10
189.23778781296792
 20
-28.808955328739433
 10
189.30210700000546
 20
-28.867892999997725
 10
189.36104467126447
 20
-28.932212187034615
 10
189.4141522746263
 20
-29.00142338106911
 10
189.46102562839374
 20
-29.074999842122306
 10
189.50130799736345
 20
-29.152381607834304
 10
189.5346928078016
 20
-29.232979755123985
 10
189.56092598065936
 20
-29.316180882257786
 10
189.5798078652717
 20
-29.401351777216135
 10
189.5911947588223
 20
-29.487844236828444
 10
189.59500000000546
 20
-29.575
 10
189.595
 20
-103.775
 10
189.59119475881252
 20
-103.86215576317169
 10
189.579807865263
 20
-103.94864822278421
 10
189.56092598065172
 20
-104.03381911774287
 10
189.53469280779495
 20
-104.11702024487707
 10
189.50130799735777
 20
-104.19761839216723
 10
189.46102562838894
 20
-104.27500015787977
 10
189.41415227462232
 20
-104.34857661893358
 10
189.36104467126123
 20
-104.41778781296875
 10
189.30210700000293
 20
-104.48210700000637
 10
189.237787812966
 20
-104.54104467126544
 10
189.16857661893144
 20
-104.59415227462733
 10
189.0950001578782
 20
-104.64102562839481
 10
189.01761839216613
 20
-104.68130799736456
 10
188.93702024487635
 20
-104.71469280780269
 10
188.85381911774246
 20
-104.74092598066042
 10
188.76864822278404
 20
-104.7598078652727
 10
188.68215576317164
 20
-104.77119475882324
 10
188.595
 20
-104.77500000000587
 10
180.06823500000002
 20
-104.777412
 10
165.868265
 20
-124.185
 10
158.995
 20
-124.185
 10
158.90784423682916
 20
-124.1811947588112
 10
158.82135177721756
 20
-124.16980786526055
 10
158.73618088225993
 20
-124.15092598064831
 10
158.65297975512678
 20
-124.12469280779077
 10
158.5723816078377
 20
-124.09130799735298
 10
158.49499984212628
 20
-124.05102562838373
 10
158.42142338107354
 20
-124.00415227461689
 10
158.3522121870394
 20
-123.95104467125572
 10
158.28789300000275
 20
-123.8921069999975
 10
158.2289553287446
 20
-123.8277878129608
 10
158.1758477253835
 20
-123.75857661892663
 10
158.1289743716167
 20
-123.68500015787384
 10
158.08869200264752
 20
-123.60761839216237
 10
158.0553071922098
 20
-123.52702024487327
 10
158.02907401935232
 20
-123.44381911774012
 10
158.01019213474015
 20
-123.35864822278245
 10
157.9988052411896
 20
-123.27215576317084
 10
157.99500000000043
 20
-123.185
 10
157.99650000000412
 20
-105.775
 10
157.99269475882016
 20
-105.68784423682843
 10
157.98130786527003
 20
-105.60135177721605
 10
157.96242598065814
 20
-105.5161808822576
 10
157.93619280780072
 20
-105.43297975512368
 10
157.9028079973629
 20
-105.35238160783388
 10
157.86252562839343
 20
-105.27499984212173
 10
157.8156522746262
 20
-105.20142338106841
 10
157.7625446712645
 20
-105.1322121870338
 10
157.7036070000056
 20
-105.06789299999681
 10
157.63928781296812
 20
-105.00895532873845
 10
157.5700766189331
 20
-104.95584772537732
 10
157.49650015787938
 20
-104.9089743716107
 10
157.4191183921669
 20
-104.86869200264185
 10
157.3385202448768
 20
-104.8353071922047
 10
157.2553191177427
 20
-104.80907401934799
 10
157.1701482227841
 20
-104.79019213473677
 10
157.0836557631716
 20
-104.77880524118736
 10
156.9965
 20
-104.775
 10
152.495
 20
-104.775
 10
152.40784423682874
 20
-104.77119475881189
 10
152.32135177721665
 20
-104.7598078652618
 10
152.23618088225848
 20
-104.74092598065006
 10
152.1529797551248
 20
-104.71469280779293
 10
152.07238160783515
 20
-104.68130799735545
 10
151.99499984212312
 20
-104.64102562838642
 10
151.92142338106984
 20
-104.59415227461969
 10
151.85221218703515
 20
-104.54104467125856
 10
151.787892999998
 20
-104.4821070000003
 10
151.72895532873937
 20
-104.41778781296348
 10
151.67584772537785
 20
-104.34857661892913
 10
151.6289743716107
 20
-104.2750001578761
 10
151.58869200264118
 20
-104.19761839216432
 10
151.55530719220326
 20
-104.11702024487487
 10
151.52907401934564
 20
-104.03381911774134
 10
151.5101921347334
 20
-103.94864822278328
 10
151.49880524118282
 20
-103.86215576317126
 10
151.4949999999971
 20
-103.775
 10
151.49500000000072
 20
-101.275
 10
151.4911947588135
 20
-101.18784423682877
 10
151.47980786526352
 20
-101.10135177721672
 10
151.46092598065187
 20
-101.0161808822586
 10
151.43469280779473
 20
-100.93297975512495
 10
151.40130799735724
 20
-100.85238160783538
 10
151.36102562838812
 20
-100.77499984212346
 10
151.31415227462125
 20
-100.7014233810703
 10
151.26104467125998
 20
-100.6322121870358
 10
151.20210700000155
 20
-100.56789299999889
 10
151.13778781296455
 20
-100.50895532874054
 10
151.06857661892997
 20
-100.45584772537936
 10
150.99500015787675
 20
-100.40897437161262
 10
150.91761839216477
 20
-100.36869200264361
 10
150.83702024487513
 20
-100.33530719220622
 10
150.75381911774147
 20
-100.30907401934923
 10
150.6686482227833
 20
-100.29019213473765
 10
150.58215576317124
 20
-100.27880524118783
 10
150.495
 20
-100.275
 10
102.41000000000005
 20
-100.28500100000011
 10
102.2838788596031
 20
-100.34882994863347
 10
102.16144792304259
 20
-100.41948028600335
 10
102.04307566507033
 20
-100.49673837904292
 10
101.92911834522006
 20
-100.58037170762734
 10
101.81991893558958
 20
-100.67012856437887
 10
101.71580608861338
 20
-100.76573881221913
 10
101.61709314793258
 20
-100.86691469738803
 10
101.52407720533897
 20
-100.97335171548316
 10
101.43703820663157
 20
-101.08472952791264
 10
101.35623810907663
 20
-101.20071292600339
 10
101.28192009300687
 20
-101.32095283986321
 10
101.21430782993292
 20
-101.44508738896047
 10
101.15360480936936
 20
-101.57274297125919
 10
101.09999372640178
 20
-101.70353538763187
 10
101.0536359318378
 20
-101.83707099816601
 10
101.01467094659694
 20
-101.97294790688396
 10
100.9832160418009
 20
-102.11075717131068
 10
100.95936588582815
 20
-102.25008403324921
 10
100.94319225939482
 20
-102.39050916705922
 10
100.93474383951958
 20
-102.53160994168209
 10
100.93404605302268
 20
-102.67296169261418
 10
100.9455755
 20
-102.814139
 10
104.957893
 20
-117.719494
 10
104.97928551115523
 20
-117.80163834136603
 10
104.99342081603949
 20
-117.88533735873072
 10
105.00019085163102
 20
-117.96995118130172
 10
104.9995438616706
 20
-118.05483294469045
 10
104.99148479233314
 20
-118.13933373612697
 10
104.97607525441461
 20
-118.2228075553347
 10
104.95343305232356
 20
-118.30461625313912
 10
104.92373128347799
 20
-118.38413441005584
 10
104.88719701499245
 20
-118.46075411756124
 10
104.84410954777226
 20
-118.53388962549367
 10
104.79479828128541
 20
-118.60298182005607
 10
104.73964019533585
 20
-118.66750249818618
 10
104.6790569680899
 20
-118.72695840561724
 10
104.61351175238781
 20
-118.78089500775857
 10
104.54350563498575
 20
-118.82889996456802
 10
104.46957380579663
 20
-118.87060628285118
 10
104.39228146641553
 20
-118.90569512188846
 10
104.31221950920893
 20
-118.93389823094113
 10
104.23000000000022
 20
-118.95500000000101
 10
86.795574
 20
-123.621084
 10
70.107051
 20
-130.521094
 10
70.02364310041727
 20
-130.54498782095337
 10
69.93853131551977
 20
-130.56183348698687
 10
69.8523101294516
 20
-130.57151333541293
 10
69.76558177524159
 20
-130.57395975495524
 10
69.67895202835888
 20
-130.56915565799628
 10
69.59302597552553
 20
-130.55713459992992
 10
69.50840378833988
 20
-130.5379805447857
 10
69.4256765312307
 20
-130.51182727876125
 10
69.34542203302277
 20
-130.47885747575995
 10
69.26820085094955
 20
-130.43930142146013
 10
69.19455235530381
 20
-130.3934354048283
 10
69.12499096207333
 20
-130.34157978831104
 10
69.06000253987628
 20
-130.28409677018487
 10
69.0000410162927
 20
-130.22138785469363
 10
68.94552520729583
 20
-130.15389104764344
 10
68.89683589192933
 20
-130.08207779704375
 10
68.85431315266247
 20
-130.00644970016305
 10
68.8182540000004
 20
-129.92753449999987
 10
54.762993
 20
-96.124288
  0
LWPOLYLINE
  5
34
330
17
100
AcDbEntity
  8
GASKET_CONTACT
100
AcDbPolyline
 90
4
 70
1
 10
178.0
 20
-27.575
 10
178.0
 20
-24.575
 10
164.0
 20
-24.575
 10
164.0
 20
-27.575
  0
LWPOLYLINE
  5
35
330
17
100
AcDbEntity
  8
GASKET_CONTACT
100
AcDbPolyline
 90
4
 70
1
 10
110.87
 20
-20.9075
 10
110.87
 20
-17.9075
 10
96.87
 20
-17.9075
 10
96.87
 20
-20.9075
  0
LWPOLYLINE
  5
36
330
17
100
AcDbEntity
  8
GASKET_CONTACT
100
AcDbPolyline
 90
4
 70
1
 10
190.595
 20
-81.0
 10
193.595
 20
-81.0
 10
193.595
 20
-67.0
 10
190.595
 20
-67.0
  0
LWPOLYLINE
  5
37
330
17
100
AcDbEntity
  8
GASKET_CONTACT
100
AcDbPolyline
 90
4
 70
1
 10
53.758
 20
-87.0
 10
50.758
 20
-87.0
 10
50.758
 20
-73.0
 10
53.758
 20
-73.0
  0
LWPOLYLINE
  5
38
330
17
100
AcDbEntity
  8
GASKET_CONTACT
100
AcDbPolyline
 90
4
 70
1
 10
85.30228270094041
 20
-125.3206012663022
 10
86.44854576114992
 20
-128.0929794866753
 10
73.51078073274209
 20
-133.4422071009863
 10
72.36451767253259
 20
-130.6698288806132
  0
LWPOLYLINE
  5
3A
330
17
100
AcDbEntity
  8
SWITCH_CUTOUT
100
AcDbPolyline
 90
52
 70
1
 10
186.82
 20
-31.1
 10
173.32
 20
-31.1
 10
173.28736845194499
 20
-31.10213878465655
 10
173.25529523872436
 20
-31.108518543427735
 10
173.22432914190873
 20
-31.11903011687218
 10
173.195
 20
-31.133493649053893
 10
173.1678096427478
 20
-31.151661664927193
 10
173.14322330470335
 20
-31.173223304703363
 10
173.1216616649272
 20
-31.19780964274782
 10
173.1034936490539
 20
-31.225
 10
173.08903011687218
 20
-31.254329141908727
 10
173.07851854342772
 20
-31.285295238724373
 10
173.07213878465654
 20
-31.317368451944986
 10
173.07
 20
-31.35
 10
173.07
 20
-44.85
 10
173.07213878465654
 20
-44.882631548055016
 10
173.07851854342772
 20
-44.91470476127563
 10
173.08903011687218
 20
-44.945670858091276
 10
173.1034936490539
 20
-44.975
 10
173.1216616649272
 20
-45.00219035725218
 10
173.14322330470335
 20
-45.02677669529664
 10
173.1678096427478
 20
-45.04833833507281
 10
173.195
 20
-45.06650635094611
 10
173.22432914190873
 20
-45.08096988312782
 10
173.25529523872436
 20
-45.09148145657227
 10
173.28736845194499
 20
-45.09786121534346
 10
173.32
 20
-45.1
 10
186.82
 20
-45.1
 10
186.852631548055
 20
-45.09786121534346
 10
186.88470476127563
 20
-45.09148145657227
 10
186.91567085809126
 20
-45.08096988312782
 10
186.945
 20
-45.06650635094611
 10
186.97219035725217
 20
-45.04833833507281
 10
186.99677669529663
 20
-45.02677669529664
 10
187.0183383350728
 20
-45.00219035725218
 10
187.0365063509461
 20
-44.975
 10
187.0509698831278
 20
-44.945670858091276
 10
187.06148145657227
 20
-44.91470476127563
 10
187.06786121534344
 20
-44.882631548055016
 10
187.07
 20
-44.85
 10
187.07
 20
-31.35
 10
187.06786121534344
 20
-31.317368451944986
 10
187.06148145657227
 20
-31.285295238724373
 10
187.0509698831278
 20
-31.254329141908727
 10
187.0365063509461
 20
-31.225
 10
187.0183383350728
 20
-31.19780964274782
 10
186.99677669529663
 20
-31.173223304703363
 10
186.97219035725217
 20
-31.151661664927193
 10
186.945
 20
-31.133493649053893
 10
186.91567085809126
 20
-31.11903011687218
 10
186.88470476127563
 20
-31.108518543427735
 10
186.852631548055
 20
-31.10213878465655
  0
LWPOLYLINE
  5
3B
330
17
100
AcDbEntity
  8
SWITCH_CUTOUT
100
AcDbPolyline
 90
52
 70
1
 10
167.77
 20
-31.1
 10
154.27
 20
-31.1
 10
154.237368451945
 20
-31.10213878465655
 10
154.20529523872437
 20
-31.108518543427735
 10
154.17432914190874
 20
-31.11903011687218
 10
154.145
 20
-31.133493649053893
 10
154.11780964274783
 20
-31.151661664927193
 10
154.09322330470337
 20
-31.173223304703363
 10
154.0716616649272
 20
-31.19780964274782
 10
154.0534936490539
 20
-31.225
 10
154.0390301168722
 20
-31.254329141908727
 10
154.02851854342774
 20
-31.285295238724373
 10
154.02213878465656
 20
-31.317368451944986
 10
154.02
 20
-31.35
 10
154.02
 20
-44.85
 10
154.02213878465656
 20
-44.882631548055016
 10
154.02851854342774
 20
-44.91470476127563
 10
154.0390301168722
 20
-44.945670858091276
 10
154.0534936490539
 20
-44.975
 10
154.0716616649272
 20
-45.00219035725218
 10
154.09322330470337
 20
-45.02677669529664
 10
154.11780964274783
 20
-45.04833833507281
 10
154.145
 20
-45.06650635094611
 10
154.17432914190874
 20
-45.08096988312782
 10
154.20529523872437
 20
-45.09148145657227
 10
154.237368451945
 20
-45.09786121534346
 10
154.27
 20
-45.1
 10
167.77
 20
-45.1
 10
167.80263154805502
 20
-45.09786121534346
 10
167.83470476127565
 20
-45.09148145657227
 10
167.86567085809128
 20
-45.08096988312782
 10
167.895
 20
-45.06650635094611
 10
167.9221903572522
 20
-45.04833833507281
 10
167.94677669529665
 20
-45.02677669529664
 10
167.96833833507281
 20
-45.00219035725218
 10
167.98650635094612
 20
-44.975
 10
168.00096988312782
 20
-44.945670858091276
 10
168.01148145657228
 20
-44.91470476127563
 10
168.01786121534346
 20
-44.882631548055016
 10
168.02
 20
-44.85
 10
168.02
 20
-31.35
 10
168.01786121534346
 20
-31.317368451944986
 10
168.01148145657228
 20
-31.285295238724373
 10
168.00096988312782
 20
-31.254329141908727
 10
167.98650635094612
 20
-31.225
 10
167.96833833507281
 20
-31.19780964274782
 10
167.94677669529665
 20
-31.173223304703363
 10
167.9221903572522
 20
-31.151661664927193
 10
167.895
 20
-31.133493649053893
 10
167.86567085809128
 20
-31.11903011687218
 10
167.83470476127565
 20
-31.108518543427735
 10
167.80263154805502
 20
-31.10213878465655
  0
LWPOLYLINE
  5
3C
330
17
100
AcDbEntity
  8
SWITCH_CUTOUT
100
AcDbPolyline
 90
52
 70
1
 10
148.72
 20
-23.48
 10
135.22
 20
-23.48
 10
135.187368451945
 20
-23.48213878465655
 10
135.15529523872436
 20
-23.488518543427734
 10
135.12432914190873
 20
-23.499030116872177
 10
135.095
 20
-23.513493649053892
 10
135.06780964274782
 20
-23.531661664927192
 10
135.04322330470336
 20
-23.553223304703366
 10
135.0216616649272
 20
-23.57780964274782
 10
135.0034936490539
 20
-23.605
 10
134.9890301168722
 20
-23.63432914190873
 10
134.97851854342773
 20
-23.66529523872437
 10
134.97213878465655
 20
-23.69736845194499
 10
134.97
 20
-23.73
 10
134.97
 20
-37.230000000000004
 10
134.97213878465655
 20
-37.26263154805501
 10
134.97851854342773
 20
-37.29470476127563
 10
134.9890301168722
 20
-37.32567085809127
 10
135.0034936490539
 20
-37.355000000000004
 10
135.0216616649272
 20
-37.38219035725218
 10
135.04322330470336
 20
-37.406776695296635
 10
135.06780964274782
 20
-37.42833833507281
 10
135.095
 20
-37.44650635094611
 10
135.12432914190873
 20
-37.460969883127824
 10
135.15529523872436
 20
-37.47148145657227
 10
135.187368451945
 20
-37.47786121534345
 10
135.22
 20
-37.480000000000004
 10
148.72
 20
-37.480000000000004
 10
148.752631548055
 20
-37.47786121534345
 10
148.78470476127563
 20
-37.47148145657227
 10
148.81567085809127
 20
-37.460969883127824
 10
148.845
 20
-37.44650635094611
 10
148.87219035725218
 20
-37.42833833507281
 10
148.89677669529664
 20
-37.406776695296635
 10
148.9183383350728
 20
-37.38219035725218
 10
148.9365063509461
 20
-37.355000000000004
 10
148.9509698831278
 20
-37.32567085809127
 10
148.96148145657227
 20
-37.29470476127563
 10
148.96786121534345
 20
-37.26263154805501
 10
148.97
 20
-37.230000000000004
 10
148.97
 20
-23.73
 10
148.96786121534345
 20
-23.69736845194499
 10
148.96148145657227
 20
-23.66529523872437
 10
148.9509698831278
 20
-23.63432914190873
 10
148.9365063509461
 20
-23.605
 10
148.9183383350728
 20
-23.57780964274782
 10
148.89677669529664
 20
-23.553223304703366
 10
148.87219035725218
 20
-23.531661664927192
 10
148.845
 20
-23.513493649053892
 10
148.81567085809127
 20
-23.499030116872177
 10
148.78470476127563
 20
-23.488518543427734
 10
148.752631548055
 20
-23.48213878465655
  0
LWPOLYLINE
  5
3D
330
17
100
AcDbEntity
  8
SWITCH_CUTOUT
100
AcDbPolyline
 90
52
 70
1
 10
129.67000000000002
 20
-21.575
 10
116.17
 20
-21.575
 10
116.137368451945
 20
-21.577138784656547
 10
116.10529523872437
 20
-21.583518543427733
 10
116.07432914190873
 20
-21.594030116872176
 10
116.045
 20
-21.60849364905389
 10
116.01780964274782
 20
-21.62666166492719
 10
115.99322330470336
 20
-21.648223304703365
 10
115.9716616649272
 20
-21.67280964274782
 10
115.9534936490539
 20
-21.7
 10
115.93903011687217
 20
-21.729329141908728
 10
115.92851854342773
 20
-21.760295238724368
 10
115.92213878465655
 20
-21.792368451944988
 10
115.92
 20
-21.825
 10
115.92
 20
-35.325
 10
115.92213878465655
 20
-35.35763154805501
 10
115.92851854342773
 20
-35.38970476127563
 10
115.93903011687217
 20
-35.42067085809127
 10
115.9534936490539
 20
-35.45
 10
115.9716616649272
 20
-35.47719035725218
 10
115.99322330470336
 20
-35.501776695296634
 10
116.01780964274782
 20
-35.52333833507281
 10
116.045
 20
-35.54150635094611
 10
116.07432914190873
 20
-35.55596988312782
 10
116.10529523872437
 20
-35.56648145657227
 10
116.137368451945
 20
-35.57286121534345
 10
116.17
 20
-35.575
 10
129.67000000000002
 20
-35.575
 10
129.70263154805502
 20
-35.57286121534345
 10
129.73470476127562
 20
-35.56648145657227
 10
129.76567085809128
 20
-35.55596988312782
 10
129.79500000000002
 20
-35.54150635094611
 10
129.82219035725217
 20
-35.52333833507281
 10
129.84677669529663
 20
-35.501776695296634
 10
129.86833833507282
 20
-35.47719035725218
 10
129.88650635094612
 20
-35.45
 10
129.90096988312783
 20
-35.42067085809127
 10
129.91148145657226
 20
-35.38970476127563
 10
129.91786121534346
 20
-35.35763154805501
 10
129.92000000000002
 20
-35.325
 10
129.92000000000002
 20
-21.825
 10
129.91786121534346
 20
-21.792368451944988
 10
129.91148145657226
 20
-21.760295238724368
 10
129.90096988312783
 20
-21.729329141908728
 10
129.88650635094612
 20
-21.7
 10
129.86833833507282
 20
-21.67280964274782
 10
129.84677669529663
 20
-21.648223304703365
 10
129.82219035725217
 20
-21.62666166492719
 10
129.79500000000002
 20
-21.60849364905389
 10
129.76567085809128
 20
-21.594030116872176
 10
129.73470476127562
 20
-21.583518543427733
 10
129.70263154805502
 20
-21.577138784656547
  0
LWPOLYLINE
  5
3E
330
17
100
AcDbEntity
  8
SWITCH_CUTOUT
100
AcDbPolyline
 90
52
 70
1
 10
110.62
 20
-24.4325
 10
97.12
 20
-24.4325
 10
97.087368451945
 20
-24.43463878465655
 10
97.05529523872437
 20
-24.441018543427734
 10
97.02432914190874
 20
-24.451530116872178
 10
96.995
 20
-24.465993649053893
 10
96.96780964274782
 20
-24.484161664927193
 10
96.94322330470337
 20
-24.505723304703366
 10
96.9216616649272
 20
-24.53030964274782
 10
96.9034936490539
 20
-24.5575
 10
96.88903011687218
 20
-24.58682914190873
 10
96.87851854342773
 20
-24.61779523872437
 10
96.87213878465656
 20
-24.64986845194499
 10
96.87
 20
-24.6825
 10
96.87
 20
-38.182500000000005
 10
96.87213878465656
 20
-38.21513154805501
 10
96.87851854342773
 20
-38.24720476127563
 10
96.88903011687218
 20
-38.27817085809127
 10
96.9034936490539
 20
-38.307500000000005
 10
96.9216616649272
 20
-38.33469035725218
 10
96.94322330470337
 20
-38.359276695296636
 10
96.96780964274782
 20
-38.38083833507281
 10
96.995
 20
-38.39900635094611
 10
97.02432914190874
 20
-38.413469883127824
 10
97.05529523872437
 20
-38.42398145657227
 10
97.087368451945
 20
-38.43036121534345
 10
97.12
 20
-38.432500000000005
 10
110.62
 20
-38.432500000000005
 10
110.65263154805501
 20
-38.43036121534345
 10
110.68470476127564
 20
-38.42398145657227
 10
110.71567085809127
 20
-38.413469883127824
 10
110.745
 20
-38.39900635094611
 10
110.77219035725219
 20
-38.38083833507281
 10
110.79677669529664
 20
-38.359276695296636
 10
110.81833833507281
 20
-38.33469035725218
 10
110.83650635094611
 20
-38.307500000000005
 10
110.85096988312783
 20
-38.27817085809127
 10
110.86148145657228
 20
-38.24720476127563
 10
110.86786121534345
 20
-38.21513154805501
 10
110.87
 20
-38.182500000000005
 10
110.87
 20
-24.6825
 10
110.86786121534345
 20
-24.64986845194499
 10
110.86148145657228
 20
-24.61779523872437
 10
110.85096988312783
 20
-24.58682914190873
 10
110.83650635094611
 20
-24.5575
 10
110.81833833507281
 20
-24.53030964274782
 10
110.79677669529664
 20
-24.505723304703366
 10
110.77219035725219
 20
-24.484161664927193
 10
110.745
 20
-24.465993649053893
 10
110.71567085809127
 20
-24.451530116872178
 10
110.68470476127564
 20
-24.441018543427734
 10
110.65263154805501
 20
-24.43463878465655
  0
LWPOLYLINE
  5
3F
330
17
100
AcDbEntity
  8
SWITCH_CUTOUT
100
AcDbPolyline
 90
52
 70
1
 10
91.57
 20
-28.2425
 10
78.07
 20
-28.2425
 10
78.03736845194499
 20
-28.244638784656548
 10
78.00529523872436
 20
-28.251018543427733
 10
77.97432914190873
 20
-28.26153011687218
 10
77.945
 20
-28.27599364905389
 10
77.91780964274781
 20
-28.29416166492719
 10
77.89322330470335
 20
-28.31572330470336
 10
77.87166166492719
 20
-28.34030964274782
 10
77.85349364905389
 20
-28.3675
 10
77.83903011687217
 20
-28.396829141908725
 10
77.82851854342772
 20
-28.42779523872437
 10
77.82213878465654
 20
-28.459868451944985
 10
77.82
 20
-28.4925
 10
77.82
 20
-41.9925
 10
77.82213878465654
 20
-42.025131548055015
 10
77.82851854342772
 20
-42.05720476127563
 10
77.83903011687217
 20
-42.088170858091274
 10
77.85349364905389
 20
-42.1175
 10
77.87166166492719
 20
-42.14469035725218
 10
77.89322330470335
 20
-42.16927669529664
 10
77.91780964274781
 20
-42.19083833507281
 10
77.945
 20
-42.20900635094611
 10
77.97432914190873
 20
-42.22346988312782
 10
78.00529523872436
 20
-42.233981456572266
 10
78.03736845194499
 20
-42.240361215343455
 10
78.07
 20
-42.2425
 10
91.57
 20
-42.2425
 10
91.602631548055
 20
-42.240361215343455
 10
91.63470476127563
 20
-42.233981456572266
 10
91.66567085809126
 20
-42.22346988312782
 10
91.695
 20
-42.20900635094611
 10
91.72219035725217
 20
-42.19083833507281
 10
91.74677669529663
 20
-42.16927669529664
 10
91.7683383350728
 20
-42.14469035725218
 10
91.7865063509461
 20
-42.1175
 10
91.80096988312782
 20
-42.088170858091274
 10
91.81148145657227
 20
-42.05720476127563
 10
91.81786121534344
 20
-42.025131548055015
 10
91.82
 20
-41.9925
 10
91.82
 20
-28.4925
 10
91.81786121534344
 20
-28.459868451944985
 10
91.81148145657227
 20
-28.42779523872437
 10
91.80096988312782
 20
-28.396829141908725
 10
91.7865063509461
 20
-28.3675
 10
91.7683383350728
 20
-28.34030964274782
 10
91.74677669529663
 20
-28.31572330470336
 10
91.72219035725217
 20
-28.29416166492719
 10
91.695
 20
-28.27599364905389
 10
91.66567085809126
 20
-28.26153011687218
 10
91.63470476127563
 20
-28.251018543427733
 10
91.602631548055
 20
-28.244638784656548
  0
LWPOLYLINE
  5
40
330
17
100
AcDbEntity
  8
SWITCH_CUTOUT
100
AcDbPolyline
 90
52
 70
1
 10
186.82
 20
-50.15
 10
173.32
 20
-50.15
 10
173.28736845194499
 20
-50.15213878465654
 10
173.25529523872436
 20
-50.15851854342773
 10
173.22432914190873
 20
-50.16903011687218
 10
173.195
 20
-50.18349364905389
 10
173.1678096427478
 20
-50.20166166492719
 10
173.14322330470335
 20
-50.22322330470336
 10
173.1216616649272
 20
-50.24780964274782
 10
173.1034936490539
 20
-50.275
 10
173.08903011687218
 20
-50.304329141908724
 10
173.07851854342772
 20
-50.33529523872437
 10
173.07213878465654
 20
-50.367368451944984
 10
173.07
 20
-50.4
 10
173.07
 20
-63.9
 10
173.07213878465654
 20
-63.932631548055014
 10
173.07851854342772
 20
-63.96470476127563
 10
173.08903011687218
 20
-63.99567085809127
 10
173.1034936490539
 20
-64.025
 10
173.1216616649272
 20
-64.05219035725217
 10
173.14322330470335
 20
-64.07677669529663
 10
173.1678096427478
 20
-64.09833833507281
 10
173.195
 20
-64.11650635094611
 10
173.22432914190873
 20
-64.13096988312782
 10
173.25529523872436
 20
-64.14148145657227
 10
173.28736845194499
 20
-64.14786121534345
 10
173.32
 20
-64.15
 10
186.82
 20
-64.15
 10
186.852631548055
 20
-64.14786121534345
 10
186.88470476127563
 20
-64.14148145657227
 10
186.91567085809126
 20
-64.13096988312782
 10
186.945
 20
-64.11650635094611
 10
186.97219035725217
 20
-64.09833833507281
 10
186.99677669529663
 20
-64.07677669529663
 10
187.0183383350728
 20
-64.05219035725217
 10
187.0365063509461
 20
-64.025
 10
187.0509698831278
 20
-63.99567085809127
 10
187.06148145657227
 20
-63.96470476127563
 10
187.06786121534344
 20
-63.932631548055014
 10
187.07
 20
-63.9
 10
187.07
 20
-50.4
 10
187.06786121534344
 20
-50.367368451944984
 10
187.06148145657227
 20
-50.33529523872437
 10
187.0509698831278
 20
-50.304329141908724
 10
187.0365063509461
 20
-50.275
 10
187.0183383350728
 20
-50.24780964274782
 10
186.99677669529663
 20
-50.22322330470336
 10
186.97219035725217
 20
-50.20166166492719
 10
186.945
 20
-50.18349364905389
 10
186.91567085809126
 20
-50.16903011687218
 10
186.88470476127563
 20
-50.15851854342773
 10
186.852631548055
 20
-50.15213878465654
  0
LWPOLYLINE
  5
41
330
17
100
AcDbEntity
  8
SWITCH_CUTOUT
100
AcDbPolyline
 90
52
 70
1
 10
167.77
 20
-50.15
 10
154.27
 20
-50.15
 10
154.237368451945
 20
-50.15213878465654
 10
154.20529523872437
 20
-50.15851854342773
 10
154.17432914190874
 20
-50.16903011687218
 10
154.145
 20
-50.18349364905389
 10
154.11780964274783
 20
-50.20166166492719
 10
154.09322330470337
 20
-50.22322330470336
 10
154.0716616649272
 20
-50.24780964274782
 10
154.0534936490539
 20
-50.275
 10
154.0390301168722
 20
-50.304329141908724
 10
154.02851854342774
 20
-50.33529523872437
 10
154.02213878465656
 20
-50.367368451944984
 10
154.02
 20
-50.4
 10
154.02
 20
-63.9
 10
154.02213878465656
 20
-63.932631548055014
 10
154.02851854342774
 20
-63.96470476127563
 10
154.0390301168722
 20
-63.99567085809127
 10
154.0534936490539
 20
-64.025
 10
154.0716616649272
 20
-64.05219035725217
 10
154.09322330470337
 20
-64.07677669529663
 10
154.11780964274783
 20
-64.09833833507281
 10
154.145
 20
-64.11650635094611
 10
154.17432914190874
 20
-64.13096988312782
 10
154.20529523872437
 20
-64.14148145657227
 10
154.237368451945
 20
-64.14786121534345
 10
154.27
 20
-64.15
 10
167.77
 20
-64.15
 10
167.80263154805502
 20
-64.14786121534345
 10
167.83470476127565
 20
-64.14148145657227
 10
167.86567085809128
 20
-64.13096988312782
 10
167.895
 20
-64.11650635094611
 10
167.9221903572522
 20
-64.09833833507281
 10
167.94677669529665
 20
-64.07677669529663
 10
167.96833833507281
 20
-64.05219035725217
 10
167.98650635094612
 20
-64.025
 10
168.00096988312782
 20
-63.99567085809127
 10
168.01148145657228
 20
-63.96470476127563
 10
168.01786121534346
 20
-63.932631548055014
 10
168.02
 20
-63.9
 10
168.02
 20
-50.4
 10
168.01786121534346
 20
-50.367368451944984
 10
168.01148145657228
 20
-50.33529523872437
 10
168.00096988312782
 20
-50.304329141908724
 10
167.98650635094612
 20
-50.275
 10
167.96833833507281
 20
-50.24780964274782
 10
167.94677669529665
 20
-50.22322330470336
 10
167.9221903572522
 20
-50.20166166492719
 10
167.895
 20
-50.18349364905389
 10
167.86567085809128
 20
-50.16903011687218
 10
167.83470476127565
 20
-50.15851854342773
 10
167.80263154805502
 20
-50.15213878465654
  0
LWPOLYLINE
  5
42
330
17
100
AcDbEntity
  8
SWITCH_CUTOUT
100
AcDbPolyline
 90
52
 70
1
 10
148.72
 20
-42.53
 10
135.22
 20
-42.53
 10
135.187368451945
 20
-42.532138784656546
 10
135.15529523872436
 20
-42.538518543427735
 10
135.12432914190873
 20
-42.54903011687218
 10
135.095
 20
-42.56349364905389
 10
135.06780964274782
 20
-42.58166166492719
 10
135.04322330470336
 20
-42.60322330470336
 10
135.0216616649272
 20
-42.62780964274782
 10
135.0034936490539
 20
-42.655
 10
134.9890301168722
 20
-42.68432914190873
 10
134.97851854342773
 20
-42.71529523872437
 10
134.97213878465655
 20
-42.747368451944986
 10
134.97
 20
-42.78
 10
134.97
 20
-56.28
 10
134.97213878465655
 20
-56.312631548055016
 10
134.97851854342773
 20
-56.34470476127563
 10
134.9890301168722
 20
-56.375670858091276
 10
135.0034936490539
 20
-56.405
 10
135.0216616649272
 20
-56.43219035725218
 10
135.04322330470336
 20
-56.45677669529664
 10
135.06780964274782
 20
-56.47833833507281
 10
135.095
 20
-56.49650635094611
 10
135.12432914190873
 20
-56.51096988312782
 10
135.15529523872436
 20
-56.52148145657227
 10
135.187368451945
 20
-56.52786121534346
 10
135.22
 20
-56.53
 10
148.72
 20
-56.53
 10
148.752631548055
 20
-56.52786121534346
 10
148.78470476127563
 20
-56.52148145657227
 10
148.81567085809127
 20
-56.51096988312782
 10
148.845
 20
-56.49650635094611
 10
148.87219035725218
 20
-56.47833833507281
 10
148.89677669529664
 20
-56.45677669529664
 10
148.9183383350728
 20
-56.43219035725218
 10
148.9365063509461
 20
-56.405
 10
148.9509698831278
 20
-56.375670858091276
 10
148.96148145657227
 20
-56.34470476127563
 10
148.96786121534345
 20
-56.312631548055016
 10
148.97
 20
-56.28
 10
148.97
 20
-42.78
 10
148.96786121534345
 20
-42.747368451944986
 10
148.96148145657227
 20
-42.71529523872437
 10
148.9509698831278
 20
-42.68432914190873
 10
148.9365063509461
 20
-42.655
 10
148.9183383350728
 20
-42.62780964274782
 10
148.89677669529664
 20
-42.60322330470336
 10
148.87219035725218
 20
-42.58166166492719
 10
148.845
 20
-42.56349364905389
 10
148.81567085809127
 20
-42.54903011687218
 10
148.78470476127563
 20
-42.538518543427735
 10
148.752631548055
 20
-42.532138784656546
  0
LWPOLYLINE
  5
43
330
17
100
AcDbEntity
  8
SWITCH_CUTOUT
100
AcDbPolyline
 90
52
 70
1
 10
129.67000000000002
 20
-40.625
 10
116.17
 20
-40.625
 10
116.137368451945
 20
-40.627138784656545
 10
116.10529523872437
 20
-40.63351854342773
 10
116.07432914190873
 20
-40.64403011687218
 10
116.045
 20
-40.65849364905389
 10
116.01780964274782
 20
-40.67666166492719
 10
115.99322330470336
 20
-40.69822330470336
 10
115.9716616649272
 20
-40.72280964274782
 10
115.9534936490539
 20
-40.75
 10
115.93903011687217
 20
-40.779329141908725
 10
115.92851854342773
 20
-40.81029523872437
 10
115.92213878465655
 20
-40.842368451944985
 10
115.92
 20
-40.875
 10
115.92
 20
-54.375
 10
115.92213878465655
 20
-54.407631548055015
 10
115.92851854342773
 20
-54.43970476127563
 10
115.93903011687217
 20
-54.470670858091275
 10
115.9534936490539
 20
-54.5
 10
115.9716616649272
 20
-54.52719035725218
 10
115.99322330470336
 20
-54.55177669529664
 10
116.01780964274782
 20
-54.57333833507281
 10
116.045
 20
-54.59150635094611
 10
116.07432914190873
 20
-54.60596988312782
 10
116.10529523872437
 20
-54.61648145657227
 10
116.137368451945
 20
-54.622861215343455
 10
116.17
 20
-54.625
 10
129.67000000000002
 20
-54.625
 10
129.70263154805502
 20
-54.622861215343455
 10
129.73470476127562
 20
-54.61648145657227
 10
129.76567085809128
 20
-54.60596988312782
 10
129.79500000000002
 20
-54.59150635094611
 10
129.82219035725217
 20
-54.57333833507281
 10
129.84677669529663
 20
-54.55177669529664
 10
129.86833833507282
 20
-54.52719035725218
 10
129.88650635094612
 20
-54.5
 10
129.90096988312783
 20
-54.470670858091275
 10
129.91148145657226
 20
-54.43970476127563
 10
129.91786121534346
 20
-54.407631548055015
 10
129.92000000000002
 20
-54.375
 10
129.92000000000002
 20
-40.875
 10
129.91786121534346
 20
-40.842368451944985
 10
129.91148145657226
 20
-40.81029523872437
 10
129.90096988312783
 20
-40.779329141908725
 10
129.88650635094612
 20
-40.75
 10
129.86833833507282
 20
-40.72280964274782
 10
129.84677669529663
 20
-40.69822330470336
 10
129.82219035725217
 20
-40.67666166492719
 10
129.79500000000002
 20
-40.65849364905389
 10
129.76567085809128
 20
-40.64403011687218
 10
129.73470476127562
 20
-40.63351854342773
 10
129.70263154805502
 20
-40.627138784656545
  0
LWPOLYLINE
  5
44
330
17
100
AcDbEntity
  8
SWITCH_CUTOUT
100
AcDbPolyline
 90
52
 70
1
 10
110.62
 20
-43.4825
 10
97.12
 20
-43.4825
 10
97.087368451945
 20
-43.484638784656546
 10
97.05529523872437
 20
-43.491018543427735
 10
97.02432914190874
 20
-43.50153011687218
 10
96.995
 20
-43.51599364905389
 10
96.96780964274782
 20
-43.53416166492719
 10
96.94322330470337
 20
-43.55572330470336
 10
96.9216616649272
 20
-43.58030964274782
 10
96.9034936490539
 20
-43.6075
 10
96.88903011687218
 20
-43.63682914190873
 10
96.87851854342773
 20
-43.66779523872437
 10
96.87213878465656
 20
-43.69986845194499
 10
96.87
 20
-43.7325
 10
96.87
 20
-57.2325
 10
96.87213878465656
 20
-57.26513154805502
 10
96.87851854342773
 20
-57.29720476127563
 10
96.88903011687218
 20
-57.328170858091276
 10
96.9034936490539
 20
-57.3575
 10
96.9216616649272
 20
-57.38469035725218
 10
96.94322330470337
 20
-57.40927669529664
 10
96.96780964274782
 20
-57.43083833507281
 10
96.995
 20
-57.449006350946114
 10
97.02432914190874
 20
-57.46346988312782
 10
97.05529523872437
 20
-57.47398145657227
 10
97.087368451945
 20
-57.48036121534346
 10
97.12
 20
-57.4825
 10
110.62
 20
-57.4825
 10
110.65263154805501
 20
-57.48036121534346
 10
110.68470476127564
 20
-57.47398145657227
 10
110.71567085809127
 20
-57.46346988312782
 10
110.745
 20
-57.449006350946114
 10
110.77219035725219
 20
-57.43083833507281
 10
110.79677669529664
 20
-57.40927669529664
 10
110.81833833507281
 20
-57.38469035725218
 10
110.83650635094611
 20
-57.3575
 10
110.85096988312783
 20
-57.328170858091276
 10
110.86148145657228
 20
-57.29720476127563
 10
110.86786121534345
 20
-57.26513154805502
 10
110.87
 20
-57.2325
 10
110.87
 20
-43.7325
 10
110.86786121534345
 20
-43.69986845194499
 10
110.86148145657228
 20
-43.66779523872437
 10
110.85096988312783
 20
-43.63682914190873
 10
110.83650635094611
 20
-43.6075
 10
110.81833833507281
 20
-43.58030964274782
 10
110.79677669529664
 20
-43.55572330470336
 10
110.77219035725219
 20
-43.53416166492719
 10
110.745
 20
-43.51599364905389
 10
110.71567085809127
 20
-43.50153011687218
 10
110.68470476127564
 20
-43.491018543427735
 10
110.65263154805501
 20
-43.484638784656546
  0
LWPOLYLINE
  5
45
330
17
100
AcDbEntity
  8
SWITCH_CUTOUT
100
AcDbPolyline
 90
52
 70
1
 10
91.57
 20
-47.2925
 10
78.07
 20
-47.2925
 10
78.03736845194499
 20
-47.29463878465654
 10
78.00529523872436
 20
-47.30101854342773
 10
77.97432914190873
 20
-47.31153011687218
 10
77.945
 20
-47.325993649053885
 10
77.91780964274781
 20
-47.344161664927185
 10
77.89322330470335
 20
-47.36572330470336
 10
77.87166166492719
 20
-47.390309642747816
 10
77.85349364905389
 20
-47.4175
 10
77.83903011687217
 20
-47.44682914190872
 10
77.82851854342772
 20
-47.47779523872437
 10
77.82213878465654
 20
-47.50986845194498
 10
77.82
 20
-47.5425
 10
77.82
 20
-61.0425
 10
77.82213878465654
 20
-61.07513154805501
 10
77.82851854342772
 20
-61.107204761275625
 10
77.83903011687217
 20
-61.13817085809127
 10
77.85349364905389
 20
-61.1675
 10
77.87166166492719
 20
-61.19469035725218
 10
77.89322330470335
 20
-61.219276695296635
 10
77.91780964274781
 20
-61.24083833507281
 10
77.945
 20
-61.25900635094611
 10
77.97432914190873
 20
-61.27346988312782
 10
78.00529523872436
 20
-61.28398145657226
 10
78.03736845194499
 20
-61.29036121534345
 10
78.07
 20
-61.2925
 10
91.57
 20
-61.2925
 10
91.602631548055
 20
-61.29036121534345
 10
91.63470476127563
 20
-61.28398145657226
 10
91.66567085809126
 20
-61.27346988312782
 10
91.695
 20
-61.25900635094611
 10
91.72219035725217
 20
-61.24083833507281
 10
91.74677669529663
 20
-61.219276695296635
 10
91.7683383350728
 20
-61.19469035725218
 10
91.7865063509461
 20
-61.1675
 10
91.80096988312782
 20
-61.13817085809127
 10
91.81148145657227
 20
-61.107204761275625
 10
91.81786121534344
 20
-61.07513154805501
 10
91.82
 20
-61.0425
 10
91.82
 20
-47.5425
 10
91.81786121534344
 20
-47.50986845194498
 10
91.81148145657227
 20
-47.47779523872437
 10
91.80096988312782
 20
-47.44682914190872
 10
91.7865063509461
 20
-47.4175
 10
91.7683383350728
 20
-47.390309642747816
 10
91.74677669529663
 20
-47.36572330470336
 10
91.72219035725217
 20
-47.344161664927185
 10
91.695
 20
-47.325993649053885
 10
91.66567085809126
 20
-47.31153011687218
 10
91.63470476127563
 20
-47.30101854342773
 10
91.602631548055
 20
-47.29463878465654
  0
LWPOLYLINE
  5
46
330
17
100
AcDbEntity
  8
SWITCH_CUTOUT
100
AcDbPolyline
 90
52
 70
1
 10
186.82
 20
-69.2
 10
173.32
 20
-69.2
 10
173.28736845194499
 20
-69.20213878465655
 10
173.25529523872436
 20
-69.20851854342773
 10
173.22432914190873
 20
-69.21903011687218
 10
173.195
 20
-69.2334936490539
 10
173.1678096427478
 20
-69.2516616649272
 10
173.14322330470335
 20
-69.27322330470336
 10
173.1216616649272
 20
-69.29780964274782
 10
173.1034936490539
 20
-69.325
 10
173.08903011687218
 20
-69.35432914190874
 10
173.07851854342772
 20
-69.38529523872437
 10
173.07213878465654
 20
-69.417368451945
 10
173.07
 20
-69.45
 10
173.07
 20
-82.95
 10
173.07213878465654
 20
-82.98263154805501
 10
173.07851854342772
 20
-83.01470476127564
 10
173.08903011687218
 20
-83.04567085809127
 10
173.1034936490539
 20
-83.075
 10
173.1216616649272
 20
-83.10219035725218
 10
173.14322330470335
 20
-83.12677669529664
 10
173.1678096427478
 20
-83.14833833507281
 10
173.195
 20
-83.16650635094611
 10
173.22432914190873
 20
-83.18096988312783
 10
173.25529523872436
 20
-83.19148145657228
 10
173.28736845194499
 20
-83.19786121534345
 10
173.32
 20
-83.2
 10
186.82
 20
-83.2
 10
186.852631548055
 20
-83.19786121534345
 10
186.88470476127563
 20
-83.19148145657228
 10
186.91567085809126
 20
-83.18096988312783
 10
186.945
 20
-83.16650635094611
 10
186.97219035725217
 20
-83.14833833507281
 10
186.99677669529663
 20
-83.12677669529664
 10
187.0183383350728
 20
-83.10219035725218
 10
187.0365063509461
 20
-83.075
 10
187.0509698831278
 20
-83.04567085809127
 10
187.06148145657227
 20
-83.01470476127564
 10
187.06786121534344
 20
-82.98263154805501
 10
187.07
 20
-82.95
 10
187.07
 20
-69.45
 10
187.06786121534344
 20
-69.417368451945
 10
187.06148145657227
 20
-69.38529523872437
 10
187.0509698831278
 20
-69.35432914190874
 10
187.0365063509461
 20
-69.325
 10
187.0183383350728
 20
-69.29780964274782
 10
186.99677669529663
 20
-69.27322330470336
 10
186.97219035725217
 20
-69.2516616649272
 10
186.945
 20
-69.2334936490539
 10
186.91567085809126
 20
-69.21903011687218
 10
186.88470476127563
 20
-69.20851854342773
 10
186.852631548055
 20
-69.20213878465655
  0
LWPOLYLINE
  5
47
330
17
100
AcDbEntity
  8
SWITCH_CUTOUT
100
AcDbPolyline
 90
52
 70
1
 10
167.77
 20
-69.2
 10
154.27
 20
-69.2
 10
154.237368451945
 20
-69.20213878465655
 10
154.20529523872437
 20
-69.20851854342773
 10
154.17432914190874
 20
-69.21903011687218
 10
154.145
 20
-69.2334936490539
 10
154.11780964274783
 20
-69.2516616649272
 10
154.09322330470337
 20
-69.27322330470336
 10
154.0716616649272
 20
-69.29780964274782
 10
154.0534936490539
 20
-69.325
 10
154.0390301168722
 20
-69.35432914190874
 10
154.02851854342774
 20
-69.38529523872437
 10
154.02213878465656
 20
-69.417368451945
 10
154.02
 20
-69.45
 10
154.02
 20
-82.95
 10
154.02213878465656
 20
-82.98263154805501
 10
154.02851854342774
 20
-83.01470476127564
 10
154.0390301168722
 20
-83.04567085809127
 10
154.0534936490539
 20
-83.075
 10
154.0716616649272
 20
-83.10219035725218
 10
154.09322330470337
 20
-83.12677669529664
 10
154.11780964274783
 20
-83.14833833507281
 10
154.145
 20
-83.16650635094611
 10
154.17432914190874
 20
-83.18096988312783
 10
154.20529523872437
 20
-83.19148145657228
 10
154.237368451945
 20
-83.19786121534345
 10
154.27
 20
-83.2
 10
167.77
 20
-83.2
 10
167.80263154805502
 20
-83.19786121534345
 10
167.83470476127565
 20
-83.19148145657228
 10
167.86567085809128
 20
-83.18096988312783
 10
167.895
 20
-83.16650635094611
 10
167.9221903572522
 20
-83.14833833507281
 10
167.94677669529665
 20
-83.12677669529664
 10
167.96833833507281
 20
-83.10219035725218
 10
167.98650635094612
 20
-83.075
 10
168.00096988312782
 20
-83.04567085809127
 10
168.01148145657228
 20
-83.01470476127564
 10
168.01786121534346
 20
-82.98263154805501
 10
168.02
 20
-82.95
 10
168.02
 20
-69.45
 10
168.01786121534346
 20
-69.417368451945
 10
168.01148145657228
 20
-69.38529523872437
 10
168.00096988312782
 20
-69.35432914190874
 10
167.98650635094612
 20
-69.325
 10
167.96833833507281
 20
-69.29780964274782
 10
167.94677669529665
 20
-69.27322330470336
 10
167.9221903572522
 20
-69.2516616649272
 10
167.895
 20
-69.2334936490539
 10
167.86567085809128
 20
-69.21903011687218
 10
167.83470476127565
 20
-69.20851854342773
 10
167.80263154805502
 20
-69.20213878465655
  0
LWPOLYLINE
  5
48
330
17
100
AcDbEntity
  8
SWITCH_CUTOUT
100
AcDbPolyline
 90
52
 70
1
 10
148.72
 20
-61.58
 10
135.22
 20
-61.58
 10
135.187368451945
 20
-61.58213878465654
 10
135.15529523872436
 20
-61.58851854342773
 10
135.12432914190873
 20
-61.59903011687218
 10
135.095
 20
-61.613493649053886
 10
135.06780964274782
 20
-61.63166166492719
 10
135.04322330470336
 20
-61.65322330470336
 10
135.0216616649272
 20
-61.67780964274782
 10
135.0034936490539
 20
-61.705
 10
134.9890301168722
 20
-61.734329141908724
 10
134.97851854342773
 20
-61.76529523872437
 10
134.97213878465655
 20
-61.79736845194498
 10
134.97
 20
-61.83
 10
134.97
 20
-75.33
 10
134.97213878465655
 20
-75.362631548055
 10
134.97851854342773
 20
-75.39470476127563
 10
134.9890301168722
 20
-75.42567085809127
 10
135.0034936490539
 20
-75.455
 10
135.0216616649272
 20
-75.48219035725218
 10
135.04322330470336
 20
-75.50677669529664
 10
135.06780964274782
 20
-75.5283383350728
 10
135.095
 20
-75.5465063509461
 10
135.12432914190873
 20
-75.56096988312783
 10
135.15529523872436
 20
-75.57148145657227
 10
135.187368451945
 20
-75.57786121534345
 10
135.22
 20
-75.58
 10
148.72
 20
-75.58
 10
148.752631548055
 20
-75.57786121534345
 10
148.78470476127563
 20
-75.57148145657227
 10
148.81567085809127
 20
-75.56096988312783
 10
148.845
 20
-75.5465063509461
 10
148.87219035725218
 20
-75.5283383350728
 10
148.89677669529664
 20
-75.50677669529664
 10
148.9183383350728
 20
-75.48219035725218
 10
148.9365063509461
 20
-75.455
 10
148.9509698831278
 20
-75.42567085809127
 10
148.96148145657227
 20
-75.39470476127563
 10
148.96786121534345
 20
-75.362631548055
 10
148.97
 20
-75.33
 10
148.97
 20
-61.83
 10
148.96786121534345
 20
-61.79736845194498
 10
148.96148145657227
 20
-61.76529523872437
 10
148.9509698831278
 20
-61.734329141908724
 10
148.9365063509461
 20
-61.705
 10
148.9183383350728
 20
-61.67780964274782
 10
148.89677669529664
 20
-61.65322330470336
 10
148.87219035725218
 20
-61.63166166492719
 10
148.845
 20
-61.613493649053886
 10
148.81567085809127
 20
-61.59903011687218
 10
148.78470476127563
 20
-61.58851854342773
 10
148.752631548055
 20
-61.58213878465654
  0
LWPOLYLINE
  5
49
330
17
100
AcDbEntity
  8
SWITCH_CUTOUT
100
AcDbPolyline
 90
52
 70
1
 10
129.67000000000002
 20
-59.675
 10
116.17
 20
-59.675
 10
116.137368451945
 20
-59.67713878465654
 10
116.10529523872437
 20
-59.68351854342773
 10
116.07432914190873
 20
-59.69403011687218
 10
116.045
 20
-59.708493649053885
 10
116.01780964274782
 20
-59.726661664927185
 10
115.99322330470336
 20
-59.74822330470336
 10
115.9716616649272
 20
-59.772809642747816
 10
115.9534936490539
 20
-59.8
 10
115.93903011687217
 20
-59.82932914190872
 10
115.92851854342773
 20
-59.86029523872437
 10
115.92213878465655
 20
-59.89236845194498
 10
115.92
 20
-59.925
 10
115.92
 20
-73.425
 10
115.92213878465655
 20
-73.457631548055
 10
115.92851854342773
 20
-73.48970476127563
 10
115.93903011687217
 20
-73.52067085809126
 10
115.9534936490539
 20
-73.55
 10
115.9716616649272
 20
-73.57719035725218
 10
115.99322330470336
 20
-73.60177669529664
 10
116.01780964274782
 20
-73.6233383350728
 10
116.045
 20
-73.6415063509461
 10
116.07432914190873
 20
-73.65596988312782
 10
116.10529523872437
 20
-73.66648145657227
 10
116.137368451945
 20
-73.67286121534345
 10
116.17
 20
-73.675
 10
129.67000000000002
 20
-73.675
 10
129.70263154805502
 20
-73.67286121534345
 10
129.73470476127562
 20
-73.66648145657227
 10
129.76567085809128
 20
-73.65596988312782
 10
129.79500000000002
 20
-73.6415063509461
 10
129.82219035725217
 20
-73.6233383350728
 10
129.84677669529663
 20
-73.60177669529664
 10
129.86833833507282
 20
-73.57719035725218
 10
129.88650635094612
 20
-73.55
 10
129.90096988312783
 20
-73.52067085809126
 10
129.91148145657226
 20
-73.48970476127563
 10
129.91786121534346
 20
-73.457631548055
 10
129.92000000000002
 20
-73.425
 10
129.92000000000002
 20
-59.925
 10
129.91786121534346
 20
-59.89236845194498
 10
129.91148145657226
 20
-59.86029523872437
 10
129.90096988312783
 20
-59.82932914190872
 10
129.88650635094612
 20
-59.8
 10
129.86833833507282
 20
-59.772809642747816
 10
129.84677669529663
 20
-59.74822330470336
 10
129.82219035725217
 20
-59.726661664927185
 10
129.79500000000002
 20
-59.708493649053885
 10
129.76567085809128
 20
-59.69403011687218
 10
129.73470476127562
 20
-59.68351854342773
 10
129.70263154805502
 20
-59.67713878465654
  0
LWPOLYLINE
  5
4A
330
17
100
AcDbEntity
  8
SWITCH_CUTOUT
100
AcDbPolyline
 90
52
 70
1
 10
110.62
 20
-62.5325
 10
97.12
 20
-62.5325
 10
97.087368451945
 20
-62.53463878465654
 10
97.05529523872437
 20
-62.54101854342773
 10
97.02432914190874
 20
-62.55153011687218
 10
96.995
 20
-62.56599364905389
 10
96.96780964274782
 20
-62.58416166492719
 10
96.94322330470337
 20
-62.60572330470336
 10
96.9216616649272
 20
-62.63030964274782
 10
96.9034936490539
 20
-62.6575
 10
96.88903011687218
 20
-62.686829141908724
 10
96.87851854342773
 20
-62.71779523872437
 10
96.87213878465656
 20
-62.749868451944984
 10
96.87
 20
-62.7825
 10
96.87
 20
-76.2825
 10
96.87213878465656
 20
-76.315131548055
 10
96.87851854342773
 20
-76.34720476127563
 10
96.88903011687218
 20
-76.37817085809127
 10
96.9034936490539
 20
-76.4075
 10
96.9216616649272
 20
-76.43469035725218
 10
96.94322330470337
 20
-76.45927669529664
 10
96.96780964274782
 20
-76.4808383350728
 10
96.995
 20
-76.4990063509461
 10
97.02432914190874
 20
-76.51346988312783
 10
97.05529523872437
 20
-76.52398145657227
 10
97.087368451945
 20
-76.53036121534345
 10
97.12
 20
-76.5325
 10
110.62
 20
-76.5325
 10
110.65263154805501
 20
-76.53036121534345
 10
110.68470476127564
 20
-76.52398145657227
 10
110.71567085809127
 20
-76.51346988312783
 10
110.745
 20
-76.4990063509461
 10
110.77219035725219
 20
-76.4808383350728
 10
110.79677669529664
 20
-76.45927669529664
 10
110.81833833507281
 20
-76.43469035725218
 10
110.83650635094611
 20
-76.4075
 10
110.85096988312783
 20
-76.37817085809127
 10
110.86148145657228
 20
-76.34720476127563
 10
110.86786121534345
 20
-76.315131548055
 10
110.87
 20
-76.2825
 10
110.87
 20
-62.7825
 10
110.86786121534345
 20
-62.749868451944984
 10
110.86148145657228
 20
-62.71779523872437
 10
110.85096988312783
 20
-62.686829141908724
 10
110.83650635094611
 20
-62.6575
 10
110.81833833507281
 20
-62.63030964274782
 10
110.79677669529664
 20
-62.60572330470336
 10
110.77219035725219
 20
-62.58416166492719
 10
110.745
 20
-62.56599364905389
 10
110.71567085809127
 20
-62.55153011687218
 10
110.68470476127564
 20
-62.54101854342773
 10
110.65263154805501
 20
-62.53463878465654
  0
LWPOLYLINE
  5
4B
330
17
100
AcDbEntity
  8
SWITCH_CUTOUT
100
AcDbPolyline
 90
52
 70
1
 10
91.57
 20
-66.3425
 10
78.07
 20
-66.3425
 10
78.03736845194499
 20
-66.34463878465655
 10
78.00529523872436
 20
-66.35101854342773
 10
77.97432914190873
 20
-66.36153011687217
 10
77.945
 20
-66.3759936490539
 10
77.91780964274781
 20
-66.3941616649272
 10
77.89322330470335
 20
-66.41572330470336
 10
77.87166166492719
 20
-66.44030964274782
 10
77.85349364905389
 20
-66.4675
 10
77.83903011687217
 20
-66.49682914190873
 10
77.82851854342772
 20
-66.52779523872437
 10
77.82213878465654
 20
-66.559868451945
 10
77.82
 20
-66.5925
 10
77.82
 20
-80.0925
 10
77.82213878465654
 20
-80.12513154805501
 10
77.82851854342772
 20
-80.15720476127564
 10
77.83903011687217
 20
-80.18817085809127
 10
77.85349364905389
 20
-80.2175
 10
77.87166166492719
 20
-80.24469035725218
 10
77.89322330470335
 20
-80.26927669529664
 10
77.91780964274781
 20
-80.2908383350728
 10
77.945
 20
-80.3090063509461
 10
77.97432914190873
 20
-80.32346988312783
 10
78.00529523872436
 20
-80.33398145657227
 10
78.03736845194499
 20
-80.34036121534345
 10
78.07
 20
-80.3425
 10
91.57
 20
-80.3425
 10
91.602631548055
 20
-80.34036121534345
 10
91.63470476127563
 20
-80.33398145657227
 10
91.66567085809126
 20
-80.32346988312783
 10
91.695
 20
-80.3090063509461
 10
91.72219035725217
 20
-80.2908383350728
 10
91.74677669529663
 20
-80.26927669529664
 10
91.7683383350728
 20
-80.24469035725218
 10
91.7865063509461
 20
-80.2175
 10
91.80096988312782
 20
-80.18817085809127
 10
91.81148145657227
 20
-80.15720476127564
 10
91.81786121534344
 20
-80.12513154805501
 10
91.82
 20
-80.0925
 10
91.82
 20
-66.5925
 10
91.81786121534344
 20
-66.559868451945
 10
91.81148145657227
 20
-66.52779523872437
 10
91.80096988312782
 20
-66.49682914190873
 10
91.7865063509461
 20
-66.4675
 10
91.7683383350728
 20
-66.44030964274782
 10
91.74677669529663
 20
-66.41572330470336
 10
91.72219035725217
 20
-66.3941616649272
 10
91.695
 20
-66.3759936490539
 10
91.66567085809126
 20
-66.36153011687217
 10
91.63470476127563
 20
-66.35101854342773
 10
91.602631548055
 20
-66.34463878465655
  0
LWPOLYLINE
  5
4C
330
17
100
AcDbEntity
  8
SWITCH_CUTOUT
100
AcDbPolyline
 90
52
 70
1
 10
186.82
 20
-88.25
 10
173.32
 20
-88.25
 10
173.28736845194499
 20
-88.25213878465655
 10
173.25529523872436
 20
-88.25851854342773
 10
173.22432914190873
 20
-88.26903011687217
 10
173.195
 20
-88.2834936490539
 10
173.1678096427478
 20
-88.3016616649272
 10
173.14322330470335
 20
-88.32322330470336
 10
173.1216616649272
 20
-88.34780964274782
 10
173.1034936490539
 20
-88.375
 10
173.08903011687218
 20
-88.40432914190873
 10
173.07851854342772
 20
-88.43529523872436
 10
173.07213878465654
 20
-88.46736845194499
 10
173.07
 20
-88.5
 10
173.07
 20
-102.0
 10
173.07213878465654
 20
-102.03263154805501
 10
173.07851854342772
 20
-102.06470476127564
 10
173.08903011687218
 20
-102.09567085809127
 10
173.1034936490539
 20
-102.125
 10
173.1216616649272
 20
-102.15219035725218
 10
173.14322330470335
 20
-102.17677669529664
 10
173.1678096427478
 20
-102.1983383350728
 10
173.195
 20
-102.2165063509461
 10
173.22432914190873
 20
-102.23096988312783
 10
173.25529523872436
 20
-102.24148145657227
 10
173.28736845194499
 20
-102.24786121534345
 10
173.32
 20
-102.25
 10
186.82
 20
-102.25
 10
186.852631548055
 20
-102.24786121534345
 10
186.88470476127563
 20
-102.24148145657227
 10
186.91567085809126
 20
-102.23096988312783
 10
186.945
 20
-102.2165063509461
 10
186.97219035725217
 20
-102.1983383350728
 10
186.99677669529663
 20
-102.17677669529664
 10
187.0183383350728
 20
-102.15219035725218
 10
187.0365063509461
 20
-102.125
 10
187.0509698831278
 20
-102.09567085809127
 10
187.06148145657227
 20
-102.06470476127564
 10
187.06786121534344
 20
-102.03263154805501
 10
187.07
 20
-102.0
 10
187.07
 20
-88.5
 10
187.06786121534344
 20
-88.46736845194499
 10
187.06148145657227
 20
-88.43529523872436
 10
187.0509698831278
 20
-88.40432914190873
 10
187.0365063509461
 20
-88.375
 10
187.0183383350728
 20
-88.34780964274782
 10
186.99677669529663
 20
-88.32322330470336
 10
186.97219035725217
 20
-88.3016616649272
 10
186.945
 20
-88.2834936490539
 10
186.91567085809126
 20
-88.26903011687217
 10
186.88470476127563
 20
-88.25851854342773
 10
186.852631548055
 20
-88.25213878465655
  0
LWPOLYLINE
  5
4D
330
17
100
AcDbEntity
  8
SWITCH_CUTOUT
100
AcDbPolyline
 90
52
 70
1
 10
167.77
 20
-88.25
 10
154.27
 20
-88.25
 10
154.237368451945
 20
-88.25213878465655
 10
154.20529523872437
 20
-88.25851854342773
 10
154.17432914190874
 20
-88.26903011687217
 10
154.145
 20
-88.2834936490539
 10
154.11780964274783
 20
-88.3016616649272
 10
154.09322330470337
 20
-88.32322330470336
 10
154.0716616649272
 20
-88.34780964274782
 10
154.0534936490539
 20
-88.375
 10
154.0390301168722
 20
-88.40432914190873
 10
154.02851854342774
 20
-88.43529523872436
 10
154.02213878465656
 20
-88.46736845194499
 10
154.02
 20
-88.5
 10
154.02
 20
-102.0
 10
154.02213878465656
 20
-102.03263154805501
 10
154.02851854342774
 20
-102.06470476127564
 10
154.0390301168722
 20
-102.09567085809127
 10
154.0534936490539
 20
-102.125
 10
154.0716616649272
 20
-102.15219035725218
 10
154.09322330470337
 20
-102.17677669529664
 10
154.11780964274783
 20
-102.1983383350728
 10
154.145
 20
-102.2165063509461
 10
154.17432914190874
 20
-102.23096988312783
 10
154.20529523872437
 20
-102.24148145657227
 10
154.237368451945
 20
-102.24786121534345
 10
154.27
 20
-102.25
 10
167.77
 20
-102.25
 10
167.80263154805502
 20
-102.24786121534345
 10
167.83470476127565
 20
-102.24148145657227
 10
167.86567085809128
 20
-102.23096988312783
 10
167.895
 20
-102.2165063509461
 10
167.9221903572522
 20
-102.1983383350728
 10
167.94677669529665
 20
-102.17677669529664
 10
167.96833833507281
 20
-102.15219035725218
 10
167.98650635094612
 20
-102.125
 10
168.00096988312782
 20
-102.09567085809127
 10
168.01148145657228
 20
-102.06470476127564
 10
168.01786121534346
 20
-102.03263154805501
 10
168.02
 20
-102.0
 10
168.02
 20
-88.5
 10
168.01786121534346
 20
-88.46736845194499
 10
168.01148145657228
 20
-88.43529523872436
 10
168.00096988312782
 20
-88.40432914190873
 10
167.98650635094612
 20
-88.375
 10
167.96833833507281
 20
-88.34780964274782
 10
167.94677669529665
 20
-88.32322330470336
 10
167.9221903572522
 20
-88.3016616649272
 10
167.895
 20
-88.2834936490539
 10
167.86567085809128
 20
-88.26903011687217
 10
167.83470476127565
 20
-88.25851854342773
 10
167.80263154805502
 20
-88.25213878465655
  0
LWPOLYLINE
  5
4E
330
17
100
AcDbEntity
  8
SWITCH_CUTOUT
100
AcDbPolyline
 90
52
 70
1
 10
148.72
 20
-80.63
 10
135.22
 20
-80.63
 10
135.187368451945
 20
-80.63213878465655
 10
135.15529523872436
 20
-80.63851854342772
 10
135.12432914190873
 20
-80.64903011687217
 10
135.095
 20
-80.66349364905389
 10
135.06780964274782
 20
-80.68166166492719
 10
135.04322330470336
 20
-80.70322330470336
 10
135.0216616649272
 20
-80.72780964274781
 10
135.0034936490539
 20
-80.755
 10
134.9890301168722
 20
-80.78432914190873
 10
134.97851854342773
 20
-80.81529523872436
 10
134.97213878465655
 20
-80.84736845194499
 10
134.97
 20
-80.88
 10
134.97
 20
-94.38
 10
134.97213878465655
 20
-94.412631548055
 10
134.97851854342773
 20
-94.44470476127563
 10
134.9890301168722
 20
-94.47567085809126
 10
135.0034936490539
 20
-94.505
 10
135.0216616649272
 20
-94.53219035725218
 10
135.04322330470336
 20
-94.55677669529663
 10
135.06780964274782
 20
-94.5783383350728
 10
135.095
 20
-94.5965063509461
 10
135.12432914190873
 20
-94.61096988312782
 10
135.15529523872436
 20
-94.62148145657227
 10
135.187368451945
 20
-94.62786121534344
 10
135.22
 20
-94.63
 10
148.72
 20
-94.63
 10
148.752631548055
 20
-94.62786121534344
 10
148.78470476127563
 20
-94.62148145657227
 10
148.81567085809127
 20
-94.61096988312782
 10
148.845
 20
-94.5965063509461
 10
148.87219035725218
 20
-94.5783383350728
 10
148.89677669529664
 20
-94.55677669529663
 10
148.9183383350728
 20
-94.53219035725218
 10
148.9365063509461
 20
-94.505
 10
148.9509698831278
 20
-94.47567085809126
 10
148.96148145657227
 20
-94.44470476127563
 10
148.96786121534345
 20
-94.412631548055
 10
148.97
 20
-94.38
 10
148.97
 20
-80.88
 10
148.96786121534345
 20
-80.84736845194499
 10
148.96148145657227
 20
-80.81529523872436
 10
148.9509698831278
 20
-80.78432914190873
 10
148.9365063509461
 20
-80.755
 10
148.9183383350728
 20
-80.72780964274781
 10
148.89677669529664
 20
-80.70322330470336
 10
148.87219035725218
 20
-80.68166166492719
 10
148.845
 20
-80.66349364905389
 10
148.81567085809127
 20
-80.64903011687217
 10
148.78470476127563
 20
-80.63851854342772
 10
148.752631548055
 20
-80.63213878465655
  0
LWPOLYLINE
  5
4F
330
17
100
AcDbEntity
  8
SWITCH_CUTOUT
100
AcDbPolyline
 90
52
 70
1
 10
129.67000000000002
 20
-78.725
 10
116.17
 20
-78.725
 10
116.137368451945
 20
-78.72713878465655
 10
116.10529523872437
 20
-78.73351854342772
 10
116.07432914190873
 20
-78.74403011687217
 10
116.045
 20
-78.75849364905389
 10
116.01780964274782
 20
-78.77666166492719
 10
115.99322330470336
 20
-78.79822330470336
 10
115.9716616649272
 20
-78.82280964274781
 10
115.9534936490539
 20
-78.85
 10
115.93903011687217
 20
-78.87932914190873
 10
115.92851854342773
 20
-78.91029523872436
 10
115.92213878465655
 20
-78.94236845194499
 10
115.92
 20
-78.975
 10
115.92
 20
-92.475
 10
115.92213878465655
 20
-92.507631548055
 10
115.92851854342773
 20
-92.53970476127563
 10
115.93903011687217
 20
-92.57067085809126
 10
115.9534936490539
 20
-92.6
 10
115.9716616649272
 20
-92.62719035725218
 10
115.99322330470336
 20
-92.65177669529663
 10
116.01780964274782
 20
-92.6733383350728
 10
116.045
 20
-92.6915063509461
 10
116.07432914190873
 20
-92.70596988312782
 10
116.10529523872437
 20
-92.71648145657227
 10
116.137368451945
 20
-92.72286121534344
 10
116.17
 20
-92.725
 10
129.67000000000002
 20
-92.725
 10
129.70263154805502
 20
-92.72286121534344
 10
129.73470476127562
 20
-92.71648145657227
 10
129.76567085809128
 20
-92.70596988312782
 10
129.79500000000002
 20
-92.6915063509461
 10
129.82219035725217
 20
-92.6733383350728
 10
129.84677669529663
 20
-92.65177669529663
 10
129.86833833507282
 20
-92.62719035725218
 10
129.88650635094612
 20
-92.6
 10
129.90096988312783
 20
-92.57067085809126
 10
129.91148145657226
 20
-92.53970476127563
 10
129.91786121534346
 20
-92.507631548055
 10
129.92000000000002
 20
-92.475
 10
129.92000000000002
 20
-78.975
 10
129.91786121534346
 20
-78.94236845194499
 10
129.91148145657226
 20
-78.91029523872436
 10
129.90096988312783
 20
-78.87932914190873
 10
129.88650635094612
 20
-78.85
 10
129.86833833507282
 20
-78.82280964274781
 10
129.84677669529663
 20
-78.79822330470336
 10
129.82219035725217
 20
-78.77666166492719
 10
129.79500000000002
 20
-78.75849364905389
 10
129.76567085809128
 20
-78.74403011687217
 10
129.73470476127562
 20
-78.73351854342772
 10
129.70263154805502
 20
-78.72713878465655
  0
LWPOLYLINE
  5
50
330
17
100
AcDbEntity
  8
SWITCH_CUTOUT
100
AcDbPolyline
 90
52
 70
1
 10
110.62
 20
-81.5825
 10
97.12
 20
-81.5825
 10
97.087368451945
 20
-81.58463878465655
 10
97.05529523872437
 20
-81.59101854342772
 10
97.02432914190874
 20
-81.60153011687217
 10
96.995
 20
-81.61599364905389
 10
96.96780964274782
 20
-81.63416166492719
 10
96.94322330470337
 20
-81.65572330470336
 10
96.9216616649272
 20
-81.68030964274782
 10
96.9034936490539
 20
-81.7075
 10
96.88903011687218
 20
-81.73682914190873
 10
96.87851854342773
 20
-81.76779523872436
 10
96.87213878465656
 20
-81.79986845194499
 10
96.87
 20
-81.8325
 10
96.87
 20
-95.3325
 10
96.87213878465656
 20
-95.365131548055
 10
96.87851854342773
 20
-95.39720476127563
 10
96.88903011687218
 20
-95.42817085809126
 10
96.9034936490539
 20
-95.4575
 10
96.9216616649272
 20
-95.48469035725218
 10
96.94322330470337
 20
-95.50927669529663
 10
96.96780964274782
 20
-95.5308383350728
 10
96.995
 20
-95.5490063509461
 10
97.02432914190874
 20
-95.56346988312782
 10
97.05529523872437
 20
-95.57398145657227
 10
97.087368451945
 20
-95.58036121534344
 10
97.12
 20
-95.5825
 10
110.62
 20
-95.5825
 10
110.65263154805501
 20
-95.58036121534344
 10
110.68470476127564
 20
-95.57398145657227
 10
110.71567085809127
 20
-95.56346988312782
 10
110.745
 20
-95.5490063509461
 10
110.77219035725219
 20
-95.5308383350728
 10
110.79677669529664
 20
-95.50927669529663
 10
110.81833833507281
 20
-95.48469035725218
 10
110.83650635094611
 20
-95.4575
 10
110.85096988312783
 20
-95.42817085809126
 10
110.86148145657228
 20
-95.39720476127563
 10
110.86786121534345
 20
-95.365131548055
 10
110.87
 20
-95.3325
 10
110.87
 20
-81.8325
 10
110.86786121534345
 20
-81.79986845194499
 10
110.86148145657228
 20
-81.76779523872436
 10
110.85096988312783
 20
-81.73682914190873
 10
110.83650635094611
 20
-81.7075
 10
110.81833833507281
 20
-81.68030964274782
 10
110.79677669529664
 20
-81.65572330470336
 10
110.77219035725219
 20
-81.63416166492719
 10
110.745
 20
-81.61599364905389
 10
110.71567085809127
 20
-81.60153011687217
 10
110.68470476127564
 20
-81.59101854342772
 10
110.65263154805501
 20
-81.58463878465655
  0
LWPOLYLINE
  5
51
330
17
100
AcDbEntity
  8
SWITCH_CUTOUT
100
AcDbPolyline
 90
52
 70
1
 10
91.57
 20
-85.3925
 10
78.07
 20
-85.3925
 10
78.03736845194499
 20
-85.39463878465655
 10
78.00529523872436
 20
-85.40101854342772
 10
77.97432914190873
 20
-85.41153011687217
 10
77.945
 20
-85.4259936490539
 10
77.91780964274781
 20
-85.4441616649272
 10
77.89322330470335
 20
-85.46572330470336
 10
77.87166166492719
 20
-85.49030964274782
 10
77.85349364905389
 20
-85.5175
 10
77.83903011687217
 20
-85.54682914190873
 10
77.82851854342772
 20
-85.57779523872436
 10
77.82213878465654
 20
-85.60986845194499
 10
77.82
 20
-85.6425
 10
77.82
 20
-99.1425
 10
77.82213878465654
 20
-99.175131548055
 10
77.82851854342772
 20
-99.20720476127563
 10
77.83903011687217
 20
-99.23817085809127
 10
77.85349364905389
 20
-99.2675
 10
77.87166166492719
 20
-99.29469035725218
 10
77.89322330470335
 20
-99.31927669529664
 10
77.91780964274781
 20
-99.3408383350728
 10
77.945
 20
-99.3590063509461
 10
77.97432914190873
 20
-99.37346988312783
 10
78.00529523872436
 20
-99.38398145657227
 10
78.03736845194499
 20
-99.39036121534345
 10
78.07
 20
-99.3925
 10
91.57
 20
-99.3925
 10
91.602631548055
 20
-99.39036121534345
 10
91.63470476127563
 20
-99.38398145657227
 10
91.66567085809126
 20
-99.37346988312783
 10
91.695
 20
-99.3590063509461
 10
91.72219035725217
 20
-99.3408383350728
 10
91.74677669529663
 20
-99.31927669529664
 10
91.7683383350728
 20
-99.29469035725218
 10
91.7865063509461
 20
-99.2675
 10
91.80096988312782
 20
-99.23817085809127
 10
91.81148145657227
 20
-99.20720476127563
 10
91.81786121534344
 20
-99.175131548055
 10
91.82
 20
-99.1425
 10
91.82
 20
-85.6425
 10
91.81786121534344
 20
-85.60986845194499
 10
91.81148145657227
 20
-85.57779523872436
 10
91.80096988312782
 20
-85.54682914190873
 10
91.7865063509461
 20
-85.5175
 10
91.7683383350728
 20
-85.49030964274782
 10
91.74677669529663
 20
-85.46572330470336
 10
91.72219035725217
 20
-85.4441616649272
 10
91.695
 20
-85.4259936490539
 10
91.66567085809126
 20
-85.41153011687217
 10
91.63470476127563
 20
-85.40101854342772
 10
91.602631548055
 20
-85.39463878465655
  0
LWPOLYLINE
  5
52
330
17
100
AcDbEntity
  8
SWITCH_CUTOUT
100
AcDbPolyline
 90
52
 70
1
 10
98.23826601173357
 20
-103.44799066153452
 10
85.19826735683114
 20
-106.94204777041854
 10
85.1673012600155
 20
-106.95255934386299
 10
85.13797211810677
 20
-106.9670228760447
 10
85.1107817608546
 20
-106.985190891918
 10
85.08619542281014
 20
-107.00675253169418
 10
85.06463378303397
 20
-107.03133886973863
 10
85.04646576716067
 20
-107.05852922699081
 10
85.03200223497896
 20
-107.08785836889953
 10
85.0214906615345
 20
-107.11882446571518
 10
85.01511090276333
 20
-107.15089767893579
 10
85.01297211810677
 20
-107.18352922699081
 10
85.01511090276333
 20
-107.21616077504582
 10
85.02149066153451
 20
-107.24823398826643
 10
88.51554777041854
 20
-120.28823264316887
 10
88.52605934386298
 20
-120.3191987399845
 10
88.54052287604469
 20
-120.34852788189323
 10
88.55869089191799
 20
-120.37571823914541
 10
88.58025253169417
 20
-120.40030457718987
 10
88.60483886973863
 20
-120.42186621696604
 10
88.63202922699081
 20
-120.44003423283934
 10
88.66135836889953
 20
-120.45449776502105
 10
88.69232446571517
 20
-120.4650093384655
 10
88.72439767893579
 20
-120.47138909723668
 10
88.75702922699081
 20
-120.47352788189323
 10
88.78966077504582
 20
-120.47138909723668
 10
88.82173398826643
 20
-120.46500933846549
 10
101.86173264316886
 20
-116.97095222958147
 10
101.8926987399845
 20
-116.96044065613702
 10
101.92202788189323
 20
-116.94597712395532
 10
101.94921823914541
 20
-116.92780910808202
 10
101.97380457718987
 20
-116.90624746830584
 10
101.99536621696603
 20
-116.88166113026138
 10
102.01353423283933
 20
-116.8544707730092
 10
102.02799776502104
 20
-116.82514163110048
 10
102.0385093384655
 20
-116.79417553428483
 10
102.04488909723668
 20
-116.76210232106422
 10
102.04702788189323
 20
-116.7294707730092
 10
102.04488909723668
 20
-116.69683922495419
 10
102.03850933846549
 20
-116.66476601173358
 10
98.54445222958147
 20
-103.62476735683114
 10
98.53394065613702
 20
-103.59380126001551
 10
98.51947712395531
 20
-103.56447211810678
 10
98.50130910808201
 20
-103.5372817608546
 10
98.47974746830583
 20
-103.51269542281014
 10
98.45516113026137
 20
-103.49113378303397
 10
98.42797077300919
 20
-103.47296576716067
 10
98.39864163110047
 20
-103.45850223497897
 10
98.36767553428483
 20
-103.4479906615345
 10
98.33560232106421
 20
-103.44161090276333
 10
98.30297077300919
 20
-103.43947211810678
 10
98.27033922495418
 20
-103.44161090276333
  0
LWPOLYLINE
  5
53
330
17
100
AcDbEntity
  8
SWITCH_CUTOUT
100
AcDbPolyline
 90
52
 70
1
 10
77.90757081789555
 20
-109.41684110395664
 10
65.43519712899318
 20
-114.58306744088536
 10
65.40586798708446
 20
-114.59753097306707
 10
65.37867762983228
 20
-114.61569898894037
 10
65.35409129178782
 20
-114.63726062871653
 10
65.33252965201164
 20
-114.66184696676099
 10
65.31436163613834
 20
-114.68903732401317
 10
65.29989810395664
 20
-114.7183664659219
 10
65.28938653051219
 20
-114.74933256273755
 10
65.283006771741
 20
-114.78140577595816
 10
65.28086798708446
 20
-114.81403732401317
 10
65.283006771741
 20
-114.8466688720682
 10
65.28938653051219
 20
-114.8787420852888
 10
65.29989810395664
 20
-114.90970818210445
 10
70.46612444088535
 20
-127.38208187100682
 10
70.48058797306706
 20
-127.41141101291555
 10
70.49875598894036
 20
-127.43860137016773
 10
70.52031762871653
 20
-127.46318770821219
 10
70.54490396676098
 20
-127.48474934798836
 10
70.57209432401316
 20
-127.50291736386166
 10
70.6014234659219
 20
-127.51738089604336
 10
70.63238956273754
 20
-127.52789246948781
 10
70.66446277595816
 20
-127.534272228259
 10
70.69709432401316
 20
-127.53641101291555
 10
70.72972587206819
 20
-127.534272228259
 10
70.7617990852888
 20
-127.52789246948781
 10
70.79276518210445
 20
-127.51738089604336
 10
83.26513887100681
 20
-122.35115455911465
 10
83.29446801291553
 20
-122.33669102693294
 10
83.32165837016771
 20
-122.31852301105964
 10
83.34624470821217
 20
-122.29696137128347
 10
83.36780634798835
 20
-122.27237503323902
 10
83.38597436386165
 20
-122.24518467598683
 10
83.40043789604336
 20
-122.2158555340781
 10
83.4109494694878
 20
-122.18488943726246
 10
83.41732922825899
 20
-122.15281622404184
 10
83.41946801291553
 20
-122.12018467598683
 10
83.41732922825899
 20
-122.08755312793181
 10
83.4109494694878
 20
-122.0554799147112
 10
83.40043789604336
 20
-122.02451381789555
 10
78.23421155911464
 20
-109.55214012899319
 10
78.21974802693293
 20
-109.52281098708445
 10
78.20158001105963
 20
-109.49562062983227
 10
78.18001837128347
 20
-109.47103429178782
 10
78.15543203323901
 20
-109.44947265201165
 10
78.12824167598683
 20
-109.43130463613835
 10
78.0989125340781
 20
-109.41684110395664
 10
78.06794643726245
 20
-109.4063295305122
 10
78.03587322404184
 20
-109.399949771741
 10
78.00324167598683
 20
-109.39781098708445
 10
77.9706101279318
 20
-109.399949771741
 10
77.9385369147112
 20
-109.4063295305122
  0
LWPOLYLINE
  5
54
330
17
100
AcDbEntity
  8
SWITCH_CUTOUT
100
AcDbPolyline
 90
52
 70
1
 10
72.52
 20
-81.5825
 10
59.019999999999996
 20
-81.5825
 10
58.98736845194498
 20
-81.58463878465655
 10
58.95529523872437
 20
-81.59101854342772
 10
58.92432914190872
 20
-81.60153011687217
 10
58.894999999999996
 20
-81.61599364905389
 10
58.867809642747815
 20
-81.63416166492719
 10
58.84322330470336
 20
-81.65572330470336
 10
58.821661664927184
 20
-81.68030964274782
 10
58.803493649053884
 20
-81.7075
 10
58.789030116872176
 20
-81.73682914190873
 10
58.77851854342773
 20
-81.76779523872436
 10
58.77213878465654
 20
-81.79986845194499
 10
58.769999999999996
 20
-81.8325
 10
58.769999999999996
 20
-95.3325
 10
58.77213878465654
 20
-95.365131548055
 10
58.77851854342773
 20
-95.39720476127563
 10
58.789030116872176
 20
-95.42817085809126
 10
58.803493649053884
 20
-95.4575
 10
58.821661664927184
 20
-95.48469035725218
 10
58.84322330470336
 20
-95.50927669529663
 10
58.867809642747815
 20
-95.5308383350728
 10
58.894999999999996
 20
-95.5490063509461
 10
58.92432914190872
 20
-95.56346988312782
 10
58.95529523872437
 20
-95.57398145657227
 10
58.98736845194498
 20
-95.58036121534344
 10
59.019999999999996
 20
-95.5825
 10
72.52
 20
-95.5825
 10
72.552631548055
 20
-95.58036121534344
 10
72.58470476127563
 20
-95.57398145657227
 10
72.61567085809126
 20
-95.56346988312782
 10
72.645
 20
-95.5490063509461
 10
72.67219035725218
 20
-95.5308383350728
 10
72.69677669529663
 20
-95.50927669529663
 10
72.7183383350728
 20
-95.48469035725218
 10
72.7365063509461
 20
-95.4575
 10
72.75096988312782
 20
-95.42817085809126
 10
72.76148145657227
 20
-95.39720476127563
 10
72.76786121534344
 20
-95.365131548055
 10
72.77
 20
-95.3325
 10
72.77
 20
-81.8325
 10
72.76786121534344
 20
-81.79986845194499
 10
72.76148145657227
 20
-81.76779523872436
 10
72.75096988312782
 20
-81.73682914190873
 10
72.7365063509461
 20
-81.7075
 10
72.7183383350728
 20
-81.68030964274782
 10
72.69677669529663
 20
-81.65572330470336
 10
72.67219035725218
 20
-81.63416166492719
 10
72.645
 20
-81.61599364905389
 10
72.61567085809126
 20
-81.60153011687217
 10
72.58470476127563
 20
-81.59101854342772
 10
72.552631548055
 20
-81.58463878465655
  0
LWPOLYLINE
  5
55
330
17
100
AcDbEntity
  8
SWITCH_CUTOUT
100
AcDbPolyline
 90
52
 70
1
 10
72.52
 20
-62.5325
 10
59.019999999999996
 20
-62.5325
 10
58.98736845194498
 20
-62.53463878465654
 10
58.95529523872437
 20
-62.54101854342773
 10
58.92432914190872
 20
-62.55153011687218
 10
58.894999999999996
 20
-62.56599364905389
 10
58.867809642747815
 20
-62.58416166492719
 10
58.84322330470336
 20
-62.60572330470336
 10
58.821661664927184
 20
-62.63030964274782
 10
58.803493649053884
 20
-62.6575
 10
58.789030116872176
 20
-62.686829141908724
 10
58.77851854342773
 20
-62.71779523872437
 10
58.77213878465654
 20
-62.749868451944984
 10
58.769999999999996
 20
-62.7825
 10
58.769999999999996
 20
-76.2825
 10
58.77213878465654
 20
-76.315131548055
 10
58.77851854342773
 20
-76.34720476127563
 10
58.789030116872176
 20
-76.37817085809127
 10
58.803493649053884
 20
-76.4075
 10
58.821661664927184
 20
-76.43469035725218
 10
58.84322330470336
 20
-76.45927669529664
 10
58.867809642747815
 20
-76.4808383350728
 10
58.894999999999996
 20
-76.4990063509461
 10
58.92432914190872
 20
-76.51346988312783
 10
58.95529523872437
 20
-76.52398145657227
 10
58.98736845194498
 20
-76.53036121534345
 10
59.019999999999996
 20
-76.5325
 10
72.52
 20
-76.5325
 10
72.552631548055
 20
-76.53036121534345
 10
72.58470476127563
 20
-76.52398145657227
 10
72.61567085809126
 20
-76.51346988312783
 10
72.645
 20
-76.4990063509461
 10
72.67219035725218
 20
-76.4808383350728
 10
72.69677669529663
 20
-76.45927669529664
 10
72.7183383350728
 20
-76.43469035725218
 10
72.7365063509461
 20
-76.4075
 10
72.75096988312782
 20
-76.37817085809127
 10
72.76148145657227
 20
-76.34720476127563
 10
72.76786121534344
 20
-76.315131548055
 10
72.77
 20
-76.2825
 10
72.77
 20
-62.7825
 10
72.76786121534344
 20
-62.749868451944984
 10
72.76148145657227
 20
-62.71779523872437
 10
72.75096988312782
 20
-62.686829141908724
 10
72.7365063509461
 20
-62.6575
 10
72.7183383350728
 20
-62.63030964274782
 10
72.69677669529663
 20
-62.60572330470336
 10
72.67219035725218
 20
-62.58416166492719
 10
72.645
 20
-62.56599364905389
 10
72.61567085809126
 20
-62.55153011687218
 10
72.58470476127563
 20
-62.54101854342773
 10
72.552631548055
 20
-62.53463878465654
  0
ENDSEC
  0
SECTION
  2
OBJECTS
  0
DICTIONARY
  5
A
330
0
100
AcDbDictionary
281
1
  3
ACAD_COLOR
350
B
  3
ACAD_GROUP
350
C
  3
ACAD_LAYOUT
350
D
  3
ACAD_MATERIAL
350
E
  3
ACAD_MLEADERSTYLE
350
F
  3
ACAD_MLINESTYLE
350
10
  3
ACAD_PLOTSETTINGS
350
11
  3
ACAD_PLOTSTYLENAME
350
12
  3
ACAD_SCALELIST
350
14
  3
ACAD_TABLESTYLE
350
15
  3
ACAD_VISUALSTYLE
350
16
  3
EZDXF_META
350
2D
  0
DICTIONARY
  5
B
330
A
100
AcDbDictionary
281
1
  0
DICTIONARY
  5
C
330
A
100
AcDbDictionary
281
1
  0
DICTIONARY
  5
D
330
A
100
AcDbDictionary
281
1
  3
Model
350
1A
  3
Layout1
350
1E
  0
DICTIONARY
  5
E
330
A
100
AcDbDictionary
281
1
  3
ByBlock
350
1F
  3
ByLayer
350
20
  3
Global
350
21
  0
DICTIONARY
  5
F
330
A
100
AcDbDictionary
281
1
  3
Standard
350
2C
  0
DICTIONARY
  5
10
330
A
100
AcDbDictionary
281
1
  3
Standard
350
22
  0
DICTIONARY
  5
11
330
A
100
AcDbDictionary
281
1
  0
ACDBDICTIONARYWDFLT
  5
12
330
A
100
AcDbDictionary
281
1
  3
Normal
350
13
100
AcDbDictionaryWithDefault
340
13
  0
ACDBPLACEHOLDER
  5
13
330
12
  0
DICTIONARY
  5
14
330
A
100
AcDbDictionary
281
1
  0
DICTIONARY
  5
15
330
A
100
AcDbDictionary
281
1
  0
DICTIONARY
  5
16
330
A
100
AcDbDictionary
281
1
  0
LAYOUT
  5
1A
330
D
100
AcDbPlotSettings
  1

  4
A3
  6

 40
7.5
 41
20.0
 42
7.5
 43
20.0
 44
420.0
 45
297.0
 46
0.0
 47
0.0
 48
0.0
 49
0.0
140
0.0
141
0.0
142
1.0
143
1.0
 70
1024
 72
1
 73
0
 74
5
  7

 75
16
 76
0
 77
2
 78
300
147
1.0
148
0.0
149
0.0
100
AcDbLayout
  1
Model
 70
1
 71
0
 10
0.0
 20
0.0
 11
420.0
 21
297.0
 12
0.0
 22
0.0
 32
0.0
 14
1e+20
 24
1e+20
 34
1e+20
 15
-1e+20
 25
-1e+20
 35
-1e+20
146
0.0
 13
0.0
 23
0.0
 33
0.0
 16
1.0
 26
0.0
 36
0.0
 17
0.0
 27
1.0
 37
0.0
 76
1
330
17
  0
LAYOUT
  5
1E
330
D
100
AcDbPlotSettings
  1

  4
A3
  6

 40
7.5
 41
20.0
 42
7.5
 43
20.0
 44
420.0
 45
297.0
 46
0.0
 47
0.0
 48
0.0
 49
0.0
140
0.0
141
0.0
142
1.0
143
1.0
 70
0
 72
1
 73
0
 74
5
  7

 75
16
 76
0
 77
2
 78
300
147
1.0
148
0.0
149
0.0
100
AcDbLayout
  1
Layout1
 70
1
 71
1
 10
0.0
 20
0.0
 11
420.0
 21
297.0
 12
0.0
 22
0.0
 32
0.0
 14
1e+20
 24
1e+20
 34
1e+20
 15
-1e+20
 25
-1e+20
 35
-1e+20
146
0.0
 13
0.0
 23
0.0
 33
0.0
 16
1.0
 26
0.0
 36
0.0
 17
0.0
 27
1.0
 37
0.0
 76
1
330
1B
  0
MATERIAL
  5
1F
102
{ACAD_REACTORS
330
E
102
}
330
E
100
AcDbMaterial
  1
ByBlock
  2

 70
0
 40
1.0
 71
1
 41
1.0
 91
-1023410177
 42
1.0
 72
1
  3

 73
1
 74
1
 75
1
 44
0.5
 73
0
 45
1.0
 46
1.0
 77
1
  4

 78
1
 79
1
170
1
 48
1.0
171
1
  6

172
1
173
1
174
1
140
1.0
141
1.0
175
1
  7

176
1
177
1
178
1
143
1.0
179
1
  8

270
1
271
1
272
1
145
1.0
146
1.0
273
1
  9

274
1
275
1
276
1
 42
1.0
 72
1
  3

 73
1
 74
1
 75
1
 94
63
  0
MATERIAL
  5
20
102
{ACAD_REACTORS
330
E
102
}
330
E
100
AcDbMaterial
  1
ByLayer
  2

 70
0
 40
1.0
 71
1
 41
1.0
 91
-1023410177
 42
1.0
 72
1
  3

 73
1
 74
1
 75
1
 44
0.5
 73
0
 45
1.0
 46
1.0
 77
1
  4

 78
1
 79
1
170
1
 48
1.0
171
1
  6

172
1
173
1
174
1
140
1.0
141
1.0
175
1
  7

176
1
177
1
178
1
143
1.0
179
1
  8

270
1
271
1
272
1
145
1.0
146
1.0
273
1
  9

274
1
275
1
276
1
 42
1.0
 72
1
  3

 73
1
 74
1
 75
1
 94
63
  0
MATERIAL
  5
21
102
{ACAD_REACTORS
330
E
102
}
330
E
100
AcDbMaterial
  1
Global
  2

 70
0
 40
1.0
 71
1
 41
1.0
 91
-1023410177
 42
1.0
 72
1
  3

 73
1
 74
1
 75
1
 44
0.5
 73
0
 45
1.0
 46
1.0
 77
1
  4

 78
1
 79
1
170
1
 48
1.0
171
1
  6

172
1
173
1
174
1
140
1.0
141
1.0
175
1
  7

176
1
177
1
178
1
143
1.0
179
1
  8

270
1
271
1
272
1
145
1.0
146
1.0
273
1
  9

274
1
275
1
276
1
 42
1.0
 72
1
  3

 73
1
 74
1
 75
1
 94
63
  0
MLINESTYLE
  5
22
102
{ACAD_REACTORS
330
10
102
}
330
10
100
AcDbMlineStyle
  2
Standard
 70
0
  3

 62
256
 51
90.0
 52
90.0
 71
2
 49
0.5
 62
256
  6
BYLAYER
 49
-0.5
 62
256
  6
BYLAYER
  0
MLEADERSTYLE
  5
2C
102
{ACAD_REACTORS
330
F
102
}
330
F
100
AcDbMLeaderStyle
179
2
170
2
171
1
172
0
 90
2
 40
0.0
 41
0.0
173
1
 91
-1056964608
 92
-2
290
1
 42
2.0
291
1
 43
8.0
  3
Standard
 44
4.0
300

342
29
174
1
175
1
176
0
178
1
 93
-1056964608
 45
4.0
292
0
297
0
 46
4.0
 94
-1056964608
 47
1.0
 49
1.0
140
1.0
294
1
141
0.0
177
0
142
1.0
295
0
296
0
143
3.75
271
0
272
9
273
9
  0
DICTIONARY
  5
2D
330
A
100
AcDbDictionary
280
1
281
1
  3
CREATED_BY_EZDXF
350
2E
  3
WRITTEN_BY_EZDXF
350
58
  0
DICTIONARYVAR
  5
2E
330
2D
100
DictionaryVariables
280
0
  1
1.4.4 @ 2026-09-13T15:56:34.478760+00:00
  0
DICTIONARYVAR
  5
58
330
2D
100
DictionaryVariables
280
0
  1
1.4.4 @ 2026-09-13T15:56:34.484071+00:00
  0
ENDSEC
  0
EOF
