  0
SECTION
  2
HEADER
  9
$ACADVER
  1
AC1024
  9
$ACADMAINTVER
 70
6
  9
$DWGCODEPAGE
  3
ANSI_1252
  9
$LASTSAVEDBY
  1
ezdxf
  9
$INSBASE
 10
0.0
 20
0.0
 30
0.0
  9
$EXTMIN
 10
1e+20
 20
1e+20
 30
1e+20
  9
$EXTMAX
 10
-1e+20
 20
-1e+20
 30
-1e+20
  9
$LIMMIN
 10
0.0
 20
0.0
  9
$LIMMAX
 10
420.0
 20
297.0
  9
$ORTHOMODE
 70
0
  9
$REGENMODE
 70
1
  9
$FILLMODE
 70
1
  9
$QTEXTMODE
 70
0
  9
$MIRRTEXT
 70
1
  9
$LTSCALE
 40
1.0
  9
$ATTMODE
 70
1
  9
$TEXTSIZE
 40
2.5
  9
$TRACEWID
 40
1.0
  9
$TEXTSTYLE
  7
Standard
  9
$CLAYER
  8
0
  9
$CELTYPE
  6
ByLayer
  9
$CECOLOR
 62
256
  9
$CELTSCALE
 40
1.0
  9
$DISPSILH
 70
0
  9
$DIMSCALE
 40
1.0
  9
$DIMASZ
 40
2.5
  9
$DIMEXO
 40
0.625
  9
$DIMDLI
 40
3.75
  9
$DIMRND
 40
0.0
  9
$DIMDLE
 40
0.0
  9
$DIMEXE
 40
1.25
  9
$DIMTP
 40
0.0
  9
$DIMTM
 40
0.0
  9
$DIMTXT
 40
2.5
  9
$DIMCEN
 40
2.5
  9
$DIMTSZ
 40
0.0
  9
$DIMTOL
 70
0
  9
$DIMLIM
 70
0
  9
$DIMTIH
 70
0
  9
$DIMTOH
 70
0
  9
$DIMSE1
 70
0
  9
$DIMSE2
 70
0
  9
$DIMTAD
 70
1
  9
$DIMZIN
 70
8
  9
$DIMBLK
  1

  9
$DIMASO
 70
1
  9
$DIMSHO
 70
1
  9
$DIMPOST
  1

  9
$DIMAPOST
  1

  9
$DIMALT
 70
0
  9
$DIMALTD
 70
3
  9
$DIMALTF
 40
0.03937007874
  9
$DIMLFAC
 40
1.0
  9
$DIMTOFL
 70
1
  9
$DIMTVP
 40
0.0
  9
$DIMTIX
 70
0
  9
$DIMSOXD
 70
0
  9
$DIMSAH
 70
0
  9
$DIMBLK1
  1

  9
$DIMBLK2
  1

  9
$DIMSTYLE
  2
ISO-25
  9
$DIMCLRD
 70
0
  9
$DIMCLRE
 70
0
  9
$DIMCLRT
 70
0
  9
$DIMTFAC
 40
1.0
  9
$DIMGAP
 40
0.625
  9
$DIMJUST
 70
0
  9
$DIMSD1
 70
0
  9
$DIMSD2
 70
0
  9
$DIMTOLJ
 70
0
  9
$DIMTZIN
 70
8
  9
$DIMALTZ
 70
0
  9
$DIMALTTZ
 70
0
  9
$DIMUPT
 70
0
  9
$DIMDEC
 70
2
  9
$DIMTDEC
 70
2
  9
$DIMALTU
 70
2
  9
$DIMALTTD
 70
3
  9
$DIMTXSTY
  7
Standard
  9
$DIMAUNIT
 70
0
  9
$DIMADEC
 70
0
  9
$DIMALTRND
 40
0.0
  9
$DIMAZIN
 70
0
  9
$DIMDSEP
 70
44
  9
$DIMATFIT
 70
3
  9
$DIMFRAC
 70
0
  9
$DIMLDRBLK
  1

  9
$DIMLUNIT
 70
2
  9
$DIMLWD
 70
-2
  9
$DIMLWE
 70
-2
  9
$DIMTMOVE
 70
0
  9
$DIMFXL
 40
1.0
  9
$DIMFXLON
 70
0
  9
$DIMJOGANG
 40
0.785398163397
  9
$DIMTFILL
 70
0
  9
$DIMTFILLCLR
 70
0
  9
$DIMARCSYM
 70
0
  9
$DIMLTYPE
  6

  9
$DIMLTEX1
  6

  9
$DIMLTEX2
  6

  9
$DIMTXTDIRECTION
 70
0
  9
$LUNITS
 70
2
  9
$LUPREC
 70
4
  9
$SKETCHINC
 40
1.0
  9
$FILLETRAD
 40
10.0
  9
$AUNITS
 70
0
  9
$AUPREC
 70
2
  9
$MENU
  1
.
  9
$ELEVATION
 40
0.0
  9
$PELEVATION
 40
0.0
  9
$THICKNESS
 40
0.0
  9
$LIMCHECK
 70
0
  9
$CHAMFERA
 40
0.0
  9
$CHAMFERB
 40
0.0
  9
$CHAMFERC
 40
0.0
  9
$CHAMFERD
 40
0.0
  9
$SKPOLY
 70
0
  9
$TDCREATE
 40
2461298.0392824076
  9
$TDUCREATE
 40
2458532.153996898
  9
$TDUPDATE
 40
2461298.0392824076
  9
$TDUUPDATE
 40
2458532.1544311
  9
$TDINDWG
 40
0.0
  9
$TDUSRTIMER
 40
0.0
  9
$USRTIMER
 70
1
  9
$ANGBASE
 50
0.0
  9
$ANGDIR
 70
0
  9
$PDMODE
 70
0
  9
$PDSIZE
 40
0.0
  9
$PLINEWID
 40
0.0
  9
$SPLFRAME
 70
0
  9
$SPLINETYPE
 70
6
  9
$SPLINESEGS
 70
8
  9
$HANDSEED
  5
52
  9
$SURFTAB1
 70
6
  9
$SURFTAB2
 70
6
  9
$SURFTYPE
 70
6
  9
$SURFU
 70
6
  9
$SURFV
 70
6
  9
$UCSBASE
  2

  9
$UCSNAME
  2

  9
$UCSORG
 10
0.0
 20
0.0
 30
0.0
  9
$UCSXDIR
 10
1.0
 20
0.0
 30
0.0
  9
$UCSYDIR
 10
0.0
 20
1.0
 30
0.0
  9
$UCSORTHOREF
  2

  9
$UCSORTHOVIEW
 70
0
  9
$UCSORGTOP
 10
0.0
 20
0.0
 30
0.0
  9
$UCSORGBOTTOM
 10
0.0
 20
0.0
 30
0.0
  9
$UCSORGLEFT
 10
0.0
 20
0.0
 30
0.0
  9
$UCSORGRIGHT
 10
0.0
 20
0.0
 30
0.0
  9
$UCSORGFRONT
 10
0.0
 20
0.0
 30
0.0
  9
$UCSORGBACK
 10
0.0
 20
0.0
 30
0.0
  9
$PUCSBASE
  2

  9
$PUCSNAME
  2

  9
$PUCSORG
 10
0.0
 20
0.0
 30
0.0
  9
$PUCSXDIR
 10
1.0
 20
0.0
 30
0.0
  9
$PUCSYDIR
 10
0.0
 20
1.0
 30
0.0
  9
$PUCSORTHOREF
  2

  9
$PUCSORTHOVIEW
 70
0
  9
$PUCSORGTOP
 10
0.0
 20
0.0
 30
0.0
  9
$PUCSORGBOTTOM
 10
0.0
 20
0.0
 30
0.0
  9
$PUCSORGLEFT
 10
0.0
 20
0.0
 30
0.0
  9
$PUCSORGRIGHT
 10
0.0
 20
0.0
 30
0.0
  9
$PUCSORGFRONT
 10
0.0
 20
0.0
 30
0.0
  9
$PUCSORGBACK
 10
0.0
 20
0.0
 30
0.0
  9
$USERI1
 70
0
  9
$USERI2
 70
0
  9
$USERI3
 70
0
  9
$USERI4
 70
0
  9
$USERI5
 70
0
  9
$USERR1
 40
0.0
  9
$USERR2
 40
0.0
  9
$USERR3
 40
0.0
  9
$USERR4
 40
0.0
  9
$USERR5
 40
0.0
  9
$WORLDVIEW
 70
1
  9
$SHADEDGE
 70
3
  9
$SHADEDIF
 70
70
  9
$TILEMODE
 70
1
  9
$MAXACTVP
 70
64
  9
$PINSBASE
 10
0.0
 20
0.0
 30
0.0
  9
$PLIMCHECK
 70
0
  9
$PEXTMIN
 10
1e+20
 20
1e+20
 30
1e+20
  9
$PEXTMAX
 10
-1e+20
 20
-1e+20
 30
-1e+20
  9
$PLIMMIN
 10
0.0
 20
0.0
  9
$PLIMMAX
 10
420.0
 20
297.0
  9
$UNITMODE
 70
0
  9
$VISRETAIN
 70
1
  9
$PLINEGEN
 70
0
  9
$PSLTSCALE
 70
1
  9
$TREEDEPTH
 70
3020
  9
$CMLSTYLE
  2
Standard
  9
$CMLJUST
 70
0
  9
$CMLSCALE
 40
20.0
  9
$PROXYGRAPHICS
 70
1
  9
$MEASUREMENT
 70
1
  9
$CELWEIGHT
370
-1
  9
$ENDCAPS
280
0
  9
$JOINSTYLE
280
0
  9
$LWDISPLAY
290
0
  9
$INSUNITS
 70
4
  9
$HYPERLINKBASE
  1

  9
$STYLESHEET
  1

  9
$XEDIT
290
1
  9
$CEPSNTYPE
380
0
  9
$PSTYLEMODE
290
1
  9
$FINGERPRINTGUID
  2
{B986EAEB-99D6-49D9-87F5-C6D6E5AF5C04}
  9
$VERSIONGUID
  2
{2F184A04-0A4A-46B0-A1E2-9B82DFA72D7E}
  9
$EXTNAMES
290
1
  9
$PSVPSCALE
 40
0.0
  9
$OLESTARTUP
290
0
  9
$SORTENTS
280
127
  9
$INDEXCTL
280
0
  9
$HIDETEXT
280
1
  9
$XCLIPFRAME
280
1
  9
$HALOGAP
280
0
  9
$OBSCOLOR
 70
257
  9
$OBSLTYPE
280
0
  9
$INTERSECTIONDISPLAY
280
0
  9
$INTERSECTIONCOLOR
 70
257
  9
$DIMASSOC
280
2
  9
$PROJECTNAME
  1

  9
$CAMERADISPLAY
290
0
  9
$LENSLENGTH
 40
50.0
  9
$CAMERAHEIGHT
 40
0.0
  9
$STEPSPERSEC
 40
24.0
  9
$STEPSIZE
 40
100.0
  9
$3DDWFPREC
 40
2.0
  9
$PSOLWIDTH
 40
0.005
  9
$PSOLHEIGHT
 40
0.08
  9
$LOFTANG1
 40
1.570796326795
  9
$LOFTANG2
 40
1.570796326795
  9
$LOFTMAG1
 40
0.0
  9
$LOFTMAG2
 40
0.0
  9
$LOFTPARAM
 70
7
  9
$LOFTNORMALS
280
1
  9
$LATITUDE
 40
37.795
  9
$LONGITUDE
 40
-122.394
  9
$NORTHDIRECTION
 40
0.0
  9
$TIMEZONE
 70
-8000
  9
$LIGHTGLYPHDISPLAY
280
1
  9
$TILEMODELIGHTSYNCH
280
1
  9
$CMATERIAL
347
20
  9
$SOLIDHIST
280
0
  9
$SHOWHIST
280
1
  9
$DWFFRAME
280
2
  9
$DGNFRAME
280
2
  9
$REALWORLDSCALE
290
1
  9
$INTERFERECOLOR
 62
256
  9
$CSHADOW
280
0
  9
$SHADOWPLANELOCATION
 40
0.0
  0
ENDSEC
  0
SECTION
  2
CLASSES
  0
CLASS
  1
ACDBDICTIONARYWDFLT
  2
AcDbDictionaryWithDefault
  3
ObjectDBX Classes
 90
0
 91
0
280
0
281
0
  0
CLASS
  1
SUN
  2
AcDbSun
  3
SCENEOE
 90
1153
 91
0
280
0
281
0
  0
CLASS
  1
VISUALSTYLE
  2
AcDbVisualStyle
  3
ObjectDBX Classes
 90
4095
 91
0
280
0
281
0
  0
CLASS
  1
MATERIAL
  2
AcDbMaterial
  3
ObjectDBX Classes
 90
1153
 91
0
280
0
281
0
  0
CLASS
  1
SCALE
  2
AcDbScale
  3
ObjectDBX Classes
 90
1153
 91
0
280
0
281
0
  0
CLASS
  1
TABLESTYLE
  2
AcDbTableStyle
  3
ObjectDBX Classes
 90
4095
 91
0
280
0
281
0
  0
CLASS
  1
MLEADERSTYLE
  2
AcDbMLeaderStyle
  3
ACDB_MLEADERSTYLE_CLASS
 90
4095
 91
0
280
0
281
0
  0
CLASS
  1
DICTIONARYVAR
  2
AcDbDictionaryVar
  3
ObjectDBX Classes
 90
0
 91
0
280
0
281
0
  0
CLASS
  1
CELLSTYLEMAP
  2
AcDbCellStyleMap
  3
ObjectDBX Classes
 90
1152
 91
0
280
0
281
0
  0
CLASS
  1
MENTALRAYRENDERSETTINGS
  2
AcDbMentalRayRenderSettings
  3
SCENEOE
 90
1024
 91
0
280
0
281
0
  0
CLASS
  1
ACDBDETAILVIEWSTYLE
  2
AcDbDetailViewStyle
  3
ObjectDBX Classes
 90
1025
 91
0
280
0
281
0
  0
CLASS
  1
ACDBSECTIONVIEWSTYLE
  2
AcDbSectionViewStyle
  3
ObjectDBX Classes
 90
1025
 91
0
280
0
281
0
  0
CLASS
  1
RASTERVARIABLES
  2
AcDbRasterVariables
  3
ISM
 90
0
 91
0
280
0
281
0
  0
CLASS
  1
LAYOUT
  2
AcDbLayout
  3
ObjectDBX Classes
 90
0
 91
0
280
0
281
0
  0
CLASS
  1
ACDBPLACEHOLDER
  2
AcDbPlaceHolder
  3
ObjectDBX Classes
 90
0
 91
0
280
0
281
0
  0
ENDSEC
  0
SECTION
  2
TABLES
  0
TABLE
  2
VPORT
  5
8
330
0
100
AcDbSymbolTable
 70
1
  0
VPORT
  5
23
330
8
100
AcDbSymbolTableRecord
100
AcDbViewportTableRecord
  2
*Active
 70
0
 10
0.0
 20
0.0
 11
1.0
 21
1.0
 12
0.0
 22
0.0
 13
0.0
 23
0.0
 14
0.5
 24
0.5
 15
0.5
 25
0.5
 16
0.0
 26
0.0
 36
1.0
 17
0.0
 27
0.0
 37
0.0
 40
1000.0
 41
1.34
 42
50.0
 43
0.0
 44
0.0
 50
0.0
 51
0.0
 71
0
 72
1000
 73
1
 74
3
 75
0
 76
0
 77
0
 78
0
281
0
 65
0
146
0.0
  0
ENDTAB
  0
TABLE
  2
LTYPE
  5
2
330
0
100
AcDbSymbolTable
 70
3
  0
LTYPE
  5
24
330
2
100
AcDbSymbolTableRecord
100
AcDbLinetypeTableRecord
  2
ByBlock
 70
0
  3

 72
65
 73
0
 40
0.0
  0
LTYPE
  5
25
330
2
100
AcDbSymbolTableRecord
100
AcDbLinetypeTableRecord
  2
ByLayer
 70
0
  3

 72
65
 73
0
 40
0.0
  0
LTYPE
  5
26
330
2
100
AcDbSymbolTableRecord
100
AcDbLinetypeTableRecord
  2
Continuous
 70
0
  3

 72
65
 73
0
 40
0.0
  0
ENDTAB
  0
TABLE
  2
LAYER
  5
1
330
0
100
AcDbSymbolTable
 70
3
  0
LAYER
  5
27
330
1
100
AcDbSymbolTableRecord
100
AcDbLayerTableRecord
  2
0
 70
0
 62
7
  6
Continuous
370
-3
390
13
347
21
  0
LAYER
  5
28
330
1
100
AcDbSymbolTableRecord
100
AcDbLayerTableRecord
  2
Defpoints
 70
0
 62
7
  6
Continuous
290
0
370
-3
390
13
347
21
  0
LAYER
  5
2F
330
1
100
AcDbSymbolTableRecord
100
AcDbLayerTableRecord
  2
CUT
 70
0
 62
7
  6
Continuous
370
-3
390
13
347
21
  0
ENDTAB
  0
TABLE
  2
STYLE
  5
5
330
0
100
AcDbSymbolTable
 70
1
  0
STYLE
  5
29
330
5
100
AcDbSymbolTableRecord
100
AcDbTextStyleTableRecord
  2
Standard
 70
0
 40
0.0
 41
1.0
 50
0.0
 71
0
 42
2.5
  3
txt
  4

  0
ENDTAB
  0
TABLE
  2
VIEW
  5
7
330
0
100
AcDbSymbolTable
 70
0
  0
ENDTAB
  0
TABLE
  2
UCS
  5
6
330
0
100
AcDbSymbolTable
 70
0
  0
ENDTAB
  0
TABLE
  2
APPID
  5
3
330
0
100
AcDbSymbolTable
 70
3
  0
APPID
  5
2A
330
3
100
AcDbSymbolTableRecord
100
AcDbRegAppTableRecord
  2
ACAD
 70
0
  0
APPID
  5
4F
330
3
100
AcDbSymbolTableRecord
100
AcDbRegAppTableRecord
  2
HATCHBACKGROUNDCOLOR
 70
0
  0
APPID
  5
50
330
3
100
AcDbSymbolTableRecord
100
AcDbRegAppTableRecord
  2
EZDXF
 70
0
  0
ENDTAB
  0
TABLE
  2
DIMSTYLE
  5
4
330
0
100
AcDbSymbolTable
 70
1
100
AcDbDimStyleTable
  0
DIMSTYLE
105
2B
330
4
100
AcDbSymbolTableRecord
100
AcDbDimStyleTableRecord
  2
Standard
 70
0
 40
1.0
 41
2.5
 42
0.625
 43
3.75
 44
1.25
 45
0.0
 46
0.0
 47
0.0
 48
0.0
 49
2.5
140
2.5
141
2.5
142
0.0
143
0.03937007874
144
1.0
145
0.0
146
1.0
147
0.625
148
0.0
 69
0
 70
0
 71
0
 72
0
 73
0
 74
0
 75
0
 76
0
 77
1
 78
8
 79
3
170
0
171
3
172
1
173
0
174
0
175
0
176
0
177
0
178
0
179
2
271
2
272
2
273
2
274
3
275
0
276
0
277
2
278
44
279
0
280
0
281
0
282
0
283
0
284
8
285
0
286
0
288
0
289
3
290
0
371
-2
372
-2
  0
ENDTAB
  0
TABLE
  2
BLOCK_RECORD
  5
9
330
0
100
AcDbSymbolTable
 70
2
  0
BLOCK_RECORD
  5
17
330
9
100
AcDbSymbolTableRecord
100
AcDbBlockTableRecord
  2
*Model_Space
340
1A
 70
0
280
1
281
0
  0
BLOCK_RECORD
  5
1B
330
9
100
AcDbSymbolTableRecord
100
AcDbBlockTableRecord
  2
*Paper_Space
340
1E
 70
0
280
1
281
0
  0
ENDTAB
  0
ENDSEC
  0
SECTION
  2
BLOCKS
  0
BLOCK
  5
18
330
17
100
AcDbEntity
  8
0
100
AcDbBlockBegin
  2
*Model_Space
 70
0
 10
0.0
 20
0.0
 30
0.0
  3
*Model_Space
  1

  0
ENDBLK
  5
19
330
17
100
AcDbEntity
  8
0
100
AcDbBlockEnd
  0
BLOCK
  5
1C
330
1B
100
AcDbEntity
  8
0
100
AcDbBlockBegin
  2
*Paper_Space
 70
0
 10
0.0
 20
0.0
 30
0.0
  3
*Paper_Space
  1

  0
ENDBLK
  5
1D
330
1B
100
AcDbEntity
  8
0
100
AcDbBlockEnd
  0
ENDSEC
  0
SECTION
  2
ENTITIES
  0
LWPOLYLINE
  5
30
330
17
100
AcDbEntity
  8
CUT
100
AcDbPolyline
 90
707
 70
1
 10
121.70550940371862
 20
-116.2049965096488
 10
121.810092900622
 20
-116.2118620173216
 10
140.59293783617326
 20
-118.68858300654601
 10
140.69523301173186
 20
-118.70892951003344
 10
158.99393625498558
 20
-123.6075676874391
 10
159.09272787889424
 20
-123.6410548175127
 10
159.2563780535722
 20
-123.70871735671882
 10
159.35026112907005
 20
-123.75494013872714
 10
159.437307738113
 20
-123.81302167878633
 10
159.51602848908644
 20
-123.88196818564272
 10
159.5850764481157
 20
-123.96059996544844
 10
159.6432701854781
 20
-124.04757160665015
 10
159.68961399019298
 20
-124.1413950003538
 10
159.72331490691278
 20
-124.24046480228036
 10
159.74379630360875
 20
-124.34308590065153
 10
159.75070773790486
 20
-124.44750242002223
 10
159.74393095324416
 20
-124.55192776479632
 10
159.72358190229104
 20
-124.6545751883725
 10
159.69000876294916
 20
-124.75368836487418
 10
158.4723301279161
 20
-127.6987939382513
 10
158.4337640210135
 20
-127.80997842189785
 10
158.4202690265302
 20
-127.86047262790291
 10
158.40501814220846
 20
-127.93740319269895
 10
158.39822941571268
 20
-127.98922686401596
 10
158.39315045850864
 20
-128.06748991702435
 10
158.393184156993
 20
-128.11975633626767
 10
158.3983640292726
 20
-128.19801277495304
 10
158.40521957614664
 20
-128.24982764919972
 10
158.42056964885907
 20
-128.32673848419844
 10
158.4341297438151
 20
-128.37721524658429
 10
158.45938737296026
 20
-128.4514645121859
 10
158.47941999901408
 20
-128.49973949131166
 10
158.51415301955464
 20
-128.57005676199634
 10
158.54031541292034
 20
-128.61530395958457
 10
158.58392953324523
 20
-128.68048608735552
 10
158.6157740481184
 20
-128.72193131131013
 10
158.66752301853643
 20
-128.7808630118888
 10
158.70450478643923
 20
-128.81779712293798
 10
158.76350316771922
 20
-128.86947005858883
 10
158.80498942034902
 20
-128.90126110385182
 10
158.87022773383
 20
-128.9447911363195
 10
158.91550862990218
 20
-128.97089516219785
 10
159.02146441380066
 20
-129.02210752265657
 10
171.93503371883398
 20
-134.36133121192032
 10
172.04621820248033
 20
-134.39989731882284
 10
172.09671240848556
 20
-134.41339231330622
 10
172.17364297328152
 20
-134.42864319762793
 10
172.22546664459858
 20
-134.43543192412372
 10
172.30372969760697
 20
-134.44051088132775
 10
172.3559961168503
 20
-134.4404771828434
 10
172.43425255553564
 20
-134.43529731056378
 10
172.4860674297823
 20
-134.42844176368976
 10
172.56297826478084
 20
-134.41309169097735
 10
172.61345502716696
 20
-134.39953159602126
 10
172.68770429276887
 20
-134.37427396687602
 10
172.7359792718941
 20
-134.3542413408224
 10
172.80629654257896
 20
-134.31950832028176
 10
172.8515437401672
 20
-134.29334592691606
 10
172.91672586793814
 20
-134.24973180659117
 10
172.95817109189275
 20
-134.217887291718
 10
173.01710279247143
 20
-134.16613832129997
 10
173.0540369035206
 20
-134.12915655339717
 10
173.1057098391715
 20
-134.0701581721171
 10
173.13750088443444
 20
-134.02867191948738
 10
173.1810309169021
 20
-133.9634336060064
 10
173.20713494278039
 20
-133.91815270993433
 10
173.25834730323916
 20
-133.81219692603574
 10
174.4760259382718
 20
-130.86709135265966
 10
174.52224872028012
 20
-130.7732082771618
 10
174.58033026033928
 20
-130.68616166811884
 10
174.6492767671957
 20
-130.6074409171454
 10
174.72790854700142
 20
-130.53839295811613
 10
174.81488018820315
 20
-130.48019922075372
 10
174.9087035819068
 20
-130.43385541603882
 10
175.00777338383338
 20
-130.40015449931903
 10
175.11039448220455
 20
-130.3796731026231
 10
175.21481100157527
 20
-130.37276166832697
 10
175.31923634634936
 20
-130.37953845298767
 10
175.42188376992556
 20
-130.3998875039408
 10
175.52099694642723
 20
-130.4334606432827
 10
175.71204412720286
 20
-130.5124507047653
 10
175.75469563647525
 20
-130.5273232905857
 10
175.83276056631868
 20
-130.54823245305232
 10
175.8850648871297
 20
-130.55858380083325
 10
175.97107196839315
 20
-130.56964334783154
 10
176.0577021640399
 20
-130.57348272399594
 10
176.14435041733717
 20
-130.5700751137297
 10
176.23041154542915
 20
-130.5594443170199
 10
176.26328126523688
 20
-130.5534357119112
 10
176.34753768337183
 20
-130.53293235584007
 10
176.42978784267757
 20
-130.50546523182942
 10
176.50945727818288
 20
-130.47122618024449
 10
176.58598954963003
 20
-130.43045433905044
 10
176.65885012785276
 20
-130.38343447358702
 10
176.70159819842462
 20
-130.35156764382364
 10
176.7674680500983
 20
-130.29516999983286
 10
176.8283986968218
 20
-130.2334692065074
 10
176.88396457684075
 20
-130.16689620458527
 10
176.90385566854079
 20
-130.1400472514111
 10
176.95135735192034
 20
-130.06749987597075
 10
176.99263564346822
 20
-129.9912390294503
 10
177.0244010785781
 20
-129.92114897107584
 10
191.0669255030677
 20
-96.14853424671801
 10
191.07530378019013
 20
-96.12394773797084
 10
191.07701515822725
 20
-96.09802934440316
 10
191.07928263948682
 20
-88.79975145028095
 10
191.08615648267102
 20
-88.69535316239485
 10
191.10659557357863
 20
-88.59274470369607
 10
191.14025033182764
 20
-88.49368103991934
 10
191.18654514261698
 20
-88.39985650833165
 10
191.24468820176543
 20
-88.31287583860251
 10
191.3136850583494
 20
-88.23422670627926
 10
191.39235562331345
 20
-88.16525428829998
 10
191.47935435314588
 20
-88.10713825573399
 10
191.57319326340806
 20
-88.06087259725518
 10
191.67226737850456
 20
-88.02724861843772
 10
191.774882182414
 20
-88.00684140764604
 10
191.87928260087622
 20
-88.0
 10
195.06990886229167
 20
-88.0
 10
195.18739297716633
 20
-87.99315772278293
 10
195.23921226071874
 20
-87.98633558468005
 10
195.3161329766039
 20
-87.9710351029828
 10
195.3666184712924
 20
-87.95750755545154
 10
195.4408840061752
 20
-87.93229780334882
 10
195.48917189118868
 20
-87.91229630647791
 10
195.55951154117633
 20
-87.87760862981786
 10
195.60477559741457
 20
-87.85147541476408
 10
195.6699858315942
 20
-87.80790332931154
 10
195.711451578505
 20
-87.7760855426302
 10
195.7704166316903
 20
-87.72437457884757
 10
195.80737457884754
 20
-87.68741663169034
 10
195.85908554263023
 20
-87.62845157850498
 10
195.89090332931158
 20
-87.58698583159418
 10
195.93447541476402
 20
-87.52177559741469
 10
195.96060862981795
 20
-87.47651154117615
 10
195.9952963064778
 20
-87.40617189118888
 10
196.0152978033489
 20
-87.35788400617497
 10
196.04050755545157
 20
-87.28361847129234
 10
196.05403510298277
 20
-87.23313297660408
 10
196.0693355846801
 20
-87.15621226071863
 10
196.07615772278294
 20
-87.10439297716643
 10
196.083
 20
-86.9869088622925
 10
196.08214379862875
 20
-72.98693689142316
 10
196.07615772278294
 20
-72.89560702283357
 10
196.0693355846801
 20
-72.84378773928137
 10
196.05403510298277
 20
-72.76686702339592
 10
196.04050755545157
 20
-72.71638152870766
 10
196.0152978033489
 20
-72.64211599382503
 10
195.9952963064778
 20
-72.59382810881112
 10
195.96060862981795
 20
-72.52348845882385
 10
195.93447541476402
 20
-72.47822440258531
 10
195.89090332931158
 20
-72.41301416840582
 10
195.85908554263023
 20
-72.37154842149502
 10
195.80737457884754
 20
-72.31258336830966
 10
195.7704166316903
 20
-72.27562542115243
 10
195.711451578505
 20
-72.2239144573698
 10
195.6699858315942
 20
-72.19209667068846
 10
195.60477559741457
 20
-72.14852458523592
 10
195.55951154117633
 20
-72.12239137018214
 10
195.48917189118868
 20
-72.08770369352209
 10
195.4408840061752
 20
-72.06770219665118
 10
195.3666184712924
 20
-72.04249244454846
 10
195.3161329766039
 20
-72.0289648970172
 10
195.23921226071874
 20
-72.01366441531995
 10
195.18739297716633
 20
-72.00684227721707
 10
195.06990886229167
 20
-72.0
 10
191.88475069495917
 20
-72.0
 10
191.78030920593932
 20
-71.99315318531247
 10
191.677655445722
 20
-71.97272993842829
 10
191.57854654249016
 20
-71.9390798448143
 10
191.48467894697959
 20
-71.89277889435849
 10
191.39765939426934
 20
-71.83461962212989
 10
191.3189774012384
 20
-71.76559754252682
 10
191.24997977045066
 20
-71.68689410902024
 10
191.19184753688575
 20
-71.5998564911714
 10
191.14557575212018
 20
-71.5059745150809
 10
191.11195645199282
 20
-71.40685516198072
 10
191.0915650992984
 20
-71.30419506147746
 10
191.08475073356976
 20
-71.19975145028096
 10
191.08822221429736
 20
-60.02619447073584
 10
191.0866183143909
 20
-60.00161153743048
 10
191.06203588058312
 20
-60.0
 10
170.545
 20
-60.0
 10
170.54499999999868
 20
-26.72622685127783
 10
170.541956169964
 20
-26.647783701751376
 10
170.5389162941
 20
-26.613037495879176
 10
170.5320863299703
 20
-26.56115851816956
 10
170.5147041583898
 20
-26.47572318423955
 10
170.48994194429534
 20
-26.392127915678984
 10
170.4780126617007
 20
-26.359352438793863
 10
170.44324768171768
 20
-26.279397874575636
 10
170.4016464871883
 20
-26.20277753271784
 10
170.35352568892506
 20
-26.130074541396624
 10
170.32167125695264
 20
-26.088561026709943
 10
170.26390015530416
 20
-26.023262971709222
 10
170.23923702829012
 20
-25.998599844695107
 10
170.20065778467324
 20
-25.96324848404454
 10
170.13242545860322
 20
-25.9089743110741
 10
170.10385430952317
 20
-25.88896858418181
 10
170.02951642461588
 20
-25.843414055975533
 10
169.95149107583308
 20
-25.804511856552452
 10
169.87037208432113
 20
-25.772558055702962
 10
169.7867768157605
 20
-25.74779584160821
 10
169.70134148183038
 20
-25.730413670027463
 10
169.61471629824544
 20
-25.720543830033648
 10
169.536273148724
 20
-25.7175
 10
152.51245577973606
 20
-25.7175
 10
152.4427397810311
 20
-25.71521830650665
 10
152.37321426701743
 20
-25.70913565872744
 10
152.27028172219946
 20
-25.690985935552202
 10
152.18629193671816
 20
-25.66769608158249
 10
152.1207097581802
 20
-25.643826151521402
 10
152.02598205979623
 20
-25.59965393861733
 10
151.9655411975616
 20
-25.5647584106044
 10
151.89371250811513
 20
-25.51538897941973
 10
151.8136452044759
 20
-25.448204545792436
 10
151.76429545420754
 20
-25.398854795524002
 10
151.70769203354533
 20
-25.33257694000606
 10
151.64774158939534
 20
-25.24695880243745
 10
151.60482031287813
 20
-25.17110060983405
 10
151.5753253463757
 20
-25.107848395217687
 10
151.5395772931418
 20
-25.009631299332856
 10
151.52151406444833
 20
-24.94221827780005
 10
151.5056330346554
 20
-24.856518252972016
 10
151.49728169349405
 20
-24.76976021897052
 10
151.4957613981141
 20
-24.73493916624002
 10
151.4949999999997
 20
-22.916226851277337
 10
151.49195616996556
 20
-22.837783701754205
 10
151.48208632997145
 20
-22.75115851816976
 10
151.4760296875201
 20
-22.716809475236246
 10
151.45567684414613
 20
-22.632032721705517
 10
151.42801266170125
 20
-22.549352438794962
 10
151.4079881434459
 20
-22.501008924166765
 10
151.36908594402297
 20
-22.422983575384496
 10
151.3516464871882
 20
-22.39277753271877
 10
151.30352568892482
 20
-22.320074541397652
 10
151.2716712569522
 20
-22.278561026710896
 10
151.21390015530352
 20
-22.21326297171013
 10
151.1892370282898
 20
-22.18859984469639
 10
151.1239389732887
 20
-22.130828743047335
 10
151.05385430952305
 20
-22.078968584183226
 10
151.00972246728085
 20
-22.05085351281132
 10
150.93310212542357
 20
-22.00925231828189
 10
150.85314756120525
 20
-21.974487338298466
 10
150.82037208432104
 20
-21.962558055703994
 10
150.7367768157605
 20
-21.937795841609034
 10
150.5629452012632
 20
-21.901872961040823
 10
150.46385363058496
 20
-21.868235964774208
 10
150.3700003136904
 20
-21.821952686960103
 10
150.28299110823937
 20
-21.76381504799788
 10
150.20431476714614
 20
-21.694817799867945
 10
150.13531746558243
 20
-21.616141505634868
 10
150.0771797675271
 20
-21.52913233966858
 10
150.0308964259716
 20
-21.435279054207797
 10
149.99725936240603
 20
-21.336187506374458
 10
149.97684411681084
 20
-21.2335531814894
 10
149.97
 20
-21.129132182823405
 10
149.97
 20
-17.920591137707493
 10
149.96315772278294
 20
-17.803107022833522
 10
149.9563355846801
 20
-17.75128773928143
 10
149.94103510298282
 20
-17.674367023396183
 10
149.92750755545146
 20
-17.62388152870733
 10
149.90229780334883
 20
-17.549615993824897
 10
149.8822963064779
 20
-17.501328108811332
 10
149.8476086298178
 20
-17.430988458823553
 10
149.8214754147642
 20
-17.38572440258557
 10
149.77790332931153
 20
-17.320514168405744
 10
149.7460855426302
 20
-17.279048421494984
 10
149.69437457884754
 20
-17.22008336830968
 10
149.65741663169038
 20
-17.183125421152507
 10
149.59845157850503
 20
-17.131414457369832
 10
149.5569858315942
 20
-17.099596670688463
 10
149.49177559741443
 20
-17.05602458523582
 10
149.44651154117642
 20
-17.029891370182188
 10
149.37617189118873
 20
-16.995203693522118
 10
149.32788400617503
 20
-16.97520219665113
 10
149.25361847129258
 20
-16.949992444548524
 10
149.20313297660385
 20
-16.93646489701719
 10
149.1262122607187
 20
-16.92116441531993
 10
149.07439297716635
 20
-16.914342277217074
 10
148.95690886229178
 20
-16.9075
 10
134.98309113770821
 20
-16.9075
 10
134.86560702283364
 20
-16.914342277217074
 10
134.81378773928128
 20
-16.921164415319932
 10
134.7368670233962
 20
-16.936464897017174
 10
134.68638152870741
 20
-16.94999244454852
 10
134.61211599382491
 20
-16.975202196651143
 10
134.56382810881126
 20
-16.995203693522118
 10
134.49348845882358
 20
-17.029891370182188
 10
134.44822440258557
 20
-17.05602458523582
 10
134.3830141684058
 20
-17.099596670688463
 10
134.34154842149496
 20
-17.131414457369832
 10
134.28258336830967
 20
-17.18312542115245
 10
134.24562542115243
 20
-17.22008336830971
 10
134.19391445736974
 20
-17.27904842149505
 10
134.16209667068847
 20
-17.320514168405747
 10
134.118524585236
 20
-17.38572440258529
 10
134.09239137018207
 20
-17.430988458823816
 10
134.0577036935221
 20
-17.501328108811332
 10
134.03770219665117
 20
-17.549615993824897
 10
134.01249244454854
 20
-17.62388152870733
 10
133.99896489701717
 20
-17.674367023396183
 10
133.9836644153199
 20
-17.75128773928143
 10
133.97684227721706
 20
-17.803107022833522
 10
133.97085620137125
 20
-17.894436891423155
 10
133.97
 20
-19.538248458211456
 10
133.9633614279274
 20
-19.641096135273234
 10
133.9435558883075
 20
-19.742236908043324
 10
133.91091208239578
 20
-19.839992200747943
 10
133.86597178083798
 20
-19.93273962449685
 10
133.80948083221116
 20
-20.01893990314728
 10
133.74237678460017
 20
-20.09716241979298
 10
133.66577332564603
 20
-20.166108959897823
 10
133.58094179930697
 20
-20.2246352570227
 10
133.48929010608703
 20
-20.271769983563598
 10
133.39233933691375
 20
-20.30673087132235
 10
133.29169852845882
 20
-20.32893769436619
 10
133.1890379588731
 20
-20.338021898706916
 10
133.08606142713217
 20
-20.333832718981434
 10
132.98447797605533
 20
-20.316439680618572
 10
132.88597352829606
 20
-20.286131445965168
 10
132.7921829060441
 20
-20.243411023521567
 10
132.7046626988134
 20
-20.188987419796184
 10
132.62486542961267
 20
-20.123763872328475
 10
132.5541154482489
 20
-20.04882285917017
 10
132.49358695184813
 20
-19.965408133613888
 10
132.4442844973749
 20
-19.874904082328435
 10
132.4070263295726
 20
-19.778812749482107
 10
132.37801266170152
 20
-19.691852438794655
 10
132.35798814344636
 20
-19.643508924166948
 10
132.31908594402313
 20
-19.56548357538404
 10
132.27353141581676
 20
-19.4911456904767
 10
132.25352568892512
 20
-19.46257454139756
 10
132.19925151595436
 20
-19.39434221532705
 10
132.13923702829004
 20
-19.331099844696304
 10
132.07393897328893
 20
-19.27332874304727
 10
132.00385430952295
 20
-19.221468584182972
 10
131.92951642461574
 20
-19.175914055976705
 10
131.85149107583302
 20
-19.137011856553553
 10
131.7703720843211
 20
-19.10505805570392
 10
131.6867768157605
 20
-19.080295841608976
 10
131.60134148183033
 20
-19.06291367002799
 10
131.5147162982456
 20
-19.053043830033907
 10
131.43627317218647
 20
-19.049999998976325
 10
114.40346304373216
 20
-19.049998000992968
 10
114.32738450585562
 20
-19.052860758494408
 10
114.29367892993773
 20
-19.055720036279062
 10
114.20999641715508
 20
-19.067842947873007
 10
114.12763813506862
 20
-19.08699604952289
 10
114.07910050442331
 20
-19.101808785817553
 10
114.00008178289696
 20
-19.131904791855014
 10
113.92388984359735
 20
-19.168572438585745
 10
113.85107006210204
 20
-19.21154926203785
 10
113.78214367636379
 20
-19.26052763767569
 10
113.75577808848425
 20
-19.281719548708764
 10
113.69312415475697
 20
-19.338501698364613
 10
113.6354941804831
 20
-19.400376685203184
 10
113.58330067623598
 20
-19.466901613203447
 10
113.55474888445198
 20
-19.508855324971393
 10
113.53691723878711
 20
-19.537600302452148
 10
113.49667587693234
 20
-19.61196669759902
 10
113.46286463500027
 20
-19.68946849015907
 10
113.43572553105433
 20
-19.769550928733715
 10
113.41545282454841
 20
-19.851640789873382
 10
113.40224121679374
 20
-19.932485458771318
 10
113.38922499531374
 20
-20.0583265610514
 10
113.38133262869673
 20
-20.114843062802514
 10
113.35860956353646
 20
-20.219084463713447
 10
113.33283854300625
 20
-20.299591022913543
 10
113.30035471435838
 20
-20.377631092427535
 10
113.26139058875424
 20
-20.452646080859033
 10
113.21622506170947
 20
-20.52409904958706
 10
113.16518141682569
 20
-20.59147855604482
 10
113.10862501181195
 20
-20.65430231449084
 10
113.05964345065998
 20
-20.701011707564138
 10
112.99420616057158
 20
-20.754522572249165
 10
112.91010705038246
 20
-20.8111244336292
 10
112.83589735000076
 20
-20.85160124109613
 10
112.75853182289616
 20
-20.885660407104428
 10
112.69469008243331
 20
-20.908136903914308
 10
112.61305108543476
 20
-20.930057801307264
 10
112.51312694075457
 20
-20.947133993949674
 10
112.44568636865456
 20
-20.952855005264666
 10
112.3780720809582
 20
-20.95500099900829
 10
95.35372686301082
 20
-20.955000000513106
 10
95.27528370175163
 20
-20.958043830036164
 10
95.1886585181697
 20
-20.96791367003021
 10
95.15430947523677
 20
-20.973970312481377
 10
95.06953272170604
 20
-20.99432315585519
 10
95.01962791567898
 20
-21.01005805570581
 10
94.93850892416727
 20
-21.04201185655521
 10
94.86048357538454
 20
-21.0809140559782
 10
94.78614569047728
 20
-21.12646858418433
 10
94.71606102671116
 20
-21.178328743048578
 10
94.68934221532727
 20
-21.20074848404677
 10
94.62609984469643
 20
-21.260762971711053
 10
94.59074848404589
 20
-21.299342215327897
 10
94.53647431107531
 20
-21.367574541397996
 10
94.51646858418322
 20
-21.396145690477717
 10
94.47091405597675
 20
-21.47048357538511
 10
94.43201185655371
 20
-21.54850892416745
 10
94.41198733829853
 20
-21.59685243879508
 10
94.3843231558534
 20
-21.67953272170601
 10
94.36397031247937
 20
-21.764309475236672
 10
94.35108370589842
 20
-21.850537495876367
 10
94.34804383003394
 20
-21.885283701754478
 10
94.345
 20
-21.963726851277105
 10
94.345
 20
-27.55754422026603
 10
94.34271830650695
 20
-27.62726021896854
 10
94.33663565872794
 20
-27.696785732983553
 10
94.32224791035941
 20
-27.782749062722836
 10
94.29519608158375
 20
-27.883708063282477
 10
94.26467465362644
 20
-27.965348395218033
 10
94.22715393861895
 20
-28.04401794020475
 10
94.18291949240096
 20
-28.119117974365135
 10
94.14288897942133
 20
-28.176287491886306
 10
94.08744712546543
 20
-28.243540017437944
 10
94.02635479552605
 20
-28.305704545793564
 10
93.94628749188675
 20
-28.372888979420786
 10
93.87445880243934
 20
-28.42225841060585
 10
93.79860060983557
 20
-28.465179687123147
 10
93.735348395218
 20
-28.494674653625914
 10
93.65370806328222
 20
-28.525196081583193
 10
93.56971827780099
 20
-28.548485935552463
 10
93.48401825297097
 20
-28.564366965345357
 10
93.39726021897097
 20
-28.572718306506122
 10
93.32754422026424
 20
-28.574999999999527
 10
83.80000000000001
 20
-28.57499999999966
 10
83.69557904622397
 20
-28.56815588909871
 10
83.592944763918
 20
-28.547740661030915
 10
83.49385325410793
 20
-28.51410362600869
 10
83.4
 20
-28.46782032302721
 10
83.31299085679302
 20
-28.409682672232652
 10
83.23431457505076
 20
-28.3406854249489
 10
83.16531732776701
 20
-28.26200914320664
 10
83.10717967697245
 20
-28.174999999999663
 10
83.06089637399097
 20
-28.081146745891733
 10
83.02725933896875
 20
-27.982055236081678
 10
83.00684411090094
 20
-27.8794209537757
 10
83.0
 20
-27.774999999999658
 10
83.0
 20
-24.5880911377083
 10
82.99315772278293
 20
-24.47060702283372
 10
82.98633558468006
 20
-24.41878773928129
 10
82.97103510298281
 20
-24.341867023396116
 10
82.95750755545149
 20
-24.291381528707443
 10
82.93229780334886
 20
-24.217115993824933
 10
82.91229630647787
 20
-24.16882810881124
 10
82.87760862981789
 20
-24.098488458823745
 10
82.85147541476408
 20
-24.05322440258543
 10
82.80790332931151
 20
-23.988014168405762
 10
82.77608554263017
 20
-23.94654842149498
 10
82.72437457884764
 20
-23.887583368309787
 10
82.6874166316902
 20
-23.850625421152344
 10
82.62845157850506
 20
-23.798914457369857
 10
82.58698583159419
 20
-23.767096670688442
 10
82.52177559741455
 20
-23.723524585235896
 10
82.47651154117632
 20
-23.69739137018214
 10
82.40617189118875
 20
-23.662703693522126
 10
82.35788400617503
 20
-23.642702196651133
 10
82.28361847129256
 20
-23.617492444548503
 10
82.2331329766039
 20
-23.603964897017192
 10
82.1562122607187
 20
-23.588664415319933
 10
82.10439297716631
 20
-23.58184227721707
 10
81.9869088622918
 20
-23.575
 10
68.0130911377082
 20
-23.575
 10
67.89560702283369
 20
-23.58184227721707
 10
67.8437877392813
 20
-23.588664415319933
 10
67.7668670233961
 20
-23.603964897017192
 10
67.71638152870744
 20
-23.617492444548503
 10
67.64211599382497
 20
-23.642702196651133
 10
67.59382810881125
 20
-23.662703693522126
 10
67.52348845882368
 20
-23.69739137018214
 10
67.47822440258545
 20
-23.723524585235896
 10
67.41301416840581
 20
-23.767096670688442
 10
67.37154842149494
 20
-23.798914457369857
 10
67.3125833683098
 20
-23.850625421152344
 10
67.27562542115236
 20
-23.887583368309787
 10
67.22391445736983
 20
-23.94654842149498
 10
67.19209667068849
 20
-23.988014168405762
 10
67.14852458523592
 20
-24.05322440258543
 10
67.12239137018211
 20
-24.098488458823745
 10
67.08770369352213
 20
-24.16882810881124
 10
67.06770219665114
 20
-24.217115993824933
 10
67.04249244454851
 20
-24.291381528707443
 10
67.02896489701719
 20
-24.341867023396116
 10
67.01366441531994
 20
-24.41878773928129
 10
67.00684227721707
 20
-24.47060702283372
 10
67.0
 20
-24.5880911377083
 10
67.0
 20
-27.7749999999999
 10
66.99315588909906
 20
-27.879420953775938
 10
66.97274066103125
 20
-27.982055236081912
 10
66.93910362600903
 20
-28.081146745891967
 10
66.89282032302755
 20
-28.174999999999894
 10
66.834682672233
 20
-28.26200914320687
 10
66.76568542494924
 20
-28.340685424949132
 10
66.68700914320699
 20
-28.409682672232883
 10
66.60000000000001
 20
-28.467820323027446
 10
66.50614674589208
 20
-28.514103626008925
 10
66.40705523608203
 20
-28.54774066103115
 10
66.30442095377606
 20
-28.568155889098946
 10
66.20000000000002
 20
-28.5749999999999
 10
57.25372685127667
 20
-28.575000000000024
 10
57.175283701754346
 20
-28.578043830033952
 10
57.088658518169616
 20
-28.58791367002804
 10
57.05430947523657
 20
-28.593970312479293
 10
56.96953272170581
 20
-28.614323155853278
 10
56.88685243879469
 20
-28.641987338298396
 10
56.83850892416699
 20
-28.66201185655356
 10
56.76048357538435
 20
-28.700914055976654
 10
56.686145690476934
 20
-28.746468584183035
 10
56.616061026710916
 20
-28.798328743047353
 10
56.58934221532699
 20
-28.820748484045634
 10
56.55076297170994
 20
-28.856099844696278
 10
56.490748484045625
 20
-28.919342215326992
 10
56.436474311074896
 20
-28.98757454139745
 10
56.388353512811285
 20
-29.06027753271886
 10
56.34675231828184
 20
-29.136897874576203
 10
56.31198733829834
 20
-29.216852438794742
 10
56.30005805570395
 20
-29.249627915678754
 10
56.27529584160897
 20
-29.333223184239458
 10
56.25791367002799
 20
-29.41865851816964
 10
56.2480438300339
 20
-29.505283701754454
 10
56.245
 20
-29.58372685127694
 10
56.2450000000002
 20
-65.2
 10
56.238155889099254
 20
-65.30442095377605
 10
56.21774066103146
 20
-65.40705523608202
 10
56.18410362600923
 20
-65.50614674589208
 10
56.13782032302776
 20
-65.60000000000001
 10
56.0796826722332
 20
-65.68700914320698
 10
56.01068542494944
 20
-65.76568542494924
 10
55.93200914320718
 20
-65.83468267223299
 10
55.845000000000205
 20
-65.89282032302755
 10
55.75114674589228
 20
-65.93910362600903
 10
55.65205523608223
 20
-65.97274066103125
 10
55.54942095377625
 20
-65.99315588909906
 10
55.445000000000206
 20
-66.0
 10
52.25809113770829
 20
-66.0
 10
52.14060702283371
 20
-66.00684227721707
 10
52.08878773928129
 20
-66.01366441531994
 10
52.011867023396164
 20
-66.02896489701719
 10
51.96138152870738
 20
-66.04249244454853
 10
51.88711599382492
 20
-66.06770219665114
 10
51.838828108811285
 20
-66.0877036935221
 10
51.76848845882363
 20
-66.12239137018216
 10
51.723224402585465
 20
-66.14852458523589
 10
51.65801416840583
 20
-66.19209667068843
 10
51.61654842149497
 20
-66.22391445736983
 10
51.55758336830976
 20
-66.27562542115238
 10
51.52062542115236
 20
-66.31258336830977
 10
51.468914457369884
 20
-66.37154842149491
 10
51.437096670688426
 20
-66.41301416840584
 10
51.393524585235866
 20
-66.47822440258548
 10
51.367391370182155
 20
-66.52348845882365
 10
51.33270369352214
 20
-66.59382810881122
 10
51.312702196651124
 20
-66.64211599382499
 10
51.28749244454849
 20
-66.71638152870747
 10
51.2739648970172
 20
-66.76686702339607
 10
51.25866441531994
 20
-66.84378773928127
 10
51.25184227721707
 20
-66.89560702283374
 10
51.245
 20
-67.0130911377083
 10
51.245
 20
-80.9869088622917
 10
51.25184227721707
 20
-81.10439297716626
 10
51.25866441531994
 20
-81.15621226071873
 10
51.2739648970172
 20
-81.23313297660393
 10
51.28749244454849
 20
-81.28361847129253
 10
51.312702196651124
 20
-81.35788400617501
 10
51.33270369352214
 20
-81.40617189118878
 10
51.367391370182155
 20
-81.47651154117635
 10
51.393524585235866
 20
-81.52177559741452
 10
51.437096670688426
 20
-81.58698583159416
 10
51.468914457369884
 20
-81.62845157850509
 10
51.52062542115236
 20
-81.68741663169023
 10
51.55758336830976
 20
-81.72437457884762
 10
51.61654842149497
 20
-81.77608554263017
 10
51.65801416840583
 20
-81.80790332931157
 10
51.723224402585465
 20
-81.85147541476411
 10
51.76848845882363
 20
-81.87760862981784
 10
51.838828108811285
 20
-81.9122963064779
 10
51.88711599382492
 20
-81.93229780334886
 10
51.96138152870738
 20
-81.95750755545147
 10
52.011867023396164
 20
-81.97103510298281
 10
52.08878773928129
 20
-81.98633558468006
 10
52.14060702283371
 20
-81.99315772278293
 10
52.25809113770829
 20
-82.0
 10
55.44500000000031
 20
-82.0
 10
55.549420953776355
 20
-82.00684411090094
 10
55.65205523608233
 20
-82.02725933896875
 10
55.751146745892385
 20
-82.06089637399097
 10
55.84500000000031
 20
-82.10717967697245
 10
55.93200914320729
 20
-82.16531732776701
 10
56.01068542494955
 20
-82.23431457505076
 10
56.079682672233304
 20
-82.31299085679302
 10
56.13782032302787
 20
-82.39999999999999
 10
56.18410362600934
 20
-82.49385325410792
 10
56.21774066103157
 20
-82.59294476391798
 10
56.23815588909936
 20
-82.69557904622395
 10
56.24500000000031
 20
-82.8
 10
56.24500000000043
 20
-103.7662731487227
 10
56.24804383003458
 20
-103.8447162982465
 10
56.251083705898886
 20
-103.87946250412278
 10
56.25791367002855
 20
-103.93134148183039
 10
56.27529584160936
 20
-104.01677681576048
 10
56.30005805570422
 20
-104.10037208432131
 10
56.31198733829861
 20
-104.13314756120543
 10
56.34675231828194
 20
-104.21310212542389
 10
56.37091405597671
 20
-104.25951642461584
 10
56.388353512811456
 20
-104.28972246728154
 10
56.43647431107491
 20
-104.36242545860284
 10
56.46832874304733
 20
-104.40393897328939
 10
56.52609984469613
 20
-104.46923702829031
 10
56.58934221532696
 20
-104.52925151595478
 10
56.616061026710796
 20
-104.55167125695299
 10
56.657574541397295
 20
-104.58352568892542
 10
56.73027753271866
 20
-104.63164648718902
 10
56.80689787457614
 20
-104.67324768171852
 10
56.83850892416699
 20
-104.68798814344684
 10
56.91962791567884
 20
-104.7199419442964
 10
56.969532721705676
 20
-104.73567684414701
 10
57.0543094752365
 20
-104.75602968752095
 10
57.088658518169716
 20
-104.76208632997219
 10
57.17528370175433
 20
-104.77195616996617
 10
57.2537268512768
 20
-104.775
 10
66.2
 20
-104.775
 10
66.30442095377605
 20
-104.78184411090095
 10
66.40705523608202
 20
-104.80225933896875
 10
66.50614674589208
 20
-104.83589637399098
 10
66.60000000000001
 20
-104.88217967697246
 10
66.68700914320698
 20
-104.94031732776702
 10
66.76568542494924
 20
-105.00931457505077
 10
66.83468267223299
 20
-105.08799085679303
 10
66.89282032302755
 20
-105.175
 10
66.93910362600903
 20
-105.26885325410792
 10
66.97274066103125
 20
-105.36794476391799
 10
66.99315588909906
 20
-105.47057904622396
 10
67.0
 20
-105.575
 10
67.0
 20
-108.7619088622917
 10
67.00684227721707
 20
-108.87939297716626
 10
67.01366441531994
 20
-108.93121226071874
 10
67.02896489701719
 20
-109.00813297660385
 10
67.04249244454854
 20
-109.05861847129266
 10
67.06770219665115
 20
-109.13288400617512
 10
67.08770369352204
 20
-109.1811718911886
 10
67.12239137018216
 20
-109.25151154117636
 10
67.14852458523592
 20
-109.2967755974146
 10
67.19209667068839
 20
-109.3619858315941
 10
67.2239144573699
 20
-109.4034515785051
 10
67.2756254211524
 20
-109.46241663169027
 10
67.31258336830973
 20
-109.49937457884761
 10
67.37154842149491
 20
-109.5510855426301
 10
67.41301416840591
 20
-109.58290332931162
 10
67.47822440258541
 20
-109.62647541476409
 10
67.52348845882365
 20
-109.65260862981785
 10
67.59382810881141
 20
-109.68729630647796
 10
67.64211599382489
 20
-109.70729780334885
 10
67.71638152870734
 20
-109.73250755545146
 10
67.76686702339616
 20
-109.74603510298282
 10
67.84378773928127
 20
-109.76133558468007
 10
67.89560702283374
 20
-109.76815772278293
 10
68.0130911377083
 20
-109.775
 10
81.9869088622917
 20
-109.775
 10
82.10439297716626
 20
-109.76815772278293
 10
82.15621226071873
 20
-109.76133558468007
 10
82.23313297660384
 20
-109.74603510298282
 10
82.28361847129266
 20
-109.73250755545146
 10
82.35788400617511
 20
-109.70729780334885
 10
82.40617189118859
 20
-109.68729630647796
 10
82.47651154117635
 20
-109.65260862981785
 10
82.52177559741459
 20
-109.62647541476409
 10
82.58698583159409
 20
-109.58290332931162
 10
82.62845157850509
 20
-109.5510855426301
 10
82.68741663169027
 20
-109.49937457884761
 10
82.7243745788476
 20
-109.46241663169027
 10
82.7760855426301
 20
-109.4034515785051
 10
82.80790332931161
 20
-109.3619858315941
 10
82.85147541476408
 20
-109.2967755974146
 10
82.87760862981784
 20
-109.25151154117636
 10
82.91229630647796
 20
-109.1811718911886
 10
82.93229780334885
 20
-109.13288400617512
 10
82.95750755545146
 20
-109.05861847129266
 10
82.97103510298281
 20
-109.00813297660385
 10
82.98633558468006
 20
-108.93121226071874
 10
82.99315772278293
 20
-108.87939297716626
 10
83.0
 20
-108.7619088622917
 10
83.0
 20
-105.575
 10
83.00684411090094
 20
-105.47057904622396
 10
83.02725933896875
 20
-105.36794476391799
 10
83.06089637399097
 20
-105.26885325410792
 10
83.10717967697245
 20
-105.175
 10
83.16531732776701
 20
-105.08799085679303
 10
83.23431457505076
 20
-105.00931457505077
 10
83.31299085679302
 20
-104.94031732776702
 10
83.39999999999999
 20
-104.88217967697246
 10
83.49385325410792
 20
-104.83589637399098
 10
83.59294476391798
 20
-104.80225933896875
 10
83.69557904622395
 20
-104.78184411090095
 10
83.8
 20
-104.775
 10
93.93906532218624
 20
-104.775
 10
94.04607270288331
 20
-104.78218891249153
 10
94.15115691684092
 20
-104.80362644880913
 10
94.25242936101314
 20
-104.83892732752119
 10
94.34806993855254
 20
-104.88745711130792
 10
94.43635977010273
 20
-104.94834360924712
 10
94.5157120859814
 20
-105.02049255207477
 10
94.58470074405146
 20
-105.10260725870002
 10
102.6921498431158
 20
-116.18333704493764
 10
102.70888486705036
 20
-116.20325613863477
 10
102.73484233773897
 20
-116.20499999506835
  0
LWPOLYLINE
  5
31
330
17
100
AcDbEntity
  8
CUT
100
AcDbPolyline
 90
52
 70
1
 10
97.05529523872437
 20
-23.488518543427734
 10
97.087368451945
 20
-23.48213878465655
 10
97.12
 20
-23.48
 10
110.62
 20
-23.48
 10
110.65263154805501
 20
-23.48213878465655
 10
110.68470476127564
 20
-23.488518543427734
 10
110.71567085809127
 20
-23.499030116872177
 10
110.745
 20
-23.513493649053892
 10
110.77219035725219
 20
-23.531661664927192
 10
110.79677669529664
 20
-23.553223304703366
 10
110.81833833507281
 20
-23.57780964274782
 10
110.83650635094611
 20
-23.605
 10
110.85096988312783
 20
-23.63432914190873
 10
110.86148145657228
 20
-23.66529523872437
 10
110.86786121534345
 20
-23.69736845194499
 10
110.87
 20
-23.73
 10
110.87
 20
-37.230000000000004
 10
110.86786121534345
 20
-37.26263154805501
 10
110.86148145657228
 20
-37.29470476127563
 10
110.85096988312783
 20
-37.32567085809127
 10
110.83650635094611
 20
-37.355000000000004
 10
110.81833833507281
 20
-37.38219035725218
 10
110.79677669529664
 20
-37.406776695296635
 10
110.77219035725219
 20
-37.42833833507281
 10
110.745
 20
-37.44650635094611
 10
110.71567085809127
 20
-37.460969883127824
 10
110.68470476127564
 20
-37.47148145657227
 10
110.65263154805501
 20
-37.47786121534345
 10
110.62
 20
-37.480000000000004
 10
97.12
 20
-37.480000000000004
 10
97.087368451945
 20
-37.47786121534345
 10
97.05529523872437
 20
-37.47148145657227
 10
97.02432914190874
 20
-37.460969883127824
 10
96.995
 20
-37.44650635094611
 10
96.96780964274782
 20
-37.42833833507281
 10
96.94322330470337
 20
-37.406776695296635
 10
96.9216616649272
 20
-37.38219035725218
 10
96.9034936490539
 20
-37.355000000000004
 10
96.88903011687218
 20
-37.32567085809127
 10
96.87851854342773
 20
-37.29470476127563
 10
96.87213878465656
 20
-37.26263154805501
 10
96.87
 20
-37.230000000000004
 10
96.87
 20
-23.73
 10
96.87213878465656
 20
-23.69736845194499
 10
96.87851854342773
 20
-23.66529523872437
 10
96.88903011687218
 20
-23.63432914190873
 10
96.9034936490539
 20
-23.605
 10
96.9216616649272
 20
-23.57780964274782
 10
96.94322330470337
 20
-23.553223304703366
 10
96.96780964274782
 20
-23.531661664927192
 10
96.995
 20
-23.513493649053892
 10
97.02432914190874
 20
-23.499030116872177
  0
LWPOLYLINE
  5
32
330
17
100
AcDbEntity
  8
CUT
100
AcDbPolyline
 90
52
 70
1
 10
58.92432914190872
 20
-31.11903011687218
 10
58.95529523872437
 20
-31.108518543427735
 10
58.98736845194498
 20
-31.10213878465655
 10
59.019999999999996
 20
-31.1
 10
72.52
 20
-31.1
 10
72.552631548055
 20
-31.10213878465655
 10
72.58470476127563
 20
-31.108518543427735
 10
72.61567085809126
 20
-31.11903011687218
 10
72.645
 20
-31.133493649053893
 10
72.67219035725218
 20
-31.151661664927193
 10
72.69677669529663
 20
-31.173223304703363
 10
72.7183383350728
 20
-31.19780964274782
 10
72.7365063509461
 20
-31.225
 10
72.75096988312782
 20
-31.254329141908727
 10
72.76148145657227
 20
-31.285295238724373
 10
72.76786121534344
 20
-31.317368451944986
 10
72.77
 20
-31.35
 10
72.77
 20
-44.85
 10
72.76786121534344
 20
-44.882631548055016
 10
72.76148145657227
 20
-44.91470476127563
 10
72.75096988312782
 20
-44.945670858091276
 10
72.7365063509461
 20
-44.975
 10
72.7183383350728
 20
-45.00219035725218
 10
72.69677669529663
 20
-45.02677669529664
 10
72.67219035725218
 20
-45.04833833507281
 10
72.645
 20
-45.06650635094611
 10
72.61567085809126
 20
-45.08096988312782
 10
72.58470476127563
 20
-45.09148145657227
 10
72.552631548055
 20
-45.09786121534346
 10
72.52
 20
-45.1
 10
59.019999999999996
 20
-45.1
 10
58.98736845194498
 20
-45.09786121534346
 10
58.95529523872437
 20
-45.09148145657227
 10
58.92432914190872
 20
-45.08096988312782
 10
58.894999999999996
 20
-45.06650635094611
 10
58.867809642747815
 20
-45.04833833507281
 10
58.84322330470336
 20
-45.02677669529664
 10
58.821661664927184
 20
-45.00219035725218
 10
58.803493649053884
 20
-44.975
 10
58.789030116872176
 20
-44.945670858091276
 10
58.77851854342773
 20
-44.91470476127563
 10
58.77213878465654
 20
-44.882631548055016
 10
58.769999999999996
 20
-44.85
 10
58.769999999999996
 20
-31.35
 10
58.77213878465654
 20
-31.317368451944986
 10
58.77851854342773
 20
-31.285295238724373
 10
58.789030116872176
 20
-31.254329141908727
 10
58.803493649053884
 20
-31.225
 10
58.821661664927184
 20
-31.19780964274782
 10
58.84322330470336
 20
-31.173223304703363
 10
58.867809642747815
 20
-31.151661664927193
 10
58.894999999999996
 20
-31.133493649053893
  0
LWPOLYLINE
  5
33
330
17
100
AcDbEntity
  8
CUT
100
AcDbPolyline
 90
52
 70
1
 10
77.97432914190873
 20
-31.11903011687218
 10
78.00529523872436
 20
-31.108518543427735
 10
78.03736845194499
 20
-31.10213878465655
 10
78.07
 20
-31.1
 10
91.57
 20
-31.1
 10
91.602631548055
 20
-31.10213878465655
 10
91.63470476127563
 20
-31.108518543427735
 10
91.66567085809126
 20
-31.11903011687218
 10
91.695
 20
-31.133493649053893
 10
91.72219035725217
 20
-31.151661664927193
 10
91.74677669529663
 20
-31.173223304703363
 10
91.7683383350728
 20
-31.19780964274782
 10
91.7865063509461
 20
-31.225
 10
91.80096988312782
 20
-31.254329141908727
 10
91.81148145657227
 20
-31.285295238724373
 10
91.81786121534344
 20
-31.317368451944986
 10
91.82
 20
-31.35
 10
91.82
 20
-44.85
 10
91.81786121534344
 20
-44.882631548055016
 10
91.81148145657227
 20
-44.91470476127563
 10
91.80096988312782
 20
-44.945670858091276
 10
91.7865063509461
 20
-44.975
 10
91.7683383350728
 20
-45.00219035725218
 10
91.74677669529663
 20
-45.02677669529664
 10
91.72219035725217
 20
-45.04833833507281
 10
91.695
 20
-45.06650635094611
 10
91.66567085809126
 20
-45.08096988312782
 10
91.63470476127563
 20
-45.09148145657227
 10
91.602631548055
 20
-45.09786121534346
 10
91.57
 20
-45.1
 10
78.07
 20
-45.1
 10
78.03736845194499
 20
-45.09786121534346
 10
78.00529523872436
 20
-45.09148145657227
 10
77.97432914190873
 20
-45.08096988312782
 10
77.945
 20
-45.06650635094611
 10
77.91780964274781
 20
-45.04833833507281
 10
77.89322330470335
 20
-45.02677669529664
 10
77.87166166492719
 20
-45.00219035725218
 10
77.85349364905389
 20
-44.975
 10
77.83903011687217
 20
-44.945670858091276
 10
77.82851854342772
 20
-44.91470476127563
 10
77.82213878465654
 20
-44.882631548055016
 10
77.82
 20
-44.85
 10
77.82
 20
-31.35
 10
77.82213878465654
 20
-31.317368451944986
 10
77.82851854342772
 20
-31.285295238724373
 10
77.83903011687217
 20
-31.254329141908727
 10
77.85349364905389
 20
-31.225
 10
77.87166166492719
 20
-31.19780964274782
 10
77.89322330470335
 20
-31.173223304703363
 10
77.91780964274781
 20
-31.151661664927193
 10
77.945
 20
-31.133493649053893
  0
LWPOLYLINE
  5
34
330
17
100
AcDbEntity
  8
CUT
100
AcDbPolyline
 90
52
 70
1
 10
116.07432914190873
 20
-40.64403011687218
 10
116.10529523872437
 20
-40.63351854342773
 10
116.137368451945
 20
-40.627138784656545
 10
116.17
 20
-40.625
 10
129.67000000000002
 20
-40.625
 10
129.70263154805502
 20
-40.627138784656545
 10
129.73470476127562
 20
-40.63351854342773
 10
129.76567085809128
 20
-40.64403011687218
 10
129.79500000000002
 20
-40.65849364905389
 10
129.82219035725217
 20
-40.67666166492719
 10
129.84677669529663
 20
-40.69822330470336
 10
129.86833833507282
 20
-40.72280964274782
 10
129.88650635094612
 20
-40.75
 10
129.90096988312783
 20
-40.779329141908725
 10
129.91148145657226
 20
-40.81029523872437
 10
129.91786121534346
 20
-40.842368451944985
 10
129.92000000000002
 20
-40.875
 10
129.92000000000002
 20
-54.375
 10
129.91786121534346
 20
-54.407631548055015
 10
129.91148145657226
 20
-54.43970476127563
 10
129.90096988312783
 20
-54.470670858091275
 10
129.88650635094612
 20
-54.5
 10
129.86833833507282
 20
-54.52719035725218
 10
129.84677669529663
 20
-54.55177669529664
 10
129.82219035725217
 20
-54.57333833507281
 10
129.79500000000002
 20
-54.59150635094611
 10
129.76567085809128
 20
-54.60596988312782
 10
129.73470476127562
 20
-54.61648145657227
 10
129.70263154805502
 20
-54.622861215343455
 10
129.67000000000002
 20
-54.625
 10
116.17
 20
-54.625
 10
116.137368451945
 20
-54.622861215343455
 10
116.10529523872437
 20
-54.61648145657227
 10
116.07432914190873
 20
-54.60596988312782
 10
116.045
 20
-54.59150635094611
 10
116.01780964274782
 20
-54.57333833507281
 10
115.99322330470336
 20
-54.55177669529664
 10
115.9716616649272
 20
-54.52719035725218
 10
115.9534936490539
 20
-54.5
 10
115.93903011687217
 20
-54.470670858091275
 10
115.92851854342773
 20
-54.43970476127563
 10
115.92213878465655
 20
-54.407631548055015
 10
115.92
 20
-54.375
 10
115.92
 20
-40.875
 10
115.92213878465655
 20
-40.842368451944985
 10
115.92851854342773
 20
-40.81029523872437
 10
115.93903011687217
 20
-40.779329141908725
 10
115.9534936490539
 20
-40.75
 10
115.9716616649272
 20
-40.72280964274782
 10
115.99322330470336
 20
-40.69822330470336
 10
116.01780964274782
 20
-40.67666166492719
 10
116.045
 20
-40.65849364905389
  0
LWPOLYLINE
  5
35
330
17
100
AcDbEntity
  8
CUT
100
AcDbPolyline
 90
52
 70
1
 10
97.02432914190874
 20
-42.54903011687218
 10
97.05529523872437
 20
-42.538518543427735
 10
97.087368451945
 20
-42.532138784656546
 10
97.12
 20
-42.53
 10
110.62
 20
-42.53
 10
110.65263154805501
 20
-42.532138784656546
 10
110.68470476127564
 20
-42.538518543427735
 10
110.71567085809127
 20
-42.54903011687218
 10
110.745
 20
-42.56349364905389
 10
110.77219035725219
 20
-42.58166166492719
 10
110.79677669529664
 20
-42.60322330470336
 10
110.81833833507281
 20
-42.62780964274782
 10
110.83650635094611
 20
-42.655
 10
110.85096988312783
 20
-42.68432914190873
 10
110.86148145657228
 20
-42.71529523872437
 10
110.86786121534345
 20
-42.747368451944986
 10
110.87
 20
-42.78
 10
110.87
 20
-56.28
 10
110.86786121534345
 20
-56.312631548055016
 10
110.86148145657228
 20
-56.34470476127563
 10
110.85096988312783
 20
-56.375670858091276
 10
110.83650635094611
 20
-56.405
 10
110.81833833507281
 20
-56.43219035725218
 10
110.79677669529664
 20
-56.45677669529664
 10
110.77219035725219
 20
-56.47833833507281
 10
110.745
 20
-56.49650635094611
 10
110.71567085809127
 20
-56.51096988312782
 10
110.68470476127564
 20
-56.52148145657227
 10
110.65263154805501
 20
-56.52786121534346
 10
110.62
 20
-56.53
 10
97.12
 20
-56.53
 10
97.087368451945
 20
-56.52786121534346
 10
97.05529523872437
 20
-56.52148145657227
 10
97.02432914190874
 20
-56.51096988312782
 10
96.995
 20
-56.49650635094611
 10
96.96780964274782
 20
-56.47833833507281
 10
96.94322330470337
 20
-56.45677669529664
 10
96.9216616649272
 20
-56.43219035725218
 10
96.9034936490539
 20
-56.405
 10
96.88903011687218
 20
-56.375670858091276
 10
96.87851854342773
 20
-56.34470476127563
 10
96.87213878465656
 20
-56.312631548055016
 10
96.87
 20
-56.28
 10
96.87
 20
-42.78
 10
96.87213878465656
 20
-42.747368451944986
 10
96.87851854342773
 20
-42.71529523872437
 10
96.88903011687218
 20
-42.68432914190873
 10
96.9034936490539
 20
-42.655
 10
96.9216616649272
 20
-42.62780964274782
 10
96.94322330470337
 20
-42.60322330470336
 10
96.96780964274782
 20
-42.58166166492719
 10
96.995
 20
-42.56349364905389
  0
LWPOLYLINE
  5
36
330
17
100
AcDbEntity
  8
CUT
100
AcDbPolyline
 90
52
 70
1
 10
58.92432914190872
 20
-50.16903011687218
 10
58.95529523872437
 20
-50.15851854342773
 10
58.98736845194498
 20
-50.15213878465654
 10
59.019999999999996
 20
-50.15
 10
72.52
 20
-50.15
 10
72.552631548055
 20
-50.15213878465654
 10
72.58470476127563
 20
-50.15851854342773
 10
72.61567085809126
 20
-50.16903011687218
 10
72.645
 20
-50.18349364905389
 10
72.67219035725218
 20
-50.20166166492719
 10
72.69677669529663
 20
-50.22322330470336
 10
72.7183383350728
 20
-50.24780964274782
 10
72.7365063509461
 20
-50.275
 10
72.75096988312782
 20
-50.304329141908724
 10
72.76148145657227
 20
-50.33529523872437
 10
72.76786121534344
 20
-50.367368451944984
 10
72.77
 20
-50.4
 10
72.77
 20
-63.9
 10
72.76786121534344
 20
-63.932631548055014
 10
72.76148145657227
 20
-63.96470476127563
 10
72.75096988312782
 20
-63.99567085809127
 10
72.7365063509461
 20
-64.025
 10
72.7183383350728
 20
-64.05219035725217
 10
72.69677669529663
 20
-64.07677669529663
 10
72.67219035725218
 20
-64.09833833507281
 10
72.645
 20
-64.11650635094611
 10
72.61567085809126
 20
-64.13096988312782
 10
72.58470476127563
 20
-64.14148145657227
 10
72.552631548055
 20
-64.14786121534345
 10
72.52
 20
-64.15
 10
59.019999999999996
 20
-64.15
 10
58.98736845194498
 20
-64.14786121534345
 10
58.95529523872437
 20
-64.14148145657227
 10
58.92432914190872
 20
-64.13096988312782
 10
58.894999999999996
 20
-64.11650635094611
 10
58.867809642747815
 20
-64.09833833507281
 10
58.84322330470336
 20
-64.07677669529663
 10
58.821661664927184
 20
-64.05219035725217
 10
58.803493649053884
 20
-64.025
 10
58.789030116872176
 20
-63.99567085809127
 10
58.77851854342773
 20
-63.96470476127563
 10
58.77213878465654
 20
-63.932631548055014
 10
58.769999999999996
 20
-63.9
 10
58.769999999999996
 20
-50.4
 10
58.77213878465654
 20
-50.367368451944984
 10
58.77851854342773
 20
-50.33529523872437
 10
58.789030116872176
 20
-50.304329141908724
 10
58.803493649053884
 20
-50.275
 10
58.821661664927184
 20
-50.24780964274782
 10
58.84322330470336
 20
-50.22322330470336
 10
58.867809642747815
 20
-50.20166166492719
 10
58.894999999999996
 20
-50.18349364905389
  0
LWPOLYLINE
  5
37
330
17
100
AcDbEntity
  8
CUT
100
AcDbPolyline
 90
52
 70
1
 10
77.97432914190873
 20
-50.16903011687218
 10
78.00529523872436
 20
-50.15851854342773
 10
78.03736845194499
 20
-50.15213878465654
 10
78.07
 20
-50.15
 10
91.57
 20
-50.15
 10
91.602631548055
 20
-50.15213878465654
 10
91.63470476127563
 20
-50.15851854342773
 10
91.66567085809126
 20
-50.16903011687218
 10
91.695
 20
-50.18349364905389
 10
91.72219035725217
 20
-50.20166166492719
 10
91.74677669529663
 20
-50.22322330470336
 10
91.7683383350728
 20
-50.24780964274782
 10
91.7865063509461
 20
-50.275
 10
91.80096988312782
 20
-50.304329141908724
 10
91.81148145657227
 20
-50.33529523872437
 10
91.81786121534344
 20
-50.367368451944984
 10
91.82
 20
-50.4
 10
91.82
 20
-63.9
 10
91.81786121534344
 20
-63.932631548055014
 10
91.81148145657227
 20
-63.96470476127563
 10
91.80096988312782
 20
-63.99567085809127
 10
91.7865063509461
 20
-64.025
 10
91.7683383350728
 20
-64.05219035725217
 10
91.74677669529663
 20
-64.07677669529663
 10
91.72219035725217
 20
-64.09833833507281
 10
91.695
 20
-64.11650635094611
 10
91.66567085809126
 20
-64.13096988312782
 10
91.63470476127563
 20
-64.14148145657227
 10
91.602631548055
 20
-64.14786121534345
 10
91.57
 20
-64.15
 10
78.07
 20
-64.15
 10
78.03736845194499
 20
-64.14786121534345
 10
78.00529523872436
 20
-64.14148145657227
 10
77.97432914190873
 20
-64.13096988312782
 10
77.945
 20
-64.11650635094611
 10
77.91780964274781
 20
-64.09833833507281
 10
77.89322330470335
 20
-64.07677669529663
 10
77.87166166492719
 20
-64.05219035725217
 10
77.85349364905389
 20
-64.025
 10
77.83903011687217
 20
-63.99567085809127
 10
77.82851854342772
 20
-63.96470476127563
 10
77.82213878465654
 20
-63.932631548055014
 10
77.82
 20
-63.9
 10
77.82
 20
-50.4
 10
77.82213878465654
 20
-50.367368451944984
 10
77.82851854342772
 20
-50.33529523872437
 10
77.83903011687217
 20
-50.304329141908724
 10
77.85349364905389
 20
-50.275
 10
77.87166166492719
 20
-50.24780964274782
 10
77.89322330470335
 20
-50.22322330470336
 10
77.91780964274781
 20
-50.20166166492719
 10
77.945
 20
-50.18349364905389
  0
LWPOLYLINE
  5
38
330
17
100
AcDbEntity
  8
CUT
100
AcDbPolyline
 90
52
 70
1
 10
116.07432914190873
 20
-59.69403011687218
 10
116.10529523872437
 20
-59.68351854342773
 10
116.137368451945
 20
-59.67713878465654
 10
116.17
 20
-59.675
 10
129.67000000000002
 20
-59.675
 10
129.70263154805502
 20
-59.67713878465654
 10
129.73470476127562
 20
-59.68351854342773
 10
129.76567085809128
 20
-59.69403011687218
 10
129.79500000000002
 20
-59.708493649053885
 10
129.82219035725217
 20
-59.726661664927185
 10
129.84677669529663
 20
-59.74822330470336
 10
129.86833833507282
 20
-59.772809642747816
 10
129.88650635094612
 20
-59.8
 10
129.90096988312783
 20
-59.82932914190872
 10
129.91148145657226
 20
-59.86029523872437
 10
129.91786121534346
 20
-59.89236845194498
 10
129.92000000000002
 20
-59.925
 10
129.92000000000002
 20
-73.425
 10
129.91786121534346
 20
-73.457631548055
 10
129.91148145657226
 20
-73.48970476127563
 10
129.90096988312783
 20
-73.52067085809126
 10
129.88650635094612
 20
-73.55
 10
129.86833833507282
 20
-73.57719035725218
 10
129.84677669529663
 20
-73.60177669529664
 10
129.82219035725217
 20
-73.6233383350728
 10
129.79500000000002
 20
-73.6415063509461
 10
129.76567085809128
 20
-73.65596988312782
 10
129.73470476127562
 20
-73.66648145657227
 10
129.70263154805502
 20
-73.67286121534345
 10
129.67000000000002
 20
-73.675
 10
116.17
 20
-73.675
 10
116.137368451945
 20
-73.67286121534345
 10
116.10529523872437
 20
-73.66648145657227
 10
116.07432914190873
 20
-73.65596988312782
 10
116.045
 20
-73.6415063509461
 10
116.01780964274782
 20
-73.6233383350728
 10
115.99322330470336
 20
-73.60177669529664
 10
115.9716616649272
 20
-73.57719035725218
 10
115.9534936490539
 20
-73.55
 10
115.93903011687217
 20
-73.52067085809126
 10
115.92851854342773
 20
-73.48970476127563
 10
115.92213878465655
 20
-73.457631548055
 10
115.92
 20
-73.425
 10
115.92
 20
-59.925
 10
115.92213878465655
 20
-59.89236845194498
 10
115.92851854342773
 20
-59.86029523872437
 10
115.93903011687217
 20
-59.82932914190872
 10
115.9534936490539
 20
-59.8
 10
115.9716616649272
 20
-59.772809642747816
 10
115.99322330470336
 20
-59.74822330470336
 10
116.01780964274782
 20
-59.726661664927185
 10
116.045
 20
-59.708493649053885
  0
LWPOLYLINE
  5
39
330
17
100
AcDbEntity
  8
CUT
100
AcDbPolyline
 90
52
 70
1
 10
97.02432914190874
 20
-61.59903011687218
 10
97.05529523872437
 20
-61.58851854342773
 10
97.087368451945
 20
-61.58213878465654
 10
97.12
 20
-61.58
 10
110.62
 20
-61.58
 10
110.65263154805501
 20
-61.58213878465654
 10
110.68470476127564
 20
-61.58851854342773
 10
110.71567085809127
 20
-61.59903011687218
 10
110.745
 20
-61.613493649053886
 10
110.77219035725219
 20
-61.63166166492719
 10
110.79677669529664
 20
-61.65322330470336
 10
110.81833833507281
 20
-61.67780964274782
 10
110.83650635094611
 20
-61.705
 10
110.85096988312783
 20
-61.734329141908724
 10
110.86148145657228
 20
-61.76529523872437
 10
110.86786121534345
 20
-61.79736845194498
 10
110.87
 20
-61.83
 10
110.87
 20
-75.33
 10
110.86786121534345
 20
-75.362631548055
 10
110.86148145657228
 20
-75.39470476127563
 10
110.85096988312783
 20
-75.42567085809127
 10
110.83650635094611
 20
-75.455
 10
110.81833833507281
 20
-75.48219035725218
 10
110.79677669529664
 20
-75.50677669529664
 10
110.77219035725219
 20
-75.5283383350728
 10
110.745
 20
-75.5465063509461
 10
110.71567085809127
 20
-75.56096988312783
 10
110.68470476127564
 20
-75.57148145657227
 10
110.65263154805501
 20
-75.57786121534345
 10
110.62
 20
-75.58
 10
97.12
 20
-75.58
 10
97.087368451945
 20
-75.57786121534345
 10
97.05529523872437
 20
-75.57148145657227
 10
97.02432914190874
 20
-75.56096988312783
 10
96.995
 20
-75.5465063509461
 10
96.96780964274782
 20
-75.5283383350728
 10
96.94322330470337
 20
-75.50677669529664
 10
96.9216616649272
 20
-75.48219035725218
 10
96.9034936490539
 20
-75.455
 10
96.88903011687218
 20
-75.42567085809127
 10
96.87851854342773
 20
-75.39470476127563
 10
96.87213878465656
 20
-75.362631548055
 10
96.87
 20
-75.33
 10
96.87
 20
-61.83
 10
96.87213878465656
 20
-61.79736845194498
 10
96.87851854342773
 20
-61.76529523872437
 10
96.88903011687218
 20
-61.734329141908724
 10
96.9034936490539
 20
-61.705
 10
96.9216616649272
 20
-61.67780964274782
 10
96.94322330470337
 20
-61.65322330470336
 10
96.96780964274782
 20
-61.63166166492719
 10
96.995
 20
-61.613493649053886
  0
LWPOLYLINE
  5
3A
330
17
100
AcDbEntity
  8
CUT
100
AcDbPolyline
 90
52
 70
1
 10
58.92432914190872
 20
-69.21903011687218
 10
58.95529523872437
 20
-69.20851854342773
 10
58.98736845194498
 20
-69.20213878465655
 10
59.019999999999996
 20
-69.2
 10
72.52
 20
-69.2
 10
72.552631548055
 20
-69.20213878465655
 10
72.58470476127563
 20
-69.20851854342773
 10
72.61567085809126
 20
-69.21903011687218
 10
72.645
 20
-69.2334936490539
 10
72.67219035725218
 20
-69.2516616649272
 10
72.69677669529663
 20
-69.27322330470336
 10
72.7183383350728
 20
-69.29780964274782
 10
72.7365063509461
 20
-69.325
 10
72.75096988312782
 20
-69.35432914190874
 10
72.76148145657227
 20
-69.38529523872437
 10
72.76786121534344
 20
-69.417368451945
 10
72.77
 20
-69.45
 10
72.77
 20
-82.95
 10
72.76786121534344
 20
-82.98263154805501
 10
72.76148145657227
 20
-83.01470476127564
 10
72.75096988312782
 20
-83.04567085809127
 10
72.7365063509461
 20
-83.075
 10
72.7183383350728
 20
-83.10219035725218
 10
72.69677669529663
 20
-83.12677669529664
 10
72.67219035725218
 20
-83.14833833507281
 10
72.645
 20
-83.16650635094611
 10
72.61567085809126
 20
-83.18096988312783
 10
72.58470476127563
 20
-83.19148145657228
 10
72.552631548055
 20
-83.19786121534345
 10
72.52
 20
-83.2
 10
59.019999999999996
 20
-83.2
 10
58.98736845194498
 20
-83.19786121534345
 10
58.95529523872437
 20
-83.19148145657228
 10
58.92432914190872
 20
-83.18096988312783
 10
58.894999999999996
 20
-83.16650635094611
 10
58.867809642747815
 20
-83.14833833507281
 10
58.84322330470336
 20
-83.12677669529664
 10
58.821661664927184
 20
-83.10219035725218
 10
58.803493649053884
 20
-83.075
 10
58.789030116872176
 20
-83.04567085809127
 10
58.77851854342773
 20
-83.01470476127564
 10
58.77213878465654
 20
-82.98263154805501
 10
58.769999999999996
 20
-82.95
 10
58.769999999999996
 20
-69.45
 10
58.77213878465654
 20
-69.417368451945
 10
58.77851854342773
 20
-69.38529523872437
 10
58.789030116872176
 20
-69.35432914190874
 10
58.803493649053884
 20
-69.325
 10
58.821661664927184
 20
-69.29780964274782
 10
58.84322330470336
 20
-69.27322330470336
 10
58.867809642747815
 20
-69.2516616649272
 10
58.894999999999996
 20
-69.2334936490539
  0
LWPOLYLINE
  5
3B
330
17
100
AcDbEntity
  8
CUT
100
AcDbPolyline
 90
52
 70
1
 10
77.97432914190873
 20
-69.21903011687218
 10
78.00529523872436
 20
-69.20851854342773
 10
78.03736845194499
 20
-69.20213878465655
 10
78.07
 20
-69.2
 10
91.57
 20
-69.2
 10
91.602631548055
 20
-69.20213878465655
 10
91.63470476127563
 20
-69.20851854342773
 10
91.66567085809126
 20
-69.21903011687218
 10
91.695
 20
-69.2334936490539
 10
91.72219035725217
 20
-69.2516616649272
 10
91.74677669529663
 20
-69.27322330470336
 10
91.7683383350728
 20
-69.29780964274782
 10
91.7865063509461
 20
-69.325
 10
91.80096988312782
 20
-69.35432914190874
 10
91.81148145657227
 20
-69.38529523872437
 10
91.81786121534344
 20
-69.417368451945
 10
91.82
 20
-69.45
 10
91.82
 20
-82.95
 10
91.81786121534344
 20
-82.98263154805501
 10
91.81148145657227
 20
-83.01470476127564
 10
91.80096988312782
 20
-83.04567085809127
 10
91.7865063509461
 20
-83.075
 10
91.7683383350728
 20
-83.10219035725218
 10
91.74677669529663
 20
-83.12677669529664
 10
91.72219035725217
 20
-83.14833833507281
 10
91.695
 20
-83.16650635094611
 10
91.66567085809126
 20
-83.18096988312783
 10
91.63470476127563
 20
-83.19148145657228
 10
91.602631548055
 20
-83.19786121534345
 10
91.57
 20
-83.2
 10
78.07
 20
-83.2
 10
78.03736845194499
 20
-83.19786121534345
 10
78.00529523872436
 20
-83.19148145657228
 10
77.97432914190873
 20
-83.18096988312783
 10
77.945
 20
-83.16650635094611
 10
77.91780964274781
 20
-83.14833833507281
 10
77.89322330470335
 20
-83.12677669529664
 10
77.87166166492719
 20
-83.10219035725218
 10
77.85349364905389
 20
-83.075
 10
77.83903011687217
 20
-83.04567085809127
 10
77.82851854342772
 20
-83.01470476127564
 10
77.82213878465654
 20
-82.98263154805501
 10
77.82
 20
-82.95
 10
77.82
 20
-69.45
 10
77.82213878465654
 20
-69.417368451945
 10
77.82851854342772
 20
-69.38529523872437
 10
77.83903011687217
 20
-69.35432914190874
 10
77.85349364905389
 20
-69.325
 10
77.87166166492719
 20
-69.29780964274782
 10
77.89322330470335
 20
-69.27322330470336
 10
77.91780964274781
 20
-69.2516616649272
 10
77.945
 20
-69.2334936490539
  0
LWPOLYLINE
  5
3C
330
17
100
AcDbEntity
  8
CUT
100
AcDbPolyline
 90
52
 70
1
 10
97.02432914190874
 20
-80.64903011687217
 10
97.05529523872437
 20
-80.63851854342772
 10
97.087368451945
 20
-80.63213878465655
 10
97.12
 20
-80.63
 10
110.62
 20
-80.63
 10
110.65263154805501
 20
-80.63213878465655
 10
110.68470476127564
 20
-80.63851854342772
 10
110.71567085809127
 20
-80.64903011687217
 10
110.745
 20
-80.66349364905389
 10
110.77219035725219
 20
-80.68166166492719
 10
110.79677669529664
 20
-80.70322330470336
 10
110.81833833507281
 20
-80.72780964274781
 10
110.83650635094611
 20
-80.755
 10
110.85096988312783
 20
-80.78432914190873
 10
110.86148145657228
 20
-80.81529523872436
 10
110.86786121534345
 20
-80.84736845194499
 10
110.87
 20
-80.88
 10
110.87
 20
-94.38
 10
110.86786121534345
 20
-94.412631548055
 10
110.86148145657228
 20
-94.44470476127563
 10
110.85096988312783
 20
-94.47567085809126
 10
110.83650635094611
 20
-94.505
 10
110.81833833507281
 20
-94.53219035725218
 10
110.79677669529664
 20
-94.55677669529663
 10
110.77219035725219
 20
-94.5783383350728
 10
110.745
 20
-94.5965063509461
 10
110.71567085809127
 20
-94.61096988312782
 10
110.68470476127564
 20
-94.62148145657227
 10
110.65263154805501
 20
-94.62786121534344
 10
110.62
 20
-94.63
 10
97.12
 20
-94.63
 10
97.087368451945
 20
-94.62786121534344
 10
97.05529523872437
 20
-94.62148145657227
 10
97.02432914190874
 20
-94.61096988312782
 10
96.995
 20
-94.5965063509461
 10
96.96780964274782
 20
-94.5783383350728
 10
96.94322330470337
 20
-94.55677669529663
 10
96.9216616649272
 20
-94.53219035725218
 10
96.9034936490539
 20
-94.505
 10
96.88903011687218
 20
-94.47567085809126
 10
96.87851854342773
 20
-94.44470476127563
 10
96.87213878465656
 20
-94.412631548055
 10
96.87
 20
-94.38
 10
96.87
 20
-80.88
 10
96.87213878465656
 20
-80.84736845194499
 10
96.87851854342773
 20
-80.81529523872436
 10
96.88903011687218
 20
-80.78432914190873
 10
96.9034936490539
 20
-80.755
 10
96.9216616649272
 20
-80.72780964274781
 10
96.94322330470337
 20
-80.70322330470336
 10
96.96780964274782
 20
-80.68166166492719
 10
96.995
 20
-80.66349364905389
  0
LWPOLYLINE
  5
3D
330
17
100
AcDbEntity
  8
CUT
100
AcDbPolyline
 90
52
 70
1
 10
58.92432914190872
 20
-88.26903011687217
 10
58.95529523872437
 20
-88.25851854342773
 10
58.98736845194498
 20
-88.25213878465655
 10
59.019999999999996
 20
-88.25
 10
72.52
 20
-88.25
 10
72.552631548055
 20
-88.25213878465655
 10
72.58470476127563
 20
-88.25851854342773
 10
72.61567085809126
 20
-88.26903011687217
 10
72.645
 20
-88.2834936490539
 10
72.67219035725218
 20
-88.3016616649272
 10
72.69677669529663
 20
-88.32322330470336
 10
72.7183383350728
 20
-88.34780964274782
 10
72.7365063509461
 20
-88.375
 10
72.75096988312782
 20
-88.40432914190873
 10
72.76148145657227
 20
-88.43529523872436
 10
72.76786121534344
 20
-88.46736845194499
 10
72.77
 20
-88.5
 10
72.77
 20
-102.0
 10
72.76786121534344
 20
-102.03263154805501
 10
72.76148145657227
 20
-102.06470476127564
 10
72.75096988312782
 20
-102.09567085809127
 10
72.7365063509461
 20
-102.125
 10
72.7183383350728
 20
-102.15219035725218
 10
72.69677669529663
 20
-102.17677669529664
 10
72.67219035725218
 20
-102.1983383350728
 10
72.645
 20
-102.2165063509461
 10
72.61567085809126
 20
-102.23096988312783
 10
72.58470476127563
 20
-102.24148145657227
 10
72.552631548055
 20
-102.24786121534345
 10
72.52
 20
-102.25
 10
59.019999999999996
 20
-102.25
 10
58.98736845194498
 20
-102.24786121534345
 10
58.95529523872437
 20
-102.24148145657227
 10
58.92432914190872
 20
-102.23096988312783
 10
58.894999999999996
 20
-102.2165063509461
 10
58.867809642747815
 20
-102.1983383350728
 10
58.84322330470336
 20
-102.17677669529664
 10
58.821661664927184
 20
-102.15219035725218
 10
58.803493649053884
 20
-102.125
 10
58.789030116872176
 20
-102.09567085809127
 10
58.77851854342773
 20
-102.06470476127564
 10
58.77213878465654
 20
-102.03263154805501
 10
58.769999999999996
 20
-102.0
 10
58.769999999999996
 20
-88.5
 10
58.77213878465654
 20
-88.46736845194499
 10
58.77851854342773
 20
-88.43529523872436
 10
58.789030116872176
 20
-88.40432914190873
 10
58.803493649053884
 20
-88.375
 10
58.821661664927184
 20
-88.34780964274782
 10
58.84322330470336
 20
-88.32322330470336
 10
58.867809642747815
 20
-88.3016616649272
 10
58.894999999999996
 20
-88.2834936490539
  0
LWPOLYLINE
  5
3E
330
17
100
AcDbEntity
  8
CUT
100
AcDbPolyline
 90
52
 70
1
 10
77.97432914190873
 20
-88.26903011687217
 10
78.00529523872436
 20
-88.25851854342773
 10
78.03736845194499
 20
-88.25213878465655
 10
78.07
 20
-88.25
 10
91.57
 20
-88.25
 10
91.602631548055
 20
-88.25213878465655
 10
91.63470476127563
 20
-88.25851854342773
 10
91.66567085809126
 20
-88.26903011687217
 10
91.695
 20
-88.2834936490539
 10
91.72219035725217
 20
-88.3016616649272
 10
91.74677669529663
 20
-88.32322330470336
 10
91.7683383350728
 20
-88.34780964274782
 10
91.7865063509461
 20
-88.375
 10
91.80096988312782
 20
-88.40432914190873
 10
91.81148145657227
 20
-88.43529523872436
 10
91.81786121534344
 20
-88.46736845194499
 10
91.82
 20
-88.5
 10
91.82
 20
-102.0
 10
91.81786121534344
 20
-102.03263154805501
 10
91.81148145657227
 20
-102.06470476127564
 10
91.80096988312782
 20
-102.09567085809127
 10
91.7865063509461
 20
-102.125
 10
91.7683383350728
 20
-102.15219035725218
 10
91.74677669529663
 20
-102.17677669529664
 10
91.72219035725217
 20
-102.1983383350728
 10
91.695
 20
-102.2165063509461
 10
91.66567085809126
 20
-102.23096988312783
 10
91.63470476127563
 20
-102.24148145657227
 10
91.602631548055
 20
-102.24786121534345
 10
91.57
 20
-102.25
 10
78.07
 20
-102.25
 10
78.03736845194499
 20
-102.24786121534345
 10
78.00529523872436
 20
-102.24148145657227
 10
77.97432914190873
 20
-102.23096988312783
 10
77.945
 20
-102.2165063509461
 10
77.91780964274781
 20
-102.1983383350728
 10
77.89322330470335
 20
-102.17677669529664
 10
77.87166166492719
 20
-102.15219035725218
 10
77.85349364905389
 20
-102.125
 10
77.83903011687217
 20
-102.09567085809127
 10
77.82851854342772
 20
-102.06470476127564
 10
77.82213878465654
 20
-102.03263154805501
 10
77.82
 20
-102.0
 10
77.82
 20
-88.5
 10
77.82213878465654
 20
-88.46736845194499
 10
77.82851854342772
 20
-88.43529523872436
 10
77.83903011687217
 20
-88.40432914190873
 10
77.85349364905389
 20
-88.375
 10
77.87166166492719
 20
-88.34780964274782
 10
77.89322330470335
 20
-88.32322330470336
 10
77.91780964274781
 20
-88.3016616649272
 10
77.945
 20
-88.2834936490539
  0
LWPOLYLINE
  5
3F
330
17
100
AcDbEntity
  8
CUT
100
AcDbPolyline
 90
52
 70
1
 10
105.38732914190874
 20
-99.69902311687217
 10
105.41829523872437
 20
-99.68851154342772
 10
105.450368451945
 20
-99.68213178465655
 10
105.483
 20
-99.679993
 10
118.983
 20
-99.679993
 10
119.01563154805501
 20
-99.68213178465655
 10
119.04770476127564
 20
-99.68851154342772
 10
119.07867085809127
 20
-99.69902311687217
 10
119.108
 20
-99.71348664905389
 10
119.13519035725218
 20
-99.73165466492719
 10
119.15977669529664
 20
-99.75321630470336
 10
119.18133833507281
 20
-99.77780264274782
 10
119.19950635094611
 20
-99.804993
 10
119.21396988312783
 20
-99.83432214190873
 10
119.22448145657228
 20
-99.86528823872436
 10
119.23086121534345
 20
-99.89736145194499
 10
119.233
 20
-99.929993
 10
119.233
 20
-113.429993
 10
119.23086121534345
 20
-113.462624548055
 10
119.22448145657228
 20
-113.49469776127563
 10
119.21396988312783
 20
-113.52566385809126
 10
119.19950635094611
 20
-113.554993
 10
119.18133833507281
 20
-113.58218335725218
 10
119.15977669529664
 20
-113.60676969529663
 10
119.13519035725218
 20
-113.6283313350728
 10
119.108
 20
-113.6464993509461
 10
119.07867085809127
 20
-113.66096288312782
 10
119.04770476127564
 20
-113.67147445657227
 10
119.01563154805501
 20
-113.67785421534344
 10
118.983
 20
-113.679993
 10
105.483
 20
-113.679993
 10
105.450368451945
 20
-113.67785421534344
 10
105.41829523872437
 20
-113.67147445657227
 10
105.38732914190874
 20
-113.66096288312782
 10
105.358
 20
-113.6464993509461
 10
105.33080964274782
 20
-113.6283313350728
 10
105.30622330470337
 20
-113.60676969529663
 10
105.2846616649272
 20
-113.58218335725218
 10
105.2664936490539
 20
-113.554993
 10
105.25203011687218
 20
-113.52566385809126
 10
105.24151854342773
 20
-113.49469776127563
 10
105.23513878465656
 20
-113.462624548055
 10
105.233
 20
-113.429993
 10
105.233
 20
-99.929993
 10
105.23513878465656
 20
-99.89736145194499
 10
105.24151854342773
 20
-99.86528823872436
 10
105.25203011687218
 20
-99.83432214190873
 10
105.2664936490539
 20
-99.804993
 10
105.2846616649272
 20
-99.77780264274782
 10
105.30622330470337
 20
-99.75321630470336
 10
105.33080964274782
 20
-99.73165466492719
 10
105.358
 20
-99.71348664905389
  0
LWPOLYLINE
  5
40
330
17
100
AcDbEntity
  8
CUT
100
AcDbPolyline
 90
52
 70
1
 10
116.10529523872437
 20
-21.583518543427733
 10
116.137368451945
 20
-21.577138784656547
 10
116.17
 20
-21.575
 10
129.67000000000002
 20
-21.575
 10
129.70263154805502
 20
-21.577138784656547
 10
129.73470476127562
 20
-21.583518543427733
 10
129.76567085809128
 20
-21.594030116872176
 10
129.79500000000002
 20
-21.60849364905389
 10
129.82219035725217
 20
-21.62666166492719
 10
129.84677669529663
 20
-21.648223304703365
 10
129.86833833507282
 20
-21.67280964274782
 10
129.88650635094612
 20
-21.7
 10
129.90096988312783
 20
-21.729329141908728
 10
129.91148145657226
 20
-21.760295238724368
 10
129.91786121534346
 20
-21.792368451944988
 10
129.92000000000002
 20
-21.825
 10
129.92000000000002
 20
-35.325
 10
129.91786121534346
 20
-35.35763154805501
 10
129.91148145657226
 20
-35.38970476127563
 10
129.90096988312783
 20
-35.42067085809127
 10
129.88650635094612
 20
-35.45
 10
129.86833833507282
 20
-35.47719035725218
 10
129.84677669529663
 20
-35.501776695296634
 10
129.82219035725217
 20
-35.52333833507281
 10
129.79500000000002
 20
-35.54150635094611
 10
129.76567085809128
 20
-35.55596988312782
 10
129.73470476127562
 20
-35.56648145657227
 10
129.70263154805502
 20
-35.57286121534345
 10
129.67000000000002
 20
-35.575
 10
116.17
 20
-35.575
 10
116.137368451945
 20
-35.57286121534345
 10
116.10529523872437
 20
-35.56648145657227
 10
116.07432914190873
 20
-35.55596988312782
 10
116.045
 20
-35.54150635094611
 10
116.01780964274782
 20
-35.52333833507281
 10
115.99322330470336
 20
-35.501776695296634
 10
115.9716616649272
 20
-35.47719035725218
 10
115.9534936490539
 20
-35.45
 10
115.93903011687217
 20
-35.42067085809127
 10
115.92851854342773
 20
-35.38970476127563
 10
115.92213878465655
 20
-35.35763154805501
 10
115.92
 20
-35.325
 10
115.92
 20
-21.825
 10
115.92213878465655
 20
-21.792368451944988
 10
115.92851854342773
 20
-21.760295238724368
 10
115.93903011687217
 20
-21.729329141908728
 10
115.9534936490539
 20
-21.7
 10
115.9716616649272
 20
-21.67280964274782
 10
115.99322330470336
 20
-21.648223304703365
 10
116.01780964274782
 20
-21.62666166492719
 10
116.045
 20
-21.60849364905389
 10
116.07432914190873
 20
-21.594030116872176
  0
LWPOLYLINE
  5
41
330
17
100
AcDbEntity
  8
CUT
100
AcDbPolyline
 90
52
 70
1
 10
135.12432914190873
 20
-24.451530116872178
 10
135.15529523872436
 20
-24.441018543427734
 10
135.187368451945
 20
-24.43463878465655
 10
135.22
 20
-24.4325
 10
148.72
 20
-24.4325
 10
148.752631548055
 20
-24.43463878465655
 10
148.78470476127563
 20
-24.441018543427734
 10
148.81567085809127
 20
-24.451530116872178
 10
148.845
 20
-24.465993649053893
 10
148.87219035725218
 20
-24.484161664927193
 10
148.89677669529664
 20
-24.505723304703366
 10
148.9183383350728
 20
-24.53030964274782
 10
148.9365063509461
 20
-24.5575
 10
148.9509698831278
 20
-24.58682914190873
 10
148.96148145657227
 20
-24.61779523872437
 10
148.96786121534345
 20
-24.64986845194499
 10
148.97
 20
-24.6825
 10
148.97
 20
-38.182500000000005
 10
148.96786121534345
 20
-38.21513154805501
 10
148.96148145657227
 20
-38.24720476127563
 10
148.9509698831278
 20
-38.27817085809127
 10
148.9365063509461
 20
-38.307500000000005
 10
148.9183383350728
 20
-38.33469035725218
 10
148.89677669529664
 20
-38.359276695296636
 10
148.87219035725218
 20
-38.38083833507281
 10
148.845
 20
-38.39900635094611
 10
148.81567085809127
 20
-38.413469883127824
 10
148.78470476127563
 20
-38.42398145657227
 10
148.752631548055
 20
-38.43036121534345
 10
148.72
 20
-38.432500000000005
 10
135.22
 20
-38.432500000000005
 10
135.187368451945
 20
-38.43036121534345
 10
135.15529523872436
 20
-38.42398145657227
 10
135.12432914190873
 20
-38.413469883127824
 10
135.095
 20
-38.39900635094611
 10
135.06780964274782
 20
-38.38083833507281
 10
135.04322330470336
 20
-38.359276695296636
 10
135.0216616649272
 20
-38.33469035725218
 10
135.0034936490539
 20
-38.307500000000005
 10
134.9890301168722
 20
-38.27817085809127
 10
134.97851854342773
 20
-38.24720476127563
 10
134.97213878465655
 20
-38.21513154805501
 10
134.97
 20
-38.182500000000005
 10
134.97
 20
-24.6825
 10
134.97213878465655
 20
-24.64986845194499
 10
134.97851854342773
 20
-24.61779523872437
 10
134.9890301168722
 20
-24.58682914190873
 10
135.0034936490539
 20
-24.5575
 10
135.0216616649272
 20
-24.53030964274782
 10
135.04322330470336
 20
-24.505723304703366
 10
135.06780964274782
 20
-24.484161664927193
 10
135.095
 20
-24.465993649053893
  0
LWPOLYLINE
  5
42
330
17
100
AcDbEntity
  8
CUT
100
AcDbPolyline
 90
52
 70
1
 10
154.17432914190874
 20
-28.26153011687218
 10
154.20529523872437
 20
-28.251018543427733
 10
154.237368451945
 20
-28.244638784656548
 10
154.27
 20
-28.2425
 10
167.77
 20
-28.2425
 10
167.80263154805502
 20
-28.244638784656548
 10
167.83470476127565
 20
-28.251018543427733
 10
167.86567085809128
 20
-28.26153011687218
 10
167.895
 20
-28.27599364905389
 10
167.9221903572522
 20
-28.29416166492719
 10
167.94677669529665
 20
-28.31572330470336
 10
167.96833833507281
 20
-28.34030964274782
 10
167.98650635094612
 20
-28.3675
 10
168.00096988312782
 20
-28.396829141908725
 10
168.01148145657228
 20
-28.42779523872437
 10
168.01786121534346
 20
-28.459868451944985
 10
168.02
 20
-28.4925
 10
168.02
 20
-41.9925
 10
168.01786121534346
 20
-42.025131548055015
 10
168.01148145657228
 20
-42.05720476127563
 10
168.00096988312782
 20
-42.088170858091274
 10
167.98650635094612
 20
-42.1175
 10
167.96833833507281
 20
-42.14469035725218
 10
167.94677669529665
 20
-42.16927669529664
 10
167.9221903572522
 20
-42.19083833507281
 10
167.895
 20
-42.20900635094611
 10
167.86567085809128
 20
-42.22346988312782
 10
167.83470476127565
 20
-42.233981456572266
 10
167.80263154805502
 20
-42.240361215343455
 10
167.77
 20
-42.2425
 10
154.27
 20
-42.2425
 10
154.237368451945
 20
-42.240361215343455
 10
154.20529523872437
 20
-42.233981456572266
 10
154.17432914190874
 20
-42.22346988312782
 10
154.145
 20
-42.20900635094611
 10
154.11780964274783
 20
-42.19083833507281
 10
154.09322330470337
 20
-42.16927669529664
 10
154.0716616649272
 20
-42.14469035725218
 10
154.0534936490539
 20
-42.1175
 10
154.0390301168722
 20
-42.088170858091274
 10
154.02851854342774
 20
-42.05720476127563
 10
154.02213878465656
 20
-42.025131548055015
 10
154.02
 20
-41.9925
 10
154.02
 20
-28.4925
 10
154.02213878465656
 20
-28.459868451944985
 10
154.02851854342774
 20
-28.42779523872437
 10
154.0390301168722
 20
-28.396829141908725
 10
154.0534936490539
 20
-28.3675
 10
154.0716616649272
 20
-28.34030964274782
 10
154.09322330470337
 20
-28.31572330470336
 10
154.11780964274783
 20
-28.29416166492719
 10
154.145
 20
-28.27599364905389
  0
LWPOLYLINE
  5
43
330
17
100
AcDbEntity
  8
CUT
100
AcDbPolyline
 90
52
 70
1
 10
135.12432914190873
 20
-43.50153011687218
 10
135.15529523872436
 20
-43.491018543427735
 10
135.187368451945
 20
-43.484638784656546
 10
135.22
 20
-43.4825
 10
148.72
 20
-43.4825
 10
148.752631548055
 20
-43.484638784656546
 10
148.78470476127563
 20
-43.491018543427735
 10
148.81567085809127
 20
-43.50153011687218
 10
148.845
 20
-43.51599364905389
 10
148.87219035725218
 20
-43.53416166492719
 10
148.89677669529664
 20
-43.55572330470336
 10
148.9183383350728
 20
-43.58030964274782
 10
148.9365063509461
 20
-43.6075
 10
148.9509698831278
 20
-43.63682914190873
 10
148.96148145657227
 20
-43.66779523872437
 10
148.96786121534345
 20
-43.69986845194499
 10
148.97
 20
-43.7325
 10
148.97
 20
-57.2325
 10
148.96786121534345
 20
-57.26513154805502
 10
148.96148145657227
 20
-57.29720476127563
 10
148.9509698831278
 20
-57.328170858091276
 10
148.9365063509461
 20
-57.3575
 10
148.9183383350728
 20
-57.38469035725218
 10
148.89677669529664
 20
-57.40927669529664
 10
148.87219035725218
 20
-57.43083833507281
 10
148.845
 20
-57.449006350946114
 10
148.81567085809127
 20
-57.46346988312782
 10
148.78470476127563
 20
-57.47398145657227
 10
148.752631548055
 20
-57.48036121534346
 10
148.72
 20
-57.4825
 10
135.22
 20
-57.4825
 10
135.187368451945
 20
-57.48036121534346
 10
135.15529523872436
 20
-57.47398145657227
 10
135.12432914190873
 20
-57.46346988312782
 10
135.095
 20
-57.449006350946114
 10
135.06780964274782
 20
-57.43083833507281
 10
135.04322330470336
 20
-57.40927669529664
 10
135.0216616649272
 20
-57.38469035725218
 10
135.0034936490539
 20
-57.3575
 10
134.9890301168722
 20
-57.328170858091276
 10
134.97851854342773
 20
-57.29720476127563
 10
134.97213878465655
 20
-57.26513154805502
 10
134.97
 20
-57.2325
 10
134.97
 20
-43.7325
 10
134.97213878465655
 20
-43.69986845194499
 10
134.97851854342773
 20
-43.66779523872437
 10
134.9890301168722
 20
-43.63682914190873
 10
135.0034936490539
 20
-43.6075
 10
135.0216616649272
 20
-43.58030964274782
 10
135.04322330470336
 20
-43.55572330470336
 10
135.06780964274782
 20
-43.53416166492719
 10
135.095
 20
-43.51599364905389
  0
LWPOLYLINE
  5
44
330
17
100
AcDbEntity
  8
CUT
100
AcDbPolyline
 90
52
 70
1
 10
154.17432914190874
 20
-47.31153011687218
 10
154.20529523872437
 20
-47.30101854342773
 10
154.237368451945
 20
-47.29463878465654
 10
154.27
 20
-47.2925
 10
167.77
 20
-47.2925
 10
167.80263154805502
 20
-47.29463878465654
 10
167.83470476127565
 20
-47.30101854342773
 10
167.86567085809128
 20
-47.31153011687218
 10
167.895
 20
-47.325993649053885
 10
167.9221903572522
 20
-47.344161664927185
 10
167.94677669529665
 20
-47.36572330470336
 10
167.96833833507281
 20
-47.390309642747816
 10
167.98650635094612
 20
-47.4175
 10
168.00096988312782
 20
-47.44682914190872
 10
168.01148145657228
 20
-47.47779523872437
 10
168.01786121534346
 20
-47.50986845194498
 10
168.02
 20
-47.5425
 10
168.02
 20
-61.0425
 10
168.01786121534346
 20
-61.07513154805501
 10
168.01148145657228
 20
-61.107204761275625
 10
168.00096988312782
 20
-61.13817085809127
 10
167.98650635094612
 20
-61.1675
 10
167.96833833507281
 20
-61.19469035725218
 10
167.94677669529665
 20
-61.219276695296635
 10
167.9221903572522
 20
-61.24083833507281
 10
167.895
 20
-61.25900635094611
 10
167.86567085809128
 20
-61.27346988312782
 10
167.83470476127565
 20
-61.28398145657226
 10
167.80263154805502
 20
-61.29036121534345
 10
167.77
 20
-61.2925
 10
154.27
 20
-61.2925
 10
154.237368451945
 20
-61.29036121534345
 10
154.20529523872437
 20
-61.28398145657226
 10
154.17432914190874
 20
-61.27346988312782
 10
154.145
 20
-61.25900635094611
 10
154.11780964274783
 20
-61.24083833507281
 10
154.09322330470337
 20
-61.219276695296635
 10
154.0716616649272
 20
-61.19469035725218
 10
154.0534936490539
 20
-61.1675
 10
154.0390301168722
 20
-61.13817085809127
 10
154.02851854342774
 20
-61.107204761275625
 10
154.02213878465656
 20
-61.07513154805501
 10
154.02
 20
-61.0425
 10
154.02
 20
-47.5425
 10
154.02213878465656
 20
-47.50986845194498
 10
154.02851854342774
 20
-47.47779523872437
 10
154.0390301168722
 20
-47.44682914190872
 10
154.0534936490539
 20
-47.4175
 10
154.0716616649272
 20
-47.390309642747816
 10
154.09322330470337
 20
-47.36572330470336
 10
154.11780964274783
 20
-47.344161664927185
 10
154.145
 20
-47.325993649053885
  0
LWPOLYLINE
  5
45
330
17
100
AcDbEntity
  8
CUT
100
AcDbPolyline
 90
52
 70
1
 10
173.22432914190873
 20
-62.50228011687218
 10
173.25529523872436
 20
-62.49176854342773
 10
173.28736845194499
 20
-62.48538878465654
 10
173.32
 20
-62.48325
 10
186.82
 20
-62.48325
 10
186.852631548055
 20
-62.48538878465654
 10
186.88470476127563
 20
-62.49176854342773
 10
186.91567085809126
 20
-62.50228011687218
 10
186.945
 20
-62.516743649053886
 10
186.97219035725217
 20
-62.534911664927186
 10
186.99677669529663
 20
-62.55647330470336
 10
187.0183383350728
 20
-62.58105964274782
 10
187.0365063509461
 20
-62.60825
 10
187.0509698831278
 20
-62.637579141908724
 10
187.06148145657227
 20
-62.66854523872437
 10
187.06786121534344
 20
-62.70061845194498
 10
187.07
 20
-62.73325
 10
187.07
 20
-76.23325
 10
187.06786121534344
 20
-76.265881548055
 10
187.06148145657227
 20
-76.29795476127563
 10
187.0509698831278
 20
-76.32892085809127
 10
187.0365063509461
 20
-76.35825
 10
187.0183383350728
 20
-76.38544035725218
 10
186.99677669529663
 20
-76.41002669529664
 10
186.97219035725217
 20
-76.4315883350728
 10
186.945
 20
-76.4497563509461
 10
186.91567085809126
 20
-76.46421988312783
 10
186.88470476127563
 20
-76.47473145657227
 10
186.852631548055
 20
-76.48111121534345
 10
186.82
 20
-76.48325
 10
173.32
 20
-76.48325
 10
173.28736845194499
 20
-76.48111121534345
 10
173.25529523872436
 20
-76.47473145657227
 10
173.22432914190873
 20
-76.46421988312783
 10
173.195
 20
-76.4497563509461
 10
173.1678096427478
 20
-76.4315883350728
 10
173.14322330470335
 20
-76.41002669529664
 10
173.1216616649272
 20
-76.38544035725218
 10
173.1034936490539
 20
-76.35825
 10
173.08903011687218
 20
-76.32892085809127
 10
173.07851854342772
 20
-76.29795476127563
 10
173.07213878465654
 20
-76.265881548055
 10
173.07
 20
-76.23325
 10
173.07
 20
-62.73325
 10
173.07213878465654
 20
-62.70061845194498
 10
173.07851854342772
 20
-62.66854523872437
 10
173.08903011687218
 20
-62.637579141908724
 10
173.1034936490539
 20
-62.60825
 10
173.1216616649272
 20
-62.58105964274782
 10
173.14322330470335
 20
-62.55647330470336
 10
173.1678096427478
 20
-62.534911664927186
 10
173.195
 20
-62.516743649053886
  0
LWPOLYLINE
  5
46
330
17
100
AcDbEntity
  8
CUT
100
AcDbPolyline
 90
52
 70
1
 10
135.12432914190873
 20
-62.55153011687218
 10
135.15529523872436
 20
-62.54101854342773
 10
135.187368451945
 20
-62.53463878465654
 10
135.22
 20
-62.5325
 10
148.72
 20
-62.5325
 10
148.752631548055
 20
-62.53463878465654
 10
148.78470476127563
 20
-62.54101854342773
 10
148.81567085809127
 20
-62.55153011687218
 10
148.845
 20
-62.56599364905389
 10
148.87219035725218
 20
-62.58416166492719
 10
148.89677669529664
 20
-62.60572330470336
 10
148.9183383350728
 20
-62.63030964274782
 10
148.9365063509461
 20
-62.6575
 10
148.9509698831278
 20
-62.686829141908724
 10
148.96148145657227
 20
-62.71779523872437
 10
148.96786121534345
 20
-62.749868451944984
 10
148.97
 20
-62.7825
 10
148.97
 20
-76.2825
 10
148.96786121534345
 20
-76.315131548055
 10
148.96148145657227
 20
-76.34720476127563
 10
148.9509698831278
 20
-76.37817085809127
 10
148.9365063509461
 20
-76.4075
 10
148.9183383350728
 20
-76.43469035725218
 10
148.89677669529664
 20
-76.45927669529664
 10
148.87219035725218
 20
-76.4808383350728
 10
148.845
 20
-76.4990063509461
 10
148.81567085809127
 20
-76.51346988312783
 10
148.78470476127563
 20
-76.52398145657227
 10
148.752631548055
 20
-76.53036121534345
 10
148.72
 20
-76.5325
 10
135.22
 20
-76.5325
 10
135.187368451945
 20
-76.53036121534345
 10
135.15529523872436
 20
-76.52398145657227
 10
135.12432914190873
 20
-76.51346988312783
 10
135.095
 20
-76.4990063509461
 10
135.06780964274782
 20
-76.4808383350728
 10
135.04322330470336
 20
-76.45927669529664
 10
135.0216616649272
 20
-76.43469035725218
 10
135.0034936490539
 20
-76.4075
 10
134.9890301168722
 20
-76.37817085809127
 10
134.97851854342773
 20
-76.34720476127563
 10
134.97213878465655
 20
-76.315131548055
 10
134.97
 20
-76.2825
 10
134.97
 20
-62.7825
 10
134.97213878465655
 20
-62.749868451944984
 10
134.97851854342773
 20
-62.71779523872437
 10
134.9890301168722
 20
-62.686829141908724
 10
135.0034936490539
 20
-62.6575
 10
135.0216616649272
 20
-62.63030964274782
 10
135.04322330470336
 20
-62.60572330470336
 10
135.06780964274782
 20
-62.58416166492719
 10
135.095
 20
-62.56599364905389
  0
LWPOLYLINE
  5
47
330
17
100
AcDbEntity
  8
CUT
100
AcDbPolyline
 90
52
 70
1
 10
154.17432914190874
 20
-66.36153011687217
 10
154.20529523872437
 20
-66.35101854342773
 10
154.237368451945
 20
-66.34463878465655
 10
154.27
 20
-66.3425
 10
167.77
 20
-66.3425
 10
167.80263154805502
 20
-66.34463878465655
 10
167.83470476127565
 20
-66.35101854342773
 10
167.86567085809128
 20
-66.36153011687217
 10
167.895
 20
-66.3759936490539
 10
167.9221903572522
 20
-66.3941616649272
 10
167.94677669529665
 20
-66.41572330470336
 10
167.96833833507281
 20
-66.44030964274782
 10
167.98650635094612
 20
-66.4675
 10
168.00096988312782
 20
-66.49682914190873
 10
168.01148145657228
 20
-66.52779523872437
 10
168.01786121534346
 20
-66.559868451945
 10
168.02
 20
-66.5925
 10
168.02
 20
-80.0925
 10
168.01786121534346
 20
-80.12513154805501
 10
168.01148145657228
 20
-80.15720476127564
 10
168.00096988312782
 20
-80.18817085809127
 10
167.98650635094612
 20
-80.2175
 10
167.96833833507281
 20
-80.24469035725218
 10
167.94677669529665
 20
-80.26927669529664
 10
167.9221903572522
 20
-80.2908383350728
 10
167.895
 20
-80.3090063509461
 10
167.86567085809128
 20
-80.32346988312783
 10
167.83470476127565
 20
-80.33398145657227
 10
167.80263154805502
 20
-80.34036121534345
 10
167.77
 20
-80.3425
 10
154.27
 20
-80.3425
 10
154.237368451945
 20
-80.34036121534345
 10
154.20529523872437
 20
-80.33398145657227
 10
154.17432914190874
 20
-80.32346988312783
 10
154.145
 20
-80.3090063509461
 10
154.11780964274783
 20
-80.2908383350728
 10
154.09322330470337
 20
-80.26927669529664
 10
154.0716616649272
 20
-80.24469035725218
 10
154.0534936490539
 20
-80.2175
 10
154.0390301168722
 20
-80.18817085809127
 10
154.02851854342774
 20
-80.15720476127564
 10
154.02213878465656
 20
-80.12513154805501
 10
154.02
 20
-80.0925
 10
154.02
 20
-66.5925
 10
154.02213878465656
 20
-66.559868451945
 10
154.02851854342774
 20
-66.52779523872437
 10
154.0390301168722
 20
-66.49682914190873
 10
154.0534936490539
 20
-66.4675
 10
154.0716616649272
 20
-66.44030964274782
 10
154.09322330470337
 20
-66.41572330470336
 10
154.11780964274783
 20
-66.3941616649272
 10
154.145
 20
-66.3759936490539
  0
LWPOLYLINE
  5
48
330
17
100
AcDbEntity
  8
CUT
100
AcDbPolyline
 90
52
 70
1
 10
116.07432914190873
 20
-78.74403011687217
 10
116.10529523872437
 20
-78.73351854342772
 10
116.137368451945
 20
-78.72713878465655
 10
116.17
 20
-78.725
 10
129.67000000000002
 20
-78.725
 10
129.70263154805502
 20
-78.72713878465655
 10
129.73470476127562
 20
-78.73351854342772
 10
129.76567085809128
 20
-78.74403011687217
 10
129.79500000000002
 20
-78.75849364905389
 10
129.82219035725217
 20
-78.77666166492719
 10
129.84677669529663
 20
-78.79822330470336
 10
129.86833833507282
 20
-78.82280964274781
 10
129.88650635094612
 20
-78.85
 10
129.90096988312783
 20
-78.87932914190873
 10
129.91148145657226
 20
-78.91029523872436
 10
129.91786121534346
 20
-78.94236845194499
 10
129.92000000000002
 20
-78.975
 10
129.92000000000002
 20
-92.475
 10
129.91786121534346
 20
-92.507631548055
 10
129.91148145657226
 20
-92.53970476127563
 10
129.90096988312783
 20
-92.57067085809126
 10
129.88650635094612
 20
-92.6
 10
129.86833833507282
 20
-92.62719035725218
 10
129.84677669529663
 20
-92.65177669529663
 10
129.82219035725217
 20
-92.6733383350728
 10
129.79500000000002
 20
-92.6915063509461
 10
129.76567085809128
 20
-92.70596988312782
 10
129.73470476127562
 20
-92.71648145657227
 10
129.70263154805502
 20
-92.72286121534344
 10
129.67000000000002
 20
-92.725
 10
116.17
 20
-92.725
 10
116.137368451945
 20
-92.72286121534344
 10
116.10529523872437
 20
-92.71648145657227
 10
116.07432914190873
 20
-92.70596988312782
 10
116.045
 20
-92.6915063509461
 10
116.01780964274782
 20
-92.6733383350728
 10
115.99322330470336
 20
-92.65177669529663
 10
115.9716616649272
 20
-92.62719035725218
 10
115.9534936490539
 20
-92.6
 10
115.93903011687217
 20
-92.57067085809126
 10
115.92851854342773
 20
-92.53970476127563
 10
115.92213878465655
 20
-92.507631548055
 10
115.92
 20
-92.475
 10
115.92
 20
-78.975
 10
115.92213878465655
 20
-78.94236845194499
 10
115.92851854342773
 20
-78.91029523872436
 10
115.93903011687217
 20
-78.87932914190873
 10
115.9534936490539
 20
-78.85
 10
115.9716616649272
 20
-78.82280964274781
 10
115.99322330470336
 20
-78.79822330470336
 10
116.01780964274782
 20
-78.77666166492719
 10
116.045
 20
-78.75849364905389
  0
LWPOLYLINE
  5
49
330
17
100
AcDbEntity
  8
CUT
100
AcDbPolyline
 90
52
 70
1
 10
173.22432914190873
 20
-81.55228011687217
 10
173.25529523872436
 20
-81.54176854342772
 10
173.28736845194499
 20
-81.53538878465655
 10
173.32
 20
-81.53325
 10
186.82
 20
-81.53325
 10
186.852631548055
 20
-81.53538878465655
 10
186.88470476127563
 20
-81.54176854342772
 10
186.91567085809126
 20
-81.55228011687217
 10
186.945
 20
-81.56674364905389
 10
186.97219035725217
 20
-81.58491166492719
 10
186.99677669529663
 20
-81.60647330470336
 10
187.0183383350728
 20
-81.63105964274781
 10
187.0365063509461
 20
-81.65825
 10
187.0509698831278
 20
-81.68757914190873
 10
187.06148145657227
 20
-81.71854523872436
 10
187.06786121534344
 20
-81.75061845194499
 10
187.07
 20
-81.78325
 10
187.07
 20
-95.28325
 10
187.06786121534344
 20
-95.315881548055
 10
187.06148145657227
 20
-95.34795476127563
 10
187.0509698831278
 20
-95.37892085809126
 10
187.0365063509461
 20
-95.40825
 10
187.0183383350728
 20
-95.43544035725218
 10
186.99677669529663
 20
-95.46002669529663
 10
186.97219035725217
 20
-95.4815883350728
 10
186.945
 20
-95.4997563509461
 10
186.91567085809126
 20
-95.51421988312782
 10
186.88470476127563
 20
-95.52473145657227
 10
186.852631548055
 20
-95.53111121534344
 10
186.82
 20
-95.53325
 10
173.32
 20
-95.53325
 10
173.28736845194499
 20
-95.53111121534344
 10
173.25529523872436
 20
-95.52473145657227
 10
173.22432914190873
 20
-95.51421988312782
 10
173.195
 20
-95.4997563509461
 10
173.1678096427478
 20
-95.4815883350728
 10
173.14322330470335
 20
-95.46002669529663
 10
173.1216616649272
 20
-95.43544035725218
 10
173.1034936490539
 20
-95.40825
 10
173.08903011687218
 20
-95.37892085809126
 10
173.07851854342772
 20
-95.34795476127563
 10
173.07213878465654
 20
-95.315881548055
 10
173.07
 20
-95.28325
 10
173.07
 20
-81.78325
 10
173.07213878465654
 20
-81.75061845194499
 10
173.07851854342772
 20
-81.71854523872436
 10
173.08903011687218
 20
-81.68757914190873
 10
173.1034936490539
 20
-81.65825
 10
173.1216616649272
 20
-81.63105964274781
 10
173.14322330470335
 20
-81.60647330470336
 10
173.1678096427478
 20
-81.58491166492719
 10
173.195
 20
-81.56674364905389
  0
LWPOLYLINE
  5
4A
330
17
100
AcDbEntity
  8
CUT
100
AcDbPolyline
 90
52
 70
1
 10
135.12432914190873
 20
-81.60153011687217
 10
135.15529523872436
 20
-81.59101854342772
 10
135.187368451945
 20
-81.58463878465655
 10
135.22
 20
-81.5825
 10
148.72
 20
-81.5825
 10
148.752631548055
 20
-81.58463878465655
 10
148.78470476127563
 20
-81.59101854342772
 10
148.81567085809127
 20
-81.60153011687217
 10
148.845
 20
-81.61599364905389
 10
148.87219035725218
 20
-81.63416166492719
 10
148.89677669529664
 20
-81.65572330470336
 10
148.9183383350728
 20
-81.68030964274782
 10
148.9365063509461
 20
-81.7075
 10
148.9509698831278
 20
-81.73682914190873
 10
148.96148145657227
 20
-81.76779523872436
 10
148.96786121534345
 20
-81.79986845194499
 10
148.97
 20
-81.8325
 10
148.97
 20
-95.3325
 10
148.96786121534345
 20
-95.365131548055
 10
148.96148145657227
 20
-95.39720476127563
 10
148.9509698831278
 20
-95.42817085809126
 10
148.9365063509461
 20
-95.4575
 10
148.9183383350728
 20
-95.48469035725218
 10
148.89677669529664
 20
-95.50927669529663
 10
148.87219035725218
 20
-95.5308383350728
 10
148.845
 20
-95.5490063509461
 10
148.81567085809127
 20
-95.56346988312782
 10
148.78470476127563
 20
-95.57398145657227
 10
148.752631548055
 20
-95.58036121534344
 10
148.72
 20
-95.5825
 10
135.22
 20
-95.5825
 10
135.187368451945
 20
-95.58036121534344
 10
135.15529523872436
 20
-95.57398145657227
 10
135.12432914190873
 20
-95.56346988312782
 10
135.095
 20
-95.5490063509461
 10
135.06780964274782
 20
-95.5308383350728
 10
135.04322330470336
 20
-95.50927669529663
 10
135.0216616649272
 20
-95.48469035725218
 10
135.0034936490539
 20
-95.4575
 10
134.9890301168722
 20
-95.42817085809126
 10
134.97851854342773
 20
-95.39720476127563
 10
134.97213878465655
 20
-95.365131548055
 10
134.97
 20
-95.3325
 10
134.97
 20
-81.8325
 10
134.97213878465655
 20
-81.79986845194499
 10
134.97851854342773
 20
-81.76779523872436
 10
134.9890301168722
 20
-81.73682914190873
 10
135.0034936490539
 20
-81.7075
 10
135.0216616649272
 20
-81.68030964274782
 10
135.04322330470336
 20
-81.65572330470336
 10
135.06780964274782
 20
-81.63416166492719
 10
135.095
 20
-81.61599364905389
  0
LWPOLYLINE
  5
4B
330
17
100
AcDbEntity
  8
CUT
100
AcDbPolyline
 90
52
 70
1
 10
154.17432914190874
 20
-85.41153011687217
 10
154.20529523872437
 20
-85.40101854342772
 10
154.237368451945
 20
-85.39463878465655
 10
154.27
 20
-85.3925
 10
167.77
 20
-85.3925
 10
167.80263154805502
 20
-85.39463878465655
 10
167.83470476127565
 20
-85.40101854342772
 10
167.86567085809128
 20
-85.41153011687217
 10
167.895
 20
-85.4259936490539
 10
167.9221903572522
 20
-85.4441616649272
 10
167.94677669529665
 20
-85.46572330470336
 10
167.96833833507281
 20
-85.49030964274782
 10
167.98650635094612
 20
-85.5175
 10
168.00096988312782
 20
-85.54682914190873
 10
168.01148145657228
 20
-85.57779523872436
 10
168.01786121534346
 20
-85.60986845194499
 10
168.02
 20
-85.6425
 10
168.02
 20
-99.1425
 10
168.01786121534346
 20
-99.175131548055
 10
168.01148145657228
 20
-99.20720476127563
 10
168.00096988312782
 20
-99.23817085809127
 10
167.98650635094612
 20
-99.2675
 10
167.96833833507281
 20
-99.29469035725218
 10
167.94677669529665
 20
-99.31927669529664
 10
167.9221903572522
 20
-99.3408383350728
 10
167.895
 20
-99.3590063509461
 10
167.86567085809128
 20
-99.37346988312783
 10
167.83470476127565
 20
-99.38398145657227
 10
167.80263154805502
 20
-99.39036121534345
 10
167.77
 20
-99.3925
 10
154.27
 20
-99.3925
 10
154.237368451945
 20
-99.39036121534345
 10
154.20529523872437
 20
-99.38398145657227
 10
154.17432914190874
 20
-99.37346988312783
 10
154.145
 20
-99.3590063509461
 10
154.11780964274783
 20
-99.3408383350728
 10
154.09322330470337
 20
-99.31927669529664
 10
154.0716616649272
 20
-99.29469035725218
 10
154.0534936490539
 20
-99.2675
 10
154.0390301168722
 20
-99.23817085809127
 10
154.02851854342774
 20
-99.20720476127563
 10
154.02213878465656
 20
-99.175131548055
 10
154.02
 20
-99.1425
 10
154.02
 20
-85.6425
 10
154.02213878465656
 20
-85.60986845194499
 10
154.02851854342774
 20
-85.57779523872436
 10
154.0390301168722
 20
-85.54682914190873
 10
154.0534936490539
 20
-85.5175
 10
154.0716616649272
 20
-85.49030964274782
 10
154.09322330470337
 20
-85.46572330470336
 10
154.11780964274783
 20
-85.4441616649272
 10
154.145
 20
-85.4259936490539
  0
LWPOLYLINE
  5
4C
330
17
100
AcDbEntity
  8
CUT
100
AcDbPolyline
 90
52
 70
1
 10
126.56859422193651
 20
-100.18964093166917
 10
126.60066743515712
 20
-100.18326117289799
 10
126.63329898321213
 20
-100.18112238824143
 10
126.66593053126715
 20
-100.18326117289799
 10
140.0504361598136
 20
-101.94536476786868
 10
140.0825093730342
 20
-101.95174452663987
 10
140.11347546984985
 20
-101.96225610008432
 10
140.14280461175858
 20
-101.97671963226603
 10
140.16999496901076
 20
-101.99488764813933
 10
140.19458130705522
 20
-102.01644928791549
 10
140.21614294683138
 20
-102.04103562595995
 10
140.23431096270468
 20
-102.06822598321213
 10
140.2487744948864
 20
-102.09755512512086
 10
140.25928606833085
 20
-102.12852122193651
 10
140.26566582710203
 20
-102.16059443515712
 10
140.26780461175858
 20
-102.19322598321213
 10
140.26566582710203
 20
-102.22585753126715
 10
138.50356223213134
 20
-115.61036315981359
 10
138.49718247336014
 20
-115.6424363730342
 10
138.4866708999157
 20
-115.67340246984985
 10
138.47220736773397
 20
-115.70273161175858
 10
138.45403935186067
 20
-115.72992196901076
 10
138.4324777120845
 20
-115.75450830705522
 10
138.40789137404005
 20
-115.77606994683138
 10
138.38070101678787
 20
-115.79423796270468
 10
138.35137187487913
 20
-115.80870149488639
 10
138.3204057780635
 20
-115.81921306833084
 10
138.2883325648429
 20
-115.82559282710203
 10
138.25570101678787
 20
-115.82773161175858
 10
138.22306946873286
 20
-115.82559282710203
 10
124.83856384018642
 20
-114.06348923213133
 10
124.80649062696581
 20
-114.05710947336014
 10
124.77552453015016
 20
-114.0465978999157
 10
124.74619538824143
 20
-114.03213436773399
 10
124.71900503098925
 20
-114.01396635186069
 10
124.6944186929448
 20
-113.99240471208452
 10
124.67285705316863
 20
-113.96781837404006
 10
124.65468903729533
 20
-113.94062801678788
 10
124.64022550511362
 20
-113.91129887487915
 10
124.62971393166917
 20
-113.8803327780635
 10
124.62333417289798
 20
-113.84825956484289
 10
124.62119538824143
 20
-113.81562801678788
 10
124.62333417289798
 20
-113.78299646873286
 10
126.38543776786868
 20
-100.39849084018643
 10
126.39181752663987
 20
-100.36641762696581
 10
126.40232910008432
 20
-100.33545153015017
 10
126.41679263226602
 20
-100.30612238824143
 10
126.43496064813932
 20
-100.27893203098925
 10
126.45652228791549
 20
-100.2543456929448
 10
126.48110862595995
 20
-100.23278405316863
 10
126.50829898321213
 20
-100.21461603729533
 10
126.53762812512086
 20
-100.20015250511362
  0
LWPOLYLINE
  5
4D
330
17
100
AcDbEntity
  8
CUT
100
AcDbPolyline
 90
52
 70
1
 10
147.5034376789358
 20
-103.44111090276333
 10
147.5360692269908
 20
-103.43897211810678
 10
147.56870077504584
 20
-103.44111090276333
 10
147.60077398826644
 20
-103.44749066153452
 10
160.64077264316887
 20
-106.94154777041854
 10
160.6717387399845
 20
-106.95205934386298
 10
160.70106788189324
 20
-106.96652287604469
 10
160.72825823914542
 20
-106.98469089191799
 10
160.75284457718988
 20
-107.00625253169417
 10
160.77440621696604
 20
-107.03083886973863
 10
160.79257423283934
 20
-107.05802922699081
 10
160.80703776502105
 20
-107.08735836889953
 10
160.8175493384655
 20
-107.11832446571518
 10
160.8239290972367
 20
-107.15039767893579
 10
160.82606788189324
 20
-107.18302922699081
 10
160.8239290972367
 20
-107.21566077504582
 10
160.8175493384655
 20
-107.24773398826643
 10
157.32349222958146
 20
-120.28773264316885
 10
157.31298065613703
 20
-120.3186987399845
 10
157.29851712395532
 20
-120.34802788189323
 10
157.28034910808202
 20
-120.37521823914541
 10
157.25878746830585
 20
-120.39980457718987
 10
157.2342011302614
 20
-120.42136621696604
 10
157.20701077300922
 20
-120.43953423283934
 10
157.17768163110048
 20
-120.45399776502106
 10
157.14671553428482
 20
-120.46450933846549
 10
157.11464232106422
 20
-120.47088909723668
 10
157.08201077300922
 20
-120.47302788189323
 10
157.04937922495418
 20
-120.47088909723668
 10
157.01730601173358
 20
-120.46450933846549
 10
143.97730735683115
 20
-116.97045222958147
 10
143.94634126001552
 20
-116.95994065613702
 10
143.91701211810678
 20
-116.94547712395531
 10
143.8898217608546
 20
-116.92730910808201
 10
143.86523542281014
 20
-116.90574746830583
 10
143.84367378303398
 20
-116.88116113026138
 10
143.82550576716068
 20
-116.8539707730092
 10
143.81104223497897
 20
-116.82464163110048
 10
143.8005306615345
 20
-116.79367553428483
 10
143.79415090276333
 20
-116.76160232106422
 10
143.79201211810678
 20
-116.7289707730092
 10
143.79415090276333
 20
-116.69633922495419
 10
143.8005306615345
 20
-116.66426601173357
 10
147.29458777041856
 20
-103.62426735683115
 10
147.305099343863
 20
-103.59330126001551
 10
147.3195628760447
 20
-103.56397211810678
 10
147.337730891918
 20
-103.5367817608546
 10
147.35929253169417
 20
-103.51219542281014
 10
147.38387886973862
 20
-103.49063378303397
 10
147.4110692269908
 20
-103.47246576716067
 10
147.44039836889954
 20
-103.45800223497895
 10
147.4713644657152
 20
-103.44749066153452
  0
LWPOLYLINE
  5
4E
330
17
100
AcDbEntity
  8
CUT
100
AcDbPolyline
 90
52
 70
1
 10
167.83592632401317
 20
-109.39769998708445
 10
167.86855787206818
 20
-109.399838771741
 10
167.9006310852888
 20
-109.40621853051219
 10
167.93159718210444
 20
-109.41673010395664
 10
180.4039708710068
 20
-114.58295644088535
 10
180.43330001291554
 20
-114.59741997306706
 10
180.46049037016772
 20
-114.61558798894036
 10
180.48507670821218
 20
-114.63714962871653
 10
180.50663834798834
 20
-114.66173596676099
 10
180.52480636386164
 20
-114.68892632401317
 10
180.53926989604338
 20
-114.7182554659219
 10
180.5497814694878
 20
-114.74922156273755
 10
180.556161228259
 20
-114.78129477595816
 10
180.55830001291554
 20
-114.81392632401317
 10
180.556161228259
 20
-114.84655787206819
 10
180.5497814694878
 20
-114.8786310852888
 10
180.53926989604338
 20
-114.90959718210445
 10
175.37304355911465
 20
-127.38197087100681
 10
175.35858002693294
 20
-127.41130001291555
 10
175.34041201105964
 20
-127.43849037016773
 10
175.31885037128347
 20
-127.46307670821218
 10
175.29426403323902
 20
-127.48463834798835
 10
175.26707367598684
 20
-127.50280636386165
 10
175.2377445340781
 20
-127.51726989604336
 10
175.20677843726247
 20
-127.5277814694878
 10
175.17470522404184
 20
-127.534161228259
 10
175.14207367598684
 20
-127.53630001291555
 10
175.10944212793183
 20
-127.534161228259
 10
175.0773689147112
 20
-127.5277814694878
 10
175.04640281789557
 20
-127.51726989604336
 10
162.5740291289932
 20
-122.35104355911464
 10
162.54469998708447
 20
-122.33658002693294
 10
162.5175096298323
 20
-122.31841201105964
 10
162.49292329178783
 20
-122.29685037128347
 10
162.47136165201167
 20
-122.27226403323901
 10
162.45319363613837
 20
-122.24507367598683
 10
162.43873010395663
 20
-122.2157445340781
 10
162.4282185305122
 20
-122.18477843726245
 10
162.42183877174102
 20
-122.15270522404184
 10
162.41969998708447
 20
-122.12007367598683
 10
162.42183877174102
 20
-122.08744212793181
 10
162.4282185305122
 20
-122.0553689147112
 10
162.43873010395663
 20
-122.02440281789555
 10
167.60495644088536
 20
-109.55202912899318
 10
167.61941997306707
 20
-109.52269998708445
 10
167.63758798894037
 20
-109.49550962983227
 10
167.65914962871653
 20
-109.47092329178781
 10
167.683735966761
 20
-109.44936165201165
 10
167.71092632401317
 20
-109.43119363613835
 10
167.7402554659219
 20
-109.41673010395664
 10
167.77122156273754
 20
-109.40621853051219
 10
167.80329477595816
 20
-109.399838771741
  0
ENDSEC
  0
SECTION
  2
OBJECTS
  0
DICTIONARY
  5
A
330
0
100
AcDbDictionary
281
1
  3
ACAD_COLOR
350
B
  3
ACAD_GROUP
350
C
  3
ACAD_LAYOUT
350
D
  3
ACAD_MATERIAL
350
E
  3
ACAD_MLEADERSTYLE
350
F
  3
ACAD_MLINESTYLE
350
10
  3
ACAD_PLOTSETTINGS
350
11
  3
ACAD_PLOTSTYLENAME
350
12
  3
ACAD_SCALELIST
350
14
  3
ACAD_TABLESTYLE
350
15
  3
ACAD_VISUALSTYLE
350
16
  3
EZDXF_META
350
2D
  0
DICTIONARY
  5
B
330
A
100
AcDbDictionary
281
1
  0
DICTIONARY
  5
C
330
A
100
AcDbDictionary
281
1
  0
DICTIONARY
  5
D
330
A
100
AcDbDictionary
281
1
  3
Model
350
1A
  3
Layout1
350
1E
  0
DICTIONARY
  5
E
330
A
100
AcDbDictionary
281
1
  3
ByBlock
350
1F
  3
ByLayer
350
20
  3
Global
350
21
  0
DICTIONARY
  5
F
330
A
100
AcDbDictionary
281
1
  3
Standard
350
2C
  0
DICTIONARY
  5
10
330
A
100
AcDbDictionary
281
1
  3
Standard
350
22
  0
DICTIONARY
  5
11
330
A
100
AcDbDictionary
281
1
  0
ACDBDICTIONARYWDFLT
  5
12
330
A
100
AcDbDictionary
281
1
  3
Normal
350
13
100
AcDbDictionaryWithDefault
340
13
  0
ACDBPLACEHOLDER
  5
13
330
12
  0
DICTIONARY
  5
14
330
A
100
AcDbDictionary
281
1
  0
DICTIONARY
  5
15
330
A
100
AcDbDictionary
281
1
  0
DICTIONARY
  5
16
330
A
100
AcDbDictionary
281
1
  0
LAYOUT
  5
1A
330
D
100
AcDbPlotSettings
  1

  4
A3
  6

 40
7.5
 41
20.0
 42
7.5
 43
20.0
 44
420.0
 45
297.0
 46
0.0
 47
0.0
 48
0.0
 49
0.0
140
0.0
141
0.0
142
1.0
143
1.0
 70
1024
 72
1
 73
0
 74
5
  7

 75
16
 76
0
 77
2
 78
300
147
1.0
148
0.0
149
0.0
100
AcDbLayout
  1
Model
 70
1
 71
0
 10
0.0
 20
0.0
 11
420.0
 21
297.0
 12
0.0
 22
0.0
 32
0.0
 14
1e+20
 24
1e+20
 34
1e+20
 15
-1e+20
 25
-1e+20
 35
-1e+20
146
0.0
 13
0.0
 23
0.0
 33
0.0
 16
1.0
 26
0.0
 36
0.0
 17
0.0
 27
1.0
 37
0.0
 76
1
330
17
  0
LAYOUT
  5
1E
330
D
100
AcDbPlotSettings
  1

  4
A3
  6

 40
7.5
 41
20.0
 42
7.5
 43
20.0
 44
420.0
 45
297.0
 46
0.0
 47
0.0
 48
0.0
 49
0.0
140
0.0
141
0.0
142
1.0
143
1.0
 70
0
 72
1
 73
0
 74
5
  7

 75
16
 76
0
 77
2
 78
300
147
1.0
148
0.0
149
0.0
100
AcDbLayout
  1
Layout1
 70
1
 71
1
 10
0.0
 20
0.0
 11
420.0
 21
297.0
 12
0.0
 22
0.0
 32
0.0
 14
1e+20
 24
1e+20
 34
1e+20
 15
-1e+20
 25
-1e+20
 35
-1e+20
146
0.0
 13
0.0
 23
0.0
 33
0.0
 16
1.0
 26
0.0
 36
0.0
 17
0.0
 27
1.0
 37
0.0
 76
1
330
1B
  0
MATERIAL
  5
1F
102
{ACAD_REACTORS
330
E
102
}
330
E
100
AcDbMaterial
  1
ByBlock
  2

 70
0
 40
1.0
 71
1
 41
1.0
 91
-1023410177
 42
1.0
 72
1
  3

 73
1
 74
1
 75
1
 44
0.5
 73
0
 45
1.0
 46
1.0
 77
1
  4

 78
1
 79
1
170
1
 48
1.0
171
1
  6

172
1
173
1
174
1
140
1.0
141
1.0
175
1
  7

176
1
177
1
178
1
143
1.0
179
1
  8

270
1
271
1
272
1
145
1.0
146
1.0
273
1
  9

274
1
275
1
276
1
 42
1.0
 72
1
  3

 73
1
 74
1
 75
1
 94
63
  0
MATERIAL
  5
20
102
{ACAD_REACTORS
330
E
102
}
330
E
100
AcDbMaterial
  1
ByLayer
  2

 70
0
 40
1.0
 71
1
 41
1.0
 91
-1023410177
 42
1.0
 72
1
  3

 73
1
 74
1
 75
1
 44
0.5
 73
0
 45
1.0
 46
1.0
 77
1
  4

 78
1
 79
1
170
1
 48
1.0
171
1
  6

172
1
173
1
174
1
140
1.0
141
1.0
175
1
  7

176
1
177
1
178
1
143
1.0
179
1
  8

270
1
271
1
272
1
145
1.0
146
1.0
273
1
  9

274
1
275
1
276
1
 42
1.0
 72
1
  3

 73
1
 74
1
 75
1
 94
63
  0
MATERIAL
  5
21
102
{ACAD_REACTORS
330
E
102
}
330
E
100
AcDbMaterial
  1
Global
  2

 70
0
 40
1.0
 71
1
 41
1.0
 91
-1023410177
 42
1.0
 72
1
  3

 73
1
 74
1
 75
1
 44
0.5
 73
0
 45
1.0
 46
1.0
 77
1
  4

 78
1
 79
1
170
1
 48
1.0
171
1
  6

172
1
173
1
174
1
140
1.0
141
1.0
175
1
  7

176
1
177
1
178
1
143
1.0
179
1
  8

270
1
271
1
272
1
145
1.0
146
1.0
273
1
  9

274
1
275
1
276
1
 42
1.0
 72
1
  3

 73
1
 74
1
 75
1
 94
63
  0
MLINESTYLE
  5
22
102
{ACAD_REACTORS
330
10
102
}
330
10
100
AcDbMlineStyle
  2
Standard
 70
0
  3

 62
256
 51
90.0
 52
90.0
 71
2
 49
0.5
 62
256
  6
BYLAYER
 49
-0.5
 62
256
  6
BYLAYER
  0
MLEADERSTYLE
  5
2C
102
{ACAD_REACTORS
330
F
102
}
330
F
100
AcDbMLeaderStyle
179
2
170
2
171
1
172
0
 90
2
 40
0.0
 41
0.0
173
1
 91
-1056964608
 92
-2
290
1
 42
2.0
291
1
 43
8.0
  3
Standard
 44
4.0
300

342
29
174
1
175
1
176
0
178
1
 93
-1056964608
 45
4.0
292
0
297
0
 46
4.0
 94
-1056964608
 47
1.0
 49
1.0
140
1.0
294
1
141
0.0
177
0
142
1.0
295
0
296
0
143
3.75
271
0
272
9
273
9
  0
DICTIONARY
  5
2D
330
A
100
AcDbDictionary
280
1
281
1
  3
CREATED_BY_EZDXF
350
2E
  3
WRITTEN_BY_EZDXF
350
51
  0
DICTIONARYVAR
  5
2E
330
2D
100
DictionaryVariables
280
0
  1
1.4.4 @ 2026-09-13T15:56:34.409288+00:00
  0
DICTIONARYVAR
  5
51
330
2D
100
DictionaryVariables
280
0
  1
1.4.4 @ 2026-09-13T15:56:34.413750+00:00
  0
ENDSEC
  0
EOF
