0
SECTION
2
HEADER
9
$INSUNITS
70
4
0
ENDSEC
0
SECTION
2
ENTITIES
0
LINE
8
0
10
48.45272157268004
20
-62.69885094625305
30
0.0
11
48.44715132425767
21
-49.75361372289778
31
0.0
0
LINE
8
0
10
48.44715132425767
20
-49.75361372289778
30
0.0
11
48.44075897170526
21
-49.26645344449893
31
0.0
0
LINE
8
0
10
48.44075897170526
20
-49.26645344449893
30
0.0
11
48.44284507750217
21
-26.968532481283077
31
0.0
0
ARC
8
0
10
54.04785310880247
20
-27.063884759016684
30
0.0
40
5.605819038089783
50
106.92995422865397
51
179.02537942785045
0
LINE
8
0
10
52.41542528599779
20
-21.70101365380229
30
0.0
11
53.235934828260504
21
-21.473791303092614
31
0.0
0
LINE
8
0
10
53.235934828260504
20
-21.473791303092614
30
0.0
11
56.363561851610555
21
-20.64767420541722
31
0.0
0
LINE
8
0
10
56.363561851610555
20
-20.64767420541722
30
0.0
11
58.047668713965855
21
-20.219789721945506
31
0.0
0
LINE
8
0
10
58.047668713965855
20
-20.219789721945506
30
0.0
11
59.73177557670419
21
-19.803691809430145
31
0.0
0
LINE
8
0
10
59.73177557670419
20
-19.803691809430145
30
0.0
11
62.859402608427146
21
-19.06201486536193
31
0.0
0
LINE
8
0
10
62.859402608427146
20
-19.06201486536193
30
0.0
11
64.54350947215569
21
-18.67928357485883
31
0.0
0
LINE
8
0
10
64.54350947215569
20
-18.67928357485883
30
0.0
11
66.22761633621383
21
-18.30812839105201
31
0.0
0
LINE
8
0
10
66.22761633621383
20
-18.30812839105201
30
0.0
11
67.91172320057974
21
-17.948499356937848
31
0.0
0
LINE
8
0
10
67.91172320057974
20
-17.948499356937848
30
0.0
11
69.59583006525511
21
-17.60034834075497
31
0.0
0
LINE
8
0
10
69.59583006525511
20
-17.60034834075497
30
0.0
11
71.27993693021124
21
-17.263629001907272
31
0.0
0
LINE
8
0
10
71.27993693021124
20
-17.263629001907272
30
0.0
11
72.96404379542855
21
-16.938296758422897
31
0.0
0
LINE
8
0
10
72.96404379542855
20
-16.938296758422897
30
0.0
11
74.64815066093497
21
-16.624308755915926
31
0.0
0
LINE
8
0
10
74.64815066093497
20
-16.624308755915926
30
0.0
11
76.33225752669566
21
-16.32162383802284
31
0.0
0
LINE
8
0
10
76.33225752669566
20
-16.32162383802284
30
0.0
11
78.01636439268502
21
-16.030202518202252
31
0.0
0
LINE
8
0
10
78.01636439268502
20
-16.030202518202252
30
0.0
11
79.53890257087951
21
-15.777539252589476
31
0.0
0
LINE
8
0
10
79.53890257087951
20
-15.777539252589476
30
0.0
11
79.53885047602141
21
-25.24135047602141
31
0.0
0
LINE
8
0
10
79.53885047602141
20
-25.24135047602141
30
0.0
11
75.82
21
-25.2425
31
0.0
0
ARC
8
0
10
75.81999999999974
20
-26.242499999999477
30
0.0
40
0.9999999999994778
50
89.99999999998535
51
174.37500000002836
0
LINE
8
0
10
74.8248152733278
20
-26.14448285967044
30
0.0
11
74.8188504760214
21
-59.53135047602141
31
0.0
0
LINE
8
0
10
74.8188504760214
20
-59.53135047602141
30
0.0
11
56.671982859670436
21
-59.5373152733278
31
0.0
0
ARC
8
0
10
56.769999999999456
20
-60.53249999999996
30
0.0
40
0.9999999999999146
50
95.62499999996936
51
180.00000000000205
0
LINE
8
0
10
55.769999999999996
20
-60.5325
30
0.0
11
55.768850476021406
21
-62.69885047602141
31
0.0
0
LINE
8
0
10
55.768850476021406
20
-62.69885047602141
30
0.0
11
48.45272157268004
21
-62.69885094625305
31
0.0
0
CIRCLE
8
0
10
53.24000000000001
20
-25.755447254731884
30
0.0
40
1.1
0
CIRCLE
8
0
10
75.99000000000001
20
-20.505447254731884
30
0.0
40
1.1
0
CIRCLE
8
0
10
52.49000000000001
20
-41.755447254731884
30
0.0
40
1.1
0
ENDSEC
0
EOF
