0
SECTION
2
HEADER
9
$INSUNITS
70
4
0
ENDSEC
0
SECTION
2
ENTITIES
0
LINE
8
0
10
166.30114952397858
20
-25.241350476021406
30
0.0
11
166.30110088595458
21
-16.93410769722528
31
0.0
0
LINE
8
0
10
166.30110088595458
20
-16.93410769722528
30
0.0
11
166.32378576980884
21
-16.936769735180736
31
0.0
0
LINE
8
0
10
166.32378576980884
20
-16.936769735180736
30
0.0
11
167.6488623668672
21
-17.160879999833178
31
0.0
0
LINE
8
0
10
167.6488623668672
20
-17.160879999833178
30
0.0
11
169.555902291168
21
-17.495870269034885
31
0.0
0
LINE
8
0
10
169.555902291168
20
-17.495870269034885
30
0.0
11
171.22456222487085
21
-17.80104276533229
31
0.0
0
LINE
8
0
10
171.22456222487085
20
-17.80104276533229
30
0.0
11
174.32350210154883
21
-18.39778880354245
31
0.0
0
LINE
8
0
10
174.32350210154883
20
-18.39778880354245
30
0.0
11
177.4224419779775
21
-19.033765551661144
31
0.0
0
LINE
8
0
10
177.4224419779775
20
-19.033765551661144
30
0.0
11
180.28300186366224
21
-19.655896487016168
31
0.0
0
LINE
8
0
10
180.28300186366224
20
-19.655896487016168
30
0.0
11
183.14356174911825
21
-20.311955325345505
31
0.0
0
LINE
8
0
10
183.14356174911825
20
-20.311955325345505
30
0.0
11
186.0041216342876
21
-21.00220717432022
31
0.0
0
LINE
8
0
10
186.0041216342876
20
-21.00220717432022
30
0.0
11
188.86468151919246
21
-21.726933949334512
31
0.0
0
LINE
8
0
10
188.86468151919246
20
-21.726933949334512
30
0.0
11
191.0101014326627
21
-22.293282599648673
31
0.0
0
LINE
8
0
10
191.0101014326627
20
-22.293282599648673
30
0.0
11
192.91714135560574
21
-22.813231824589423
31
0.0
0
LINE
8
0
10
192.91714135560574
20
-22.813231824589423
30
0.0
11
193.61192363423422
21
-23.008459193987235
31
0.0
0
ARC
8
0
10
192.49873773886097
20
-26.641608450009745
30
0.0
40
3.7998626757022227
50
0.7420789873818066
51
72.96509468250126
0
LINE
8
0
10
196.29828171105822
20
-26.59239506229244
30
0.0
11
196.2990882594388
21
-49.857997602250386
31
0.0
0
LINE
8
0
10
196.2990882594388
20
-49.857997602250386
30
0.0
11
196.29126963147706
21
-50.218366636453524
31
0.0
0
LINE
8
0
10
196.29126963147706
20
-50.218366636453524
30
0.0
11
196.28624300895183
21
-62.69885090378959
31
0.0
0
LINE
8
0
10
196.28624300895183
20
-62.69885090378959
30
0.0
11
190.07114952397856
21
-62.69885047602142
31
0.0
0
LINE
8
0
10
190.07114952397856
20
-62.69885047602142
30
0.0
11
190.07
21
-60.48325
31
0.0
0
ARC
8
0
10
189.07000000001082
20
-60.48325000000541
30
0.0
40
0.9999999999891713
50
3.1021858141458485e-10
51
84.37500000064709
0
LINE
8
0
10
189.16801714032957
20
-59.4880652733278
30
0.0
11
171.02114952397858
21
-59.482100476021415
31
0.0
0
LINE
8
0
10
171.02114952397858
20
-59.482100476021415
30
0.0
11
171.0151847266722
21
-26.14448285967044
31
0.0
0
ARC
8
0
10
170.020000000004
20
-26.24249999999458
30
0.0
40
0.9999999999955045
50
5.624999999713205
51
90.00000000022798
0
LINE
8
0
10
170.02
20
-25.2425
30
0.0
11
166.30114952397858
21
-25.241350476021406
31
0.0
0
CIRCLE
8
0
10
192.6
20
-26.3853192038531
30
0.0
40
1.1
0
CIRCLE
8
0
10
169.85
20
-21.1353192038531
30
0.0
40
1.1
0
ENDSEC
0
EOF
