0
SECTION
2
HEADER
9
$INSUNITS
70
4
0
ENDSEC
0
SECTION
2
ENTITIES
0
LINE
8
0
10
166.30114952397858
20
-25.241350476021406
30
0.0
11
166.30109738842606
21
-15.777534272321704
31
0.0
0
LINE
8
0
10
166.30109738842606
20
-15.777534272321704
30
0.0
11
166.32375662474305
21
-15.780126828754232
31
0.0
0
LINE
8
0
10
166.32375662474305
20
-15.780126828754232
30
0.0
11
168.29488335040247
21
-16.110612195329196
31
0.0
0
LINE
8
0
10
168.29488335040247
20
-16.110612195329196
30
0.0
11
170.21957693733313
21
-16.448182179578055
31
0.0
0
LINE
8
0
10
170.21957693733313
20
-16.448182179578055
30
0.0
11
172.14427052413004
21
-16.800485392507778
31
0.0
0
LINE
8
0
10
172.14427052413004
20
-16.800485392507778
30
0.0
11
174.06896411079336
21
-17.167582004161936
31
0.0
0
LINE
8
0
10
174.06896411079336
20
-17.167582004161936
30
0.0
11
175.7530709990161
21
-17.50097623984235
31
0.0
0
LINE
8
0
10
175.7530709990161
20
-17.50097623984235
30
0.0
11
177.43717788713286
21
-17.8457889720034
31
0.0
0
LINE
8
0
10
177.43717788713286
20
-17.8457889720034
30
0.0
11
179.12128477515162
21
-18.20206602512331
31
0.0
0
LINE
8
0
10
179.12128477515162
20
-18.20206602512331
30
0.0
11
180.8053916630505
21
-18.569855005187836
31
0.0
0
LINE
8
0
10
180.8053916630505
20
-18.569855005187836
30
0.0
11
182.48949855081483
21
-18.949205333326486
31
0.0
0
LINE
8
0
10
182.48949855081483
20
-18.949205333326486
30
0.0
11
184.1736054384685
21
-19.34016828104683
31
0.0
0
LINE
8
0
10
184.1736054384685
20
-19.34016828104683
30
0.0
11
185.8577123259839
21
-19.742797007100073
31
0.0
0
LINE
8
0
10
185.8577123259839
20
-19.742797007100073
30
0.0
11
187.5418192133665
21
-20.157146596112042
31
0.0
0
LINE
8
0
10
187.5418192133665
20
-20.157146596112042
30
0.0
11
189.22592610061784
21
-20.5832740989804
31
0.0
0
LINE
8
0
10
189.22592610061784
20
-20.5832740989804
30
0.0
11
192.353553176532
21
-21.40610422962048
31
0.0
0
LINE
8
0
10
192.353553176532
20
-21.40610422962048
30
0.0
11
193.3341493494099
21
-21.673591947744274
31
0.0
0
ARC
8
0
10
191.79840767098432
20
-27.05877474583342
30
0.0
40
5.599883594476646
50
1.4300923843050157
51
74.08295680040914
0
LINE
8
0
10
197.3965470128544
20
-26.91901716767591
30
0.0
11
197.39924362714655
21
-49.309220061694276
31
0.0
0
LINE
8
0
10
197.39924362714655
20
-49.309220061694276
30
0.0
11
197.39287227222152
21
-49.68452334175736
31
0.0
0
LINE
8
0
10
197.39287227222152
20
-49.68452334175736
30
0.0
11
197.38727842731996
21
-62.698850946253046
31
0.0
0
LINE
8
0
10
197.38727842731996
20
-62.698850946253046
30
0.0
11
190.07114952397856
21
-62.69885047602142
31
0.0
0
LINE
8
0
10
190.07114952397856
20
-62.69885047602142
30
0.0
11
190.07
21
-60.48325
31
0.0
0
ARC
8
0
10
189.07000000001082
20
-60.48325000000541
30
0.0
40
0.9999999999891713
50
3.1021858141458485e-10
51
84.37500000064709
0
LINE
8
0
10
189.16801714032957
20
-59.4880652733278
30
0.0
11
171.02114952397858
21
-59.482100476021415
31
0.0
0
LINE
8
0
10
171.02114952397858
20
-59.482100476021415
30
0.0
11
171.0151847266722
21
-26.14448285967044
31
0.0
0
ARC
8
0
10
170.020000000004
20
-26.24249999999458
30
0.0
40
0.9999999999955045
50
5.624999999713205
51
90.00000000022798
0
LINE
8
0
10
170.02
20
-25.2425
30
0.0
11
166.30114952397858
21
-25.241350476021406
31
0.0
0
CIRCLE
8
0
10
192.6
20
-25.755447254731884
30
0.0
40
1.1
0
CIRCLE
8
0
10
169.85
20
-20.505447254731884
30
0.0
40
1.1
0
CIRCLE
8
0
10
193.35
20
-41.755447254731884
30
0.0
40
1.1
0
ENDSEC
0
EOF
