0
SECTION
2
HEADER
9
$INSUNITS
70
4
0
ENDSEC
0
SECTION
2
ENTITIES
0
LINE
8
0
10
49.55379057502791
20
-62.6988509075099
30
0.0
11
49.54874890719114
21
-50.27796096251655
31
0.0
0
LINE
8
0
10
49.54874890719114
20
-50.27796096251655
30
0.0
11
49.5411553247753
21
-49.87209797638516
31
0.0
0
LINE
8
0
10
49.5411553247753
20
-49.87209797638516
30
0.0
11
49.54140556629896
21
-26.62852266618555
31
0.0
0
ARC
8
0
10
53.38577808371385
20
-26.659968574004736
30
0.0
40
3.8445011246940046
50
100.6178297893355
51
179.53134676428942
0
LINE
8
0
10
52.67740099455122
20
-22.881292774558133
30
0.0
11
54.58442859462165
21
-22.359337136623697
31
0.0
0
LINE
8
0
10
54.58442859462165
20
-22.359337136623697
30
0.0
11
56.7298484863511
21
-21.790742119496844
31
0.0
0
LINE
8
0
10
56.7298484863511
20
-21.790742119496844
30
0.0
11
59.59040834265804
21
-21.063043280018288
31
0.0
0
LINE
8
0
10
59.59040834265804
20
-21.063043280018288
30
0.0
11
62.4509681997283
21
-20.3698443613369
31
0.0
0
LINE
8
0
10
62.4509681997283
20
-20.3698443613369
30
0.0
11
65.31152805750294
21
-19.71086197764077
31
0.0
0
LINE
8
0
10
65.31152805750294
20
-19.71086197764077
30
0.0
11
68.17208791592375
21
-19.085829602005553
31
0.0
0
LINE
8
0
10
68.17208791592375
20
-19.085829602005553
30
0.0
11
71.03264777495896
21
-18.494496990848294
31
0.0
0
LINE
8
0
10
71.03264777495896
20
-18.494496990848294
30
0.0
11
73.89320763455997
21
-17.936629652248822
31
0.0
0
LINE
8
0
10
73.89320763455997
20
-17.936629652248822
30
0.0
11
76.7537674947035
21
-17.41200835532527
31
0.0
0
LINE
8
0
10
76.7537674947035
20
-17.41200835532527
30
0.0
11
79.53889908568497
21
-16.93410894343763
31
0.0
0
LINE
8
0
10
79.53889908568497
20
-16.93410894343763
30
0.0
11
79.53885047602141
21
-25.24135047602141
31
0.0
0
LINE
8
0
10
79.53885047602141
20
-25.24135047602141
30
0.0
11
75.82
21
-25.2425
31
0.0
0
ARC
8
0
10
75.81999999999974
20
-26.242499999999477
30
0.0
40
0.9999999999994778
50
89.99999999998535
51
174.37500000002836
0
LINE
8
0
10
74.8248152733278
20
-26.14448285967044
30
0.0
11
74.8188504760214
21
-59.53135047602141
31
0.0
0
LINE
8
0
10
74.8188504760214
20
-59.53135047602141
30
0.0
11
56.671982859670436
21
-59.5373152733278
31
0.0
0
ARC
8
0
10
56.769999999999456
20
-60.53249999999996
30
0.0
40
0.9999999999999146
50
95.62499999996936
51
180.00000000000205
0
LINE
8
0
10
55.769999999999996
20
-60.5325
30
0.0
11
55.768850476021406
21
-62.69885047602141
31
0.0
0
LINE
8
0
10
55.768850476021406
20
-62.69885047602141
30
0.0
11
49.55379057502791
21
-62.6988509075099
31
0.0
0
CIRCLE
8
0
10
53.24000000000001
20
-26.3853192038531
30
0.0
40
1.1
0
CIRCLE
8
0
10
75.99000000000001
20
-21.1353192038531
30
0.0
40
1.1
0
ENDSEC
0
EOF
