ISO-10303-21;
HEADER;
/* Generated by software containing ST-Developer
 * from STEP Tools, Inc. (www.steptools.com) 
 */

FILE_DESCRIPTION(
/* description */ (''),
/* implementation_level */ '2;1');

FILE_NAME(
/* name */ 'keycap_lp.step',
/* time_stamp */ '2026-10-03T15:57:35+09:00',
/* author */ (''),
/* organization */ (''),
/* preprocessor_version */ 'ST-DEVELOPER v20.1',
/* originating_system */ 'Autodesk Translation Framework v15.8.0.0',
/* authorisation */ '');

FILE_SCHEMA (('AUTOMOTIVE_DESIGN { 1 0 10303 214 3 1 1 }'));
ENDSEC;

DATA;
#10=MECHANICAL_DESIGN_GEOMETRIC_PRESENTATION_REPRESENTATION('',(#13),#323);
#11=SHAPE_REPRESENTATION_RELATIONSHIP('SRR','None',#330,#12);
#12=ADVANCED_BREP_SHAPE_REPRESENTATION('',(#14),#322);
#13=STYLED_ITEM('',(#339),#14);
#14=MANIFOLD_SOLID_BREP('\X2\30DC30C730A3\X0\1',#183);
#15=PLANE('',#200);
#16=PLANE('',#201);
#17=PLANE('',#207);
#18=PLANE('',#210);
#19=PLANE('',#213);
#20=PLANE('',#214);
#21=FACE_OUTER_BOUND('',#31,.T.);
#22=FACE_OUTER_BOUND('',#32,.T.);
#23=FACE_OUTER_BOUND('',#33,.T.);
#24=FACE_OUTER_BOUND('',#34,.T.);
#25=FACE_OUTER_BOUND('',#35,.T.);
#26=FACE_OUTER_BOUND('',#36,.T.);
#27=FACE_OUTER_BOUND('',#37,.T.);
#28=FACE_OUTER_BOUND('',#38,.T.);
#29=FACE_OUTER_BOUND('',#39,.T.);
#30=FACE_OUTER_BOUND('',#40,.T.);
#31=EDGE_LOOP('',(#121,#122,#123,#124));
#32=EDGE_LOOP('',(#125,#126,#127,#128));
#33=EDGE_LOOP('',(#129,#130,#131,#132,#133,#134,#135,#136));
#34=EDGE_LOOP('',(#137,#138,#139,#140));
#35=EDGE_LOOP('',(#141,#142,#143,#144));
#36=EDGE_LOOP('',(#145,#146,#147,#148));
#37=EDGE_LOOP('',(#149,#150,#151,#152));
#38=EDGE_LOOP('',(#153,#154,#155,#156));
#39=EDGE_LOOP('',(#157,#158,#159,#160,#161,#162,#163,#164));
#40=EDGE_LOOP('',(#165,#166,#167,#168));
#41=LINE('',#275,#57);
#42=LINE('',#278,#58);
#43=LINE('',#281,#59);
#44=LINE('',#283,#60);
#45=LINE('',#284,#61);
#46=LINE('',#287,#62);
#47=LINE('',#291,#63);
#48=LINE('',#295,#64);
#49=LINE('',#299,#65);
#50=LINE('',#303,#66);
#51=LINE('',#304,#67);
#52=LINE('',#307,#68);
#53=LINE('',#310,#69);
#54=LINE('',#312,#70);
#55=LINE('',#315,#71);
#56=LINE('',#318,#72);
#57=VECTOR('',#221,10.);
#58=VECTOR('',#224,10.);
#59=VECTOR('',#227,10.);
#60=VECTOR('',#228,10.);
#61=VECTOR('',#229,10.);
#62=VECTOR('',#232,10.);
#63=VECTOR('',#235,10.);
#64=VECTOR('',#238,10.);
#65=VECTOR('',#243,10.);
#66=VECTOR('',#248,10.);
#67=VECTOR('',#249,10.);
#68=VECTOR('',#252,10.);
#69=VECTOR('',#255,10.);
#70=VECTOR('',#258,10.);
#71=VECTOR('',#261,10.);
#72=VECTOR('',#266,10.);
#73=ELLIPSE('',#198,1.6804700508598,1.5);
#74=ELLIPSE('',#199,1.6804700508598,1.5);
#75=ELLIPSE('',#202,1.6804700508598,1.5);
#76=ELLIPSE('',#203,1.6804700508598,1.5);
#77=ELLIPSE('',#204,1.6804700508598,1.5);
#78=ELLIPSE('',#206,1.6804700508598,1.5);
#79=ELLIPSE('',#209,1.6804700508598,1.5);
#80=ELLIPSE('',#212,1.6804700508598,1.5);
#81=VERTEX_POINT('',#271);
#82=VERTEX_POINT('',#272);
#83=VERTEX_POINT('',#274);
#84=VERTEX_POINT('',#276);
#85=VERTEX_POINT('',#280);
#86=VERTEX_POINT('',#282);
#87=VERTEX_POINT('',#286);
#88=VERTEX_POINT('',#288);
#89=VERTEX_POINT('',#290);
#90=VERTEX_POINT('',#292);
#91=VERTEX_POINT('',#294);
#92=VERTEX_POINT('',#298);
#93=VERTEX_POINT('',#302);
#94=VERTEX_POINT('',#306);
#95=VERTEX_POINT('',#308);
#96=VERTEX_POINT('',#314);
#97=EDGE_CURVE('',#81,#82,#73,.T.);
#98=EDGE_CURVE('',#82,#83,#41,.T.);
#99=EDGE_CURVE('',#83,#84,#74,.T.);
#100=EDGE_CURVE('',#84,#81,#42,.T.);
#101=EDGE_CURVE('',#85,#82,#43,.T.);
#102=EDGE_CURVE('',#86,#85,#44,.T.);
#103=EDGE_CURVE('',#86,#83,#45,.T.);
#104=EDGE_CURVE('',#81,#87,#46,.T.);
#105=EDGE_CURVE('',#88,#87,#75,.T.);
#106=EDGE_CURVE('',#88,#89,#47,.T.);
#107=EDGE_CURVE('',#90,#89,#76,.T.);
#108=EDGE_CURVE('',#90,#91,#48,.T.);
#109=EDGE_CURVE('',#85,#91,#77,.T.);
#110=EDGE_CURVE('',#91,#92,#49,.T.);
#111=EDGE_CURVE('',#92,#86,#78,.T.);
#112=EDGE_CURVE('',#93,#90,#50,.T.);
#113=EDGE_CURVE('',#93,#92,#51,.T.);
#114=EDGE_CURVE('',#87,#94,#52,.T.);
#115=EDGE_CURVE('',#94,#95,#79,.T.);
#116=EDGE_CURVE('',#95,#88,#53,.T.);
#117=EDGE_CURVE('',#84,#94,#54,.T.);
#118=EDGE_CURVE('',#89,#96,#55,.T.);
#119=EDGE_CURVE('',#96,#93,#80,.T.);
#120=EDGE_CURVE('',#95,#96,#56,.T.);
#121=ORIENTED_EDGE('',*,*,#97,.T.);
#122=ORIENTED_EDGE('',*,*,#98,.T.);
#123=ORIENTED_EDGE('',*,*,#99,.T.);
#124=ORIENTED_EDGE('',*,*,#100,.T.);
#125=ORIENTED_EDGE('',*,*,#98,.F.);
#126=ORIENTED_EDGE('',*,*,#101,.F.);
#127=ORIENTED_EDGE('',*,*,#102,.F.);
#128=ORIENTED_EDGE('',*,*,#103,.T.);
#129=ORIENTED_EDGE('',*,*,#97,.F.);
#130=ORIENTED_EDGE('',*,*,#104,.T.);
#131=ORIENTED_EDGE('',*,*,#105,.F.);
#132=ORIENTED_EDGE('',*,*,#106,.T.);
#133=ORIENTED_EDGE('',*,*,#107,.F.);
#134=ORIENTED_EDGE('',*,*,#108,.T.);
#135=ORIENTED_EDGE('',*,*,#109,.F.);
#136=ORIENTED_EDGE('',*,*,#101,.T.);
#137=ORIENTED_EDGE('',*,*,#109,.T.);
#138=ORIENTED_EDGE('',*,*,#110,.T.);
#139=ORIENTED_EDGE('',*,*,#111,.T.);
#140=ORIENTED_EDGE('',*,*,#102,.T.);
#141=ORIENTED_EDGE('',*,*,#110,.F.);
#142=ORIENTED_EDGE('',*,*,#108,.F.);
#143=ORIENTED_EDGE('',*,*,#112,.F.);
#144=ORIENTED_EDGE('',*,*,#113,.T.);
#145=ORIENTED_EDGE('',*,*,#105,.T.);
#146=ORIENTED_EDGE('',*,*,#114,.T.);
#147=ORIENTED_EDGE('',*,*,#115,.T.);
#148=ORIENTED_EDGE('',*,*,#116,.T.);
#149=ORIENTED_EDGE('',*,*,#100,.F.);
#150=ORIENTED_EDGE('',*,*,#117,.T.);
#151=ORIENTED_EDGE('',*,*,#114,.F.);
#152=ORIENTED_EDGE('',*,*,#104,.F.);
#153=ORIENTED_EDGE('',*,*,#107,.T.);
#154=ORIENTED_EDGE('',*,*,#118,.T.);
#155=ORIENTED_EDGE('',*,*,#119,.T.);
#156=ORIENTED_EDGE('',*,*,#112,.T.);
#157=ORIENTED_EDGE('',*,*,#99,.F.);
#158=ORIENTED_EDGE('',*,*,#103,.F.);
#159=ORIENTED_EDGE('',*,*,#111,.F.);
#160=ORIENTED_EDGE('',*,*,#113,.F.);
#161=ORIENTED_EDGE('',*,*,#119,.F.);
#162=ORIENTED_EDGE('',*,*,#120,.F.);
#163=ORIENTED_EDGE('',*,*,#115,.F.);
#164=ORIENTED_EDGE('',*,*,#117,.F.);
#165=ORIENTED_EDGE('',*,*,#116,.F.);
#166=ORIENTED_EDGE('',*,*,#120,.T.);
#167=ORIENTED_EDGE('',*,*,#118,.F.);
#168=ORIENTED_EDGE('',*,*,#106,.F.);
#169=CYLINDRICAL_SURFACE('',#197,1.5);
#170=CYLINDRICAL_SURFACE('',#205,1.5);
#171=CYLINDRICAL_SURFACE('',#208,1.5);
#172=CYLINDRICAL_SURFACE('',#211,1.5);
#173=ADVANCED_FACE('',(#21),#169,.T.);
#174=ADVANCED_FACE('',(#22),#15,.T.);
#175=ADVANCED_FACE('',(#23),#16,.T.);
#176=ADVANCED_FACE('',(#24),#170,.T.);
#177=ADVANCED_FACE('',(#25),#17,.T.);
#178=ADVANCED_FACE('',(#26),#171,.T.);
#179=ADVANCED_FACE('',(#27),#18,.T.);
#180=ADVANCED_FACE('',(#28),#172,.T.);
#181=ADVANCED_FACE('',(#29),#19,.F.);
#182=ADVANCED_FACE('',(#30),#20,.T.);
#183=CLOSED_SHELL('',(#173,#174,#175,#176,#177,#178,#179,#180,#181,#182));
#184=DERIVED_UNIT_ELEMENT(#186,1.);
#185=DERIVED_UNIT_ELEMENT(#325,-3.);
#186=(
MASS_UNIT()
NAMED_UNIT(*)
SI_UNIT(.KILO.,.GRAM.)
);
#187=DERIVED_UNIT((#184,#185));
#188=MEASURE_REPRESENTATION_ITEM('density measure',
POSITIVE_RATIO_MEASURE(7850.),#187);
#189=PROPERTY_DEFINITION_REPRESENTATION(#194,#191);
#190=PROPERTY_DEFINITION_REPRESENTATION(#195,#192);
#191=REPRESENTATION('material name',(#193),#322);
#192=REPRESENTATION('density',(#188),#322);
#193=DESCRIPTIVE_REPRESENTATION_ITEM('\X2\92FC\X0\','\X2\92FC\X0\');
#194=PROPERTY_DEFINITION('material property','material name',#332);
#195=PROPERTY_DEFINITION('material property','density of part',#332);
#196=AXIS2_PLACEMENT_3D('',#269,#215,#216);
#197=AXIS2_PLACEMENT_3D('',#270,#217,#218);
#198=AXIS2_PLACEMENT_3D('',#273,#219,#220);
#199=AXIS2_PLACEMENT_3D('',#277,#222,#223);
#200=AXIS2_PLACEMENT_3D('',#279,#225,#226);
#201=AXIS2_PLACEMENT_3D('',#285,#230,#231);
#202=AXIS2_PLACEMENT_3D('',#289,#233,#234);
#203=AXIS2_PLACEMENT_3D('',#293,#236,#237);
#204=AXIS2_PLACEMENT_3D('',#296,#239,#240);
#205=AXIS2_PLACEMENT_3D('',#297,#241,#242);
#206=AXIS2_PLACEMENT_3D('',#300,#244,#245);
#207=AXIS2_PLACEMENT_3D('',#301,#246,#247);
#208=AXIS2_PLACEMENT_3D('',#305,#250,#251);
#209=AXIS2_PLACEMENT_3D('',#309,#253,#254);
#210=AXIS2_PLACEMENT_3D('',#311,#256,#257);
#211=AXIS2_PLACEMENT_3D('',#313,#259,#260);
#212=AXIS2_PLACEMENT_3D('',#316,#262,#263);
#213=AXIS2_PLACEMENT_3D('',#317,#264,#265);
#214=AXIS2_PLACEMENT_3D('',#319,#267,#268);
#215=DIRECTION('axis',(0.,0.,1.));
#216=DIRECTION('refdir',(1.,0.,0.));
#217=DIRECTION('center_axis',(0.318788356531669,0.318788356531669,0.892607398288674));
#218=DIRECTION('ref_axis',(-0.631168744267203,-0.631168744267203,0.450834817333716));
#219=DIRECTION('center_axis',(-9.18889960575518E-33,6.84227765783602E-49,
-1.));
#220=DIRECTION('ref_axis',(-0.707106781186548,-0.707106781186548,0.));
#221=DIRECTION('',(-0.318788356531669,-0.318788356531669,-0.892607398288674));
#222=DIRECTION('center_axis',(0.,0.,1.));
#223=DIRECTION('ref_axis',(-0.707106781186548,-0.707106781186548,0.));
#224=DIRECTION('',(0.318788356531669,0.318788356531669,0.892607398288674));
#225=DIRECTION('center_axis',(-0.941741911594837,0.,0.336336396998156));
#226=DIRECTION('ref_axis',(0.336336396998156,0.,0.941741911594838));
#227=DIRECTION('',(0.,-1.,0.));
#228=DIRECTION('',(0.318788356531669,-0.318788356531669,0.892607398288674));
#229=DIRECTION('',(0.,-1.,0.));
#230=DIRECTION('center_axis',(9.18889960575518E-33,-6.84227765783602E-49,
1.));
#231=DIRECTION('ref_axis',(1.,0.,-9.18889960575518E-33));
#232=DIRECTION('',(1.,0.,0.));
#233=DIRECTION('center_axis',(-9.18889960575518E-33,6.84227765783602E-49,
-1.));
#234=DIRECTION('ref_axis',(0.707106781186548,-0.707106781186548,0.));
#235=DIRECTION('',(0.,1.,0.));
#236=DIRECTION('center_axis',(-9.18889960575518E-33,6.84227765783602E-49,
-1.));
#237=DIRECTION('ref_axis',(0.707106781186548,0.707106781186548,0.));
#238=DIRECTION('',(-1.,0.,0.));
#239=DIRECTION('center_axis',(-9.18889960575518E-33,6.84227765783602E-49,
-1.));
#240=DIRECTION('ref_axis',(-0.707106781186548,0.707106781186548,0.));
#241=DIRECTION('center_axis',(0.318788356531669,-0.318788356531669,0.892607398288674));
#242=DIRECTION('ref_axis',(-0.631168744267203,0.631168744267203,0.450834817333716));
#243=DIRECTION('',(-0.318788356531669,0.318788356531669,-0.892607398288674));
#244=DIRECTION('center_axis',(0.,0.,1.));
#245=DIRECTION('ref_axis',(-0.707106781186548,0.707106781186548,0.));
#246=DIRECTION('center_axis',(0.,0.941741911594837,0.336336396998156));
#247=DIRECTION('ref_axis',(0.,-0.336336396998156,0.941741911594838));
#248=DIRECTION('',(-0.318788356531669,-0.318788356531669,0.892607398288674));
#249=DIRECTION('',(-1.,0.,0.));
#250=DIRECTION('center_axis',(-0.318788356531669,0.318788356531669,0.892607398288674));
#251=DIRECTION('ref_axis',(0.631168744267203,-0.631168744267203,0.450834817333716));
#252=DIRECTION('',(0.318788356531669,-0.318788356531669,-0.892607398288674));
#253=DIRECTION('center_axis',(0.,0.,1.));
#254=DIRECTION('ref_axis',(0.707106781186548,-0.707106781186548,0.));
#255=DIRECTION('',(-0.318788356531669,0.318788356531669,0.892607398288674));
#256=DIRECTION('center_axis',(0.,-0.941741911594837,0.336336396998156));
#257=DIRECTION('ref_axis',(0.,-0.336336396998156,-0.941741911594838));
#258=DIRECTION('',(1.,0.,0.));
#259=DIRECTION('center_axis',(-0.318788356531669,-0.318788356531669,0.892607398288674));
#260=DIRECTION('ref_axis',(0.631168744267203,0.631168744267203,0.450834817333716));
#261=DIRECTION('',(0.318788356531669,0.318788356531669,-0.892607398288674));
#262=DIRECTION('center_axis',(0.,0.,1.));
#263=DIRECTION('ref_axis',(0.707106781186548,0.707106781186548,0.));
#264=DIRECTION('center_axis',(0.,0.,1.));
#265=DIRECTION('ref_axis',(1.,0.,0.));
#266=DIRECTION('',(0.,1.,0.));
#267=DIRECTION('center_axis',(0.941741911594837,0.,0.336336396998156));
#268=DIRECTION('ref_axis',(0.336336396998156,0.,-0.941741911594838));
#269=CARTESIAN_POINT('',(0.,0.,0.));
#270=CARTESIAN_POINT('Origin',(-6.8163112044972,-6.8163112044972,1.65450800321229));
#271=CARTESIAN_POINT('',(-6.33738713260774,-7.75,3.5));
#272=CARTESIAN_POINT('',(-7.75,-6.33738713260774,3.5));
#273=CARTESIAN_POINT('Origin',(-6.15720691993016,-6.15720691993016,3.5));
#274=CARTESIAN_POINT('',(-9.,-7.58738713260775,0.));
#275=CARTESIAN_POINT('',(-8.22892407188946,-6.8163112044972,2.15901259870952));
#276=CARTESIAN_POINT('',(-7.58738713260774,-9.,0.));
#277=CARTESIAN_POINT('Origin',(-7.40720691993016,-7.40720691993016,0.));
#278=CARTESIAN_POINT('',(-6.8163112044972,-8.22892407188946,2.15901259870952));
#279=CARTESIAN_POINT('Origin',(-9.,9.,0.));
#280=CARTESIAN_POINT('',(-7.75,6.33738713260774,3.5));
#281=CARTESIAN_POINT('',(-7.75,7.75,3.5));
#282=CARTESIAN_POINT('',(-9.,7.58738713260774,0.));
#283=CARTESIAN_POINT('',(-8.22892407188946,6.8163112044972,2.15901259870952));
#284=CARTESIAN_POINT('',(-9.,9.,0.));
#285=CARTESIAN_POINT('Origin',(-1.00929365875014E-16,0.,3.5));
#286=CARTESIAN_POINT('',(6.33738713260774,-7.75,3.5));
#287=CARTESIAN_POINT('',(-7.75,-7.75,3.5));
#288=CARTESIAN_POINT('',(7.75,-6.33738713260774,3.5));
#289=CARTESIAN_POINT('Origin',(6.15720691993016,-6.15720691993016,3.5));
#290=CARTESIAN_POINT('',(7.75,6.33738713260774,3.5));
#291=CARTESIAN_POINT('',(7.75,-7.75,3.5));
#292=CARTESIAN_POINT('',(6.33738713260774,7.75,3.5));
#293=CARTESIAN_POINT('Origin',(6.15720691993016,6.15720691993016,3.5));
#294=CARTESIAN_POINT('',(-6.33738713260774,7.75,3.5));
#295=CARTESIAN_POINT('',(7.75,7.75,3.5));
#296=CARTESIAN_POINT('Origin',(-6.15720691993016,6.15720691993016,3.5));
#297=CARTESIAN_POINT('Origin',(-6.8163112044972,6.8163112044972,1.65450800321229));
#298=CARTESIAN_POINT('',(-7.58738713260775,9.,0.));
#299=CARTESIAN_POINT('',(-6.8163112044972,8.22892407188946,2.15901259870952));
#300=CARTESIAN_POINT('Origin',(-7.40720691993016,7.40720691993016,0.));
#301=CARTESIAN_POINT('Origin',(9.,9.,0.));
#302=CARTESIAN_POINT('',(7.58738713260774,9.,0.));
#303=CARTESIAN_POINT('',(6.8163112044972,8.22892407188946,2.15901259870952));
#304=CARTESIAN_POINT('',(9.,9.,0.));
#305=CARTESIAN_POINT('Origin',(6.8163112044972,-6.8163112044972,1.65450800321229));
#306=CARTESIAN_POINT('',(7.58738713260775,-9.,0.));
#307=CARTESIAN_POINT('',(6.8163112044972,-8.22892407188946,2.15901259870952));
#308=CARTESIAN_POINT('',(9.,-7.58738713260774,0.));
#309=CARTESIAN_POINT('Origin',(7.40720691993016,-7.40720691993016,0.));
#310=CARTESIAN_POINT('',(8.22892407188946,-6.8163112044972,2.15901259870952));
#311=CARTESIAN_POINT('Origin',(-9.,-9.,0.));
#312=CARTESIAN_POINT('',(-9.,-9.,0.));
#313=CARTESIAN_POINT('Origin',(6.8163112044972,6.8163112044972,1.65450800321229));
#314=CARTESIAN_POINT('',(9.,7.58738713260775,0.));
#315=CARTESIAN_POINT('',(8.22892407188946,6.8163112044972,2.15901259870952));
#316=CARTESIAN_POINT('Origin',(7.40720691993016,7.40720691993016,0.));
#317=CARTESIAN_POINT('Origin',(5.04646829375071E-17,0.,0.));
#318=CARTESIAN_POINT('',(9.,-9.,0.));
#319=CARTESIAN_POINT('Origin',(9.,-9.,0.));
#320=UNCERTAINTY_MEASURE_WITH_UNIT(LENGTH_MEASURE(0.01),#324,
'DISTANCE_ACCURACY_VALUE',
'Maximum model space distance between geometric entities at asserted c
onnectivities');
#321=UNCERTAINTY_MEASURE_WITH_UNIT(LENGTH_MEASURE(0.01),#324,
'DISTANCE_ACCURACY_VALUE',
'Maximum model space distance between geometric entities at asserted c
onnectivities');
#322=(
GEOMETRIC_REPRESENTATION_CONTEXT(3)
GLOBAL_UNCERTAINTY_ASSIGNED_CONTEXT((#320))
GLOBAL_UNIT_ASSIGNED_CONTEXT((#324,#326,#327))
REPRESENTATION_CONTEXT('','3D')
);
#323=(
GEOMETRIC_REPRESENTATION_CONTEXT(3)
GLOBAL_UNCERTAINTY_ASSIGNED_CONTEXT((#321))
GLOBAL_UNIT_ASSIGNED_CONTEXT((#324,#326,#327))
REPRESENTATION_CONTEXT('','3D')
);
#324=(
LENGTH_UNIT()
NAMED_UNIT(*)
SI_UNIT(.MILLI.,.METRE.)
);
#325=(
LENGTH_UNIT()
NAMED_UNIT(*)
SI_UNIT($,.METRE.)
);
#326=(
NAMED_UNIT(*)
PLANE_ANGLE_UNIT()
SI_UNIT($,.RADIAN.)
);
#327=(
NAMED_UNIT(*)
SI_UNIT($,.STERADIAN.)
SOLID_ANGLE_UNIT()
);
#328=SHAPE_DEFINITION_REPRESENTATION(#329,#330);
#329=PRODUCT_DEFINITION_SHAPE('',$,#332);
#330=SHAPE_REPRESENTATION('',(#196),#322);
#331=PRODUCT_DEFINITION_CONTEXT('part definition',#336,'design');
#332=PRODUCT_DEFINITION('(\X2\672A4FDD5B58\X0\)','(\X2\672A4FDD5B58\X0\)',
#333,#331);
#333=PRODUCT_DEFINITION_FORMATION('',$,#338);
#334=PRODUCT_RELATED_PRODUCT_CATEGORY('(\X2\672A4FDD5B58\X0\)',
'(\X2\672A4FDD5B58\X0\)',(#338));
#335=APPLICATION_PROTOCOL_DEFINITION('international standard',
'automotive_design',2009,#336);
#336=APPLICATION_CONTEXT(
'Core Data for Automotive Mechanical Design Process');
#337=PRODUCT_CONTEXT('part definition',#336,'mechanical');
#338=PRODUCT('(\X2\672A4FDD5B58\X0\)','(\X2\672A4FDD5B58\X0\)',$,(#337));
#339=PRESENTATION_STYLE_ASSIGNMENT((#340));
#340=SURFACE_STYLE_USAGE(.BOTH.,#341);
#341=SURFACE_SIDE_STYLE('',(#342));
#342=SURFACE_STYLE_FILL_AREA(#343);
#343=FILL_AREA_STYLE('\X2\92FC\X0\ - \X2\30B530C630F3\X0\',(#344));
#344=FILL_AREA_STYLE_COLOUR('\X2\92FC\X0\ - \X2\30B530C630F3\X0\',#345);
#345=COLOUR_RGB('\X2\92FC\X0\ - \X2\30B530C630F3\X0\',0.627450980392157,
0.627450980392157,0.627450980392157);
ENDSEC;
END-ISO-10303-21;
