ISO-10303-21;
HEADER;
/* Generated by software containing ST-Developer
 * from STEP Tools, Inc. (www.steptools.com) 
 */

FILE_DESCRIPTION(
/* description */ (''),
/* implementation_level */ '2;1');

FILE_NAME(
/* name */ 'sage60_left_case_bottom.step',
/* time_stamp */ '2026-09-09T01:51:44+09:00',
/* author */ (''),
/* organization */ (''),
/* preprocessor_version */ 'ST-DEVELOPER v20.1',
/* originating_system */ 'Autodesk Translation Framework v15.8.0.0',
/* authorisation */ '');

FILE_SCHEMA (('AUTOMOTIVE_DESIGN { 1 0 10303 214 3 1 1 }'));
ENDSEC;

DATA;
#10=MECHANICAL_DESIGN_GEOMETRIC_PRESENTATION_REPRESENTATION('',(#13),#1177);
#11=SHAPE_REPRESENTATION_RELATIONSHIP('SRR','None',#1184,#12);
#12=ADVANCED_BREP_SHAPE_REPRESENTATION('',(#14),#1176);
#13=STYLED_ITEM('',(#1193),#14);
#14=MANIFOLD_SOLID_BREP('LEFT_CASE_BOTTOM',#737);
#15=FACE_BOUND('',#94,.T.);
#16=FACE_BOUND('',#95,.T.);
#17=FACE_BOUND('',#96,.T.);
#18=FACE_BOUND('',#97,.T.);
#19=FACE_BOUND('',#98,.T.);
#20=FACE_BOUND('',#99,.T.);
#21=FACE_BOUND('',#109,.T.);
#22=FACE_OUTER_BOUND('',#63,.T.);
#23=FACE_OUTER_BOUND('',#64,.T.);
#24=FACE_OUTER_BOUND('',#65,.T.);
#25=FACE_OUTER_BOUND('',#66,.T.);
#26=FACE_OUTER_BOUND('',#67,.T.);
#27=FACE_OUTER_BOUND('',#68,.T.);
#28=FACE_OUTER_BOUND('',#69,.T.);
#29=FACE_OUTER_BOUND('',#70,.T.);
#30=FACE_OUTER_BOUND('',#71,.T.);
#31=FACE_OUTER_BOUND('',#72,.T.);
#32=FACE_OUTER_BOUND('',#73,.T.);
#33=FACE_OUTER_BOUND('',#74,.T.);
#34=FACE_OUTER_BOUND('',#75,.T.);
#35=FACE_OUTER_BOUND('',#76,.T.);
#36=FACE_OUTER_BOUND('',#77,.T.);
#37=FACE_OUTER_BOUND('',#78,.T.);
#38=FACE_OUTER_BOUND('',#79,.T.);
#39=FACE_OUTER_BOUND('',#80,.T.);
#40=FACE_OUTER_BOUND('',#81,.T.);
#41=FACE_OUTER_BOUND('',#82,.T.);
#42=FACE_OUTER_BOUND('',#83,.T.);
#43=FACE_OUTER_BOUND('',#84,.T.);
#44=FACE_OUTER_BOUND('',#85,.T.);
#45=FACE_OUTER_BOUND('',#86,.T.);
#46=FACE_OUTER_BOUND('',#87,.T.);
#47=FACE_OUTER_BOUND('',#88,.T.);
#48=FACE_OUTER_BOUND('',#89,.T.);
#49=FACE_OUTER_BOUND('',#90,.T.);
#50=FACE_OUTER_BOUND('',#91,.T.);
#51=FACE_OUTER_BOUND('',#92,.T.);
#52=FACE_OUTER_BOUND('',#93,.T.);
#53=FACE_OUTER_BOUND('',#100,.T.);
#54=FACE_OUTER_BOUND('',#101,.T.);
#55=FACE_OUTER_BOUND('',#102,.T.);
#56=FACE_OUTER_BOUND('',#103,.T.);
#57=FACE_OUTER_BOUND('',#104,.T.);
#58=FACE_OUTER_BOUND('',#105,.T.);
#59=FACE_OUTER_BOUND('',#106,.T.);
#60=FACE_OUTER_BOUND('',#107,.T.);
#61=FACE_OUTER_BOUND('',#108,.T.);
#62=FACE_OUTER_BOUND('',#110,.T.);
#63=EDGE_LOOP('',(#463,#464,#465,#466));
#64=EDGE_LOOP('',(#467,#468,#469,#470));
#65=EDGE_LOOP('',(#471,#472,#473,#474));
#66=EDGE_LOOP('',(#475,#476,#477,#478));
#67=EDGE_LOOP('',(#479,#480,#481,#482));
#68=EDGE_LOOP('',(#483,#484,#485,#486));
#69=EDGE_LOOP('',(#487,#488,#489,#490));
#70=EDGE_LOOP('',(#491,#492,#493,#494));
#71=EDGE_LOOP('',(#495,#496,#497,#498));
#72=EDGE_LOOP('',(#499,#500,#501,#502));
#73=EDGE_LOOP('',(#503,#504,#505,#506));
#74=EDGE_LOOP('',(#507,#508,#509,#510));
#75=EDGE_LOOP('',(#511,#512,#513,#514));
#76=EDGE_LOOP('',(#515,#516,#517,#518));
#77=EDGE_LOOP('',(#519,#520,#521,#522));
#78=EDGE_LOOP('',(#523,#524,#525,#526));
#79=EDGE_LOOP('',(#527,#528,#529,#530));
#80=EDGE_LOOP('',(#531,#532,#533,#534));
#81=EDGE_LOOP('',(#535,#536,#537,#538));
#82=EDGE_LOOP('',(#539,#540,#541,#542));
#83=EDGE_LOOP('',(#543,#544,#545,#546));
#84=EDGE_LOOP('',(#547,#548,#549,#550));
#85=EDGE_LOOP('',(#551,#552,#553,#554));
#86=EDGE_LOOP('',(#555,#556,#557,#558));
#87=EDGE_LOOP('',(#559,#560,#561,#562));
#88=EDGE_LOOP('',(#563,#564,#565,#566));
#89=EDGE_LOOP('',(#567,#568,#569,#570));
#90=EDGE_LOOP('',(#571,#572,#573,#574));
#91=EDGE_LOOP('',(#575,#576,#577,#578));
#92=EDGE_LOOP('',(#579,#580,#581,#582));
#93=EDGE_LOOP('',(#583,#584,#585,#586));
#94=EDGE_LOOP('',(#587,#588,#589,#590));
#95=EDGE_LOOP('',(#591,#592,#593,#594));
#96=EDGE_LOOP('',(#595,#596,#597,#598));
#97=EDGE_LOOP('',(#599,#600,#601,#602));
#98=EDGE_LOOP('',(#603,#604,#605,#606));
#99=EDGE_LOOP('',(#607,#608,#609,#610));
#100=EDGE_LOOP('',(#611,#612,#613,#614));
#101=EDGE_LOOP('',(#615,#616,#617,#618));
#102=EDGE_LOOP('',(#619,#620,#621,#622));
#103=EDGE_LOOP('',(#623,#624,#625,#626));
#104=EDGE_LOOP('',(#627,#628,#629,#630));
#105=EDGE_LOOP('',(#631,#632,#633,#634));
#106=EDGE_LOOP('',(#635,#636,#637,#638));
#107=EDGE_LOOP('',(#639,#640,#641,#642));
#108=EDGE_LOOP('',(#643,#644,#645,#646));
#109=EDGE_LOOP('',(#647,#648,#649,#650));
#110=EDGE_LOOP('',(#651,#652,#653,#654));
#111=LINE('',#976,#207);
#112=LINE('',#978,#208);
#113=LINE('',#980,#209);
#114=LINE('',#981,#210);
#115=LINE('',#984,#211);
#116=LINE('',#986,#212);
#117=LINE('',#987,#213);
#118=LINE('',#990,#214);
#119=LINE('',#992,#215);
#120=LINE('',#993,#216);
#121=LINE('',#995,#217);
#122=LINE('',#996,#218);
#123=LINE('',#1001,#219);
#124=LINE('',#1003,#220);
#125=LINE('',#1005,#221);
#126=LINE('',#1006,#222);
#127=LINE('',#1009,#223);
#128=LINE('',#1011,#224);
#129=LINE('',#1012,#225);
#130=LINE('',#1015,#226);
#131=LINE('',#1017,#227);
#132=LINE('',#1018,#228);
#133=LINE('',#1020,#229);
#134=LINE('',#1021,#230);
#135=LINE('',#1026,#231);
#136=LINE('',#1028,#232);
#137=LINE('',#1030,#233);
#138=LINE('',#1031,#234);
#139=LINE('',#1034,#235);
#140=LINE('',#1036,#236);
#141=LINE('',#1037,#237);
#142=LINE('',#1040,#238);
#143=LINE('',#1042,#239);
#144=LINE('',#1043,#240);
#145=LINE('',#1045,#241);
#146=LINE('',#1046,#242);
#147=LINE('',#1051,#243);
#148=LINE('',#1053,#244);
#149=LINE('',#1055,#245);
#150=LINE('',#1056,#246);
#151=LINE('',#1059,#247);
#152=LINE('',#1061,#248);
#153=LINE('',#1062,#249);
#154=LINE('',#1065,#250);
#155=LINE('',#1067,#251);
#156=LINE('',#1068,#252);
#157=LINE('',#1070,#253);
#158=LINE('',#1071,#254);
#159=LINE('',#1076,#255);
#160=LINE('',#1078,#256);
#161=LINE('',#1080,#257);
#162=LINE('',#1081,#258);
#163=LINE('',#1084,#259);
#164=LINE('',#1086,#260);
#165=LINE('',#1087,#261);
#166=LINE('',#1090,#262);
#167=LINE('',#1092,#263);
#168=LINE('',#1093,#264);
#169=LINE('',#1095,#265);
#170=LINE('',#1096,#266);
#171=LINE('',#1101,#267);
#172=LINE('',#1103,#268);
#173=LINE('',#1105,#269);
#174=LINE('',#1106,#270);
#175=LINE('',#1109,#271);
#176=LINE('',#1111,#272);
#177=LINE('',#1112,#273);
#178=LINE('',#1115,#274);
#179=LINE('',#1117,#275);
#180=LINE('',#1118,#276);
#181=LINE('',#1120,#277);
#182=LINE('',#1121,#278);
#183=LINE('',#1126,#279);
#184=LINE('',#1128,#280);
#185=LINE('',#1130,#281);
#186=LINE('',#1131,#282);
#187=LINE('',#1135,#283);
#188=LINE('',#1137,#284);
#189=LINE('',#1139,#285);
#190=LINE('',#1140,#286);
#191=LINE('',#1144,#287);
#192=LINE('',#1145,#288);
#193=LINE('',#1146,#289);
#194=LINE('',#1149,#290);
#195=LINE('',#1151,#291);
#196=LINE('',#1152,#292);
#197=LINE('',#1155,#293);
#198=LINE('',#1156,#294);
#199=LINE('',#1159,#295);
#200=LINE('',#1160,#296);
#201=LINE('',#1162,#297);
#202=LINE('',#1165,#298);
#203=LINE('',#1167,#299);
#204=LINE('',#1168,#300);
#205=LINE('',#1170,#301);
#206=LINE('',#1171,#302);
#207=VECTOR('',#796,10.);
#208=VECTOR('',#797,10.);
#209=VECTOR('',#798,10.);
#210=VECTOR('',#799,10.);
#211=VECTOR('',#802,10.);
#212=VECTOR('',#803,10.);
#213=VECTOR('',#804,10.);
#214=VECTOR('',#807,10.);
#215=VECTOR('',#808,10.);
#216=VECTOR('',#809,10.);
#217=VECTOR('',#812,10.);
#218=VECTOR('',#813,10.);
#219=VECTOR('',#818,10.);
#220=VECTOR('',#819,10.);
#221=VECTOR('',#820,10.);
#222=VECTOR('',#821,10.);
#223=VECTOR('',#824,10.);
#224=VECTOR('',#825,10.);
#225=VECTOR('',#826,10.);
#226=VECTOR('',#829,10.);
#227=VECTOR('',#830,10.);
#228=VECTOR('',#831,10.);
#229=VECTOR('',#834,10.);
#230=VECTOR('',#835,10.);
#231=VECTOR('',#840,10.);
#232=VECTOR('',#841,10.);
#233=VECTOR('',#842,10.);
#234=VECTOR('',#843,10.);
#235=VECTOR('',#846,10.);
#236=VECTOR('',#847,10.);
#237=VECTOR('',#848,10.);
#238=VECTOR('',#851,10.);
#239=VECTOR('',#852,10.);
#240=VECTOR('',#853,10.);
#241=VECTOR('',#856,10.);
#242=VECTOR('',#857,10.);
#243=VECTOR('',#862,10.);
#244=VECTOR('',#863,10.);
#245=VECTOR('',#864,10.);
#246=VECTOR('',#865,10.);
#247=VECTOR('',#868,10.);
#248=VECTOR('',#869,10.);
#249=VECTOR('',#870,10.);
#250=VECTOR('',#873,10.);
#251=VECTOR('',#874,10.);
#252=VECTOR('',#875,10.);
#253=VECTOR('',#878,10.);
#254=VECTOR('',#879,10.);
#255=VECTOR('',#884,10.);
#256=VECTOR('',#885,10.);
#257=VECTOR('',#886,10.);
#258=VECTOR('',#887,10.);
#259=VECTOR('',#890,10.);
#260=VECTOR('',#891,10.);
#261=VECTOR('',#892,10.);
#262=VECTOR('',#895,10.);
#263=VECTOR('',#896,10.);
#264=VECTOR('',#897,10.);
#265=VECTOR('',#900,10.);
#266=VECTOR('',#901,10.);
#267=VECTOR('',#906,10.);
#268=VECTOR('',#907,10.);
#269=VECTOR('',#908,10.);
#270=VECTOR('',#909,10.);
#271=VECTOR('',#912,10.);
#272=VECTOR('',#913,10.);
#273=VECTOR('',#914,10.);
#274=VECTOR('',#917,10.);
#275=VECTOR('',#918,10.);
#276=VECTOR('',#919,10.);
#277=VECTOR('',#922,10.);
#278=VECTOR('',#923,10.);
#279=VECTOR('',#928,10.);
#280=VECTOR('',#929,10.);
#281=VECTOR('',#930,10.);
#282=VECTOR('',#931,10.);
#283=VECTOR('',#934,10.);
#284=VECTOR('',#935,10.);
#285=VECTOR('',#936,10.);
#286=VECTOR('',#937,10.);
#287=VECTOR('',#940,10.);
#288=VECTOR('',#941,10.);
#289=VECTOR('',#942,10.);
#290=VECTOR('',#945,10.);
#291=VECTOR('',#946,10.);
#292=VECTOR('',#947,10.);
#293=VECTOR('',#950,10.);
#294=VECTOR('',#951,10.);
#295=VECTOR('',#954,10.);
#296=VECTOR('',#955,10.);
#297=VECTOR('',#958,10.);
#298=VECTOR('',#961,10.);
#299=VECTOR('',#962,10.);
#300=VECTOR('',#963,10.);
#301=VECTOR('',#966,10.);
#302=VECTOR('',#967,10.);
#303=VERTEX_POINT('',#974);
#304=VERTEX_POINT('',#975);
#305=VERTEX_POINT('',#977);
#306=VERTEX_POINT('',#979);
#307=VERTEX_POINT('',#983);
#308=VERTEX_POINT('',#985);
#309=VERTEX_POINT('',#989);
#310=VERTEX_POINT('',#991);
#311=VERTEX_POINT('',#999);
#312=VERTEX_POINT('',#1000);
#313=VERTEX_POINT('',#1002);
#314=VERTEX_POINT('',#1004);
#315=VERTEX_POINT('',#1008);
#316=VERTEX_POINT('',#1010);
#317=VERTEX_POINT('',#1014);
#318=VERTEX_POINT('',#1016);
#319=VERTEX_POINT('',#1024);
#320=VERTEX_POINT('',#1025);
#321=VERTEX_POINT('',#1027);
#322=VERTEX_POINT('',#1029);
#323=VERTEX_POINT('',#1033);
#324=VERTEX_POINT('',#1035);
#325=VERTEX_POINT('',#1039);
#326=VERTEX_POINT('',#1041);
#327=VERTEX_POINT('',#1049);
#328=VERTEX_POINT('',#1050);
#329=VERTEX_POINT('',#1052);
#330=VERTEX_POINT('',#1054);
#331=VERTEX_POINT('',#1058);
#332=VERTEX_POINT('',#1060);
#333=VERTEX_POINT('',#1064);
#334=VERTEX_POINT('',#1066);
#335=VERTEX_POINT('',#1074);
#336=VERTEX_POINT('',#1075);
#337=VERTEX_POINT('',#1077);
#338=VERTEX_POINT('',#1079);
#339=VERTEX_POINT('',#1083);
#340=VERTEX_POINT('',#1085);
#341=VERTEX_POINT('',#1089);
#342=VERTEX_POINT('',#1091);
#343=VERTEX_POINT('',#1099);
#344=VERTEX_POINT('',#1100);
#345=VERTEX_POINT('',#1102);
#346=VERTEX_POINT('',#1104);
#347=VERTEX_POINT('',#1108);
#348=VERTEX_POINT('',#1110);
#349=VERTEX_POINT('',#1114);
#350=VERTEX_POINT('',#1116);
#351=VERTEX_POINT('',#1124);
#352=VERTEX_POINT('',#1125);
#353=VERTEX_POINT('',#1127);
#354=VERTEX_POINT('',#1129);
#355=VERTEX_POINT('',#1133);
#356=VERTEX_POINT('',#1134);
#357=VERTEX_POINT('',#1136);
#358=VERTEX_POINT('',#1138);
#359=VERTEX_POINT('',#1142);
#360=VERTEX_POINT('',#1143);
#361=VERTEX_POINT('',#1148);
#362=VERTEX_POINT('',#1150);
#363=VERTEX_POINT('',#1154);
#364=VERTEX_POINT('',#1158);
#365=VERTEX_POINT('',#1164);
#366=VERTEX_POINT('',#1166);
#367=EDGE_CURVE('',#303,#304,#111,.T.);
#368=EDGE_CURVE('',#303,#305,#112,.T.);
#369=EDGE_CURVE('',#306,#305,#113,.T.);
#370=EDGE_CURVE('',#304,#306,#114,.T.);
#371=EDGE_CURVE('',#307,#303,#115,.T.);
#372=EDGE_CURVE('',#307,#308,#116,.T.);
#373=EDGE_CURVE('',#305,#308,#117,.T.);
#374=EDGE_CURVE('',#304,#309,#118,.T.);
#375=EDGE_CURVE('',#310,#306,#119,.T.);
#376=EDGE_CURVE('',#309,#310,#120,.T.);
#377=EDGE_CURVE('',#309,#307,#121,.T.);
#378=EDGE_CURVE('',#308,#310,#122,.T.);
#379=EDGE_CURVE('',#311,#312,#123,.T.);
#380=EDGE_CURVE('',#311,#313,#124,.T.);
#381=EDGE_CURVE('',#314,#313,#125,.T.);
#382=EDGE_CURVE('',#312,#314,#126,.T.);
#383=EDGE_CURVE('',#315,#311,#127,.T.);
#384=EDGE_CURVE('',#315,#316,#128,.T.);
#385=EDGE_CURVE('',#313,#316,#129,.T.);
#386=EDGE_CURVE('',#312,#317,#130,.T.);
#387=EDGE_CURVE('',#318,#314,#131,.T.);
#388=EDGE_CURVE('',#317,#318,#132,.T.);
#389=EDGE_CURVE('',#317,#315,#133,.T.);
#390=EDGE_CURVE('',#316,#318,#134,.T.);
#391=EDGE_CURVE('',#319,#320,#135,.T.);
#392=EDGE_CURVE('',#319,#321,#136,.T.);
#393=EDGE_CURVE('',#322,#321,#137,.T.);
#394=EDGE_CURVE('',#320,#322,#138,.T.);
#395=EDGE_CURVE('',#323,#319,#139,.T.);
#396=EDGE_CURVE('',#323,#324,#140,.T.);
#397=EDGE_CURVE('',#321,#324,#141,.T.);
#398=EDGE_CURVE('',#320,#325,#142,.T.);
#399=EDGE_CURVE('',#326,#322,#143,.T.);
#400=EDGE_CURVE('',#325,#326,#144,.T.);
#401=EDGE_CURVE('',#325,#323,#145,.T.);
#402=EDGE_CURVE('',#324,#326,#146,.T.);
#403=EDGE_CURVE('',#327,#328,#147,.T.);
#404=EDGE_CURVE('',#327,#329,#148,.T.);
#405=EDGE_CURVE('',#330,#329,#149,.T.);
#406=EDGE_CURVE('',#328,#330,#150,.T.);
#407=EDGE_CURVE('',#331,#327,#151,.T.);
#408=EDGE_CURVE('',#331,#332,#152,.T.);
#409=EDGE_CURVE('',#329,#332,#153,.T.);
#410=EDGE_CURVE('',#328,#333,#154,.T.);
#411=EDGE_CURVE('',#334,#330,#155,.T.);
#412=EDGE_CURVE('',#333,#334,#156,.T.);
#413=EDGE_CURVE('',#333,#331,#157,.T.);
#414=EDGE_CURVE('',#332,#334,#158,.T.);
#415=EDGE_CURVE('',#335,#336,#159,.T.);
#416=EDGE_CURVE('',#335,#337,#160,.T.);
#417=EDGE_CURVE('',#338,#337,#161,.T.);
#418=EDGE_CURVE('',#336,#338,#162,.T.);
#419=EDGE_CURVE('',#339,#335,#163,.T.);
#420=EDGE_CURVE('',#339,#340,#164,.T.);
#421=EDGE_CURVE('',#337,#340,#165,.T.);
#422=EDGE_CURVE('',#336,#341,#166,.T.);
#423=EDGE_CURVE('',#342,#338,#167,.T.);
#424=EDGE_CURVE('',#341,#342,#168,.T.);
#425=EDGE_CURVE('',#341,#339,#169,.T.);
#426=EDGE_CURVE('',#340,#342,#170,.T.);
#427=EDGE_CURVE('',#343,#344,#171,.T.);
#428=EDGE_CURVE('',#343,#345,#172,.T.);
#429=EDGE_CURVE('',#346,#345,#173,.T.);
#430=EDGE_CURVE('',#344,#346,#174,.T.);
#431=EDGE_CURVE('',#347,#343,#175,.T.);
#432=EDGE_CURVE('',#347,#348,#176,.T.);
#433=EDGE_CURVE('',#345,#348,#177,.T.);
#434=EDGE_CURVE('',#344,#349,#178,.T.);
#435=EDGE_CURVE('',#350,#346,#179,.T.);
#436=EDGE_CURVE('',#349,#350,#180,.T.);
#437=EDGE_CURVE('',#349,#347,#181,.T.);
#438=EDGE_CURVE('',#348,#350,#182,.T.);
#439=EDGE_CURVE('',#351,#352,#183,.T.);
#440=EDGE_CURVE('',#353,#351,#184,.T.);
#441=EDGE_CURVE('',#354,#353,#185,.T.);
#442=EDGE_CURVE('',#352,#354,#186,.T.);
#443=EDGE_CURVE('',#355,#356,#187,.T.);
#444=EDGE_CURVE('',#357,#356,#188,.T.);
#445=EDGE_CURVE('',#358,#357,#189,.T.);
#446=EDGE_CURVE('',#358,#355,#190,.T.);
#447=EDGE_CURVE('',#359,#360,#191,.T.);
#448=EDGE_CURVE('',#356,#360,#192,.T.);
#449=EDGE_CURVE('',#355,#359,#193,.T.);
#450=EDGE_CURVE('',#353,#361,#194,.T.);
#451=EDGE_CURVE('',#362,#361,#195,.T.);
#452=EDGE_CURVE('',#354,#362,#196,.T.);
#453=EDGE_CURVE('',#351,#363,#197,.T.);
#454=EDGE_CURVE('',#361,#363,#198,.T.);
#455=EDGE_CURVE('',#352,#364,#199,.T.);
#456=EDGE_CURVE('',#363,#364,#200,.T.);
#457=EDGE_CURVE('',#364,#362,#201,.T.);
#458=EDGE_CURVE('',#365,#357,#202,.T.);
#459=EDGE_CURVE('',#366,#365,#203,.T.);
#460=EDGE_CURVE('',#366,#358,#204,.T.);
#461=EDGE_CURVE('',#360,#365,#205,.T.);
#462=EDGE_CURVE('',#359,#366,#206,.T.);
#463=ORIENTED_EDGE('',*,*,#367,.F.);
#464=ORIENTED_EDGE('',*,*,#368,.T.);
#465=ORIENTED_EDGE('',*,*,#369,.F.);
#466=ORIENTED_EDGE('',*,*,#370,.F.);
#467=ORIENTED_EDGE('',*,*,#371,.F.);
#468=ORIENTED_EDGE('',*,*,#372,.T.);
#469=ORIENTED_EDGE('',*,*,#373,.F.);
#470=ORIENTED_EDGE('',*,*,#368,.F.);
#471=ORIENTED_EDGE('',*,*,#374,.F.);
#472=ORIENTED_EDGE('',*,*,#370,.T.);
#473=ORIENTED_EDGE('',*,*,#375,.F.);
#474=ORIENTED_EDGE('',*,*,#376,.F.);
#475=ORIENTED_EDGE('',*,*,#377,.F.);
#476=ORIENTED_EDGE('',*,*,#376,.T.);
#477=ORIENTED_EDGE('',*,*,#378,.F.);
#478=ORIENTED_EDGE('',*,*,#372,.F.);
#479=ORIENTED_EDGE('',*,*,#378,.T.);
#480=ORIENTED_EDGE('',*,*,#375,.T.);
#481=ORIENTED_EDGE('',*,*,#369,.T.);
#482=ORIENTED_EDGE('',*,*,#373,.T.);
#483=ORIENTED_EDGE('',*,*,#379,.F.);
#484=ORIENTED_EDGE('',*,*,#380,.T.);
#485=ORIENTED_EDGE('',*,*,#381,.F.);
#486=ORIENTED_EDGE('',*,*,#382,.F.);
#487=ORIENTED_EDGE('',*,*,#383,.F.);
#488=ORIENTED_EDGE('',*,*,#384,.T.);
#489=ORIENTED_EDGE('',*,*,#385,.F.);
#490=ORIENTED_EDGE('',*,*,#380,.F.);
#491=ORIENTED_EDGE('',*,*,#386,.F.);
#492=ORIENTED_EDGE('',*,*,#382,.T.);
#493=ORIENTED_EDGE('',*,*,#387,.F.);
#494=ORIENTED_EDGE('',*,*,#388,.F.);
#495=ORIENTED_EDGE('',*,*,#389,.F.);
#496=ORIENTED_EDGE('',*,*,#388,.T.);
#497=ORIENTED_EDGE('',*,*,#390,.F.);
#498=ORIENTED_EDGE('',*,*,#384,.F.);
#499=ORIENTED_EDGE('',*,*,#390,.T.);
#500=ORIENTED_EDGE('',*,*,#387,.T.);
#501=ORIENTED_EDGE('',*,*,#381,.T.);
#502=ORIENTED_EDGE('',*,*,#385,.T.);
#503=ORIENTED_EDGE('',*,*,#391,.F.);
#504=ORIENTED_EDGE('',*,*,#392,.T.);
#505=ORIENTED_EDGE('',*,*,#393,.F.);
#506=ORIENTED_EDGE('',*,*,#394,.F.);
#507=ORIENTED_EDGE('',*,*,#395,.F.);
#508=ORIENTED_EDGE('',*,*,#396,.T.);
#509=ORIENTED_EDGE('',*,*,#397,.F.);
#510=ORIENTED_EDGE('',*,*,#392,.F.);
#511=ORIENTED_EDGE('',*,*,#398,.F.);
#512=ORIENTED_EDGE('',*,*,#394,.T.);
#513=ORIENTED_EDGE('',*,*,#399,.F.);
#514=ORIENTED_EDGE('',*,*,#400,.F.);
#515=ORIENTED_EDGE('',*,*,#401,.F.);
#516=ORIENTED_EDGE('',*,*,#400,.T.);
#517=ORIENTED_EDGE('',*,*,#402,.F.);
#518=ORIENTED_EDGE('',*,*,#396,.F.);
#519=ORIENTED_EDGE('',*,*,#402,.T.);
#520=ORIENTED_EDGE('',*,*,#399,.T.);
#521=ORIENTED_EDGE('',*,*,#393,.T.);
#522=ORIENTED_EDGE('',*,*,#397,.T.);
#523=ORIENTED_EDGE('',*,*,#403,.F.);
#524=ORIENTED_EDGE('',*,*,#404,.T.);
#525=ORIENTED_EDGE('',*,*,#405,.F.);
#526=ORIENTED_EDGE('',*,*,#406,.F.);
#527=ORIENTED_EDGE('',*,*,#407,.F.);
#528=ORIENTED_EDGE('',*,*,#408,.T.);
#529=ORIENTED_EDGE('',*,*,#409,.F.);
#530=ORIENTED_EDGE('',*,*,#404,.F.);
#531=ORIENTED_EDGE('',*,*,#410,.F.);
#532=ORIENTED_EDGE('',*,*,#406,.T.);
#533=ORIENTED_EDGE('',*,*,#411,.F.);
#534=ORIENTED_EDGE('',*,*,#412,.F.);
#535=ORIENTED_EDGE('',*,*,#413,.F.);
#536=ORIENTED_EDGE('',*,*,#412,.T.);
#537=ORIENTED_EDGE('',*,*,#414,.F.);
#538=ORIENTED_EDGE('',*,*,#408,.F.);
#539=ORIENTED_EDGE('',*,*,#414,.T.);
#540=ORIENTED_EDGE('',*,*,#411,.T.);
#541=ORIENTED_EDGE('',*,*,#405,.T.);
#542=ORIENTED_EDGE('',*,*,#409,.T.);
#543=ORIENTED_EDGE('',*,*,#415,.F.);
#544=ORIENTED_EDGE('',*,*,#416,.T.);
#545=ORIENTED_EDGE('',*,*,#417,.F.);
#546=ORIENTED_EDGE('',*,*,#418,.F.);
#547=ORIENTED_EDGE('',*,*,#419,.F.);
#548=ORIENTED_EDGE('',*,*,#420,.T.);
#549=ORIENTED_EDGE('',*,*,#421,.F.);
#550=ORIENTED_EDGE('',*,*,#416,.F.);
#551=ORIENTED_EDGE('',*,*,#422,.F.);
#552=ORIENTED_EDGE('',*,*,#418,.T.);
#553=ORIENTED_EDGE('',*,*,#423,.F.);
#554=ORIENTED_EDGE('',*,*,#424,.F.);
#555=ORIENTED_EDGE('',*,*,#425,.F.);
#556=ORIENTED_EDGE('',*,*,#424,.T.);
#557=ORIENTED_EDGE('',*,*,#426,.F.);
#558=ORIENTED_EDGE('',*,*,#420,.F.);
#559=ORIENTED_EDGE('',*,*,#426,.T.);
#560=ORIENTED_EDGE('',*,*,#423,.T.);
#561=ORIENTED_EDGE('',*,*,#417,.T.);
#562=ORIENTED_EDGE('',*,*,#421,.T.);
#563=ORIENTED_EDGE('',*,*,#427,.F.);
#564=ORIENTED_EDGE('',*,*,#428,.T.);
#565=ORIENTED_EDGE('',*,*,#429,.F.);
#566=ORIENTED_EDGE('',*,*,#430,.F.);
#567=ORIENTED_EDGE('',*,*,#431,.F.);
#568=ORIENTED_EDGE('',*,*,#432,.T.);
#569=ORIENTED_EDGE('',*,*,#433,.F.);
#570=ORIENTED_EDGE('',*,*,#428,.F.);
#571=ORIENTED_EDGE('',*,*,#434,.F.);
#572=ORIENTED_EDGE('',*,*,#430,.T.);
#573=ORIENTED_EDGE('',*,*,#435,.F.);
#574=ORIENTED_EDGE('',*,*,#436,.F.);
#575=ORIENTED_EDGE('',*,*,#437,.F.);
#576=ORIENTED_EDGE('',*,*,#436,.T.);
#577=ORIENTED_EDGE('',*,*,#438,.F.);
#578=ORIENTED_EDGE('',*,*,#432,.F.);
#579=ORIENTED_EDGE('',*,*,#438,.T.);
#580=ORIENTED_EDGE('',*,*,#435,.T.);
#581=ORIENTED_EDGE('',*,*,#429,.T.);
#582=ORIENTED_EDGE('',*,*,#433,.T.);
#583=ORIENTED_EDGE('',*,*,#439,.F.);
#584=ORIENTED_EDGE('',*,*,#440,.F.);
#585=ORIENTED_EDGE('',*,*,#441,.F.);
#586=ORIENTED_EDGE('',*,*,#442,.F.);
#587=ORIENTED_EDGE('',*,*,#371,.T.);
#588=ORIENTED_EDGE('',*,*,#367,.T.);
#589=ORIENTED_EDGE('',*,*,#374,.T.);
#590=ORIENTED_EDGE('',*,*,#377,.T.);
#591=ORIENTED_EDGE('',*,*,#383,.T.);
#592=ORIENTED_EDGE('',*,*,#379,.T.);
#593=ORIENTED_EDGE('',*,*,#386,.T.);
#594=ORIENTED_EDGE('',*,*,#389,.T.);
#595=ORIENTED_EDGE('',*,*,#395,.T.);
#596=ORIENTED_EDGE('',*,*,#391,.T.);
#597=ORIENTED_EDGE('',*,*,#398,.T.);
#598=ORIENTED_EDGE('',*,*,#401,.T.);
#599=ORIENTED_EDGE('',*,*,#407,.T.);
#600=ORIENTED_EDGE('',*,*,#403,.T.);
#601=ORIENTED_EDGE('',*,*,#410,.T.);
#602=ORIENTED_EDGE('',*,*,#413,.T.);
#603=ORIENTED_EDGE('',*,*,#419,.T.);
#604=ORIENTED_EDGE('',*,*,#415,.T.);
#605=ORIENTED_EDGE('',*,*,#422,.T.);
#606=ORIENTED_EDGE('',*,*,#425,.T.);
#607=ORIENTED_EDGE('',*,*,#431,.T.);
#608=ORIENTED_EDGE('',*,*,#427,.T.);
#609=ORIENTED_EDGE('',*,*,#434,.T.);
#610=ORIENTED_EDGE('',*,*,#437,.T.);
#611=ORIENTED_EDGE('',*,*,#443,.T.);
#612=ORIENTED_EDGE('',*,*,#444,.F.);
#613=ORIENTED_EDGE('',*,*,#445,.F.);
#614=ORIENTED_EDGE('',*,*,#446,.T.);
#615=ORIENTED_EDGE('',*,*,#447,.T.);
#616=ORIENTED_EDGE('',*,*,#448,.F.);
#617=ORIENTED_EDGE('',*,*,#443,.F.);
#618=ORIENTED_EDGE('',*,*,#449,.T.);
#619=ORIENTED_EDGE('',*,*,#441,.T.);
#620=ORIENTED_EDGE('',*,*,#450,.T.);
#621=ORIENTED_EDGE('',*,*,#451,.F.);
#622=ORIENTED_EDGE('',*,*,#452,.F.);
#623=ORIENTED_EDGE('',*,*,#440,.T.);
#624=ORIENTED_EDGE('',*,*,#453,.T.);
#625=ORIENTED_EDGE('',*,*,#454,.F.);
#626=ORIENTED_EDGE('',*,*,#450,.F.);
#627=ORIENTED_EDGE('',*,*,#439,.T.);
#628=ORIENTED_EDGE('',*,*,#455,.T.);
#629=ORIENTED_EDGE('',*,*,#456,.F.);
#630=ORIENTED_EDGE('',*,*,#453,.F.);
#631=ORIENTED_EDGE('',*,*,#442,.T.);
#632=ORIENTED_EDGE('',*,*,#452,.T.);
#633=ORIENTED_EDGE('',*,*,#457,.F.);
#634=ORIENTED_EDGE('',*,*,#455,.F.);
#635=ORIENTED_EDGE('',*,*,#445,.T.);
#636=ORIENTED_EDGE('',*,*,#458,.F.);
#637=ORIENTED_EDGE('',*,*,#459,.F.);
#638=ORIENTED_EDGE('',*,*,#460,.T.);
#639=ORIENTED_EDGE('',*,*,#459,.T.);
#640=ORIENTED_EDGE('',*,*,#461,.F.);
#641=ORIENTED_EDGE('',*,*,#447,.F.);
#642=ORIENTED_EDGE('',*,*,#462,.T.);
#643=ORIENTED_EDGE('',*,*,#448,.T.);
#644=ORIENTED_EDGE('',*,*,#461,.T.);
#645=ORIENTED_EDGE('',*,*,#458,.T.);
#646=ORIENTED_EDGE('',*,*,#444,.T.);
#647=ORIENTED_EDGE('',*,*,#456,.T.);
#648=ORIENTED_EDGE('',*,*,#457,.T.);
#649=ORIENTED_EDGE('',*,*,#451,.T.);
#650=ORIENTED_EDGE('',*,*,#454,.T.);
#651=ORIENTED_EDGE('',*,*,#449,.F.);
#652=ORIENTED_EDGE('',*,*,#446,.F.);
#653=ORIENTED_EDGE('',*,*,#460,.F.);
#654=ORIENTED_EDGE('',*,*,#462,.F.);
#655=PLANE('',#751);
#656=PLANE('',#752);
#657=PLANE('',#753);
#658=PLANE('',#754);
#659=PLANE('',#755);
#660=PLANE('',#756);
#661=PLANE('',#757);
#662=PLANE('',#758);
#663=PLANE('',#759);
#664=PLANE('',#760);
#665=PLANE('',#761);
#666=PLANE('',#762);
#667=PLANE('',#763);
#668=PLANE('',#764);
#669=PLANE('',#765);
#670=PLANE('',#766);
#671=PLANE('',#767);
#672=PLANE('',#768);
#673=PLANE('',#769);
#674=PLANE('',#770);
#675=PLANE('',#771);
#676=PLANE('',#772);
#677=PLANE('',#773);
#678=PLANE('',#774);
#679=PLANE('',#775);
#680=PLANE('',#776);
#681=PLANE('',#777);
#682=PLANE('',#778);
#683=PLANE('',#779);
#684=PLANE('',#780);
#685=PLANE('',#781);
#686=PLANE('',#782);
#687=PLANE('',#783);
#688=PLANE('',#784);
#689=PLANE('',#785);
#690=PLANE('',#786);
#691=PLANE('',#787);
#692=PLANE('',#788);
#693=PLANE('',#789);
#694=PLANE('',#790);
#695=PLANE('',#791);
#696=ADVANCED_FACE('',(#22),#655,.T.);
#697=ADVANCED_FACE('',(#23),#656,.T.);
#698=ADVANCED_FACE('',(#24),#657,.T.);
#699=ADVANCED_FACE('',(#25),#658,.T.);
#700=ADVANCED_FACE('',(#26),#659,.T.);
#701=ADVANCED_FACE('',(#27),#660,.T.);
#702=ADVANCED_FACE('',(#28),#661,.T.);
#703=ADVANCED_FACE('',(#29),#662,.T.);
#704=ADVANCED_FACE('',(#30),#663,.T.);
#705=ADVANCED_FACE('',(#31),#664,.T.);
#706=ADVANCED_FACE('',(#32),#665,.T.);
#707=ADVANCED_FACE('',(#33),#666,.T.);
#708=ADVANCED_FACE('',(#34),#667,.T.);
#709=ADVANCED_FACE('',(#35),#668,.T.);
#710=ADVANCED_FACE('',(#36),#669,.T.);
#711=ADVANCED_FACE('',(#37),#670,.T.);
#712=ADVANCED_FACE('',(#38),#671,.T.);
#713=ADVANCED_FACE('',(#39),#672,.T.);
#714=ADVANCED_FACE('',(#40),#673,.T.);
#715=ADVANCED_FACE('',(#41),#674,.T.);
#716=ADVANCED_FACE('',(#42),#675,.T.);
#717=ADVANCED_FACE('',(#43),#676,.T.);
#718=ADVANCED_FACE('',(#44),#677,.T.);
#719=ADVANCED_FACE('',(#45),#678,.T.);
#720=ADVANCED_FACE('',(#46),#679,.T.);
#721=ADVANCED_FACE('',(#47),#680,.T.);
#722=ADVANCED_FACE('',(#48),#681,.T.);
#723=ADVANCED_FACE('',(#49),#682,.T.);
#724=ADVANCED_FACE('',(#50),#683,.T.);
#725=ADVANCED_FACE('',(#51),#684,.T.);
#726=ADVANCED_FACE('',(#52,#15,#16,#17,#18,#19,#20),#685,.T.);
#727=ADVANCED_FACE('',(#53),#686,.T.);
#728=ADVANCED_FACE('',(#54),#687,.T.);
#729=ADVANCED_FACE('',(#55),#688,.F.);
#730=ADVANCED_FACE('',(#56),#689,.F.);
#731=ADVANCED_FACE('',(#57),#690,.F.);
#732=ADVANCED_FACE('',(#58),#691,.F.);
#733=ADVANCED_FACE('',(#59),#692,.T.);
#734=ADVANCED_FACE('',(#60),#693,.T.);
#735=ADVANCED_FACE('',(#61,#21),#694,.T.);
#736=ADVANCED_FACE('',(#62),#695,.F.);
#737=CLOSED_SHELL('',(#696,#697,#698,#699,#700,#701,#702,#703,#704,#705,
#706,#707,#708,#709,#710,#711,#712,#713,#714,#715,#716,#717,#718,#719,#720,
#721,#722,#723,#724,#725,#726,#727,#728,#729,#730,#731,#732,#733,#734,#735,
#736));
#738=DERIVED_UNIT_ELEMENT(#740,1.);
#739=DERIVED_UNIT_ELEMENT(#1179,-3.);
#740=(
MASS_UNIT()
NAMED_UNIT(*)
SI_UNIT(.KILO.,.GRAM.)
);
#741=DERIVED_UNIT((#738,#739));
#742=MEASURE_REPRESENTATION_ITEM('density measure',
POSITIVE_RATIO_MEASURE(7850.),#741);
#743=PROPERTY_DEFINITION_REPRESENTATION(#748,#745);
#744=PROPERTY_DEFINITION_REPRESENTATION(#749,#746);
#745=REPRESENTATION('material name',(#747),#1176);
#746=REPRESENTATION('density',(#742),#1176);
#747=DESCRIPTIVE_REPRESENTATION_ITEM('\X2\92FC\X0\','\X2\92FC\X0\');
#748=PROPERTY_DEFINITION('material property','material name',#1186);
#749=PROPERTY_DEFINITION('material property','density of part',#1186);
#750=AXIS2_PLACEMENT_3D('',#972,#792,#793);
#751=AXIS2_PLACEMENT_3D('',#973,#794,#795);
#752=AXIS2_PLACEMENT_3D('',#982,#800,#801);
#753=AXIS2_PLACEMENT_3D('',#988,#805,#806);
#754=AXIS2_PLACEMENT_3D('',#994,#810,#811);
#755=AXIS2_PLACEMENT_3D('',#997,#814,#815);
#756=AXIS2_PLACEMENT_3D('',#998,#816,#817);
#757=AXIS2_PLACEMENT_3D('',#1007,#822,#823);
#758=AXIS2_PLACEMENT_3D('',#1013,#827,#828);
#759=AXIS2_PLACEMENT_3D('',#1019,#832,#833);
#760=AXIS2_PLACEMENT_3D('',#1022,#836,#837);
#761=AXIS2_PLACEMENT_3D('',#1023,#838,#839);
#762=AXIS2_PLACEMENT_3D('',#1032,#844,#845);
#763=AXIS2_PLACEMENT_3D('',#1038,#849,#850);
#764=AXIS2_PLACEMENT_3D('',#1044,#854,#855);
#765=AXIS2_PLACEMENT_3D('',#1047,#858,#859);
#766=AXIS2_PLACEMENT_3D('',#1048,#860,#861);
#767=AXIS2_PLACEMENT_3D('',#1057,#866,#867);
#768=AXIS2_PLACEMENT_3D('',#1063,#871,#872);
#769=AXIS2_PLACEMENT_3D('',#1069,#876,#877);
#770=AXIS2_PLACEMENT_3D('',#1072,#880,#881);
#771=AXIS2_PLACEMENT_3D('',#1073,#882,#883);
#772=AXIS2_PLACEMENT_3D('',#1082,#888,#889);
#773=AXIS2_PLACEMENT_3D('',#1088,#893,#894);
#774=AXIS2_PLACEMENT_3D('',#1094,#898,#899);
#775=AXIS2_PLACEMENT_3D('',#1097,#902,#903);
#776=AXIS2_PLACEMENT_3D('',#1098,#904,#905);
#777=AXIS2_PLACEMENT_3D('',#1107,#910,#911);
#778=AXIS2_PLACEMENT_3D('',#1113,#915,#916);
#779=AXIS2_PLACEMENT_3D('',#1119,#920,#921);
#780=AXIS2_PLACEMENT_3D('',#1122,#924,#925);
#781=AXIS2_PLACEMENT_3D('',#1123,#926,#927);
#782=AXIS2_PLACEMENT_3D('',#1132,#932,#933);
#783=AXIS2_PLACEMENT_3D('',#1141,#938,#939);
#784=AXIS2_PLACEMENT_3D('',#1147,#943,#944);
#785=AXIS2_PLACEMENT_3D('',#1153,#948,#949);
#786=AXIS2_PLACEMENT_3D('',#1157,#952,#953);
#787=AXIS2_PLACEMENT_3D('',#1161,#956,#957);
#788=AXIS2_PLACEMENT_3D('',#1163,#959,#960);
#789=AXIS2_PLACEMENT_3D('',#1169,#964,#965);
#790=AXIS2_PLACEMENT_3D('',#1172,#968,#969);
#791=AXIS2_PLACEMENT_3D('',#1173,#970,#971);
#792=DIRECTION('axis',(0.,0.,1.));
#793=DIRECTION('refdir',(1.,0.,0.));
#794=DIRECTION('center_axis',(1.,0.,0.));
#795=DIRECTION('ref_axis',(0.,1.,0.));
#796=DIRECTION('',(0.,-1.,0.));
#797=DIRECTION('',(0.,0.,1.));
#798=DIRECTION('',(0.,1.,0.));
#799=DIRECTION('',(0.,0.,1.));
#800=DIRECTION('center_axis',(0.,1.,0.));
#801=DIRECTION('ref_axis',(-1.,0.,0.));
#802=DIRECTION('',(1.,0.,0.));
#803=DIRECTION('',(0.,0.,1.));
#804=DIRECTION('',(-1.,0.,0.));
#805=DIRECTION('center_axis',(0.,-1.,0.));
#806=DIRECTION('ref_axis',(1.,0.,0.));
#807=DIRECTION('',(-1.,0.,0.));
#808=DIRECTION('',(1.,0.,0.));
#809=DIRECTION('',(0.,0.,1.));
#810=DIRECTION('center_axis',(-1.,0.,0.));
#811=DIRECTION('ref_axis',(0.,-1.,0.));
#812=DIRECTION('',(0.,1.,0.));
#813=DIRECTION('',(0.,-1.,0.));
#814=DIRECTION('center_axis',(0.,0.,1.));
#815=DIRECTION('ref_axis',(1.,0.,0.));
#816=DIRECTION('center_axis',(1.,0.,0.));
#817=DIRECTION('ref_axis',(0.,1.,0.));
#818=DIRECTION('',(0.,-1.,0.));
#819=DIRECTION('',(0.,0.,1.));
#820=DIRECTION('',(0.,1.,0.));
#821=DIRECTION('',(0.,0.,1.));
#822=DIRECTION('center_axis',(0.,1.,0.));
#823=DIRECTION('ref_axis',(-1.,0.,0.));
#824=DIRECTION('',(1.,0.,0.));
#825=DIRECTION('',(0.,0.,1.));
#826=DIRECTION('',(-1.,0.,0.));
#827=DIRECTION('center_axis',(0.,-1.,0.));
#828=DIRECTION('ref_axis',(1.,0.,0.));
#829=DIRECTION('',(-1.,0.,0.));
#830=DIRECTION('',(1.,0.,0.));
#831=DIRECTION('',(0.,0.,1.));
#832=DIRECTION('center_axis',(-1.,0.,0.));
#833=DIRECTION('ref_axis',(0.,-1.,0.));
#834=DIRECTION('',(0.,1.,0.));
#835=DIRECTION('',(0.,-1.,0.));
#836=DIRECTION('center_axis',(0.,0.,1.));
#837=DIRECTION('ref_axis',(1.,0.,0.));
#838=DIRECTION('center_axis',(1.,0.,0.));
#839=DIRECTION('ref_axis',(0.,1.,0.));
#840=DIRECTION('',(0.,-1.,0.));
#841=DIRECTION('',(0.,0.,1.));
#842=DIRECTION('',(0.,1.,0.));
#843=DIRECTION('',(0.,0.,1.));
#844=DIRECTION('center_axis',(0.,1.,0.));
#845=DIRECTION('ref_axis',(-1.,0.,0.));
#846=DIRECTION('',(1.,0.,0.));
#847=DIRECTION('',(0.,0.,1.));
#848=DIRECTION('',(-1.,0.,0.));
#849=DIRECTION('center_axis',(0.,-1.,0.));
#850=DIRECTION('ref_axis',(1.,0.,0.));
#851=DIRECTION('',(-1.,0.,0.));
#852=DIRECTION('',(1.,0.,0.));
#853=DIRECTION('',(0.,0.,1.));
#854=DIRECTION('center_axis',(-1.,0.,0.));
#855=DIRECTION('ref_axis',(0.,-1.,0.));
#856=DIRECTION('',(0.,1.,0.));
#857=DIRECTION('',(0.,-1.,0.));
#858=DIRECTION('center_axis',(0.,0.,1.));
#859=DIRECTION('ref_axis',(1.,0.,0.));
#860=DIRECTION('center_axis',(1.,0.,0.));
#861=DIRECTION('ref_axis',(0.,1.,0.));
#862=DIRECTION('',(0.,-1.,0.));
#863=DIRECTION('',(0.,0.,1.));
#864=DIRECTION('',(0.,1.,0.));
#865=DIRECTION('',(0.,0.,1.));
#866=DIRECTION('center_axis',(0.,1.,0.));
#867=DIRECTION('ref_axis',(-1.,0.,0.));
#868=DIRECTION('',(1.,0.,0.));
#869=DIRECTION('',(0.,0.,1.));
#870=DIRECTION('',(-1.,0.,0.));
#871=DIRECTION('center_axis',(0.,-1.,0.));
#872=DIRECTION('ref_axis',(1.,0.,0.));
#873=DIRECTION('',(-1.,0.,0.));
#874=DIRECTION('',(1.,0.,0.));
#875=DIRECTION('',(0.,0.,1.));
#876=DIRECTION('center_axis',(-1.,0.,0.));
#877=DIRECTION('ref_axis',(0.,-1.,0.));
#878=DIRECTION('',(0.,1.,0.));
#879=DIRECTION('',(0.,-1.,0.));
#880=DIRECTION('center_axis',(0.,0.,1.));
#881=DIRECTION('ref_axis',(1.,0.,0.));
#882=DIRECTION('center_axis',(1.,0.,0.));
#883=DIRECTION('ref_axis',(0.,1.,0.));
#884=DIRECTION('',(0.,-1.,0.));
#885=DIRECTION('',(0.,0.,1.));
#886=DIRECTION('',(0.,1.,0.));
#887=DIRECTION('',(0.,0.,1.));
#888=DIRECTION('center_axis',(0.,1.,0.));
#889=DIRECTION('ref_axis',(-1.,0.,0.));
#890=DIRECTION('',(1.,0.,0.));
#891=DIRECTION('',(0.,0.,1.));
#892=DIRECTION('',(-1.,0.,0.));
#893=DIRECTION('center_axis',(0.,-1.,0.));
#894=DIRECTION('ref_axis',(1.,0.,0.));
#895=DIRECTION('',(-1.,0.,0.));
#896=DIRECTION('',(1.,0.,0.));
#897=DIRECTION('',(0.,0.,1.));
#898=DIRECTION('center_axis',(-1.,0.,0.));
#899=DIRECTION('ref_axis',(0.,-1.,0.));
#900=DIRECTION('',(0.,1.,0.));
#901=DIRECTION('',(0.,-1.,0.));
#902=DIRECTION('center_axis',(0.,0.,1.));
#903=DIRECTION('ref_axis',(1.,0.,0.));
#904=DIRECTION('center_axis',(1.,0.,0.));
#905=DIRECTION('ref_axis',(0.,1.,0.));
#906=DIRECTION('',(0.,-1.,0.));
#907=DIRECTION('',(0.,0.,1.));
#908=DIRECTION('',(0.,1.,0.));
#909=DIRECTION('',(0.,0.,1.));
#910=DIRECTION('center_axis',(0.,1.,0.));
#911=DIRECTION('ref_axis',(-1.,0.,0.));
#912=DIRECTION('',(1.,0.,0.));
#913=DIRECTION('',(0.,0.,1.));
#914=DIRECTION('',(-1.,0.,0.));
#915=DIRECTION('center_axis',(0.,-1.,0.));
#916=DIRECTION('ref_axis',(1.,0.,0.));
#917=DIRECTION('',(-1.,0.,0.));
#918=DIRECTION('',(1.,0.,0.));
#919=DIRECTION('',(0.,0.,1.));
#920=DIRECTION('center_axis',(-1.,0.,0.));
#921=DIRECTION('ref_axis',(0.,-1.,0.));
#922=DIRECTION('',(0.,1.,0.));
#923=DIRECTION('',(0.,-1.,0.));
#924=DIRECTION('center_axis',(0.,0.,1.));
#925=DIRECTION('ref_axis',(1.,0.,0.));
#926=DIRECTION('center_axis',(0.,0.,1.));
#927=DIRECTION('ref_axis',(1.,0.,0.));
#928=DIRECTION('',(1.,0.,0.));
#929=DIRECTION('',(0.,1.,0.));
#930=DIRECTION('',(-1.,0.,0.));
#931=DIRECTION('',(0.,-1.,0.));
#932=DIRECTION('center_axis',(0.,1.,0.));
#933=DIRECTION('ref_axis',(-1.,0.,0.));
#934=DIRECTION('',(0.,0.,1.));
#935=DIRECTION('',(-1.,0.,0.));
#936=DIRECTION('',(0.,0.,1.));
#937=DIRECTION('',(-1.,0.,0.));
#938=DIRECTION('center_axis',(-1.,0.,0.));
#939=DIRECTION('ref_axis',(0.,-1.,0.));
#940=DIRECTION('',(0.,0.,1.));
#941=DIRECTION('',(0.,-1.,0.));
#942=DIRECTION('',(0.,-1.,0.));
#943=DIRECTION('center_axis',(0.,-1.,0.));
#944=DIRECTION('ref_axis',(1.,0.,0.));
#945=DIRECTION('',(0.,0.,1.));
#946=DIRECTION('',(-1.,0.,0.));
#947=DIRECTION('',(0.,0.,1.));
#948=DIRECTION('center_axis',(-1.,0.,0.));
#949=DIRECTION('ref_axis',(0.,-1.,0.));
#950=DIRECTION('',(0.,0.,1.));
#951=DIRECTION('',(0.,1.,0.));
#952=DIRECTION('center_axis',(0.,1.,0.));
#953=DIRECTION('ref_axis',(-1.,0.,0.));
#954=DIRECTION('',(0.,0.,1.));
#955=DIRECTION('',(1.,0.,0.));
#956=DIRECTION('center_axis',(1.,0.,0.));
#957=DIRECTION('ref_axis',(0.,1.,0.));
#958=DIRECTION('',(0.,-1.,0.));
#959=DIRECTION('center_axis',(1.,0.,0.));
#960=DIRECTION('ref_axis',(0.,1.,0.));
#961=DIRECTION('',(0.,1.,0.));
#962=DIRECTION('',(0.,0.,1.));
#963=DIRECTION('',(0.,1.,0.));
#964=DIRECTION('center_axis',(0.,-1.,0.));
#965=DIRECTION('ref_axis',(1.,0.,0.));
#966=DIRECTION('',(1.,0.,0.));
#967=DIRECTION('',(1.,0.,0.));
#968=DIRECTION('center_axis',(0.,0.,1.));
#969=DIRECTION('ref_axis',(1.,0.,0.));
#970=DIRECTION('center_axis',(0.,0.,1.));
#971=DIRECTION('ref_axis',(1.,0.,0.));
#972=CARTESIAN_POINT('',(0.,0.,0.));
#973=CARTESIAN_POINT('Origin',(173.433,-130.881,0.));
#974=CARTESIAN_POINT('',(173.433,-127.881,2.5));
#975=CARTESIAN_POINT('',(173.433,-130.881,2.5));
#976=CARTESIAN_POINT('',(173.433,-103.277502720332,2.5));
#977=CARTESIAN_POINT('',(173.433,-127.881,8.));
#978=CARTESIAN_POINT('',(173.433,-127.881,0.));
#979=CARTESIAN_POINT('',(173.433,-130.881,8.));
#980=CARTESIAN_POINT('',(173.433,-130.881,8.));
#981=CARTESIAN_POINT('',(173.433,-130.881,0.));
#982=CARTESIAN_POINT('Origin',(173.433,-127.881,0.));
#983=CARTESIAN_POINT('',(159.433,-127.881,2.5));
#984=CARTESIAN_POINT('',(148.548499494553,-127.881,2.5));
#985=CARTESIAN_POINT('',(159.433,-127.881,8.));
#986=CARTESIAN_POINT('',(159.433,-127.881,0.));
#987=CARTESIAN_POINT('',(173.433,-127.881,8.));
#988=CARTESIAN_POINT('Origin',(159.433,-130.881,0.));
#989=CARTESIAN_POINT('',(159.433,-130.881,2.5));
#990=CARTESIAN_POINT('',(141.548499494553,-130.881,2.5));
#991=CARTESIAN_POINT('',(159.433,-130.881,8.));
#992=CARTESIAN_POINT('',(159.433,-130.881,8.));
#993=CARTESIAN_POINT('',(159.433,-130.881,0.));
#994=CARTESIAN_POINT('Origin',(159.433,-127.881,0.));
#995=CARTESIAN_POINT('',(159.433,-101.777502720332,2.5));
#996=CARTESIAN_POINT('',(159.433,-127.881,8.));
#997=CARTESIAN_POINT('Origin',(166.433,-129.381,8.));
#998=CARTESIAN_POINT('Origin',(82.,-108.775,0.));
#999=CARTESIAN_POINT('',(82.,-105.775,2.5));
#1000=CARTESIAN_POINT('',(82.,-108.775,2.5));
#1001=CARTESIAN_POINT('',(82.,-92.2245027203319,2.5));
#1002=CARTESIAN_POINT('',(82.,-105.775,8.));
#1003=CARTESIAN_POINT('',(82.,-105.775,0.));
#1004=CARTESIAN_POINT('',(82.,-108.775,8.));
#1005=CARTESIAN_POINT('',(82.,-108.775,8.));
#1006=CARTESIAN_POINT('',(82.,-108.775,0.));
#1007=CARTESIAN_POINT('Origin',(82.,-105.775,0.));
#1008=CARTESIAN_POINT('',(68.,-105.775,2.5));
#1009=CARTESIAN_POINT('',(102.831999494553,-105.775,2.5));
#1010=CARTESIAN_POINT('',(68.,-105.775,8.));
#1011=CARTESIAN_POINT('',(68.,-105.775,0.));
#1012=CARTESIAN_POINT('',(82.,-105.775,8.));
#1013=CARTESIAN_POINT('Origin',(68.,-108.775,0.));
#1014=CARTESIAN_POINT('',(68.,-108.775,2.5));
#1015=CARTESIAN_POINT('',(95.8319994945526,-108.775,2.5));
#1016=CARTESIAN_POINT('',(68.,-108.775,8.));
#1017=CARTESIAN_POINT('',(68.,-108.775,8.));
#1018=CARTESIAN_POINT('',(68.,-108.775,0.));
#1019=CARTESIAN_POINT('Origin',(68.,-105.775,0.));
#1020=CARTESIAN_POINT('',(68.,-90.7245027203319,2.5));
#1021=CARTESIAN_POINT('',(68.,-105.775,8.));
#1022=CARTESIAN_POINT('Origin',(75.,-107.275,8.));
#1023=CARTESIAN_POINT('Origin',(195.083,-87.,0.));
#1024=CARTESIAN_POINT('',(195.083,-73.,2.5));
#1025=CARTESIAN_POINT('',(195.083,-87.,2.5));
#1026=CARTESIAN_POINT('',(195.083,-81.3370027203319,2.5));
#1027=CARTESIAN_POINT('',(195.083,-73.,8.));
#1028=CARTESIAN_POINT('',(195.083,-73.,0.));
#1029=CARTESIAN_POINT('',(195.083,-87.,8.));
#1030=CARTESIAN_POINT('',(195.083,-87.,8.));
#1031=CARTESIAN_POINT('',(195.083,-87.,0.));
#1032=CARTESIAN_POINT('Origin',(195.083,-73.,0.));
#1033=CARTESIAN_POINT('',(192.083,-73.,2.5));
#1034=CARTESIAN_POINT('',(159.373499494553,-73.,2.5));
#1035=CARTESIAN_POINT('',(192.083,-73.,8.));
#1036=CARTESIAN_POINT('',(192.083,-73.,0.));
#1037=CARTESIAN_POINT('',(195.083,-73.,8.));
#1038=CARTESIAN_POINT('Origin',(192.083,-87.,0.));
#1039=CARTESIAN_POINT('',(192.083,-87.,2.5));
#1040=CARTESIAN_POINT('',(157.873499494553,-87.,2.5));
#1041=CARTESIAN_POINT('',(192.083,-87.,8.));
#1042=CARTESIAN_POINT('',(192.083,-87.,8.));
#1043=CARTESIAN_POINT('',(192.083,-87.,0.));
#1044=CARTESIAN_POINT('Origin',(192.083,-73.,0.));
#1045=CARTESIAN_POINT('',(192.083,-74.3370027203319,2.5));
#1046=CARTESIAN_POINT('',(192.083,-73.,8.));
#1047=CARTESIAN_POINT('Origin',(193.583,-80.,8.));
#1048=CARTESIAN_POINT('Origin',(55.245,-81.,0.));
#1049=CARTESIAN_POINT('',(55.245,-67.,2.5));
#1050=CARTESIAN_POINT('',(55.245,-81.,2.5));
#1051=CARTESIAN_POINT('',(55.245,-78.3370027203319,2.5));
#1052=CARTESIAN_POINT('',(55.245,-67.,8.));
#1053=CARTESIAN_POINT('',(55.245,-67.,0.));
#1054=CARTESIAN_POINT('',(55.245,-81.,8.));
#1055=CARTESIAN_POINT('',(55.245,-81.,8.));
#1056=CARTESIAN_POINT('',(55.245,-81.,0.));
#1057=CARTESIAN_POINT('Origin',(55.245,-67.,0.));
#1058=CARTESIAN_POINT('',(52.245,-67.,2.5));
#1059=CARTESIAN_POINT('',(89.4544994945526,-67.,2.5));
#1060=CARTESIAN_POINT('',(52.245,-67.,8.));
#1061=CARTESIAN_POINT('',(52.245,-67.,0.));
#1062=CARTESIAN_POINT('',(55.245,-67.,8.));
#1063=CARTESIAN_POINT('Origin',(52.245,-81.,0.));
#1064=CARTESIAN_POINT('',(52.245,-81.,2.5));
#1065=CARTESIAN_POINT('',(87.9544994945526,-81.,2.5));
#1066=CARTESIAN_POINT('',(52.245,-81.,8.));
#1067=CARTESIAN_POINT('',(52.245,-81.,8.));
#1068=CARTESIAN_POINT('',(52.245,-81.,0.));
#1069=CARTESIAN_POINT('Origin',(52.245,-67.,0.));
#1070=CARTESIAN_POINT('',(52.245,-71.3370027203319,2.5));
#1071=CARTESIAN_POINT('',(52.245,-67.,8.));
#1072=CARTESIAN_POINT('Origin',(53.745,-74.,8.));
#1073=CARTESIAN_POINT('Origin',(148.97,-20.9075,0.));
#1074=CARTESIAN_POINT('',(148.97,-17.9075,2.5));
#1075=CARTESIAN_POINT('',(148.97,-20.9075,2.5));
#1076=CARTESIAN_POINT('',(148.97,-48.2907527203319,2.5));
#1077=CARTESIAN_POINT('',(148.97,-17.9075,8.));
#1078=CARTESIAN_POINT('',(148.97,-17.9075,0.));
#1079=CARTESIAN_POINT('',(148.97,-20.9075,8.));
#1080=CARTESIAN_POINT('',(148.97,-20.9075,8.));
#1081=CARTESIAN_POINT('',(148.97,-20.9075,0.));
#1082=CARTESIAN_POINT('Origin',(148.97,-17.9075,0.));
#1083=CARTESIAN_POINT('',(134.97,-17.9075,2.5));
#1084=CARTESIAN_POINT('',(136.316999494553,-17.9075,2.5));
#1085=CARTESIAN_POINT('',(134.97,-17.9075,8.));
#1086=CARTESIAN_POINT('',(134.97,-17.9075,0.));
#1087=CARTESIAN_POINT('',(148.97,-17.9075,8.));
#1088=CARTESIAN_POINT('Origin',(134.97,-20.9075,0.));
#1089=CARTESIAN_POINT('',(134.97,-20.9075,2.5));
#1090=CARTESIAN_POINT('',(129.316999494553,-20.9075,2.5));
#1091=CARTESIAN_POINT('',(134.97,-20.9075,8.));
#1092=CARTESIAN_POINT('',(134.97,-20.9075,8.));
#1093=CARTESIAN_POINT('',(134.97,-20.9075,0.));
#1094=CARTESIAN_POINT('Origin',(134.97,-17.9075,0.));
#1095=CARTESIAN_POINT('',(134.97,-46.7907527203319,2.5));
#1096=CARTESIAN_POINT('',(134.97,-17.9075,8.));
#1097=CARTESIAN_POINT('Origin',(141.97,-19.4075,8.));
#1098=CARTESIAN_POINT('Origin',(82.,-27.575,0.));
#1099=CARTESIAN_POINT('',(82.,-24.575,2.5));
#1100=CARTESIAN_POINT('',(82.,-27.575,2.5));
#1101=CARTESIAN_POINT('',(82.,-51.6245027203319,2.5));
#1102=CARTESIAN_POINT('',(82.,-24.575,8.));
#1103=CARTESIAN_POINT('',(82.,-24.575,0.));
#1104=CARTESIAN_POINT('',(82.,-27.575,8.));
#1105=CARTESIAN_POINT('',(82.,-27.575,8.));
#1106=CARTESIAN_POINT('',(82.,-27.575,0.));
#1107=CARTESIAN_POINT('Origin',(82.,-24.575,0.));
#1108=CARTESIAN_POINT('',(68.,-24.575,2.5));
#1109=CARTESIAN_POINT('',(102.831999494553,-24.575,2.5));
#1110=CARTESIAN_POINT('',(68.,-24.575,8.));
#1111=CARTESIAN_POINT('',(68.,-24.575,0.));
#1112=CARTESIAN_POINT('',(82.,-24.575,8.));
#1113=CARTESIAN_POINT('Origin',(68.,-27.575,0.));
#1114=CARTESIAN_POINT('',(68.,-27.575,2.5));
#1115=CARTESIAN_POINT('',(95.8319994945526,-27.575,2.5));
#1116=CARTESIAN_POINT('',(68.,-27.575,8.));
#1117=CARTESIAN_POINT('',(68.,-27.575,8.));
#1118=CARTESIAN_POINT('',(68.,-27.575,0.));
#1119=CARTESIAN_POINT('Origin',(68.,-24.575,0.));
#1120=CARTESIAN_POINT('',(68.,-50.1245027203319,2.5));
#1121=CARTESIAN_POINT('',(68.,-24.575,8.));
#1122=CARTESIAN_POINT('Origin',(75.,-26.075,8.));
#1123=CARTESIAN_POINT('Origin',(123.663998989105,-75.6740054406639,2.5));
#1124=CARTESIAN_POINT('',(50.2349979782105,-15.8975,2.5));
#1125=CARTESIAN_POINT('',(197.093,-15.8975,2.5));
#1126=CARTESIAN_POINT('',(160.378499494553,-15.8975,2.5));
#1127=CARTESIAN_POINT('',(50.2349979782105,-135.450510881328,2.5));
#1128=CARTESIAN_POINT('',(50.2349979782105,-45.7857527203319,2.5));
#1129=CARTESIAN_POINT('',(197.093,-135.450510881328,2.5));
#1130=CARTESIAN_POINT('',(86.9494984836578,-135.450510881328,2.5));
#1131=CARTESIAN_POINT('',(197.093,-105.562258160996,2.5));
#1132=CARTESIAN_POINT('Origin',(200.093,-12.8975,0.));
#1133=CARTESIAN_POINT('',(47.2349979782104,-12.8975,0.));
#1134=CARTESIAN_POINT('',(47.2349979782104,-12.8975,8.));
#1135=CARTESIAN_POINT('',(47.2349979782104,-12.8975,0.));
#1136=CARTESIAN_POINT('',(200.093,-12.8975,8.));
#1137=CARTESIAN_POINT('',(200.093,-12.8975,8.));
#1138=CARTESIAN_POINT('',(200.093,-12.8975,0.));
#1139=CARTESIAN_POINT('',(200.093,-12.8975,0.));
#1140=CARTESIAN_POINT('',(200.093,-12.8975,0.));
#1141=CARTESIAN_POINT('Origin',(47.2349979782104,-12.8975,0.));
#1142=CARTESIAN_POINT('',(47.2349979782104,-138.450510881328,0.));
#1143=CARTESIAN_POINT('',(47.2349979782104,-138.450510881328,8.));
#1144=CARTESIAN_POINT('',(47.2349979782104,-138.450510881328,0.));
#1145=CARTESIAN_POINT('',(47.2349979782104,-12.8975,8.));
#1146=CARTESIAN_POINT('',(47.2349979782104,-12.8975,0.));
#1147=CARTESIAN_POINT('Origin',(50.2349979782105,-135.450510881328,0.));
#1148=CARTESIAN_POINT('',(50.2349979782105,-135.450510881328,8.));
#1149=CARTESIAN_POINT('',(50.2349979782105,-135.450510881328,0.));
#1150=CARTESIAN_POINT('',(197.093,-135.450510881328,8.));
#1151=CARTESIAN_POINT('',(86.9494984836578,-135.450510881328,8.));
#1152=CARTESIAN_POINT('',(197.093,-135.450510881328,0.));
#1153=CARTESIAN_POINT('Origin',(50.2349979782105,-15.8975,0.));
#1154=CARTESIAN_POINT('',(50.2349979782105,-15.8975,8.));
#1155=CARTESIAN_POINT('',(50.2349979782105,-15.8975,0.));
#1156=CARTESIAN_POINT('',(50.2349979782105,-45.7857527203319,8.));
#1157=CARTESIAN_POINT('Origin',(197.093,-15.8975,0.));
#1158=CARTESIAN_POINT('',(197.093,-15.8975,8.));
#1159=CARTESIAN_POINT('',(197.093,-15.8975,0.));
#1160=CARTESIAN_POINT('',(160.378499494553,-15.8975,8.));
#1161=CARTESIAN_POINT('Origin',(197.093,-135.450510881328,0.));
#1162=CARTESIAN_POINT('',(197.093,-105.562258160996,8.));
#1163=CARTESIAN_POINT('Origin',(200.093,-138.450510881328,0.));
#1164=CARTESIAN_POINT('',(200.093,-138.450510881328,8.));
#1165=CARTESIAN_POINT('',(200.093,-138.450510881328,8.));
#1166=CARTESIAN_POINT('',(200.093,-138.450510881328,0.));
#1167=CARTESIAN_POINT('',(200.093,-138.450510881328,0.));
#1168=CARTESIAN_POINT('',(200.093,-138.450510881328,0.));
#1169=CARTESIAN_POINT('Origin',(47.2349979782104,-138.450510881328,0.));
#1170=CARTESIAN_POINT('',(47.2349979782104,-138.450510881328,8.));
#1171=CARTESIAN_POINT('',(47.2349979782104,-138.450510881328,0.));
#1172=CARTESIAN_POINT('Origin',(123.663998989105,-75.6740054406639,8.));
#1173=CARTESIAN_POINT('Origin',(123.663998989105,-75.6740054406639,0.));
#1174=UNCERTAINTY_MEASURE_WITH_UNIT(LENGTH_MEASURE(0.01),#1178,
'DISTANCE_ACCURACY_VALUE',
'Maximum model space distance between geometric entities at asserted c
onnectivities');
#1175=UNCERTAINTY_MEASURE_WITH_UNIT(LENGTH_MEASURE(0.01),#1178,
'DISTANCE_ACCURACY_VALUE',
'Maximum model space distance between geometric entities at asserted c
onnectivities');
#1176=(
GEOMETRIC_REPRESENTATION_CONTEXT(3)
GLOBAL_UNCERTAINTY_ASSIGNED_CONTEXT((#1174))
GLOBAL_UNIT_ASSIGNED_CONTEXT((#1178,#1180,#1181))
REPRESENTATION_CONTEXT('','3D')
);
#1177=(
GEOMETRIC_REPRESENTATION_CONTEXT(3)
GLOBAL_UNCERTAINTY_ASSIGNED_CONTEXT((#1175))
GLOBAL_UNIT_ASSIGNED_CONTEXT((#1178,#1180,#1181))
REPRESENTATION_CONTEXT('','3D')
);
#1178=(
LENGTH_UNIT()
NAMED_UNIT(*)
SI_UNIT(.MILLI.,.METRE.)
);
#1179=(
LENGTH_UNIT()
NAMED_UNIT(*)
SI_UNIT($,.METRE.)
);
#1180=(
NAMED_UNIT(*)
PLANE_ANGLE_UNIT()
SI_UNIT($,.RADIAN.)
);
#1181=(
NAMED_UNIT(*)
SI_UNIT($,.STERADIAN.)
SOLID_ANGLE_UNIT()
);
#1182=SHAPE_DEFINITION_REPRESENTATION(#1183,#1184);
#1183=PRODUCT_DEFINITION_SHAPE('',$,#1186);
#1184=SHAPE_REPRESENTATION('',(#750),#1176);
#1185=PRODUCT_DEFINITION_CONTEXT('part definition',#1190,'design');
#1186=PRODUCT_DEFINITION('(\X2\672A4FDD5B58\X0\)','(\X2\672A4FDD5B58\X0\)',
#1187,#1185);
#1187=PRODUCT_DEFINITION_FORMATION('',$,#1192);
#1188=PRODUCT_RELATED_PRODUCT_CATEGORY('(\X2\672A4FDD5B58\X0\)',
'(\X2\672A4FDD5B58\X0\)',(#1192));
#1189=APPLICATION_PROTOCOL_DEFINITION('international standard',
'automotive_design',2009,#1190);
#1190=APPLICATION_CONTEXT(
'Core Data for Automotive Mechanical Design Process');
#1191=PRODUCT_CONTEXT('part definition',#1190,'mechanical');
#1192=PRODUCT('(\X2\672A4FDD5B58\X0\)','(\X2\672A4FDD5B58\X0\)',$,(#1191));
#1193=PRESENTATION_STYLE_ASSIGNMENT((#1194));
#1194=SURFACE_STYLE_USAGE(.BOTH.,#1195);
#1195=SURFACE_SIDE_STYLE('',(#1196));
#1196=SURFACE_STYLE_FILL_AREA(#1197);
#1197=FILL_AREA_STYLE('\X2\92FC\X0\ - \X2\30B530C630F3\X0\',(#1198));
#1198=FILL_AREA_STYLE_COLOUR('\X2\92FC\X0\ - \X2\30B530C630F3\X0\',#1199);
#1199=COLOUR_RGB('\X2\92FC\X0\ - \X2\30B530C630F3\X0\',0.627450980392157,
0.627450980392157,0.627450980392157);
ENDSEC;
END-ISO-10303-21;
