ISO-10303-21;
HEADER;
/* Generated by software containing ST-Developer
 * from STEP Tools, Inc. (www.steptools.com) 
 */

FILE_DESCRIPTION(
/* description */ (''),
/* implementation_level */ '2;1');

FILE_NAME(
/* name */ 'sage60_left_case_complete.step',
/* time_stamp */ '2026-09-09T02:07:17+09:00',
/* author */ (''),
/* organization */ (''),
/* preprocessor_version */ 'ST-DEVELOPER v20.1',
/* originating_system */ 'Autodesk Translation Framework v15.8.0.0',
/* authorisation */ '');

FILE_SCHEMA (('AUTOMOTIVE_DESIGN { 1 0 10303 214 3 1 1 }'));
ENDSEC;

DATA;
#10=MECHANICAL_DESIGN_GEOMETRIC_PRESENTATION_REPRESENTATION('',(#13,#14),
#1464);
#11=SHAPE_REPRESENTATION_RELATIONSHIP('SRR','None',#1471,#12);
#12=ADVANCED_BREP_SHAPE_REPRESENTATION('',(#15,#16),#1463);
#13=STYLED_ITEM('',(#1480),#15);
#14=STYLED_ITEM('',(#1480),#16);
#15=MANIFOLD_SOLID_BREP('LEFT_CASE_BOTTOM',#919);
#16=MANIFOLD_SOLID_BREP('LEFT_CASE_TOP',#920);
#17=FACE_BOUND('',#108,.T.);
#18=FACE_BOUND('',#109,.T.);
#19=FACE_BOUND('',#110,.T.);
#20=FACE_BOUND('',#111,.T.);
#21=FACE_BOUND('',#112,.T.);
#22=FACE_BOUND('',#113,.T.);
#23=FACE_BOUND('',#123,.T.);
#24=FACE_BOUND('',#134,.T.);
#25=FACE_BOUND('',#136,.T.);
#26=FACE_OUTER_BOUND('',#77,.T.);
#27=FACE_OUTER_BOUND('',#78,.T.);
#28=FACE_OUTER_BOUND('',#79,.T.);
#29=FACE_OUTER_BOUND('',#80,.T.);
#30=FACE_OUTER_BOUND('',#81,.T.);
#31=FACE_OUTER_BOUND('',#82,.T.);
#32=FACE_OUTER_BOUND('',#83,.T.);
#33=FACE_OUTER_BOUND('',#84,.T.);
#34=FACE_OUTER_BOUND('',#85,.T.);
#35=FACE_OUTER_BOUND('',#86,.T.);
#36=FACE_OUTER_BOUND('',#87,.T.);
#37=FACE_OUTER_BOUND('',#88,.T.);
#38=FACE_OUTER_BOUND('',#89,.T.);
#39=FACE_OUTER_BOUND('',#90,.T.);
#40=FACE_OUTER_BOUND('',#91,.T.);
#41=FACE_OUTER_BOUND('',#92,.T.);
#42=FACE_OUTER_BOUND('',#93,.T.);
#43=FACE_OUTER_BOUND('',#94,.T.);
#44=FACE_OUTER_BOUND('',#95,.T.);
#45=FACE_OUTER_BOUND('',#96,.T.);
#46=FACE_OUTER_BOUND('',#97,.T.);
#47=FACE_OUTER_BOUND('',#98,.T.);
#48=FACE_OUTER_BOUND('',#99,.T.);
#49=FACE_OUTER_BOUND('',#100,.T.);
#50=FACE_OUTER_BOUND('',#101,.T.);
#51=FACE_OUTER_BOUND('',#102,.T.);
#52=FACE_OUTER_BOUND('',#103,.T.);
#53=FACE_OUTER_BOUND('',#104,.T.);
#54=FACE_OUTER_BOUND('',#105,.T.);
#55=FACE_OUTER_BOUND('',#106,.T.);
#56=FACE_OUTER_BOUND('',#107,.T.);
#57=FACE_OUTER_BOUND('',#114,.T.);
#58=FACE_OUTER_BOUND('',#115,.T.);
#59=FACE_OUTER_BOUND('',#116,.T.);
#60=FACE_OUTER_BOUND('',#117,.T.);
#61=FACE_OUTER_BOUND('',#118,.T.);
#62=FACE_OUTER_BOUND('',#119,.T.);
#63=FACE_OUTER_BOUND('',#120,.T.);
#64=FACE_OUTER_BOUND('',#121,.T.);
#65=FACE_OUTER_BOUND('',#122,.T.);
#66=FACE_OUTER_BOUND('',#124,.T.);
#67=FACE_OUTER_BOUND('',#125,.T.);
#68=FACE_OUTER_BOUND('',#126,.T.);
#69=FACE_OUTER_BOUND('',#127,.T.);
#70=FACE_OUTER_BOUND('',#128,.T.);
#71=FACE_OUTER_BOUND('',#129,.T.);
#72=FACE_OUTER_BOUND('',#130,.T.);
#73=FACE_OUTER_BOUND('',#131,.T.);
#74=FACE_OUTER_BOUND('',#132,.T.);
#75=FACE_OUTER_BOUND('',#133,.T.);
#76=FACE_OUTER_BOUND('',#135,.T.);
#77=EDGE_LOOP('',(#577,#578,#579,#580));
#78=EDGE_LOOP('',(#581,#582,#583,#584));
#79=EDGE_LOOP('',(#585,#586,#587,#588));
#80=EDGE_LOOP('',(#589,#590,#591,#592));
#81=EDGE_LOOP('',(#593,#594,#595,#596));
#82=EDGE_LOOP('',(#597,#598,#599,#600));
#83=EDGE_LOOP('',(#601,#602,#603,#604));
#84=EDGE_LOOP('',(#605,#606,#607,#608));
#85=EDGE_LOOP('',(#609,#610,#611,#612));
#86=EDGE_LOOP('',(#613,#614,#615,#616));
#87=EDGE_LOOP('',(#617,#618,#619,#620));
#88=EDGE_LOOP('',(#621,#622,#623,#624));
#89=EDGE_LOOP('',(#625,#626,#627,#628));
#90=EDGE_LOOP('',(#629,#630,#631,#632));
#91=EDGE_LOOP('',(#633,#634,#635,#636));
#92=EDGE_LOOP('',(#637,#638,#639,#640));
#93=EDGE_LOOP('',(#641,#642,#643,#644));
#94=EDGE_LOOP('',(#645,#646,#647,#648));
#95=EDGE_LOOP('',(#649,#650,#651,#652));
#96=EDGE_LOOP('',(#653,#654,#655,#656));
#97=EDGE_LOOP('',(#657,#658,#659,#660));
#98=EDGE_LOOP('',(#661,#662,#663,#664));
#99=EDGE_LOOP('',(#665,#666,#667,#668));
#100=EDGE_LOOP('',(#669,#670,#671,#672));
#101=EDGE_LOOP('',(#673,#674,#675,#676));
#102=EDGE_LOOP('',(#677,#678,#679,#680));
#103=EDGE_LOOP('',(#681,#682,#683,#684));
#104=EDGE_LOOP('',(#685,#686,#687,#688));
#105=EDGE_LOOP('',(#689,#690,#691,#692));
#106=EDGE_LOOP('',(#693,#694,#695,#696));
#107=EDGE_LOOP('',(#697,#698,#699,#700));
#108=EDGE_LOOP('',(#701,#702,#703,#704));
#109=EDGE_LOOP('',(#705,#706,#707,#708));
#110=EDGE_LOOP('',(#709,#710,#711,#712));
#111=EDGE_LOOP('',(#713,#714,#715,#716));
#112=EDGE_LOOP('',(#717,#718,#719,#720));
#113=EDGE_LOOP('',(#721,#722,#723,#724));
#114=EDGE_LOOP('',(#725,#726,#727,#728));
#115=EDGE_LOOP('',(#729,#730,#731,#732));
#116=EDGE_LOOP('',(#733,#734,#735,#736));
#117=EDGE_LOOP('',(#737,#738,#739,#740));
#118=EDGE_LOOP('',(#741,#742,#743,#744));
#119=EDGE_LOOP('',(#745,#746,#747,#748));
#120=EDGE_LOOP('',(#749,#750,#751,#752));
#121=EDGE_LOOP('',(#753,#754,#755,#756));
#122=EDGE_LOOP('',(#757,#758,#759,#760));
#123=EDGE_LOOP('',(#761,#762,#763,#764));
#124=EDGE_LOOP('',(#765,#766,#767,#768));
#125=EDGE_LOOP('',(#769,#770,#771,#772));
#126=EDGE_LOOP('',(#773,#774,#775,#776));
#127=EDGE_LOOP('',(#777,#778,#779,#780));
#128=EDGE_LOOP('',(#781,#782,#783,#784));
#129=EDGE_LOOP('',(#785,#786,#787,#788));
#130=EDGE_LOOP('',(#789,#790,#791,#792));
#131=EDGE_LOOP('',(#793,#794,#795,#796));
#132=EDGE_LOOP('',(#797,#798,#799,#800));
#133=EDGE_LOOP('',(#801,#802,#803,#804));
#134=EDGE_LOOP('',(#805,#806,#807,#808));
#135=EDGE_LOOP('',(#809,#810,#811,#812));
#136=EDGE_LOOP('',(#813,#814,#815,#816));
#137=LINE('',#1213,#257);
#138=LINE('',#1215,#258);
#139=LINE('',#1217,#259);
#140=LINE('',#1218,#260);
#141=LINE('',#1221,#261);
#142=LINE('',#1223,#262);
#143=LINE('',#1224,#263);
#144=LINE('',#1227,#264);
#145=LINE('',#1229,#265);
#146=LINE('',#1230,#266);
#147=LINE('',#1232,#267);
#148=LINE('',#1233,#268);
#149=LINE('',#1238,#269);
#150=LINE('',#1240,#270);
#151=LINE('',#1242,#271);
#152=LINE('',#1243,#272);
#153=LINE('',#1246,#273);
#154=LINE('',#1248,#274);
#155=LINE('',#1249,#275);
#156=LINE('',#1252,#276);
#157=LINE('',#1254,#277);
#158=LINE('',#1255,#278);
#159=LINE('',#1257,#279);
#160=LINE('',#1258,#280);
#161=LINE('',#1263,#281);
#162=LINE('',#1265,#282);
#163=LINE('',#1267,#283);
#164=LINE('',#1268,#284);
#165=LINE('',#1271,#285);
#166=LINE('',#1273,#286);
#167=LINE('',#1274,#287);
#168=LINE('',#1277,#288);
#169=LINE('',#1279,#289);
#170=LINE('',#1280,#290);
#171=LINE('',#1282,#291);
#172=LINE('',#1283,#292);
#173=LINE('',#1288,#293);
#174=LINE('',#1290,#294);
#175=LINE('',#1292,#295);
#176=LINE('',#1293,#296);
#177=LINE('',#1296,#297);
#178=LINE('',#1298,#298);
#179=LINE('',#1299,#299);
#180=LINE('',#1302,#300);
#181=LINE('',#1304,#301);
#182=LINE('',#1305,#302);
#183=LINE('',#1307,#303);
#184=LINE('',#1308,#304);
#185=LINE('',#1313,#305);
#186=LINE('',#1315,#306);
#187=LINE('',#1317,#307);
#188=LINE('',#1318,#308);
#189=LINE('',#1321,#309);
#190=LINE('',#1323,#310);
#191=LINE('',#1324,#311);
#192=LINE('',#1327,#312);
#193=LINE('',#1329,#313);
#194=LINE('',#1330,#314);
#195=LINE('',#1332,#315);
#196=LINE('',#1333,#316);
#197=LINE('',#1338,#317);
#198=LINE('',#1340,#318);
#199=LINE('',#1342,#319);
#200=LINE('',#1343,#320);
#201=LINE('',#1346,#321);
#202=LINE('',#1348,#322);
#203=LINE('',#1349,#323);
#204=LINE('',#1352,#324);
#205=LINE('',#1354,#325);
#206=LINE('',#1355,#326);
#207=LINE('',#1357,#327);
#208=LINE('',#1358,#328);
#209=LINE('',#1363,#329);
#210=LINE('',#1365,#330);
#211=LINE('',#1367,#331);
#212=LINE('',#1368,#332);
#213=LINE('',#1372,#333);
#214=LINE('',#1374,#334);
#215=LINE('',#1376,#335);
#216=LINE('',#1377,#336);
#217=LINE('',#1381,#337);
#218=LINE('',#1382,#338);
#219=LINE('',#1383,#339);
#220=LINE('',#1386,#340);
#221=LINE('',#1388,#341);
#222=LINE('',#1389,#342);
#223=LINE('',#1392,#343);
#224=LINE('',#1393,#344);
#225=LINE('',#1396,#345);
#226=LINE('',#1397,#346);
#227=LINE('',#1399,#347);
#228=LINE('',#1402,#348);
#229=LINE('',#1404,#349);
#230=LINE('',#1405,#350);
#231=LINE('',#1407,#351);
#232=LINE('',#1408,#352);
#233=LINE('',#1414,#353);
#234=LINE('',#1416,#354);
#235=LINE('',#1418,#355);
#236=LINE('',#1419,#356);
#237=LINE('',#1422,#357);
#238=LINE('',#1424,#358);
#239=LINE('',#1425,#359);
#240=LINE('',#1428,#360);
#241=LINE('',#1430,#361);
#242=LINE('',#1431,#362);
#243=LINE('',#1433,#363);
#244=LINE('',#1434,#364);
#245=LINE('',#1438,#365);
#246=LINE('',#1440,#366);
#247=LINE('',#1442,#367);
#248=LINE('',#1443,#368);
#249=LINE('',#1446,#369);
#250=LINE('',#1448,#370);
#251=LINE('',#1449,#371);
#252=LINE('',#1452,#372);
#253=LINE('',#1454,#373);
#254=LINE('',#1455,#374);
#255=LINE('',#1457,#375);
#256=LINE('',#1458,#376);
#257=VECTOR('',#989,10.);
#258=VECTOR('',#990,10.);
#259=VECTOR('',#991,10.);
#260=VECTOR('',#992,10.);
#261=VECTOR('',#995,10.);
#262=VECTOR('',#996,10.);
#263=VECTOR('',#997,10.);
#264=VECTOR('',#1000,10.);
#265=VECTOR('',#1001,10.);
#266=VECTOR('',#1002,10.);
#267=VECTOR('',#1005,10.);
#268=VECTOR('',#1006,10.);
#269=VECTOR('',#1011,10.);
#270=VECTOR('',#1012,10.);
#271=VECTOR('',#1013,10.);
#272=VECTOR('',#1014,10.);
#273=VECTOR('',#1017,10.);
#274=VECTOR('',#1018,10.);
#275=VECTOR('',#1019,10.);
#276=VECTOR('',#1022,10.);
#277=VECTOR('',#1023,10.);
#278=VECTOR('',#1024,10.);
#279=VECTOR('',#1027,10.);
#280=VECTOR('',#1028,10.);
#281=VECTOR('',#1033,10.);
#282=VECTOR('',#1034,10.);
#283=VECTOR('',#1035,10.);
#284=VECTOR('',#1036,10.);
#285=VECTOR('',#1039,10.);
#286=VECTOR('',#1040,10.);
#287=VECTOR('',#1041,10.);
#288=VECTOR('',#1044,10.);
#289=VECTOR('',#1045,10.);
#290=VECTOR('',#1046,10.);
#291=VECTOR('',#1049,10.);
#292=VECTOR('',#1050,10.);
#293=VECTOR('',#1055,10.);
#294=VECTOR('',#1056,10.);
#295=VECTOR('',#1057,10.);
#296=VECTOR('',#1058,10.);
#297=VECTOR('',#1061,10.);
#298=VECTOR('',#1062,10.);
#299=VECTOR('',#1063,10.);
#300=VECTOR('',#1066,10.);
#301=VECTOR('',#1067,10.);
#302=VECTOR('',#1068,10.);
#303=VECTOR('',#1071,10.);
#304=VECTOR('',#1072,10.);
#305=VECTOR('',#1077,10.);
#306=VECTOR('',#1078,10.);
#307=VECTOR('',#1079,10.);
#308=VECTOR('',#1080,10.);
#309=VECTOR('',#1083,10.);
#310=VECTOR('',#1084,10.);
#311=VECTOR('',#1085,10.);
#312=VECTOR('',#1088,10.);
#313=VECTOR('',#1089,10.);
#314=VECTOR('',#1090,10.);
#315=VECTOR('',#1093,10.);
#316=VECTOR('',#1094,10.);
#317=VECTOR('',#1099,10.);
#318=VECTOR('',#1100,10.);
#319=VECTOR('',#1101,10.);
#320=VECTOR('',#1102,10.);
#321=VECTOR('',#1105,10.);
#322=VECTOR('',#1106,10.);
#323=VECTOR('',#1107,10.);
#324=VECTOR('',#1110,10.);
#325=VECTOR('',#1111,10.);
#326=VECTOR('',#1112,10.);
#327=VECTOR('',#1115,10.);
#328=VECTOR('',#1116,10.);
#329=VECTOR('',#1121,10.);
#330=VECTOR('',#1122,10.);
#331=VECTOR('',#1123,10.);
#332=VECTOR('',#1124,10.);
#333=VECTOR('',#1127,10.);
#334=VECTOR('',#1128,10.);
#335=VECTOR('',#1129,10.);
#336=VECTOR('',#1130,10.);
#337=VECTOR('',#1133,10.);
#338=VECTOR('',#1134,10.);
#339=VECTOR('',#1135,10.);
#340=VECTOR('',#1138,10.);
#341=VECTOR('',#1139,10.);
#342=VECTOR('',#1140,10.);
#343=VECTOR('',#1143,10.);
#344=VECTOR('',#1144,10.);
#345=VECTOR('',#1147,10.);
#346=VECTOR('',#1148,10.);
#347=VECTOR('',#1151,10.);
#348=VECTOR('',#1154,10.);
#349=VECTOR('',#1155,10.);
#350=VECTOR('',#1156,10.);
#351=VECTOR('',#1159,10.);
#352=VECTOR('',#1160,10.);
#353=VECTOR('',#1167,10.);
#354=VECTOR('',#1168,10.);
#355=VECTOR('',#1169,10.);
#356=VECTOR('',#1170,10.);
#357=VECTOR('',#1173,10.);
#358=VECTOR('',#1174,10.);
#359=VECTOR('',#1175,10.);
#360=VECTOR('',#1178,10.);
#361=VECTOR('',#1179,10.);
#362=VECTOR('',#1180,10.);
#363=VECTOR('',#1183,10.);
#364=VECTOR('',#1184,10.);
#365=VECTOR('',#1187,10.);
#366=VECTOR('',#1188,10.);
#367=VECTOR('',#1189,10.);
#368=VECTOR('',#1190,10.);
#369=VECTOR('',#1193,10.);
#370=VECTOR('',#1194,10.);
#371=VECTOR('',#1195,10.);
#372=VECTOR('',#1198,10.);
#373=VECTOR('',#1199,10.);
#374=VECTOR('',#1200,10.);
#375=VECTOR('',#1203,10.);
#376=VECTOR('',#1204,10.);
#377=VERTEX_POINT('',#1211);
#378=VERTEX_POINT('',#1212);
#379=VERTEX_POINT('',#1214);
#380=VERTEX_POINT('',#1216);
#381=VERTEX_POINT('',#1220);
#382=VERTEX_POINT('',#1222);
#383=VERTEX_POINT('',#1226);
#384=VERTEX_POINT('',#1228);
#385=VERTEX_POINT('',#1236);
#386=VERTEX_POINT('',#1237);
#387=VERTEX_POINT('',#1239);
#388=VERTEX_POINT('',#1241);
#389=VERTEX_POINT('',#1245);
#390=VERTEX_POINT('',#1247);
#391=VERTEX_POINT('',#1251);
#392=VERTEX_POINT('',#1253);
#393=VERTEX_POINT('',#1261);
#394=VERTEX_POINT('',#1262);
#395=VERTEX_POINT('',#1264);
#396=VERTEX_POINT('',#1266);
#397=VERTEX_POINT('',#1270);
#398=VERTEX_POINT('',#1272);
#399=VERTEX_POINT('',#1276);
#400=VERTEX_POINT('',#1278);
#401=VERTEX_POINT('',#1286);
#402=VERTEX_POINT('',#1287);
#403=VERTEX_POINT('',#1289);
#404=VERTEX_POINT('',#1291);
#405=VERTEX_POINT('',#1295);
#406=VERTEX_POINT('',#1297);
#407=VERTEX_POINT('',#1301);
#408=VERTEX_POINT('',#1303);
#409=VERTEX_POINT('',#1311);
#410=VERTEX_POINT('',#1312);
#411=VERTEX_POINT('',#1314);
#412=VERTEX_POINT('',#1316);
#413=VERTEX_POINT('',#1320);
#414=VERTEX_POINT('',#1322);
#415=VERTEX_POINT('',#1326);
#416=VERTEX_POINT('',#1328);
#417=VERTEX_POINT('',#1336);
#418=VERTEX_POINT('',#1337);
#419=VERTEX_POINT('',#1339);
#420=VERTEX_POINT('',#1341);
#421=VERTEX_POINT('',#1345);
#422=VERTEX_POINT('',#1347);
#423=VERTEX_POINT('',#1351);
#424=VERTEX_POINT('',#1353);
#425=VERTEX_POINT('',#1361);
#426=VERTEX_POINT('',#1362);
#427=VERTEX_POINT('',#1364);
#428=VERTEX_POINT('',#1366);
#429=VERTEX_POINT('',#1370);
#430=VERTEX_POINT('',#1371);
#431=VERTEX_POINT('',#1373);
#432=VERTEX_POINT('',#1375);
#433=VERTEX_POINT('',#1379);
#434=VERTEX_POINT('',#1380);
#435=VERTEX_POINT('',#1385);
#436=VERTEX_POINT('',#1387);
#437=VERTEX_POINT('',#1391);
#438=VERTEX_POINT('',#1395);
#439=VERTEX_POINT('',#1401);
#440=VERTEX_POINT('',#1403);
#441=VERTEX_POINT('',#1412);
#442=VERTEX_POINT('',#1413);
#443=VERTEX_POINT('',#1415);
#444=VERTEX_POINT('',#1417);
#445=VERTEX_POINT('',#1421);
#446=VERTEX_POINT('',#1423);
#447=VERTEX_POINT('',#1427);
#448=VERTEX_POINT('',#1429);
#449=VERTEX_POINT('',#1436);
#450=VERTEX_POINT('',#1437);
#451=VERTEX_POINT('',#1439);
#452=VERTEX_POINT('',#1441);
#453=VERTEX_POINT('',#1445);
#454=VERTEX_POINT('',#1447);
#455=VERTEX_POINT('',#1451);
#456=VERTEX_POINT('',#1453);
#457=EDGE_CURVE('',#377,#378,#137,.T.);
#458=EDGE_CURVE('',#377,#379,#138,.T.);
#459=EDGE_CURVE('',#380,#379,#139,.T.);
#460=EDGE_CURVE('',#378,#380,#140,.T.);
#461=EDGE_CURVE('',#381,#377,#141,.T.);
#462=EDGE_CURVE('',#381,#382,#142,.T.);
#463=EDGE_CURVE('',#379,#382,#143,.T.);
#464=EDGE_CURVE('',#378,#383,#144,.T.);
#465=EDGE_CURVE('',#384,#380,#145,.T.);
#466=EDGE_CURVE('',#383,#384,#146,.T.);
#467=EDGE_CURVE('',#383,#381,#147,.T.);
#468=EDGE_CURVE('',#382,#384,#148,.T.);
#469=EDGE_CURVE('',#385,#386,#149,.T.);
#470=EDGE_CURVE('',#385,#387,#150,.T.);
#471=EDGE_CURVE('',#388,#387,#151,.T.);
#472=EDGE_CURVE('',#386,#388,#152,.T.);
#473=EDGE_CURVE('',#389,#385,#153,.T.);
#474=EDGE_CURVE('',#389,#390,#154,.T.);
#475=EDGE_CURVE('',#387,#390,#155,.T.);
#476=EDGE_CURVE('',#386,#391,#156,.T.);
#477=EDGE_CURVE('',#392,#388,#157,.T.);
#478=EDGE_CURVE('',#391,#392,#158,.T.);
#479=EDGE_CURVE('',#391,#389,#159,.T.);
#480=EDGE_CURVE('',#390,#392,#160,.T.);
#481=EDGE_CURVE('',#393,#394,#161,.T.);
#482=EDGE_CURVE('',#393,#395,#162,.T.);
#483=EDGE_CURVE('',#396,#395,#163,.T.);
#484=EDGE_CURVE('',#394,#396,#164,.T.);
#485=EDGE_CURVE('',#397,#393,#165,.T.);
#486=EDGE_CURVE('',#397,#398,#166,.T.);
#487=EDGE_CURVE('',#395,#398,#167,.T.);
#488=EDGE_CURVE('',#394,#399,#168,.T.);
#489=EDGE_CURVE('',#400,#396,#169,.T.);
#490=EDGE_CURVE('',#399,#400,#170,.T.);
#491=EDGE_CURVE('',#399,#397,#171,.T.);
#492=EDGE_CURVE('',#398,#400,#172,.T.);
#493=EDGE_CURVE('',#401,#402,#173,.T.);
#494=EDGE_CURVE('',#401,#403,#174,.T.);
#495=EDGE_CURVE('',#404,#403,#175,.T.);
#496=EDGE_CURVE('',#402,#404,#176,.T.);
#497=EDGE_CURVE('',#405,#401,#177,.T.);
#498=EDGE_CURVE('',#405,#406,#178,.T.);
#499=EDGE_CURVE('',#403,#406,#179,.T.);
#500=EDGE_CURVE('',#402,#407,#180,.T.);
#501=EDGE_CURVE('',#408,#404,#181,.T.);
#502=EDGE_CURVE('',#407,#408,#182,.T.);
#503=EDGE_CURVE('',#407,#405,#183,.T.);
#504=EDGE_CURVE('',#406,#408,#184,.T.);
#505=EDGE_CURVE('',#409,#410,#185,.T.);
#506=EDGE_CURVE('',#409,#411,#186,.T.);
#507=EDGE_CURVE('',#412,#411,#187,.T.);
#508=EDGE_CURVE('',#410,#412,#188,.T.);
#509=EDGE_CURVE('',#413,#409,#189,.T.);
#510=EDGE_CURVE('',#413,#414,#190,.T.);
#511=EDGE_CURVE('',#411,#414,#191,.T.);
#512=EDGE_CURVE('',#410,#415,#192,.T.);
#513=EDGE_CURVE('',#416,#412,#193,.T.);
#514=EDGE_CURVE('',#415,#416,#194,.T.);
#515=EDGE_CURVE('',#415,#413,#195,.T.);
#516=EDGE_CURVE('',#414,#416,#196,.T.);
#517=EDGE_CURVE('',#417,#418,#197,.T.);
#518=EDGE_CURVE('',#417,#419,#198,.T.);
#519=EDGE_CURVE('',#420,#419,#199,.T.);
#520=EDGE_CURVE('',#418,#420,#200,.T.);
#521=EDGE_CURVE('',#421,#417,#201,.T.);
#522=EDGE_CURVE('',#421,#422,#202,.T.);
#523=EDGE_CURVE('',#419,#422,#203,.T.);
#524=EDGE_CURVE('',#418,#423,#204,.T.);
#525=EDGE_CURVE('',#424,#420,#205,.T.);
#526=EDGE_CURVE('',#423,#424,#206,.T.);
#527=EDGE_CURVE('',#423,#421,#207,.T.);
#528=EDGE_CURVE('',#422,#424,#208,.T.);
#529=EDGE_CURVE('',#425,#426,#209,.T.);
#530=EDGE_CURVE('',#427,#425,#210,.T.);
#531=EDGE_CURVE('',#428,#427,#211,.T.);
#532=EDGE_CURVE('',#426,#428,#212,.T.);
#533=EDGE_CURVE('',#429,#430,#213,.T.);
#534=EDGE_CURVE('',#431,#430,#214,.T.);
#535=EDGE_CURVE('',#432,#431,#215,.T.);
#536=EDGE_CURVE('',#432,#429,#216,.T.);
#537=EDGE_CURVE('',#433,#434,#217,.T.);
#538=EDGE_CURVE('',#430,#434,#218,.T.);
#539=EDGE_CURVE('',#429,#433,#219,.T.);
#540=EDGE_CURVE('',#427,#435,#220,.T.);
#541=EDGE_CURVE('',#436,#435,#221,.T.);
#542=EDGE_CURVE('',#428,#436,#222,.T.);
#543=EDGE_CURVE('',#425,#437,#223,.T.);
#544=EDGE_CURVE('',#435,#437,#224,.T.);
#545=EDGE_CURVE('',#426,#438,#225,.T.);
#546=EDGE_CURVE('',#437,#438,#226,.T.);
#547=EDGE_CURVE('',#438,#436,#227,.T.);
#548=EDGE_CURVE('',#439,#431,#228,.T.);
#549=EDGE_CURVE('',#440,#439,#229,.T.);
#550=EDGE_CURVE('',#440,#432,#230,.T.);
#551=EDGE_CURVE('',#434,#439,#231,.T.);
#552=EDGE_CURVE('',#433,#440,#232,.T.);
#553=EDGE_CURVE('',#441,#442,#233,.T.);
#554=EDGE_CURVE('',#441,#443,#234,.T.);
#555=EDGE_CURVE('',#444,#443,#235,.T.);
#556=EDGE_CURVE('',#442,#444,#236,.T.);
#557=EDGE_CURVE('',#445,#441,#237,.T.);
#558=EDGE_CURVE('',#445,#446,#238,.T.);
#559=EDGE_CURVE('',#443,#446,#239,.T.);
#560=EDGE_CURVE('',#447,#445,#240,.T.);
#561=EDGE_CURVE('',#447,#448,#241,.T.);
#562=EDGE_CURVE('',#446,#448,#242,.T.);
#563=EDGE_CURVE('',#442,#447,#243,.T.);
#564=EDGE_CURVE('',#448,#444,#244,.T.);
#565=EDGE_CURVE('',#449,#450,#245,.T.);
#566=EDGE_CURVE('',#450,#451,#246,.T.);
#567=EDGE_CURVE('',#452,#451,#247,.T.);
#568=EDGE_CURVE('',#449,#452,#248,.T.);
#569=EDGE_CURVE('',#453,#449,#249,.T.);
#570=EDGE_CURVE('',#454,#452,#250,.T.);
#571=EDGE_CURVE('',#453,#454,#251,.T.);
#572=EDGE_CURVE('',#455,#453,#252,.T.);
#573=EDGE_CURVE('',#456,#454,#253,.T.);
#574=EDGE_CURVE('',#455,#456,#254,.T.);
#575=EDGE_CURVE('',#450,#455,#255,.T.);
#576=EDGE_CURVE('',#451,#456,#256,.T.);
#577=ORIENTED_EDGE('',*,*,#457,.F.);
#578=ORIENTED_EDGE('',*,*,#458,.T.);
#579=ORIENTED_EDGE('',*,*,#459,.F.);
#580=ORIENTED_EDGE('',*,*,#460,.F.);
#581=ORIENTED_EDGE('',*,*,#461,.F.);
#582=ORIENTED_EDGE('',*,*,#462,.T.);
#583=ORIENTED_EDGE('',*,*,#463,.F.);
#584=ORIENTED_EDGE('',*,*,#458,.F.);
#585=ORIENTED_EDGE('',*,*,#464,.F.);
#586=ORIENTED_EDGE('',*,*,#460,.T.);
#587=ORIENTED_EDGE('',*,*,#465,.F.);
#588=ORIENTED_EDGE('',*,*,#466,.F.);
#589=ORIENTED_EDGE('',*,*,#467,.F.);
#590=ORIENTED_EDGE('',*,*,#466,.T.);
#591=ORIENTED_EDGE('',*,*,#468,.F.);
#592=ORIENTED_EDGE('',*,*,#462,.F.);
#593=ORIENTED_EDGE('',*,*,#468,.T.);
#594=ORIENTED_EDGE('',*,*,#465,.T.);
#595=ORIENTED_EDGE('',*,*,#459,.T.);
#596=ORIENTED_EDGE('',*,*,#463,.T.);
#597=ORIENTED_EDGE('',*,*,#469,.F.);
#598=ORIENTED_EDGE('',*,*,#470,.T.);
#599=ORIENTED_EDGE('',*,*,#471,.F.);
#600=ORIENTED_EDGE('',*,*,#472,.F.);
#601=ORIENTED_EDGE('',*,*,#473,.F.);
#602=ORIENTED_EDGE('',*,*,#474,.T.);
#603=ORIENTED_EDGE('',*,*,#475,.F.);
#604=ORIENTED_EDGE('',*,*,#470,.F.);
#605=ORIENTED_EDGE('',*,*,#476,.F.);
#606=ORIENTED_EDGE('',*,*,#472,.T.);
#607=ORIENTED_EDGE('',*,*,#477,.F.);
#608=ORIENTED_EDGE('',*,*,#478,.F.);
#609=ORIENTED_EDGE('',*,*,#479,.F.);
#610=ORIENTED_EDGE('',*,*,#478,.T.);
#611=ORIENTED_EDGE('',*,*,#480,.F.);
#612=ORIENTED_EDGE('',*,*,#474,.F.);
#613=ORIENTED_EDGE('',*,*,#480,.T.);
#614=ORIENTED_EDGE('',*,*,#477,.T.);
#615=ORIENTED_EDGE('',*,*,#471,.T.);
#616=ORIENTED_EDGE('',*,*,#475,.T.);
#617=ORIENTED_EDGE('',*,*,#481,.F.);
#618=ORIENTED_EDGE('',*,*,#482,.T.);
#619=ORIENTED_EDGE('',*,*,#483,.F.);
#620=ORIENTED_EDGE('',*,*,#484,.F.);
#621=ORIENTED_EDGE('',*,*,#485,.F.);
#622=ORIENTED_EDGE('',*,*,#486,.T.);
#623=ORIENTED_EDGE('',*,*,#487,.F.);
#624=ORIENTED_EDGE('',*,*,#482,.F.);
#625=ORIENTED_EDGE('',*,*,#488,.F.);
#626=ORIENTED_EDGE('',*,*,#484,.T.);
#627=ORIENTED_EDGE('',*,*,#489,.F.);
#628=ORIENTED_EDGE('',*,*,#490,.F.);
#629=ORIENTED_EDGE('',*,*,#491,.F.);
#630=ORIENTED_EDGE('',*,*,#490,.T.);
#631=ORIENTED_EDGE('',*,*,#492,.F.);
#632=ORIENTED_EDGE('',*,*,#486,.F.);
#633=ORIENTED_EDGE('',*,*,#492,.T.);
#634=ORIENTED_EDGE('',*,*,#489,.T.);
#635=ORIENTED_EDGE('',*,*,#483,.T.);
#636=ORIENTED_EDGE('',*,*,#487,.T.);
#637=ORIENTED_EDGE('',*,*,#493,.F.);
#638=ORIENTED_EDGE('',*,*,#494,.T.);
#639=ORIENTED_EDGE('',*,*,#495,.F.);
#640=ORIENTED_EDGE('',*,*,#496,.F.);
#641=ORIENTED_EDGE('',*,*,#497,.F.);
#642=ORIENTED_EDGE('',*,*,#498,.T.);
#643=ORIENTED_EDGE('',*,*,#499,.F.);
#644=ORIENTED_EDGE('',*,*,#494,.F.);
#645=ORIENTED_EDGE('',*,*,#500,.F.);
#646=ORIENTED_EDGE('',*,*,#496,.T.);
#647=ORIENTED_EDGE('',*,*,#501,.F.);
#648=ORIENTED_EDGE('',*,*,#502,.F.);
#649=ORIENTED_EDGE('',*,*,#503,.F.);
#650=ORIENTED_EDGE('',*,*,#502,.T.);
#651=ORIENTED_EDGE('',*,*,#504,.F.);
#652=ORIENTED_EDGE('',*,*,#498,.F.);
#653=ORIENTED_EDGE('',*,*,#504,.T.);
#654=ORIENTED_EDGE('',*,*,#501,.T.);
#655=ORIENTED_EDGE('',*,*,#495,.T.);
#656=ORIENTED_EDGE('',*,*,#499,.T.);
#657=ORIENTED_EDGE('',*,*,#505,.F.);
#658=ORIENTED_EDGE('',*,*,#506,.T.);
#659=ORIENTED_EDGE('',*,*,#507,.F.);
#660=ORIENTED_EDGE('',*,*,#508,.F.);
#661=ORIENTED_EDGE('',*,*,#509,.F.);
#662=ORIENTED_EDGE('',*,*,#510,.T.);
#663=ORIENTED_EDGE('',*,*,#511,.F.);
#664=ORIENTED_EDGE('',*,*,#506,.F.);
#665=ORIENTED_EDGE('',*,*,#512,.F.);
#666=ORIENTED_EDGE('',*,*,#508,.T.);
#667=ORIENTED_EDGE('',*,*,#513,.F.);
#668=ORIENTED_EDGE('',*,*,#514,.F.);
#669=ORIENTED_EDGE('',*,*,#515,.F.);
#670=ORIENTED_EDGE('',*,*,#514,.T.);
#671=ORIENTED_EDGE('',*,*,#516,.F.);
#672=ORIENTED_EDGE('',*,*,#510,.F.);
#673=ORIENTED_EDGE('',*,*,#516,.T.);
#674=ORIENTED_EDGE('',*,*,#513,.T.);
#675=ORIENTED_EDGE('',*,*,#507,.T.);
#676=ORIENTED_EDGE('',*,*,#511,.T.);
#677=ORIENTED_EDGE('',*,*,#517,.F.);
#678=ORIENTED_EDGE('',*,*,#518,.T.);
#679=ORIENTED_EDGE('',*,*,#519,.F.);
#680=ORIENTED_EDGE('',*,*,#520,.F.);
#681=ORIENTED_EDGE('',*,*,#521,.F.);
#682=ORIENTED_EDGE('',*,*,#522,.T.);
#683=ORIENTED_EDGE('',*,*,#523,.F.);
#684=ORIENTED_EDGE('',*,*,#518,.F.);
#685=ORIENTED_EDGE('',*,*,#524,.F.);
#686=ORIENTED_EDGE('',*,*,#520,.T.);
#687=ORIENTED_EDGE('',*,*,#525,.F.);
#688=ORIENTED_EDGE('',*,*,#526,.F.);
#689=ORIENTED_EDGE('',*,*,#527,.F.);
#690=ORIENTED_EDGE('',*,*,#526,.T.);
#691=ORIENTED_EDGE('',*,*,#528,.F.);
#692=ORIENTED_EDGE('',*,*,#522,.F.);
#693=ORIENTED_EDGE('',*,*,#528,.T.);
#694=ORIENTED_EDGE('',*,*,#525,.T.);
#695=ORIENTED_EDGE('',*,*,#519,.T.);
#696=ORIENTED_EDGE('',*,*,#523,.T.);
#697=ORIENTED_EDGE('',*,*,#529,.F.);
#698=ORIENTED_EDGE('',*,*,#530,.F.);
#699=ORIENTED_EDGE('',*,*,#531,.F.);
#700=ORIENTED_EDGE('',*,*,#532,.F.);
#701=ORIENTED_EDGE('',*,*,#461,.T.);
#702=ORIENTED_EDGE('',*,*,#457,.T.);
#703=ORIENTED_EDGE('',*,*,#464,.T.);
#704=ORIENTED_EDGE('',*,*,#467,.T.);
#705=ORIENTED_EDGE('',*,*,#473,.T.);
#706=ORIENTED_EDGE('',*,*,#469,.T.);
#707=ORIENTED_EDGE('',*,*,#476,.T.);
#708=ORIENTED_EDGE('',*,*,#479,.T.);
#709=ORIENTED_EDGE('',*,*,#485,.T.);
#710=ORIENTED_EDGE('',*,*,#481,.T.);
#711=ORIENTED_EDGE('',*,*,#488,.T.);
#712=ORIENTED_EDGE('',*,*,#491,.T.);
#713=ORIENTED_EDGE('',*,*,#497,.T.);
#714=ORIENTED_EDGE('',*,*,#493,.T.);
#715=ORIENTED_EDGE('',*,*,#500,.T.);
#716=ORIENTED_EDGE('',*,*,#503,.T.);
#717=ORIENTED_EDGE('',*,*,#509,.T.);
#718=ORIENTED_EDGE('',*,*,#505,.T.);
#719=ORIENTED_EDGE('',*,*,#512,.T.);
#720=ORIENTED_EDGE('',*,*,#515,.T.);
#721=ORIENTED_EDGE('',*,*,#521,.T.);
#722=ORIENTED_EDGE('',*,*,#517,.T.);
#723=ORIENTED_EDGE('',*,*,#524,.T.);
#724=ORIENTED_EDGE('',*,*,#527,.T.);
#725=ORIENTED_EDGE('',*,*,#533,.T.);
#726=ORIENTED_EDGE('',*,*,#534,.F.);
#727=ORIENTED_EDGE('',*,*,#535,.F.);
#728=ORIENTED_EDGE('',*,*,#536,.T.);
#729=ORIENTED_EDGE('',*,*,#537,.T.);
#730=ORIENTED_EDGE('',*,*,#538,.F.);
#731=ORIENTED_EDGE('',*,*,#533,.F.);
#732=ORIENTED_EDGE('',*,*,#539,.T.);
#733=ORIENTED_EDGE('',*,*,#531,.T.);
#734=ORIENTED_EDGE('',*,*,#540,.T.);
#735=ORIENTED_EDGE('',*,*,#541,.F.);
#736=ORIENTED_EDGE('',*,*,#542,.F.);
#737=ORIENTED_EDGE('',*,*,#530,.T.);
#738=ORIENTED_EDGE('',*,*,#543,.T.);
#739=ORIENTED_EDGE('',*,*,#544,.F.);
#740=ORIENTED_EDGE('',*,*,#540,.F.);
#741=ORIENTED_EDGE('',*,*,#529,.T.);
#742=ORIENTED_EDGE('',*,*,#545,.T.);
#743=ORIENTED_EDGE('',*,*,#546,.F.);
#744=ORIENTED_EDGE('',*,*,#543,.F.);
#745=ORIENTED_EDGE('',*,*,#532,.T.);
#746=ORIENTED_EDGE('',*,*,#542,.T.);
#747=ORIENTED_EDGE('',*,*,#547,.F.);
#748=ORIENTED_EDGE('',*,*,#545,.F.);
#749=ORIENTED_EDGE('',*,*,#535,.T.);
#750=ORIENTED_EDGE('',*,*,#548,.F.);
#751=ORIENTED_EDGE('',*,*,#549,.F.);
#752=ORIENTED_EDGE('',*,*,#550,.T.);
#753=ORIENTED_EDGE('',*,*,#549,.T.);
#754=ORIENTED_EDGE('',*,*,#551,.F.);
#755=ORIENTED_EDGE('',*,*,#537,.F.);
#756=ORIENTED_EDGE('',*,*,#552,.T.);
#757=ORIENTED_EDGE('',*,*,#538,.T.);
#758=ORIENTED_EDGE('',*,*,#551,.T.);
#759=ORIENTED_EDGE('',*,*,#548,.T.);
#760=ORIENTED_EDGE('',*,*,#534,.T.);
#761=ORIENTED_EDGE('',*,*,#546,.T.);
#762=ORIENTED_EDGE('',*,*,#547,.T.);
#763=ORIENTED_EDGE('',*,*,#541,.T.);
#764=ORIENTED_EDGE('',*,*,#544,.T.);
#765=ORIENTED_EDGE('',*,*,#539,.F.);
#766=ORIENTED_EDGE('',*,*,#536,.F.);
#767=ORIENTED_EDGE('',*,*,#550,.F.);
#768=ORIENTED_EDGE('',*,*,#552,.F.);
#769=ORIENTED_EDGE('',*,*,#553,.F.);
#770=ORIENTED_EDGE('',*,*,#554,.T.);
#771=ORIENTED_EDGE('',*,*,#555,.F.);
#772=ORIENTED_EDGE('',*,*,#556,.F.);
#773=ORIENTED_EDGE('',*,*,#557,.F.);
#774=ORIENTED_EDGE('',*,*,#558,.T.);
#775=ORIENTED_EDGE('',*,*,#559,.F.);
#776=ORIENTED_EDGE('',*,*,#554,.F.);
#777=ORIENTED_EDGE('',*,*,#560,.F.);
#778=ORIENTED_EDGE('',*,*,#561,.T.);
#779=ORIENTED_EDGE('',*,*,#562,.F.);
#780=ORIENTED_EDGE('',*,*,#558,.F.);
#781=ORIENTED_EDGE('',*,*,#563,.F.);
#782=ORIENTED_EDGE('',*,*,#556,.T.);
#783=ORIENTED_EDGE('',*,*,#564,.F.);
#784=ORIENTED_EDGE('',*,*,#561,.F.);
#785=ORIENTED_EDGE('',*,*,#565,.T.);
#786=ORIENTED_EDGE('',*,*,#566,.T.);
#787=ORIENTED_EDGE('',*,*,#567,.F.);
#788=ORIENTED_EDGE('',*,*,#568,.F.);
#789=ORIENTED_EDGE('',*,*,#569,.T.);
#790=ORIENTED_EDGE('',*,*,#568,.T.);
#791=ORIENTED_EDGE('',*,*,#570,.F.);
#792=ORIENTED_EDGE('',*,*,#571,.F.);
#793=ORIENTED_EDGE('',*,*,#572,.T.);
#794=ORIENTED_EDGE('',*,*,#571,.T.);
#795=ORIENTED_EDGE('',*,*,#573,.F.);
#796=ORIENTED_EDGE('',*,*,#574,.F.);
#797=ORIENTED_EDGE('',*,*,#575,.T.);
#798=ORIENTED_EDGE('',*,*,#574,.T.);
#799=ORIENTED_EDGE('',*,*,#576,.F.);
#800=ORIENTED_EDGE('',*,*,#566,.F.);
#801=ORIENTED_EDGE('',*,*,#576,.T.);
#802=ORIENTED_EDGE('',*,*,#573,.T.);
#803=ORIENTED_EDGE('',*,*,#570,.T.);
#804=ORIENTED_EDGE('',*,*,#567,.T.);
#805=ORIENTED_EDGE('',*,*,#555,.T.);
#806=ORIENTED_EDGE('',*,*,#559,.T.);
#807=ORIENTED_EDGE('',*,*,#562,.T.);
#808=ORIENTED_EDGE('',*,*,#564,.T.);
#809=ORIENTED_EDGE('',*,*,#575,.F.);
#810=ORIENTED_EDGE('',*,*,#565,.F.);
#811=ORIENTED_EDGE('',*,*,#569,.F.);
#812=ORIENTED_EDGE('',*,*,#572,.F.);
#813=ORIENTED_EDGE('',*,*,#553,.T.);
#814=ORIENTED_EDGE('',*,*,#563,.T.);
#815=ORIENTED_EDGE('',*,*,#560,.T.);
#816=ORIENTED_EDGE('',*,*,#557,.T.);
#817=PLANE('',#934);
#818=PLANE('',#935);
#819=PLANE('',#936);
#820=PLANE('',#937);
#821=PLANE('',#938);
#822=PLANE('',#939);
#823=PLANE('',#940);
#824=PLANE('',#941);
#825=PLANE('',#942);
#826=PLANE('',#943);
#827=PLANE('',#944);
#828=PLANE('',#945);
#829=PLANE('',#946);
#830=PLANE('',#947);
#831=PLANE('',#948);
#832=PLANE('',#949);
#833=PLANE('',#950);
#834=PLANE('',#951);
#835=PLANE('',#952);
#836=PLANE('',#953);
#837=PLANE('',#954);
#838=PLANE('',#955);
#839=PLANE('',#956);
#840=PLANE('',#957);
#841=PLANE('',#958);
#842=PLANE('',#959);
#843=PLANE('',#960);
#844=PLANE('',#961);
#845=PLANE('',#962);
#846=PLANE('',#963);
#847=PLANE('',#964);
#848=PLANE('',#965);
#849=PLANE('',#966);
#850=PLANE('',#967);
#851=PLANE('',#968);
#852=PLANE('',#969);
#853=PLANE('',#970);
#854=PLANE('',#971);
#855=PLANE('',#972);
#856=PLANE('',#973);
#857=PLANE('',#974);
#858=PLANE('',#975);
#859=PLANE('',#976);
#860=PLANE('',#977);
#861=PLANE('',#978);
#862=PLANE('',#979);
#863=PLANE('',#980);
#864=PLANE('',#981);
#865=PLANE('',#982);
#866=PLANE('',#983);
#867=PLANE('',#984);
#868=ADVANCED_FACE('',(#26),#817,.T.);
#869=ADVANCED_FACE('',(#27),#818,.T.);
#870=ADVANCED_FACE('',(#28),#819,.T.);
#871=ADVANCED_FACE('',(#29),#820,.T.);
#872=ADVANCED_FACE('',(#30),#821,.T.);
#873=ADVANCED_FACE('',(#31),#822,.T.);
#874=ADVANCED_FACE('',(#32),#823,.T.);
#875=ADVANCED_FACE('',(#33),#824,.T.);
#876=ADVANCED_FACE('',(#34),#825,.T.);
#877=ADVANCED_FACE('',(#35),#826,.T.);
#878=ADVANCED_FACE('',(#36),#827,.T.);
#879=ADVANCED_FACE('',(#37),#828,.T.);
#880=ADVANCED_FACE('',(#38),#829,.T.);
#881=ADVANCED_FACE('',(#39),#830,.T.);
#882=ADVANCED_FACE('',(#40),#831,.T.);
#883=ADVANCED_FACE('',(#41),#832,.T.);
#884=ADVANCED_FACE('',(#42),#833,.T.);
#885=ADVANCED_FACE('',(#43),#834,.T.);
#886=ADVANCED_FACE('',(#44),#835,.T.);
#887=ADVANCED_FACE('',(#45),#836,.T.);
#888=ADVANCED_FACE('',(#46),#837,.T.);
#889=ADVANCED_FACE('',(#47),#838,.T.);
#890=ADVANCED_FACE('',(#48),#839,.T.);
#891=ADVANCED_FACE('',(#49),#840,.T.);
#892=ADVANCED_FACE('',(#50),#841,.T.);
#893=ADVANCED_FACE('',(#51),#842,.T.);
#894=ADVANCED_FACE('',(#52),#843,.T.);
#895=ADVANCED_FACE('',(#53),#844,.T.);
#896=ADVANCED_FACE('',(#54),#845,.T.);
#897=ADVANCED_FACE('',(#55),#846,.T.);
#898=ADVANCED_FACE('',(#56,#17,#18,#19,#20,#21,#22),#847,.T.);
#899=ADVANCED_FACE('',(#57),#848,.T.);
#900=ADVANCED_FACE('',(#58),#849,.T.);
#901=ADVANCED_FACE('',(#59),#850,.F.);
#902=ADVANCED_FACE('',(#60),#851,.F.);
#903=ADVANCED_FACE('',(#61),#852,.F.);
#904=ADVANCED_FACE('',(#62),#853,.F.);
#905=ADVANCED_FACE('',(#63),#854,.T.);
#906=ADVANCED_FACE('',(#64),#855,.T.);
#907=ADVANCED_FACE('',(#65,#23),#856,.T.);
#908=ADVANCED_FACE('',(#66),#857,.F.);
#909=ADVANCED_FACE('',(#67),#858,.F.);
#910=ADVANCED_FACE('',(#68),#859,.F.);
#911=ADVANCED_FACE('',(#69),#860,.F.);
#912=ADVANCED_FACE('',(#70),#861,.F.);
#913=ADVANCED_FACE('',(#71),#862,.T.);
#914=ADVANCED_FACE('',(#72),#863,.T.);
#915=ADVANCED_FACE('',(#73),#864,.T.);
#916=ADVANCED_FACE('',(#74),#865,.T.);
#917=ADVANCED_FACE('',(#75,#24),#866,.T.);
#918=ADVANCED_FACE('',(#76,#25),#867,.F.);
#919=CLOSED_SHELL('',(#868,#869,#870,#871,#872,#873,#874,#875,#876,#877,
#878,#879,#880,#881,#882,#883,#884,#885,#886,#887,#888,#889,#890,#891,#892,
#893,#894,#895,#896,#897,#898,#899,#900,#901,#902,#903,#904,#905,#906,#907,
#908));
#920=CLOSED_SHELL('',(#909,#910,#911,#912,#913,#914,#915,#916,#917,#918));
#921=DERIVED_UNIT_ELEMENT(#923,1.);
#922=DERIVED_UNIT_ELEMENT(#1466,-3.);
#923=(
MASS_UNIT()
NAMED_UNIT(*)
SI_UNIT(.KILO.,.GRAM.)
);
#924=DERIVED_UNIT((#921,#922));
#925=MEASURE_REPRESENTATION_ITEM('density measure',
POSITIVE_RATIO_MEASURE(7850.),#924);
#926=PROPERTY_DEFINITION_REPRESENTATION(#931,#928);
#927=PROPERTY_DEFINITION_REPRESENTATION(#932,#929);
#928=REPRESENTATION('material name',(#930),#1463);
#929=REPRESENTATION('density',(#925),#1463);
#930=DESCRIPTIVE_REPRESENTATION_ITEM('\X2\92FC\X0\','\X2\92FC\X0\');
#931=PROPERTY_DEFINITION('material property','material name',#1473);
#932=PROPERTY_DEFINITION('material property','density of part',#1473);
#933=AXIS2_PLACEMENT_3D('',#1209,#985,#986);
#934=AXIS2_PLACEMENT_3D('',#1210,#987,#988);
#935=AXIS2_PLACEMENT_3D('',#1219,#993,#994);
#936=AXIS2_PLACEMENT_3D('',#1225,#998,#999);
#937=AXIS2_PLACEMENT_3D('',#1231,#1003,#1004);
#938=AXIS2_PLACEMENT_3D('',#1234,#1007,#1008);
#939=AXIS2_PLACEMENT_3D('',#1235,#1009,#1010);
#940=AXIS2_PLACEMENT_3D('',#1244,#1015,#1016);
#941=AXIS2_PLACEMENT_3D('',#1250,#1020,#1021);
#942=AXIS2_PLACEMENT_3D('',#1256,#1025,#1026);
#943=AXIS2_PLACEMENT_3D('',#1259,#1029,#1030);
#944=AXIS2_PLACEMENT_3D('',#1260,#1031,#1032);
#945=AXIS2_PLACEMENT_3D('',#1269,#1037,#1038);
#946=AXIS2_PLACEMENT_3D('',#1275,#1042,#1043);
#947=AXIS2_PLACEMENT_3D('',#1281,#1047,#1048);
#948=AXIS2_PLACEMENT_3D('',#1284,#1051,#1052);
#949=AXIS2_PLACEMENT_3D('',#1285,#1053,#1054);
#950=AXIS2_PLACEMENT_3D('',#1294,#1059,#1060);
#951=AXIS2_PLACEMENT_3D('',#1300,#1064,#1065);
#952=AXIS2_PLACEMENT_3D('',#1306,#1069,#1070);
#953=AXIS2_PLACEMENT_3D('',#1309,#1073,#1074);
#954=AXIS2_PLACEMENT_3D('',#1310,#1075,#1076);
#955=AXIS2_PLACEMENT_3D('',#1319,#1081,#1082);
#956=AXIS2_PLACEMENT_3D('',#1325,#1086,#1087);
#957=AXIS2_PLACEMENT_3D('',#1331,#1091,#1092);
#958=AXIS2_PLACEMENT_3D('',#1334,#1095,#1096);
#959=AXIS2_PLACEMENT_3D('',#1335,#1097,#1098);
#960=AXIS2_PLACEMENT_3D('',#1344,#1103,#1104);
#961=AXIS2_PLACEMENT_3D('',#1350,#1108,#1109);
#962=AXIS2_PLACEMENT_3D('',#1356,#1113,#1114);
#963=AXIS2_PLACEMENT_3D('',#1359,#1117,#1118);
#964=AXIS2_PLACEMENT_3D('',#1360,#1119,#1120);
#965=AXIS2_PLACEMENT_3D('',#1369,#1125,#1126);
#966=AXIS2_PLACEMENT_3D('',#1378,#1131,#1132);
#967=AXIS2_PLACEMENT_3D('',#1384,#1136,#1137);
#968=AXIS2_PLACEMENT_3D('',#1390,#1141,#1142);
#969=AXIS2_PLACEMENT_3D('',#1394,#1145,#1146);
#970=AXIS2_PLACEMENT_3D('',#1398,#1149,#1150);
#971=AXIS2_PLACEMENT_3D('',#1400,#1152,#1153);
#972=AXIS2_PLACEMENT_3D('',#1406,#1157,#1158);
#973=AXIS2_PLACEMENT_3D('',#1409,#1161,#1162);
#974=AXIS2_PLACEMENT_3D('',#1410,#1163,#1164);
#975=AXIS2_PLACEMENT_3D('',#1411,#1165,#1166);
#976=AXIS2_PLACEMENT_3D('',#1420,#1171,#1172);
#977=AXIS2_PLACEMENT_3D('',#1426,#1176,#1177);
#978=AXIS2_PLACEMENT_3D('',#1432,#1181,#1182);
#979=AXIS2_PLACEMENT_3D('',#1435,#1185,#1186);
#980=AXIS2_PLACEMENT_3D('',#1444,#1191,#1192);
#981=AXIS2_PLACEMENT_3D('',#1450,#1196,#1197);
#982=AXIS2_PLACEMENT_3D('',#1456,#1201,#1202);
#983=AXIS2_PLACEMENT_3D('',#1459,#1205,#1206);
#984=AXIS2_PLACEMENT_3D('',#1460,#1207,#1208);
#985=DIRECTION('axis',(0.,0.,1.));
#986=DIRECTION('refdir',(1.,0.,0.));
#987=DIRECTION('center_axis',(1.,0.,0.));
#988=DIRECTION('ref_axis',(0.,1.,0.));
#989=DIRECTION('',(0.,-1.,0.));
#990=DIRECTION('',(0.,0.,1.));
#991=DIRECTION('',(0.,1.,0.));
#992=DIRECTION('',(0.,0.,1.));
#993=DIRECTION('center_axis',(0.,1.,0.));
#994=DIRECTION('ref_axis',(-1.,0.,0.));
#995=DIRECTION('',(1.,0.,0.));
#996=DIRECTION('',(0.,0.,1.));
#997=DIRECTION('',(-1.,0.,0.));
#998=DIRECTION('center_axis',(0.,-1.,0.));
#999=DIRECTION('ref_axis',(1.,0.,0.));
#1000=DIRECTION('',(-1.,0.,0.));
#1001=DIRECTION('',(1.,0.,0.));
#1002=DIRECTION('',(0.,0.,1.));
#1003=DIRECTION('center_axis',(-1.,0.,0.));
#1004=DIRECTION('ref_axis',(0.,-1.,0.));
#1005=DIRECTION('',(0.,1.,0.));
#1006=DIRECTION('',(0.,-1.,0.));
#1007=DIRECTION('center_axis',(0.,0.,1.));
#1008=DIRECTION('ref_axis',(1.,0.,0.));
#1009=DIRECTION('center_axis',(1.,0.,0.));
#1010=DIRECTION('ref_axis',(0.,1.,0.));
#1011=DIRECTION('',(0.,-1.,0.));
#1012=DIRECTION('',(0.,0.,1.));
#1013=DIRECTION('',(0.,1.,0.));
#1014=DIRECTION('',(0.,0.,1.));
#1015=DIRECTION('center_axis',(0.,1.,0.));
#1016=DIRECTION('ref_axis',(-1.,0.,0.));
#1017=DIRECTION('',(1.,0.,0.));
#1018=DIRECTION('',(0.,0.,1.));
#1019=DIRECTION('',(-1.,0.,0.));
#1020=DIRECTION('center_axis',(0.,-1.,0.));
#1021=DIRECTION('ref_axis',(1.,0.,0.));
#1022=DIRECTION('',(-1.,0.,0.));
#1023=DIRECTION('',(1.,0.,0.));
#1024=DIRECTION('',(0.,0.,1.));
#1025=DIRECTION('center_axis',(-1.,0.,0.));
#1026=DIRECTION('ref_axis',(0.,-1.,0.));
#1027=DIRECTION('',(0.,1.,0.));
#1028=DIRECTION('',(0.,-1.,0.));
#1029=DIRECTION('center_axis',(0.,0.,1.));
#1030=DIRECTION('ref_axis',(1.,0.,0.));
#1031=DIRECTION('center_axis',(1.,0.,0.));
#1032=DIRECTION('ref_axis',(0.,1.,0.));
#1033=DIRECTION('',(0.,-1.,0.));
#1034=DIRECTION('',(0.,0.,1.));
#1035=DIRECTION('',(0.,1.,0.));
#1036=DIRECTION('',(0.,0.,1.));
#1037=DIRECTION('center_axis',(0.,1.,0.));
#1038=DIRECTION('ref_axis',(-1.,0.,0.));
#1039=DIRECTION('',(1.,0.,0.));
#1040=DIRECTION('',(0.,0.,1.));
#1041=DIRECTION('',(-1.,0.,0.));
#1042=DIRECTION('center_axis',(0.,-1.,0.));
#1043=DIRECTION('ref_axis',(1.,0.,0.));
#1044=DIRECTION('',(-1.,0.,0.));
#1045=DIRECTION('',(1.,0.,0.));
#1046=DIRECTION('',(0.,0.,1.));
#1047=DIRECTION('center_axis',(-1.,0.,0.));
#1048=DIRECTION('ref_axis',(0.,-1.,0.));
#1049=DIRECTION('',(0.,1.,0.));
#1050=DIRECTION('',(0.,-1.,0.));
#1051=DIRECTION('center_axis',(0.,0.,1.));
#1052=DIRECTION('ref_axis',(1.,0.,0.));
#1053=DIRECTION('center_axis',(1.,0.,0.));
#1054=DIRECTION('ref_axis',(0.,1.,0.));
#1055=DIRECTION('',(0.,-1.,0.));
#1056=DIRECTION('',(0.,0.,1.));
#1057=DIRECTION('',(0.,1.,0.));
#1058=DIRECTION('',(0.,0.,1.));
#1059=DIRECTION('center_axis',(0.,1.,0.));
#1060=DIRECTION('ref_axis',(-1.,0.,0.));
#1061=DIRECTION('',(1.,0.,0.));
#1062=DIRECTION('',(0.,0.,1.));
#1063=DIRECTION('',(-1.,0.,0.));
#1064=DIRECTION('center_axis',(0.,-1.,0.));
#1065=DIRECTION('ref_axis',(1.,0.,0.));
#1066=DIRECTION('',(-1.,0.,0.));
#1067=DIRECTION('',(1.,0.,0.));
#1068=DIRECTION('',(0.,0.,1.));
#1069=DIRECTION('center_axis',(-1.,0.,0.));
#1070=DIRECTION('ref_axis',(0.,-1.,0.));
#1071=DIRECTION('',(0.,1.,0.));
#1072=DIRECTION('',(0.,-1.,0.));
#1073=DIRECTION('center_axis',(0.,0.,1.));
#1074=DIRECTION('ref_axis',(1.,0.,0.));
#1075=DIRECTION('center_axis',(1.,0.,0.));
#1076=DIRECTION('ref_axis',(0.,1.,0.));
#1077=DIRECTION('',(0.,-1.,0.));
#1078=DIRECTION('',(0.,0.,1.));
#1079=DIRECTION('',(0.,1.,0.));
#1080=DIRECTION('',(0.,0.,1.));
#1081=DIRECTION('center_axis',(0.,1.,0.));
#1082=DIRECTION('ref_axis',(-1.,0.,0.));
#1083=DIRECTION('',(1.,0.,0.));
#1084=DIRECTION('',(0.,0.,1.));
#1085=DIRECTION('',(-1.,0.,0.));
#1086=DIRECTION('center_axis',(0.,-1.,0.));
#1087=DIRECTION('ref_axis',(1.,0.,0.));
#1088=DIRECTION('',(-1.,0.,0.));
#1089=DIRECTION('',(1.,0.,0.));
#1090=DIRECTION('',(0.,0.,1.));
#1091=DIRECTION('center_axis',(-1.,0.,0.));
#1092=DIRECTION('ref_axis',(0.,-1.,0.));
#1093=DIRECTION('',(0.,1.,0.));
#1094=DIRECTION('',(0.,-1.,0.));
#1095=DIRECTION('center_axis',(0.,0.,1.));
#1096=DIRECTION('ref_axis',(1.,0.,0.));
#1097=DIRECTION('center_axis',(1.,0.,0.));
#1098=DIRECTION('ref_axis',(0.,1.,0.));
#1099=DIRECTION('',(0.,-1.,0.));
#1100=DIRECTION('',(0.,0.,1.));
#1101=DIRECTION('',(0.,1.,0.));
#1102=DIRECTION('',(0.,0.,1.));
#1103=DIRECTION('center_axis',(0.,1.,0.));
#1104=DIRECTION('ref_axis',(-1.,0.,0.));
#1105=DIRECTION('',(1.,0.,0.));
#1106=DIRECTION('',(0.,0.,1.));
#1107=DIRECTION('',(-1.,0.,0.));
#1108=DIRECTION('center_axis',(0.,-1.,0.));
#1109=DIRECTION('ref_axis',(1.,0.,0.));
#1110=DIRECTION('',(-1.,0.,0.));
#1111=DIRECTION('',(1.,0.,0.));
#1112=DIRECTION('',(0.,0.,1.));
#1113=DIRECTION('center_axis',(-1.,0.,0.));
#1114=DIRECTION('ref_axis',(0.,-1.,0.));
#1115=DIRECTION('',(0.,1.,0.));
#1116=DIRECTION('',(0.,-1.,0.));
#1117=DIRECTION('center_axis',(0.,0.,1.));
#1118=DIRECTION('ref_axis',(1.,0.,0.));
#1119=DIRECTION('center_axis',(0.,0.,1.));
#1120=DIRECTION('ref_axis',(1.,0.,0.));
#1121=DIRECTION('',(1.,0.,0.));
#1122=DIRECTION('',(0.,1.,0.));
#1123=DIRECTION('',(-1.,0.,0.));
#1124=DIRECTION('',(0.,-1.,0.));
#1125=DIRECTION('center_axis',(0.,1.,0.));
#1126=DIRECTION('ref_axis',(-1.,0.,0.));
#1127=DIRECTION('',(0.,0.,1.));
#1128=DIRECTION('',(-1.,0.,0.));
#1129=DIRECTION('',(0.,0.,1.));
#1130=DIRECTION('',(-1.,0.,0.));
#1131=DIRECTION('center_axis',(-1.,0.,0.));
#1132=DIRECTION('ref_axis',(0.,-1.,0.));
#1133=DIRECTION('',(0.,0.,1.));
#1134=DIRECTION('',(0.,-1.,0.));
#1135=DIRECTION('',(0.,-1.,0.));
#1136=DIRECTION('center_axis',(0.,-1.,0.));
#1137=DIRECTION('ref_axis',(1.,0.,0.));
#1138=DIRECTION('',(0.,0.,1.));
#1139=DIRECTION('',(-1.,0.,0.));
#1140=DIRECTION('',(0.,0.,1.));
#1141=DIRECTION('center_axis',(-1.,0.,0.));
#1142=DIRECTION('ref_axis',(0.,-1.,0.));
#1143=DIRECTION('',(0.,0.,1.));
#1144=DIRECTION('',(0.,1.,0.));
#1145=DIRECTION('center_axis',(0.,1.,0.));
#1146=DIRECTION('ref_axis',(-1.,0.,0.));
#1147=DIRECTION('',(0.,0.,1.));
#1148=DIRECTION('',(1.,0.,0.));
#1149=DIRECTION('center_axis',(1.,0.,0.));
#1150=DIRECTION('ref_axis',(0.,1.,0.));
#1151=DIRECTION('',(0.,-1.,0.));
#1152=DIRECTION('center_axis',(1.,0.,0.));
#1153=DIRECTION('ref_axis',(0.,1.,0.));
#1154=DIRECTION('',(0.,1.,0.));
#1155=DIRECTION('',(0.,0.,1.));
#1156=DIRECTION('',(0.,1.,0.));
#1157=DIRECTION('center_axis',(0.,-1.,0.));
#1158=DIRECTION('ref_axis',(1.,0.,0.));
#1159=DIRECTION('',(1.,0.,0.));
#1160=DIRECTION('',(1.,0.,0.));
#1161=DIRECTION('center_axis',(0.,0.,1.));
#1162=DIRECTION('ref_axis',(1.,0.,0.));
#1163=DIRECTION('center_axis',(0.,0.,1.));
#1164=DIRECTION('ref_axis',(1.,0.,0.));
#1165=DIRECTION('center_axis',(0.,1.,0.));
#1166=DIRECTION('ref_axis',(-1.,0.,0.));
#1167=DIRECTION('',(-1.,0.,0.));
#1168=DIRECTION('',(0.,0.,1.));
#1169=DIRECTION('',(1.,0.,0.));
#1170=DIRECTION('',(0.,0.,1.));
#1171=DIRECTION('center_axis',(1.,0.,0.));
#1172=DIRECTION('ref_axis',(0.,1.,0.));
#1173=DIRECTION('',(0.,1.,0.));
#1174=DIRECTION('',(0.,0.,1.));
#1175=DIRECTION('',(0.,-1.,0.));
#1176=DIRECTION('center_axis',(0.,-1.,0.));
#1177=DIRECTION('ref_axis',(1.,0.,0.));
#1178=DIRECTION('',(1.,0.,0.));
#1179=DIRECTION('',(0.,0.,1.));
#1180=DIRECTION('',(-1.,0.,0.));
#1181=DIRECTION('center_axis',(-1.,0.,0.));
#1182=DIRECTION('ref_axis',(0.,-1.,0.));
#1183=DIRECTION('',(0.,-1.,0.));
#1184=DIRECTION('',(0.,1.,0.));
#1185=DIRECTION('center_axis',(0.,1.,0.));
#1186=DIRECTION('ref_axis',(-1.,0.,0.));
#1187=DIRECTION('',(-1.,0.,0.));
#1188=DIRECTION('',(0.,0.,1.));
#1189=DIRECTION('',(-1.,0.,0.));
#1190=DIRECTION('',(0.,0.,1.));
#1191=DIRECTION('center_axis',(1.,0.,0.));
#1192=DIRECTION('ref_axis',(0.,1.,0.));
#1193=DIRECTION('',(0.,1.,0.));
#1194=DIRECTION('',(0.,1.,0.));
#1195=DIRECTION('',(0.,0.,1.));
#1196=DIRECTION('center_axis',(0.,-1.,0.));
#1197=DIRECTION('ref_axis',(1.,0.,0.));
#1198=DIRECTION('',(1.,0.,0.));
#1199=DIRECTION('',(1.,0.,0.));
#1200=DIRECTION('',(0.,0.,1.));
#1201=DIRECTION('center_axis',(-1.,0.,0.));
#1202=DIRECTION('ref_axis',(0.,-1.,0.));
#1203=DIRECTION('',(0.,-1.,0.));
#1204=DIRECTION('',(0.,-1.,0.));
#1205=DIRECTION('center_axis',(0.,0.,1.));
#1206=DIRECTION('ref_axis',(1.,0.,0.));
#1207=DIRECTION('center_axis',(0.,0.,1.));
#1208=DIRECTION('ref_axis',(1.,0.,0.));
#1209=CARTESIAN_POINT('',(0.,0.,0.));
#1210=CARTESIAN_POINT('Origin',(173.433,-130.881,0.));
#1211=CARTESIAN_POINT('',(173.433,-127.881,2.5));
#1212=CARTESIAN_POINT('',(173.433,-130.881,2.5));
#1213=CARTESIAN_POINT('',(173.433,-103.277502720332,2.5));
#1214=CARTESIAN_POINT('',(173.433,-127.881,8.));
#1215=CARTESIAN_POINT('',(173.433,-127.881,0.));
#1216=CARTESIAN_POINT('',(173.433,-130.881,8.));
#1217=CARTESIAN_POINT('',(173.433,-130.881,8.));
#1218=CARTESIAN_POINT('',(173.433,-130.881,0.));
#1219=CARTESIAN_POINT('Origin',(173.433,-127.881,0.));
#1220=CARTESIAN_POINT('',(159.433,-127.881,2.5));
#1221=CARTESIAN_POINT('',(148.548499494553,-127.881,2.5));
#1222=CARTESIAN_POINT('',(159.433,-127.881,8.));
#1223=CARTESIAN_POINT('',(159.433,-127.881,0.));
#1224=CARTESIAN_POINT('',(173.433,-127.881,8.));
#1225=CARTESIAN_POINT('Origin',(159.433,-130.881,0.));
#1226=CARTESIAN_POINT('',(159.433,-130.881,2.5));
#1227=CARTESIAN_POINT('',(141.548499494553,-130.881,2.5));
#1228=CARTESIAN_POINT('',(159.433,-130.881,8.));
#1229=CARTESIAN_POINT('',(159.433,-130.881,8.));
#1230=CARTESIAN_POINT('',(159.433,-130.881,0.));
#1231=CARTESIAN_POINT('Origin',(159.433,-127.881,0.));
#1232=CARTESIAN_POINT('',(159.433,-101.777502720332,2.5));
#1233=CARTESIAN_POINT('',(159.433,-127.881,8.));
#1234=CARTESIAN_POINT('Origin',(166.433,-129.381,8.));
#1235=CARTESIAN_POINT('Origin',(82.,-108.775,0.));
#1236=CARTESIAN_POINT('',(82.,-105.775,2.5));
#1237=CARTESIAN_POINT('',(82.,-108.775,2.5));
#1238=CARTESIAN_POINT('',(82.,-92.2245027203319,2.5));
#1239=CARTESIAN_POINT('',(82.,-105.775,8.));
#1240=CARTESIAN_POINT('',(82.,-105.775,0.));
#1241=CARTESIAN_POINT('',(82.,-108.775,8.));
#1242=CARTESIAN_POINT('',(82.,-108.775,8.));
#1243=CARTESIAN_POINT('',(82.,-108.775,0.));
#1244=CARTESIAN_POINT('Origin',(82.,-105.775,0.));
#1245=CARTESIAN_POINT('',(68.,-105.775,2.5));
#1246=CARTESIAN_POINT('',(102.831999494553,-105.775,2.5));
#1247=CARTESIAN_POINT('',(68.,-105.775,8.));
#1248=CARTESIAN_POINT('',(68.,-105.775,0.));
#1249=CARTESIAN_POINT('',(82.,-105.775,8.));
#1250=CARTESIAN_POINT('Origin',(68.,-108.775,0.));
#1251=CARTESIAN_POINT('',(68.,-108.775,2.5));
#1252=CARTESIAN_POINT('',(95.8319994945526,-108.775,2.5));
#1253=CARTESIAN_POINT('',(68.,-108.775,8.));
#1254=CARTESIAN_POINT('',(68.,-108.775,8.));
#1255=CARTESIAN_POINT('',(68.,-108.775,0.));
#1256=CARTESIAN_POINT('Origin',(68.,-105.775,0.));
#1257=CARTESIAN_POINT('',(68.,-90.7245027203319,2.5));
#1258=CARTESIAN_POINT('',(68.,-105.775,8.));
#1259=CARTESIAN_POINT('Origin',(75.,-107.275,8.));
#1260=CARTESIAN_POINT('Origin',(195.083,-87.,0.));
#1261=CARTESIAN_POINT('',(195.083,-73.,2.5));
#1262=CARTESIAN_POINT('',(195.083,-87.,2.5));
#1263=CARTESIAN_POINT('',(195.083,-81.3370027203319,2.5));
#1264=CARTESIAN_POINT('',(195.083,-73.,8.));
#1265=CARTESIAN_POINT('',(195.083,-73.,0.));
#1266=CARTESIAN_POINT('',(195.083,-87.,8.));
#1267=CARTESIAN_POINT('',(195.083,-87.,8.));
#1268=CARTESIAN_POINT('',(195.083,-87.,0.));
#1269=CARTESIAN_POINT('Origin',(195.083,-73.,0.));
#1270=CARTESIAN_POINT('',(192.083,-73.,2.5));
#1271=CARTESIAN_POINT('',(159.373499494553,-73.,2.5));
#1272=CARTESIAN_POINT('',(192.083,-73.,8.));
#1273=CARTESIAN_POINT('',(192.083,-73.,0.));
#1274=CARTESIAN_POINT('',(195.083,-73.,8.));
#1275=CARTESIAN_POINT('Origin',(192.083,-87.,0.));
#1276=CARTESIAN_POINT('',(192.083,-87.,2.5));
#1277=CARTESIAN_POINT('',(157.873499494553,-87.,2.5));
#1278=CARTESIAN_POINT('',(192.083,-87.,8.));
#1279=CARTESIAN_POINT('',(192.083,-87.,8.));
#1280=CARTESIAN_POINT('',(192.083,-87.,0.));
#1281=CARTESIAN_POINT('Origin',(192.083,-73.,0.));
#1282=CARTESIAN_POINT('',(192.083,-74.3370027203319,2.5));
#1283=CARTESIAN_POINT('',(192.083,-73.,8.));
#1284=CARTESIAN_POINT('Origin',(193.583,-80.,8.));
#1285=CARTESIAN_POINT('Origin',(55.245,-81.,0.));
#1286=CARTESIAN_POINT('',(55.245,-67.,2.5));
#1287=CARTESIAN_POINT('',(55.245,-81.,2.5));
#1288=CARTESIAN_POINT('',(55.245,-78.3370027203319,2.5));
#1289=CARTESIAN_POINT('',(55.245,-67.,8.));
#1290=CARTESIAN_POINT('',(55.245,-67.,0.));
#1291=CARTESIAN_POINT('',(55.245,-81.,8.));
#1292=CARTESIAN_POINT('',(55.245,-81.,8.));
#1293=CARTESIAN_POINT('',(55.245,-81.,0.));
#1294=CARTESIAN_POINT('Origin',(55.245,-67.,0.));
#1295=CARTESIAN_POINT('',(52.245,-67.,2.5));
#1296=CARTESIAN_POINT('',(89.4544994945526,-67.,2.5));
#1297=CARTESIAN_POINT('',(52.245,-67.,8.));
#1298=CARTESIAN_POINT('',(52.245,-67.,0.));
#1299=CARTESIAN_POINT('',(55.245,-67.,8.));
#1300=CARTESIAN_POINT('Origin',(52.245,-81.,0.));
#1301=CARTESIAN_POINT('',(52.245,-81.,2.5));
#1302=CARTESIAN_POINT('',(87.9544994945526,-81.,2.5));
#1303=CARTESIAN_POINT('',(52.245,-81.,8.));
#1304=CARTESIAN_POINT('',(52.245,-81.,8.));
#1305=CARTESIAN_POINT('',(52.245,-81.,0.));
#1306=CARTESIAN_POINT('Origin',(52.245,-67.,0.));
#1307=CARTESIAN_POINT('',(52.245,-71.3370027203319,2.5));
#1308=CARTESIAN_POINT('',(52.245,-67.,8.));
#1309=CARTESIAN_POINT('Origin',(53.745,-74.,8.));
#1310=CARTESIAN_POINT('Origin',(148.97,-20.9075,0.));
#1311=CARTESIAN_POINT('',(148.97,-17.9075,2.5));
#1312=CARTESIAN_POINT('',(148.97,-20.9075,2.5));
#1313=CARTESIAN_POINT('',(148.97,-48.2907527203319,2.5));
#1314=CARTESIAN_POINT('',(148.97,-17.9075,8.));
#1315=CARTESIAN_POINT('',(148.97,-17.9075,0.));
#1316=CARTESIAN_POINT('',(148.97,-20.9075,8.));
#1317=CARTESIAN_POINT('',(148.97,-20.9075,8.));
#1318=CARTESIAN_POINT('',(148.97,-20.9075,0.));
#1319=CARTESIAN_POINT('Origin',(148.97,-17.9075,0.));
#1320=CARTESIAN_POINT('',(134.97,-17.9075,2.5));
#1321=CARTESIAN_POINT('',(136.316999494553,-17.9075,2.5));
#1322=CARTESIAN_POINT('',(134.97,-17.9075,8.));
#1323=CARTESIAN_POINT('',(134.97,-17.9075,0.));
#1324=CARTESIAN_POINT('',(148.97,-17.9075,8.));
#1325=CARTESIAN_POINT('Origin',(134.97,-20.9075,0.));
#1326=CARTESIAN_POINT('',(134.97,-20.9075,2.5));
#1327=CARTESIAN_POINT('',(129.316999494553,-20.9075,2.5));
#1328=CARTESIAN_POINT('',(134.97,-20.9075,8.));
#1329=CARTESIAN_POINT('',(134.97,-20.9075,8.));
#1330=CARTESIAN_POINT('',(134.97,-20.9075,0.));
#1331=CARTESIAN_POINT('Origin',(134.97,-17.9075,0.));
#1332=CARTESIAN_POINT('',(134.97,-46.7907527203319,2.5));
#1333=CARTESIAN_POINT('',(134.97,-17.9075,8.));
#1334=CARTESIAN_POINT('Origin',(141.97,-19.4075,8.));
#1335=CARTESIAN_POINT('Origin',(82.,-27.575,0.));
#1336=CARTESIAN_POINT('',(82.,-24.575,2.5));
#1337=CARTESIAN_POINT('',(82.,-27.575,2.5));
#1338=CARTESIAN_POINT('',(82.,-51.6245027203319,2.5));
#1339=CARTESIAN_POINT('',(82.,-24.575,8.));
#1340=CARTESIAN_POINT('',(82.,-24.575,0.));
#1341=CARTESIAN_POINT('',(82.,-27.575,8.));
#1342=CARTESIAN_POINT('',(82.,-27.575,8.));
#1343=CARTESIAN_POINT('',(82.,-27.575,0.));
#1344=CARTESIAN_POINT('Origin',(82.,-24.575,0.));
#1345=CARTESIAN_POINT('',(68.,-24.575,2.5));
#1346=CARTESIAN_POINT('',(102.831999494553,-24.575,2.5));
#1347=CARTESIAN_POINT('',(68.,-24.575,8.));
#1348=CARTESIAN_POINT('',(68.,-24.575,0.));
#1349=CARTESIAN_POINT('',(82.,-24.575,8.));
#1350=CARTESIAN_POINT('Origin',(68.,-27.575,0.));
#1351=CARTESIAN_POINT('',(68.,-27.575,2.5));
#1352=CARTESIAN_POINT('',(95.8319994945526,-27.575,2.5));
#1353=CARTESIAN_POINT('',(68.,-27.575,8.));
#1354=CARTESIAN_POINT('',(68.,-27.575,8.));
#1355=CARTESIAN_POINT('',(68.,-27.575,0.));
#1356=CARTESIAN_POINT('Origin',(68.,-24.575,0.));
#1357=CARTESIAN_POINT('',(68.,-50.1245027203319,2.5));
#1358=CARTESIAN_POINT('',(68.,-24.575,8.));
#1359=CARTESIAN_POINT('Origin',(75.,-26.075,8.));
#1360=CARTESIAN_POINT('Origin',(123.663998989105,-75.6740054406639,2.5));
#1361=CARTESIAN_POINT('',(50.2349979782105,-15.8975,2.5));
#1362=CARTESIAN_POINT('',(197.093,-15.8975,2.5));
#1363=CARTESIAN_POINT('',(160.378499494553,-15.8975,2.5));
#1364=CARTESIAN_POINT('',(50.2349979782105,-135.450510881328,2.5));
#1365=CARTESIAN_POINT('',(50.2349979782105,-45.7857527203319,2.5));
#1366=CARTESIAN_POINT('',(197.093,-135.450510881328,2.5));
#1367=CARTESIAN_POINT('',(86.9494984836578,-135.450510881328,2.5));
#1368=CARTESIAN_POINT('',(197.093,-105.562258160996,2.5));
#1369=CARTESIAN_POINT('Origin',(200.093,-12.8975,0.));
#1370=CARTESIAN_POINT('',(47.2349979782104,-12.8975,0.));
#1371=CARTESIAN_POINT('',(47.2349979782104,-12.8975,8.));
#1372=CARTESIAN_POINT('',(47.2349979782104,-12.8975,0.));
#1373=CARTESIAN_POINT('',(200.093,-12.8975,8.));
#1374=CARTESIAN_POINT('',(200.093,-12.8975,8.));
#1375=CARTESIAN_POINT('',(200.093,-12.8975,0.));
#1376=CARTESIAN_POINT('',(200.093,-12.8975,0.));
#1377=CARTESIAN_POINT('',(200.093,-12.8975,0.));
#1378=CARTESIAN_POINT('Origin',(47.2349979782104,-12.8975,0.));
#1379=CARTESIAN_POINT('',(47.2349979782104,-138.450510881328,0.));
#1380=CARTESIAN_POINT('',(47.2349979782104,-138.450510881328,8.));
#1381=CARTESIAN_POINT('',(47.2349979782104,-138.450510881328,0.));
#1382=CARTESIAN_POINT('',(47.2349979782104,-12.8975,8.));
#1383=CARTESIAN_POINT('',(47.2349979782104,-12.8975,0.));
#1384=CARTESIAN_POINT('Origin',(50.2349979782105,-135.450510881328,0.));
#1385=CARTESIAN_POINT('',(50.2349979782105,-135.450510881328,8.));
#1386=CARTESIAN_POINT('',(50.2349979782105,-135.450510881328,0.));
#1387=CARTESIAN_POINT('',(197.093,-135.450510881328,8.));
#1388=CARTESIAN_POINT('',(86.9494984836578,-135.450510881328,8.));
#1389=CARTESIAN_POINT('',(197.093,-135.450510881328,0.));
#1390=CARTESIAN_POINT('Origin',(50.2349979782105,-15.8975,0.));
#1391=CARTESIAN_POINT('',(50.2349979782105,-15.8975,8.));
#1392=CARTESIAN_POINT('',(50.2349979782105,-15.8975,0.));
#1393=CARTESIAN_POINT('',(50.2349979782105,-45.7857527203319,8.));
#1394=CARTESIAN_POINT('Origin',(197.093,-15.8975,0.));
#1395=CARTESIAN_POINT('',(197.093,-15.8975,8.));
#1396=CARTESIAN_POINT('',(197.093,-15.8975,0.));
#1397=CARTESIAN_POINT('',(160.378499494553,-15.8975,8.));
#1398=CARTESIAN_POINT('Origin',(197.093,-135.450510881328,0.));
#1399=CARTESIAN_POINT('',(197.093,-105.562258160996,8.));
#1400=CARTESIAN_POINT('Origin',(200.093,-138.450510881328,0.));
#1401=CARTESIAN_POINT('',(200.093,-138.450510881328,8.));
#1402=CARTESIAN_POINT('',(200.093,-138.450510881328,8.));
#1403=CARTESIAN_POINT('',(200.093,-138.450510881328,0.));
#1404=CARTESIAN_POINT('',(200.093,-138.450510881328,0.));
#1405=CARTESIAN_POINT('',(200.093,-138.450510881328,0.));
#1406=CARTESIAN_POINT('Origin',(47.2349979782104,-138.450510881328,0.));
#1407=CARTESIAN_POINT('',(47.2349979782104,-138.450510881328,8.));
#1408=CARTESIAN_POINT('',(47.2349979782104,-138.450510881328,0.));
#1409=CARTESIAN_POINT('Origin',(123.663998989105,-75.6740054406639,8.));
#1410=CARTESIAN_POINT('Origin',(123.663998989105,-75.6740054406639,0.));
#1411=CARTESIAN_POINT('Origin',(197.093,-15.8975,10.7));
#1412=CARTESIAN_POINT('',(197.093,-15.8975,10.7));
#1413=CARTESIAN_POINT('',(50.2349979782104,-15.8975,10.7));
#1414=CARTESIAN_POINT('',(160.378499494553,-15.8975,10.7));
#1415=CARTESIAN_POINT('',(197.093,-15.8975,14.2));
#1416=CARTESIAN_POINT('',(197.093,-15.8975,10.7));
#1417=CARTESIAN_POINT('',(50.2349979782104,-15.8975,14.2));
#1418=CARTESIAN_POINT('',(160.378499494553,-15.8975,14.2));
#1419=CARTESIAN_POINT('',(50.2349979782104,-15.8975,10.7));
#1420=CARTESIAN_POINT('Origin',(197.093,-135.450510881328,10.7));
#1421=CARTESIAN_POINT('',(197.093,-135.450510881328,10.7));
#1422=CARTESIAN_POINT('',(197.093,-105.562258160996,10.7));
#1423=CARTESIAN_POINT('',(197.093,-135.450510881328,14.2));
#1424=CARTESIAN_POINT('',(197.093,-135.450510881328,10.7));
#1425=CARTESIAN_POINT('',(197.093,-105.562258160996,14.2));
#1426=CARTESIAN_POINT('Origin',(50.2349979782104,-135.450510881328,10.7));
#1427=CARTESIAN_POINT('',(50.2349979782104,-135.450510881328,10.7));
#1428=CARTESIAN_POINT('',(86.9494984836578,-135.450510881328,10.7));
#1429=CARTESIAN_POINT('',(50.2349979782104,-135.450510881328,14.2));
#1430=CARTESIAN_POINT('',(50.2349979782104,-135.450510881328,10.7));
#1431=CARTESIAN_POINT('',(86.9494984836578,-135.450510881328,14.2));
#1432=CARTESIAN_POINT('Origin',(50.2349979782104,-15.8975,10.7));
#1433=CARTESIAN_POINT('',(50.2349979782105,-45.7857527203319,10.7));
#1434=CARTESIAN_POINT('',(50.2349979782105,-45.7857527203319,14.2));
#1435=CARTESIAN_POINT('Origin',(200.093,-12.8975,10.7));
#1436=CARTESIAN_POINT('',(200.093,-12.8975,10.7));
#1437=CARTESIAN_POINT('',(47.2349979782104,-12.8975,10.7));
#1438=CARTESIAN_POINT('',(200.093,-12.8975,10.7));
#1439=CARTESIAN_POINT('',(47.2349979782104,-12.8975,14.2));
#1440=CARTESIAN_POINT('',(47.2349979782104,-12.8975,10.7));
#1441=CARTESIAN_POINT('',(200.093,-12.8975,14.2));
#1442=CARTESIAN_POINT('',(200.093,-12.8975,14.2));
#1443=CARTESIAN_POINT('',(200.093,-12.8975,10.7));
#1444=CARTESIAN_POINT('Origin',(200.093,-138.450510881328,10.7));
#1445=CARTESIAN_POINT('',(200.093,-138.450510881328,10.7));
#1446=CARTESIAN_POINT('',(200.093,-138.450510881328,10.7));
#1447=CARTESIAN_POINT('',(200.093,-138.450510881328,14.2));
#1448=CARTESIAN_POINT('',(200.093,-138.450510881328,14.2));
#1449=CARTESIAN_POINT('',(200.093,-138.450510881328,10.7));
#1450=CARTESIAN_POINT('Origin',(47.2349979782104,-138.450510881328,10.7));
#1451=CARTESIAN_POINT('',(47.2349979782104,-138.450510881328,10.7));
#1452=CARTESIAN_POINT('',(47.2349979782104,-138.450510881328,10.7));
#1453=CARTESIAN_POINT('',(47.2349979782104,-138.450510881328,14.2));
#1454=CARTESIAN_POINT('',(47.2349979782104,-138.450510881328,14.2));
#1455=CARTESIAN_POINT('',(47.2349979782104,-138.450510881328,10.7));
#1456=CARTESIAN_POINT('Origin',(47.2349979782104,-12.8975,10.7));
#1457=CARTESIAN_POINT('',(47.2349979782104,-12.8975,10.7));
#1458=CARTESIAN_POINT('',(47.2349979782104,-12.8975,14.2));
#1459=CARTESIAN_POINT('Origin',(123.663998989105,-75.6740054406639,14.2));
#1460=CARTESIAN_POINT('Origin',(123.663998989105,-75.6740054406639,10.7));
#1461=UNCERTAINTY_MEASURE_WITH_UNIT(LENGTH_MEASURE(0.01),#1465,
'DISTANCE_ACCURACY_VALUE',
'Maximum model space distance between geometric entities at asserted c
onnectivities');
#1462=UNCERTAINTY_MEASURE_WITH_UNIT(LENGTH_MEASURE(0.01),#1465,
'DISTANCE_ACCURACY_VALUE',
'Maximum model space distance between geometric entities at asserted c
onnectivities');
#1463=(
GEOMETRIC_REPRESENTATION_CONTEXT(3)
GLOBAL_UNCERTAINTY_ASSIGNED_CONTEXT((#1461))
GLOBAL_UNIT_ASSIGNED_CONTEXT((#1465,#1467,#1468))
REPRESENTATION_CONTEXT('','3D')
);
#1464=(
GEOMETRIC_REPRESENTATION_CONTEXT(3)
GLOBAL_UNCERTAINTY_ASSIGNED_CONTEXT((#1462))
GLOBAL_UNIT_ASSIGNED_CONTEXT((#1465,#1467,#1468))
REPRESENTATION_CONTEXT('','3D')
);
#1465=(
LENGTH_UNIT()
NAMED_UNIT(*)
SI_UNIT(.MILLI.,.METRE.)
);
#1466=(
LENGTH_UNIT()
NAMED_UNIT(*)
SI_UNIT($,.METRE.)
);
#1467=(
NAMED_UNIT(*)
PLANE_ANGLE_UNIT()
SI_UNIT($,.RADIAN.)
);
#1468=(
NAMED_UNIT(*)
SI_UNIT($,.STERADIAN.)
SOLID_ANGLE_UNIT()
);
#1469=SHAPE_DEFINITION_REPRESENTATION(#1470,#1471);
#1470=PRODUCT_DEFINITION_SHAPE('',$,#1473);
#1471=SHAPE_REPRESENTATION('',(#933),#1463);
#1472=PRODUCT_DEFINITION_CONTEXT('part definition',#1477,'design');
#1473=PRODUCT_DEFINITION('(\X2\672A4FDD5B58\X0\)','(\X2\672A4FDD5B58\X0\)',
#1474,#1472);
#1474=PRODUCT_DEFINITION_FORMATION('',$,#1479);
#1475=PRODUCT_RELATED_PRODUCT_CATEGORY('(\X2\672A4FDD5B58\X0\)',
'(\X2\672A4FDD5B58\X0\)',(#1479));
#1476=APPLICATION_PROTOCOL_DEFINITION('international standard',
'automotive_design',2009,#1477);
#1477=APPLICATION_CONTEXT(
'Core Data for Automotive Mechanical Design Process');
#1478=PRODUCT_CONTEXT('part definition',#1477,'mechanical');
#1479=PRODUCT('(\X2\672A4FDD5B58\X0\)','(\X2\672A4FDD5B58\X0\)',$,(#1478));
#1480=PRESENTATION_STYLE_ASSIGNMENT((#1481));
#1481=SURFACE_STYLE_USAGE(.BOTH.,#1482);
#1482=SURFACE_SIDE_STYLE('',(#1483));
#1483=SURFACE_STYLE_FILL_AREA(#1484);
#1484=FILL_AREA_STYLE('\X2\92FC\X0\ - \X2\30B530C630F3\X0\',(#1485));
#1485=FILL_AREA_STYLE_COLOUR('\X2\92FC\X0\ - \X2\30B530C630F3\X0\',#1486);
#1486=COLOUR_RGB('\X2\92FC\X0\ - \X2\30B530C630F3\X0\',0.627450980392157,
0.627450980392157,0.627450980392157);
ENDSEC;
END-ISO-10303-21;
