ISO-10303-21;
HEADER;
/* Generated by software containing ST-Developer
 * from STEP Tools, Inc. (www.steptools.com) 
 */

FILE_DESCRIPTION(
/* description */ (''),
/* implementation_level */ '2;1');

FILE_NAME(
/* name */ 'sage60_right_tb_case_complete.step',
/* time_stamp */ '2026-09-09T02:08:41+09:00',
/* author */ (''),
/* organization */ (''),
/* preprocessor_version */ 'ST-DEVELOPER v20.1',
/* originating_system */ 'Autodesk Translation Framework v15.8.0.0',
/* authorisation */ '');

FILE_SCHEMA (('AUTOMOTIVE_DESIGN { 1 0 10303 214 3 1 1 }'));
ENDSEC;

DATA;
#10=MECHANICAL_DESIGN_GEOMETRIC_PRESENTATION_REPRESENTATION('',(#13,#14),
#1503);
#11=SHAPE_REPRESENTATION_RELATIONSHIP('SRR','None',#1510,#12);
#12=ADVANCED_BREP_SHAPE_REPRESENTATION('',(#15,#16),#1502);
#13=STYLED_ITEM('',(#1519),#15);
#14=STYLED_ITEM('',(#1519),#16);
#15=MANIFOLD_SOLID_BREP('RIGHT_TRACKBALL_CASE_BOTTOM',#942);
#16=MANIFOLD_SOLID_BREP('RIGHT_TRACKBALL_CASE_TOP',#943);
#17=FACE_BOUND('',#115,.T.);
#18=FACE_BOUND('',#116,.T.);
#19=FACE_BOUND('',#117,.T.);
#20=FACE_BOUND('',#118,.T.);
#21=FACE_BOUND('',#119,.T.);
#22=FACE_BOUND('',#120,.T.);
#23=FACE_BOUND('',#121,.T.);
#24=FACE_BOUND('',#131,.T.);
#25=FACE_BOUND('',#133,.T.);
#26=FACE_BOUND('',#143,.T.);
#27=FACE_BOUND('',#145,.T.);
#28=CIRCLE('',#988,18.5);
#29=CIRCLE('',#989,18.5);
#30=CYLINDRICAL_SURFACE('',#987,18.5);
#31=FACE_OUTER_BOUND('',#83,.T.);
#32=FACE_OUTER_BOUND('',#84,.T.);
#33=FACE_OUTER_BOUND('',#85,.T.);
#34=FACE_OUTER_BOUND('',#86,.T.);
#35=FACE_OUTER_BOUND('',#87,.T.);
#36=FACE_OUTER_BOUND('',#88,.T.);
#37=FACE_OUTER_BOUND('',#89,.T.);
#38=FACE_OUTER_BOUND('',#90,.T.);
#39=FACE_OUTER_BOUND('',#91,.T.);
#40=FACE_OUTER_BOUND('',#92,.T.);
#41=FACE_OUTER_BOUND('',#93,.T.);
#42=FACE_OUTER_BOUND('',#94,.T.);
#43=FACE_OUTER_BOUND('',#95,.T.);
#44=FACE_OUTER_BOUND('',#96,.T.);
#45=FACE_OUTER_BOUND('',#97,.T.);
#46=FACE_OUTER_BOUND('',#98,.T.);
#47=FACE_OUTER_BOUND('',#99,.T.);
#48=FACE_OUTER_BOUND('',#100,.T.);
#49=FACE_OUTER_BOUND('',#101,.T.);
#50=FACE_OUTER_BOUND('',#102,.T.);
#51=FACE_OUTER_BOUND('',#103,.T.);
#52=FACE_OUTER_BOUND('',#104,.T.);
#53=FACE_OUTER_BOUND('',#105,.T.);
#54=FACE_OUTER_BOUND('',#106,.T.);
#55=FACE_OUTER_BOUND('',#107,.T.);
#56=FACE_OUTER_BOUND('',#108,.T.);
#57=FACE_OUTER_BOUND('',#109,.T.);
#58=FACE_OUTER_BOUND('',#110,.T.);
#59=FACE_OUTER_BOUND('',#111,.T.);
#60=FACE_OUTER_BOUND('',#112,.T.);
#61=FACE_OUTER_BOUND('',#113,.T.);
#62=FACE_OUTER_BOUND('',#114,.T.);
#63=FACE_OUTER_BOUND('',#122,.T.);
#64=FACE_OUTER_BOUND('',#123,.T.);
#65=FACE_OUTER_BOUND('',#124,.T.);
#66=FACE_OUTER_BOUND('',#125,.T.);
#67=FACE_OUTER_BOUND('',#126,.T.);
#68=FACE_OUTER_BOUND('',#127,.T.);
#69=FACE_OUTER_BOUND('',#128,.T.);
#70=FACE_OUTER_BOUND('',#129,.T.);
#71=FACE_OUTER_BOUND('',#130,.T.);
#72=FACE_OUTER_BOUND('',#132,.T.);
#73=FACE_OUTER_BOUND('',#134,.T.);
#74=FACE_OUTER_BOUND('',#135,.T.);
#75=FACE_OUTER_BOUND('',#136,.T.);
#76=FACE_OUTER_BOUND('',#137,.T.);
#77=FACE_OUTER_BOUND('',#138,.T.);
#78=FACE_OUTER_BOUND('',#139,.T.);
#79=FACE_OUTER_BOUND('',#140,.T.);
#80=FACE_OUTER_BOUND('',#141,.T.);
#81=FACE_OUTER_BOUND('',#142,.T.);
#82=FACE_OUTER_BOUND('',#144,.T.);
#83=EDGE_LOOP('',(#593,#594,#595,#596));
#84=EDGE_LOOP('',(#597,#598,#599,#600));
#85=EDGE_LOOP('',(#601,#602,#603,#604));
#86=EDGE_LOOP('',(#605,#606,#607,#608));
#87=EDGE_LOOP('',(#609,#610,#611,#612));
#88=EDGE_LOOP('',(#613,#614,#615,#616));
#89=EDGE_LOOP('',(#617,#618,#619,#620));
#90=EDGE_LOOP('',(#621,#622,#623,#624));
#91=EDGE_LOOP('',(#625,#626,#627,#628));
#92=EDGE_LOOP('',(#629,#630,#631,#632));
#93=EDGE_LOOP('',(#633,#634,#635,#636));
#94=EDGE_LOOP('',(#637,#638,#639,#640));
#95=EDGE_LOOP('',(#641,#642,#643,#644));
#96=EDGE_LOOP('',(#645,#646,#647,#648));
#97=EDGE_LOOP('',(#649,#650,#651,#652));
#98=EDGE_LOOP('',(#653,#654,#655,#656));
#99=EDGE_LOOP('',(#657,#658,#659,#660));
#100=EDGE_LOOP('',(#661,#662,#663,#664));
#101=EDGE_LOOP('',(#665,#666,#667,#668));
#102=EDGE_LOOP('',(#669,#670,#671,#672));
#103=EDGE_LOOP('',(#673,#674,#675,#676));
#104=EDGE_LOOP('',(#677,#678,#679,#680));
#105=EDGE_LOOP('',(#681,#682,#683,#684));
#106=EDGE_LOOP('',(#685,#686,#687,#688));
#107=EDGE_LOOP('',(#689,#690,#691,#692));
#108=EDGE_LOOP('',(#693,#694,#695,#696));
#109=EDGE_LOOP('',(#697,#698,#699,#700));
#110=EDGE_LOOP('',(#701,#702,#703,#704));
#111=EDGE_LOOP('',(#705,#706,#707,#708));
#112=EDGE_LOOP('',(#709,#710,#711,#712));
#113=EDGE_LOOP('',(#713,#714,#715,#716));
#114=EDGE_LOOP('',(#717,#718,#719,#720));
#115=EDGE_LOOP('',(#721,#722,#723,#724));
#116=EDGE_LOOP('',(#725,#726,#727,#728));
#117=EDGE_LOOP('',(#729,#730,#731,#732));
#118=EDGE_LOOP('',(#733,#734,#735,#736));
#119=EDGE_LOOP('',(#737,#738,#739,#740));
#120=EDGE_LOOP('',(#741,#742,#743,#744));
#121=EDGE_LOOP('',(#745));
#122=EDGE_LOOP('',(#746,#747,#748,#749));
#123=EDGE_LOOP('',(#750,#751,#752,#753));
#124=EDGE_LOOP('',(#754,#755,#756,#757));
#125=EDGE_LOOP('',(#758,#759,#760,#761));
#126=EDGE_LOOP('',(#762,#763,#764,#765));
#127=EDGE_LOOP('',(#766,#767,#768,#769));
#128=EDGE_LOOP('',(#770,#771,#772,#773));
#129=EDGE_LOOP('',(#774,#775,#776,#777));
#130=EDGE_LOOP('',(#778,#779,#780,#781));
#131=EDGE_LOOP('',(#782,#783,#784,#785));
#132=EDGE_LOOP('',(#786,#787,#788,#789));
#133=EDGE_LOOP('',(#790));
#134=EDGE_LOOP('',(#791,#792,#793,#794));
#135=EDGE_LOOP('',(#795,#796,#797,#798));
#136=EDGE_LOOP('',(#799,#800,#801,#802));
#137=EDGE_LOOP('',(#803,#804,#805,#806));
#138=EDGE_LOOP('',(#807,#808,#809,#810));
#139=EDGE_LOOP('',(#811,#812,#813,#814));
#140=EDGE_LOOP('',(#815,#816,#817,#818));
#141=EDGE_LOOP('',(#819,#820,#821,#822));
#142=EDGE_LOOP('',(#823,#824,#825,#826));
#143=EDGE_LOOP('',(#827,#828,#829,#830));
#144=EDGE_LOOP('',(#831,#832,#833,#834));
#145=EDGE_LOOP('',(#835,#836,#837,#838));
#146=LINE('',#1246,#267);
#147=LINE('',#1248,#268);
#148=LINE('',#1250,#269);
#149=LINE('',#1251,#270);
#150=LINE('',#1254,#271);
#151=LINE('',#1256,#272);
#152=LINE('',#1257,#273);
#153=LINE('',#1260,#274);
#154=LINE('',#1262,#275);
#155=LINE('',#1263,#276);
#156=LINE('',#1265,#277);
#157=LINE('',#1266,#278);
#158=LINE('',#1271,#279);
#159=LINE('',#1273,#280);
#160=LINE('',#1275,#281);
#161=LINE('',#1276,#282);
#162=LINE('',#1279,#283);
#163=LINE('',#1281,#284);
#164=LINE('',#1282,#285);
#165=LINE('',#1285,#286);
#166=LINE('',#1287,#287);
#167=LINE('',#1288,#288);
#168=LINE('',#1290,#289);
#169=LINE('',#1291,#290);
#170=LINE('',#1296,#291);
#171=LINE('',#1298,#292);
#172=LINE('',#1300,#293);
#173=LINE('',#1301,#294);
#174=LINE('',#1304,#295);
#175=LINE('',#1306,#296);
#176=LINE('',#1307,#297);
#177=LINE('',#1310,#298);
#178=LINE('',#1312,#299);
#179=LINE('',#1313,#300);
#180=LINE('',#1315,#301);
#181=LINE('',#1316,#302);
#182=LINE('',#1321,#303);
#183=LINE('',#1323,#304);
#184=LINE('',#1325,#305);
#185=LINE('',#1326,#306);
#186=LINE('',#1329,#307);
#187=LINE('',#1331,#308);
#188=LINE('',#1332,#309);
#189=LINE('',#1335,#310);
#190=LINE('',#1337,#311);
#191=LINE('',#1338,#312);
#192=LINE('',#1340,#313);
#193=LINE('',#1341,#314);
#194=LINE('',#1346,#315);
#195=LINE('',#1348,#316);
#196=LINE('',#1350,#317);
#197=LINE('',#1351,#318);
#198=LINE('',#1354,#319);
#199=LINE('',#1356,#320);
#200=LINE('',#1357,#321);
#201=LINE('',#1360,#322);
#202=LINE('',#1362,#323);
#203=LINE('',#1363,#324);
#204=LINE('',#1365,#325);
#205=LINE('',#1366,#326);
#206=LINE('',#1371,#327);
#207=LINE('',#1373,#328);
#208=LINE('',#1375,#329);
#209=LINE('',#1376,#330);
#210=LINE('',#1379,#331);
#211=LINE('',#1381,#332);
#212=LINE('',#1382,#333);
#213=LINE('',#1385,#334);
#214=LINE('',#1387,#335);
#215=LINE('',#1388,#336);
#216=LINE('',#1390,#337);
#217=LINE('',#1391,#338);
#218=LINE('',#1397,#339);
#219=LINE('',#1402,#340);
#220=LINE('',#1404,#341);
#221=LINE('',#1406,#342);
#222=LINE('',#1407,#343);
#223=LINE('',#1411,#344);
#224=LINE('',#1413,#345);
#225=LINE('',#1415,#346);
#226=LINE('',#1416,#347);
#227=LINE('',#1420,#348);
#228=LINE('',#1421,#349);
#229=LINE('',#1422,#350);
#230=LINE('',#1425,#351);
#231=LINE('',#1427,#352);
#232=LINE('',#1428,#353);
#233=LINE('',#1431,#354);
#234=LINE('',#1432,#355);
#235=LINE('',#1435,#356);
#236=LINE('',#1436,#357);
#237=LINE('',#1438,#358);
#238=LINE('',#1441,#359);
#239=LINE('',#1443,#360);
#240=LINE('',#1444,#361);
#241=LINE('',#1446,#362);
#242=LINE('',#1447,#363);
#243=LINE('',#1453,#364);
#244=LINE('',#1455,#365);
#245=LINE('',#1457,#366);
#246=LINE('',#1458,#367);
#247=LINE('',#1461,#368);
#248=LINE('',#1463,#369);
#249=LINE('',#1464,#370);
#250=LINE('',#1467,#371);
#251=LINE('',#1469,#372);
#252=LINE('',#1470,#373);
#253=LINE('',#1472,#374);
#254=LINE('',#1473,#375);
#255=LINE('',#1477,#376);
#256=LINE('',#1479,#377);
#257=LINE('',#1481,#378);
#258=LINE('',#1482,#379);
#259=LINE('',#1485,#380);
#260=LINE('',#1487,#381);
#261=LINE('',#1488,#382);
#262=LINE('',#1491,#383);
#263=LINE('',#1493,#384);
#264=LINE('',#1494,#385);
#265=LINE('',#1496,#386);
#266=LINE('',#1497,#387);
#267=VECTOR('',#1015,10.);
#268=VECTOR('',#1016,10.);
#269=VECTOR('',#1017,10.);
#270=VECTOR('',#1018,10.);
#271=VECTOR('',#1021,10.);
#272=VECTOR('',#1022,10.);
#273=VECTOR('',#1023,10.);
#274=VECTOR('',#1026,10.);
#275=VECTOR('',#1027,10.);
#276=VECTOR('',#1028,10.);
#277=VECTOR('',#1031,10.);
#278=VECTOR('',#1032,10.);
#279=VECTOR('',#1037,10.);
#280=VECTOR('',#1038,10.);
#281=VECTOR('',#1039,10.);
#282=VECTOR('',#1040,10.);
#283=VECTOR('',#1043,10.);
#284=VECTOR('',#1044,10.);
#285=VECTOR('',#1045,10.);
#286=VECTOR('',#1048,10.);
#287=VECTOR('',#1049,10.);
#288=VECTOR('',#1050,10.);
#289=VECTOR('',#1053,10.);
#290=VECTOR('',#1054,10.);
#291=VECTOR('',#1059,10.);
#292=VECTOR('',#1060,10.);
#293=VECTOR('',#1061,10.);
#294=VECTOR('',#1062,10.);
#295=VECTOR('',#1065,10.);
#296=VECTOR('',#1066,10.);
#297=VECTOR('',#1067,10.);
#298=VECTOR('',#1070,10.);
#299=VECTOR('',#1071,10.);
#300=VECTOR('',#1072,10.);
#301=VECTOR('',#1075,10.);
#302=VECTOR('',#1076,10.);
#303=VECTOR('',#1081,10.);
#304=VECTOR('',#1082,10.);
#305=VECTOR('',#1083,10.);
#306=VECTOR('',#1084,10.);
#307=VECTOR('',#1087,10.);
#308=VECTOR('',#1088,10.);
#309=VECTOR('',#1089,10.);
#310=VECTOR('',#1092,10.);
#311=VECTOR('',#1093,10.);
#312=VECTOR('',#1094,10.);
#313=VECTOR('',#1097,10.);
#314=VECTOR('',#1098,10.);
#315=VECTOR('',#1103,10.);
#316=VECTOR('',#1104,10.);
#317=VECTOR('',#1105,10.);
#318=VECTOR('',#1106,10.);
#319=VECTOR('',#1109,10.);
#320=VECTOR('',#1110,10.);
#321=VECTOR('',#1111,10.);
#322=VECTOR('',#1114,10.);
#323=VECTOR('',#1115,10.);
#324=VECTOR('',#1116,10.);
#325=VECTOR('',#1119,10.);
#326=VECTOR('',#1120,10.);
#327=VECTOR('',#1125,10.);
#328=VECTOR('',#1126,10.);
#329=VECTOR('',#1127,10.);
#330=VECTOR('',#1128,10.);
#331=VECTOR('',#1131,10.);
#332=VECTOR('',#1132,10.);
#333=VECTOR('',#1133,10.);
#334=VECTOR('',#1136,10.);
#335=VECTOR('',#1137,10.);
#336=VECTOR('',#1138,10.);
#337=VECTOR('',#1141,10.);
#338=VECTOR('',#1142,10.);
#339=VECTOR('',#1149,18.5);
#340=VECTOR('',#1154,10.);
#341=VECTOR('',#1155,10.);
#342=VECTOR('',#1156,10.);
#343=VECTOR('',#1157,10.);
#344=VECTOR('',#1160,10.);
#345=VECTOR('',#1161,10.);
#346=VECTOR('',#1162,10.);
#347=VECTOR('',#1163,10.);
#348=VECTOR('',#1166,10.);
#349=VECTOR('',#1167,10.);
#350=VECTOR('',#1168,10.);
#351=VECTOR('',#1171,10.);
#352=VECTOR('',#1172,10.);
#353=VECTOR('',#1173,10.);
#354=VECTOR('',#1176,10.);
#355=VECTOR('',#1177,10.);
#356=VECTOR('',#1180,10.);
#357=VECTOR('',#1181,10.);
#358=VECTOR('',#1184,10.);
#359=VECTOR('',#1187,10.);
#360=VECTOR('',#1188,10.);
#361=VECTOR('',#1189,10.);
#362=VECTOR('',#1192,10.);
#363=VECTOR('',#1193,10.);
#364=VECTOR('',#1200,10.);
#365=VECTOR('',#1201,10.);
#366=VECTOR('',#1202,10.);
#367=VECTOR('',#1203,10.);
#368=VECTOR('',#1206,10.);
#369=VECTOR('',#1207,10.);
#370=VECTOR('',#1208,10.);
#371=VECTOR('',#1211,10.);
#372=VECTOR('',#1212,10.);
#373=VECTOR('',#1213,10.);
#374=VECTOR('',#1216,10.);
#375=VECTOR('',#1217,10.);
#376=VECTOR('',#1220,10.);
#377=VECTOR('',#1221,10.);
#378=VECTOR('',#1222,10.);
#379=VECTOR('',#1223,10.);
#380=VECTOR('',#1226,10.);
#381=VECTOR('',#1227,10.);
#382=VECTOR('',#1228,10.);
#383=VECTOR('',#1231,10.);
#384=VECTOR('',#1232,10.);
#385=VECTOR('',#1233,10.);
#386=VECTOR('',#1236,10.);
#387=VECTOR('',#1237,10.);
#388=VERTEX_POINT('',#1244);
#389=VERTEX_POINT('',#1245);
#390=VERTEX_POINT('',#1247);
#391=VERTEX_POINT('',#1249);
#392=VERTEX_POINT('',#1253);
#393=VERTEX_POINT('',#1255);
#394=VERTEX_POINT('',#1259);
#395=VERTEX_POINT('',#1261);
#396=VERTEX_POINT('',#1269);
#397=VERTEX_POINT('',#1270);
#398=VERTEX_POINT('',#1272);
#399=VERTEX_POINT('',#1274);
#400=VERTEX_POINT('',#1278);
#401=VERTEX_POINT('',#1280);
#402=VERTEX_POINT('',#1284);
#403=VERTEX_POINT('',#1286);
#404=VERTEX_POINT('',#1294);
#405=VERTEX_POINT('',#1295);
#406=VERTEX_POINT('',#1297);
#407=VERTEX_POINT('',#1299);
#408=VERTEX_POINT('',#1303);
#409=VERTEX_POINT('',#1305);
#410=VERTEX_POINT('',#1309);
#411=VERTEX_POINT('',#1311);
#412=VERTEX_POINT('',#1319);
#413=VERTEX_POINT('',#1320);
#414=VERTEX_POINT('',#1322);
#415=VERTEX_POINT('',#1324);
#416=VERTEX_POINT('',#1328);
#417=VERTEX_POINT('',#1330);
#418=VERTEX_POINT('',#1334);
#419=VERTEX_POINT('',#1336);
#420=VERTEX_POINT('',#1344);
#421=VERTEX_POINT('',#1345);
#422=VERTEX_POINT('',#1347);
#423=VERTEX_POINT('',#1349);
#424=VERTEX_POINT('',#1353);
#425=VERTEX_POINT('',#1355);
#426=VERTEX_POINT('',#1359);
#427=VERTEX_POINT('',#1361);
#428=VERTEX_POINT('',#1369);
#429=VERTEX_POINT('',#1370);
#430=VERTEX_POINT('',#1372);
#431=VERTEX_POINT('',#1374);
#432=VERTEX_POINT('',#1378);
#433=VERTEX_POINT('',#1380);
#434=VERTEX_POINT('',#1384);
#435=VERTEX_POINT('',#1386);
#436=VERTEX_POINT('',#1394);
#437=VERTEX_POINT('',#1396);
#438=VERTEX_POINT('',#1400);
#439=VERTEX_POINT('',#1401);
#440=VERTEX_POINT('',#1403);
#441=VERTEX_POINT('',#1405);
#442=VERTEX_POINT('',#1409);
#443=VERTEX_POINT('',#1410);
#444=VERTEX_POINT('',#1412);
#445=VERTEX_POINT('',#1414);
#446=VERTEX_POINT('',#1418);
#447=VERTEX_POINT('',#1419);
#448=VERTEX_POINT('',#1424);
#449=VERTEX_POINT('',#1426);
#450=VERTEX_POINT('',#1430);
#451=VERTEX_POINT('',#1434);
#452=VERTEX_POINT('',#1440);
#453=VERTEX_POINT('',#1442);
#454=VERTEX_POINT('',#1451);
#455=VERTEX_POINT('',#1452);
#456=VERTEX_POINT('',#1454);
#457=VERTEX_POINT('',#1456);
#458=VERTEX_POINT('',#1460);
#459=VERTEX_POINT('',#1462);
#460=VERTEX_POINT('',#1466);
#461=VERTEX_POINT('',#1468);
#462=VERTEX_POINT('',#1475);
#463=VERTEX_POINT('',#1476);
#464=VERTEX_POINT('',#1478);
#465=VERTEX_POINT('',#1480);
#466=VERTEX_POINT('',#1484);
#467=VERTEX_POINT('',#1486);
#468=VERTEX_POINT('',#1490);
#469=VERTEX_POINT('',#1492);
#470=EDGE_CURVE('',#388,#389,#146,.T.);
#471=EDGE_CURVE('',#388,#390,#147,.T.);
#472=EDGE_CURVE('',#391,#390,#148,.T.);
#473=EDGE_CURVE('',#389,#391,#149,.T.);
#474=EDGE_CURVE('',#392,#388,#150,.T.);
#475=EDGE_CURVE('',#392,#393,#151,.T.);
#476=EDGE_CURVE('',#390,#393,#152,.T.);
#477=EDGE_CURVE('',#389,#394,#153,.T.);
#478=EDGE_CURVE('',#395,#391,#154,.T.);
#479=EDGE_CURVE('',#394,#395,#155,.T.);
#480=EDGE_CURVE('',#394,#392,#156,.T.);
#481=EDGE_CURVE('',#393,#395,#157,.T.);
#482=EDGE_CURVE('',#396,#397,#158,.T.);
#483=EDGE_CURVE('',#396,#398,#159,.T.);
#484=EDGE_CURVE('',#399,#398,#160,.T.);
#485=EDGE_CURVE('',#397,#399,#161,.T.);
#486=EDGE_CURVE('',#400,#396,#162,.T.);
#487=EDGE_CURVE('',#400,#401,#163,.T.);
#488=EDGE_CURVE('',#398,#401,#164,.T.);
#489=EDGE_CURVE('',#397,#402,#165,.T.);
#490=EDGE_CURVE('',#403,#399,#166,.T.);
#491=EDGE_CURVE('',#402,#403,#167,.T.);
#492=EDGE_CURVE('',#402,#400,#168,.T.);
#493=EDGE_CURVE('',#401,#403,#169,.T.);
#494=EDGE_CURVE('',#404,#405,#170,.T.);
#495=EDGE_CURVE('',#404,#406,#171,.T.);
#496=EDGE_CURVE('',#407,#406,#172,.T.);
#497=EDGE_CURVE('',#405,#407,#173,.T.);
#498=EDGE_CURVE('',#408,#404,#174,.T.);
#499=EDGE_CURVE('',#408,#409,#175,.T.);
#500=EDGE_CURVE('',#406,#409,#176,.T.);
#501=EDGE_CURVE('',#405,#410,#177,.T.);
#502=EDGE_CURVE('',#411,#407,#178,.T.);
#503=EDGE_CURVE('',#410,#411,#179,.T.);
#504=EDGE_CURVE('',#410,#408,#180,.T.);
#505=EDGE_CURVE('',#409,#411,#181,.T.);
#506=EDGE_CURVE('',#412,#413,#182,.T.);
#507=EDGE_CURVE('',#412,#414,#183,.T.);
#508=EDGE_CURVE('',#415,#414,#184,.T.);
#509=EDGE_CURVE('',#413,#415,#185,.T.);
#510=EDGE_CURVE('',#416,#412,#186,.T.);
#511=EDGE_CURVE('',#416,#417,#187,.T.);
#512=EDGE_CURVE('',#414,#417,#188,.T.);
#513=EDGE_CURVE('',#413,#418,#189,.T.);
#514=EDGE_CURVE('',#419,#415,#190,.T.);
#515=EDGE_CURVE('',#418,#419,#191,.T.);
#516=EDGE_CURVE('',#418,#416,#192,.T.);
#517=EDGE_CURVE('',#417,#419,#193,.T.);
#518=EDGE_CURVE('',#420,#421,#194,.T.);
#519=EDGE_CURVE('',#420,#422,#195,.T.);
#520=EDGE_CURVE('',#423,#422,#196,.T.);
#521=EDGE_CURVE('',#421,#423,#197,.T.);
#522=EDGE_CURVE('',#424,#420,#198,.T.);
#523=EDGE_CURVE('',#424,#425,#199,.T.);
#524=EDGE_CURVE('',#422,#425,#200,.T.);
#525=EDGE_CURVE('',#421,#426,#201,.T.);
#526=EDGE_CURVE('',#427,#423,#202,.T.);
#527=EDGE_CURVE('',#426,#427,#203,.T.);
#528=EDGE_CURVE('',#426,#424,#204,.T.);
#529=EDGE_CURVE('',#425,#427,#205,.T.);
#530=EDGE_CURVE('',#428,#429,#206,.T.);
#531=EDGE_CURVE('',#428,#430,#207,.T.);
#532=EDGE_CURVE('',#431,#430,#208,.T.);
#533=EDGE_CURVE('',#429,#431,#209,.T.);
#534=EDGE_CURVE('',#432,#428,#210,.T.);
#535=EDGE_CURVE('',#432,#433,#211,.T.);
#536=EDGE_CURVE('',#430,#433,#212,.T.);
#537=EDGE_CURVE('',#429,#434,#213,.T.);
#538=EDGE_CURVE('',#435,#431,#214,.T.);
#539=EDGE_CURVE('',#434,#435,#215,.T.);
#540=EDGE_CURVE('',#434,#432,#216,.T.);
#541=EDGE_CURVE('',#433,#435,#217,.T.);
#542=EDGE_CURVE('',#436,#436,#28,.T.);
#543=EDGE_CURVE('',#436,#437,#218,.T.);
#544=EDGE_CURVE('',#437,#437,#29,.T.);
#545=EDGE_CURVE('',#438,#439,#219,.T.);
#546=EDGE_CURVE('',#440,#438,#220,.T.);
#547=EDGE_CURVE('',#441,#440,#221,.T.);
#548=EDGE_CURVE('',#439,#441,#222,.T.);
#549=EDGE_CURVE('',#442,#443,#223,.T.);
#550=EDGE_CURVE('',#444,#443,#224,.T.);
#551=EDGE_CURVE('',#445,#444,#225,.T.);
#552=EDGE_CURVE('',#445,#442,#226,.T.);
#553=EDGE_CURVE('',#446,#447,#227,.T.);
#554=EDGE_CURVE('',#443,#447,#228,.T.);
#555=EDGE_CURVE('',#442,#446,#229,.T.);
#556=EDGE_CURVE('',#440,#448,#230,.T.);
#557=EDGE_CURVE('',#449,#448,#231,.T.);
#558=EDGE_CURVE('',#441,#449,#232,.T.);
#559=EDGE_CURVE('',#438,#450,#233,.T.);
#560=EDGE_CURVE('',#448,#450,#234,.T.);
#561=EDGE_CURVE('',#439,#451,#235,.T.);
#562=EDGE_CURVE('',#450,#451,#236,.T.);
#563=EDGE_CURVE('',#451,#449,#237,.T.);
#564=EDGE_CURVE('',#452,#444,#238,.T.);
#565=EDGE_CURVE('',#453,#452,#239,.T.);
#566=EDGE_CURVE('',#453,#445,#240,.T.);
#567=EDGE_CURVE('',#447,#452,#241,.T.);
#568=EDGE_CURVE('',#446,#453,#242,.T.);
#569=EDGE_CURVE('',#454,#455,#243,.T.);
#570=EDGE_CURVE('',#454,#456,#244,.T.);
#571=EDGE_CURVE('',#457,#456,#245,.T.);
#572=EDGE_CURVE('',#455,#457,#246,.T.);
#573=EDGE_CURVE('',#458,#454,#247,.T.);
#574=EDGE_CURVE('',#458,#459,#248,.T.);
#575=EDGE_CURVE('',#456,#459,#249,.T.);
#576=EDGE_CURVE('',#460,#458,#250,.T.);
#577=EDGE_CURVE('',#460,#461,#251,.T.);
#578=EDGE_CURVE('',#459,#461,#252,.T.);
#579=EDGE_CURVE('',#455,#460,#253,.T.);
#580=EDGE_CURVE('',#461,#457,#254,.T.);
#581=EDGE_CURVE('',#462,#463,#255,.T.);
#582=EDGE_CURVE('',#463,#464,#256,.T.);
#583=EDGE_CURVE('',#465,#464,#257,.T.);
#584=EDGE_CURVE('',#462,#465,#258,.T.);
#585=EDGE_CURVE('',#466,#462,#259,.T.);
#586=EDGE_CURVE('',#467,#465,#260,.T.);
#587=EDGE_CURVE('',#466,#467,#261,.T.);
#588=EDGE_CURVE('',#468,#466,#262,.T.);
#589=EDGE_CURVE('',#469,#467,#263,.T.);
#590=EDGE_CURVE('',#468,#469,#264,.T.);
#591=EDGE_CURVE('',#463,#468,#265,.T.);
#592=EDGE_CURVE('',#464,#469,#266,.T.);
#593=ORIENTED_EDGE('',*,*,#470,.F.);
#594=ORIENTED_EDGE('',*,*,#471,.T.);
#595=ORIENTED_EDGE('',*,*,#472,.F.);
#596=ORIENTED_EDGE('',*,*,#473,.F.);
#597=ORIENTED_EDGE('',*,*,#474,.F.);
#598=ORIENTED_EDGE('',*,*,#475,.T.);
#599=ORIENTED_EDGE('',*,*,#476,.F.);
#600=ORIENTED_EDGE('',*,*,#471,.F.);
#601=ORIENTED_EDGE('',*,*,#477,.F.);
#602=ORIENTED_EDGE('',*,*,#473,.T.);
#603=ORIENTED_EDGE('',*,*,#478,.F.);
#604=ORIENTED_EDGE('',*,*,#479,.F.);
#605=ORIENTED_EDGE('',*,*,#480,.F.);
#606=ORIENTED_EDGE('',*,*,#479,.T.);
#607=ORIENTED_EDGE('',*,*,#481,.F.);
#608=ORIENTED_EDGE('',*,*,#475,.F.);
#609=ORIENTED_EDGE('',*,*,#481,.T.);
#610=ORIENTED_EDGE('',*,*,#478,.T.);
#611=ORIENTED_EDGE('',*,*,#472,.T.);
#612=ORIENTED_EDGE('',*,*,#476,.T.);
#613=ORIENTED_EDGE('',*,*,#482,.F.);
#614=ORIENTED_EDGE('',*,*,#483,.T.);
#615=ORIENTED_EDGE('',*,*,#484,.F.);
#616=ORIENTED_EDGE('',*,*,#485,.F.);
#617=ORIENTED_EDGE('',*,*,#486,.F.);
#618=ORIENTED_EDGE('',*,*,#487,.T.);
#619=ORIENTED_EDGE('',*,*,#488,.F.);
#620=ORIENTED_EDGE('',*,*,#483,.F.);
#621=ORIENTED_EDGE('',*,*,#489,.F.);
#622=ORIENTED_EDGE('',*,*,#485,.T.);
#623=ORIENTED_EDGE('',*,*,#490,.F.);
#624=ORIENTED_EDGE('',*,*,#491,.F.);
#625=ORIENTED_EDGE('',*,*,#492,.F.);
#626=ORIENTED_EDGE('',*,*,#491,.T.);
#627=ORIENTED_EDGE('',*,*,#493,.F.);
#628=ORIENTED_EDGE('',*,*,#487,.F.);
#629=ORIENTED_EDGE('',*,*,#493,.T.);
#630=ORIENTED_EDGE('',*,*,#490,.T.);
#631=ORIENTED_EDGE('',*,*,#484,.T.);
#632=ORIENTED_EDGE('',*,*,#488,.T.);
#633=ORIENTED_EDGE('',*,*,#494,.F.);
#634=ORIENTED_EDGE('',*,*,#495,.T.);
#635=ORIENTED_EDGE('',*,*,#496,.F.);
#636=ORIENTED_EDGE('',*,*,#497,.F.);
#637=ORIENTED_EDGE('',*,*,#498,.F.);
#638=ORIENTED_EDGE('',*,*,#499,.T.);
#639=ORIENTED_EDGE('',*,*,#500,.F.);
#640=ORIENTED_EDGE('',*,*,#495,.F.);
#641=ORIENTED_EDGE('',*,*,#501,.F.);
#642=ORIENTED_EDGE('',*,*,#497,.T.);
#643=ORIENTED_EDGE('',*,*,#502,.F.);
#644=ORIENTED_EDGE('',*,*,#503,.F.);
#645=ORIENTED_EDGE('',*,*,#504,.F.);
#646=ORIENTED_EDGE('',*,*,#503,.T.);
#647=ORIENTED_EDGE('',*,*,#505,.F.);
#648=ORIENTED_EDGE('',*,*,#499,.F.);
#649=ORIENTED_EDGE('',*,*,#505,.T.);
#650=ORIENTED_EDGE('',*,*,#502,.T.);
#651=ORIENTED_EDGE('',*,*,#496,.T.);
#652=ORIENTED_EDGE('',*,*,#500,.T.);
#653=ORIENTED_EDGE('',*,*,#506,.F.);
#654=ORIENTED_EDGE('',*,*,#507,.T.);
#655=ORIENTED_EDGE('',*,*,#508,.F.);
#656=ORIENTED_EDGE('',*,*,#509,.F.);
#657=ORIENTED_EDGE('',*,*,#510,.F.);
#658=ORIENTED_EDGE('',*,*,#511,.T.);
#659=ORIENTED_EDGE('',*,*,#512,.F.);
#660=ORIENTED_EDGE('',*,*,#507,.F.);
#661=ORIENTED_EDGE('',*,*,#513,.F.);
#662=ORIENTED_EDGE('',*,*,#509,.T.);
#663=ORIENTED_EDGE('',*,*,#514,.F.);
#664=ORIENTED_EDGE('',*,*,#515,.F.);
#665=ORIENTED_EDGE('',*,*,#516,.F.);
#666=ORIENTED_EDGE('',*,*,#515,.T.);
#667=ORIENTED_EDGE('',*,*,#517,.F.);
#668=ORIENTED_EDGE('',*,*,#511,.F.);
#669=ORIENTED_EDGE('',*,*,#517,.T.);
#670=ORIENTED_EDGE('',*,*,#514,.T.);
#671=ORIENTED_EDGE('',*,*,#508,.T.);
#672=ORIENTED_EDGE('',*,*,#512,.T.);
#673=ORIENTED_EDGE('',*,*,#518,.F.);
#674=ORIENTED_EDGE('',*,*,#519,.T.);
#675=ORIENTED_EDGE('',*,*,#520,.F.);
#676=ORIENTED_EDGE('',*,*,#521,.F.);
#677=ORIENTED_EDGE('',*,*,#522,.F.);
#678=ORIENTED_EDGE('',*,*,#523,.T.);
#679=ORIENTED_EDGE('',*,*,#524,.F.);
#680=ORIENTED_EDGE('',*,*,#519,.F.);
#681=ORIENTED_EDGE('',*,*,#525,.F.);
#682=ORIENTED_EDGE('',*,*,#521,.T.);
#683=ORIENTED_EDGE('',*,*,#526,.F.);
#684=ORIENTED_EDGE('',*,*,#527,.F.);
#685=ORIENTED_EDGE('',*,*,#528,.F.);
#686=ORIENTED_EDGE('',*,*,#527,.T.);
#687=ORIENTED_EDGE('',*,*,#529,.F.);
#688=ORIENTED_EDGE('',*,*,#523,.F.);
#689=ORIENTED_EDGE('',*,*,#529,.T.);
#690=ORIENTED_EDGE('',*,*,#526,.T.);
#691=ORIENTED_EDGE('',*,*,#520,.T.);
#692=ORIENTED_EDGE('',*,*,#524,.T.);
#693=ORIENTED_EDGE('',*,*,#530,.F.);
#694=ORIENTED_EDGE('',*,*,#531,.T.);
#695=ORIENTED_EDGE('',*,*,#532,.F.);
#696=ORIENTED_EDGE('',*,*,#533,.F.);
#697=ORIENTED_EDGE('',*,*,#534,.F.);
#698=ORIENTED_EDGE('',*,*,#535,.T.);
#699=ORIENTED_EDGE('',*,*,#536,.F.);
#700=ORIENTED_EDGE('',*,*,#531,.F.);
#701=ORIENTED_EDGE('',*,*,#537,.F.);
#702=ORIENTED_EDGE('',*,*,#533,.T.);
#703=ORIENTED_EDGE('',*,*,#538,.F.);
#704=ORIENTED_EDGE('',*,*,#539,.F.);
#705=ORIENTED_EDGE('',*,*,#540,.F.);
#706=ORIENTED_EDGE('',*,*,#539,.T.);
#707=ORIENTED_EDGE('',*,*,#541,.F.);
#708=ORIENTED_EDGE('',*,*,#535,.F.);
#709=ORIENTED_EDGE('',*,*,#541,.T.);
#710=ORIENTED_EDGE('',*,*,#538,.T.);
#711=ORIENTED_EDGE('',*,*,#532,.T.);
#712=ORIENTED_EDGE('',*,*,#536,.T.);
#713=ORIENTED_EDGE('',*,*,#542,.F.);
#714=ORIENTED_EDGE('',*,*,#543,.T.);
#715=ORIENTED_EDGE('',*,*,#544,.F.);
#716=ORIENTED_EDGE('',*,*,#543,.F.);
#717=ORIENTED_EDGE('',*,*,#545,.F.);
#718=ORIENTED_EDGE('',*,*,#546,.F.);
#719=ORIENTED_EDGE('',*,*,#547,.F.);
#720=ORIENTED_EDGE('',*,*,#548,.F.);
#721=ORIENTED_EDGE('',*,*,#474,.T.);
#722=ORIENTED_EDGE('',*,*,#470,.T.);
#723=ORIENTED_EDGE('',*,*,#477,.T.);
#724=ORIENTED_EDGE('',*,*,#480,.T.);
#725=ORIENTED_EDGE('',*,*,#486,.T.);
#726=ORIENTED_EDGE('',*,*,#482,.T.);
#727=ORIENTED_EDGE('',*,*,#489,.T.);
#728=ORIENTED_EDGE('',*,*,#492,.T.);
#729=ORIENTED_EDGE('',*,*,#498,.T.);
#730=ORIENTED_EDGE('',*,*,#494,.T.);
#731=ORIENTED_EDGE('',*,*,#501,.T.);
#732=ORIENTED_EDGE('',*,*,#504,.T.);
#733=ORIENTED_EDGE('',*,*,#510,.T.);
#734=ORIENTED_EDGE('',*,*,#506,.T.);
#735=ORIENTED_EDGE('',*,*,#513,.T.);
#736=ORIENTED_EDGE('',*,*,#516,.T.);
#737=ORIENTED_EDGE('',*,*,#522,.T.);
#738=ORIENTED_EDGE('',*,*,#518,.T.);
#739=ORIENTED_EDGE('',*,*,#525,.T.);
#740=ORIENTED_EDGE('',*,*,#528,.T.);
#741=ORIENTED_EDGE('',*,*,#534,.T.);
#742=ORIENTED_EDGE('',*,*,#530,.T.);
#743=ORIENTED_EDGE('',*,*,#537,.T.);
#744=ORIENTED_EDGE('',*,*,#540,.T.);
#745=ORIENTED_EDGE('',*,*,#544,.T.);
#746=ORIENTED_EDGE('',*,*,#549,.T.);
#747=ORIENTED_EDGE('',*,*,#550,.F.);
#748=ORIENTED_EDGE('',*,*,#551,.F.);
#749=ORIENTED_EDGE('',*,*,#552,.T.);
#750=ORIENTED_EDGE('',*,*,#553,.T.);
#751=ORIENTED_EDGE('',*,*,#554,.F.);
#752=ORIENTED_EDGE('',*,*,#549,.F.);
#753=ORIENTED_EDGE('',*,*,#555,.T.);
#754=ORIENTED_EDGE('',*,*,#547,.T.);
#755=ORIENTED_EDGE('',*,*,#556,.T.);
#756=ORIENTED_EDGE('',*,*,#557,.F.);
#757=ORIENTED_EDGE('',*,*,#558,.F.);
#758=ORIENTED_EDGE('',*,*,#546,.T.);
#759=ORIENTED_EDGE('',*,*,#559,.T.);
#760=ORIENTED_EDGE('',*,*,#560,.F.);
#761=ORIENTED_EDGE('',*,*,#556,.F.);
#762=ORIENTED_EDGE('',*,*,#545,.T.);
#763=ORIENTED_EDGE('',*,*,#561,.T.);
#764=ORIENTED_EDGE('',*,*,#562,.F.);
#765=ORIENTED_EDGE('',*,*,#559,.F.);
#766=ORIENTED_EDGE('',*,*,#548,.T.);
#767=ORIENTED_EDGE('',*,*,#558,.T.);
#768=ORIENTED_EDGE('',*,*,#563,.F.);
#769=ORIENTED_EDGE('',*,*,#561,.F.);
#770=ORIENTED_EDGE('',*,*,#551,.T.);
#771=ORIENTED_EDGE('',*,*,#564,.F.);
#772=ORIENTED_EDGE('',*,*,#565,.F.);
#773=ORIENTED_EDGE('',*,*,#566,.T.);
#774=ORIENTED_EDGE('',*,*,#565,.T.);
#775=ORIENTED_EDGE('',*,*,#567,.F.);
#776=ORIENTED_EDGE('',*,*,#553,.F.);
#777=ORIENTED_EDGE('',*,*,#568,.T.);
#778=ORIENTED_EDGE('',*,*,#554,.T.);
#779=ORIENTED_EDGE('',*,*,#567,.T.);
#780=ORIENTED_EDGE('',*,*,#564,.T.);
#781=ORIENTED_EDGE('',*,*,#550,.T.);
#782=ORIENTED_EDGE('',*,*,#562,.T.);
#783=ORIENTED_EDGE('',*,*,#563,.T.);
#784=ORIENTED_EDGE('',*,*,#557,.T.);
#785=ORIENTED_EDGE('',*,*,#560,.T.);
#786=ORIENTED_EDGE('',*,*,#555,.F.);
#787=ORIENTED_EDGE('',*,*,#552,.F.);
#788=ORIENTED_EDGE('',*,*,#566,.F.);
#789=ORIENTED_EDGE('',*,*,#568,.F.);
#790=ORIENTED_EDGE('',*,*,#542,.T.);
#791=ORIENTED_EDGE('',*,*,#569,.F.);
#792=ORIENTED_EDGE('',*,*,#570,.T.);
#793=ORIENTED_EDGE('',*,*,#571,.F.);
#794=ORIENTED_EDGE('',*,*,#572,.F.);
#795=ORIENTED_EDGE('',*,*,#573,.F.);
#796=ORIENTED_EDGE('',*,*,#574,.T.);
#797=ORIENTED_EDGE('',*,*,#575,.F.);
#798=ORIENTED_EDGE('',*,*,#570,.F.);
#799=ORIENTED_EDGE('',*,*,#576,.F.);
#800=ORIENTED_EDGE('',*,*,#577,.T.);
#801=ORIENTED_EDGE('',*,*,#578,.F.);
#802=ORIENTED_EDGE('',*,*,#574,.F.);
#803=ORIENTED_EDGE('',*,*,#579,.F.);
#804=ORIENTED_EDGE('',*,*,#572,.T.);
#805=ORIENTED_EDGE('',*,*,#580,.F.);
#806=ORIENTED_EDGE('',*,*,#577,.F.);
#807=ORIENTED_EDGE('',*,*,#581,.T.);
#808=ORIENTED_EDGE('',*,*,#582,.T.);
#809=ORIENTED_EDGE('',*,*,#583,.F.);
#810=ORIENTED_EDGE('',*,*,#584,.F.);
#811=ORIENTED_EDGE('',*,*,#585,.T.);
#812=ORIENTED_EDGE('',*,*,#584,.T.);
#813=ORIENTED_EDGE('',*,*,#586,.F.);
#814=ORIENTED_EDGE('',*,*,#587,.F.);
#815=ORIENTED_EDGE('',*,*,#588,.T.);
#816=ORIENTED_EDGE('',*,*,#587,.T.);
#817=ORIENTED_EDGE('',*,*,#589,.F.);
#818=ORIENTED_EDGE('',*,*,#590,.F.);
#819=ORIENTED_EDGE('',*,*,#591,.T.);
#820=ORIENTED_EDGE('',*,*,#590,.T.);
#821=ORIENTED_EDGE('',*,*,#592,.F.);
#822=ORIENTED_EDGE('',*,*,#582,.F.);
#823=ORIENTED_EDGE('',*,*,#592,.T.);
#824=ORIENTED_EDGE('',*,*,#589,.T.);
#825=ORIENTED_EDGE('',*,*,#586,.T.);
#826=ORIENTED_EDGE('',*,*,#583,.T.);
#827=ORIENTED_EDGE('',*,*,#571,.T.);
#828=ORIENTED_EDGE('',*,*,#575,.T.);
#829=ORIENTED_EDGE('',*,*,#578,.T.);
#830=ORIENTED_EDGE('',*,*,#580,.T.);
#831=ORIENTED_EDGE('',*,*,#591,.F.);
#832=ORIENTED_EDGE('',*,*,#581,.F.);
#833=ORIENTED_EDGE('',*,*,#585,.F.);
#834=ORIENTED_EDGE('',*,*,#588,.F.);
#835=ORIENTED_EDGE('',*,*,#569,.T.);
#836=ORIENTED_EDGE('',*,*,#579,.T.);
#837=ORIENTED_EDGE('',*,*,#576,.T.);
#838=ORIENTED_EDGE('',*,*,#573,.T.);
#839=PLANE('',#957);
#840=PLANE('',#958);
#841=PLANE('',#959);
#842=PLANE('',#960);
#843=PLANE('',#961);
#844=PLANE('',#962);
#845=PLANE('',#963);
#846=PLANE('',#964);
#847=PLANE('',#965);
#848=PLANE('',#966);
#849=PLANE('',#967);
#850=PLANE('',#968);
#851=PLANE('',#969);
#852=PLANE('',#970);
#853=PLANE('',#971);
#854=PLANE('',#972);
#855=PLANE('',#973);
#856=PLANE('',#974);
#857=PLANE('',#975);
#858=PLANE('',#976);
#859=PLANE('',#977);
#860=PLANE('',#978);
#861=PLANE('',#979);
#862=PLANE('',#980);
#863=PLANE('',#981);
#864=PLANE('',#982);
#865=PLANE('',#983);
#866=PLANE('',#984);
#867=PLANE('',#985);
#868=PLANE('',#986);
#869=PLANE('',#990);
#870=PLANE('',#991);
#871=PLANE('',#992);
#872=PLANE('',#993);
#873=PLANE('',#994);
#874=PLANE('',#995);
#875=PLANE('',#996);
#876=PLANE('',#997);
#877=PLANE('',#998);
#878=PLANE('',#999);
#879=PLANE('',#1000);
#880=PLANE('',#1001);
#881=PLANE('',#1002);
#882=PLANE('',#1003);
#883=PLANE('',#1004);
#884=PLANE('',#1005);
#885=PLANE('',#1006);
#886=PLANE('',#1007);
#887=PLANE('',#1008);
#888=PLANE('',#1009);
#889=PLANE('',#1010);
#890=ADVANCED_FACE('',(#31),#839,.T.);
#891=ADVANCED_FACE('',(#32),#840,.T.);
#892=ADVANCED_FACE('',(#33),#841,.T.);
#893=ADVANCED_FACE('',(#34),#842,.T.);
#894=ADVANCED_FACE('',(#35),#843,.T.);
#895=ADVANCED_FACE('',(#36),#844,.T.);
#896=ADVANCED_FACE('',(#37),#845,.T.);
#897=ADVANCED_FACE('',(#38),#846,.T.);
#898=ADVANCED_FACE('',(#39),#847,.T.);
#899=ADVANCED_FACE('',(#40),#848,.T.);
#900=ADVANCED_FACE('',(#41),#849,.T.);
#901=ADVANCED_FACE('',(#42),#850,.T.);
#902=ADVANCED_FACE('',(#43),#851,.T.);
#903=ADVANCED_FACE('',(#44),#852,.T.);
#904=ADVANCED_FACE('',(#45),#853,.T.);
#905=ADVANCED_FACE('',(#46),#854,.T.);
#906=ADVANCED_FACE('',(#47),#855,.T.);
#907=ADVANCED_FACE('',(#48),#856,.T.);
#908=ADVANCED_FACE('',(#49),#857,.T.);
#909=ADVANCED_FACE('',(#50),#858,.T.);
#910=ADVANCED_FACE('',(#51),#859,.T.);
#911=ADVANCED_FACE('',(#52),#860,.T.);
#912=ADVANCED_FACE('',(#53),#861,.T.);
#913=ADVANCED_FACE('',(#54),#862,.T.);
#914=ADVANCED_FACE('',(#55),#863,.T.);
#915=ADVANCED_FACE('',(#56),#864,.T.);
#916=ADVANCED_FACE('',(#57),#865,.T.);
#917=ADVANCED_FACE('',(#58),#866,.T.);
#918=ADVANCED_FACE('',(#59),#867,.T.);
#919=ADVANCED_FACE('',(#60),#868,.T.);
#920=ADVANCED_FACE('',(#61),#30,.F.);
#921=ADVANCED_FACE('',(#62,#17,#18,#19,#20,#21,#22,#23),#869,.T.);
#922=ADVANCED_FACE('',(#63),#870,.T.);
#923=ADVANCED_FACE('',(#64),#871,.T.);
#924=ADVANCED_FACE('',(#65),#872,.F.);
#925=ADVANCED_FACE('',(#66),#873,.F.);
#926=ADVANCED_FACE('',(#67),#874,.F.);
#927=ADVANCED_FACE('',(#68),#875,.F.);
#928=ADVANCED_FACE('',(#69),#876,.T.);
#929=ADVANCED_FACE('',(#70),#877,.T.);
#930=ADVANCED_FACE('',(#71,#24),#878,.T.);
#931=ADVANCED_FACE('',(#72,#25),#879,.F.);
#932=ADVANCED_FACE('',(#73),#880,.F.);
#933=ADVANCED_FACE('',(#74),#881,.F.);
#934=ADVANCED_FACE('',(#75),#882,.F.);
#935=ADVANCED_FACE('',(#76),#883,.F.);
#936=ADVANCED_FACE('',(#77),#884,.T.);
#937=ADVANCED_FACE('',(#78),#885,.T.);
#938=ADVANCED_FACE('',(#79),#886,.T.);
#939=ADVANCED_FACE('',(#80),#887,.T.);
#940=ADVANCED_FACE('',(#81,#26),#888,.T.);
#941=ADVANCED_FACE('',(#82,#27),#889,.F.);
#942=CLOSED_SHELL('',(#890,#891,#892,#893,#894,#895,#896,#897,#898,#899,
#900,#901,#902,#903,#904,#905,#906,#907,#908,#909,#910,#911,#912,#913,#914,
#915,#916,#917,#918,#919,#920,#921,#922,#923,#924,#925,#926,#927,#928,#929,
#930,#931));
#943=CLOSED_SHELL('',(#932,#933,#934,#935,#936,#937,#938,#939,#940,#941));
#944=DERIVED_UNIT_ELEMENT(#946,1.);
#945=DERIVED_UNIT_ELEMENT(#1505,-3.);
#946=(
MASS_UNIT()
NAMED_UNIT(*)
SI_UNIT(.KILO.,.GRAM.)
);
#947=DERIVED_UNIT((#944,#945));
#948=MEASURE_REPRESENTATION_ITEM('density measure',
POSITIVE_RATIO_MEASURE(7850.),#947);
#949=PROPERTY_DEFINITION_REPRESENTATION(#954,#951);
#950=PROPERTY_DEFINITION_REPRESENTATION(#955,#952);
#951=REPRESENTATION('material name',(#953),#1502);
#952=REPRESENTATION('density',(#948),#1502);
#953=DESCRIPTIVE_REPRESENTATION_ITEM('\X2\92FC\X0\','\X2\92FC\X0\');
#954=PROPERTY_DEFINITION('material property','material name',#1512);
#955=PROPERTY_DEFINITION('material property','density of part',#1512);
#956=AXIS2_PLACEMENT_3D('',#1242,#1011,#1012);
#957=AXIS2_PLACEMENT_3D('',#1243,#1013,#1014);
#958=AXIS2_PLACEMENT_3D('',#1252,#1019,#1020);
#959=AXIS2_PLACEMENT_3D('',#1258,#1024,#1025);
#960=AXIS2_PLACEMENT_3D('',#1264,#1029,#1030);
#961=AXIS2_PLACEMENT_3D('',#1267,#1033,#1034);
#962=AXIS2_PLACEMENT_3D('',#1268,#1035,#1036);
#963=AXIS2_PLACEMENT_3D('',#1277,#1041,#1042);
#964=AXIS2_PLACEMENT_3D('',#1283,#1046,#1047);
#965=AXIS2_PLACEMENT_3D('',#1289,#1051,#1052);
#966=AXIS2_PLACEMENT_3D('',#1292,#1055,#1056);
#967=AXIS2_PLACEMENT_3D('',#1293,#1057,#1058);
#968=AXIS2_PLACEMENT_3D('',#1302,#1063,#1064);
#969=AXIS2_PLACEMENT_3D('',#1308,#1068,#1069);
#970=AXIS2_PLACEMENT_3D('',#1314,#1073,#1074);
#971=AXIS2_PLACEMENT_3D('',#1317,#1077,#1078);
#972=AXIS2_PLACEMENT_3D('',#1318,#1079,#1080);
#973=AXIS2_PLACEMENT_3D('',#1327,#1085,#1086);
#974=AXIS2_PLACEMENT_3D('',#1333,#1090,#1091);
#975=AXIS2_PLACEMENT_3D('',#1339,#1095,#1096);
#976=AXIS2_PLACEMENT_3D('',#1342,#1099,#1100);
#977=AXIS2_PLACEMENT_3D('',#1343,#1101,#1102);
#978=AXIS2_PLACEMENT_3D('',#1352,#1107,#1108);
#979=AXIS2_PLACEMENT_3D('',#1358,#1112,#1113);
#980=AXIS2_PLACEMENT_3D('',#1364,#1117,#1118);
#981=AXIS2_PLACEMENT_3D('',#1367,#1121,#1122);
#982=AXIS2_PLACEMENT_3D('',#1368,#1123,#1124);
#983=AXIS2_PLACEMENT_3D('',#1377,#1129,#1130);
#984=AXIS2_PLACEMENT_3D('',#1383,#1134,#1135);
#985=AXIS2_PLACEMENT_3D('',#1389,#1139,#1140);
#986=AXIS2_PLACEMENT_3D('',#1392,#1143,#1144);
#987=AXIS2_PLACEMENT_3D('',#1393,#1145,#1146);
#988=AXIS2_PLACEMENT_3D('',#1395,#1147,#1148);
#989=AXIS2_PLACEMENT_3D('',#1398,#1150,#1151);
#990=AXIS2_PLACEMENT_3D('',#1399,#1152,#1153);
#991=AXIS2_PLACEMENT_3D('',#1408,#1158,#1159);
#992=AXIS2_PLACEMENT_3D('',#1417,#1164,#1165);
#993=AXIS2_PLACEMENT_3D('',#1423,#1169,#1170);
#994=AXIS2_PLACEMENT_3D('',#1429,#1174,#1175);
#995=AXIS2_PLACEMENT_3D('',#1433,#1178,#1179);
#996=AXIS2_PLACEMENT_3D('',#1437,#1182,#1183);
#997=AXIS2_PLACEMENT_3D('',#1439,#1185,#1186);
#998=AXIS2_PLACEMENT_3D('',#1445,#1190,#1191);
#999=AXIS2_PLACEMENT_3D('',#1448,#1194,#1195);
#1000=AXIS2_PLACEMENT_3D('',#1449,#1196,#1197);
#1001=AXIS2_PLACEMENT_3D('',#1450,#1198,#1199);
#1002=AXIS2_PLACEMENT_3D('',#1459,#1204,#1205);
#1003=AXIS2_PLACEMENT_3D('',#1465,#1209,#1210);
#1004=AXIS2_PLACEMENT_3D('',#1471,#1214,#1215);
#1005=AXIS2_PLACEMENT_3D('',#1474,#1218,#1219);
#1006=AXIS2_PLACEMENT_3D('',#1483,#1224,#1225);
#1007=AXIS2_PLACEMENT_3D('',#1489,#1229,#1230);
#1008=AXIS2_PLACEMENT_3D('',#1495,#1234,#1235);
#1009=AXIS2_PLACEMENT_3D('',#1498,#1238,#1239);
#1010=AXIS2_PLACEMENT_3D('',#1499,#1240,#1241);
#1011=DIRECTION('axis',(0.,0.,1.));
#1012=DIRECTION('refdir',(1.,0.,0.));
#1013=DIRECTION('center_axis',(1.,0.,0.));
#1014=DIRECTION('ref_axis',(0.,1.,0.));
#1015=DIRECTION('',(0.,-1.,0.));
#1016=DIRECTION('',(0.,0.,1.));
#1017=DIRECTION('',(0.,1.,0.));
#1018=DIRECTION('',(0.,0.,1.));
#1019=DIRECTION('center_axis',(0.,1.,0.));
#1020=DIRECTION('ref_axis',(-1.,0.,0.));
#1021=DIRECTION('',(1.,0.,0.));
#1022=DIRECTION('',(0.,0.,1.));
#1023=DIRECTION('',(-1.,0.,0.));
#1024=DIRECTION('center_axis',(0.,-1.,0.));
#1025=DIRECTION('ref_axis',(1.,0.,0.));
#1026=DIRECTION('',(-1.,0.,0.));
#1027=DIRECTION('',(1.,0.,0.));
#1028=DIRECTION('',(0.,0.,1.));
#1029=DIRECTION('center_axis',(-1.,0.,0.));
#1030=DIRECTION('ref_axis',(0.,-1.,0.));
#1031=DIRECTION('',(0.,1.,0.));
#1032=DIRECTION('',(0.,-1.,0.));
#1033=DIRECTION('center_axis',(0.,0.,1.));
#1034=DIRECTION('ref_axis',(1.,0.,0.));
#1035=DIRECTION('center_axis',(1.,0.,0.));
#1036=DIRECTION('ref_axis',(0.,1.,0.));
#1037=DIRECTION('',(0.,-1.,0.));
#1038=DIRECTION('',(0.,0.,1.));
#1039=DIRECTION('',(0.,1.,0.));
#1040=DIRECTION('',(0.,0.,1.));
#1041=DIRECTION('center_axis',(0.,1.,0.));
#1042=DIRECTION('ref_axis',(-1.,0.,0.));
#1043=DIRECTION('',(1.,0.,0.));
#1044=DIRECTION('',(0.,0.,1.));
#1045=DIRECTION('',(-1.,0.,0.));
#1046=DIRECTION('center_axis',(0.,-1.,0.));
#1047=DIRECTION('ref_axis',(1.,0.,0.));
#1048=DIRECTION('',(-1.,0.,0.));
#1049=DIRECTION('',(1.,0.,0.));
#1050=DIRECTION('',(0.,0.,1.));
#1051=DIRECTION('center_axis',(-1.,0.,0.));
#1052=DIRECTION('ref_axis',(0.,-1.,0.));
#1053=DIRECTION('',(0.,1.,0.));
#1054=DIRECTION('',(0.,-1.,0.));
#1055=DIRECTION('center_axis',(0.,0.,1.));
#1056=DIRECTION('ref_axis',(1.,0.,0.));
#1057=DIRECTION('center_axis',(1.,0.,0.));
#1058=DIRECTION('ref_axis',(0.,1.,0.));
#1059=DIRECTION('',(0.,-1.,0.));
#1060=DIRECTION('',(0.,0.,1.));
#1061=DIRECTION('',(0.,1.,0.));
#1062=DIRECTION('',(0.,0.,1.));
#1063=DIRECTION('center_axis',(0.,1.,0.));
#1064=DIRECTION('ref_axis',(-1.,0.,0.));
#1065=DIRECTION('',(1.,0.,0.));
#1066=DIRECTION('',(0.,0.,1.));
#1067=DIRECTION('',(-1.,0.,0.));
#1068=DIRECTION('center_axis',(0.,-1.,0.));
#1069=DIRECTION('ref_axis',(1.,0.,0.));
#1070=DIRECTION('',(-1.,0.,0.));
#1071=DIRECTION('',(1.,0.,0.));
#1072=DIRECTION('',(0.,0.,1.));
#1073=DIRECTION('center_axis',(-1.,0.,0.));
#1074=DIRECTION('ref_axis',(0.,-1.,0.));
#1075=DIRECTION('',(0.,1.,0.));
#1076=DIRECTION('',(0.,-1.,0.));
#1077=DIRECTION('center_axis',(0.,0.,1.));
#1078=DIRECTION('ref_axis',(1.,0.,0.));
#1079=DIRECTION('center_axis',(1.,0.,0.));
#1080=DIRECTION('ref_axis',(0.,1.,0.));
#1081=DIRECTION('',(0.,-1.,0.));
#1082=DIRECTION('',(0.,0.,1.));
#1083=DIRECTION('',(0.,1.,0.));
#1084=DIRECTION('',(0.,0.,1.));
#1085=DIRECTION('center_axis',(0.,1.,0.));
#1086=DIRECTION('ref_axis',(-1.,0.,0.));
#1087=DIRECTION('',(1.,0.,0.));
#1088=DIRECTION('',(0.,0.,1.));
#1089=DIRECTION('',(-1.,0.,0.));
#1090=DIRECTION('center_axis',(0.,-1.,0.));
#1091=DIRECTION('ref_axis',(1.,0.,0.));
#1092=DIRECTION('',(-1.,0.,0.));
#1093=DIRECTION('',(1.,0.,0.));
#1094=DIRECTION('',(0.,0.,1.));
#1095=DIRECTION('center_axis',(-1.,0.,0.));
#1096=DIRECTION('ref_axis',(0.,-1.,0.));
#1097=DIRECTION('',(0.,1.,0.));
#1098=DIRECTION('',(0.,-1.,0.));
#1099=DIRECTION('center_axis',(0.,0.,1.));
#1100=DIRECTION('ref_axis',(1.,0.,0.));
#1101=DIRECTION('center_axis',(1.,0.,0.));
#1102=DIRECTION('ref_axis',(0.,1.,0.));
#1103=DIRECTION('',(0.,-1.,0.));
#1104=DIRECTION('',(0.,0.,1.));
#1105=DIRECTION('',(0.,1.,0.));
#1106=DIRECTION('',(0.,0.,1.));
#1107=DIRECTION('center_axis',(0.,1.,0.));
#1108=DIRECTION('ref_axis',(-1.,0.,0.));
#1109=DIRECTION('',(1.,0.,0.));
#1110=DIRECTION('',(0.,0.,1.));
#1111=DIRECTION('',(-1.,0.,0.));
#1112=DIRECTION('center_axis',(0.,-1.,0.));
#1113=DIRECTION('ref_axis',(1.,0.,0.));
#1114=DIRECTION('',(-1.,0.,0.));
#1115=DIRECTION('',(1.,0.,0.));
#1116=DIRECTION('',(0.,0.,1.));
#1117=DIRECTION('center_axis',(-1.,0.,0.));
#1118=DIRECTION('ref_axis',(0.,-1.,0.));
#1119=DIRECTION('',(0.,1.,0.));
#1120=DIRECTION('',(0.,-1.,0.));
#1121=DIRECTION('center_axis',(0.,0.,1.));
#1122=DIRECTION('ref_axis',(1.,0.,0.));
#1123=DIRECTION('center_axis',(1.,0.,0.));
#1124=DIRECTION('ref_axis',(0.,1.,0.));
#1125=DIRECTION('',(0.,-1.,0.));
#1126=DIRECTION('',(0.,0.,1.));
#1127=DIRECTION('',(0.,1.,0.));
#1128=DIRECTION('',(0.,0.,1.));
#1129=DIRECTION('center_axis',(0.,1.,0.));
#1130=DIRECTION('ref_axis',(-1.,0.,0.));
#1131=DIRECTION('',(1.,0.,0.));
#1132=DIRECTION('',(0.,0.,1.));
#1133=DIRECTION('',(-1.,0.,0.));
#1134=DIRECTION('center_axis',(0.,-1.,0.));
#1135=DIRECTION('ref_axis',(1.,0.,0.));
#1136=DIRECTION('',(-1.,0.,0.));
#1137=DIRECTION('',(1.,0.,0.));
#1138=DIRECTION('',(0.,0.,1.));
#1139=DIRECTION('center_axis',(-1.,0.,0.));
#1140=DIRECTION('ref_axis',(0.,-1.,0.));
#1141=DIRECTION('',(0.,1.,0.));
#1142=DIRECTION('',(0.,-1.,0.));
#1143=DIRECTION('center_axis',(0.,0.,1.));
#1144=DIRECTION('ref_axis',(1.,0.,0.));
#1145=DIRECTION('center_axis',(0.,0.,1.));
#1146=DIRECTION('ref_axis',(1.,0.,0.));
#1147=DIRECTION('center_axis',(0.,0.,1.));
#1148=DIRECTION('ref_axis',(1.,0.,0.));
#1149=DIRECTION('',(0.,0.,1.));
#1150=DIRECTION('center_axis',(0.,0.,-1.));
#1151=DIRECTION('ref_axis',(1.,0.,0.));
#1152=DIRECTION('center_axis',(0.,0.,1.));
#1153=DIRECTION('ref_axis',(1.,0.,0.));
#1154=DIRECTION('',(1.,0.,0.));
#1155=DIRECTION('',(0.,1.,0.));
#1156=DIRECTION('',(-1.,0.,0.));
#1157=DIRECTION('',(0.,-1.,0.));
#1158=DIRECTION('center_axis',(0.,1.,0.));
#1159=DIRECTION('ref_axis',(-1.,0.,0.));
#1160=DIRECTION('',(0.,0.,1.));
#1161=DIRECTION('',(-1.,0.,0.));
#1162=DIRECTION('',(0.,0.,1.));
#1163=DIRECTION('',(-1.,0.,0.));
#1164=DIRECTION('center_axis',(-1.,0.,0.));
#1165=DIRECTION('ref_axis',(0.,-1.,0.));
#1166=DIRECTION('',(0.,0.,1.));
#1167=DIRECTION('',(0.,-1.,0.));
#1168=DIRECTION('',(0.,-1.,0.));
#1169=DIRECTION('center_axis',(0.,-1.,0.));
#1170=DIRECTION('ref_axis',(1.,0.,0.));
#1171=DIRECTION('',(0.,0.,1.));
#1172=DIRECTION('',(-1.,0.,0.));
#1173=DIRECTION('',(0.,0.,1.));
#1174=DIRECTION('center_axis',(-1.,0.,0.));
#1175=DIRECTION('ref_axis',(0.,-1.,0.));
#1176=DIRECTION('',(0.,0.,1.));
#1177=DIRECTION('',(0.,1.,0.));
#1178=DIRECTION('center_axis',(0.,1.,0.));
#1179=DIRECTION('ref_axis',(-1.,0.,0.));
#1180=DIRECTION('',(0.,0.,1.));
#1181=DIRECTION('',(1.,0.,0.));
#1182=DIRECTION('center_axis',(1.,0.,0.));
#1183=DIRECTION('ref_axis',(0.,1.,0.));
#1184=DIRECTION('',(0.,-1.,0.));
#1185=DIRECTION('center_axis',(1.,0.,0.));
#1186=DIRECTION('ref_axis',(0.,1.,0.));
#1187=DIRECTION('',(0.,1.,0.));
#1188=DIRECTION('',(0.,0.,1.));
#1189=DIRECTION('',(0.,1.,0.));
#1190=DIRECTION('center_axis',(0.,-1.,0.));
#1191=DIRECTION('ref_axis',(1.,0.,0.));
#1192=DIRECTION('',(1.,0.,0.));
#1193=DIRECTION('',(1.,0.,0.));
#1194=DIRECTION('center_axis',(0.,0.,1.));
#1195=DIRECTION('ref_axis',(1.,0.,0.));
#1196=DIRECTION('center_axis',(0.,0.,1.));
#1197=DIRECTION('ref_axis',(1.,0.,0.));
#1198=DIRECTION('center_axis',(0.,1.,0.));
#1199=DIRECTION('ref_axis',(-1.,0.,0.));
#1200=DIRECTION('',(-1.,0.,0.));
#1201=DIRECTION('',(0.,0.,1.));
#1202=DIRECTION('',(1.,0.,0.));
#1203=DIRECTION('',(0.,0.,1.));
#1204=DIRECTION('center_axis',(1.,0.,0.));
#1205=DIRECTION('ref_axis',(0.,1.,0.));
#1206=DIRECTION('',(0.,1.,0.));
#1207=DIRECTION('',(0.,0.,1.));
#1208=DIRECTION('',(0.,-1.,0.));
#1209=DIRECTION('center_axis',(0.,-1.,0.));
#1210=DIRECTION('ref_axis',(1.,0.,0.));
#1211=DIRECTION('',(1.,0.,0.));
#1212=DIRECTION('',(0.,0.,1.));
#1213=DIRECTION('',(-1.,0.,0.));
#1214=DIRECTION('center_axis',(-1.,0.,0.));
#1215=DIRECTION('ref_axis',(0.,-1.,0.));
#1216=DIRECTION('',(0.,-1.,0.));
#1217=DIRECTION('',(0.,1.,0.));
#1218=DIRECTION('center_axis',(0.,1.,0.));
#1219=DIRECTION('ref_axis',(-1.,0.,0.));
#1220=DIRECTION('',(-1.,0.,0.));
#1221=DIRECTION('',(0.,0.,1.));
#1222=DIRECTION('',(-1.,0.,0.));
#1223=DIRECTION('',(0.,0.,1.));
#1224=DIRECTION('center_axis',(1.,0.,0.));
#1225=DIRECTION('ref_axis',(0.,1.,0.));
#1226=DIRECTION('',(0.,1.,0.));
#1227=DIRECTION('',(0.,1.,0.));
#1228=DIRECTION('',(0.,0.,1.));
#1229=DIRECTION('center_axis',(0.,-1.,0.));
#1230=DIRECTION('ref_axis',(1.,0.,0.));
#1231=DIRECTION('',(1.,0.,0.));
#1232=DIRECTION('',(1.,0.,0.));
#1233=DIRECTION('',(0.,0.,1.));
#1234=DIRECTION('center_axis',(-1.,0.,0.));
#1235=DIRECTION('ref_axis',(0.,-1.,0.));
#1236=DIRECTION('',(0.,-1.,0.));
#1237=DIRECTION('',(0.,-1.,0.));
#1238=DIRECTION('center_axis',(0.,0.,1.));
#1239=DIRECTION('ref_axis',(1.,0.,0.));
#1240=DIRECTION('center_axis',(0.,0.,1.));
#1241=DIRECTION('ref_axis',(1.,0.,0.));
#1242=CARTESIAN_POINT('',(0.,0.,0.));
#1243=CARTESIAN_POINT('Origin',(86.4065,-130.881,0.));
#1244=CARTESIAN_POINT('',(86.4065,-127.881,2.5));
#1245=CARTESIAN_POINT('',(86.4065,-130.881,2.5));
#1246=CARTESIAN_POINT('',(86.4065,-103.277502720332,2.5));
#1247=CARTESIAN_POINT('',(86.4065,-127.881,8.));
#1248=CARTESIAN_POINT('',(86.4065,-127.881,0.));
#1249=CARTESIAN_POINT('',(86.4065,-130.881,8.));
#1250=CARTESIAN_POINT('',(86.4065,-130.881,8.));
#1251=CARTESIAN_POINT('',(86.4065,-130.881,0.));
#1252=CARTESIAN_POINT('Origin',(86.4065,-127.881,0.));
#1253=CARTESIAN_POINT('',(72.4065,-127.881,2.5));
#1254=CARTESIAN_POINT('',(104.2915,-127.881,2.5));
#1255=CARTESIAN_POINT('',(72.4065,-127.881,8.));
#1256=CARTESIAN_POINT('',(72.4065,-127.881,0.));
#1257=CARTESIAN_POINT('',(86.4065,-127.881,8.));
#1258=CARTESIAN_POINT('Origin',(72.4065,-130.881,0.));
#1259=CARTESIAN_POINT('',(72.4065,-130.881,2.5));
#1260=CARTESIAN_POINT('',(97.2915,-130.881,2.5));
#1261=CARTESIAN_POINT('',(72.4065,-130.881,8.));
#1262=CARTESIAN_POINT('',(72.4065,-130.881,8.));
#1263=CARTESIAN_POINT('',(72.4065,-130.881,0.));
#1264=CARTESIAN_POINT('Origin',(72.4065,-127.881,0.));
#1265=CARTESIAN_POINT('',(72.4065,-101.777502720332,2.5));
#1266=CARTESIAN_POINT('',(72.4065,-127.881,8.));
#1267=CARTESIAN_POINT('Origin',(79.4065,-129.381,8.));
#1268=CARTESIAN_POINT('Origin',(193.595,-103.,0.));
#1269=CARTESIAN_POINT('',(193.595,-89.,2.5));
#1270=CARTESIAN_POINT('',(193.595,-103.,2.5));
#1271=CARTESIAN_POINT('',(193.595,-89.3370027203319,2.5));
#1272=CARTESIAN_POINT('',(193.595,-89.,8.));
#1273=CARTESIAN_POINT('',(193.595,-89.,0.));
#1274=CARTESIAN_POINT('',(193.595,-103.,8.));
#1275=CARTESIAN_POINT('',(193.595,-103.,8.));
#1276=CARTESIAN_POINT('',(193.595,-103.,0.));
#1277=CARTESIAN_POINT('Origin',(193.595,-89.,0.));
#1278=CARTESIAN_POINT('',(190.595,-89.,2.5));
#1279=CARTESIAN_POINT('',(157.88575,-89.,2.5));
#1280=CARTESIAN_POINT('',(190.595,-89.,8.));
#1281=CARTESIAN_POINT('',(190.595,-89.,0.));
#1282=CARTESIAN_POINT('',(193.595,-89.,8.));
#1283=CARTESIAN_POINT('Origin',(190.595,-103.,0.));
#1284=CARTESIAN_POINT('',(190.595,-103.,2.5));
#1285=CARTESIAN_POINT('',(156.38575,-103.,2.5));
#1286=CARTESIAN_POINT('',(190.595,-103.,8.));
#1287=CARTESIAN_POINT('',(190.595,-103.,8.));
#1288=CARTESIAN_POINT('',(190.595,-103.,0.));
#1289=CARTESIAN_POINT('Origin',(190.595,-89.,0.));
#1290=CARTESIAN_POINT('',(190.595,-82.3370027203319,2.5));
#1291=CARTESIAN_POINT('',(190.595,-89.,8.));
#1292=CARTESIAN_POINT('Origin',(192.095,-96.,8.));
#1293=CARTESIAN_POINT('Origin',(53.758,-87.,0.));
#1294=CARTESIAN_POINT('',(53.758,-73.,2.5));
#1295=CARTESIAN_POINT('',(53.758,-87.,2.5));
#1296=CARTESIAN_POINT('',(53.758,-81.3370027203319,2.5));
#1297=CARTESIAN_POINT('',(53.758,-73.,8.));
#1298=CARTESIAN_POINT('',(53.758,-73.,0.));
#1299=CARTESIAN_POINT('',(53.758,-87.,8.));
#1300=CARTESIAN_POINT('',(53.758,-87.,8.));
#1301=CARTESIAN_POINT('',(53.758,-87.,0.));
#1302=CARTESIAN_POINT('Origin',(53.758,-73.,0.));
#1303=CARTESIAN_POINT('',(50.758,-73.,2.5));
#1304=CARTESIAN_POINT('',(87.96725,-73.,2.5));
#1305=CARTESIAN_POINT('',(50.758,-73.,8.));
#1306=CARTESIAN_POINT('',(50.758,-73.,0.));
#1307=CARTESIAN_POINT('',(53.758,-73.,8.));
#1308=CARTESIAN_POINT('Origin',(50.758,-87.,0.));
#1309=CARTESIAN_POINT('',(50.758,-87.,2.5));
#1310=CARTESIAN_POINT('',(86.46725,-87.,2.5));
#1311=CARTESIAN_POINT('',(50.758,-87.,8.));
#1312=CARTESIAN_POINT('',(50.758,-87.,8.));
#1313=CARTESIAN_POINT('',(50.758,-87.,0.));
#1314=CARTESIAN_POINT('Origin',(50.758,-73.,0.));
#1315=CARTESIAN_POINT('',(50.758,-74.3370027203319,2.5));
#1316=CARTESIAN_POINT('',(50.758,-73.,8.));
#1317=CARTESIAN_POINT('Origin',(52.258,-80.,8.));
#1318=CARTESIAN_POINT('Origin',(193.595,-81.,0.));
#1319=CARTESIAN_POINT('',(193.595,-67.,2.5));
#1320=CARTESIAN_POINT('',(193.595,-81.,2.5));
#1321=CARTESIAN_POINT('',(193.595,-78.3370027203319,2.5));
#1322=CARTESIAN_POINT('',(193.595,-67.,8.));
#1323=CARTESIAN_POINT('',(193.595,-67.,0.));
#1324=CARTESIAN_POINT('',(193.595,-81.,8.));
#1325=CARTESIAN_POINT('',(193.595,-81.,8.));
#1326=CARTESIAN_POINT('',(193.595,-81.,0.));
#1327=CARTESIAN_POINT('Origin',(193.595,-67.,0.));
#1328=CARTESIAN_POINT('',(190.595,-67.,2.5));
#1329=CARTESIAN_POINT('',(157.88575,-67.,2.5));
#1330=CARTESIAN_POINT('',(190.595,-67.,8.));
#1331=CARTESIAN_POINT('',(190.595,-67.,0.));
#1332=CARTESIAN_POINT('',(193.595,-67.,8.));
#1333=CARTESIAN_POINT('Origin',(190.595,-81.,0.));
#1334=CARTESIAN_POINT('',(190.595,-81.,2.5));
#1335=CARTESIAN_POINT('',(156.38575,-81.,2.5));
#1336=CARTESIAN_POINT('',(190.595,-81.,8.));
#1337=CARTESIAN_POINT('',(190.595,-81.,8.));
#1338=CARTESIAN_POINT('',(190.595,-81.,0.));
#1339=CARTESIAN_POINT('Origin',(190.595,-67.,0.));
#1340=CARTESIAN_POINT('',(190.595,-71.3370027203319,2.5));
#1341=CARTESIAN_POINT('',(190.595,-67.,8.));
#1342=CARTESIAN_POINT('Origin',(192.095,-74.,8.));
#1343=CARTESIAN_POINT('Origin',(110.87,-20.9075,0.));
#1344=CARTESIAN_POINT('',(110.87,-17.9075,2.5));
#1345=CARTESIAN_POINT('',(110.87,-20.9075,2.5));
#1346=CARTESIAN_POINT('',(110.87,-48.2907527203319,2.5));
#1347=CARTESIAN_POINT('',(110.87,-17.9075,8.));
#1348=CARTESIAN_POINT('',(110.87,-17.9075,0.));
#1349=CARTESIAN_POINT('',(110.87,-20.9075,8.));
#1350=CARTESIAN_POINT('',(110.87,-20.9075,8.));
#1351=CARTESIAN_POINT('',(110.87,-20.9075,0.));
#1352=CARTESIAN_POINT('Origin',(110.87,-17.9075,0.));
#1353=CARTESIAN_POINT('',(96.87,-17.9075,2.5));
#1354=CARTESIAN_POINT('',(116.52325,-17.9075,2.5));
#1355=CARTESIAN_POINT('',(96.87,-17.9075,8.));
#1356=CARTESIAN_POINT('',(96.87,-17.9075,0.));
#1357=CARTESIAN_POINT('',(110.87,-17.9075,8.));
#1358=CARTESIAN_POINT('Origin',(96.87,-20.9075,0.));
#1359=CARTESIAN_POINT('',(96.87,-20.9075,2.5));
#1360=CARTESIAN_POINT('',(109.52325,-20.9075,2.5));
#1361=CARTESIAN_POINT('',(96.87,-20.9075,8.));
#1362=CARTESIAN_POINT('',(96.87,-20.9075,8.));
#1363=CARTESIAN_POINT('',(96.87,-20.9075,0.));
#1364=CARTESIAN_POINT('Origin',(96.87,-17.9075,0.));
#1365=CARTESIAN_POINT('',(96.87,-46.7907527203319,2.5));
#1366=CARTESIAN_POINT('',(96.87,-17.9075,8.));
#1367=CARTESIAN_POINT('Origin',(103.87,-19.4075,8.));
#1368=CARTESIAN_POINT('Origin',(178.,-27.575,0.));
#1369=CARTESIAN_POINT('',(178.,-24.575,2.5));
#1370=CARTESIAN_POINT('',(178.,-27.575,2.5));
#1371=CARTESIAN_POINT('',(178.,-51.6245027203319,2.5));
#1372=CARTESIAN_POINT('',(178.,-24.575,8.));
#1373=CARTESIAN_POINT('',(178.,-24.575,0.));
#1374=CARTESIAN_POINT('',(178.,-27.575,8.));
#1375=CARTESIAN_POINT('',(178.,-27.575,8.));
#1376=CARTESIAN_POINT('',(178.,-27.575,0.));
#1377=CARTESIAN_POINT('Origin',(178.,-24.575,0.));
#1378=CARTESIAN_POINT('',(164.,-24.575,2.5));
#1379=CARTESIAN_POINT('',(150.08825,-24.575,2.5));
#1380=CARTESIAN_POINT('',(164.,-24.575,8.));
#1381=CARTESIAN_POINT('',(164.,-24.575,0.));
#1382=CARTESIAN_POINT('',(178.,-24.575,8.));
#1383=CARTESIAN_POINT('Origin',(164.,-27.575,0.));
#1384=CARTESIAN_POINT('',(164.,-27.575,2.5));
#1385=CARTESIAN_POINT('',(143.08825,-27.575,2.5));
#1386=CARTESIAN_POINT('',(164.,-27.575,8.));
#1387=CARTESIAN_POINT('',(164.,-27.575,8.));
#1388=CARTESIAN_POINT('',(164.,-27.575,0.));
#1389=CARTESIAN_POINT('Origin',(164.,-24.575,0.));
#1390=CARTESIAN_POINT('',(164.,-50.1245027203319,2.5));
#1391=CARTESIAN_POINT('',(164.,-24.575,8.));
#1392=CARTESIAN_POINT('Origin',(171.,-26.075,8.));
#1393=CARTESIAN_POINT('Origin',(160.995,-114.535,0.));
#1394=CARTESIAN_POINT('',(142.495,-114.535,0.));
#1395=CARTESIAN_POINT('Origin',(160.995,-114.535,0.));
#1396=CARTESIAN_POINT('',(142.495,-114.535,2.5));
#1397=CARTESIAN_POINT('',(142.495,-114.535,0.));
#1398=CARTESIAN_POINT('Origin',(160.995,-114.535,2.5));
#1399=CARTESIAN_POINT('Origin',(122.1765,-75.6740054406639,2.5));
#1400=CARTESIAN_POINT('',(48.748,-15.8975,2.5));
#1401=CARTESIAN_POINT('',(195.605,-15.8975,2.5));
#1402=CARTESIAN_POINT('',(158.89075,-15.8975,2.5));
#1403=CARTESIAN_POINT('',(48.748,-135.450510881328,2.5));
#1404=CARTESIAN_POINT('',(48.748,-45.7857527203319,2.5));
#1405=CARTESIAN_POINT('',(195.605,-135.450510881328,2.5));
#1406=CARTESIAN_POINT('',(85.46225,-135.450510881328,2.5));
#1407=CARTESIAN_POINT('',(195.605,-105.562258160996,2.5));
#1408=CARTESIAN_POINT('Origin',(198.605,-12.8975,0.));
#1409=CARTESIAN_POINT('',(45.748,-12.8975,0.));
#1410=CARTESIAN_POINT('',(45.748,-12.8975,8.));
#1411=CARTESIAN_POINT('',(45.748,-12.8975,0.));
#1412=CARTESIAN_POINT('',(198.605,-12.8975,8.));
#1413=CARTESIAN_POINT('',(198.605,-12.8975,8.));
#1414=CARTESIAN_POINT('',(198.605,-12.8975,0.));
#1415=CARTESIAN_POINT('',(198.605,-12.8975,0.));
#1416=CARTESIAN_POINT('',(198.605,-12.8975,0.));
#1417=CARTESIAN_POINT('Origin',(45.748,-12.8975,0.));
#1418=CARTESIAN_POINT('',(45.748,-138.450510881328,0.));
#1419=CARTESIAN_POINT('',(45.748,-138.450510881328,8.));
#1420=CARTESIAN_POINT('',(45.748,-138.450510881328,0.));
#1421=CARTESIAN_POINT('',(45.748,-12.8975,8.));
#1422=CARTESIAN_POINT('',(45.748,-12.8975,0.));
#1423=CARTESIAN_POINT('Origin',(48.748,-135.450510881328,0.));
#1424=CARTESIAN_POINT('',(48.748,-135.450510881328,8.));
#1425=CARTESIAN_POINT('',(48.748,-135.450510881328,0.));
#1426=CARTESIAN_POINT('',(195.605,-135.450510881328,8.));
#1427=CARTESIAN_POINT('',(85.46225,-135.450510881328,8.));
#1428=CARTESIAN_POINT('',(195.605,-135.450510881328,0.));
#1429=CARTESIAN_POINT('Origin',(48.748,-15.8975,0.));
#1430=CARTESIAN_POINT('',(48.748,-15.8975,8.));
#1431=CARTESIAN_POINT('',(48.748,-15.8975,0.));
#1432=CARTESIAN_POINT('',(48.748,-45.7857527203319,8.));
#1433=CARTESIAN_POINT('Origin',(195.605,-15.8975,0.));
#1434=CARTESIAN_POINT('',(195.605,-15.8975,8.));
#1435=CARTESIAN_POINT('',(195.605,-15.8975,0.));
#1436=CARTESIAN_POINT('',(158.89075,-15.8975,8.));
#1437=CARTESIAN_POINT('Origin',(195.605,-135.450510881328,0.));
#1438=CARTESIAN_POINT('',(195.605,-105.562258160996,8.));
#1439=CARTESIAN_POINT('Origin',(198.605,-138.450510881328,0.));
#1440=CARTESIAN_POINT('',(198.605,-138.450510881328,8.));
#1441=CARTESIAN_POINT('',(198.605,-138.450510881328,8.));
#1442=CARTESIAN_POINT('',(198.605,-138.450510881328,0.));
#1443=CARTESIAN_POINT('',(198.605,-138.450510881328,0.));
#1444=CARTESIAN_POINT('',(198.605,-138.450510881328,0.));
#1445=CARTESIAN_POINT('Origin',(45.748,-138.450510881328,0.));
#1446=CARTESIAN_POINT('',(45.748,-138.450510881328,8.));
#1447=CARTESIAN_POINT('',(45.748,-138.450510881328,0.));
#1448=CARTESIAN_POINT('Origin',(122.1765,-75.6740054406639,8.));
#1449=CARTESIAN_POINT('Origin',(122.1765,-75.6740054406639,0.));
#1450=CARTESIAN_POINT('Origin',(195.605,-15.8975,10.7));
#1451=CARTESIAN_POINT('',(195.605,-15.8975,10.7));
#1452=CARTESIAN_POINT('',(48.748,-15.8975,10.7));
#1453=CARTESIAN_POINT('',(158.89075,-15.8975,10.7));
#1454=CARTESIAN_POINT('',(195.605,-15.8975,14.2));
#1455=CARTESIAN_POINT('',(195.605,-15.8975,10.7));
#1456=CARTESIAN_POINT('',(48.748,-15.8975,14.2));
#1457=CARTESIAN_POINT('',(158.89075,-15.8975,14.2));
#1458=CARTESIAN_POINT('',(48.748,-15.8975,10.7));
#1459=CARTESIAN_POINT('Origin',(195.605,-135.450510881328,10.7));
#1460=CARTESIAN_POINT('',(195.605,-135.450510881328,10.7));
#1461=CARTESIAN_POINT('',(195.605,-105.562258160996,10.7));
#1462=CARTESIAN_POINT('',(195.605,-135.450510881328,14.2));
#1463=CARTESIAN_POINT('',(195.605,-135.450510881328,10.7));
#1464=CARTESIAN_POINT('',(195.605,-105.562258160996,14.2));
#1465=CARTESIAN_POINT('Origin',(48.748,-135.450510881328,10.7));
#1466=CARTESIAN_POINT('',(48.748,-135.450510881328,10.7));
#1467=CARTESIAN_POINT('',(85.46225,-135.450510881328,10.7));
#1468=CARTESIAN_POINT('',(48.748,-135.450510881328,14.2));
#1469=CARTESIAN_POINT('',(48.748,-135.450510881328,10.7));
#1470=CARTESIAN_POINT('',(85.46225,-135.450510881328,14.2));
#1471=CARTESIAN_POINT('Origin',(48.748,-15.8975,10.7));
#1472=CARTESIAN_POINT('',(48.748,-45.7857527203319,10.7));
#1473=CARTESIAN_POINT('',(48.748,-45.7857527203319,14.2));
#1474=CARTESIAN_POINT('Origin',(198.605,-12.8975,10.7));
#1475=CARTESIAN_POINT('',(198.605,-12.8975,10.7));
#1476=CARTESIAN_POINT('',(45.748,-12.8975,10.7));
#1477=CARTESIAN_POINT('',(198.605,-12.8975,10.7));
#1478=CARTESIAN_POINT('',(45.748,-12.8975,14.2));
#1479=CARTESIAN_POINT('',(45.748,-12.8975,10.7));
#1480=CARTESIAN_POINT('',(198.605,-12.8975,14.2));
#1481=CARTESIAN_POINT('',(198.605,-12.8975,14.2));
#1482=CARTESIAN_POINT('',(198.605,-12.8975,10.7));
#1483=CARTESIAN_POINT('Origin',(198.605,-138.450510881328,10.7));
#1484=CARTESIAN_POINT('',(198.605,-138.450510881328,10.7));
#1485=CARTESIAN_POINT('',(198.605,-138.450510881328,10.7));
#1486=CARTESIAN_POINT('',(198.605,-138.450510881328,14.2));
#1487=CARTESIAN_POINT('',(198.605,-138.450510881328,14.2));
#1488=CARTESIAN_POINT('',(198.605,-138.450510881328,10.7));
#1489=CARTESIAN_POINT('Origin',(45.748,-138.450510881328,10.7));
#1490=CARTESIAN_POINT('',(45.748,-138.450510881328,10.7));
#1491=CARTESIAN_POINT('',(45.748,-138.450510881328,10.7));
#1492=CARTESIAN_POINT('',(45.748,-138.450510881328,14.2));
#1493=CARTESIAN_POINT('',(45.748,-138.450510881328,14.2));
#1494=CARTESIAN_POINT('',(45.748,-138.450510881328,10.7));
#1495=CARTESIAN_POINT('Origin',(45.748,-12.8975,10.7));
#1496=CARTESIAN_POINT('',(45.748,-12.8975,10.7));
#1497=CARTESIAN_POINT('',(45.748,-12.8975,14.2));
#1498=CARTESIAN_POINT('Origin',(122.1765,-75.6740054406639,14.2));
#1499=CARTESIAN_POINT('Origin',(122.1765,-75.6740054406639,10.7));
#1500=UNCERTAINTY_MEASURE_WITH_UNIT(LENGTH_MEASURE(0.01),#1504,
'DISTANCE_ACCURACY_VALUE',
'Maximum model space distance between geometric entities at asserted c
onnectivities');
#1501=UNCERTAINTY_MEASURE_WITH_UNIT(LENGTH_MEASURE(0.01),#1504,
'DISTANCE_ACCURACY_VALUE',
'Maximum model space distance between geometric entities at asserted c
onnectivities');
#1502=(
GEOMETRIC_REPRESENTATION_CONTEXT(3)
GLOBAL_UNCERTAINTY_ASSIGNED_CONTEXT((#1500))
GLOBAL_UNIT_ASSIGNED_CONTEXT((#1504,#1506,#1507))
REPRESENTATION_CONTEXT('','3D')
);
#1503=(
GEOMETRIC_REPRESENTATION_CONTEXT(3)
GLOBAL_UNCERTAINTY_ASSIGNED_CONTEXT((#1501))
GLOBAL_UNIT_ASSIGNED_CONTEXT((#1504,#1506,#1507))
REPRESENTATION_CONTEXT('','3D')
);
#1504=(
LENGTH_UNIT()
NAMED_UNIT(*)
SI_UNIT(.MILLI.,.METRE.)
);
#1505=(
LENGTH_UNIT()
NAMED_UNIT(*)
SI_UNIT($,.METRE.)
);
#1506=(
NAMED_UNIT(*)
PLANE_ANGLE_UNIT()
SI_UNIT($,.RADIAN.)
);
#1507=(
NAMED_UNIT(*)
SI_UNIT($,.STERADIAN.)
SOLID_ANGLE_UNIT()
);
#1508=SHAPE_DEFINITION_REPRESENTATION(#1509,#1510);
#1509=PRODUCT_DEFINITION_SHAPE('',$,#1512);
#1510=SHAPE_REPRESENTATION('',(#956),#1502);
#1511=PRODUCT_DEFINITION_CONTEXT('part definition',#1516,'design');
#1512=PRODUCT_DEFINITION('(\X2\672A4FDD5B58\X0\)','(\X2\672A4FDD5B58\X0\)',
#1513,#1511);
#1513=PRODUCT_DEFINITION_FORMATION('',$,#1518);
#1514=PRODUCT_RELATED_PRODUCT_CATEGORY('(\X2\672A4FDD5B58\X0\)',
'(\X2\672A4FDD5B58\X0\)',(#1518));
#1515=APPLICATION_PROTOCOL_DEFINITION('international standard',
'automotive_design',2009,#1516);
#1516=APPLICATION_CONTEXT(
'Core Data for Automotive Mechanical Design Process');
#1517=PRODUCT_CONTEXT('part definition',#1516,'mechanical');
#1518=PRODUCT('(\X2\672A4FDD5B58\X0\)','(\X2\672A4FDD5B58\X0\)',$,(#1517));
#1519=PRESENTATION_STYLE_ASSIGNMENT((#1520));
#1520=SURFACE_STYLE_USAGE(.BOTH.,#1521);
#1521=SURFACE_SIDE_STYLE('',(#1522));
#1522=SURFACE_STYLE_FILL_AREA(#1523);
#1523=FILL_AREA_STYLE('\X2\92FC\X0\ - \X2\30B530C630F3\X0\',(#1524));
#1524=FILL_AREA_STYLE_COLOUR('\X2\92FC\X0\ - \X2\30B530C630F3\X0\',#1525);
#1525=COLOUR_RGB('\X2\92FC\X0\ - \X2\30B530C630F3\X0\',0.627450980392157,
0.627450980392157,0.627450980392157);
ENDSEC;
END-ISO-10303-21;
