ISO-10303-21;
HEADER;
/* Generated by software containing ST-Developer
 * from STEP Tools, Inc. (www.steptools.com) 
 */

FILE_DESCRIPTION(
/* description */ (''),
/* implementation_level */ '2;1');

FILE_NAME(
/* name */ 'sage60_right_tb_case_bottom.step',
/* time_stamp */ '2026-09-09T01:53:33+09:00',
/* author */ (''),
/* organization */ (''),
/* preprocessor_version */ 'ST-DEVELOPER v20.1',
/* originating_system */ 'Autodesk Translation Framework v15.8.0.0',
/* authorisation */ '');

FILE_SCHEMA (('AUTOMOTIVE_DESIGN { 1 0 10303 214 3 1 1 }'));
ENDSEC;

DATA;
#10=MECHANICAL_DESIGN_GEOMETRIC_PRESENTATION_REPRESENTATION('',(#13),#1216);
#11=SHAPE_REPRESENTATION_RELATIONSHIP('SRR','None',#1223,#12);
#12=ADVANCED_BREP_SHAPE_REPRESENTATION('',(#14),#1215);
#13=STYLED_ITEM('',(#1232),#14);
#14=MANIFOLD_SOLID_BREP('RIGHT_TRACKBALL_CASE_BOTTOM',#760);
#15=FACE_BOUND('',#101,.T.);
#16=FACE_BOUND('',#102,.T.);
#17=FACE_BOUND('',#103,.T.);
#18=FACE_BOUND('',#104,.T.);
#19=FACE_BOUND('',#105,.T.);
#20=FACE_BOUND('',#106,.T.);
#21=FACE_BOUND('',#107,.T.);
#22=FACE_BOUND('',#117,.T.);
#23=FACE_BOUND('',#119,.T.);
#24=CIRCLE('',#805,18.5);
#25=CIRCLE('',#806,18.5);
#26=CYLINDRICAL_SURFACE('',#804,18.5);
#27=FACE_OUTER_BOUND('',#69,.T.);
#28=FACE_OUTER_BOUND('',#70,.T.);
#29=FACE_OUTER_BOUND('',#71,.T.);
#30=FACE_OUTER_BOUND('',#72,.T.);
#31=FACE_OUTER_BOUND('',#73,.T.);
#32=FACE_OUTER_BOUND('',#74,.T.);
#33=FACE_OUTER_BOUND('',#75,.T.);
#34=FACE_OUTER_BOUND('',#76,.T.);
#35=FACE_OUTER_BOUND('',#77,.T.);
#36=FACE_OUTER_BOUND('',#78,.T.);
#37=FACE_OUTER_BOUND('',#79,.T.);
#38=FACE_OUTER_BOUND('',#80,.T.);
#39=FACE_OUTER_BOUND('',#81,.T.);
#40=FACE_OUTER_BOUND('',#82,.T.);
#41=FACE_OUTER_BOUND('',#83,.T.);
#42=FACE_OUTER_BOUND('',#84,.T.);
#43=FACE_OUTER_BOUND('',#85,.T.);
#44=FACE_OUTER_BOUND('',#86,.T.);
#45=FACE_OUTER_BOUND('',#87,.T.);
#46=FACE_OUTER_BOUND('',#88,.T.);
#47=FACE_OUTER_BOUND('',#89,.T.);
#48=FACE_OUTER_BOUND('',#90,.T.);
#49=FACE_OUTER_BOUND('',#91,.T.);
#50=FACE_OUTER_BOUND('',#92,.T.);
#51=FACE_OUTER_BOUND('',#93,.T.);
#52=FACE_OUTER_BOUND('',#94,.T.);
#53=FACE_OUTER_BOUND('',#95,.T.);
#54=FACE_OUTER_BOUND('',#96,.T.);
#55=FACE_OUTER_BOUND('',#97,.T.);
#56=FACE_OUTER_BOUND('',#98,.T.);
#57=FACE_OUTER_BOUND('',#99,.T.);
#58=FACE_OUTER_BOUND('',#100,.T.);
#59=FACE_OUTER_BOUND('',#108,.T.);
#60=FACE_OUTER_BOUND('',#109,.T.);
#61=FACE_OUTER_BOUND('',#110,.T.);
#62=FACE_OUTER_BOUND('',#111,.T.);
#63=FACE_OUTER_BOUND('',#112,.T.);
#64=FACE_OUTER_BOUND('',#113,.T.);
#65=FACE_OUTER_BOUND('',#114,.T.);
#66=FACE_OUTER_BOUND('',#115,.T.);
#67=FACE_OUTER_BOUND('',#116,.T.);
#68=FACE_OUTER_BOUND('',#118,.T.);
#69=EDGE_LOOP('',(#479,#480,#481,#482));
#70=EDGE_LOOP('',(#483,#484,#485,#486));
#71=EDGE_LOOP('',(#487,#488,#489,#490));
#72=EDGE_LOOP('',(#491,#492,#493,#494));
#73=EDGE_LOOP('',(#495,#496,#497,#498));
#74=EDGE_LOOP('',(#499,#500,#501,#502));
#75=EDGE_LOOP('',(#503,#504,#505,#506));
#76=EDGE_LOOP('',(#507,#508,#509,#510));
#77=EDGE_LOOP('',(#511,#512,#513,#514));
#78=EDGE_LOOP('',(#515,#516,#517,#518));
#79=EDGE_LOOP('',(#519,#520,#521,#522));
#80=EDGE_LOOP('',(#523,#524,#525,#526));
#81=EDGE_LOOP('',(#527,#528,#529,#530));
#82=EDGE_LOOP('',(#531,#532,#533,#534));
#83=EDGE_LOOP('',(#535,#536,#537,#538));
#84=EDGE_LOOP('',(#539,#540,#541,#542));
#85=EDGE_LOOP('',(#543,#544,#545,#546));
#86=EDGE_LOOP('',(#547,#548,#549,#550));
#87=EDGE_LOOP('',(#551,#552,#553,#554));
#88=EDGE_LOOP('',(#555,#556,#557,#558));
#89=EDGE_LOOP('',(#559,#560,#561,#562));
#90=EDGE_LOOP('',(#563,#564,#565,#566));
#91=EDGE_LOOP('',(#567,#568,#569,#570));
#92=EDGE_LOOP('',(#571,#572,#573,#574));
#93=EDGE_LOOP('',(#575,#576,#577,#578));
#94=EDGE_LOOP('',(#579,#580,#581,#582));
#95=EDGE_LOOP('',(#583,#584,#585,#586));
#96=EDGE_LOOP('',(#587,#588,#589,#590));
#97=EDGE_LOOP('',(#591,#592,#593,#594));
#98=EDGE_LOOP('',(#595,#596,#597,#598));
#99=EDGE_LOOP('',(#599,#600,#601,#602));
#100=EDGE_LOOP('',(#603,#604,#605,#606));
#101=EDGE_LOOP('',(#607,#608,#609,#610));
#102=EDGE_LOOP('',(#611,#612,#613,#614));
#103=EDGE_LOOP('',(#615,#616,#617,#618));
#104=EDGE_LOOP('',(#619,#620,#621,#622));
#105=EDGE_LOOP('',(#623,#624,#625,#626));
#106=EDGE_LOOP('',(#627,#628,#629,#630));
#107=EDGE_LOOP('',(#631));
#108=EDGE_LOOP('',(#632,#633,#634,#635));
#109=EDGE_LOOP('',(#636,#637,#638,#639));
#110=EDGE_LOOP('',(#640,#641,#642,#643));
#111=EDGE_LOOP('',(#644,#645,#646,#647));
#112=EDGE_LOOP('',(#648,#649,#650,#651));
#113=EDGE_LOOP('',(#652,#653,#654,#655));
#114=EDGE_LOOP('',(#656,#657,#658,#659));
#115=EDGE_LOOP('',(#660,#661,#662,#663));
#116=EDGE_LOOP('',(#664,#665,#666,#667));
#117=EDGE_LOOP('',(#668,#669,#670,#671));
#118=EDGE_LOOP('',(#672,#673,#674,#675));
#119=EDGE_LOOP('',(#676));
#120=LINE('',#1009,#217);
#121=LINE('',#1011,#218);
#122=LINE('',#1013,#219);
#123=LINE('',#1014,#220);
#124=LINE('',#1017,#221);
#125=LINE('',#1019,#222);
#126=LINE('',#1020,#223);
#127=LINE('',#1023,#224);
#128=LINE('',#1025,#225);
#129=LINE('',#1026,#226);
#130=LINE('',#1028,#227);
#131=LINE('',#1029,#228);
#132=LINE('',#1034,#229);
#133=LINE('',#1036,#230);
#134=LINE('',#1038,#231);
#135=LINE('',#1039,#232);
#136=LINE('',#1042,#233);
#137=LINE('',#1044,#234);
#138=LINE('',#1045,#235);
#139=LINE('',#1048,#236);
#140=LINE('',#1050,#237);
#141=LINE('',#1051,#238);
#142=LINE('',#1053,#239);
#143=LINE('',#1054,#240);
#144=LINE('',#1059,#241);
#145=LINE('',#1061,#242);
#146=LINE('',#1063,#243);
#147=LINE('',#1064,#244);
#148=LINE('',#1067,#245);
#149=LINE('',#1069,#246);
#150=LINE('',#1070,#247);
#151=LINE('',#1073,#248);
#152=LINE('',#1075,#249);
#153=LINE('',#1076,#250);
#154=LINE('',#1078,#251);
#155=LINE('',#1079,#252);
#156=LINE('',#1084,#253);
#157=LINE('',#1086,#254);
#158=LINE('',#1088,#255);
#159=LINE('',#1089,#256);
#160=LINE('',#1092,#257);
#161=LINE('',#1094,#258);
#162=LINE('',#1095,#259);
#163=LINE('',#1098,#260);
#164=LINE('',#1100,#261);
#165=LINE('',#1101,#262);
#166=LINE('',#1103,#263);
#167=LINE('',#1104,#264);
#168=LINE('',#1109,#265);
#169=LINE('',#1111,#266);
#170=LINE('',#1113,#267);
#171=LINE('',#1114,#268);
#172=LINE('',#1117,#269);
#173=LINE('',#1119,#270);
#174=LINE('',#1120,#271);
#175=LINE('',#1123,#272);
#176=LINE('',#1125,#273);
#177=LINE('',#1126,#274);
#178=LINE('',#1128,#275);
#179=LINE('',#1129,#276);
#180=LINE('',#1134,#277);
#181=LINE('',#1136,#278);
#182=LINE('',#1138,#279);
#183=LINE('',#1139,#280);
#184=LINE('',#1142,#281);
#185=LINE('',#1144,#282);
#186=LINE('',#1145,#283);
#187=LINE('',#1148,#284);
#188=LINE('',#1150,#285);
#189=LINE('',#1151,#286);
#190=LINE('',#1153,#287);
#191=LINE('',#1154,#288);
#192=LINE('',#1160,#289);
#193=LINE('',#1165,#290);
#194=LINE('',#1167,#291);
#195=LINE('',#1169,#292);
#196=LINE('',#1170,#293);
#197=LINE('',#1174,#294);
#198=LINE('',#1176,#295);
#199=LINE('',#1178,#296);
#200=LINE('',#1179,#297);
#201=LINE('',#1183,#298);
#202=LINE('',#1184,#299);
#203=LINE('',#1185,#300);
#204=LINE('',#1188,#301);
#205=LINE('',#1190,#302);
#206=LINE('',#1191,#303);
#207=LINE('',#1194,#304);
#208=LINE('',#1195,#305);
#209=LINE('',#1198,#306);
#210=LINE('',#1199,#307);
#211=LINE('',#1201,#308);
#212=LINE('',#1204,#309);
#213=LINE('',#1206,#310);
#214=LINE('',#1207,#311);
#215=LINE('',#1209,#312);
#216=LINE('',#1210,#313);
#217=VECTOR('',#822,10.);
#218=VECTOR('',#823,10.);
#219=VECTOR('',#824,10.);
#220=VECTOR('',#825,10.);
#221=VECTOR('',#828,10.);
#222=VECTOR('',#829,10.);
#223=VECTOR('',#830,10.);
#224=VECTOR('',#833,10.);
#225=VECTOR('',#834,10.);
#226=VECTOR('',#835,10.);
#227=VECTOR('',#838,10.);
#228=VECTOR('',#839,10.);
#229=VECTOR('',#844,10.);
#230=VECTOR('',#845,10.);
#231=VECTOR('',#846,10.);
#232=VECTOR('',#847,10.);
#233=VECTOR('',#850,10.);
#234=VECTOR('',#851,10.);
#235=VECTOR('',#852,10.);
#236=VECTOR('',#855,10.);
#237=VECTOR('',#856,10.);
#238=VECTOR('',#857,10.);
#239=VECTOR('',#860,10.);
#240=VECTOR('',#861,10.);
#241=VECTOR('',#866,10.);
#242=VECTOR('',#867,10.);
#243=VECTOR('',#868,10.);
#244=VECTOR('',#869,10.);
#245=VECTOR('',#872,10.);
#246=VECTOR('',#873,10.);
#247=VECTOR('',#874,10.);
#248=VECTOR('',#877,10.);
#249=VECTOR('',#878,10.);
#250=VECTOR('',#879,10.);
#251=VECTOR('',#882,10.);
#252=VECTOR('',#883,10.);
#253=VECTOR('',#888,10.);
#254=VECTOR('',#889,10.);
#255=VECTOR('',#890,10.);
#256=VECTOR('',#891,10.);
#257=VECTOR('',#894,10.);
#258=VECTOR('',#895,10.);
#259=VECTOR('',#896,10.);
#260=VECTOR('',#899,10.);
#261=VECTOR('',#900,10.);
#262=VECTOR('',#901,10.);
#263=VECTOR('',#904,10.);
#264=VECTOR('',#905,10.);
#265=VECTOR('',#910,10.);
#266=VECTOR('',#911,10.);
#267=VECTOR('',#912,10.);
#268=VECTOR('',#913,10.);
#269=VECTOR('',#916,10.);
#270=VECTOR('',#917,10.);
#271=VECTOR('',#918,10.);
#272=VECTOR('',#921,10.);
#273=VECTOR('',#922,10.);
#274=VECTOR('',#923,10.);
#275=VECTOR('',#926,10.);
#276=VECTOR('',#927,10.);
#277=VECTOR('',#932,10.);
#278=VECTOR('',#933,10.);
#279=VECTOR('',#934,10.);
#280=VECTOR('',#935,10.);
#281=VECTOR('',#938,10.);
#282=VECTOR('',#939,10.);
#283=VECTOR('',#940,10.);
#284=VECTOR('',#943,10.);
#285=VECTOR('',#944,10.);
#286=VECTOR('',#945,10.);
#287=VECTOR('',#948,10.);
#288=VECTOR('',#949,10.);
#289=VECTOR('',#956,18.5);
#290=VECTOR('',#961,10.);
#291=VECTOR('',#962,10.);
#292=VECTOR('',#963,10.);
#293=VECTOR('',#964,10.);
#294=VECTOR('',#967,10.);
#295=VECTOR('',#968,10.);
#296=VECTOR('',#969,10.);
#297=VECTOR('',#970,10.);
#298=VECTOR('',#973,10.);
#299=VECTOR('',#974,10.);
#300=VECTOR('',#975,10.);
#301=VECTOR('',#978,10.);
#302=VECTOR('',#979,10.);
#303=VECTOR('',#980,10.);
#304=VECTOR('',#983,10.);
#305=VECTOR('',#984,10.);
#306=VECTOR('',#987,10.);
#307=VECTOR('',#988,10.);
#308=VECTOR('',#991,10.);
#309=VECTOR('',#994,10.);
#310=VECTOR('',#995,10.);
#311=VECTOR('',#996,10.);
#312=VECTOR('',#999,10.);
#313=VECTOR('',#1000,10.);
#314=VERTEX_POINT('',#1007);
#315=VERTEX_POINT('',#1008);
#316=VERTEX_POINT('',#1010);
#317=VERTEX_POINT('',#1012);
#318=VERTEX_POINT('',#1016);
#319=VERTEX_POINT('',#1018);
#320=VERTEX_POINT('',#1022);
#321=VERTEX_POINT('',#1024);
#322=VERTEX_POINT('',#1032);
#323=VERTEX_POINT('',#1033);
#324=VERTEX_POINT('',#1035);
#325=VERTEX_POINT('',#1037);
#326=VERTEX_POINT('',#1041);
#327=VERTEX_POINT('',#1043);
#328=VERTEX_POINT('',#1047);
#329=VERTEX_POINT('',#1049);
#330=VERTEX_POINT('',#1057);
#331=VERTEX_POINT('',#1058);
#332=VERTEX_POINT('',#1060);
#333=VERTEX_POINT('',#1062);
#334=VERTEX_POINT('',#1066);
#335=VERTEX_POINT('',#1068);
#336=VERTEX_POINT('',#1072);
#337=VERTEX_POINT('',#1074);
#338=VERTEX_POINT('',#1082);
#339=VERTEX_POINT('',#1083);
#340=VERTEX_POINT('',#1085);
#341=VERTEX_POINT('',#1087);
#342=VERTEX_POINT('',#1091);
#343=VERTEX_POINT('',#1093);
#344=VERTEX_POINT('',#1097);
#345=VERTEX_POINT('',#1099);
#346=VERTEX_POINT('',#1107);
#347=VERTEX_POINT('',#1108);
#348=VERTEX_POINT('',#1110);
#349=VERTEX_POINT('',#1112);
#350=VERTEX_POINT('',#1116);
#351=VERTEX_POINT('',#1118);
#352=VERTEX_POINT('',#1122);
#353=VERTEX_POINT('',#1124);
#354=VERTEX_POINT('',#1132);
#355=VERTEX_POINT('',#1133);
#356=VERTEX_POINT('',#1135);
#357=VERTEX_POINT('',#1137);
#358=VERTEX_POINT('',#1141);
#359=VERTEX_POINT('',#1143);
#360=VERTEX_POINT('',#1147);
#361=VERTEX_POINT('',#1149);
#362=VERTEX_POINT('',#1157);
#363=VERTEX_POINT('',#1159);
#364=VERTEX_POINT('',#1163);
#365=VERTEX_POINT('',#1164);
#366=VERTEX_POINT('',#1166);
#367=VERTEX_POINT('',#1168);
#368=VERTEX_POINT('',#1172);
#369=VERTEX_POINT('',#1173);
#370=VERTEX_POINT('',#1175);
#371=VERTEX_POINT('',#1177);
#372=VERTEX_POINT('',#1181);
#373=VERTEX_POINT('',#1182);
#374=VERTEX_POINT('',#1187);
#375=VERTEX_POINT('',#1189);
#376=VERTEX_POINT('',#1193);
#377=VERTEX_POINT('',#1197);
#378=VERTEX_POINT('',#1203);
#379=VERTEX_POINT('',#1205);
#380=EDGE_CURVE('',#314,#315,#120,.T.);
#381=EDGE_CURVE('',#314,#316,#121,.T.);
#382=EDGE_CURVE('',#317,#316,#122,.T.);
#383=EDGE_CURVE('',#315,#317,#123,.T.);
#384=EDGE_CURVE('',#318,#314,#124,.T.);
#385=EDGE_CURVE('',#318,#319,#125,.T.);
#386=EDGE_CURVE('',#316,#319,#126,.T.);
#387=EDGE_CURVE('',#315,#320,#127,.T.);
#388=EDGE_CURVE('',#321,#317,#128,.T.);
#389=EDGE_CURVE('',#320,#321,#129,.T.);
#390=EDGE_CURVE('',#320,#318,#130,.T.);
#391=EDGE_CURVE('',#319,#321,#131,.T.);
#392=EDGE_CURVE('',#322,#323,#132,.T.);
#393=EDGE_CURVE('',#322,#324,#133,.T.);
#394=EDGE_CURVE('',#325,#324,#134,.T.);
#395=EDGE_CURVE('',#323,#325,#135,.T.);
#396=EDGE_CURVE('',#326,#322,#136,.T.);
#397=EDGE_CURVE('',#326,#327,#137,.T.);
#398=EDGE_CURVE('',#324,#327,#138,.T.);
#399=EDGE_CURVE('',#323,#328,#139,.T.);
#400=EDGE_CURVE('',#329,#325,#140,.T.);
#401=EDGE_CURVE('',#328,#329,#141,.T.);
#402=EDGE_CURVE('',#328,#326,#142,.T.);
#403=EDGE_CURVE('',#327,#329,#143,.T.);
#404=EDGE_CURVE('',#330,#331,#144,.T.);
#405=EDGE_CURVE('',#330,#332,#145,.T.);
#406=EDGE_CURVE('',#333,#332,#146,.T.);
#407=EDGE_CURVE('',#331,#333,#147,.T.);
#408=EDGE_CURVE('',#334,#330,#148,.T.);
#409=EDGE_CURVE('',#334,#335,#149,.T.);
#410=EDGE_CURVE('',#332,#335,#150,.T.);
#411=EDGE_CURVE('',#331,#336,#151,.T.);
#412=EDGE_CURVE('',#337,#333,#152,.T.);
#413=EDGE_CURVE('',#336,#337,#153,.T.);
#414=EDGE_CURVE('',#336,#334,#154,.T.);
#415=EDGE_CURVE('',#335,#337,#155,.T.);
#416=EDGE_CURVE('',#338,#339,#156,.T.);
#417=EDGE_CURVE('',#338,#340,#157,.T.);
#418=EDGE_CURVE('',#341,#340,#158,.T.);
#419=EDGE_CURVE('',#339,#341,#159,.T.);
#420=EDGE_CURVE('',#342,#338,#160,.T.);
#421=EDGE_CURVE('',#342,#343,#161,.T.);
#422=EDGE_CURVE('',#340,#343,#162,.T.);
#423=EDGE_CURVE('',#339,#344,#163,.T.);
#424=EDGE_CURVE('',#345,#341,#164,.T.);
#425=EDGE_CURVE('',#344,#345,#165,.T.);
#426=EDGE_CURVE('',#344,#342,#166,.T.);
#427=EDGE_CURVE('',#343,#345,#167,.T.);
#428=EDGE_CURVE('',#346,#347,#168,.T.);
#429=EDGE_CURVE('',#346,#348,#169,.T.);
#430=EDGE_CURVE('',#349,#348,#170,.T.);
#431=EDGE_CURVE('',#347,#349,#171,.T.);
#432=EDGE_CURVE('',#350,#346,#172,.T.);
#433=EDGE_CURVE('',#350,#351,#173,.T.);
#434=EDGE_CURVE('',#348,#351,#174,.T.);
#435=EDGE_CURVE('',#347,#352,#175,.T.);
#436=EDGE_CURVE('',#353,#349,#176,.T.);
#437=EDGE_CURVE('',#352,#353,#177,.T.);
#438=EDGE_CURVE('',#352,#350,#178,.T.);
#439=EDGE_CURVE('',#351,#353,#179,.T.);
#440=EDGE_CURVE('',#354,#355,#180,.T.);
#441=EDGE_CURVE('',#354,#356,#181,.T.);
#442=EDGE_CURVE('',#357,#356,#182,.T.);
#443=EDGE_CURVE('',#355,#357,#183,.T.);
#444=EDGE_CURVE('',#358,#354,#184,.T.);
#445=EDGE_CURVE('',#358,#359,#185,.T.);
#446=EDGE_CURVE('',#356,#359,#186,.T.);
#447=EDGE_CURVE('',#355,#360,#187,.T.);
#448=EDGE_CURVE('',#361,#357,#188,.T.);
#449=EDGE_CURVE('',#360,#361,#189,.T.);
#450=EDGE_CURVE('',#360,#358,#190,.T.);
#451=EDGE_CURVE('',#359,#361,#191,.T.);
#452=EDGE_CURVE('',#362,#362,#24,.T.);
#453=EDGE_CURVE('',#362,#363,#192,.T.);
#454=EDGE_CURVE('',#363,#363,#25,.T.);
#455=EDGE_CURVE('',#364,#365,#193,.T.);
#456=EDGE_CURVE('',#366,#364,#194,.T.);
#457=EDGE_CURVE('',#367,#366,#195,.T.);
#458=EDGE_CURVE('',#365,#367,#196,.T.);
#459=EDGE_CURVE('',#368,#369,#197,.T.);
#460=EDGE_CURVE('',#370,#369,#198,.T.);
#461=EDGE_CURVE('',#371,#370,#199,.T.);
#462=EDGE_CURVE('',#371,#368,#200,.T.);
#463=EDGE_CURVE('',#372,#373,#201,.T.);
#464=EDGE_CURVE('',#369,#373,#202,.T.);
#465=EDGE_CURVE('',#368,#372,#203,.T.);
#466=EDGE_CURVE('',#366,#374,#204,.T.);
#467=EDGE_CURVE('',#375,#374,#205,.T.);
#468=EDGE_CURVE('',#367,#375,#206,.T.);
#469=EDGE_CURVE('',#364,#376,#207,.T.);
#470=EDGE_CURVE('',#374,#376,#208,.T.);
#471=EDGE_CURVE('',#365,#377,#209,.T.);
#472=EDGE_CURVE('',#376,#377,#210,.T.);
#473=EDGE_CURVE('',#377,#375,#211,.T.);
#474=EDGE_CURVE('',#378,#370,#212,.T.);
#475=EDGE_CURVE('',#379,#378,#213,.T.);
#476=EDGE_CURVE('',#379,#371,#214,.T.);
#477=EDGE_CURVE('',#373,#378,#215,.T.);
#478=EDGE_CURVE('',#372,#379,#216,.T.);
#479=ORIENTED_EDGE('',*,*,#380,.F.);
#480=ORIENTED_EDGE('',*,*,#381,.T.);
#481=ORIENTED_EDGE('',*,*,#382,.F.);
#482=ORIENTED_EDGE('',*,*,#383,.F.);
#483=ORIENTED_EDGE('',*,*,#384,.F.);
#484=ORIENTED_EDGE('',*,*,#385,.T.);
#485=ORIENTED_EDGE('',*,*,#386,.F.);
#486=ORIENTED_EDGE('',*,*,#381,.F.);
#487=ORIENTED_EDGE('',*,*,#387,.F.);
#488=ORIENTED_EDGE('',*,*,#383,.T.);
#489=ORIENTED_EDGE('',*,*,#388,.F.);
#490=ORIENTED_EDGE('',*,*,#389,.F.);
#491=ORIENTED_EDGE('',*,*,#390,.F.);
#492=ORIENTED_EDGE('',*,*,#389,.T.);
#493=ORIENTED_EDGE('',*,*,#391,.F.);
#494=ORIENTED_EDGE('',*,*,#385,.F.);
#495=ORIENTED_EDGE('',*,*,#391,.T.);
#496=ORIENTED_EDGE('',*,*,#388,.T.);
#497=ORIENTED_EDGE('',*,*,#382,.T.);
#498=ORIENTED_EDGE('',*,*,#386,.T.);
#499=ORIENTED_EDGE('',*,*,#392,.F.);
#500=ORIENTED_EDGE('',*,*,#393,.T.);
#501=ORIENTED_EDGE('',*,*,#394,.F.);
#502=ORIENTED_EDGE('',*,*,#395,.F.);
#503=ORIENTED_EDGE('',*,*,#396,.F.);
#504=ORIENTED_EDGE('',*,*,#397,.T.);
#505=ORIENTED_EDGE('',*,*,#398,.F.);
#506=ORIENTED_EDGE('',*,*,#393,.F.);
#507=ORIENTED_EDGE('',*,*,#399,.F.);
#508=ORIENTED_EDGE('',*,*,#395,.T.);
#509=ORIENTED_EDGE('',*,*,#400,.F.);
#510=ORIENTED_EDGE('',*,*,#401,.F.);
#511=ORIENTED_EDGE('',*,*,#402,.F.);
#512=ORIENTED_EDGE('',*,*,#401,.T.);
#513=ORIENTED_EDGE('',*,*,#403,.F.);
#514=ORIENTED_EDGE('',*,*,#397,.F.);
#515=ORIENTED_EDGE('',*,*,#403,.T.);
#516=ORIENTED_EDGE('',*,*,#400,.T.);
#517=ORIENTED_EDGE('',*,*,#394,.T.);
#518=ORIENTED_EDGE('',*,*,#398,.T.);
#519=ORIENTED_EDGE('',*,*,#404,.F.);
#520=ORIENTED_EDGE('',*,*,#405,.T.);
#521=ORIENTED_EDGE('',*,*,#406,.F.);
#522=ORIENTED_EDGE('',*,*,#407,.F.);
#523=ORIENTED_EDGE('',*,*,#408,.F.);
#524=ORIENTED_EDGE('',*,*,#409,.T.);
#525=ORIENTED_EDGE('',*,*,#410,.F.);
#526=ORIENTED_EDGE('',*,*,#405,.F.);
#527=ORIENTED_EDGE('',*,*,#411,.F.);
#528=ORIENTED_EDGE('',*,*,#407,.T.);
#529=ORIENTED_EDGE('',*,*,#412,.F.);
#530=ORIENTED_EDGE('',*,*,#413,.F.);
#531=ORIENTED_EDGE('',*,*,#414,.F.);
#532=ORIENTED_EDGE('',*,*,#413,.T.);
#533=ORIENTED_EDGE('',*,*,#415,.F.);
#534=ORIENTED_EDGE('',*,*,#409,.F.);
#535=ORIENTED_EDGE('',*,*,#415,.T.);
#536=ORIENTED_EDGE('',*,*,#412,.T.);
#537=ORIENTED_EDGE('',*,*,#406,.T.);
#538=ORIENTED_EDGE('',*,*,#410,.T.);
#539=ORIENTED_EDGE('',*,*,#416,.F.);
#540=ORIENTED_EDGE('',*,*,#417,.T.);
#541=ORIENTED_EDGE('',*,*,#418,.F.);
#542=ORIENTED_EDGE('',*,*,#419,.F.);
#543=ORIENTED_EDGE('',*,*,#420,.F.);
#544=ORIENTED_EDGE('',*,*,#421,.T.);
#545=ORIENTED_EDGE('',*,*,#422,.F.);
#546=ORIENTED_EDGE('',*,*,#417,.F.);
#547=ORIENTED_EDGE('',*,*,#423,.F.);
#548=ORIENTED_EDGE('',*,*,#419,.T.);
#549=ORIENTED_EDGE('',*,*,#424,.F.);
#550=ORIENTED_EDGE('',*,*,#425,.F.);
#551=ORIENTED_EDGE('',*,*,#426,.F.);
#552=ORIENTED_EDGE('',*,*,#425,.T.);
#553=ORIENTED_EDGE('',*,*,#427,.F.);
#554=ORIENTED_EDGE('',*,*,#421,.F.);
#555=ORIENTED_EDGE('',*,*,#427,.T.);
#556=ORIENTED_EDGE('',*,*,#424,.T.);
#557=ORIENTED_EDGE('',*,*,#418,.T.);
#558=ORIENTED_EDGE('',*,*,#422,.T.);
#559=ORIENTED_EDGE('',*,*,#428,.F.);
#560=ORIENTED_EDGE('',*,*,#429,.T.);
#561=ORIENTED_EDGE('',*,*,#430,.F.);
#562=ORIENTED_EDGE('',*,*,#431,.F.);
#563=ORIENTED_EDGE('',*,*,#432,.F.);
#564=ORIENTED_EDGE('',*,*,#433,.T.);
#565=ORIENTED_EDGE('',*,*,#434,.F.);
#566=ORIENTED_EDGE('',*,*,#429,.F.);
#567=ORIENTED_EDGE('',*,*,#435,.F.);
#568=ORIENTED_EDGE('',*,*,#431,.T.);
#569=ORIENTED_EDGE('',*,*,#436,.F.);
#570=ORIENTED_EDGE('',*,*,#437,.F.);
#571=ORIENTED_EDGE('',*,*,#438,.F.);
#572=ORIENTED_EDGE('',*,*,#437,.T.);
#573=ORIENTED_EDGE('',*,*,#439,.F.);
#574=ORIENTED_EDGE('',*,*,#433,.F.);
#575=ORIENTED_EDGE('',*,*,#439,.T.);
#576=ORIENTED_EDGE('',*,*,#436,.T.);
#577=ORIENTED_EDGE('',*,*,#430,.T.);
#578=ORIENTED_EDGE('',*,*,#434,.T.);
#579=ORIENTED_EDGE('',*,*,#440,.F.);
#580=ORIENTED_EDGE('',*,*,#441,.T.);
#581=ORIENTED_EDGE('',*,*,#442,.F.);
#582=ORIENTED_EDGE('',*,*,#443,.F.);
#583=ORIENTED_EDGE('',*,*,#444,.F.);
#584=ORIENTED_EDGE('',*,*,#445,.T.);
#585=ORIENTED_EDGE('',*,*,#446,.F.);
#586=ORIENTED_EDGE('',*,*,#441,.F.);
#587=ORIENTED_EDGE('',*,*,#447,.F.);
#588=ORIENTED_EDGE('',*,*,#443,.T.);
#589=ORIENTED_EDGE('',*,*,#448,.F.);
#590=ORIENTED_EDGE('',*,*,#449,.F.);
#591=ORIENTED_EDGE('',*,*,#450,.F.);
#592=ORIENTED_EDGE('',*,*,#449,.T.);
#593=ORIENTED_EDGE('',*,*,#451,.F.);
#594=ORIENTED_EDGE('',*,*,#445,.F.);
#595=ORIENTED_EDGE('',*,*,#451,.T.);
#596=ORIENTED_EDGE('',*,*,#448,.T.);
#597=ORIENTED_EDGE('',*,*,#442,.T.);
#598=ORIENTED_EDGE('',*,*,#446,.T.);
#599=ORIENTED_EDGE('',*,*,#452,.F.);
#600=ORIENTED_EDGE('',*,*,#453,.T.);
#601=ORIENTED_EDGE('',*,*,#454,.F.);
#602=ORIENTED_EDGE('',*,*,#453,.F.);
#603=ORIENTED_EDGE('',*,*,#455,.F.);
#604=ORIENTED_EDGE('',*,*,#456,.F.);
#605=ORIENTED_EDGE('',*,*,#457,.F.);
#606=ORIENTED_EDGE('',*,*,#458,.F.);
#607=ORIENTED_EDGE('',*,*,#384,.T.);
#608=ORIENTED_EDGE('',*,*,#380,.T.);
#609=ORIENTED_EDGE('',*,*,#387,.T.);
#610=ORIENTED_EDGE('',*,*,#390,.T.);
#611=ORIENTED_EDGE('',*,*,#396,.T.);
#612=ORIENTED_EDGE('',*,*,#392,.T.);
#613=ORIENTED_EDGE('',*,*,#399,.T.);
#614=ORIENTED_EDGE('',*,*,#402,.T.);
#615=ORIENTED_EDGE('',*,*,#408,.T.);
#616=ORIENTED_EDGE('',*,*,#404,.T.);
#617=ORIENTED_EDGE('',*,*,#411,.T.);
#618=ORIENTED_EDGE('',*,*,#414,.T.);
#619=ORIENTED_EDGE('',*,*,#420,.T.);
#620=ORIENTED_EDGE('',*,*,#416,.T.);
#621=ORIENTED_EDGE('',*,*,#423,.T.);
#622=ORIENTED_EDGE('',*,*,#426,.T.);
#623=ORIENTED_EDGE('',*,*,#432,.T.);
#624=ORIENTED_EDGE('',*,*,#428,.T.);
#625=ORIENTED_EDGE('',*,*,#435,.T.);
#626=ORIENTED_EDGE('',*,*,#438,.T.);
#627=ORIENTED_EDGE('',*,*,#444,.T.);
#628=ORIENTED_EDGE('',*,*,#440,.T.);
#629=ORIENTED_EDGE('',*,*,#447,.T.);
#630=ORIENTED_EDGE('',*,*,#450,.T.);
#631=ORIENTED_EDGE('',*,*,#454,.T.);
#632=ORIENTED_EDGE('',*,*,#459,.T.);
#633=ORIENTED_EDGE('',*,*,#460,.F.);
#634=ORIENTED_EDGE('',*,*,#461,.F.);
#635=ORIENTED_EDGE('',*,*,#462,.T.);
#636=ORIENTED_EDGE('',*,*,#463,.T.);
#637=ORIENTED_EDGE('',*,*,#464,.F.);
#638=ORIENTED_EDGE('',*,*,#459,.F.);
#639=ORIENTED_EDGE('',*,*,#465,.T.);
#640=ORIENTED_EDGE('',*,*,#457,.T.);
#641=ORIENTED_EDGE('',*,*,#466,.T.);
#642=ORIENTED_EDGE('',*,*,#467,.F.);
#643=ORIENTED_EDGE('',*,*,#468,.F.);
#644=ORIENTED_EDGE('',*,*,#456,.T.);
#645=ORIENTED_EDGE('',*,*,#469,.T.);
#646=ORIENTED_EDGE('',*,*,#470,.F.);
#647=ORIENTED_EDGE('',*,*,#466,.F.);
#648=ORIENTED_EDGE('',*,*,#455,.T.);
#649=ORIENTED_EDGE('',*,*,#471,.T.);
#650=ORIENTED_EDGE('',*,*,#472,.F.);
#651=ORIENTED_EDGE('',*,*,#469,.F.);
#652=ORIENTED_EDGE('',*,*,#458,.T.);
#653=ORIENTED_EDGE('',*,*,#468,.T.);
#654=ORIENTED_EDGE('',*,*,#473,.F.);
#655=ORIENTED_EDGE('',*,*,#471,.F.);
#656=ORIENTED_EDGE('',*,*,#461,.T.);
#657=ORIENTED_EDGE('',*,*,#474,.F.);
#658=ORIENTED_EDGE('',*,*,#475,.F.);
#659=ORIENTED_EDGE('',*,*,#476,.T.);
#660=ORIENTED_EDGE('',*,*,#475,.T.);
#661=ORIENTED_EDGE('',*,*,#477,.F.);
#662=ORIENTED_EDGE('',*,*,#463,.F.);
#663=ORIENTED_EDGE('',*,*,#478,.T.);
#664=ORIENTED_EDGE('',*,*,#464,.T.);
#665=ORIENTED_EDGE('',*,*,#477,.T.);
#666=ORIENTED_EDGE('',*,*,#474,.T.);
#667=ORIENTED_EDGE('',*,*,#460,.T.);
#668=ORIENTED_EDGE('',*,*,#472,.T.);
#669=ORIENTED_EDGE('',*,*,#473,.T.);
#670=ORIENTED_EDGE('',*,*,#467,.T.);
#671=ORIENTED_EDGE('',*,*,#470,.T.);
#672=ORIENTED_EDGE('',*,*,#465,.F.);
#673=ORIENTED_EDGE('',*,*,#462,.F.);
#674=ORIENTED_EDGE('',*,*,#476,.F.);
#675=ORIENTED_EDGE('',*,*,#478,.F.);
#676=ORIENTED_EDGE('',*,*,#452,.T.);
#677=PLANE('',#774);
#678=PLANE('',#775);
#679=PLANE('',#776);
#680=PLANE('',#777);
#681=PLANE('',#778);
#682=PLANE('',#779);
#683=PLANE('',#780);
#684=PLANE('',#781);
#685=PLANE('',#782);
#686=PLANE('',#783);
#687=PLANE('',#784);
#688=PLANE('',#785);
#689=PLANE('',#786);
#690=PLANE('',#787);
#691=PLANE('',#788);
#692=PLANE('',#789);
#693=PLANE('',#790);
#694=PLANE('',#791);
#695=PLANE('',#792);
#696=PLANE('',#793);
#697=PLANE('',#794);
#698=PLANE('',#795);
#699=PLANE('',#796);
#700=PLANE('',#797);
#701=PLANE('',#798);
#702=PLANE('',#799);
#703=PLANE('',#800);
#704=PLANE('',#801);
#705=PLANE('',#802);
#706=PLANE('',#803);
#707=PLANE('',#807);
#708=PLANE('',#808);
#709=PLANE('',#809);
#710=PLANE('',#810);
#711=PLANE('',#811);
#712=PLANE('',#812);
#713=PLANE('',#813);
#714=PLANE('',#814);
#715=PLANE('',#815);
#716=PLANE('',#816);
#717=PLANE('',#817);
#718=ADVANCED_FACE('',(#27),#677,.T.);
#719=ADVANCED_FACE('',(#28),#678,.T.);
#720=ADVANCED_FACE('',(#29),#679,.T.);
#721=ADVANCED_FACE('',(#30),#680,.T.);
#722=ADVANCED_FACE('',(#31),#681,.T.);
#723=ADVANCED_FACE('',(#32),#682,.T.);
#724=ADVANCED_FACE('',(#33),#683,.T.);
#725=ADVANCED_FACE('',(#34),#684,.T.);
#726=ADVANCED_FACE('',(#35),#685,.T.);
#727=ADVANCED_FACE('',(#36),#686,.T.);
#728=ADVANCED_FACE('',(#37),#687,.T.);
#729=ADVANCED_FACE('',(#38),#688,.T.);
#730=ADVANCED_FACE('',(#39),#689,.T.);
#731=ADVANCED_FACE('',(#40),#690,.T.);
#732=ADVANCED_FACE('',(#41),#691,.T.);
#733=ADVANCED_FACE('',(#42),#692,.T.);
#734=ADVANCED_FACE('',(#43),#693,.T.);
#735=ADVANCED_FACE('',(#44),#694,.T.);
#736=ADVANCED_FACE('',(#45),#695,.T.);
#737=ADVANCED_FACE('',(#46),#696,.T.);
#738=ADVANCED_FACE('',(#47),#697,.T.);
#739=ADVANCED_FACE('',(#48),#698,.T.);
#740=ADVANCED_FACE('',(#49),#699,.T.);
#741=ADVANCED_FACE('',(#50),#700,.T.);
#742=ADVANCED_FACE('',(#51),#701,.T.);
#743=ADVANCED_FACE('',(#52),#702,.T.);
#744=ADVANCED_FACE('',(#53),#703,.T.);
#745=ADVANCED_FACE('',(#54),#704,.T.);
#746=ADVANCED_FACE('',(#55),#705,.T.);
#747=ADVANCED_FACE('',(#56),#706,.T.);
#748=ADVANCED_FACE('',(#57),#26,.F.);
#749=ADVANCED_FACE('',(#58,#15,#16,#17,#18,#19,#20,#21),#707,.T.);
#750=ADVANCED_FACE('',(#59),#708,.T.);
#751=ADVANCED_FACE('',(#60),#709,.T.);
#752=ADVANCED_FACE('',(#61),#710,.F.);
#753=ADVANCED_FACE('',(#62),#711,.F.);
#754=ADVANCED_FACE('',(#63),#712,.F.);
#755=ADVANCED_FACE('',(#64),#713,.F.);
#756=ADVANCED_FACE('',(#65),#714,.T.);
#757=ADVANCED_FACE('',(#66),#715,.T.);
#758=ADVANCED_FACE('',(#67,#22),#716,.T.);
#759=ADVANCED_FACE('',(#68,#23),#717,.F.);
#760=CLOSED_SHELL('',(#718,#719,#720,#721,#722,#723,#724,#725,#726,#727,
#728,#729,#730,#731,#732,#733,#734,#735,#736,#737,#738,#739,#740,#741,#742,
#743,#744,#745,#746,#747,#748,#749,#750,#751,#752,#753,#754,#755,#756,#757,
#758,#759));
#761=DERIVED_UNIT_ELEMENT(#763,1.);
#762=DERIVED_UNIT_ELEMENT(#1218,-3.);
#763=(
MASS_UNIT()
NAMED_UNIT(*)
SI_UNIT(.KILO.,.GRAM.)
);
#764=DERIVED_UNIT((#761,#762));
#765=MEASURE_REPRESENTATION_ITEM('density measure',
POSITIVE_RATIO_MEASURE(7850.),#764);
#766=PROPERTY_DEFINITION_REPRESENTATION(#771,#768);
#767=PROPERTY_DEFINITION_REPRESENTATION(#772,#769);
#768=REPRESENTATION('material name',(#770),#1215);
#769=REPRESENTATION('density',(#765),#1215);
#770=DESCRIPTIVE_REPRESENTATION_ITEM('\X2\92FC\X0\','\X2\92FC\X0\');
#771=PROPERTY_DEFINITION('material property','material name',#1225);
#772=PROPERTY_DEFINITION('material property','density of part',#1225);
#773=AXIS2_PLACEMENT_3D('',#1005,#818,#819);
#774=AXIS2_PLACEMENT_3D('',#1006,#820,#821);
#775=AXIS2_PLACEMENT_3D('',#1015,#826,#827);
#776=AXIS2_PLACEMENT_3D('',#1021,#831,#832);
#777=AXIS2_PLACEMENT_3D('',#1027,#836,#837);
#778=AXIS2_PLACEMENT_3D('',#1030,#840,#841);
#779=AXIS2_PLACEMENT_3D('',#1031,#842,#843);
#780=AXIS2_PLACEMENT_3D('',#1040,#848,#849);
#781=AXIS2_PLACEMENT_3D('',#1046,#853,#854);
#782=AXIS2_PLACEMENT_3D('',#1052,#858,#859);
#783=AXIS2_PLACEMENT_3D('',#1055,#862,#863);
#784=AXIS2_PLACEMENT_3D('',#1056,#864,#865);
#785=AXIS2_PLACEMENT_3D('',#1065,#870,#871);
#786=AXIS2_PLACEMENT_3D('',#1071,#875,#876);
#787=AXIS2_PLACEMENT_3D('',#1077,#880,#881);
#788=AXIS2_PLACEMENT_3D('',#1080,#884,#885);
#789=AXIS2_PLACEMENT_3D('',#1081,#886,#887);
#790=AXIS2_PLACEMENT_3D('',#1090,#892,#893);
#791=AXIS2_PLACEMENT_3D('',#1096,#897,#898);
#792=AXIS2_PLACEMENT_3D('',#1102,#902,#903);
#793=AXIS2_PLACEMENT_3D('',#1105,#906,#907);
#794=AXIS2_PLACEMENT_3D('',#1106,#908,#909);
#795=AXIS2_PLACEMENT_3D('',#1115,#914,#915);
#796=AXIS2_PLACEMENT_3D('',#1121,#919,#920);
#797=AXIS2_PLACEMENT_3D('',#1127,#924,#925);
#798=AXIS2_PLACEMENT_3D('',#1130,#928,#929);
#799=AXIS2_PLACEMENT_3D('',#1131,#930,#931);
#800=AXIS2_PLACEMENT_3D('',#1140,#936,#937);
#801=AXIS2_PLACEMENT_3D('',#1146,#941,#942);
#802=AXIS2_PLACEMENT_3D('',#1152,#946,#947);
#803=AXIS2_PLACEMENT_3D('',#1155,#950,#951);
#804=AXIS2_PLACEMENT_3D('',#1156,#952,#953);
#805=AXIS2_PLACEMENT_3D('',#1158,#954,#955);
#806=AXIS2_PLACEMENT_3D('',#1161,#957,#958);
#807=AXIS2_PLACEMENT_3D('',#1162,#959,#960);
#808=AXIS2_PLACEMENT_3D('',#1171,#965,#966);
#809=AXIS2_PLACEMENT_3D('',#1180,#971,#972);
#810=AXIS2_PLACEMENT_3D('',#1186,#976,#977);
#811=AXIS2_PLACEMENT_3D('',#1192,#981,#982);
#812=AXIS2_PLACEMENT_3D('',#1196,#985,#986);
#813=AXIS2_PLACEMENT_3D('',#1200,#989,#990);
#814=AXIS2_PLACEMENT_3D('',#1202,#992,#993);
#815=AXIS2_PLACEMENT_3D('',#1208,#997,#998);
#816=AXIS2_PLACEMENT_3D('',#1211,#1001,#1002);
#817=AXIS2_PLACEMENT_3D('',#1212,#1003,#1004);
#818=DIRECTION('axis',(0.,0.,1.));
#819=DIRECTION('refdir',(1.,0.,0.));
#820=DIRECTION('center_axis',(1.,0.,0.));
#821=DIRECTION('ref_axis',(0.,1.,0.));
#822=DIRECTION('',(0.,-1.,0.));
#823=DIRECTION('',(0.,0.,1.));
#824=DIRECTION('',(0.,1.,0.));
#825=DIRECTION('',(0.,0.,1.));
#826=DIRECTION('center_axis',(0.,1.,0.));
#827=DIRECTION('ref_axis',(-1.,0.,0.));
#828=DIRECTION('',(1.,0.,0.));
#829=DIRECTION('',(0.,0.,1.));
#830=DIRECTION('',(-1.,0.,0.));
#831=DIRECTION('center_axis',(0.,-1.,0.));
#832=DIRECTION('ref_axis',(1.,0.,0.));
#833=DIRECTION('',(-1.,0.,0.));
#834=DIRECTION('',(1.,0.,0.));
#835=DIRECTION('',(0.,0.,1.));
#836=DIRECTION('center_axis',(-1.,0.,0.));
#837=DIRECTION('ref_axis',(0.,-1.,0.));
#838=DIRECTION('',(0.,1.,0.));
#839=DIRECTION('',(0.,-1.,0.));
#840=DIRECTION('center_axis',(0.,0.,1.));
#841=DIRECTION('ref_axis',(1.,0.,0.));
#842=DIRECTION('center_axis',(1.,0.,0.));
#843=DIRECTION('ref_axis',(0.,1.,0.));
#844=DIRECTION('',(0.,-1.,0.));
#845=DIRECTION('',(0.,0.,1.));
#846=DIRECTION('',(0.,1.,0.));
#847=DIRECTION('',(0.,0.,1.));
#848=DIRECTION('center_axis',(0.,1.,0.));
#849=DIRECTION('ref_axis',(-1.,0.,0.));
#850=DIRECTION('',(1.,0.,0.));
#851=DIRECTION('',(0.,0.,1.));
#852=DIRECTION('',(-1.,0.,0.));
#853=DIRECTION('center_axis',(0.,-1.,0.));
#854=DIRECTION('ref_axis',(1.,0.,0.));
#855=DIRECTION('',(-1.,0.,0.));
#856=DIRECTION('',(1.,0.,0.));
#857=DIRECTION('',(0.,0.,1.));
#858=DIRECTION('center_axis',(-1.,0.,0.));
#859=DIRECTION('ref_axis',(0.,-1.,0.));
#860=DIRECTION('',(0.,1.,0.));
#861=DIRECTION('',(0.,-1.,0.));
#862=DIRECTION('center_axis',(0.,0.,1.));
#863=DIRECTION('ref_axis',(1.,0.,0.));
#864=DIRECTION('center_axis',(1.,0.,0.));
#865=DIRECTION('ref_axis',(0.,1.,0.));
#866=DIRECTION('',(0.,-1.,0.));
#867=DIRECTION('',(0.,0.,1.));
#868=DIRECTION('',(0.,1.,0.));
#869=DIRECTION('',(0.,0.,1.));
#870=DIRECTION('center_axis',(0.,1.,0.));
#871=DIRECTION('ref_axis',(-1.,0.,0.));
#872=DIRECTION('',(1.,0.,0.));
#873=DIRECTION('',(0.,0.,1.));
#874=DIRECTION('',(-1.,0.,0.));
#875=DIRECTION('center_axis',(0.,-1.,0.));
#876=DIRECTION('ref_axis',(1.,0.,0.));
#877=DIRECTION('',(-1.,0.,0.));
#878=DIRECTION('',(1.,0.,0.));
#879=DIRECTION('',(0.,0.,1.));
#880=DIRECTION('center_axis',(-1.,0.,0.));
#881=DIRECTION('ref_axis',(0.,-1.,0.));
#882=DIRECTION('',(0.,1.,0.));
#883=DIRECTION('',(0.,-1.,0.));
#884=DIRECTION('center_axis',(0.,0.,1.));
#885=DIRECTION('ref_axis',(1.,0.,0.));
#886=DIRECTION('center_axis',(1.,0.,0.));
#887=DIRECTION('ref_axis',(0.,1.,0.));
#888=DIRECTION('',(0.,-1.,0.));
#889=DIRECTION('',(0.,0.,1.));
#890=DIRECTION('',(0.,1.,0.));
#891=DIRECTION('',(0.,0.,1.));
#892=DIRECTION('center_axis',(0.,1.,0.));
#893=DIRECTION('ref_axis',(-1.,0.,0.));
#894=DIRECTION('',(1.,0.,0.));
#895=DIRECTION('',(0.,0.,1.));
#896=DIRECTION('',(-1.,0.,0.));
#897=DIRECTION('center_axis',(0.,-1.,0.));
#898=DIRECTION('ref_axis',(1.,0.,0.));
#899=DIRECTION('',(-1.,0.,0.));
#900=DIRECTION('',(1.,0.,0.));
#901=DIRECTION('',(0.,0.,1.));
#902=DIRECTION('center_axis',(-1.,0.,0.));
#903=DIRECTION('ref_axis',(0.,-1.,0.));
#904=DIRECTION('',(0.,1.,0.));
#905=DIRECTION('',(0.,-1.,0.));
#906=DIRECTION('center_axis',(0.,0.,1.));
#907=DIRECTION('ref_axis',(1.,0.,0.));
#908=DIRECTION('center_axis',(1.,0.,0.));
#909=DIRECTION('ref_axis',(0.,1.,0.));
#910=DIRECTION('',(0.,-1.,0.));
#911=DIRECTION('',(0.,0.,1.));
#912=DIRECTION('',(0.,1.,0.));
#913=DIRECTION('',(0.,0.,1.));
#914=DIRECTION('center_axis',(0.,1.,0.));
#915=DIRECTION('ref_axis',(-1.,0.,0.));
#916=DIRECTION('',(1.,0.,0.));
#917=DIRECTION('',(0.,0.,1.));
#918=DIRECTION('',(-1.,0.,0.));
#919=DIRECTION('center_axis',(0.,-1.,0.));
#920=DIRECTION('ref_axis',(1.,0.,0.));
#921=DIRECTION('',(-1.,0.,0.));
#922=DIRECTION('',(1.,0.,0.));
#923=DIRECTION('',(0.,0.,1.));
#924=DIRECTION('center_axis',(-1.,0.,0.));
#925=DIRECTION('ref_axis',(0.,-1.,0.));
#926=DIRECTION('',(0.,1.,0.));
#927=DIRECTION('',(0.,-1.,0.));
#928=DIRECTION('center_axis',(0.,0.,1.));
#929=DIRECTION('ref_axis',(1.,0.,0.));
#930=DIRECTION('center_axis',(1.,0.,0.));
#931=DIRECTION('ref_axis',(0.,1.,0.));
#932=DIRECTION('',(0.,-1.,0.));
#933=DIRECTION('',(0.,0.,1.));
#934=DIRECTION('',(0.,1.,0.));
#935=DIRECTION('',(0.,0.,1.));
#936=DIRECTION('center_axis',(0.,1.,0.));
#937=DIRECTION('ref_axis',(-1.,0.,0.));
#938=DIRECTION('',(1.,0.,0.));
#939=DIRECTION('',(0.,0.,1.));
#940=DIRECTION('',(-1.,0.,0.));
#941=DIRECTION('center_axis',(0.,-1.,0.));
#942=DIRECTION('ref_axis',(1.,0.,0.));
#943=DIRECTION('',(-1.,0.,0.));
#944=DIRECTION('',(1.,0.,0.));
#945=DIRECTION('',(0.,0.,1.));
#946=DIRECTION('center_axis',(-1.,0.,0.));
#947=DIRECTION('ref_axis',(0.,-1.,0.));
#948=DIRECTION('',(0.,1.,0.));
#949=DIRECTION('',(0.,-1.,0.));
#950=DIRECTION('center_axis',(0.,0.,1.));
#951=DIRECTION('ref_axis',(1.,0.,0.));
#952=DIRECTION('center_axis',(0.,0.,1.));
#953=DIRECTION('ref_axis',(1.,0.,0.));
#954=DIRECTION('center_axis',(0.,0.,1.));
#955=DIRECTION('ref_axis',(1.,0.,0.));
#956=DIRECTION('',(0.,0.,1.));
#957=DIRECTION('center_axis',(0.,0.,-1.));
#958=DIRECTION('ref_axis',(1.,0.,0.));
#959=DIRECTION('center_axis',(0.,0.,1.));
#960=DIRECTION('ref_axis',(1.,0.,0.));
#961=DIRECTION('',(1.,0.,0.));
#962=DIRECTION('',(0.,1.,0.));
#963=DIRECTION('',(-1.,0.,0.));
#964=DIRECTION('',(0.,-1.,0.));
#965=DIRECTION('center_axis',(0.,1.,0.));
#966=DIRECTION('ref_axis',(-1.,0.,0.));
#967=DIRECTION('',(0.,0.,1.));
#968=DIRECTION('',(-1.,0.,0.));
#969=DIRECTION('',(0.,0.,1.));
#970=DIRECTION('',(-1.,0.,0.));
#971=DIRECTION('center_axis',(-1.,0.,0.));
#972=DIRECTION('ref_axis',(0.,-1.,0.));
#973=DIRECTION('',(0.,0.,1.));
#974=DIRECTION('',(0.,-1.,0.));
#975=DIRECTION('',(0.,-1.,0.));
#976=DIRECTION('center_axis',(0.,-1.,0.));
#977=DIRECTION('ref_axis',(1.,0.,0.));
#978=DIRECTION('',(0.,0.,1.));
#979=DIRECTION('',(-1.,0.,0.));
#980=DIRECTION('',(0.,0.,1.));
#981=DIRECTION('center_axis',(-1.,0.,0.));
#982=DIRECTION('ref_axis',(0.,-1.,0.));
#983=DIRECTION('',(0.,0.,1.));
#984=DIRECTION('',(0.,1.,0.));
#985=DIRECTION('center_axis',(0.,1.,0.));
#986=DIRECTION('ref_axis',(-1.,0.,0.));
#987=DIRECTION('',(0.,0.,1.));
#988=DIRECTION('',(1.,0.,0.));
#989=DIRECTION('center_axis',(1.,0.,0.));
#990=DIRECTION('ref_axis',(0.,1.,0.));
#991=DIRECTION('',(0.,-1.,0.));
#992=DIRECTION('center_axis',(1.,0.,0.));
#993=DIRECTION('ref_axis',(0.,1.,0.));
#994=DIRECTION('',(0.,1.,0.));
#995=DIRECTION('',(0.,0.,1.));
#996=DIRECTION('',(0.,1.,0.));
#997=DIRECTION('center_axis',(0.,-1.,0.));
#998=DIRECTION('ref_axis',(1.,0.,0.));
#999=DIRECTION('',(1.,0.,0.));
#1000=DIRECTION('',(1.,0.,0.));
#1001=DIRECTION('center_axis',(0.,0.,1.));
#1002=DIRECTION('ref_axis',(1.,0.,0.));
#1003=DIRECTION('center_axis',(0.,0.,1.));
#1004=DIRECTION('ref_axis',(1.,0.,0.));
#1005=CARTESIAN_POINT('',(0.,0.,0.));
#1006=CARTESIAN_POINT('Origin',(86.4065,-130.881,0.));
#1007=CARTESIAN_POINT('',(86.4065,-127.881,2.5));
#1008=CARTESIAN_POINT('',(86.4065,-130.881,2.5));
#1009=CARTESIAN_POINT('',(86.4065,-103.277502720332,2.5));
#1010=CARTESIAN_POINT('',(86.4065,-127.881,8.));
#1011=CARTESIAN_POINT('',(86.4065,-127.881,0.));
#1012=CARTESIAN_POINT('',(86.4065,-130.881,8.));
#1013=CARTESIAN_POINT('',(86.4065,-130.881,8.));
#1014=CARTESIAN_POINT('',(86.4065,-130.881,0.));
#1015=CARTESIAN_POINT('Origin',(86.4065,-127.881,0.));
#1016=CARTESIAN_POINT('',(72.4065,-127.881,2.5));
#1017=CARTESIAN_POINT('',(104.2915,-127.881,2.5));
#1018=CARTESIAN_POINT('',(72.4065,-127.881,8.));
#1019=CARTESIAN_POINT('',(72.4065,-127.881,0.));
#1020=CARTESIAN_POINT('',(86.4065,-127.881,8.));
#1021=CARTESIAN_POINT('Origin',(72.4065,-130.881,0.));
#1022=CARTESIAN_POINT('',(72.4065,-130.881,2.5));
#1023=CARTESIAN_POINT('',(97.2915,-130.881,2.5));
#1024=CARTESIAN_POINT('',(72.4065,-130.881,8.));
#1025=CARTESIAN_POINT('',(72.4065,-130.881,8.));
#1026=CARTESIAN_POINT('',(72.4065,-130.881,0.));
#1027=CARTESIAN_POINT('Origin',(72.4065,-127.881,0.));
#1028=CARTESIAN_POINT('',(72.4065,-101.777502720332,2.5));
#1029=CARTESIAN_POINT('',(72.4065,-127.881,8.));
#1030=CARTESIAN_POINT('Origin',(79.4065,-129.381,8.));
#1031=CARTESIAN_POINT('Origin',(193.595,-103.,0.));
#1032=CARTESIAN_POINT('',(193.595,-89.,2.5));
#1033=CARTESIAN_POINT('',(193.595,-103.,2.5));
#1034=CARTESIAN_POINT('',(193.595,-89.3370027203319,2.5));
#1035=CARTESIAN_POINT('',(193.595,-89.,8.));
#1036=CARTESIAN_POINT('',(193.595,-89.,0.));
#1037=CARTESIAN_POINT('',(193.595,-103.,8.));
#1038=CARTESIAN_POINT('',(193.595,-103.,8.));
#1039=CARTESIAN_POINT('',(193.595,-103.,0.));
#1040=CARTESIAN_POINT('Origin',(193.595,-89.,0.));
#1041=CARTESIAN_POINT('',(190.595,-89.,2.5));
#1042=CARTESIAN_POINT('',(157.88575,-89.,2.5));
#1043=CARTESIAN_POINT('',(190.595,-89.,8.));
#1044=CARTESIAN_POINT('',(190.595,-89.,0.));
#1045=CARTESIAN_POINT('',(193.595,-89.,8.));
#1046=CARTESIAN_POINT('Origin',(190.595,-103.,0.));
#1047=CARTESIAN_POINT('',(190.595,-103.,2.5));
#1048=CARTESIAN_POINT('',(156.38575,-103.,2.5));
#1049=CARTESIAN_POINT('',(190.595,-103.,8.));
#1050=CARTESIAN_POINT('',(190.595,-103.,8.));
#1051=CARTESIAN_POINT('',(190.595,-103.,0.));
#1052=CARTESIAN_POINT('Origin',(190.595,-89.,0.));
#1053=CARTESIAN_POINT('',(190.595,-82.3370027203319,2.5));
#1054=CARTESIAN_POINT('',(190.595,-89.,8.));
#1055=CARTESIAN_POINT('Origin',(192.095,-96.,8.));
#1056=CARTESIAN_POINT('Origin',(53.758,-87.,0.));
#1057=CARTESIAN_POINT('',(53.758,-73.,2.5));
#1058=CARTESIAN_POINT('',(53.758,-87.,2.5));
#1059=CARTESIAN_POINT('',(53.758,-81.3370027203319,2.5));
#1060=CARTESIAN_POINT('',(53.758,-73.,8.));
#1061=CARTESIAN_POINT('',(53.758,-73.,0.));
#1062=CARTESIAN_POINT('',(53.758,-87.,8.));
#1063=CARTESIAN_POINT('',(53.758,-87.,8.));
#1064=CARTESIAN_POINT('',(53.758,-87.,0.));
#1065=CARTESIAN_POINT('Origin',(53.758,-73.,0.));
#1066=CARTESIAN_POINT('',(50.758,-73.,2.5));
#1067=CARTESIAN_POINT('',(87.96725,-73.,2.5));
#1068=CARTESIAN_POINT('',(50.758,-73.,8.));
#1069=CARTESIAN_POINT('',(50.758,-73.,0.));
#1070=CARTESIAN_POINT('',(53.758,-73.,8.));
#1071=CARTESIAN_POINT('Origin',(50.758,-87.,0.));
#1072=CARTESIAN_POINT('',(50.758,-87.,2.5));
#1073=CARTESIAN_POINT('',(86.46725,-87.,2.5));
#1074=CARTESIAN_POINT('',(50.758,-87.,8.));
#1075=CARTESIAN_POINT('',(50.758,-87.,8.));
#1076=CARTESIAN_POINT('',(50.758,-87.,0.));
#1077=CARTESIAN_POINT('Origin',(50.758,-73.,0.));
#1078=CARTESIAN_POINT('',(50.758,-74.3370027203319,2.5));
#1079=CARTESIAN_POINT('',(50.758,-73.,8.));
#1080=CARTESIAN_POINT('Origin',(52.258,-80.,8.));
#1081=CARTESIAN_POINT('Origin',(193.595,-81.,0.));
#1082=CARTESIAN_POINT('',(193.595,-67.,2.5));
#1083=CARTESIAN_POINT('',(193.595,-81.,2.5));
#1084=CARTESIAN_POINT('',(193.595,-78.3370027203319,2.5));
#1085=CARTESIAN_POINT('',(193.595,-67.,8.));
#1086=CARTESIAN_POINT('',(193.595,-67.,0.));
#1087=CARTESIAN_POINT('',(193.595,-81.,8.));
#1088=CARTESIAN_POINT('',(193.595,-81.,8.));
#1089=CARTESIAN_POINT('',(193.595,-81.,0.));
#1090=CARTESIAN_POINT('Origin',(193.595,-67.,0.));
#1091=CARTESIAN_POINT('',(190.595,-67.,2.5));
#1092=CARTESIAN_POINT('',(157.88575,-67.,2.5));
#1093=CARTESIAN_POINT('',(190.595,-67.,8.));
#1094=CARTESIAN_POINT('',(190.595,-67.,0.));
#1095=CARTESIAN_POINT('',(193.595,-67.,8.));
#1096=CARTESIAN_POINT('Origin',(190.595,-81.,0.));
#1097=CARTESIAN_POINT('',(190.595,-81.,2.5));
#1098=CARTESIAN_POINT('',(156.38575,-81.,2.5));
#1099=CARTESIAN_POINT('',(190.595,-81.,8.));
#1100=CARTESIAN_POINT('',(190.595,-81.,8.));
#1101=CARTESIAN_POINT('',(190.595,-81.,0.));
#1102=CARTESIAN_POINT('Origin',(190.595,-67.,0.));
#1103=CARTESIAN_POINT('',(190.595,-71.3370027203319,2.5));
#1104=CARTESIAN_POINT('',(190.595,-67.,8.));
#1105=CARTESIAN_POINT('Origin',(192.095,-74.,8.));
#1106=CARTESIAN_POINT('Origin',(110.87,-20.9075,0.));
#1107=CARTESIAN_POINT('',(110.87,-17.9075,2.5));
#1108=CARTESIAN_POINT('',(110.87,-20.9075,2.5));
#1109=CARTESIAN_POINT('',(110.87,-48.2907527203319,2.5));
#1110=CARTESIAN_POINT('',(110.87,-17.9075,8.));
#1111=CARTESIAN_POINT('',(110.87,-17.9075,0.));
#1112=CARTESIAN_POINT('',(110.87,-20.9075,8.));
#1113=CARTESIAN_POINT('',(110.87,-20.9075,8.));
#1114=CARTESIAN_POINT('',(110.87,-20.9075,0.));
#1115=CARTESIAN_POINT('Origin',(110.87,-17.9075,0.));
#1116=CARTESIAN_POINT('',(96.87,-17.9075,2.5));
#1117=CARTESIAN_POINT('',(116.52325,-17.9075,2.5));
#1118=CARTESIAN_POINT('',(96.87,-17.9075,8.));
#1119=CARTESIAN_POINT('',(96.87,-17.9075,0.));
#1120=CARTESIAN_POINT('',(110.87,-17.9075,8.));
#1121=CARTESIAN_POINT('Origin',(96.87,-20.9075,0.));
#1122=CARTESIAN_POINT('',(96.87,-20.9075,2.5));
#1123=CARTESIAN_POINT('',(109.52325,-20.9075,2.5));
#1124=CARTESIAN_POINT('',(96.87,-20.9075,8.));
#1125=CARTESIAN_POINT('',(96.87,-20.9075,8.));
#1126=CARTESIAN_POINT('',(96.87,-20.9075,0.));
#1127=CARTESIAN_POINT('Origin',(96.87,-17.9075,0.));
#1128=CARTESIAN_POINT('',(96.87,-46.7907527203319,2.5));
#1129=CARTESIAN_POINT('',(96.87,-17.9075,8.));
#1130=CARTESIAN_POINT('Origin',(103.87,-19.4075,8.));
#1131=CARTESIAN_POINT('Origin',(178.,-27.575,0.));
#1132=CARTESIAN_POINT('',(178.,-24.575,2.5));
#1133=CARTESIAN_POINT('',(178.,-27.575,2.5));
#1134=CARTESIAN_POINT('',(178.,-51.6245027203319,2.5));
#1135=CARTESIAN_POINT('',(178.,-24.575,8.));
#1136=CARTESIAN_POINT('',(178.,-24.575,0.));
#1137=CARTESIAN_POINT('',(178.,-27.575,8.));
#1138=CARTESIAN_POINT('',(178.,-27.575,8.));
#1139=CARTESIAN_POINT('',(178.,-27.575,0.));
#1140=CARTESIAN_POINT('Origin',(178.,-24.575,0.));
#1141=CARTESIAN_POINT('',(164.,-24.575,2.5));
#1142=CARTESIAN_POINT('',(150.08825,-24.575,2.5));
#1143=CARTESIAN_POINT('',(164.,-24.575,8.));
#1144=CARTESIAN_POINT('',(164.,-24.575,0.));
#1145=CARTESIAN_POINT('',(178.,-24.575,8.));
#1146=CARTESIAN_POINT('Origin',(164.,-27.575,0.));
#1147=CARTESIAN_POINT('',(164.,-27.575,2.5));
#1148=CARTESIAN_POINT('',(143.08825,-27.575,2.5));
#1149=CARTESIAN_POINT('',(164.,-27.575,8.));
#1150=CARTESIAN_POINT('',(164.,-27.575,8.));
#1151=CARTESIAN_POINT('',(164.,-27.575,0.));
#1152=CARTESIAN_POINT('Origin',(164.,-24.575,0.));
#1153=CARTESIAN_POINT('',(164.,-50.1245027203319,2.5));
#1154=CARTESIAN_POINT('',(164.,-24.575,8.));
#1155=CARTESIAN_POINT('Origin',(171.,-26.075,8.));
#1156=CARTESIAN_POINT('Origin',(160.995,-114.535,0.));
#1157=CARTESIAN_POINT('',(142.495,-114.535,0.));
#1158=CARTESIAN_POINT('Origin',(160.995,-114.535,0.));
#1159=CARTESIAN_POINT('',(142.495,-114.535,2.5));
#1160=CARTESIAN_POINT('',(142.495,-114.535,0.));
#1161=CARTESIAN_POINT('Origin',(160.995,-114.535,2.5));
#1162=CARTESIAN_POINT('Origin',(122.1765,-75.6740054406639,2.5));
#1163=CARTESIAN_POINT('',(48.748,-15.8975,2.5));
#1164=CARTESIAN_POINT('',(195.605,-15.8975,2.5));
#1165=CARTESIAN_POINT('',(158.89075,-15.8975,2.5));
#1166=CARTESIAN_POINT('',(48.748,-135.450510881328,2.5));
#1167=CARTESIAN_POINT('',(48.748,-45.7857527203319,2.5));
#1168=CARTESIAN_POINT('',(195.605,-135.450510881328,2.5));
#1169=CARTESIAN_POINT('',(85.46225,-135.450510881328,2.5));
#1170=CARTESIAN_POINT('',(195.605,-105.562258160996,2.5));
#1171=CARTESIAN_POINT('Origin',(198.605,-12.8975,0.));
#1172=CARTESIAN_POINT('',(45.748,-12.8975,0.));
#1173=CARTESIAN_POINT('',(45.748,-12.8975,8.));
#1174=CARTESIAN_POINT('',(45.748,-12.8975,0.));
#1175=CARTESIAN_POINT('',(198.605,-12.8975,8.));
#1176=CARTESIAN_POINT('',(198.605,-12.8975,8.));
#1177=CARTESIAN_POINT('',(198.605,-12.8975,0.));
#1178=CARTESIAN_POINT('',(198.605,-12.8975,0.));
#1179=CARTESIAN_POINT('',(198.605,-12.8975,0.));
#1180=CARTESIAN_POINT('Origin',(45.748,-12.8975,0.));
#1181=CARTESIAN_POINT('',(45.748,-138.450510881328,0.));
#1182=CARTESIAN_POINT('',(45.748,-138.450510881328,8.));
#1183=CARTESIAN_POINT('',(45.748,-138.450510881328,0.));
#1184=CARTESIAN_POINT('',(45.748,-12.8975,8.));
#1185=CARTESIAN_POINT('',(45.748,-12.8975,0.));
#1186=CARTESIAN_POINT('Origin',(48.748,-135.450510881328,0.));
#1187=CARTESIAN_POINT('',(48.748,-135.450510881328,8.));
#1188=CARTESIAN_POINT('',(48.748,-135.450510881328,0.));
#1189=CARTESIAN_POINT('',(195.605,-135.450510881328,8.));
#1190=CARTESIAN_POINT('',(85.46225,-135.450510881328,8.));
#1191=CARTESIAN_POINT('',(195.605,-135.450510881328,0.));
#1192=CARTESIAN_POINT('Origin',(48.748,-15.8975,0.));
#1193=CARTESIAN_POINT('',(48.748,-15.8975,8.));
#1194=CARTESIAN_POINT('',(48.748,-15.8975,0.));
#1195=CARTESIAN_POINT('',(48.748,-45.7857527203319,8.));
#1196=CARTESIAN_POINT('Origin',(195.605,-15.8975,0.));
#1197=CARTESIAN_POINT('',(195.605,-15.8975,8.));
#1198=CARTESIAN_POINT('',(195.605,-15.8975,0.));
#1199=CARTESIAN_POINT('',(158.89075,-15.8975,8.));
#1200=CARTESIAN_POINT('Origin',(195.605,-135.450510881328,0.));
#1201=CARTESIAN_POINT('',(195.605,-105.562258160996,8.));
#1202=CARTESIAN_POINT('Origin',(198.605,-138.450510881328,0.));
#1203=CARTESIAN_POINT('',(198.605,-138.450510881328,8.));
#1204=CARTESIAN_POINT('',(198.605,-138.450510881328,8.));
#1205=CARTESIAN_POINT('',(198.605,-138.450510881328,0.));
#1206=CARTESIAN_POINT('',(198.605,-138.450510881328,0.));
#1207=CARTESIAN_POINT('',(198.605,-138.450510881328,0.));
#1208=CARTESIAN_POINT('Origin',(45.748,-138.450510881328,0.));
#1209=CARTESIAN_POINT('',(45.748,-138.450510881328,8.));
#1210=CARTESIAN_POINT('',(45.748,-138.450510881328,0.));
#1211=CARTESIAN_POINT('Origin',(122.1765,-75.6740054406639,8.));
#1212=CARTESIAN_POINT('Origin',(122.1765,-75.6740054406639,0.));
#1213=UNCERTAINTY_MEASURE_WITH_UNIT(LENGTH_MEASURE(0.01),#1217,
'DISTANCE_ACCURACY_VALUE',
'Maximum model space distance between geometric entities at asserted c
onnectivities');
#1214=UNCERTAINTY_MEASURE_WITH_UNIT(LENGTH_MEASURE(0.01),#1217,
'DISTANCE_ACCURACY_VALUE',
'Maximum model space distance between geometric entities at asserted c
onnectivities');
#1215=(
GEOMETRIC_REPRESENTATION_CONTEXT(3)
GLOBAL_UNCERTAINTY_ASSIGNED_CONTEXT((#1213))
GLOBAL_UNIT_ASSIGNED_CONTEXT((#1217,#1219,#1220))
REPRESENTATION_CONTEXT('','3D')
);
#1216=(
GEOMETRIC_REPRESENTATION_CONTEXT(3)
GLOBAL_UNCERTAINTY_ASSIGNED_CONTEXT((#1214))
GLOBAL_UNIT_ASSIGNED_CONTEXT((#1217,#1219,#1220))
REPRESENTATION_CONTEXT('','3D')
);
#1217=(
LENGTH_UNIT()
NAMED_UNIT(*)
SI_UNIT(.MILLI.,.METRE.)
);
#1218=(
LENGTH_UNIT()
NAMED_UNIT(*)
SI_UNIT($,.METRE.)
);
#1219=(
NAMED_UNIT(*)
PLANE_ANGLE_UNIT()
SI_UNIT($,.RADIAN.)
);
#1220=(
NAMED_UNIT(*)
SI_UNIT($,.STERADIAN.)
SOLID_ANGLE_UNIT()
);
#1221=SHAPE_DEFINITION_REPRESENTATION(#1222,#1223);
#1222=PRODUCT_DEFINITION_SHAPE('',$,#1225);
#1223=SHAPE_REPRESENTATION('',(#773),#1215);
#1224=PRODUCT_DEFINITION_CONTEXT('part definition',#1229,'design');
#1225=PRODUCT_DEFINITION('(\X2\672A4FDD5B58\X0\)','(\X2\672A4FDD5B58\X0\)',
#1226,#1224);
#1226=PRODUCT_DEFINITION_FORMATION('',$,#1231);
#1227=PRODUCT_RELATED_PRODUCT_CATEGORY('(\X2\672A4FDD5B58\X0\)',
'(\X2\672A4FDD5B58\X0\)',(#1231));
#1228=APPLICATION_PROTOCOL_DEFINITION('international standard',
'automotive_design',2009,#1229);
#1229=APPLICATION_CONTEXT(
'Core Data for Automotive Mechanical Design Process');
#1230=PRODUCT_CONTEXT('part definition',#1229,'mechanical');
#1231=PRODUCT('(\X2\672A4FDD5B58\X0\)','(\X2\672A4FDD5B58\X0\)',$,(#1230));
#1232=PRESENTATION_STYLE_ASSIGNMENT((#1233));
#1233=SURFACE_STYLE_USAGE(.BOTH.,#1234);
#1234=SURFACE_SIDE_STYLE('',(#1235));
#1235=SURFACE_STYLE_FILL_AREA(#1236);
#1236=FILL_AREA_STYLE('\X2\92FC\X0\ - \X2\30B530C630F3\X0\',(#1237));
#1237=FILL_AREA_STYLE_COLOUR('\X2\92FC\X0\ - \X2\30B530C630F3\X0\',#1238);
#1238=COLOUR_RGB('\X2\92FC\X0\ - \X2\30B530C630F3\X0\',0.627450980392157,
0.627450980392157,0.627450980392157);
ENDSEC;
END-ISO-10303-21;
