  0
SECTION
  2
HEADER
  9
$ACADVER
  1
AC1018
  9
$HANDSEED
  5
FFFFFFFF
  9
$ANGBASE
  50
0.0
  9
$ANGDIR
  70
1
  9
$MEASUREMENT
  70
0
  9
$INSUNITS
  70
1
  0
ENDSEC
  0
SECTION
  2
TABLES
  0
TABLE
  2
APPID
  5
1
330
0
100
AcDbSymbolTable
 70
1
  0
APPID
  5
2
330
1
100
AcDbSymbolTableRecord
100
AcDbRegAppTableRecord
  2
ACAD
 70
0
  0
ENDTAB
  0
TABLE
  2
LTYPE
  5
3
330
0
100
AcDbSymbolTable
 70
6
  0
LTYPE
  5
4
330
3
100
AcDbSymbolTableRecord
100
AcDbLinetypeTableRecord
  2
ByBlock
 70
0
  3

 72
65
 73
0
 40
0
  0
LTYPE
  5
5
330
3
100
AcDbSymbolTableRecord
100
AcDbLinetypeTableRecord
  2
ByLayer
 70
0
  3

 72
65
 73
0
 40
0
  0
LTYPE
  5
6
330
3
100
AcDbSymbolTableRecord
100
AcDbLinetypeTableRecord
  2
CONTINUOUS
 70
0
  3
Solid line
 72
65
 73
0
 40
0
  0
LTYPE
  5
7
330
3
100
AcDbSymbolTableRecord
100
AcDbLinetypeTableRecord
  2
DASHDOT
 70
0
  3
Dash Dot ____ _ ____ _
 72
65
 73
4
 40
2
 49
1.25
 74
0
 49
-0.25
 74
0
 49
0.25
 74
0
 49
-0.25
 74
0
  0
LTYPE
  5
8
330
3
100
AcDbSymbolTableRecord
100
AcDbLinetypeTableRecord
  2
DASHED
 70
0
  3
Dashed __ __ __ __ __
 72
65
 73
2
 40
0.75
 49
0.5
 74
0
 49
-0.25
 74
0
  0
LTYPE
  5
9
330
3
100
AcDbSymbolTableRecord
100
AcDbLinetypeTableRecord
  2
DOTTED
 70
0
  3
Dotted .  .  .  .
 72
65
 73
2
 40
0.2
 49
0.0
 74
0
 49
-0.2
 74
0
  0
ENDTAB
  0
TABLE
  2
STYLE
  5
A
330
0
100
AcDbSymbolTable
 70
4
  0
STYLE
  5
B
330
A
100
AcDbSymbolTableRecord
100
AcDbTextStyleTableRecord
  2
KICAD
 70
0
 40
0
 41
1
 42
1
 50
0
 71
0
  3
isocp.shx
  0
STYLE
  5
C
330
A
100
AcDbSymbolTableRecord
100
AcDbTextStyleTableRecord
  2
KICADB
 70
0
 40
0
 41
1
 42
1
 50
0
 71
0
  3
isocp.shx
  0
STYLE
  5
D
330
A
100
AcDbSymbolTableRecord
100
AcDbTextStyleTableRecord
  2
KICADI
 70
0
 40
0
 41
1
 42
1
 50
15
 71
0
  3
isocp.shx
  0
STYLE
  5
E
330
A
100
AcDbSymbolTableRecord
100
AcDbTextStyleTableRecord
  2
KICADBI
 70
0
 40
0
 41
1
 42
1
 50
15
 71
0
  3
isocp.shx
  0
ENDTAB
  0
TABLE
  2
LAYER
  5
F
330
0
100
AcDbSymbolTable
 70
2
  0
LAYER
  5
12
330
F
100
AcDbSymbolTableRecord
100
AcDbLayerTableRecord
  2
0
 70
0
 62
7
  6
CONTINUOUS
390
10
  0
LAYER
  5
13
330
F
100
AcDbSymbolTableRecord
100
AcDbLayerTableRecord
  2
Edge.Cuts
 70
0
 62
254
420
13685453
  6
CONTINUOUS
390
10
  0
ENDTAB
  0
TABLE
  2
VPORT
  5
14
330
0
100
AcDbSymbolTable
 70
0
  0
ENDTAB
  0
TABLE
  2
VIEW
  5
15
330
0
100
AcDbSymbolTable
 70
0
  0
ENDTAB
  0
TABLE
  2
UCS
  5
16
330
0
100
AcDbSymbolTable
 70
0
  0
ENDTAB
  0
TABLE
  2
DIMSTYLE
  5
17
330
0
100
AcDbSymbolTable
 70
1
100
AcDbDimStyleTable
 71
0
  0
DIMSTYLE
105
18
330
17
100
AcDbSymbolTableRecord
100
AcDbDimStyleTableRecord
  2
Standard
 70
0
  0
ENDTAB
  0
TABLE
  2
BLOCK_RECORD
  5
19
330
0
100
AcDbSymbolTable
 70
3
  0
BLOCK_RECORD
  5
1A
330
19
100
AcDbSymbolTableRecord
100
AcDbBlockTableRecord
  2
*Model_Space
340
1D
 70
0
280
1
281
0
  0
BLOCK_RECORD
  5
1B
330
19
100
AcDbSymbolTableRecord
100
AcDbBlockTableRecord
  2
*Paper_Space
340
1E
 70
0
280
1
281
0
  0
BLOCK_RECORD
  5
1C
330
19
100
AcDbSymbolTableRecord
100
AcDbBlockTableRecord
  2
*Paper_Space0
340
1F
 70
0
280
1
281
0
  0
ENDTAB
  0
ENDSEC
  0
SECTION
  2
BLOCKS
  0
BLOCK
  5
22
330
1A
100
AcDbEntity
  8
0
100
AcDbBlockBegin
  2
*Model_Space
 70
0
 10
0.0
 20
0.0
 30
0.0
  3
*Model_Space
  1

  0
ENDBLK
  5
23
330
1A
100
AcDbEntity
  8
0
100
AcDbBlockEnd
  0
BLOCK
  5
24
330
1B
100
AcDbEntity
 67
1
  8
0
100
AcDbBlockBegin
  2
*Paper_Space
 70
0
 10
0.0
 20
0.0
 30
0.0
  3
*Paper_Space
  1

  0
ENDBLK
  5
25
330
1B
100
AcDbEntity
 67
1
  8
0
100
AcDbBlockEnd
  0
BLOCK
  5
26
330
1C
100
AcDbEntity
 67
1
  8
0
100
AcDbBlockBegin
  2
*Paper_Space0
 70
0
 10
0.0
 20
0.0
 30
0.0
  3
*Paper_Space0
  1

  0
ENDBLK
  5
27
330
1C
100
AcDbEntity
 67
1
  8
0
100
AcDbBlockEnd
  0
ENDSEC
  0
SECTION
  2
ENTITIES
  0
ARC
  5
28
330
1A
100
AcDbEntity
  8
Edge.Cuts
100
AcDbCircle
 10
2.1945787401574801
 20
-1.1634842519685038
 30
0
 40
0.0393696850393701
100
AcDbArc
 50
89.99942704
 51
180.00000000
  0
LINE
  5
29
330
1A
100
AcDbEntity
  8
Edge.Cuts
  6
CONTINUOUS
100
AcDbLine
 10
2.1560233464566929
 20
-3.7844207874015745
 30
0
 11
2.1552090551181102
 21
-1.1634842519685038
 31
0
  0
LINE
  5
2A
330
1A
100
AcDbEntity
  8
Edge.Cuts
  6
CONTINUOUS
100
AcDbLine
 10
2.7093800787401574
 20
-5.1152572440944883
 30
0
 11
2.1560233464566929
 21
-3.7844207874015745
 31
0
  0
ARC
  5
2B
330
1A
100
AcDbEntity
  8
Edge.Cuts
100
AcDbCircle
 10
2.7472322834645668
 20
-5.0998385826771653
 30
0
 40
0.0408722458164254
100
AcDbArc
 50
-157.83698777
 51
-71.61986984
  0
LINE
  5
2C
330
1A
100
AcDbEntity
  8
Edge.Cuts
  6
CONTINUOUS
100
AcDbLine
 10
2.7601201181102359
 20
-5.1386257480314956
 30
0
 11
3.4171485826771653
 21
-4.866971811023622
 31
0
  0
LINE
  5
2D
330
1A
100
AcDbEntity
  8
Edge.Cuts
  6
CONTINUOUS
100
AcDbLine
 10
2.9249999999999998
 20
-1.1241141732283464
 30
0
 11
2.1945791338582676
 21
-1.1241141732283464
 31
0
  0
ARC
  5
2E
330
1A
100
AcDbEntity
  8
Edge.Cuts
100
AcDbCircle
 10
3.0037401574803151
 20
-1.0518700787401574
 30
0
 40
0.0393700787401575
100
AcDbArc
 50
90.00000000
 51
180.00000000
  0
ARC
  5
2F
330
1A
100
AcDbEntity
  8
Edge.Cuts
100
AcDbCircle
 10
2.9249999999999998
 20
-1.084744094488189
 30
0
 40
0.0393700787401575
100
AcDbArc
 50
-90.00000000
 51
-0.00000000
  0
LINE
  5
30
330
1A
100
AcDbEntity
  8
Edge.Cuts
  6
CONTINUOUS
100
AcDbLine
 10
2.9643700787401572
 20
-1.084744094488189
 30
0
 11
2.9643700787401572
 21
-1.0518700787401574
 31
0
  0
LINE
  5
31
330
1A
100
AcDbEntity
  8
Edge.Cuts
  6
CONTINUOUS
100
AcDbLine
 10
3.4171485826771653
 20
-4.866971811023622
 30
0
 11
4.1035433070866141
 21
-4.6832677165354326
 31
0
  0
LINE
  5
32
330
1A
100
AcDbEntity
  8
Edge.Cuts
  6
CONTINUOUS
100
AcDbLine
 10
3.6749999999999998
 20
-1.0125
 30
0
 11
3.0037401574803151
 21
-1.0125
 31
0
  0
LINE
  5
33
330
1A
100
AcDbEntity
  8
Edge.Cuts
  6
CONTINUOUS
100
AcDbLine
 10
3.7143700787401572
 20
-0.9018700787401575
 30
0
 11
3.7143700787401572
 21
-0.9731299212598425
 31
0
  0
ARC
  5
34
330
1A
100
AcDbEntity
  8
Edge.Cuts
100
AcDbCircle
 10
3.7537401574803151
 20
-0.9018700787401575
 30
0
 40
0.0393700787401575
100
AcDbArc
 50
90.00000000
 51
180.00000000
  0
ARC
  5
35
330
1A
100
AcDbEntity
  8
Edge.Cuts
100
AcDbCircle
 10
3.6749999999999998
 20
-0.9731299212598425
 30
0
 40
0.0393700787401575
100
AcDbArc
 50
-90.00000000
 51
-0.00000000
  0
ARC
  5
36
330
1A
100
AcDbEntity
  8
Edge.Cuts
100
AcDbCircle
 10
4.0751968503937004
 20
-4.0399606299212598
 30
0
 40
0.1014411806003131
100
AcDbArc
 50
-244.72786324
 51
-175.56734167
  0
LINE
  5
37
330
1A
100
AcDbEntity
  8
Edge.Cuts
  6
CONTINUOUS
100
AcDbLine
 10
4.0318897637795272
 20
-3.9482284251968505
 30
0
 11
5.5312992125984248
 21
-3.9478346456692912
 31
0
  0
LINE
  5
38
330
1A
100
AcDbEntity
  8
Edge.Cuts
  6
CONTINUOUS
100
AcDbLine
 10
4.1322005118110239
 20
-4.6346257480314961
 30
0
 11
3.9744114173228344
 21
-4.0478007480314959
 31
0
  0
ARC
  5
39
330
1A
100
AcDbEntity
  8
Edge.Cuts
100
AcDbCircle
 10
4.0956692913385826
 20
-4.6458661417322835
 30
0
 40
0.0382214144133206
100
AcDbArc
 50
-78.11134196
 51
17.10275500
  0
LINE
  5
3A
330
1A
100
AcDbEntity
  8
Edge.Cuts
  6
CONTINUOUS
100
AcDbLine
 10
4.4249999999999998
 20
-0.8624999999999999
 30
0
 11
3.7537401574803151
 21
-0.8624999999999999
 31
0
  0
LINE
  5
3B
330
1A
100
AcDbEntity
  8
Edge.Cuts
  6
CONTINUOUS
100
AcDbLine
 10
4.4643700787401572
 20
-0.7893700787401574
 30
0
 11
4.4643700787401572
 21
-0.8231299212598425
 31
0
  0
ARC
  5
3C
330
1A
100
AcDbEntity
  8
Edge.Cuts
100
AcDbCircle
 10
4.5037401574803146
 20
-0.7893700787401574
 30
0
 40
0.0393700787401575
100
AcDbArc
 50
90.00000000
 51
180.00000000
  0
ARC
  5
3D
330
1A
100
AcDbEntity
  8
Edge.Cuts
100
AcDbCircle
 10
4.4249999999999998
 20
-0.8231299212598425
 30
0
 40
0.0393700787401575
100
AcDbArc
 50
-90.00000000
 51
-0.00000000
  0
LINE
  5
3E
330
1A
100
AcDbEntity
  8
Edge.Cuts
  6
CONTINUOUS
100
AcDbLine
 10
5.1749999999999998
 20
-0.7499999212598425
 30
0
 11
4.5037401574803146
 21
-0.75
 31
0
  0
ARC
  5
3F
330
1A
100
AcDbEntity
  8
Edge.Cuts
100
AcDbCircle
 10
5.1749999999999998
 20
-0.7893700787401574
 30
0
 40
0.039370157480315
100
AcDbArc
 50
2.71947055
 51
90.00000000
  0
ARC
  5
40
330
1A
100
AcDbEntity
  8
Edge.Cuts
100
AcDbCircle
 10
5.2537401574803146
 20
-0.7856299212598425
 30
0
 40
0.0393701181102362
100
AcDbArc
 50
-177.27955108
 51
-90.00000000
  0
LINE
  5
41
330
1A
100
AcDbEntity
  8
Edge.Cuts
  6
CONTINUOUS
100
AcDbLine
 10
5.9249999999999998
 20
-0.825
 30
0
 11
5.2537401574803146
 21
-0.8250000393700787
 31
0
  0
ARC
  5
42
330
1A
100
AcDbEntity
  8
Edge.Cuts
100
AcDbCircle
 10
5.9249999999999998
 20
-0.8643700787401575
 30
0
 40
0.0393700787401575
100
AcDbArc
 50
0.00000000
 51
90.00000000
  0
ARC
  5
43
330
1A
100
AcDbEntity
  8
Edge.Cuts
100
AcDbCircle
 10
5.5312992125984248
 20
-3.9872047244094486
 30
0
 40
0.0393700787401575
100
AcDbArc
 50
0.00000000
 51
90.00000000
  0
LINE
  5
44
330
1A
100
AcDbEntity
  8
Edge.Cuts
  6
CONTINUOUS
100
AcDbLine
 10
5.9643700787401572
 20
-1.0856299212598426
 30
0
 11
5.9643700787401572
 21
-0.8643700787401575
 31
0
  0
LINE
  5
45
330
1A
100
AcDbEntity
  8
Edge.Cuts
  6
CONTINUOUS
100
AcDbLine
 10
5.5706692913385822
 20
-4.0856299212598426
 30
0
 11
5.5706692913385822
 21
-3.9872047244094486
 31
0
  0
ARC
  5
46
330
1A
100
AcDbEntity
  8
Edge.Cuts
100
AcDbCircle
 10
6.0037401574803146
 20
-1.0856299212598426
 30
0
 40
0.0393700787401575
100
AcDbArc
 50
-180.00000000
 51
-90.00000000
  0
ARC
  5
47
330
1A
100
AcDbEntity
  8
Edge.Cuts
100
AcDbCircle
 10
5.6100393700787397
 20
-4.0856299212598426
 30
0
 40
0.0393700787401575
100
AcDbArc
 50
-180.00000000
 51
-90.00000000
  0
LINE
  5
48
330
1A
100
AcDbEntity
  8
Edge.Cuts
  6
CONTINUOUS
100
AcDbLine
 10
5.8840458661417321
 20
-4.125
 30
0
 11
5.6100393700787397
 21
-4.125
 31
0
  0
ARC
  5
49
330
1A
100
AcDbEntity
  8
Edge.Cuts
100
AcDbCircle
 10
5.8840472440944884
 20
-4.1643700787401574
 30
0
 40
0.0393700787642717
100
AcDbArc
 50
0.00000000
 51
90.00200535
  0
LINE
  5
4A
330
1A
100
AcDbEntity
  8
Edge.Cuts
  6
CONTINUOUS
100
AcDbLine
 10
5.9234159448818895
 20
-4.1643700787401574
 30
0
 11
5.9233568897637792
 21
-4.8498031496062994
 31
0
  0
ARC
  5
4B
330
1A
100
AcDbEntity
  8
Edge.Cuts
100
AcDbCircle
 10
5.9627283464566929
 20
-4.8498031496062994
 30
0
 40
0.0393700787642717
100
AcDbArc
 50
-180.00000000
 51
-90.00200535
  0
LINE
  5
4C
330
1A
100
AcDbEntity
  8
Edge.Cuts
  6
CONTINUOUS
100
AcDbLine
 10
6.1365458661417325
 20
-4.8891732283464568
 30
0
 11
5.9627269685039366
 21
-4.8891732283464568
 31
0
  0
LINE
  5
4D
330
1A
100
AcDbEntity
  8
Edge.Cuts
  6
CONTINUOUS
100
AcDbLine
 10
6.6955303149606298
 20
-4.1251899212598424
 30
0
 11
7.4249999999999998
 21
-4.125
 31
0
  0
LINE
  5
4E
330
1A
100
AcDbEntity
  8
Edge.Cuts
  6
CONTINUOUS
100
AcDbLine
 10
6.6956692913385822
 20
-4.125
 30
0
 11
6.1365458661417325
 21
-4.8891732283464568
 31
0
  0
LINE
  5
4F
330
1A
100
AcDbEntity
  8
Edge.Cuts
  6
CONTINUOUS
100
AcDbLine
 10
7.4249999999999998
 20
-1.125
 30
0
 11
6.0037401574803146
 21
-1.125
 31
0
  0
ARC
  5
50
330
1A
100
AcDbEntity
  8
Edge.Cuts
100
AcDbCircle
 10
7.4249999999999998
 20
-1.1643700787401574
 30
0
 40
0.0393700787401575
100
AcDbArc
 50
0.00000000
 51
90.00000000
  0
ARC
  5
51
330
1A
100
AcDbEntity
  8
Edge.Cuts
100
AcDbCircle
 10
7.4249999999999998
 20
-4.0856299212598426
 30
0
 40
0.0393700787401575
100
AcDbArc
 50
-90.00000000
 51
-0.00000000
  0
LINE
  5
52
330
1A
100
AcDbEntity
  8
Edge.Cuts
  6
CONTINUOUS
100
AcDbLine
 10
7.4643700787401572
 20
-4.0856299212598426
 30
0
 11
7.4643700787401572
 21
-1.1643700787401574
 31
0
  0
LINE
  5
53
330
1A
100
AcDbEntity
  8
Edge.Cuts
  6
CONTINUOUS
100
AcDbLine
 10
3.8137795275590549
 20
-3.2119094488188975
 30
0
 11
3.8137795275590549
 21
-3.7630905511811021
 31
0
  0
LINE
  5
54
330
1A
100
AcDbEntity
  8
Edge.Cuts
  6
CONTINUOUS
100
AcDbLine
 10
3.8137795275590549
 20
-3.7630905511811021
 30
0
 11
4.36496062992126
 21
-3.7630905511811021
 31
0
  0
LINE
  5
55
330
1A
100
AcDbEntity
  8
Edge.Cuts
  6
CONTINUOUS
100
AcDbLine
 10
4.36496062992126
 20
-3.2119094488188975
 30
0
 11
3.8137795275590549
 21
-3.2119094488188975
 31
0
  0
LINE
  5
56
330
1A
100
AcDbEntity
  8
Edge.Cuts
  6
CONTINUOUS
100
AcDbLine
 10
4.36496062992126
 20
-3.7630905511811021
 30
0
 11
4.36496062992126
 21
-3.2119094488188975
 31
0
  0
LINE
  5
57
330
1A
100
AcDbEntity
  8
Edge.Cuts
  6
CONTINUOUS
100
AcDbLine
 10
5.3137795275590554
 20
-3.1744094488188974
 30
0
 11
5.3137795275590554
 21
-3.7255905511811025
 31
0
  0
LINE
  5
58
330
1A
100
AcDbEntity
  8
Edge.Cuts
  6
CONTINUOUS
100
AcDbLine
 10
5.3137795275590554
 20
-3.7255905511811025
 30
0
 11
5.86496062992126
 21
-3.7255905511811025
 31
0
  0
LINE
  5
59
330
1A
100
AcDbEntity
  8
Edge.Cuts
  6
CONTINUOUS
100
AcDbLine
 10
5.86496062992126
 20
-3.1744094488188974
 30
0
 11
5.3137795275590554
 21
-3.1744094488188974
 31
0
  0
LINE
  5
5A
330
1A
100
AcDbEntity
  8
Edge.Cuts
  6
CONTINUOUS
100
AcDbLine
 10
5.86496062992126
 20
-3.7255905511811025
 30
0
 11
5.86496062992126
 21
-3.1744094488188974
 31
0
  0
LINE
  5
5B
330
1A
100
AcDbEntity
  8
Edge.Cuts
  6
CONTINUOUS
100
AcDbLine
 10
3.8137795275590549
 20
-2.4619094488188975
 30
0
 11
3.8137795275590549
 21
-3.0130905511811021
 31
0
  0
LINE
  5
5C
330
1A
100
AcDbEntity
  8
Edge.Cuts
  6
CONTINUOUS
100
AcDbLine
 10
3.8137795275590549
 20
-3.0130905511811021
 30
0
 11
4.36496062992126
 21
-3.0130905511811021
 31
0
  0
LINE
  5
5D
330
1A
100
AcDbEntity
  8
Edge.Cuts
  6
CONTINUOUS
100
AcDbLine
 10
4.36496062992126
 20
-2.4619094488188975
 30
0
 11
3.8137795275590549
 21
-2.4619094488188975
 31
0
  0
LINE
  5
5E
330
1A
100
AcDbEntity
  8
Edge.Cuts
  6
CONTINUOUS
100
AcDbLine
 10
4.36496062992126
 20
-3.0130905511811021
 30
0
 11
4.36496062992126
 21
-2.4619094488188975
 31
0
  0
LINE
  5
5F
330
1A
100
AcDbEntity
  8
Edge.Cuts
  6
CONTINUOUS
100
AcDbLine
 10
3.0637795275590549
 20
-3.3619094488188974
 30
0
 11
3.0637795275590549
 21
-3.9130905511811025
 31
0
  0
LINE
  5
60
330
1A
100
AcDbEntity
  8
Edge.Cuts
  6
CONTINUOUS
100
AcDbLine
 10
3.0637795275590549
 20
-3.9130905511811025
 30
0
 11
3.6149606299212595
 21
-3.9130905511811025
 31
0
  0
LINE
  5
61
330
1A
100
AcDbEntity
  8
Edge.Cuts
  6
CONTINUOUS
100
AcDbLine
 10
3.6149606299212595
 20
-3.3619094488188974
 30
0
 11
3.0637795275590549
 21
-3.3619094488188974
 31
0
  0
LINE
  5
62
330
1A
100
AcDbEntity
  8
Edge.Cuts
  6
CONTINUOUS
100
AcDbLine
 10
3.6149606299212595
 20
-3.9130905511811025
 30
0
 11
3.6149606299212595
 21
-3.3619094488188974
 31
0
  0
LINE
  5
63
330
1A
100
AcDbEntity
  8
Edge.Cuts
  6
CONTINUOUS
100
AcDbLine
 10
5.3137795275590554
 20
-2.4244094488188974
 30
0
 11
5.3137795275590554
 21
-2.9755905511811025
 31
0
  0
LINE
  5
64
330
1A
100
AcDbEntity
  8
Edge.Cuts
  6
CONTINUOUS
100
AcDbLine
 10
5.3137795275590554
 20
-2.9755905511811025
 30
0
 11
5.86496062992126
 21
-2.9755905511811025
 31
0
  0
LINE
  5
65
330
1A
100
AcDbEntity
  8
Edge.Cuts
  6
CONTINUOUS
100
AcDbLine
 10
5.86496062992126
 20
-2.4244094488188974
 30
0
 11
5.3137795275590554
 21
-2.4244094488188974
 31
0
  0
LINE
  5
66
330
1A
100
AcDbEntity
  8
Edge.Cuts
  6
CONTINUOUS
100
AcDbLine
 10
5.86496062992126
 20
-2.9755905511811025
 30
0
 11
5.86496062992126
 21
-2.4244094488188974
 31
0
  0
LINE
  5
67
330
1A
100
AcDbEntity
  8
Edge.Cuts
  6
CONTINUOUS
100
AcDbLine
 10
4.5637795275590554
 20
-2.3494094488188977
 30
0
 11
4.5637795275590554
 21
-2.9005905511811023
 31
0
  0
LINE
  5
68
330
1A
100
AcDbEntity
  8
Edge.Cuts
  6
CONTINUOUS
100
AcDbLine
 10
4.5637795275590554
 20
-2.9005905511811023
 30
0
 11
5.11496062992126
 21
-2.9005905511811023
 31
0
  0
LINE
  5
69
330
1A
100
AcDbEntity
  8
Edge.Cuts
  6
CONTINUOUS
100
AcDbLine
 10
5.11496062992126
 20
-2.3494094488188977
 30
0
 11
4.5637795275590554
 21
-2.3494094488188977
 31
0
  0
LINE
  5
6A
330
1A
100
AcDbEntity
  8
Edge.Cuts
  6
CONTINUOUS
100
AcDbLine
 10
5.11496062992126
 20
-2.9005905511811023
 30
0
 11
5.11496062992126
 21
-2.3494094488188977
 31
0
  0
LINE
  5
6B
330
1A
100
AcDbEntity
  8
Edge.Cuts
  6
CONTINUOUS
100
AcDbLine
 10
3.0637795275590549
 20
-1.1119094488188976
 30
0
 11
3.0637795275590549
 21
-1.6630905511811023
 31
0
  0
LINE
  5
6C
330
1A
100
AcDbEntity
  8
Edge.Cuts
  6
CONTINUOUS
100
AcDbLine
 10
3.0637795275590549
 20
-1.6630905511811023
 30
0
 11
3.6149606299212595
 21
-1.6630905511811023
 31
0
  0
LINE
  5
6D
330
1A
100
AcDbEntity
  8
Edge.Cuts
  6
CONTINUOUS
100
AcDbLine
 10
3.6149606299212595
 20
-1.1119094488188976
 30
0
 11
3.0637795275590549
 21
-1.1119094488188976
 31
0
  0
LINE
  5
6E
330
1A
100
AcDbEntity
  8
Edge.Cuts
  6
CONTINUOUS
100
AcDbLine
 10
3.6149606299212595
 20
-1.6630905511811023
 30
0
 11
3.6149606299212595
 21
-1.1119094488188976
 31
0
  0
LINE
  5
6F
330
1A
100
AcDbEntity
  8
Edge.Cuts
  6
CONTINUOUS
100
AcDbLine
 10
4.5637795275590554
 20
-1.5994094488188977
 30
0
 11
4.5637795275590554
 21
-2.1505905511811023
 31
0
  0
LINE
  5
70
330
1A
100
AcDbEntity
  8
Edge.Cuts
  6
CONTINUOUS
100
AcDbLine
 10
4.5637795275590554
 20
-2.1505905511811023
 30
0
 11
5.11496062992126
 21
-2.1505905511811023
 31
0
  0
LINE
  5
71
330
1A
100
AcDbEntity
  8
Edge.Cuts
  6
CONTINUOUS
100
AcDbLine
 10
5.11496062992126
 20
-1.5994094488188977
 30
0
 11
4.5637795275590554
 21
-1.5994094488188977
 31
0
  0
LINE
  5
72
330
1A
100
AcDbEntity
  8
Edge.Cuts
  6
CONTINUOUS
100
AcDbLine
 10
5.11496062992126
 20
-2.1505905511811023
 30
0
 11
5.11496062992126
 21
-1.5994094488188977
 31
0
  0
LINE
  5
73
330
1A
100
AcDbEntity
  8
Edge.Cuts
  6
CONTINUOUS
100
AcDbLine
 10
5.3137795275590554
 20
-1.6744094488188976
 30
0
 11
5.3137795275590554
 21
-2.2255905511811025
 31
0
  0
LINE
  5
74
330
1A
100
AcDbEntity
  8
Edge.Cuts
  6
CONTINUOUS
100
AcDbLine
 10
5.3137795275590554
 20
-2.2255905511811025
 30
0
 11
5.86496062992126
 21
-2.2255905511811025
 31
0
  0
LINE
  5
75
330
1A
100
AcDbEntity
  8
Edge.Cuts
  6
CONTINUOUS
100
AcDbLine
 10
5.86496062992126
 20
-1.6744094488188976
 30
0
 11
5.3137795275590554
 21
-1.6744094488188976
 31
0
  0
LINE
  5
76
330
1A
100
AcDbEntity
  8
Edge.Cuts
  6
CONTINUOUS
100
AcDbLine
 10
5.86496062992126
 20
-2.2255905511811025
 30
0
 11
5.86496062992126
 21
-1.6744094488188976
 31
0
  0
LINE
  5
77
330
1A
100
AcDbEntity
  8
Edge.Cuts
  6
CONTINUOUS
100
AcDbLine
 10
4.5637795275590554
 20
-0.8494094488188976
 30
0
 11
4.5637795275590554
 21
-1.4005905511811023
 31
0
  0
LINE
  5
78
330
1A
100
AcDbEntity
  8
Edge.Cuts
  6
CONTINUOUS
100
AcDbLine
 10
4.5637795275590554
 20
-1.4005905511811023
 30
0
 11
5.11496062992126
 21
-1.4005905511811023
 31
0
  0
LINE
  5
79
330
1A
100
AcDbEntity
  8
Edge.Cuts
  6
CONTINUOUS
100
AcDbLine
 10
5.11496062992126
 20
-0.8494094488188976
 30
0
 11
4.5637795275590554
 21
-0.8494094488188976
 31
0
  0
LINE
  5
7A
330
1A
100
AcDbEntity
  8
Edge.Cuts
  6
CONTINUOUS
100
AcDbLine
 10
5.11496062992126
 20
-1.4005905511811023
 30
0
 11
5.11496062992126
 21
-0.8494094488188976
 31
0
  0
LINE
  5
7B
330
1A
100
AcDbEntity
  8
Edge.Cuts
  6
CONTINUOUS
100
AcDbLine
 10
6.0637795275590554
 20
-1.9744094488188977
 30
0
 11
6.0637795275590554
 21
-2.5255905511811023
 31
0
  0
LINE
  5
7C
330
1A
100
AcDbEntity
  8
Edge.Cuts
  6
CONTINUOUS
100
AcDbLine
 10
6.0637795275590554
 20
-2.5255905511811023
 30
0
 11
6.61496062992126
 21
-2.5255905511811023
 31
0
  0
LINE
  5
7D
330
1A
100
AcDbEntity
  8
Edge.Cuts
  6
CONTINUOUS
100
AcDbLine
 10
6.61496062992126
 20
-1.9744094488188977
 30
0
 11
6.0637795275590554
 21
-1.9744094488188977
 31
0
  0
LINE
  5
7E
330
1A
100
AcDbEntity
  8
Edge.Cuts
  6
CONTINUOUS
100
AcDbLine
 10
6.61496062992126
 20
-2.5255905511811023
 30
0
 11
6.61496062992126
 21
-1.9744094488188977
 31
0
  0
LINE
  5
7F
330
1A
100
AcDbEntity
  8
Edge.Cuts
  6
CONTINUOUS
100
AcDbLine
 10
3.0637795275590549
 20
-2.6119094488188974
 30
0
 11
3.0637795275590549
 21
-3.1630905511811025
 31
0
  0
LINE
  5
80
330
1A
100
AcDbEntity
  8
Edge.Cuts
  6
CONTINUOUS
100
AcDbLine
 10
3.0637795275590549
 20
-3.1630905511811025
 30
0
 11
3.6149606299212595
 21
-3.1630905511811025
 31
0
  0
LINE
  5
81
330
1A
100
AcDbEntity
  8
Edge.Cuts
  6
CONTINUOUS
100
AcDbLine
 10
3.6149606299212595
 20
-2.6119094488188974
 30
0
 11
3.0637795275590549
 21
-2.6119094488188974
 31
0
  0
LINE
  5
82
330
1A
100
AcDbEntity
  8
Edge.Cuts
  6
CONTINUOUS
100
AcDbLine
 10
3.6149606299212595
 20
-3.1630905511811025
 30
0
 11
3.6149606299212595
 21
-2.6119094488188974
 31
0
  0
LINE
  5
83
330
1A
100
AcDbEntity
  8
Edge.Cuts
  6
CONTINUOUS
100
AcDbLine
 10
2.3137795275590549
 20
-2.4619094488188975
 30
0
 11
2.3137795275590549
 21
-3.0130905511811021
 31
0
  0
LINE
  5
84
330
1A
100
AcDbEntity
  8
Edge.Cuts
  6
CONTINUOUS
100
AcDbLine
 10
2.3137795275590549
 20
-3.0130905511811021
 30
0
 11
2.86496062992126
 21
-3.0130905511811021
 31
0
  0
LINE
  5
85
330
1A
100
AcDbEntity
  8
Edge.Cuts
  6
CONTINUOUS
100
AcDbLine
 10
2.86496062992126
 20
-2.4619094488188975
 30
0
 11
2.3137795275590549
 21
-2.4619094488188975
 31
0
  0
LINE
  5
86
330
1A
100
AcDbEntity
  8
Edge.Cuts
  6
CONTINUOUS
100
AcDbLine
 10
2.86496062992126
 20
-3.0130905511811021
 30
0
 11
2.86496062992126
 21
-2.4619094488188975
 31
0
  0
LINE
  5
87
330
1A
100
AcDbEntity
  8
Edge.Cuts
  6
CONTINUOUS
100
AcDbLine
 10
6.8137795275590554
 20
-2.7244094488188977
 30
0
 11
6.8137795275590554
 21
-3.2755905511811023
 31
0
  0
LINE
  5
88
330
1A
100
AcDbEntity
  8
Edge.Cuts
  6
CONTINUOUS
100
AcDbLine
 10
6.8137795275590554
 20
-3.2755905511811023
 30
0
 11
7.36496062992126
 21
-3.2755905511811023
 31
0
  0
LINE
  5
89
330
1A
100
AcDbEntity
  8
Edge.Cuts
  6
CONTINUOUS
100
AcDbLine
 10
7.36496062992126
 20
-2.7244094488188977
 30
0
 11
6.8137795275590554
 21
-2.7244094488188977
 31
0
  0
LINE
  5
8A
330
1A
100
AcDbEntity
  8
Edge.Cuts
  6
CONTINUOUS
100
AcDbLine
 10
7.36496062992126
 20
-3.2755905511811023
 30
0
 11
7.36496062992126
 21
-2.7244094488188977
 31
0
  0
LINE
  5
8B
330
1A
100
AcDbEntity
  8
Edge.Cuts
  6
CONTINUOUS
100
AcDbLine
 10
6.8137795275590554
 20
-1.9744094488188977
 30
0
 11
6.8137795275590554
 21
-2.5255905511811023
 31
0
  0
LINE
  5
8C
330
1A
100
AcDbEntity
  8
Edge.Cuts
  6
CONTINUOUS
100
AcDbLine
 10
6.8137795275590554
 20
-2.5255905511811023
 30
0
 11
7.36496062992126
 21
-2.5255905511811023
 31
0
  0
LINE
  5
8D
330
1A
100
AcDbEntity
  8
Edge.Cuts
  6
CONTINUOUS
100
AcDbLine
 10
7.36496062992126
 20
-1.9744094488188977
 30
0
 11
6.8137795275590554
 21
-1.9744094488188977
 31
0
  0
LINE
  5
8E
330
1A
100
AcDbEntity
  8
Edge.Cuts
  6
CONTINUOUS
100
AcDbLine
 10
7.36496062992126
 20
-2.5255905511811023
 30
0
 11
7.36496062992126
 21
-1.9744094488188977
 31
0
  0
LINE
  5
8F
330
1A
100
AcDbEntity
  8
Edge.Cuts
  6
CONTINUOUS
100
AcDbLine
 10
6.0637795275590554
 20
-3.4744094488188977
 30
0
 11
6.0637795275590554
 21
-4.0255905511811019
 31
0
  0
LINE
  5
90
330
1A
100
AcDbEntity
  8
Edge.Cuts
  6
CONTINUOUS
100
AcDbLine
 10
6.0637795275590554
 20
-4.0255905511811019
 30
0
 11
6.61496062992126
 21
-4.0255905511811019
 31
0
  0
LINE
  5
91
330
1A
100
AcDbEntity
  8
Edge.Cuts
  6
CONTINUOUS
100
AcDbLine
 10
6.61496062992126
 20
-3.4744094488188977
 30
0
 11
6.0637795275590554
 21
-3.4744094488188977
 31
0
  0
LINE
  5
92
330
1A
100
AcDbEntity
  8
Edge.Cuts
  6
CONTINUOUS
100
AcDbLine
 10
6.61496062992126
 20
-4.0255905511811019
 30
0
 11
6.61496062992126
 21
-3.4744094488188977
 31
0
  0
LINE
  5
93
330
1A
100
AcDbEntity
  8
Edge.Cuts
  6
CONTINUOUS
100
AcDbLine
 10
5.3137795275590554
 20
-0.9244094488188976
 30
0
 11
5.3137795275590554
 21
-1.4755905511811023
 31
0
  0
LINE
  5
94
330
1A
100
AcDbEntity
  8
Edge.Cuts
  6
CONTINUOUS
100
AcDbLine
 10
5.3137795275590554
 20
-1.4755905511811023
 30
0
 11
5.86496062992126
 21
-1.4755905511811023
 31
0
  0
LINE
  5
95
330
1A
100
AcDbEntity
  8
Edge.Cuts
  6
CONTINUOUS
100
AcDbLine
 10
5.86496062992126
 20
-0.9244094488188976
 30
0
 11
5.3137795275590554
 21
-0.9244094488188976
 31
0
  0
LINE
  5
96
330
1A
100
AcDbEntity
  8
Edge.Cuts
  6
CONTINUOUS
100
AcDbLine
 10
5.86496062992126
 20
-1.4755905511811023
 30
0
 11
5.86496062992126
 21
-0.9244094488188976
 31
0
  0
LINE
  5
97
330
1A
100
AcDbEntity
  8
Edge.Cuts
  6
CONTINUOUS
100
AcDbLine
 10
2.5670955511811022
 20
-4.5149109448818896
 30
0
 11
2.7780234251968503
 21
-5.0241359055118107
 31
0
  0
LINE
  5
98
330
1A
100
AcDbEntity
  8
Edge.Cuts
  6
CONTINUOUS
100
AcDbLine
 10
2.7780234251968503
 20
-5.0241359055118107
 30
0
 11
3.2872483858267714
 21
-4.813208031496063
 31
0
  0
LINE
  5
99
330
1A
100
AcDbEntity
  8
Edge.Cuts
  6
CONTINUOUS
100
AcDbLine
 10
3.0763205118110237
 20
-4.303983070866142
 30
0
 11
2.5670955511811022
 21
-4.5149109448818896
 31
0
  0
LINE
  5
9A
330
1A
100
AcDbEntity
  8
Edge.Cuts
  6
CONTINUOUS
100
AcDbLine
 10
3.2872483858267714
 20
-4.813208031496063
 30
0
 11
3.0763205118110237
 21
-4.303983070866142
 31
0
  0
LINE
  5
9B
330
1A
100
AcDbEntity
  8
Edge.Cuts
  6
CONTINUOUS
100
AcDbLine
 10
4.5637795275590554
 20
-3.0994094488188977
 30
0
 11
4.5637795275590554
 21
-3.6505905511811023
 31
0
  0
LINE
  5
9C
330
1A
100
AcDbEntity
  8
Edge.Cuts
  6
CONTINUOUS
100
AcDbLine
 10
4.5637795275590554
 20
-3.6505905511811023
 30
0
 11
5.11496062992126
 21
-3.6505905511811023
 31
0
  0
LINE
  5
9D
330
1A
100
AcDbEntity
  8
Edge.Cuts
  6
CONTINUOUS
100
AcDbLine
 10
5.11496062992126
 20
-3.0994094488188977
 30
0
 11
4.5637795275590554
 21
-3.0994094488188977
 31
0
  0
LINE
  5
9E
330
1A
100
AcDbEntity
  8
Edge.Cuts
  6
CONTINUOUS
100
AcDbLine
 10
5.11496062992126
 20
-3.6505905511811023
 30
0
 11
5.11496062992126
 21
-3.0994094488188977
 31
0
  0
LINE
  5
9F
330
1A
100
AcDbEntity
  8
Edge.Cuts
  6
CONTINUOUS
100
AcDbLine
 10
6.8137795275590554
 20
-3.4744094488188977
 30
0
 11
6.8137795275590554
 21
-4.0255905511811019
 31
0
  0
LINE
  5
A0
330
1A
100
AcDbEntity
  8
Edge.Cuts
  6
CONTINUOUS
100
AcDbLine
 10
6.8137795275590554
 20
-4.0255905511811019
 30
0
 11
7.36496062992126
 21
-4.0255905511811019
 31
0
  0
LINE
  5
A1
330
1A
100
AcDbEntity
  8
Edge.Cuts
  6
CONTINUOUS
100
AcDbLine
 10
7.36496062992126
 20
-3.4744094488188977
 30
0
 11
6.8137795275590554
 21
-3.4744094488188977
 31
0
  0
LINE
  5
A2
330
1A
100
AcDbEntity
  8
Edge.Cuts
  6
CONTINUOUS
100
AcDbLine
 10
7.36496062992126
 20
-4.0255905511811019
 30
0
 11
7.36496062992126
 21
-3.4744094488188977
 31
0
  0
LINE
  5
A3
330
1A
100
AcDbEntity
  8
Edge.Cuts
  6
CONTINUOUS
100
AcDbLine
 10
3.3447553543307085
 20
-4.2128642913385823
 30
0
 11
3.4874115354330706
 21
-4.745264330708661
 31
0
  0
LINE
  5
A4
330
1A
100
AcDbEntity
  8
Edge.Cuts
  6
CONTINUOUS
100
AcDbLine
 10
3.4874115354330706
 20
-4.745264330708661
 30
0
 11
4.0198115748031498
 21
-4.6026081496062989
 31
0
  0
LINE
  5
A5
330
1A
100
AcDbEntity
  8
Edge.Cuts
  6
CONTINUOUS
100
AcDbLine
 10
3.8771553937007872
 20
-4.0702081102362202
 30
0
 11
3.3447553543307085
 21
-4.2128642913385823
 31
0
  0
LINE
  5
A6
330
1A
100
AcDbEntity
  8
Edge.Cuts
  6
CONTINUOUS
100
AcDbLine
 10
4.0198115748031498
 20
-4.6026081496062989
 30
0
 11
3.8771553937007872
 21
-4.0702081102362202
 31
0
  0
LINE
  5
A7
330
1A
100
AcDbEntity
  8
Edge.Cuts
  6
CONTINUOUS
100
AcDbLine
 10
3.8137795275590549
 20
-0.9619094488188976
 30
0
 11
3.8137795275590549
 21
-1.5130905511811024
 31
0
  0
LINE
  5
A8
330
1A
100
AcDbEntity
  8
Edge.Cuts
  6
CONTINUOUS
100
AcDbLine
 10
3.8137795275590549
 20
-1.5130905511811024
 30
0
 11
4.36496062992126
 21
-1.5130905511811024
 31
0
  0
LINE
  5
A9
330
1A
100
AcDbEntity
  8
Edge.Cuts
  6
CONTINUOUS
100
AcDbLine
 10
4.36496062992126
 20
-0.9619094488188976
 30
0
 11
3.8137795275590549
 21
-0.9619094488188976
 31
0
  0
LINE
  5
AA
330
1A
100
AcDbEntity
  8
Edge.Cuts
  6
CONTINUOUS
100
AcDbLine
 10
4.36496062992126
 20
-1.5130905511811024
 30
0
 11
4.36496062992126
 21
-0.9619094488188976
 31
0
  0
LINE
  5
AB
330
1A
100
AcDbEntity
  8
Edge.Cuts
  6
CONTINUOUS
100
AcDbLine
 10
3.0637795275590549
 20
-1.8619094488188976
 30
0
 11
3.0637795275590549
 21
-2.4130905511811025
 31
0
  0
LINE
  5
AC
330
1A
100
AcDbEntity
  8
Edge.Cuts
  6
CONTINUOUS
100
AcDbLine
 10
3.0637795275590549
 20
-2.4130905511811025
 30
0
 11
3.6149606299212595
 21
-2.4130905511811025
 31
0
  0
LINE
  5
AD
330
1A
100
AcDbEntity
  8
Edge.Cuts
  6
CONTINUOUS
100
AcDbLine
 10
3.6149606299212595
 20
-1.8619094488188976
 30
0
 11
3.0637795275590549
 21
-1.8619094488188976
 31
0
  0
LINE
  5
AE
330
1A
100
AcDbEntity
  8
Edge.Cuts
  6
CONTINUOUS
100
AcDbLine
 10
3.6149606299212595
 20
-2.4130905511811025
 30
0
 11
3.6149606299212595
 21
-1.8619094488188976
 31
0
  0
LINE
  5
AF
330
1A
100
AcDbEntity
  8
Edge.Cuts
  6
CONTINUOUS
100
AcDbLine
 10
6.0637795275590554
 20
-2.7244094488188977
 30
0
 11
6.0637795275590554
 21
-3.2755905511811023
 31
0
  0
LINE
  5
B0
330
1A
100
AcDbEntity
  8
Edge.Cuts
  6
CONTINUOUS
100
AcDbLine
 10
6.0637795275590554
 20
-3.2755905511811023
 30
0
 11
6.61496062992126
 21
-3.2755905511811023
 31
0
  0
LINE
  5
B1
330
1A
100
AcDbEntity
  8
Edge.Cuts
  6
CONTINUOUS
100
AcDbLine
 10
6.61496062992126
 20
-2.7244094488188977
 30
0
 11
6.0637795275590554
 21
-2.7244094488188977
 31
0
  0
LINE
  5
B2
330
1A
100
AcDbEntity
  8
Edge.Cuts
  6
CONTINUOUS
100
AcDbLine
 10
6.61496062992126
 20
-3.2755905511811023
 30
0
 11
6.61496062992126
 21
-2.7244094488188977
 31
0
  0
LINE
  5
B3
330
1A
100
AcDbEntity
  8
Edge.Cuts
  6
CONTINUOUS
100
AcDbLine
 10
6.0637795275590554
 20
-1.2244094488188977
 30
0
 11
6.0637795275590554
 21
-1.7755905511811023
 31
0
  0
LINE
  5
B4
330
1A
100
AcDbEntity
  8
Edge.Cuts
  6
CONTINUOUS
100
AcDbLine
 10
6.0637795275590554
 20
-1.7755905511811023
 30
0
 11
6.61496062992126
 21
-1.7755905511811023
 31
0
  0
LINE
  5
B5
330
1A
100
AcDbEntity
  8
Edge.Cuts
  6
CONTINUOUS
100
AcDbLine
 10
6.61496062992126
 20
-1.2244094488188977
 30
0
 11
6.0637795275590554
 21
-1.2244094488188977
 31
0
  0
LINE
  5
B6
330
1A
100
AcDbEntity
  8
Edge.Cuts
  6
CONTINUOUS
100
AcDbLine
 10
6.61496062992126
 20
-1.7755905511811023
 30
0
 11
6.61496062992126
 21
-1.2244094488188977
 31
0
  0
LINE
  5
B7
330
1A
100
AcDbEntity
  8
Edge.Cuts
  6
CONTINUOUS
100
AcDbLine
 10
3.8137795275590549
 20
-1.7119094488188975
 30
0
 11
3.8137795275590549
 21
-2.2630905511811021
 31
0
  0
LINE
  5
B8
330
1A
100
AcDbEntity
  8
Edge.Cuts
  6
CONTINUOUS
100
AcDbLine
 10
3.8137795275590549
 20
-2.2630905511811021
 30
0
 11
4.36496062992126
 21
-2.2630905511811021
 31
0
  0
LINE
  5
B9
330
1A
100
AcDbEntity
  8
Edge.Cuts
  6
CONTINUOUS
100
AcDbLine
 10
4.36496062992126
 20
-1.7119094488188975
 30
0
 11
3.8137795275590549
 21
-1.7119094488188975
 31
0
  0
LINE
  5
BA
330
1A
100
AcDbEntity
  8
Edge.Cuts
  6
CONTINUOUS
100
AcDbLine
 10
4.36496062992126
 20
-2.2630905511811021
 30
0
 11
4.36496062992126
 21
-1.7119094488188975
 31
0
  0
LINE
  5
BB
330
1A
100
AcDbEntity
  8
Edge.Cuts
  6
CONTINUOUS
100
AcDbLine
 10
2.3137795275590549
 20
-3.2119094488188975
 30
0
 11
2.3137795275590549
 21
-3.7630905511811021
 31
0
  0
LINE
  5
BC
330
1A
100
AcDbEntity
  8
Edge.Cuts
  6
CONTINUOUS
100
AcDbLine
 10
2.3137795275590549
 20
-3.7630905511811021
 30
0
 11
2.86496062992126
 21
-3.7630905511811021
 31
0
  0
LINE
  5
BD
330
1A
100
AcDbEntity
  8
Edge.Cuts
  6
CONTINUOUS
100
AcDbLine
 10
2.86496062992126
 20
-3.2119094488188975
 30
0
 11
2.3137795275590549
 21
-3.2119094488188975
 31
0
  0
LINE
  5
BE
330
1A
100
AcDbEntity
  8
Edge.Cuts
  6
CONTINUOUS
100
AcDbLine
 10
2.86496062992126
 20
-3.7630905511811021
 30
0
 11
2.86496062992126
 21
-3.2119094488188975
 31
0
  0
LINE
  5
BF
330
1A
100
AcDbEntity
  8
Edge.Cuts
  6
CONTINUOUS
100
AcDbLine
 10
6.8137795275590554
 20
-1.2244094488188977
 30
0
 11
6.8137795275590554
 21
-1.7755905511811023
 31
0
  0
LINE
  5
C0
330
1A
100
AcDbEntity
  8
Edge.Cuts
  6
CONTINUOUS
100
AcDbLine
 10
6.8137795275590554
 20
-1.7755905511811023
 30
0
 11
7.36496062992126
 21
-1.7755905511811023
 31
0
  0
LINE
  5
C1
330
1A
100
AcDbEntity
  8
Edge.Cuts
  6
CONTINUOUS
100
AcDbLine
 10
7.36496062992126
 20
-1.2244094488188977
 30
0
 11
6.8137795275590554
 21
-1.2244094488188977
 31
0
  0
LINE
  5
C2
330
1A
100
AcDbEntity
  8
Edge.Cuts
  6
CONTINUOUS
100
AcDbLine
 10
7.36496062992126
 20
-1.7755905511811023
 30
0
 11
7.36496062992126
 21
-1.2244094488188977
 31
0
  0
ENDSEC
  0
SECTION
  2
OBJECTS
  0
DICTIONARY
  5
20
330
0
100
AcDbDictionary
281
1
  3
ACAD_GROUP
350
C3
  3
ACAD_LAYOUT
350
21
  3
ACAD_PLOTSTYLENAME
350
11
  0
DICTIONARY
  5
C3
330
20
100
AcDbDictionary
281
1
  0
ACDBDICTIONARYWDFLT
  5
11
330
20
100
AcDbDictionary
281
1
  3
Normal
350
10
100
AcDbDictionaryWithDefault
340
10
  0
ACDBPLACEHOLDER
  5
10
330
11
  0
DICTIONARY
  5
21
330
20
100
AcDbDictionary
281
1
  3
Model
350
1D
  3
Layout1
350
1E
  3
Layout2
350
1F
  0
LAYOUT
  5
1D
330
21
100
AcDbPlotSettings
  1

  2
none_device
  4
A3
  6

 40
0.0
 41
0.0
 42
0.0
 43
0.0
 44
420.0
 45
297.0
 46
0.0
 47
0.0
 48
0.0
 49
0.0
140
0.0
141
0.0
142
1.0
143
1.0
 70
1024
 72
1
 73
0
 74
5
  7

 75
16
 76
0
 77
2
 78
300
147
1.0
148
0.0
149
0.0
100
AcDbLayout
  1
Model
 70
1
 71
0
 10
0.0
 20
0.0
 11
420.0
 21
297.0
 12
0.0
 22
0.0
 32
0.0
 14
1e+20
 24
1e+20
 34
1e+20
 15
-1e+20
 25
-1e+20
 35
-1e+20
146
0.0
 13
0.0
 23
0.0
 33
0.0
 16
1.0
 26
0.0
 36
0.0
 17
0.0
 27
1.0
 37
0.0
 76
0
330
1A
  0
LAYOUT
  5
1E
330
21
100
AcDbPlotSettings
  1

  2
none_device
  4
A3
  6

 40
0.0
 41
0.0
 42
0.0
 43
0.0
 44
420.0
 45
297.0
 46
0.0
 47
0.0
 48
0.0
 49
0.0
140
0.0
141
0.0
142
1.0
143
1.0
 70
0
 72
1
 73
0
 74
5
  7

 75
16
 76
0
 77
2
 78
300
147
1.0
148
0.0
149
0.0
100
AcDbLayout
  1
Layout1
 70
1
 71
1
 10
0.0
 20
0.0
 11
420.0
 21
297.0
 12
0.0
 22
0.0
 32
0.0
 14
1e+20
 24
1e+20
 34
1e+20
 15
-1e+20
 25
-1e+20
 35
-1e+20
146
0.0
 13
0.0
 23
0.0
 33
0.0
 16
1.0
 26
0.0
 36
0.0
 17
0.0
 27
1.0
 37
0.0
 76
0
330
1B
  0
LAYOUT
  5
1F
330
21
100
AcDbPlotSettings
  1

  2
none_device
  4
A3
  6

 40
0.0
 41
0.0
 42
0.0
 43
0.0
 44
420.0
 45
297.0
 46
0.0
 47
0.0
 48
0.0
 49
0.0
140
0.0
141
0.0
142
1.0
143
1.0
 70
0
 72
1
 73
0
 74
5
  7

 75
16
 76
0
 77
2
 78
300
147
1.0
148
0.0
149
0.0
100
AcDbLayout
  1
Layout2
 70
1
 71
2
 10
0.0
 20
0.0
 11
420.0
 21
297.0
 12
0.0
 22
0.0
 32
0.0
 14
1e+20
 24
1e+20
 34
1e+20
 15
-1e+20
 25
-1e+20
 35
-1e+20
146
0.0
 13
0.0
 23
0.0
 33
0.0
 16
1.0
 26
0.0
 36
0.0
 17
0.0
 27
1.0
 37
0.0
 76
0
330
1C
  0
ENDSEC
  0
EOF
