  0
SECTION
  2
HEADER
  9
$ANGBASE
  50
0.0
  9
$ANGDIR
  70
1
  9
$MEASUREMENT
  70
0
  0
ENDSEC
  0
SECTION
  2
TABLES
  0
TABLE
  2
LTYPE
  70
4
  0
LTYPE
  5
40F
  2
CONTINUOUS
  70
0
  3
Solid line
  72
65
  73
0
  40
0.0
  0
LTYPE
  5
410
  2
DASHDOT
 70
0
  3
Dash Dot ____ _ ____ _
 72
65
 73
4
 40
2.0
 49
1.25
 49
-0.25
 49
0.25
 49
-0.25
  0
LTYPE
  5
411
  2
DASHED
 70
0
  3
Dashed __ __ __ __ __
 72
65
 73
2
 40
0.75
 49
0.5
 49
-0.25
  0
LTYPE
  5
43B
  2
DOTTED
 70
0
  3
Dotted .  .  .  .
 72
65
 73
2
 40
0.2
 49
0.0
 49
-0.2
  0
ENDTAB
  0
TABLE
  2
STYLE
  70
4
  0
STYLE
  2
KICAD
  70
0
  40
0
  41
1
  42
1
  50
0
  71
0
  3
isocp.shx
  0
STYLE
  2
KICADB
  70
0
  40
0
  41
1
  42
1
  50
0
  71
0
  3
isocp.shx
  0
STYLE
  2
KICADI
  70
0
  40
0
  41
1
  42
1
  50
15
  71
0
  3
isocp.shx
  0
STYLE
  2
KICADBI
  70
0
  40
0
  41
1
  42
1
  50
15
  71
0
  3
isocp.shx
  0
ENDTAB
  0
TABLE
  2
LAYER
  70
1
  0
LAYER
  2
BLACK
  70
0
  62
7
  6
CONTINUOUS
  0
ENDTAB
  0
ENDSEC
  0
SECTION
  2
ENTITIES
0
LINE
8
BLACK
6
CONTINUOUS
10
5.1749999999999998
20
-0.7480314960629921
11
5.1821783858267718
21
-0.7486595275590551
0
LINE
8
BLACK
6
CONTINUOUS
10
5.1821783858267718
20
-0.7486595275590551
11
5.1891386220472437
21
-0.7505245275590551
0
LINE
8
BLACK
6
CONTINUOUS
10
5.1891386220472437
20
-0.7505245275590551
11
5.1956692913385822
21
-0.7535698031496063
0
LINE
8
BLACK
6
CONTINUOUS
10
5.1956692913385822
20
-0.7535698031496063
11
5.2015719291338582
21
-0.757702874015748
0
LINE
8
BLACK
6
CONTINUOUS
10
5.2015719291338582
20
-0.757702874015748
11
5.2066672047244094
21
-0.7627981496062992
0
LINE
8
BLACK
6
CONTINUOUS
10
5.2066672047244094
20
-0.7627981496062992
11
5.2108002755905511
21
-0.7687007874015748
0
LINE
8
BLACK
6
CONTINUOUS
10
5.2108002755905511
20
-0.7687007874015748
11
5.2138455511811026
21
-0.7752314566929134
0
LINE
8
BLACK
6
CONTINUOUS
10
5.2138455511811026
20
-0.7752314566929134
11
5.2157105511811022
21
-0.7821916929133859
0
LINE
8
BLACK
6
CONTINUOUS
10
5.2157105511811022
20
-0.7821916929133859
11
5.2163385826771655
21
-0.7893700787401574
0
LINE
8
BLACK
6
CONTINUOUS
10
5.2163385826771655
20
-0.7893700787401574
11
5.2163385826771655
21
-0.8231299212598425
0
LINE
8
BLACK
6
CONTINUOUS
10
5.2163385826771655
20
-0.8231299212598425
11
5.2163385826771655
21
-0.826402125984252
0
LINE
8
BLACK
6
CONTINUOUS
10
5.2163385826771655
20
-0.826402125984252
11
5.2174750000000003
21
-0.8328471259842519
0
LINE
8
BLACK
6
CONTINUOUS
10
5.2174750000000003
20
-0.8328471259842519
11
5.2197133464566932
21
-0.8389968897637795
0
LINE
8
BLACK
6
CONTINUOUS
10
5.2197133464566932
20
-0.8389968897637795
11
5.2229855511811021
21
-0.8446645275590551
0
LINE
8
BLACK
6
CONTINUOUS
10
5.2229855511811021
20
-0.8446645275590551
11
5.2271922047244095
21
-0.849677874015748
0
LINE
8
BLACK
6
CONTINUOUS
10
5.2271922047244095
20
-0.849677874015748
11
5.2322055511811021
21
-0.8538845275590551
0
LINE
8
BLACK
6
CONTINUOUS
10
5.2322055511811021
20
-0.8538845275590551
11
5.2378731889763781
21
-0.8571567322834646
0
LINE
8
BLACK
6
CONTINUOUS
10
5.2378731889763781
20
-0.8571567322834646
11
5.2440229527559055
21
-0.8593950787401574
0
LINE
8
BLACK
6
CONTINUOUS
10
5.2440229527559055
20
-0.8593950787401574
11
5.2504679527559057
21
-0.8605314960629921
0
LINE
8
BLACK
6
CONTINUOUS
10
5.2504679527559057
20
-0.8605314960629921
11
5.2537401574803146
21
-0.8605314960629921
0
LINE
8
BLACK
6
CONTINUOUS
10
5.2537401574803146
20
-0.8605314960629921
11
5.9249999999999998
21
-0.8605314960629921
0
LINE
8
BLACK
6
CONTINUOUS
10
5.9249999999999998
20
-0.8605314960629921
11
5.9321783858267718
21
-0.8611595275590551
0
LINE
8
BLACK
6
CONTINUOUS
10
5.9321783858267718
20
-0.8611595275590551
11
5.9391386220472437
21
-0.8630245275590551
0
LINE
8
BLACK
6
CONTINUOUS
10
5.9391386220472437
20
-0.8630245275590551
11
5.9456692913385822
21
-0.8660698031496062
0
LINE
8
BLACK
6
CONTINUOUS
10
5.9456692913385822
20
-0.8660698031496062
11
5.9515719291338582
21
-0.870202874015748
0
LINE
8
BLACK
6
CONTINUOUS
10
5.9515719291338582
20
-0.870202874015748
11
5.9566672047244094
21
-0.8752981496062991
0
LINE
8
BLACK
6
CONTINUOUS
10
5.9566672047244094
20
-0.8752981496062991
11
5.9608002755905511
21
-0.8812007874015748
0
LINE
8
BLACK
6
CONTINUOUS
10
5.9608002755905511
20
-0.8812007874015748
11
5.9638455511811026
21
-0.8877314566929133
0
LINE
8
BLACK
6
CONTINUOUS
10
5.9638455511811026
20
-0.8877314566929133
11
5.9657105511811022
21
-0.8946916929133858
0
LINE
8
BLACK
6
CONTINUOUS
10
5.9657105511811022
20
-0.8946916929133858
11
5.9663385826771655
21
-0.9018700787401575
0
LINE
8
BLACK
6
CONTINUOUS
10
5.9663385826771655
20
-0.9018700787401575
11
5.9663385826771655
21
-0.9731299212598425
0
LINE
8
BLACK
6
CONTINUOUS
10
5.9663385826771655
20
-0.9731299212598425
11
5.9663385826771655
21
-0.9764021259842519
0
LINE
8
BLACK
6
CONTINUOUS
10
5.9663385826771655
20
-0.9764021259842519
11
5.9674750000000003
21
-0.9828471259842519
0
LINE
8
BLACK
6
CONTINUOUS
10
5.9674750000000003
20
-0.9828471259842519
11
5.9697133464566932
21
-0.9889968897637795
0
LINE
8
BLACK
6
CONTINUOUS
10
5.9697133464566932
20
-0.9889968897637795
11
5.9729855511811021
21
-0.9946645275590551
0
LINE
8
BLACK
6
CONTINUOUS
10
5.9729855511811021
20
-0.9946645275590551
11
5.9771922047244095
21
-0.999677874015748
0
LINE
8
BLACK
6
CONTINUOUS
10
5.9771922047244095
20
-0.999677874015748
11
5.9822055511811021
21
-1.0038845275590551
0
LINE
8
BLACK
6
CONTINUOUS
10
5.9822055511811021
20
-1.0038845275590551
11
5.9878731889763781
21
-1.0071567322834645
0
LINE
8
BLACK
6
CONTINUOUS
10
5.9878731889763781
20
-1.0071567322834645
11
5.9940229527559055
21
-1.0093950787401575
0
LINE
8
BLACK
6
CONTINUOUS
10
5.9940229527559055
20
-1.0093950787401575
11
6.0004679527559057
21
-1.0105314960629921
0
LINE
8
BLACK
6
CONTINUOUS
10
6.0004679527559057
20
-1.0105314960629921
11
6.0037401574803146
21
-1.0105314960629921
0
LINE
8
BLACK
6
CONTINUOUS
10
6.0037401574803146
20
-1.0105314960629921
11
6.6749999999999998
21
-1.0105314960629921
0
LINE
8
BLACK
6
CONTINUOUS
10
6.6749999999999998
20
-1.0105314960629921
11
6.6821783858267718
21
-1.011159527559055
0
LINE
8
BLACK
6
CONTINUOUS
10
6.6821783858267718
20
-1.011159527559055
11
6.6891386220472437
21
-1.013024527559055
0
LINE
8
BLACK
6
CONTINUOUS
10
6.6891386220472437
20
-1.013024527559055
11
6.6956692913385822
21
-1.0160698031496063
0
LINE
8
BLACK
6
CONTINUOUS
10
6.6956692913385822
20
-1.0160698031496063
11
6.7015719291338582
21
-1.0202028740157481
0
LINE
8
BLACK
6
CONTINUOUS
10
6.7015719291338582
20
-1.0202028740157481
11
6.7066672047244094
21
-1.0252981496062992
0
LINE
8
BLACK
6
CONTINUOUS
10
6.7066672047244094
20
-1.0252981496062992
11
6.7108002755905511
21
-1.0312007874015747
0
LINE
8
BLACK
6
CONTINUOUS
10
6.7108002755905511
20
-1.0312007874015747
11
6.7138455511811026
21
-1.0377314566929134
0
LINE
8
BLACK
6
CONTINUOUS
10
6.7138455511811026
20
-1.0377314566929134
11
6.7157105511811022
21
-1.0446916929133858
0
LINE
8
BLACK
6
CONTINUOUS
10
6.7157105511811022
20
-1.0446916929133858
11
6.7163385826771655
21
-1.0518700787401574
0
LINE
8
BLACK
6
CONTINUOUS
10
6.7163385826771655
20
-1.0518700787401574
11
6.7163385826771655
21
-1.3709674409448818
0
LINE
8
BLACK
6
CONTINUOUS
10
6.7163385826771655
20
-1.3709674409448818
11
6.7163385826771655
21
-1.3709674803149605
0
LINE
8
BLACK
6
CONTINUOUS
10
6.7163385826771655
20
-1.3709674803149605
11
6.716339645669291
21
-1.3709674803149605
0
LINE
8
BLACK
6
CONTINUOUS
10
6.716339645669291
20
-1.3709674803149605
11
6.7163396062992122
21
-1.374433779527559
0
LINE
8
BLACK
6
CONTINUOUS
10
6.7163396062992122
20
-1.374433779527559
11
6.7176135039370077
21
-1.3812482677165354
0
LINE
8
BLACK
6
CONTINUOUS
10
6.7176135039370077
20
-1.3812482677165354
11
6.7201180708661417
21
-1.387712559055118
0
LINE
8
BLACK
6
CONTINUOUS
10
6.7201180708661417
20
-1.387712559055118
11
6.7237679921259845
21
-1.3936064960629921
0
LINE
8
BLACK
6
CONTINUOUS
10
6.7237679921259845
20
-1.3936064960629921
11
6.7284389370078737
21
-1.3987292125984252
0
LINE
8
BLACK
6
CONTINUOUS
10
6.7284389370078737
20
-1.3987292125984252
11
6.7339717716535432
21
-1.4029062598425197
0
LINE
8
BLACK
6
CONTINUOUS
10
6.7339717716535432
20
-1.4029062598425197
11
6.7401780314960629
21
-1.4059953543307087
0
LINE
8
BLACK
6
CONTINUOUS
10
6.7401780314960629
20
-1.4059953543307087
11
6.7468463385826771
21
-1.4078911811023622
0
LINE
8
BLACK
6
CONTINUOUS
10
6.7468463385826771
20
-1.4078911811023622
11
6.7537494488188976
21
-1.408529251968504
0
LINE
8
BLACK
6
CONTINUOUS
10
6.7537494488188976
20
-1.408529251968504
11
6.757200826771653
21
-1.4082085433070866
0
LINE
8
BLACK
6
CONTINUOUS
10
6.757200826771653
20
-1.4082085433070866
11
6.757200826771653
21
-1.4082085826771653
0
LINE
8
BLACK
6
CONTINUOUS
10
6.757200826771653
20
-1.4082085826771653
11
6.7572586220472441
21
-1.4082215748031495
0
LINE
8
BLACK
6
CONTINUOUS
10
6.7572586220472441
20
-1.4082215748031495
11
6.7573598425196852
21
-1.4082002362204724
0
LINE
8
BLACK
6
CONTINUOUS
10
6.7573598425196852
20
-1.4082002362204724
11
6.7717288188976372
21
-1.408031338582677
0
LINE
8
BLACK
6
CONTINUOUS
10
6.7717288188976372
20
-1.408031338582677
11
6.771743267716535
21
-1.4080340157480316
0
LINE
8
BLACK
6
CONTINUOUS
10
6.771743267716535
20
-1.4080340157480316
11
6.7717519685039367
21
-1.408031220472441
0
LINE
8
BLACK
6
CONTINUOUS
10
6.7717519685039367
20
-1.408031220472441
11
6.7789303543307087
21
-1.4086592519685039
0
LINE
8
BLACK
6
CONTINUOUS
10
6.7789303543307087
20
-1.4086592519685039
11
6.7858906299212594
21
-1.410524251968504
0
LINE
8
BLACK
6
CONTINUOUS
10
6.7858906299212594
20
-1.410524251968504
11
6.7924212992125979
21
-1.4135695275590552
0
LINE
8
BLACK
6
CONTINUOUS
10
6.7924212992125979
20
-1.4135695275590552
11
6.7983239763779526
21
-1.4177025984251967
0
LINE
8
BLACK
6
CONTINUOUS
10
6.7983239763779526
20
-1.4177025984251967
11
6.8034192519685037
21
-1.4227978346456693
0
LINE
8
BLACK
6
CONTINUOUS
10
6.8034192519685037
20
-1.4227978346456693
11
6.8075523622047243
21
-1.4287004724409449
0
LINE
8
BLACK
6
CONTINUOUS
10
6.8075523622047243
20
-1.4287004724409449
11
6.8105977165354332
21
-1.4352311417322834
0
LINE
8
BLACK
6
CONTINUOUS
10
6.8105977165354332
20
-1.4352311417322834
11
6.8124627559055115
21
-1.4421914173228345
0
LINE
8
BLACK
6
CONTINUOUS
10
6.8124627559055115
20
-1.4421914173228345
11
6.8130879921259844
21
-1.4493375984251968
0
LINE
8
BLACK
6
CONTINUOUS
10
6.8130879921259844
20
-1.4493375984251968
11
6.8130904330708661
21
-1.4493491732283463
0
LINE
8
BLACK
6
CONTINUOUS
10
6.8130904330708661
20
-1.4493491732283463
11
6.8130905905511812
21
-1.4493674803149605
0
LINE
8
BLACK
6
CONTINUOUS
10
6.8130905905511812
20
-1.4493674803149605
11
6.8130908267716537
21
-1.4493698031496063
0
LINE
8
BLACK
6
CONTINUOUS
10
6.8130908267716537
20
-1.4493698031496063
11
6.8130906299212599
21
-1.4493698031496063
0
LINE
8
BLACK
6
CONTINUOUS
10
6.8130906299212599
20
-1.4493698031496063
11
6.8205904330708655
21
-2.1656090157480317
0
LINE
8
BLACK
6
CONTINUOUS
10
6.8205904330708655
20
-2.1656090157480317
11
6.8205879921259838
21
-2.1656218503937006
0
LINE
8
BLACK
6
CONTINUOUS
10
6.8205879921259838
20
-2.1656218503937006
11
6.8205905511811018
21
-2.1656296456692914
0
LINE
8
BLACK
6
CONTINUOUS
10
6.8205905511811018
20
-2.1656296456692914
11
6.8205908267716531
21
-2.1656296456692914
0
LINE
8
BLACK
6
CONTINUOUS
10
6.8205908267716531
20
-2.1656296456692914
11
6.8205907874015743
21
-2.1689018503937008
0
LINE
8
BLACK
6
CONTINUOUS
10
6.8205907874015743
20
-2.1689018503937008
11
6.8217271653543303
21
-2.1753468503937006
0
LINE
8
BLACK
6
CONTINUOUS
10
6.8217271653543303
20
-2.1753468503937006
11
6.8239654724409444
21
-2.1814966141732284
0
LINE
8
BLACK
6
CONTINUOUS
10
6.8239654724409444
20
-2.1814966141732284
11
6.8272376377952755
21
-2.1871642519685039
0
LINE
8
BLACK
6
CONTINUOUS
10
6.8272376377952755
20
-2.1871642519685039
11
6.8314442913385829
21
-2.1921775590551182
0
LINE
8
BLACK
6
CONTINUOUS
10
6.8314442913385829
20
-2.1921775590551182
11
6.8364575984251967
21
-2.196384251968504
0
LINE
8
BLACK
6
CONTINUOUS
10
6.8364575984251967
20
-2.196384251968504
11
6.8421251968503931
21
-2.1996564566929133
0
LINE
8
BLACK
6
CONTINUOUS
10
6.8421251968503931
20
-2.1996564566929133
11
6.8482749212598426
21
-2.2018948031496062
0
LINE
8
BLACK
6
CONTINUOUS
10
6.8482749212598426
20
-2.2018948031496062
11
6.854719921259842
21
-2.2030312204724409
0
LINE
8
BLACK
6
CONTINUOUS
10
6.854719921259842
20
-2.2030312204724409
11
6.8579921259842518
21
-2.2030312204724409
0
LINE
8
BLACK
6
CONTINUOUS
10
6.8579921259842518
20
-2.2030312204724409
11
7.2367519685039365
21
-2.2030312204724409
0
LINE
8
BLACK
6
CONTINUOUS
10
7.2367519685039365
20
-2.2030312204724409
11
7.2367533464566929
21
-2.2030314960629922
0
LINE
8
BLACK
6
CONTINUOUS
10
7.2367533464566929
20
-2.2030314960629922
11
7.2400242125984251
21
-2.2030314960629922
0
LINE
8
BLACK
6
CONTINUOUS
10
7.2400242125984251
20
-2.2030314960629922
11
7.2464692125984254
21
-2.2018950787401574
0
LINE
8
BLACK
6
CONTINUOUS
10
7.2464692125984254
20
-2.2018950787401574
11
7.2526190157480315
21
-2.1996567322834646
0
LINE
8
BLACK
6
CONTINUOUS
10
7.2526190157480315
20
-2.1996567322834646
11
7.2582866535433066
21
-2.1963844881889765
0
LINE
8
BLACK
6
CONTINUOUS
10
7.2582866535433066
20
-2.1963844881889765
11
7.2633000000000001
21
-2.1921777559055116
0
LINE
8
BLACK
6
CONTINUOUS
10
7.2633000000000001
20
-2.1921777559055116
11
7.2675066535433066
21
-2.187164409448819
0
LINE
8
BLACK
6
CONTINUOUS
10
7.2675066535433066
20
-2.187164409448819
11
7.2707788582677164
21
-2.1814967322834646
0
LINE
8
BLACK
6
CONTINUOUS
10
7.2707788582677164
20
-2.1814967322834646
11
7.2730171653543305
21
-2.1753469291338581
0
LINE
8
BLACK
6
CONTINUOUS
10
7.2730171653543305
20
-2.1753469291338581
11
7.2741535826771653
21
-2.1689018897637795
0
LINE
8
BLACK
6
CONTINUOUS
10
7.2741535826771653
20
-2.1689018897637795
11
7.2741535433070865
21
-2.1656296456692914
0
LINE
8
BLACK
6
CONTINUOUS
10
7.2741535433070865
20
-2.1656296456692914
11
7.2741535433070865
21
-1.4493698031496063
0
LINE
8
BLACK
6
CONTINUOUS
10
7.2741535433070865
20
-1.4493698031496063
11
7.2747816141732278
21
-1.4421914566929133
0
LINE
8
BLACK
6
CONTINUOUS
10
7.2747816141732278
20
-1.4421914566929133
11
7.276646653543307
21
-1.4352312204724409
0
LINE
8
BLACK
6
CONTINUOUS
10
7.276646653543307
20
-1.4352312204724409
11
7.2796919685039372
21
-1.4287006299212599
0
LINE
8
BLACK
6
CONTINUOUS
10
7.2796919685039372
20
-1.4287006299212599
11
7.283825039370079
21
-1.4227980314960629
0
LINE
8
BLACK
6
CONTINUOUS
10
7.283825039370079
20
-1.4227980314960629
11
7.2889203149606301
21
-1.4177027952755905
0
LINE
8
BLACK
6
CONTINUOUS
10
7.2889203149606301
20
-1.4177027952755905
11
7.2948229133858264
21
-1.4135697637795275
0
LINE
8
BLACK
6
CONTINUOUS
10
7.2948229133858264
20
-1.4135697637795275
11
7.3013535433070862
21
-1.4105244881889762
0
LINE
8
BLACK
6
CONTINUOUS
10
7.3013535433070862
20
-1.4105244881889762
11
7.308313779527559
21
-1.408659527559055
0
LINE
8
BLACK
6
CONTINUOUS
10
7.308313779527559
20
-1.408659527559055
11
7.3154921259842514
21
-1.408031496062992
0
LINE
8
BLACK
6
CONTINUOUS
10
7.3154921259842514
20
-1.408031496062992
11
7.3154921259842514
21
-1.408031220472441
0
LINE
8
BLACK
6
CONTINUOUS
10
7.3154921259842514
20
-1.408031220472441
11
7.3154943700787403
21
-1.4080319291338583
0
LINE
8
BLACK
6
CONTINUOUS
10
7.3154943700787403
20
-1.4080319291338583
11
7.3154981889763775
21
-1.408031220472441
0
LINE
8
BLACK
6
CONTINUOUS
10
7.3154981889763775
20
-1.408031220472441
11
7.425006062992126
21
-1.4083690157480315
0
LINE
8
BLACK
6
CONTINUOUS
10
7.425006062992126
20
-1.4083690157480315
11
7.42501311023622
21
-1.4083704330708662
0
LINE
8
BLACK
6
CONTINUOUS
10
7.42501311023622
20
-1.4083704330708662
11
7.43217562992126
21
-1.4089965354330709
0
LINE
8
BLACK
6
CONTINUOUS
10
7.43217562992126
20
-1.4089965354330709
11
7.4391364173228345
21
-1.4108611811023621
0
LINE
8
BLACK
6
CONTINUOUS
10
7.4391364173228345
20
-1.4108611811023621
11
7.4456676771653543
21
-1.4139062204724409
0
LINE
8
BLACK
6
CONTINUOUS
10
7.4456676771653543
20
-1.4139062204724409
11
7.4515708661417319
21
-1.4180392125984251
0
LINE
8
BLACK
6
CONTINUOUS
10
7.4515708661417319
20
-1.4180392125984251
11
7.4566666929133856
21
-1.4231344881889763
0
LINE
8
BLACK
6
CONTINUOUS
10
7.4566666929133856
20
-1.4231344881889763
11
7.4608002755905511
21
-1.4290372834645668
0
LINE
8
BLACK
6
CONTINUOUS
10
7.4608002755905511
20
-1.4290372834645668
11
7.4638460236220467
21
-1.4355681889763778
0
LINE
8
BLACK
6
CONTINUOUS
10
7.4638460236220467
20
-1.4355681889763778
11
7.465711377952756
21
-1.442528779527559
0
LINE
8
BLACK
6
CONTINUOUS
10
7.465711377952756
20
-1.442528779527559
11
7.466339645669291
21
-1.4497075590551181
0
LINE
8
BLACK
6
CONTINUOUS
10
7.466339645669291
20
-1.4497075590551181
11
7.4663385826771655
21
-1.4497075590551181
0
LINE
8
BLACK
6
CONTINUOUS
10
7.4663385826771655
20
-1.4497075590551181
11
7.466338503937008
21
-1.4497077559055118
0
LINE
8
BLACK
6
CONTINUOUS
10
7.466338503937008
20
-1.4497077559055118
11
7.4663385826771655
21
-1.4497081496062991
0
LINE
8
BLACK
6
CONTINUOUS
10
7.4663385826771655
20
-1.4497081496062991
11
7.4656301968503938
21
-3.9264503543307088
0
LINE
8
BLACK
6
CONTINUOUS
10
7.4656301968503938
20
-3.9264503543307088
11
7.4656299212598425
21
-3.9264517322834647
0
LINE
8
BLACK
6
CONTINUOUS
10
7.4656299212598425
20
-3.9264517322834647
11
7.4656301968503938
21
-3.926452401574803
0
LINE
8
BLACK
6
CONTINUOUS
10
7.4656301968503938
20
-3.926452401574803
11
7.4655585039370074
21
-3.9268102362204722
0
LINE
8
BLACK
6
CONTINUOUS
10
7.4655585039370074
20
-3.9268102362204722
11
7.4654801574803145
21
-3.9272036220472439
0
LINE
8
BLACK
6
CONTINUOUS
10
7.4654801574803145
20
-3.9272036220472439
11
7.4654795669291341
21
-3.9272041732283465
0
LINE
8
BLACK
6
CONTINUOUS
10
7.4654795669291341
20
-3.9272041732283465
11
7.4654793307086615
21
-3.9272055118110236
0
LINE
8
BLACK
6
CONTINUOUS
10
7.4654793307086615
20
-3.9272055118110236
11
6.9711777165354327
21
-5.1160130314960632
0
LINE
8
BLACK
6
CONTINUOUS
10
6.9711777165354327
20
-5.1160130314960632
11
6.9711723228346454
21
-5.1160210236220474
0
LINE
8
BLACK
6
CONTINUOUS
10
6.9711723228346454
20
-5.1160210236220474
11
6.9679403149606296
21
-5.1223772440944879
0
LINE
8
BLACK
6
CONTINUOUS
10
6.9679403149606296
20
-5.1223772440944879
11
6.9636814173228343
21
-5.1281259842519686
0
LINE
8
BLACK
6
CONTINUOUS
10
6.9636814173228343
20
-5.1281259842519686
11
6.9585251968503936
21
-5.1330857874015745
0
LINE
8
BLACK
6
CONTINUOUS
10
6.9585251968503936
20
-5.1330857874015745
11
6.9526154724409448
21
-5.1371183858267715
0
LINE
8
BLACK
6
CONTINUOUS
10
6.9526154724409448
20
-5.1371183858267715
11
6.9461170472440941
21
-5.1401112204724404
0
LINE
8
BLACK
6
CONTINUOUS
10
6.9461170472440941
20
-5.1401112204724404
11
6.9392111811023618
21
-5.1419808661417319
0
LINE
8
BLACK
6
CONTINUOUS
10
6.9392111811023618
20
-5.1419808661417319
11
6.9320905118110234
21
-5.1426751574803147
0
LINE
8
BLACK
6
CONTINUOUS
10
6.9320905118110234
20
-5.1426751574803147
11
6.9249535433070868
21
-5.1421747637795274
0
LINE
8
BLACK
6
CONTINUOUS
10
6.9249535433070868
20
-5.1421747637795274
11
6.9179994094488189
21
-5.1404936220472441
0
LINE
8
BLACK
6
CONTINUOUS
10
6.9179994094488189
20
-5.1404936220472441
11
6.9179993307086614
21
-5.1404938188976379
0
LINE
8
BLACK
6
CONTINUOUS
10
6.9179993307086614
20
-5.1404938188976379
11
6.9179568110236218
21
-5.1404624803149606
0
LINE
8
BLACK
6
CONTINUOUS
10
6.9179568110236218
20
-5.1404624803149606
11
6.9178679133858267
21
-5.1404448818897635
0
LINE
8
BLACK
6
CONTINUOUS
10
6.9178679133858267
20
-5.1404448818897635
11
6.2609583464566931
21
-4.8688400787401571
0
LINE
8
BLACK
6
CONTINUOUS
10
6.2609583464566931
20
-4.8688400787401571
11
5.5368101181102363
21
-4.6749826377952752
0
LINE
8
BLACK
6
CONTINUOUS
10
5.5368101181102363
20
-4.6749826377952752
11
4.7934949212598426
21
-4.5769685039370076
0
LINE
8
BLACK
6
CONTINUOUS
10
4.7934949212598426
20
-4.5769685039370076
11
4.043622047244094
21
-4.5769685039370076
0
LINE
8
BLACK
6
CONTINUOUS
10
4.043622047244094
20
-4.5769685039370076
11
4.0428687401574805
21
-4.576818661417323
0
LINE
8
BLACK
6
CONTINUOUS
10
4.0428687401574805
20
-4.576818661417323
11
4.0427562598425197
21
-4.5767061811023622
0
LINE
8
BLACK
6
CONTINUOUS
10
4.0427562598425197
20
-4.5767061811023622
11
4.0425991338582676
21
-4.576681850393701
0
LINE
8
BLACK
6
CONTINUOUS
10
4.0425991338582676
20
-4.576681850393701
11
4.0420333858267714
21
-4.5761624015748028
0
LINE
8
BLACK
6
CONTINUOUS
10
4.0420333858267714
20
-4.5761624015748028
11
3.7133712204724407
21
-4.1269685039370074
0
LINE
8
BLACK
6
CONTINUOUS
10
3.7133712204724407
20
-4.1269685039370074
11
2.2537401574803151
21
-4.1269685039370074
0
LINE
8
BLACK
6
CONTINUOUS
10
2.2537401574803151
20
-4.1269685039370074
11
2.2465617716535431
21
-4.1263404724409449
0
LINE
8
BLACK
6
CONTINUOUS
10
2.2465617716535431
20
-4.1263404724409449
11
2.2396015354330707
21
-4.1244754724409445
0
LINE
8
BLACK
6
CONTINUOUS
10
2.2396015354330707
20
-4.1244754724409445
11
2.2330708661417322
21
-4.1214301968503939
0
LINE
8
BLACK
6
CONTINUOUS
10
2.2330708661417322
20
-4.1214301968503939
11
2.2271682283464567
21
-4.1172971259842521
0
LINE
8
BLACK
6
CONTINUOUS
10
2.2271682283464567
20
-4.1172971259842521
11
2.2220729527559056
21
-4.112201850393701
0
LINE
8
BLACK
6
CONTINUOUS
10
2.2220729527559056
20
-4.112201850393701
11
2.2179398818897638
21
-4.106299212598425
0
LINE
8
BLACK
6
CONTINUOUS
10
2.2179398818897638
20
-4.106299212598425
11
2.2148946062992128
21
-4.0997685433070865
0
LINE
8
BLACK
6
CONTINUOUS
10
2.2148946062992128
20
-4.0997685433070865
11
2.2130296062992127
21
-4.0928083070866137
0
LINE
8
BLACK
6
CONTINUOUS
10
2.2130296062992127
20
-4.0928083070866137
11
2.2124015748031494
21
-4.0856299212598426
0
LINE
8
BLACK
6
CONTINUOUS
10
2.2124015748031494
20
-4.0856299212598426
11
2.2124015748031494
21
-1.1643700787401574
0
LINE
8
BLACK
6
CONTINUOUS
10
2.2124015748031494
20
-1.1643700787401574
11
2.2130296062992127
21
-1.1571916929133859
0
LINE
8
BLACK
6
CONTINUOUS
10
2.2130296062992127
20
-1.1571916929133859
11
2.2148946062992128
21
-1.1502314566929133
0
LINE
8
BLACK
6
CONTINUOUS
10
2.2148946062992128
20
-1.1502314566929133
11
2.2179398818897638
21
-1.1437007874015748
0
LINE
8
BLACK
6
CONTINUOUS
10
2.2179398818897638
20
-1.1437007874015748
11
2.2220729527559056
21
-1.1377981496062992
0
LINE
8
BLACK
6
CONTINUOUS
10
2.2220729527559056
20
-1.1377981496062992
11
2.2271682283464567
21
-1.1327028740157481
0
LINE
8
BLACK
6
CONTINUOUS
10
2.2271682283464567
20
-1.1327028740157481
11
2.2330708661417322
21
-1.1285698031496063
0
LINE
8
BLACK
6
CONTINUOUS
10
2.2330708661417322
20
-1.1285698031496063
11
2.2396015354330707
21
-1.1255245275590551
0
LINE
8
BLACK
6
CONTINUOUS
10
2.2396015354330707
20
-1.1255245275590551
11
2.2465617716535431
21
-1.1236595275590551
0
LINE
8
BLACK
6
CONTINUOUS
10
2.2465617716535431
20
-1.1236595275590551
11
2.2537401574803151
21
-1.1230314960629921
0
LINE
8
BLACK
6
CONTINUOUS
10
2.2537401574803151
20
-1.1230314960629921
11
3.6749999999999998
21
-1.1230314960629921
0
LINE
8
BLACK
6
CONTINUOUS
10
3.6749999999999998
20
-1.1230314960629921
11
3.6782722047244092
21
-1.1230314960629921
0
LINE
8
BLACK
6
CONTINUOUS
10
3.6782722047244092
20
-1.1230314960629921
11
3.6847172047244094
21
-1.1218950787401574
0
LINE
8
BLACK
6
CONTINUOUS
10
3.6847172047244094
20
-1.1218950787401574
11
3.6908669685039368
21
-1.1196567322834645
0
LINE
8
BLACK
6
CONTINUOUS
10
3.6908669685039368
20
-1.1196567322834645
11
3.6965346062992124
21
-1.1163845275590552
0
LINE
8
BLACK
6
CONTINUOUS
10
3.6965346062992124
20
-1.1163845275590552
11
3.7015479527559054
21
-1.112177874015748
0
LINE
8
BLACK
6
CONTINUOUS
10
3.7015479527559054
20
-1.112177874015748
11
3.7057546062992124
21
-1.1071645275590551
0
LINE
8
BLACK
6
CONTINUOUS
10
3.7057546062992124
20
-1.1071645275590551
11
3.7090268110236218
21
-1.1014968897637796
0
LINE
8
BLACK
6
CONTINUOUS
10
3.7090268110236218
20
-1.1014968897637796
11
3.711265157480315
21
-1.095347125984252
0
LINE
8
BLACK
6
CONTINUOUS
10
3.711265157480315
20
-1.095347125984252
11
3.7124015748031494
21
-1.088902125984252
0
LINE
8
BLACK
6
CONTINUOUS
10
3.7124015748031494
20
-1.088902125984252
11
3.7124015748031494
21
-1.0856299212598426
0
LINE
8
BLACK
6
CONTINUOUS
10
3.7124015748031494
20
-1.0856299212598426
11
3.7124015748031494
21
-0.8643700787401575
0
LINE
8
BLACK
6
CONTINUOUS
10
3.7124015748031494
20
-0.8643700787401575
11
3.7130296062992123
21
-0.8571916929133858
0
LINE
8
BLACK
6
CONTINUOUS
10
3.7130296062992123
20
-0.8571916929133858
11
3.7148946062992123
21
-0.8502314566929133
0
LINE
8
BLACK
6
CONTINUOUS
10
3.7148946062992123
20
-0.8502314566929133
11
3.7179398818897638
21
-0.8437007874015748
0
LINE
8
BLACK
6
CONTINUOUS
10
3.7179398818897638
20
-0.8437007874015748
11
3.7220729527559056
21
-0.8377981496062992
0
LINE
8
BLACK
6
CONTINUOUS
10
3.7220729527559056
20
-0.8377981496062992
11
3.7271682283464567
21
-0.8327028740157481
0
LINE
8
BLACK
6
CONTINUOUS
10
3.7271682283464567
20
-0.8327028740157481
11
3.7330708661417322
21
-0.8285698031496063
0
LINE
8
BLACK
6
CONTINUOUS
10
3.7330708661417322
20
-0.8285698031496063
11
3.7396015354330707
21
-0.8255245275590551
0
LINE
8
BLACK
6
CONTINUOUS
10
3.7396015354330707
20
-0.8255245275590551
11
3.7465617716535431
21
-0.8236595275590551
0
LINE
8
BLACK
6
CONTINUOUS
10
3.7465617716535431
20
-0.8236595275590551
11
3.7537401574803151
21
-0.8230314960629921
0
LINE
8
BLACK
6
CONTINUOUS
10
3.7537401574803151
20
-0.8230314960629921
11
4.4249999999999998
21
-0.8230315354330708
0
LINE
8
BLACK
6
CONTINUOUS
10
4.4249999999999998
20
-0.8230315354330708
11
4.428571692913386
21
-0.8230314960629921
0
LINE
8
BLACK
6
CONTINUOUS
10
4.428571692913386
20
-0.8230314960629921
11
4.4355859842519685
21
-0.8216794881889764
0
LINE
8
BLACK
6
CONTINUOUS
10
4.4355859842519685
20
-0.8216794881889764
11
4.4422175984251968
21
-0.8190243700787402
0
LINE
8
BLACK
6
CONTINUOUS
10
4.4422175984251968
20
-0.8190243700787402
11
4.4482268503937004
21
-0.8151620866141732
0
LINE
8
BLACK
6
CONTINUOUS
10
4.4482268503937004
20
-0.8151620866141732
11
4.4533964566929134
21
-0.8102322834645669
0
LINE
8
BLACK
6
CONTINUOUS
10
4.4533964566929134
20
-0.8102322834645669
11
4.4575396062992123
21
-0.8044131102362204
0
LINE
8
BLACK
6
CONTINUOUS
10
4.4575396062992123
20
-0.8044131102362204
11
4.4605064960629921
21
-0.7979149999999999
0
LINE
8
BLACK
6
CONTINUOUS
10
4.4605064960629921
20
-0.7979149999999999
11
4.4621899212598422
21
-0.7909727952755905
0
LINE
8
BLACK
6
CONTINUOUS
10
4.4621899212598422
20
-0.7909727952755905
11
4.4623594488188978
21
-0.7874051181102362
0
LINE
8
BLACK
6
CONTINUOUS
10
4.4623594488188978
20
-0.7874051181102362
11
4.4624967716535435
21
-0.7870420472440944
0
LINE
8
BLACK
6
CONTINUOUS
10
4.4624967716535435
20
-0.7870420472440944
11
4.4633685039370077
21
-0.7804810236220472
0
LINE
8
BLACK
6
CONTINUOUS
10
4.4633685039370077
20
-0.7804810236220472
11
4.4654428346456694
21
-0.7738073622047243
0
LINE
8
BLACK
6
CONTINUOUS
10
4.4654428346456694
20
-0.7738073622047243
11
4.4686116535433067
21
-0.7675784645669291
0
LINE
8
BLACK
6
CONTINUOUS
10
4.4686116535433067
20
-0.7675784645669291
11
4.4727844881889762
21
-0.7619724015748032
0
LINE
8
BLACK
6
CONTINUOUS
10
4.4727844881889762
20
-0.7619724015748032
11
4.4778420472440947
21
-0.7571493700787402
0
LINE
8
BLACK
6
CONTINUOUS
10
4.4778420472440947
20
-0.7571493700787402
11
4.4836398031496065
21
-0.7532472440944882
0
LINE
8
BLACK
6
CONTINUOUS
10
4.4836398031496065
20
-0.7532472440944882
11
4.4900120078740153
21
-0.7503774803149607
0
LINE
8
BLACK
6
CONTINUOUS
10
4.4900120078740153
20
-0.7503774803149607
11
4.4967765748031496
21
-0.7486221653543307
0
LINE
8
BLACK
6
CONTINUOUS
10
4.4967765748031496
20
-0.7486221653543307
11
4.5037401574803146
21
-0.7480314173228346
0
LINE
8
BLACK
6
CONTINUOUS
10
4.5037401574803146
20
-0.7480314173228346
11
5.1749999999999998
21
-0.7480314960629921
0
LINE
8
BLACK
6
CONTINUOUS
10
4.5001684251968506
20
-0.7519684645669291
11
4.4931540551181097
21
-0.7533205118110236
0
LINE
8
BLACK
6
CONTINUOUS
10
4.4931540551181097
20
-0.7533205118110236
11
4.4865223622047239
21
-0.7559756692913385
0
LINE
8
BLACK
6
CONTINUOUS
10
4.4865223622047239
20
-0.7559756692913385
11
4.4805130708661416
21
-0.7598380708661417
0
LINE
8
BLACK
6
CONTINUOUS
10
4.4805130708661416
20
-0.7598380708661417
11
4.4753434251968507
21
-0.7647679921259842
0
LINE
8
BLACK
6
CONTINUOUS
10
4.4753434251968507
20
-0.7647679921259842
11
4.4712002755905509
21
-0.7705872440944882
0
LINE
8
BLACK
6
CONTINUOUS
10
4.4712002755905509
20
-0.7705872440944882
11
4.4682334251968499
21
-0.7770854724409448
0
LINE
8
BLACK
6
CONTINUOUS
10
4.4682334251968499
20
-0.7770854724409448
11
4.4665501181102361
21
-0.7840277952755905
0
LINE
8
BLACK
6
CONTINUOUS
10
4.4665501181102361
20
-0.7840277952755905
11
4.4663806299212601
21
-0.7875955118110236
0
LINE
8
BLACK
6
CONTINUOUS
10
4.4663806299212601
20
-0.7875955118110236
11
4.4662433464566931
21
-0.7879584251968503
0
LINE
8
BLACK
6
CONTINUOUS
10
4.4662433464566931
20
-0.7879584251968503
11
4.465371456692913
21
-0.7945196062992126
0
LINE
8
BLACK
6
CONTINUOUS
10
4.465371456692913
20
-0.7945196062992126
11
4.4632970866141735
21
-0.8011931496062992
0
LINE
8
BLACK
6
CONTINUOUS
10
4.4632970866141735
20
-0.8011931496062992
11
4.4601282283464565
21
-0.8074218897637795
0
LINE
8
BLACK
6
CONTINUOUS
10
4.4601282283464565
20
-0.8074218897637795
11
4.4559553543307082
21
-0.8130278740157481
0
LINE
8
BLACK
6
CONTINUOUS
10
4.4559553543307082
20
-0.8130278740157481
11
4.4508978346456693
21
-0.8178507874015748
0
LINE
8
BLACK
6
CONTINUOUS
10
4.4508978346456693
20
-0.8178507874015748
11
4.4451001181102363
21
-0.8217528346456693
0
LINE
8
BLACK
6
CONTINUOUS
10
4.4451001181102363
20
-0.8217528346456693
11
4.4387279921259841
21
-0.8246225196850393
0
LINE
8
BLACK
6
CONTINUOUS
10
4.4387279921259841
20
-0.8246225196850393
11
4.4319635039370073
21
-0.8263778346456693
0
LINE
8
BLACK
6
CONTINUOUS
10
4.4319635039370073
20
-0.8263778346456693
11
4.4249999999999998
21
-0.8269685433070866
0
LINE
8
BLACK
6
CONTINUOUS
10
4.4249999999999998
20
-0.8269685433070866
11
3.7537401574803151
21
-0.8269685039370078
0
LINE
8
BLACK
6
CONTINUOUS
10
3.7537401574803151
20
-0.8269685039370078
11
3.7504679527559053
21
-0.8269685039370078
0
LINE
8
BLACK
6
CONTINUOUS
10
3.7504679527559053
20
-0.8269685039370078
11
3.7440229527559055
21
-0.8281049212598425
0
LINE
8
BLACK
6
CONTINUOUS
10
3.7440229527559055
20
-0.8281049212598425
11
3.7378731889763777
21
-0.8303432677165354
0
LINE
8
BLACK
6
CONTINUOUS
10
3.7378731889763777
20
-0.8303432677165354
11
3.7322055511811021
21
-0.8336154724409449
0
LINE
8
BLACK
6
CONTINUOUS
10
3.7322055511811021
20
-0.8336154724409449
11
3.7271922047244095
21
-0.837822125984252
0
LINE
8
BLACK
6
CONTINUOUS
10
3.7271922047244095
20
-0.837822125984252
11
3.7229855511811021
21
-0.8428354724409448
0
LINE
8
BLACK
6
CONTINUOUS
10
3.7229855511811021
20
-0.8428354724409448
11
3.7197133464566927
21
-0.8485031102362205
0
LINE
8
BLACK
6
CONTINUOUS
10
3.7197133464566927
20
-0.8485031102362205
11
3.7174749999999999
21
-0.854652874015748
0
LINE
8
BLACK
6
CONTINUOUS
10
3.7174749999999999
20
-0.854652874015748
11
3.7163385826771651
21
-0.861097874015748
0
LINE
8
BLACK
6
CONTINUOUS
10
3.7163385826771651
20
-0.861097874015748
11
3.7163385826771651
21
-0.8643700787401575
0
LINE
8
BLACK
6
CONTINUOUS
10
3.7163385826771651
20
-0.8643700787401575
11
3.7163385826771651
21
-1.0856299212598426
0
LINE
8
BLACK
6
CONTINUOUS
10
3.7163385826771651
20
-1.0856299212598426
11
3.7157105511811022
21
-1.0928083070866141
0
LINE
8
BLACK
6
CONTINUOUS
10
3.7157105511811022
20
-1.0928083070866141
11
3.7138455511811022
21
-1.0997685433070865
0
LINE
8
BLACK
6
CONTINUOUS
10
3.7138455511811022
20
-1.0997685433070865
11
3.7108002755905511
21
-1.1062992125984252
0
LINE
8
BLACK
6
CONTINUOUS
10
3.7108002755905511
20
-1.1062992125984252
11
3.7066672047244094
21
-1.1122018503937008
0
LINE
8
BLACK
6
CONTINUOUS
10
3.7066672047244094
20
-1.1122018503937008
11
3.7015719291338582
21
-1.1172971259842519
0
LINE
8
BLACK
6
CONTINUOUS
10
3.7015719291338582
20
-1.1172971259842519
11
3.6956692913385827
21
-1.1214301968503937
0
LINE
8
BLACK
6
CONTINUOUS
10
3.6956692913385827
20
-1.1214301968503937
11
3.6891386220472442
21
-1.1244754724409449
0
LINE
8
BLACK
6
CONTINUOUS
10
3.6891386220472442
20
-1.1244754724409449
11
3.6821783858267714
21
-1.1263404724409449
0
LINE
8
BLACK
6
CONTINUOUS
10
3.6821783858267714
20
-1.1263404724409449
11
3.6749999999999998
21
-1.1269685039370079
0
LINE
8
BLACK
6
CONTINUOUS
10
3.6749999999999998
20
-1.1269685039370079
11
2.2537401574803151
21
-1.1269685039370079
0
LINE
8
BLACK
6
CONTINUOUS
10
2.2537401574803151
20
-1.1269685039370079
11
2.2504679527559053
21
-1.1269685039370079
0
LINE
8
BLACK
6
CONTINUOUS
10
2.2504679527559053
20
-1.1269685039370079
11
2.2440229527559055
21
-1.1281049212598424
0
LINE
8
BLACK
6
CONTINUOUS
10
2.2440229527559055
20
-1.1281049212598424
11
2.2378731889763781
21
-1.1303432677165355
0
LINE
8
BLACK
6
CONTINUOUS
10
2.2378731889763781
20
-1.1303432677165355
11
2.2322055511811025
21
-1.1336154724409448
0
LINE
8
BLACK
6
CONTINUOUS
10
2.2322055511811025
20
-1.1336154724409448
11
2.2271922047244095
21
-1.137822125984252
0
LINE
8
BLACK
6
CONTINUOUS
10
2.2271922047244095
20
-1.137822125984252
11
2.2229855511811025
21
-1.1428354724409449
0
LINE
8
BLACK
6
CONTINUOUS
10
2.2229855511811025
20
-1.1428354724409449
11
2.2197133464566927
21
-1.1485031102362204
0
LINE
8
BLACK
6
CONTINUOUS
10
2.2197133464566927
20
-1.1485031102362204
11
2.2174749999999999
21
-1.154652874015748
0
LINE
8
BLACK
6
CONTINUOUS
10
2.2174749999999999
20
-1.154652874015748
11
2.2163385826771651
21
-1.161097874015748
0
LINE
8
BLACK
6
CONTINUOUS
10
2.2163385826771651
20
-1.161097874015748
11
2.2163385826771651
21
-1.1643700787401574
0
LINE
8
BLACK
6
CONTINUOUS
10
2.2163385826771651
20
-1.1643700787401574
11
2.2163385826771651
21
-4.0856299212598426
0
LINE
8
BLACK
6
CONTINUOUS
10
2.2163385826771651
20
-4.0856299212598426
11
2.2163385826771651
21
-4.0889021259842515
0
LINE
8
BLACK
6
CONTINUOUS
10
2.2163385826771651
20
-4.0889021259842515
11
2.2174749999999999
21
-4.0953471259842518
0
LINE
8
BLACK
6
CONTINUOUS
10
2.2174749999999999
20
-4.0953471259842518
11
2.2197133464566927
21
-4.1014968897637791
0
LINE
8
BLACK
6
CONTINUOUS
10
2.2197133464566927
20
-4.1014968897637791
11
2.2229855511811025
21
-4.1071645275590551
0
LINE
8
BLACK
6
CONTINUOUS
10
2.2229855511811025
20
-4.1071645275590551
11
2.2271922047244095
21
-4.1121778740157477
0
LINE
8
BLACK
6
CONTINUOUS
10
2.2271922047244095
20
-4.1121778740157477
11
2.2322055511811025
21
-4.1163845275590552
0
LINE
8
BLACK
6
CONTINUOUS
10
2.2322055511811025
20
-4.1163845275590552
11
2.2378731889763781
21
-4.1196567322834641
0
LINE
8
BLACK
6
CONTINUOUS
10
2.2378731889763781
20
-4.1196567322834641
11
2.2440229527559055
21
-4.1218950787401578
0
LINE
8
BLACK
6
CONTINUOUS
10
2.2440229527559055
20
-4.1218950787401578
11
2.2504679527559053
21
-4.1230314960629917
0
LINE
8
BLACK
6
CONTINUOUS
10
2.2504679527559053
20
-4.1230314960629917
11
2.2537401574803151
21
-4.1230314960629917
0
LINE
8
BLACK
6
CONTINUOUS
10
2.2537401574803151
20
-4.1230314960629917
11
3.7143700787401572
21
-4.1230314960629917
0
LINE
8
BLACK
6
CONTINUOUS
10
3.7143700787401572
20
-4.1230314960629917
11
3.7151233858267716
21
-4.1231813385826772
0
LINE
8
BLACK
6
CONTINUOUS
10
3.7151233858267716
20
-4.1231813385826772
11
3.7152358267716536
21
-4.1232937795275593
0
LINE
8
BLACK
6
CONTINUOUS
10
3.7152358267716536
20
-4.1232937795275593
11
3.7153929921259841
21
-4.1233181496062992
0
LINE
8
BLACK
6
CONTINUOUS
10
3.7153929921259841
20
-4.1233181496062992
11
3.7159587401574803
21
-4.1238375984251965
0
LINE
8
BLACK
6
CONTINUOUS
10
3.7159587401574803
20
-4.1238375984251965
11
4.0446208661417318
21
-4.5730314960629919
0
LINE
8
BLACK
6
CONTINUOUS
10
4.0446208661417318
20
-4.5730314960629919
11
4.7936241338582679
21
-4.5730314960629919
0
LINE
8
BLACK
6
CONTINUOUS
10
4.7936241338582679
20
-4.5730314960629919
11
4.7937500787401577
21
-4.5730565354330706
0
LINE
8
BLACK
6
CONTINUOUS
10
4.7937500787401577
20
-4.5730565354330706
11
4.7938793700787397
21
-4.5730481102362202
0
LINE
8
BLACK
6
CONTINUOUS
10
4.7938793700787397
20
-4.5730481102362202
11
5.5374522440944878
21
-4.6710962204724407
0
LINE
8
BLACK
6
CONTINUOUS
10
5.5374522440944878
20
-4.6710962204724407
11
5.5375748031496066
21
-4.6711378346456689
0
LINE
8
BLACK
6
CONTINUOUS
10
5.5375748031496066
20
-4.6711378346456689
11
5.5377039370078736
21
-4.6711462992125981
0
LINE
8
BLACK
6
CONTINUOUS
10
5.5377039370078736
20
-4.6711462992125981
11
6.2621006299212594
21
-4.8650702755905515
0
LINE
8
BLACK
6
CONTINUOUS
10
6.2621006299212594
20
-4.8650702755905515
11
6.2622167322834645
21
-4.8651274803149605
0
LINE
8
BLACK
6
CONTINUOUS
10
6.2622167322834645
20
-4.8651274803149605
11
6.262343700787401
21
-4.8651526771653542
0
LINE
8
BLACK
6
CONTINUOUS
10
6.262343700787401
20
-4.8651526771653542
11
6.9193055118110234
21
-5.1367790551181098
0
LINE
8
BLACK
6
CONTINUOUS
10
6.9193055118110234
20
-5.1367790551181098
11
6.9227222834645668
21
-5.1379187401574802
0
LINE
8
BLACK
6
CONTINUOUS
10
6.9227222834645668
20
-5.1379187401574802
11
6.9299978346456692
21
-5.1388899212598425
0
LINE
8
BLACK
6
CONTINUOUS
10
6.9299978346456692
20
-5.1388899212598425
11
6.9373266535433071
21
-5.1384834645669288
0
LINE
8
BLACK
6
CONTINUOUS
10
6.9373266535433071
20
-5.1384834645669288
11
6.9444501968503936
21
-5.136713818897638
0
LINE
8
BLACK
6
CONTINUOUS
10
6.9444501968503936
20
-5.136713818897638
11
6.951117204724409
21
-5.1336433070866141
0
LINE
8
BLACK
6
CONTINUOUS
10
6.951117204724409
20
-5.1336433070866141
11
6.9570924409448818
21
-5.1293803543307082
0
LINE
8
BLACK
6
CONTINUOUS
10
6.9570924409448818
20
-5.1293803543307082
11
6.9621651968503935
21
-5.124075236220472
0
LINE
8
BLACK
6
CONTINUOUS
10
6.9621651968503935
20
-5.124075236220472
11
6.9661564566929135
21
-5.117915157480315
0
LINE
8
BLACK
6
CONTINUOUS
10
6.9661564566929135
20
-5.117915157480315
11
6.9675370078740153
21
-5.1145146850393699
0
LINE
8
BLACK
6
CONTINUOUS
10
6.9675370078740153
20
-5.1145146850393699
11
6.9675406299212597
21
-5.1145103543307089
0
LINE
8
BLACK
6
CONTINUOUS
10
6.9675406299212597
20
-5.1145103543307089
11
6.9675424409448814
21
-5.1145014566929135
0
LINE
8
BLACK
6
CONTINUOUS
10
6.9675424409448814
20
-5.1145014566929135
11
7.4616932677165355
21
-3.9260565354330708
0
LINE
8
BLACK
6
CONTINUOUS
10
7.4616932677165355
20
-3.9260565354330708
11
7.4624015748031498
21
-1.4497070078740157
0
LINE
8
BLACK
6
CONTINUOUS
10
7.4624015748031498
20
-1.4497070078740157
11
7.4624025984251965
21
-1.4497016535433072
0
LINE
8
BLACK
6
CONTINUOUS
10
7.4624025984251965
20
-1.4497016535433072
11
7.4624025590551177
21
-1.4464352362204724
0
LINE
8
BLACK
6
CONTINUOUS
10
7.4624025590551177
20
-1.4464352362204724
11
7.461265826771653
21
-1.4399898818897638
0
LINE
8
BLACK
6
CONTINUOUS
10
7.461265826771653
20
-1.4399898818897638
11
7.4590271259842522
21
-1.433839842519685
0
LINE
8
BLACK
6
CONTINUOUS
10
7.4590271259842522
20
-1.433839842519685
11
7.4557544881889761
21
-1.4281720078740157
0
LINE
8
BLACK
6
CONTINUOUS
10
7.4557544881889761
20
-1.4281720078740157
11
7.4515473228346458
21
-1.4231585826771653
0
LINE
8
BLACK
6
CONTINUOUS
10
7.4515473228346458
20
-1.4231585826771653
11
7.4465334645669286
21
-1.4189519291338581
0
LINE
8
BLACK
6
CONTINUOUS
10
7.4465334645669286
20
-1.4189519291338581
11
7.4408652755905509
21
-1.4156798818897638
0
LINE
8
BLACK
6
CONTINUOUS
10
7.4408652755905509
20
-1.4156798818897638
11
7.4347149999999997
21
-1.413441811023622
0
LINE
8
BLACK
6
CONTINUOUS
10
7.4347149999999997
20
-1.413441811023622
11
7.4282695275590553
21
-1.4123057874015748
0
LINE
8
BLACK
6
CONTINUOUS
10
7.4282695275590553
20
-1.4123057874015748
11
7.4249971259842518
21
-1.4123060236220473
0
LINE
8
BLACK
6
CONTINUOUS
10
7.4249971259842518
20
-1.4123060236220473
11
7.4249959055118104
21
-1.4123056299212597
0
LINE
8
BLACK
6
CONTINUOUS
10
7.4249959055118104
20
-1.4123056299212597
11
7.4249939370078737
21
-1.4123060236220473
0
LINE
8
BLACK
6
CONTINUOUS
10
7.4249939370078737
20
-1.4123060236220473
11
7.3154921259842514
21
-1.4119682283464567
0
LINE
8
BLACK
6
CONTINUOUS
10
7.3154921259842514
20
-1.4119682283464567
11
7.3154921259842514
21
-1.4119685039370078
0
LINE
8
BLACK
6
CONTINUOUS
10
7.3154921259842514
20
-1.4119685039370078
11
7.3122199212598424
21
-1.4119685039370078
0
LINE
8
BLACK
6
CONTINUOUS
10
7.3122199212598424
20
-1.4119685039370078
11
7.3057749606299209
21
-1.4131049212598426
0
LINE
8
BLACK
6
CONTINUOUS
10
7.3057749606299209
20
-1.4131049212598426
11
7.2996252362204723
21
-1.4153432283464566
0
LINE
8
BLACK
6
CONTINUOUS
10
7.2996252362204723
20
-1.4153432283464566
11
7.2939575984251963
21
-1.4186153937007873
0
LINE
8
BLACK
6
CONTINUOUS
10
7.2939575984251963
20
-1.4186153937007873
11
7.2889442913385825
21
-1.4228220472440944
0
LINE
8
BLACK
6
CONTINUOUS
10
7.2889442913385825
20
-1.4228220472440944
11
7.2847375984251963
21
-1.4278353543307087
0
LINE
8
BLACK
6
CONTINUOUS
10
7.2847375984251963
20
-1.4278353543307087
11
7.2814653937007874
21
-1.4335029527559056
0
LINE
8
BLACK
6
CONTINUOUS
10
7.2814653937007874
20
-1.4335029527559056
11
7.2792270472440945
21
-1.4396526377952756
0
LINE
8
BLACK
6
CONTINUOUS
10
7.2792270472440945
20
-1.4396526377952756
11
7.2780905511811023
21
-1.4460975984251969
0
LINE
8
BLACK
6
CONTINUOUS
10
7.2780905511811023
20
-1.4460975984251969
11
7.2780905511811023
21
-1.4493698031496063
0
LINE
8
BLACK
6
CONTINUOUS
10
7.2780905511811023
20
-1.4493698031496063
11
7.2780905511811023
21
-2.1656296456692914
0
LINE
8
BLACK
6
CONTINUOUS
10
7.2780905511811023
20
-2.1656296456692914
11
7.2774625590551176
21
-2.1728080314960629
0
LINE
8
BLACK
6
CONTINUOUS
10
7.2774625590551176
20
-2.1728080314960629
11
7.2755975984251968
21
-2.1797683464566928
0
LINE
8
BLACK
6
CONTINUOUS
10
7.2755975984251968
20
-2.1797683464566928
11
7.2725523228346454
21
-2.1862990551181101
0
LINE
8
BLACK
6
CONTINUOUS
10
7.2725523228346454
20
-2.1862990551181101
11
7.2684192519685036
21
-2.1922017322834644
0
LINE
8
BLACK
6
CONTINUOUS
10
7.2684192519685036
20
-2.1922017322834644
11
7.2633239763779525
21
-2.1972970472440942
0
LINE
8
BLACK
6
CONTINUOUS
10
7.2633239763779525
20
-2.1972970472440942
11
7.2574213385826774
21
-2.201430118110236
0
LINE
8
BLACK
6
CONTINUOUS
10
7.2574213385826774
20
-2.201430118110236
11
7.2508906692913389
21
-2.204475472440945
0
LINE
8
BLACK
6
CONTINUOUS
10
7.2508906692913389
20
-2.204475472440945
11
7.2439303543307085
21
-2.206340472440945
0
LINE
8
BLACK
6
CONTINUOUS
10
7.2439303543307085
20
-2.206340472440945
11
7.2367519685039365
21
-2.2069685039370079
0
LINE
8
BLACK
6
CONTINUOUS
10
7.2367519685039365
20
-2.2069685039370079
11
7.2367519685039365
21
-2.2069682283464567
0
LINE
8
BLACK
6
CONTINUOUS
10
7.2367519685039365
20
-2.2069682283464567
11
6.8579921259842518
21
-2.2069682283464567
0
LINE
8
BLACK
6
CONTINUOUS
10
6.8579921259842518
20
-2.2069682283464567
11
6.8508137795275585
21
-2.2063401968503937
0
LINE
8
BLACK
6
CONTINUOUS
10
6.8508137795275585
20
-2.2063401968503937
11
6.8438535433070866
21
-2.2044751968503937
0
LINE
8
BLACK
6
CONTINUOUS
10
6.8438535433070866
20
-2.2044751968503937
11
6.8373228740157481
21
-2.2014298818897635
0
LINE
8
BLACK
6
CONTINUOUS
10
6.8373228740157481
20
-2.2014298818897635
11
6.8314202755905509
21
-2.1972968110236222
0
LINE
8
BLACK
6
CONTINUOUS
10
6.8314202755905509
20
-2.1972968110236222
11
6.8263250393700785
21
-2.1922015354330706
0
LINE
8
BLACK
6
CONTINUOUS
10
6.8263250393700785
20
-2.1922015354330706
11
6.8221920078740155
21
-2.1862988976377951
0
LINE
8
BLACK
6
CONTINUOUS
10
6.8221920078740155
20
-2.1862988976377951
11
6.819146732283464
21
-2.1797682283464566
0
LINE
8
BLACK
6
CONTINUOUS
10
6.819146732283464
20
-2.1797682283464566
11
6.817281811023622
21
-2.1728079921259842
0
LINE
8
BLACK
6
CONTINUOUS
10
6.817281811023622
20
-2.1728079921259842
11
6.8166570078740154
21
-2.1656662204724411
0
LINE
8
BLACK
6
CONTINUOUS
10
6.8166570078740154
20
-2.1656662204724411
11
6.8166536614173223
21
-2.1656502362204724
0
LINE
8
BLACK
6
CONTINUOUS
10
6.8166536614173223
20
-2.1656502362204724
11
6.8091536614173229
21
-1.449390433070866
0
LINE
8
BLACK
6
CONTINUOUS
10
6.8091536614173229
20
-1.449390433070866
11
6.8091560629921259
21
-1.4493775590551181
0
LINE
8
BLACK
6
CONTINUOUS
10
6.8091560629921259
20
-1.4493775590551181
11
6.8091535433070867
21
-1.4493698031496063
0
LINE
8
BLACK
6
CONTINUOUS
10
6.8091535433070867
20
-1.4493698031496063
11
6.8091538188976379
21
-1.4493698031496063
0
LINE
8
BLACK
6
CONTINUOUS
10
6.8091538188976379
20
-1.4493698031496063
11
6.8091538188976379
21
-1.4460975984251969
0
LINE
8
BLACK
6
CONTINUOUS
10
6.8091538188976379
20
-1.4460975984251969
11
6.8080173228346457
21
-1.4396525590551181
0
LINE
8
BLACK
6
CONTINUOUS
10
6.8080173228346457
20
-1.4396525590551181
11
6.8057789763779528
21
-1.4335028346456693
0
LINE
8
BLACK
6
CONTINUOUS
10
6.8057789763779528
20
-1.4335028346456693
11
6.8025067322834643
21
-1.4278351968503937
0
LINE
8
BLACK
6
CONTINUOUS
10
6.8025067322834643
20
-1.4278351968503937
11
6.7983000000000002
21
-1.4228218503937007
0
LINE
8
BLACK
6
CONTINUOUS
10
6.7983000000000002
20
-1.4228218503937007
11
6.7932866535433067
21
-1.4186151968503937
0
LINE
8
BLACK
6
CONTINUOUS
10
6.7932866535433067
20
-1.4186151968503937
11
6.7876189763779529
21
-1.4153429527559054
0
LINE
8
BLACK
6
CONTINUOUS
10
6.7876189763779529
20
-1.4153429527559054
11
6.7814692125984246
21
-1.4131046456692913
0
LINE
8
BLACK
6
CONTINUOUS
10
6.7814692125984246
20
-1.4131046456692913
11
6.7750241732283465
21
-1.4119682283464567
0
LINE
8
BLACK
6
CONTINUOUS
10
6.7750241732283465
20
-1.4119682283464567
11
6.771765039370079
21
-1.4119682283464567
0
LINE
8
BLACK
6
CONTINUOUS
10
6.771765039370079
20
-1.4119682283464567
11
6.7574061417322833
21
-1.4121370078740156
0
LINE
8
BLACK
6
CONTINUOUS
10
6.7574061417322833
20
-1.4121370078740156
11
6.75737125984252
21
-1.4121304724409449
0
LINE
8
BLACK
6
CONTINUOUS
10
6.75737125984252
20
-1.4121304724409449
11
6.7506969291338583
21
-1.4121938582677165
0
LINE
8
BLACK
6
CONTINUOUS
10
6.7506969291338583
20
-1.4121938582677165
11
6.7439127559055114
21
-1.4111208661417323
0
LINE
8
BLACK
6
CONTINUOUS
10
6.7439127559055114
20
-1.4111208661417323
11
6.7373998818897638
21
-1.40893937007874
0
LINE
8
BLACK
6
CONTINUOUS
10
6.7373998818897638
20
-1.40893937007874
11
6.7313381102362202
21
-1.405709527559055
0
LINE
8
BLACK
6
CONTINUOUS
10
6.7313381102362202
20
-1.405709527559055
11
6.7258948425196845
21
-1.4015205905511812
0
LINE
8
BLACK
6
CONTINUOUS
10
6.7258948425196845
20
-1.4015205905511812
11
6.7212203543307085
21
-1.3964881496062991
0
LINE
8
BLACK
6
CONTINUOUS
10
6.7212203543307085
20
-1.3964881496062991
11
6.717443661417323
21
-1.3907511811023621
0
LINE
8
BLACK
6
CONTINUOUS
10
6.717443661417323
20
-1.3907511811023621
11
6.7146690157480311
21
-1.3844680314960629
0
LINE
8
BLACK
6
CONTINUOUS
10
6.7146690157480311
20
-1.3844680314960629
11
6.7129730708661413
21
-1.3778121653543307
0
LINE
8
BLACK
6
CONTINUOUS
10
6.7129730708661413
20
-1.3778121653543307
11
6.7124033858267715
21
-1.370976653543307
0
LINE
8
BLACK
6
CONTINUOUS
10
6.7124033858267715
20
-1.370976653543307
11
6.7124015748031498
21
-1.3709674409448818
0
LINE
8
BLACK
6
CONTINUOUS
10
6.7124015748031498
20
-1.3709674409448818
11
6.7124015748031498
21
-1.0518700787401574
0
LINE
8
BLACK
6
CONTINUOUS
10
6.7124015748031498
20
-1.0518700787401574
11
6.7124015748031498
21
-1.048597874015748
0
LINE
8
BLACK
6
CONTINUOUS
10
6.7124015748031498
20
-1.048597874015748
11
6.711265157480315
21
-1.042152874015748
0
LINE
8
BLACK
6
CONTINUOUS
10
6.711265157480315
20
-1.042152874015748
11
6.7090268110236222
21
-1.0360031102362204
0
LINE
8
BLACK
6
CONTINUOUS
10
6.7090268110236222
20
-1.0360031102362204
11
6.7057546062992124
21
-1.0303354724409448
0
LINE
8
BLACK
6
CONTINUOUS
10
6.7057546062992124
20
-1.0303354724409448
11
6.701547952755905
21
-1.025322125984252
0
LINE
8
BLACK
6
CONTINUOUS
10
6.701547952755905
20
-1.025322125984252
11
6.6965346062992124
21
-1.0211154724409448
0
LINE
8
BLACK
6
CONTINUOUS
10
6.6965346062992124
20
-1.0211154724409448
11
6.6908669685039373
21
-1.0178432677165354
0
LINE
8
BLACK
6
CONTINUOUS
10
6.6908669685039373
20
-1.0178432677165354
11
6.684717204724409
21
-1.0156049212598426
0
LINE
8
BLACK
6
CONTINUOUS
10
6.684717204724409
20
-1.0156049212598426
11
6.6782722047244096
21
-1.0144685039370078
0
LINE
8
BLACK
6
CONTINUOUS
10
6.6782722047244096
20
-1.0144685039370078
11
6.6749999999999998
21
-1.0144685039370078
0
LINE
8
BLACK
6
CONTINUOUS
10
6.6749999999999998
20
-1.0144685039370078
11
6.0037401574803146
21
-1.0144685039370078
0
LINE
8
BLACK
6
CONTINUOUS
10
6.0037401574803146
20
-1.0144685039370078
11
5.9965617716535435
21
-1.0138404724409449
0
LINE
8
BLACK
6
CONTINUOUS
10
5.9965617716535435
20
-1.0138404724409449
11
5.9896015354330707
21
-1.0119754724409449
0
LINE
8
BLACK
6
CONTINUOUS
10
5.9896015354330707
20
-1.0119754724409449
11
5.9830708661417322
21
-1.0089301968503936
0
LINE
8
BLACK
6
CONTINUOUS
10
5.9830708661417322
20
-1.0089301968503936
11
5.9771682283464562
21
-1.0047971259842519
0
LINE
8
BLACK
6
CONTINUOUS
10
5.9771682283464562
20
-1.0047971259842519
11
5.9720729527559051
21
-0.9997018503937007
0
LINE
8
BLACK
6
CONTINUOUS
10
5.9720729527559051
20
-0.9997018503937007
11
5.9679398818897633
21
-0.9937992125984252
0
LINE
8
BLACK
6
CONTINUOUS
10
5.9679398818897633
20
-0.9937992125984252
11
5.9648946062992128
21
-0.9872685433070866
0
LINE
8
BLACK
6
CONTINUOUS
10
5.9648946062992128
20
-0.9872685433070866
11
5.9630296062992123
21
-0.9803083070866142
0
LINE
8
BLACK
6
CONTINUOUS
10
5.9630296062992123
20
-0.9803083070866142
11
5.9624015748031498
21
-0.9731299212598425
0
LINE
8
BLACK
6
CONTINUOUS
10
5.9624015748031498
20
-0.9731299212598425
11
5.9624015748031498
21
-0.9018700787401575
0
LINE
8
BLACK
6
CONTINUOUS
10
5.9624015748031498
20
-0.9018700787401575
11
5.9624015748031498
21
-0.898597874015748
0
LINE
8
BLACK
6
CONTINUOUS
10
5.9624015748031498
20
-0.898597874015748
11
5.961265157480315
21
-0.8921528740157481
0
LINE
8
BLACK
6
CONTINUOUS
10
5.961265157480315
20
-0.8921528740157481
11
5.9590268110236222
21
-0.8860031102362205
0
LINE
8
BLACK
6
CONTINUOUS
10
5.9590268110236222
20
-0.8860031102362205
11
5.9557546062992124
21
-0.8803354724409449
0
LINE
8
BLACK
6
CONTINUOUS
10
5.9557546062992124
20
-0.8803354724409449
11
5.951547952755905
21
-0.875322125984252
0
LINE
8
BLACK
6
CONTINUOUS
10
5.951547952755905
20
-0.875322125984252
11
5.9465346062992124
21
-0.8711154724409449
0
LINE
8
BLACK
6
CONTINUOUS
10
5.9465346062992124
20
-0.8711154724409449
11
5.9408669685039373
21
-0.8678432677165354
0
LINE
8
BLACK
6
CONTINUOUS
10
5.9408669685039373
20
-0.8678432677165354
11
5.934717204724409
21
-0.8656049212598425
0
LINE
8
BLACK
6
CONTINUOUS
10
5.934717204724409
20
-0.8656049212598425
11
5.9282722047244096
21
-0.8644685039370078
0
LINE
8
BLACK
6
CONTINUOUS
10
5.9282722047244096
20
-0.8644685039370078
11
5.9249999999999998
21
-0.8644685039370078
0
LINE
8
BLACK
6
CONTINUOUS
10
5.9249999999999998
20
-0.8644685039370078
11
5.2537401574803146
21
-0.8644685039370078
0
LINE
8
BLACK
6
CONTINUOUS
10
5.2537401574803146
20
-0.8644685039370078
11
5.2465617716535435
21
-0.8638404724409449
0
LINE
8
BLACK
6
CONTINUOUS
10
5.2465617716535435
20
-0.8638404724409449
11
5.2396015354330707
21
-0.8619754724409449
0
LINE
8
BLACK
6
CONTINUOUS
10
5.2396015354330707
20
-0.8619754724409449
11
5.2330708661417322
21
-0.8589301968503937
0
LINE
8
BLACK
6
CONTINUOUS
10
5.2330708661417322
20
-0.8589301968503937
11
5.2271682283464562
21
-0.8547971259842519
0
LINE
8
BLACK
6
CONTINUOUS
10
5.2271682283464562
20
-0.8547971259842519
11
5.2220729527559051
21
-0.8497018503937007
0
LINE
8
BLACK
6
CONTINUOUS
10
5.2220729527559051
20
-0.8497018503937007
11
5.2179398818897633
21
-0.8437992125984252
0
LINE
8
BLACK
6
CONTINUOUS
10
5.2179398818897633
20
-0.8437992125984252
11
5.2148946062992128
21
-0.8372685433070866
0
LINE
8
BLACK
6
CONTINUOUS
10
5.2148946062992128
20
-0.8372685433070866
11
5.2130296062992123
21
-0.8303083070866142
0
LINE
8
BLACK
6
CONTINUOUS
10
5.2130296062992123
20
-0.8303083070866142
11
5.2124015748031498
21
-0.8231299212598425
0
LINE
8
BLACK
6
CONTINUOUS
10
5.2124015748031498
20
-0.8231299212598425
11
5.2124015748031498
21
-0.7893700787401574
0
LINE
8
BLACK
6
CONTINUOUS
10
5.2124015748031498
20
-0.7893700787401574
11
5.2124015748031498
21
-0.786097874015748
0
LINE
8
BLACK
6
CONTINUOUS
10
5.2124015748031498
20
-0.786097874015748
11
5.211265157480315
21
-0.779652874015748
0
LINE
8
BLACK
6
CONTINUOUS
10
5.211265157480315
20
-0.779652874015748
11
5.2090268110236222
21
-0.7735031102362204
0
LINE
8
BLACK
6
CONTINUOUS
10
5.2090268110236222
20
-0.7735031102362204
11
5.2057546062992124
21
-0.7678354724409449
0
LINE
8
BLACK
6
CONTINUOUS
10
5.2057546062992124
20
-0.7678354724409449
11
5.201547952755905
21
-0.7628221259842519
0
LINE
8
BLACK
6
CONTINUOUS
10
5.201547952755905
20
-0.7628221259842519
11
5.1965346062992124
21
-0.7586154724409448
0
LINE
8
BLACK
6
CONTINUOUS
10
5.1965346062992124
20
-0.7586154724409448
11
5.1908669685039373
21
-0.7553432677165354
0
LINE
8
BLACK
6
CONTINUOUS
10
5.1908669685039373
20
-0.7553432677165354
11
5.184717204724409
21
-0.7531049212598425
0
LINE
8
BLACK
6
CONTINUOUS
10
5.184717204724409
20
-0.7531049212598425
11
5.1782722047244096
21
-0.7519685039370079
0
LINE
8
BLACK
6
CONTINUOUS
10
5.1782722047244096
20
-0.7519685039370079
11
5.1749999999999998
21
-0.7519685039370079
0
LINE
8
BLACK
6
CONTINUOUS
10
5.1749999999999998
20
-0.7519685039370079
11
4.5037401574803146
21
-0.7519684251968504
0
LINE
8
BLACK
6
CONTINUOUS
10
4.5037401574803146
20
-0.7519684251968504
11
4.5001684251968506
21
-0.7519684645669291
  0
ENDSEC
  0
EOF
